G04 Layer_Color=8388736*
%FSLAX44Y44*%
%MOMM*%
G71*
G01*
G75*
%ADD93R,0.2499X0.3000*%
%ADD94R,0.3000X0.2499*%
%ADD95R,3.4032X4.4032*%
%ADD96R,0.6332X0.4831*%
%ADD97R,0.9652X1.1684*%
%ADD98R,0.4532X0.7032*%
%ADD99R,0.4532X0.4032*%
%ADD100R,1.1684X0.9652*%
%ADD101R,0.9032X0.9032*%
G04:AMPARAMS|DCode=102|XSize=1.2032mm|YSize=1.2032mm|CornerRadius=0.6016mm|HoleSize=0mm|Usage=FLASHONLY|Rotation=90.000|XOffset=0mm|YOffset=0mm|HoleType=Round|Shape=RoundedRectangle|*
%AMROUNDEDRECTD102*
21,1,1.2032,0.0000,0,0,90.0*
21,1,0.0000,1.2032,0,0,90.0*
1,1,1.2032,0.0000,0.0000*
1,1,1.2032,0.0000,0.0000*
1,1,1.2032,0.0000,0.0000*
1,1,1.2032,0.0000,0.0000*
%
%ADD102ROUNDEDRECTD102*%
G04:AMPARAMS|DCode=103|XSize=1.2032mm|YSize=1.2032mm|CornerRadius=0.6016mm|HoleSize=0mm|Usage=FLASHONLY|Rotation=0.000|XOffset=0mm|YOffset=0mm|HoleType=Round|Shape=RoundedRectangle|*
%AMROUNDEDRECTD103*
21,1,1.2032,0.0000,0,0,0.0*
21,1,0.0000,1.2032,0,0,0.0*
1,1,1.2032,0.0000,0.0000*
1,1,1.2032,0.0000,0.0000*
1,1,1.2032,0.0000,0.0000*
1,1,1.2032,0.0000,0.0000*
%
%ADD103ROUNDEDRECTD103*%
%ADD104R,0.4831X0.6332*%
%ADD105R,0.5032X0.5032*%
%ADD106R,0.5032X0.5032*%
%ADD107R,0.9032X0.9032*%
%ADD108R,2.2032X1.0531*%
%ADD109R,0.9032X0.6032*%
%ADD110R,0.7531X0.5032*%
%ADD111R,0.7333X1.4531*%
%ADD112R,0.4531X0.6032*%
%ADD113R,3.6032X1.5032*%
%ADD114R,0.7033X0.5032*%
%ADD115R,0.5032X0.7033*%
%ADD116R,0.5733X0.7033*%
G04:AMPARAMS|DCode=117|XSize=1.8532mm|YSize=0.8132mm|CornerRadius=0.1779mm|HoleSize=0mm|Usage=FLASHONLY|Rotation=0.000|XOffset=0mm|YOffset=0mm|HoleType=Round|Shape=RoundedRectangle|*
%AMROUNDEDRECTD117*
21,1,1.8532,0.4575,0,0,0.0*
21,1,1.4975,0.8132,0,0,0.0*
1,1,0.3557,0.7488,-0.2288*
1,1,0.3557,-0.7488,-0.2288*
1,1,0.3557,-0.7488,0.2288*
1,1,0.3557,0.7488,0.2288*
%
%ADD117ROUNDEDRECTD117*%
G04:AMPARAMS|DCode=118|XSize=1.8532mm|YSize=0.7832mm|CornerRadius=0.1741mm|HoleSize=0mm|Usage=FLASHONLY|Rotation=0.000|XOffset=0mm|YOffset=0mm|HoleType=Round|Shape=RoundedRectangle|*
%AMROUNDEDRECTD118*
21,1,1.8532,0.4350,0,0,0.0*
21,1,1.5050,0.7832,0,0,0.0*
1,1,0.3482,0.7525,-0.2175*
1,1,0.3482,-0.7525,-0.2175*
1,1,0.3482,-0.7525,0.2175*
1,1,0.3482,0.7525,0.2175*
%
%ADD118ROUNDEDRECTD118*%
%ADD119R,1.1032X0.5232*%
G04:AMPARAMS|DCode=120|XSize=2.1732mm|YSize=0.7932mm|CornerRadius=0.1754mm|HoleSize=0mm|Usage=FLASHONLY|Rotation=90.000|XOffset=0mm|YOffset=0mm|HoleType=Round|Shape=RoundedRectangle|*
%AMROUNDEDRECTD120*
21,1,2.1732,0.4425,0,0,90.0*
21,1,1.8225,0.7932,0,0,90.0*
1,1,0.3507,0.2213,0.9113*
1,1,0.3507,0.2213,-0.9113*
1,1,0.3507,-0.2213,-0.9113*
1,1,0.3507,-0.2213,0.9113*
%
%ADD120ROUNDEDRECTD120*%
G04:AMPARAMS|DCode=121|XSize=0.8416mm|YSize=2.6516mm|CornerRadius=0.1248mm|HoleSize=0mm|Usage=FLASHONLY|Rotation=180.000|XOffset=0mm|YOffset=0mm|HoleType=Round|Shape=RoundedRectangle|*
%AMROUNDEDRECTD121*
21,1,0.8416,2.4020,0,0,180.0*
21,1,0.5920,2.6516,0,0,180.0*
1,1,0.2496,-0.2960,1.2010*
1,1,0.2496,0.2960,1.2010*
1,1,0.2496,0.2960,-1.2010*
1,1,0.2496,-0.2960,-1.2010*
%
%ADD121ROUNDEDRECTD121*%
%ADD122R,1.6033X1.6033*%
%ADD123R,2.0033X1.6033*%
G04:AMPARAMS|DCode=124|XSize=1.2532mm|YSize=0.8532mm|CornerRadius=0.1666mm|HoleSize=0mm|Usage=FLASHONLY|Rotation=180.000|XOffset=0mm|YOffset=0mm|HoleType=Round|Shape=RoundedRectangle|*
%AMROUNDEDRECTD124*
21,1,1.2532,0.5200,0,0,180.0*
21,1,0.9200,0.8532,0,0,180.0*
1,1,0.3332,-0.4600,0.2600*
1,1,0.3332,0.4600,0.2600*
1,1,0.3332,0.4600,-0.2600*
1,1,0.3332,-0.4600,-0.2600*
%
%ADD124ROUNDEDRECTD124*%
G04:AMPARAMS|DCode=125|XSize=0.5032mm|YSize=1.3033mm|CornerRadius=0.1031mm|HoleSize=0mm|Usage=FLASHONLY|Rotation=90.000|XOffset=0mm|YOffset=0mm|HoleType=Round|Shape=RoundedRectangle|*
%AMROUNDEDRECTD125*
21,1,0.5032,1.0971,0,0,90.0*
21,1,0.2970,1.3033,0,0,90.0*
1,1,0.2062,0.5485,0.1485*
1,1,0.2062,0.5485,-0.1485*
1,1,0.2062,-0.5485,-0.1485*
1,1,0.2062,-0.5485,0.1485*
%
%ADD125ROUNDEDRECTD125*%
%ADD126R,2.0033X2.4031*%
G04:AMPARAMS|DCode=127|XSize=0.5032mm|YSize=1.0032mm|CornerRadius=0.1031mm|HoleSize=0mm|Usage=FLASHONLY|Rotation=90.000|XOffset=0mm|YOffset=0mm|HoleType=Round|Shape=RoundedRectangle|*
%AMROUNDEDRECTD127*
21,1,0.5032,0.7970,0,0,90.0*
21,1,0.2970,1.0032,0,0,90.0*
1,1,0.2062,0.3985,0.1485*
1,1,0.2062,0.3985,-0.1485*
1,1,0.2062,-0.3985,-0.1485*
1,1,0.2062,-0.3985,0.1485*
%
%ADD127ROUNDEDRECTD127*%
%ADD128R,1.0032X0.6032*%
%ADD129R,1.6033X1.6033*%
%ADD130R,1.8032X1.8032*%
%ADD131R,1.8032X1.8032*%
%ADD132R,0.9533X0.4232*%
%ADD133R,0.4232X0.9533*%
%ADD134R,4.0531X4.0531*%
G04:AMPARAMS|DCode=135|XSize=0.9016mm|YSize=1.6016mm|CornerRadius=0.1508mm|HoleSize=0mm|Usage=FLASHONLY|Rotation=270.000|XOffset=0mm|YOffset=0mm|HoleType=Round|Shape=RoundedRectangle|*
%AMROUNDEDRECTD135*
21,1,0.9016,1.3000,0,0,270.0*
21,1,0.6000,1.6016,0,0,270.0*
1,1,0.3016,-0.6500,-0.3000*
1,1,0.3016,-0.6500,0.3000*
1,1,0.3016,0.6500,0.3000*
1,1,0.3016,0.6500,-0.3000*
%
%ADD135ROUNDEDRECTD135*%
G04:AMPARAMS|DCode=136|XSize=1.0016mm|YSize=0.9016mm|CornerRadius=0.1308mm|HoleSize=0mm|Usage=FLASHONLY|Rotation=0.000|XOffset=0mm|YOffset=0mm|HoleType=Round|Shape=RoundedRectangle|*
%AMROUNDEDRECTD136*
21,1,1.0016,0.6400,0,0,0.0*
21,1,0.7400,0.9016,0,0,0.0*
1,1,0.2616,0.3700,-0.3200*
1,1,0.2616,-0.3700,-0.3200*
1,1,0.2616,-0.3700,0.3200*
1,1,0.2616,0.3700,0.3200*
%
%ADD136ROUNDEDRECTD136*%
%ADD137C,1.8032*%
%ADD138C,0.7531*%
%ADD139C,0.2032*%
%ADD140C,0.8532*%
D93*
X2375822Y2251790D02*
D03*
X2380822D02*
D03*
X2385822D02*
D03*
X2390822D02*
D03*
Y2266790D02*
D03*
X2385822D02*
D03*
X2380822D02*
D03*
X2375822D02*
D03*
D94*
X2390822Y2256790D02*
D03*
Y2261790D02*
D03*
X2375822D02*
D03*
Y2256790D02*
D03*
D95*
X2523744Y2061718D02*
D03*
X2187844D02*
D03*
X2894076D02*
D03*
X2558176D02*
D03*
D96*
X2706624Y2424420D02*
D03*
Y2429520D02*
D03*
X2409444Y2322058D02*
D03*
Y2327158D02*
D03*
X2409698Y2296668D02*
D03*
Y2301768D02*
D03*
X2456942Y2235190D02*
D03*
Y2240290D02*
D03*
X2493518Y2446030D02*
D03*
Y2440930D02*
D03*
X2371598Y2441702D02*
D03*
Y2446802D02*
D03*
X2591816Y2231888D02*
D03*
Y2236988D02*
D03*
X2620518Y2246323D02*
D03*
Y2241222D02*
D03*
X2681986Y2217621D02*
D03*
Y2212520D02*
D03*
X2714498Y2223950D02*
D03*
Y2229051D02*
D03*
X2650744Y2298118D02*
D03*
Y2303219D02*
D03*
X2622296Y2264611D02*
D03*
Y2259510D02*
D03*
X2635377Y2288995D02*
D03*
Y2283894D02*
D03*
X2622296Y2269670D02*
D03*
Y2274771D02*
D03*
X2711958Y2241032D02*
D03*
Y2246132D02*
D03*
X2072101Y2156165D02*
D03*
Y2161266D02*
D03*
X2058893D02*
D03*
Y2156165D02*
D03*
X2748788Y2344430D02*
D03*
Y2339330D02*
D03*
X2733040D02*
D03*
Y2344430D02*
D03*
X2717038D02*
D03*
Y2339330D02*
D03*
X2463038Y2240290D02*
D03*
Y2235190D02*
D03*
X2450846D02*
D03*
Y2240290D02*
D03*
X2123948Y2202698D02*
D03*
Y2197598D02*
D03*
X2065497Y2161266D02*
D03*
Y2156165D02*
D03*
X2203468Y2230666D02*
D03*
Y2235766D02*
D03*
X2706624Y2241032D02*
D03*
Y2246132D02*
D03*
D97*
X2150999Y2054606D02*
D03*
X2134997D02*
D03*
X2395601Y2354580D02*
D03*
X2379599D02*
D03*
X2350897Y2420620D02*
D03*
X2334895D02*
D03*
X2151583Y2419528D02*
D03*
X2167585D02*
D03*
X2110181D02*
D03*
X2094179D02*
D03*
X2605151Y2419350D02*
D03*
X2621153D02*
D03*
X2718181Y2287715D02*
D03*
X2734183D02*
D03*
X2669921Y2378456D02*
D03*
X2653919D02*
D03*
Y2364232D02*
D03*
X2669921D02*
D03*
X2167255Y2278380D02*
D03*
X2151253D02*
D03*
X2191941Y2261761D02*
D03*
X2207943D02*
D03*
X2200275Y2338070D02*
D03*
X2184273D02*
D03*
X2156333Y2294128D02*
D03*
X2172335D02*
D03*
X2158365Y2311654D02*
D03*
X2142363D02*
D03*
X2158365Y2326894D02*
D03*
X2142363D02*
D03*
X2158365Y2342134D02*
D03*
X2142363D02*
D03*
X2158365Y2357374D02*
D03*
X2142363D02*
D03*
X2615311Y2303463D02*
D03*
X2631313D02*
D03*
D98*
X2136596Y2232660D02*
D03*
D99*
X2130096Y2234660D02*
D03*
Y2230660D02*
D03*
D100*
X2354834Y2305939D02*
D03*
Y2321941D02*
D03*
X2710180Y2416683D02*
D03*
Y2400681D02*
D03*
X2729738Y2410968D02*
D03*
Y2426970D02*
D03*
Y2410841D02*
D03*
Y2394839D02*
D03*
X2730246Y2240407D02*
D03*
Y2224405D02*
D03*
X2716530Y2443099D02*
D03*
Y2427097D02*
D03*
X2621280Y2406015D02*
D03*
Y2390013D02*
D03*
X2636266Y2415413D02*
D03*
Y2399411D02*
D03*
Y2388235D02*
D03*
Y2372233D02*
D03*
X2191748Y2212896D02*
D03*
Y2228898D02*
D03*
D101*
X2421113Y2248662D02*
D03*
X2432812D02*
D03*
X2421113Y2257552D02*
D03*
X2432812D02*
D03*
X2432820Y2266442D02*
D03*
X2421120D02*
D03*
X2138848Y2169589D02*
D03*
X2150547D02*
D03*
X2138848Y2152063D02*
D03*
X2150547D02*
D03*
X2138848Y2160699D02*
D03*
X2150547D02*
D03*
X2205220Y2214118D02*
D03*
X2216920D02*
D03*
X2732032Y2287715D02*
D03*
X2720332D02*
D03*
X2601968Y2263648D02*
D03*
X2613668D02*
D03*
X2136656Y2219960D02*
D03*
X2124956D02*
D03*
X2153404Y2278380D02*
D03*
X2165104D02*
D03*
X2205792Y2261761D02*
D03*
X2194093D02*
D03*
X2186424Y2338070D02*
D03*
X2198124D02*
D03*
X2170184Y2294128D02*
D03*
X2158484D02*
D03*
X2144514Y2311654D02*
D03*
X2156214D02*
D03*
X2144514Y2326894D02*
D03*
X2156214D02*
D03*
X2144514Y2342134D02*
D03*
X2156214D02*
D03*
X2144514Y2357374D02*
D03*
X2156214D02*
D03*
D102*
X2424430Y2401316D02*
D03*
D103*
X2756408Y2350770D02*
D03*
X2739390Y2352038D02*
D03*
X2722118Y2352294D02*
D03*
D104*
X2364282Y2251670D02*
D03*
X2359182D02*
D03*
X2205218Y2205482D02*
D03*
X2210318D02*
D03*
X2702296Y2435860D02*
D03*
X2707396D02*
D03*
X2424430Y2415286D02*
D03*
X2419330D02*
D03*
X2481814Y2415032D02*
D03*
X2486914D02*
D03*
X2735590Y2321814D02*
D03*
X2730490D02*
D03*
X2739634Y2304542D02*
D03*
X2744734D02*
D03*
X2633228Y2274760D02*
D03*
X2628128D02*
D03*
X2720858Y2279142D02*
D03*
X2715758D02*
D03*
X2091944Y2195068D02*
D03*
X2086844D02*
D03*
X2359182Y2258020D02*
D03*
X2364282D02*
D03*
X2746502Y2321814D02*
D03*
X2751602D02*
D03*
X2714488D02*
D03*
X2719588D02*
D03*
X2739634Y2298891D02*
D03*
X2744734D02*
D03*
X2720858Y2274316D02*
D03*
X2715758D02*
D03*
X2801132Y2294890D02*
D03*
X2796032D02*
D03*
D105*
X2731516Y2263150D02*
D03*
Y2258050D02*
D03*
X2806446Y2289800D02*
D03*
Y2294900D02*
D03*
X2718308Y2258050D02*
D03*
Y2263150D02*
D03*
X2705100Y2252970D02*
D03*
Y2258070D02*
D03*
X2790698Y2294880D02*
D03*
Y2299980D02*
D03*
D106*
X2714254Y2258060D02*
D03*
X2709154D02*
D03*
X2727472D02*
D03*
X2722372D02*
D03*
X2735570D02*
D03*
X2740670D02*
D03*
D107*
X2730246Y2238002D02*
D03*
Y2226302D02*
D03*
X2351452Y2246194D02*
D03*
Y2257894D02*
D03*
X2444750Y2365748D02*
D03*
Y2377448D02*
D03*
X2596388Y2306010D02*
D03*
Y2294311D02*
D03*
X2601976Y2283214D02*
D03*
Y2271514D02*
D03*
X2390902Y2242320D02*
D03*
Y2230620D02*
D03*
X2191748Y2226747D02*
D03*
Y2215048D02*
D03*
D108*
X2160524Y2225421D02*
D03*
Y2241423D02*
D03*
D109*
X2202985Y2309259D02*
D03*
Y2316259D02*
D03*
X2186475Y2309259D02*
D03*
Y2316259D02*
D03*
X2182114Y2261672D02*
D03*
Y2268672D02*
D03*
X2748788Y2334712D02*
D03*
X2732786D02*
D03*
X2716819Y2334656D02*
D03*
X2212340Y2230572D02*
D03*
D110*
X2435098Y2369109D02*
D03*
Y2375611D02*
D03*
D111*
X2202985Y2323508D02*
D03*
Y2302010D02*
D03*
X2186475Y2323508D02*
D03*
Y2302010D02*
D03*
X2182114Y2275921D02*
D03*
Y2254423D02*
D03*
D112*
X2751039Y2327712D02*
D03*
X2746537D02*
D03*
X2730536D02*
D03*
X2735036D02*
D03*
X2719070Y2327656D02*
D03*
X2714569D02*
D03*
X2214590Y2223572D02*
D03*
X2210090D02*
D03*
D113*
X2160524Y2222922D02*
D03*
Y2243922D02*
D03*
D114*
X2103882Y2156460D02*
D03*
X2091883D02*
D03*
D115*
X2102884Y2162460D02*
D03*
X2097883D02*
D03*
X2092881D02*
D03*
X2102884Y2150461D02*
D03*
X2097883D02*
D03*
D116*
X2092533D02*
D03*
D117*
X2433894Y2327148D02*
D03*
Y2314448D02*
D03*
Y2301748D02*
D03*
Y2289048D02*
D03*
X2486594D02*
D03*
Y2301748D02*
D03*
Y2314448D02*
D03*
Y2327148D02*
D03*
D118*
X2424648D02*
D03*
Y2314448D02*
D03*
Y2301748D02*
D03*
Y2289048D02*
D03*
X2496348D02*
D03*
Y2301748D02*
D03*
Y2314448D02*
D03*
Y2327148D02*
D03*
D119*
X2650490Y2426890D02*
D03*
Y2421890D02*
D03*
Y2416890D02*
D03*
Y2411890D02*
D03*
Y2406890D02*
D03*
X2695490D02*
D03*
Y2411890D02*
D03*
Y2416890D02*
D03*
Y2421890D02*
D03*
Y2426890D02*
D03*
D120*
X2079419Y2130757D02*
D03*
X2092119D02*
D03*
X2104819D02*
D03*
X2117519D02*
D03*
Y2180257D02*
D03*
X2104819D02*
D03*
X2092119D02*
D03*
X2079419D02*
D03*
D121*
X2535682Y2394428D02*
D03*
X2522982D02*
D03*
X2561082D02*
D03*
X2548382D02*
D03*
X2573782D02*
D03*
Y2435128D02*
D03*
X2548382D02*
D03*
X2561082D02*
D03*
X2522982D02*
D03*
X2535682D02*
D03*
D122*
X2160524Y2243922D02*
D03*
Y2221062D02*
D03*
X2464816Y2377694D02*
D03*
Y2354834D02*
D03*
X2487676Y2377694D02*
D03*
Y2354834D02*
D03*
D123*
X2160524Y2221062D02*
D03*
Y2243922D02*
D03*
D124*
X2440256Y2424602D02*
D03*
Y2446102D02*
D03*
X2481756D02*
D03*
Y2424602D02*
D03*
X2424352Y2425364D02*
D03*
Y2446864D02*
D03*
X2382852D02*
D03*
Y2425364D02*
D03*
D125*
X2107463Y2233229D02*
D03*
Y2238230D02*
D03*
Y2243229D02*
D03*
Y2248230D02*
D03*
Y2253229D02*
D03*
Y2258230D02*
D03*
Y2263229D02*
D03*
Y2268230D02*
D03*
Y2273229D02*
D03*
Y2278230D02*
D03*
Y2283229D02*
D03*
Y2288230D02*
D03*
Y2293229D02*
D03*
Y2298230D02*
D03*
Y2303229D02*
D03*
Y2308230D02*
D03*
Y2313229D02*
D03*
Y2318230D02*
D03*
Y2323229D02*
D03*
Y2328230D02*
D03*
Y2333229D02*
D03*
Y2338230D02*
D03*
Y2343229D02*
D03*
Y2348230D02*
D03*
D126*
X2084964Y2368230D02*
D03*
Y2213229D02*
D03*
D127*
X2108990Y2038296D02*
D03*
Y2043296D02*
D03*
Y2048296D02*
D03*
Y2053296D02*
D03*
Y2058296D02*
D03*
Y2063296D02*
D03*
D128*
X2083990Y2073296D02*
D03*
Y2028296D02*
D03*
D129*
X2611882Y2303463D02*
D03*
X2634742D02*
D03*
X2267458Y2416048D02*
D03*
X2244598D02*
D03*
X2267458Y2394458D02*
D03*
X2244598D02*
D03*
D130*
X2239010Y2416048D02*
D03*
X2273046D02*
D03*
X2237994Y2394458D02*
D03*
X2272030D02*
D03*
D131*
X2464816Y2349246D02*
D03*
Y2383282D02*
D03*
X2487676Y2349246D02*
D03*
Y2383282D02*
D03*
D132*
X2694704Y2262071D02*
D03*
Y2266069D02*
D03*
X2644701D02*
D03*
Y2262071D02*
D03*
X2694704Y2258070D02*
D03*
Y2254070D02*
D03*
Y2250069D02*
D03*
Y2270069D02*
D03*
Y2278070D02*
D03*
Y2274070D02*
D03*
X2644701Y2270069D02*
D03*
Y2274070D02*
D03*
Y2278070D02*
D03*
Y2258070D02*
D03*
Y2254070D02*
D03*
Y2250069D02*
D03*
X2694704Y2246069D02*
D03*
Y2282071D02*
D03*
X2644701D02*
D03*
Y2246069D02*
D03*
D133*
X2667704Y2239068D02*
D03*
X2671701D02*
D03*
X2667704Y2289071D02*
D03*
X2671701D02*
D03*
X2663703Y2239068D02*
D03*
X2659702D02*
D03*
X2675702D02*
D03*
X2679702D02*
D03*
X2683703D02*
D03*
X2675702Y2289071D02*
D03*
X2679702D02*
D03*
X2683703D02*
D03*
X2663703D02*
D03*
X2659702D02*
D03*
X2655702D02*
D03*
X2651702Y2239068D02*
D03*
X2687704D02*
D03*
Y2289071D02*
D03*
X2651702D02*
D03*
X2655702Y2239068D02*
D03*
D134*
X2669702Y2264070D02*
D03*
D135*
X2605786Y2229224D02*
D03*
Y2244224D02*
D03*
D136*
X2691242Y2226158D02*
D03*
X2705242D02*
D03*
Y2215159D02*
D03*
X2691242D02*
D03*
D137*
X2273300Y2441702D02*
D03*
X2298700D02*
D03*
X2247900D02*
D03*
X2375154Y2300986D02*
D03*
Y2326386D02*
D03*
X2400808Y2374900D02*
D03*
X2375408D02*
D03*
X2145106Y2441702D02*
D03*
X2170506D02*
D03*
X2211070Y2388870D02*
D03*
Y2414270D02*
D03*
X2328672Y2441702D02*
D03*
X2354072D02*
D03*
X2605024Y2441448D02*
D03*
X2630424D02*
D03*
X2751074Y2385568D02*
D03*
Y2436368D02*
D03*
Y2410968D02*
D03*
X2114372Y2441702D02*
D03*
X2088972D02*
D03*
X2268728Y2266696D02*
D03*
Y2292096D02*
D03*
Y2317496D02*
D03*
Y2368296D02*
D03*
Y2342896D02*
D03*
D138*
X2001959Y2167641D02*
D03*
X2025459Y2195639D02*
D03*
D139*
X2833000Y2412000D02*
D03*
X2880000Y1970000D02*
D03*
X1930000Y2427500D02*
D03*
X2080000Y1975000D02*
D03*
D140*
X2681701Y2276069D02*
D03*
Y2264070D02*
D03*
Y2252071D02*
D03*
X2669702Y2276069D02*
D03*
Y2264070D02*
D03*
Y2252071D02*
D03*
X2657704Y2276069D02*
D03*
Y2264070D02*
D03*
Y2252071D02*
D03*
M02*
