G04 Layer_Physical_Order=2*
G04 Layer_Color=16711680*
%FSLAX44Y44*%
%MOMM*%
G71*
G01*
G75*
G04:AMPARAMS|DCode=17|XSize=1mm|YSize=1mm|CornerRadius=0.5mm|HoleSize=0mm|Usage=FLASHONLY|Rotation=90.000|XOffset=0mm|YOffset=0mm|HoleType=Round|Shape=RoundedRectangle|*
%AMROUNDEDRECTD17*
21,1,1.0000,0.0000,0,0,90.0*
21,1,0.0000,1.0000,0,0,90.0*
1,1,1.0000,0.0000,0.0000*
1,1,1.0000,0.0000,0.0000*
1,1,1.0000,0.0000,0.0000*
1,1,1.0000,0.0000,0.0000*
%
%ADD17ROUNDEDRECTD17*%
G04:AMPARAMS|DCode=18|XSize=1mm|YSize=1mm|CornerRadius=0.5mm|HoleSize=0mm|Usage=FLASHONLY|Rotation=0.000|XOffset=0mm|YOffset=0mm|HoleType=Round|Shape=RoundedRectangle|*
%AMROUNDEDRECTD18*
21,1,1.0000,0.0000,0,0,0.0*
21,1,0.0000,1.0000,0,0,0.0*
1,1,1.0000,0.0000,0.0000*
1,1,1.0000,0.0000,0.0000*
1,1,1.0000,0.0000,0.0000*
1,1,1.0000,0.0000,0.0000*
%
%ADD18ROUNDEDRECTD18*%
%ADD55C,0.1270*%
%ADD56C,0.3048*%
%ADD57C,0.6350*%
%ADD59C,0.1524*%
%ADD60C,0.5080*%
%ADD61C,0.2032*%
%ADD62C,0.2540*%
%ADD63C,0.2499*%
%ADD71C,1.6000*%
%ADD72C,0.5499*%
%ADD73C,0.5540*%
%ADD74C,0.6500*%
%ADD75R,0.4500X0.6000*%
G36*
X2912872Y2427224D02*
X2851150D01*
X2816606Y2427224D01*
Y2071624D01*
X2910078D01*
Y2049018D01*
X2816606D01*
Y1939036D01*
X2053082D01*
X2053082Y2459736D01*
X2912872Y2459736D01*
Y2427224D01*
D02*
G37*
%LPC*%
G36*
X2080000Y2210119D02*
X2078424Y2209805D01*
X2077087Y2208913D01*
X2076194Y2207576D01*
X2075881Y2206000D01*
X2076194Y2204424D01*
X2077087Y2203087D01*
X2078424Y2202195D01*
X2080000Y2201881D01*
X2081576Y2202195D01*
X2082913Y2203087D01*
X2083806Y2204424D01*
X2084119Y2206000D01*
X2083806Y2207576D01*
X2082913Y2208913D01*
X2081576Y2209805D01*
X2080000Y2210119D01*
D02*
G37*
G36*
X2090000D02*
X2088424Y2209805D01*
X2087087Y2208913D01*
X2086194Y2207576D01*
X2085881Y2206000D01*
X2086194Y2204424D01*
X2087087Y2203087D01*
X2088424Y2202195D01*
X2090000Y2201881D01*
X2091576Y2202195D01*
X2092913Y2203087D01*
X2093806Y2204424D01*
X2094119Y2206000D01*
X2093806Y2207576D01*
X2092913Y2208913D01*
X2091576Y2209805D01*
X2090000Y2210119D01*
D02*
G37*
G36*
X2080000Y2224119D02*
X2078424Y2223806D01*
X2077087Y2222913D01*
X2076194Y2221576D01*
X2075881Y2220000D01*
X2076194Y2218424D01*
X2077087Y2217087D01*
X2078424Y2216194D01*
X2080000Y2215881D01*
X2081576Y2216194D01*
X2082913Y2217087D01*
X2083806Y2218424D01*
X2084119Y2220000D01*
X2083806Y2221576D01*
X2082913Y2222913D01*
X2081576Y2223806D01*
X2080000Y2224119D01*
D02*
G37*
G36*
X2240534Y2205537D02*
X2238958Y2205224D01*
X2237621Y2204331D01*
X2236729Y2202994D01*
X2236415Y2201418D01*
X2236491Y2201037D01*
X2229833Y2194380D01*
X2209579D01*
X2205027Y2198931D01*
X2204187Y2199493D01*
X2203196Y2199690D01*
X2133680D01*
X2133465Y2200013D01*
X2132128Y2200905D01*
X2130552Y2201219D01*
X2128976Y2200905D01*
X2127639Y2200013D01*
X2126747Y2198676D01*
X2126433Y2197100D01*
X2126747Y2195524D01*
X2127639Y2194187D01*
X2128976Y2193295D01*
X2130552Y2192981D01*
X2132128Y2193295D01*
X2133465Y2194187D01*
X2133680Y2194510D01*
X2202123D01*
X2206675Y2189959D01*
X2207515Y2189397D01*
X2208506Y2189200D01*
X2230906D01*
X2231897Y2189397D01*
X2232737Y2189959D01*
X2240153Y2197375D01*
X2240534Y2197299D01*
X2242110Y2197612D01*
X2243447Y2198505D01*
X2244339Y2199842D01*
X2244653Y2201418D01*
X2244339Y2202994D01*
X2243447Y2204331D01*
X2242110Y2205224D01*
X2240534Y2205537D01*
D02*
G37*
G36*
X2338578Y2119336D02*
X2336844Y2118991D01*
X2335373Y2118009D01*
X2334391Y2116538D01*
X2334046Y2114804D01*
Y2107946D01*
X2334391Y2106212D01*
X2335373Y2104741D01*
X2341977Y2098137D01*
X2341977Y2098137D01*
X2343448Y2097155D01*
X2345182Y2096810D01*
X2345182Y2096810D01*
X2519212D01*
Y2094738D01*
X2519557Y2093004D01*
X2520539Y2091533D01*
X2522010Y2090551D01*
X2523744Y2090206D01*
X2525478Y2090551D01*
X2526949Y2091533D01*
X2527931Y2093004D01*
X2528276Y2094738D01*
Y2101342D01*
X2527931Y2103076D01*
X2526949Y2104547D01*
X2525478Y2105529D01*
X2523744Y2105874D01*
X2347059D01*
X2343110Y2109823D01*
Y2114804D01*
X2342765Y2116538D01*
X2341783Y2118009D01*
X2340312Y2118991D01*
X2338578Y2119336D01*
D02*
G37*
G36*
X2719070Y2178081D02*
X2717494Y2177767D01*
X2716158Y2176875D01*
X2715265Y2175538D01*
X2714951Y2173962D01*
X2715027Y2173581D01*
X2712687Y2171242D01*
X2589498D01*
X2588208Y2173172D01*
X2586134Y2174558D01*
X2583688Y2175045D01*
X2581241Y2174558D01*
X2580120Y2173809D01*
X2579918Y2173834D01*
X2578795Y2174451D01*
X2578579Y2175538D01*
X2577686Y2176875D01*
X2576350Y2177767D01*
X2574774Y2178081D01*
X2573198Y2177767D01*
X2571861Y2176875D01*
X2570968Y2175538D01*
X2570655Y2173962D01*
X2570968Y2172386D01*
X2571861Y2171049D01*
X2573198Y2170156D01*
X2574774Y2169843D01*
X2575155Y2169919D01*
X2577512Y2167561D01*
X2577782Y2166206D01*
X2579167Y2164132D01*
X2581241Y2162746D01*
X2583688Y2162259D01*
X2586134Y2162746D01*
X2588208Y2164132D01*
X2589498Y2166062D01*
X2713760D01*
X2714751Y2166259D01*
X2715591Y2166821D01*
X2718689Y2169919D01*
X2719070Y2169843D01*
X2720646Y2170156D01*
X2721983Y2171049D01*
X2722875Y2172386D01*
X2723189Y2173962D01*
X2722875Y2175538D01*
X2721983Y2176875D01*
X2720646Y2177767D01*
X2719070Y2178081D01*
D02*
G37*
G36*
X2098040Y2199187D02*
X2096464Y2198873D01*
X2095127Y2197981D01*
X2094234Y2196644D01*
X2093921Y2195068D01*
X2094234Y2193492D01*
X2095127Y2192155D01*
X2094846Y2191247D01*
X2094223Y2190695D01*
X2092452Y2191047D01*
X2090006Y2190560D01*
X2087932Y2189174D01*
X2086546Y2187100D01*
X2086059Y2184654D01*
X2086546Y2182208D01*
X2087932Y2180134D01*
X2090006Y2178748D01*
X2092452Y2178261D01*
X2094898Y2178748D01*
X2096972Y2180134D01*
X2098358Y2182208D01*
X2098845Y2184654D01*
X2098453Y2186626D01*
X2100054Y2188228D01*
X2100672Y2189152D01*
X2100889Y2190242D01*
X2100889Y2190242D01*
Y2192113D01*
X2100953Y2192155D01*
X2101846Y2193492D01*
X2102159Y2195068D01*
X2101846Y2196644D01*
X2100953Y2197981D01*
X2099616Y2198873D01*
X2098040Y2199187D01*
D02*
G37*
G36*
X2268728Y2276046D02*
X2266308Y2275727D01*
X2264053Y2274793D01*
X2262117Y2273307D01*
X2260631Y2271371D01*
X2259697Y2269116D01*
X2259378Y2266696D01*
X2259697Y2264276D01*
X2260631Y2262021D01*
X2262117Y2260085D01*
X2264053Y2258599D01*
X2266308Y2257665D01*
X2268728Y2257346D01*
X2271148Y2257665D01*
X2273403Y2258599D01*
X2275339Y2260085D01*
X2276825Y2262021D01*
X2277759Y2264276D01*
X2278078Y2266696D01*
X2277759Y2269116D01*
X2276825Y2271371D01*
X2275339Y2273307D01*
X2273403Y2274793D01*
X2271148Y2275727D01*
X2268728Y2276046D01*
D02*
G37*
G36*
X2525776Y2262433D02*
X2524200Y2262119D01*
X2522863Y2261227D01*
X2522269Y2260336D01*
X2443938D01*
X2443853Y2260465D01*
X2442516Y2261358D01*
X2440940Y2261671D01*
X2439364Y2261358D01*
X2438027Y2260465D01*
X2437135Y2259128D01*
X2436821Y2257552D01*
X2437135Y2255976D01*
X2438027Y2254639D01*
X2439345Y2253759D01*
X2439364Y2253658D01*
Y2252556D01*
X2439345Y2252455D01*
X2438027Y2251575D01*
X2437135Y2250238D01*
X2436821Y2248662D01*
X2437135Y2247086D01*
X2438027Y2245749D01*
X2439364Y2244857D01*
X2440940Y2244543D01*
X2442516Y2244857D01*
X2443853Y2245749D01*
X2444745Y2247086D01*
X2445059Y2248662D01*
X2444745Y2250238D01*
X2444310Y2250889D01*
X2446635Y2253214D01*
X2446814Y2253170D01*
X2447283Y2251743D01*
X2446786Y2251000D01*
X2446473Y2249424D01*
X2446786Y2247848D01*
X2447679Y2246511D01*
X2449016Y2245618D01*
X2450592Y2245305D01*
X2452168Y2245618D01*
X2453505Y2246511D01*
X2454397Y2247848D01*
X2454711Y2249424D01*
X2454512Y2250422D01*
X2455358Y2251372D01*
X2518114D01*
X2524229Y2245257D01*
X2524859Y2244836D01*
X2525602Y2244688D01*
X2532629D01*
X2533277Y2243717D01*
X2534614Y2242825D01*
X2536190Y2242511D01*
X2537766Y2242825D01*
X2539103Y2243717D01*
X2539996Y2245054D01*
X2540309Y2246630D01*
X2539996Y2248206D01*
X2539103Y2249543D01*
X2537766Y2250435D01*
X2536190Y2250749D01*
X2536181Y2250747D01*
X2535101Y2251827D01*
X2535229Y2252472D01*
X2534915Y2254048D01*
X2534023Y2255385D01*
X2532686Y2256277D01*
X2531110Y2256591D01*
X2530836Y2256537D01*
X2529756Y2257617D01*
X2529895Y2258314D01*
X2529581Y2259890D01*
X2528689Y2261227D01*
X2527352Y2262119D01*
X2525776Y2262433D01*
D02*
G37*
G36*
X2375154Y2310336D02*
X2372734Y2310017D01*
X2370479Y2309083D01*
X2368543Y2307597D01*
X2367057Y2305661D01*
X2366123Y2303406D01*
X2365804Y2300986D01*
X2366123Y2298566D01*
X2367057Y2296311D01*
X2368543Y2294375D01*
X2370479Y2292889D01*
X2372734Y2291955D01*
X2375154Y2291636D01*
X2377574Y2291955D01*
X2379659Y2292818D01*
X2399739Y2272739D01*
X2400579Y2272177D01*
X2401570Y2271980D01*
X2469816D01*
X2470031Y2271657D01*
X2471368Y2270764D01*
X2472944Y2270451D01*
X2474520Y2270764D01*
X2475857Y2271657D01*
X2476750Y2272994D01*
X2477063Y2274570D01*
X2476750Y2276146D01*
X2475857Y2277483D01*
X2474520Y2278376D01*
X2472944Y2278689D01*
X2471368Y2278376D01*
X2470031Y2277483D01*
X2469816Y2277160D01*
X2402643D01*
X2383322Y2296481D01*
X2384185Y2298566D01*
X2384504Y2300986D01*
X2384185Y2303406D01*
X2383251Y2305661D01*
X2381765Y2307597D01*
X2379829Y2309083D01*
X2377574Y2310017D01*
X2375154Y2310336D01*
D02*
G37*
G36*
X2369566Y2270815D02*
X2367990Y2270502D01*
X2366653Y2269609D01*
X2365760Y2268272D01*
X2365447Y2266696D01*
X2365583Y2266010D01*
X2363370Y2263796D01*
X2362865Y2263040D01*
X2362687Y2262148D01*
Y2251439D01*
X2362865Y2250547D01*
X2363370Y2249791D01*
X2376307Y2236854D01*
X2377063Y2236349D01*
X2377955Y2236171D01*
X2395986D01*
X2396241Y2234894D01*
X2397133Y2233557D01*
X2398470Y2232664D01*
X2400046Y2232351D01*
X2401622Y2232664D01*
X2402959Y2233557D01*
X2403851Y2234894D01*
X2404165Y2236470D01*
X2403851Y2238046D01*
X2402959Y2239383D01*
X2402218Y2239878D01*
X2401950Y2241407D01*
X2407134Y2246590D01*
X2410026D01*
X2410588Y2245749D01*
X2411924Y2244857D01*
X2413500Y2244543D01*
X2415077Y2244857D01*
X2416413Y2245749D01*
X2417306Y2247086D01*
X2417619Y2248662D01*
X2417306Y2250238D01*
X2416413Y2251575D01*
X2415095Y2252455D01*
X2415077Y2252556D01*
Y2253658D01*
X2415095Y2253759D01*
X2416413Y2254639D01*
X2417306Y2255976D01*
X2417619Y2257552D01*
X2417306Y2259128D01*
X2416413Y2260465D01*
X2415175Y2261292D01*
X2415082Y2261418D01*
X2415077Y2261446D01*
Y2262548D01*
X2415095Y2262649D01*
X2416413Y2263529D01*
X2417306Y2264866D01*
X2417619Y2266442D01*
X2417306Y2268018D01*
X2416413Y2269355D01*
X2415077Y2270247D01*
X2413500Y2270561D01*
X2411924Y2270247D01*
X2410588Y2269355D01*
X2409695Y2268018D01*
X2409381Y2266442D01*
X2409695Y2264866D01*
X2410255Y2264028D01*
X2407233Y2261006D01*
X2406784Y2260334D01*
X2406627Y2259541D01*
X2406627Y2259541D01*
Y2257411D01*
X2405538Y2256322D01*
X2403961D01*
X2403168Y2256164D01*
X2402496Y2255715D01*
X2402496Y2255715D01*
X2401244Y2254463D01*
X2399674Y2254597D01*
X2399657Y2254623D01*
X2398320Y2255515D01*
X2396744Y2255829D01*
X2395168Y2255515D01*
X2393831Y2254623D01*
X2392939Y2253286D01*
X2392625Y2251710D01*
X2392939Y2250134D01*
X2393831Y2248797D01*
X2395168Y2247905D01*
X2396267Y2247686D01*
X2396142Y2246416D01*
X2385245D01*
X2384861Y2246884D01*
X2384547Y2248460D01*
X2383655Y2249797D01*
X2382318Y2250690D01*
X2380742Y2251003D01*
X2379166Y2250690D01*
X2377829Y2249797D01*
X2376976Y2248519D01*
X2376823Y2248356D01*
X2375622Y2248076D01*
X2372146Y2251552D01*
Y2253570D01*
X2372987Y2254131D01*
X2373880Y2255468D01*
X2374193Y2257044D01*
X2373880Y2258620D01*
X2372987Y2259957D01*
X2371650Y2260849D01*
X2370074Y2261163D01*
X2369901Y2261129D01*
X2369186Y2262281D01*
X2369434Y2262603D01*
X2369566Y2262577D01*
X2371142Y2262890D01*
X2372479Y2263783D01*
X2373371Y2265120D01*
X2373685Y2266696D01*
X2373371Y2268272D01*
X2372479Y2269609D01*
X2371142Y2270502D01*
X2369566Y2270815D01*
D02*
G37*
G36*
X2090000Y2224119D02*
X2088424Y2223806D01*
X2087087Y2222913D01*
X2086194Y2221576D01*
X2085881Y2220000D01*
X2086194Y2218424D01*
X2087087Y2217087D01*
X2088424Y2216194D01*
X2090000Y2215881D01*
X2091576Y2216194D01*
X2092913Y2217087D01*
X2093806Y2218424D01*
X2094119Y2220000D01*
X2093806Y2221576D01*
X2092913Y2222913D01*
X2091576Y2223806D01*
X2090000Y2224119D01*
D02*
G37*
G36*
X2125429Y2308849D02*
X2123853Y2308535D01*
X2122516Y2307643D01*
X2121623Y2306306D01*
X2121310Y2304730D01*
X2121623Y2303154D01*
X2122516Y2301817D01*
X2122545Y2301799D01*
Y2271032D01*
X2122545Y2271032D01*
X2122761Y2269942D01*
X2123379Y2269017D01*
X2132015Y2260381D01*
X2132015Y2260381D01*
X2132939Y2259764D01*
X2134029Y2259547D01*
X2134176Y2259414D01*
X2134184Y2259008D01*
X2133917Y2257934D01*
X2132128Y2256738D01*
X2130742Y2254664D01*
X2130255Y2252218D01*
X2130742Y2249772D01*
X2132128Y2247698D01*
X2133947Y2246482D01*
X2133996Y2245434D01*
X2133916Y2245091D01*
X2133735Y2244971D01*
X2133332Y2244367D01*
X2131805D01*
X2131468Y2244872D01*
X2130132Y2245764D01*
X2128556Y2246078D01*
X2126979Y2245764D01*
X2125643Y2244872D01*
X2124750Y2243535D01*
X2124436Y2241959D01*
X2124512Y2241578D01*
X2120847Y2237913D01*
X2120285Y2237072D01*
X2120088Y2236081D01*
Y2230708D01*
X2119765Y2230493D01*
X2118873Y2229156D01*
X2118559Y2227580D01*
X2118873Y2226004D01*
X2119765Y2224667D01*
X2121102Y2223775D01*
X2122678Y2223461D01*
X2124254Y2223775D01*
X2125591Y2224667D01*
X2126483Y2226004D01*
X2126797Y2227580D01*
X2126483Y2229156D01*
X2125591Y2230493D01*
X2125268Y2230708D01*
Y2235009D01*
X2128175Y2237916D01*
X2128556Y2237840D01*
X2130132Y2238154D01*
X2131468Y2239046D01*
X2131871Y2239650D01*
X2133399D01*
X2133735Y2239145D01*
X2135072Y2238253D01*
X2136648Y2237939D01*
X2138224Y2238253D01*
X2139561Y2239145D01*
X2140453Y2240482D01*
X2140767Y2242058D01*
X2140453Y2243634D01*
X2139561Y2244971D01*
X2139380Y2245091D01*
X2139300Y2245434D01*
X2139349Y2246482D01*
X2141168Y2247698D01*
X2142554Y2249772D01*
X2143041Y2252218D01*
X2142554Y2254664D01*
X2141168Y2256738D01*
X2139094Y2258124D01*
X2138326Y2258277D01*
X2138451Y2259547D01*
X2177614D01*
X2188155Y2249006D01*
Y2239341D01*
X2187837Y2239129D01*
X2186944Y2237792D01*
X2186631Y2236216D01*
X2186944Y2234640D01*
X2187837Y2233303D01*
X2187749Y2231976D01*
X2186746Y2230973D01*
X2185622Y2231197D01*
X2183175Y2230710D01*
X2181101Y2229324D01*
X2179716Y2227250D01*
X2179229Y2224804D01*
X2179716Y2222357D01*
X2181101Y2220283D01*
X2183175Y2218898D01*
X2185622Y2218411D01*
X2188068Y2218898D01*
X2190142Y2220283D01*
X2191528Y2222357D01*
X2192015Y2224804D01*
X2191528Y2227250D01*
X2191349Y2227518D01*
X2193018Y2229188D01*
X2193018Y2229188D01*
X2193636Y2230112D01*
X2193853Y2231202D01*
X2193853Y2231202D01*
Y2233588D01*
X2194556Y2234640D01*
X2194869Y2236216D01*
X2194556Y2237792D01*
X2193853Y2238844D01*
Y2250186D01*
X2193636Y2251276D01*
X2193018Y2252200D01*
X2193018Y2252200D01*
X2180809Y2264410D01*
X2179884Y2265028D01*
X2178794Y2265244D01*
X2178794Y2265244D01*
X2135209D01*
X2131402Y2269052D01*
X2131457Y2269179D01*
X2132151Y2270099D01*
X2133453Y2269840D01*
X2135029Y2270154D01*
X2136365Y2271047D01*
X2137163Y2272240D01*
X2139764D01*
X2140482Y2271521D01*
X2140482Y2271521D01*
X2141113Y2271100D01*
X2141856Y2270952D01*
X2141856Y2270953D01*
X2216476D01*
X2259928Y2227501D01*
Y2218944D01*
X2260076Y2218201D01*
X2260497Y2217571D01*
X2263036Y2215031D01*
X2263037Y2215031D01*
X2263667Y2214610D01*
X2264410Y2214462D01*
X2271225D01*
X2278347Y2207340D01*
X2278062Y2206912D01*
X2277575Y2204466D01*
X2277635Y2204166D01*
X2276464Y2203540D01*
X2271734Y2208271D01*
X2271104Y2208692D01*
X2270360Y2208840D01*
X2248705D01*
X2236973Y2220571D01*
X2236343Y2220992D01*
X2235600Y2221140D01*
X2209030D01*
X2208331Y2221992D01*
X2208017Y2223568D01*
X2207125Y2224905D01*
X2205788Y2225797D01*
X2204212Y2226111D01*
X2202636Y2225797D01*
X2201299Y2224905D01*
X2200406Y2223568D01*
X2200093Y2221992D01*
X2200406Y2220416D01*
X2201299Y2219079D01*
X2202636Y2218186D01*
X2204212Y2217873D01*
X2205356Y2218101D01*
X2205632Y2217825D01*
X2205633Y2217825D01*
X2206263Y2217404D01*
X2207006Y2217256D01*
X2234795D01*
X2246527Y2205524D01*
X2247157Y2205103D01*
X2247900Y2204955D01*
X2269556D01*
X2286913Y2187599D01*
X2287543Y2187177D01*
X2288286Y2187030D01*
X2293456D01*
X2293556Y2186526D01*
X2294942Y2184452D01*
X2297016Y2183066D01*
X2299462Y2182579D01*
X2300572Y2182800D01*
X2301198Y2181629D01*
X2296512Y2176944D01*
X2256500D01*
X2255757Y2176797D01*
X2255126Y2176375D01*
X2250107Y2171356D01*
X2248159D01*
X2247511Y2172327D01*
X2246174Y2173219D01*
X2244598Y2173533D01*
X2243022Y2173219D01*
X2241685Y2172327D01*
X2241037Y2171356D01*
X2162053D01*
X2161405Y2172327D01*
X2160068Y2173219D01*
X2158492Y2173533D01*
X2156916Y2173219D01*
X2155579Y2172327D01*
X2154686Y2170990D01*
X2154373Y2169414D01*
X2154686Y2167838D01*
X2155579Y2166501D01*
X2156425Y2165936D01*
Y2164510D01*
X2155579Y2163945D01*
X2154686Y2162608D01*
X2154373Y2161032D01*
X2154686Y2159456D01*
X2155579Y2158119D01*
X2156916Y2157227D01*
X2158492Y2156913D01*
X2158649Y2155725D01*
X2157807Y2155516D01*
X2157424Y2155439D01*
X2156087Y2154547D01*
X2155195Y2153210D01*
X2154881Y2151634D01*
X2155195Y2150058D01*
X2156087Y2148721D01*
X2157424Y2147829D01*
X2159000Y2147515D01*
X2160576Y2147829D01*
X2161913Y2148721D01*
X2162805Y2150058D01*
X2163119Y2151634D01*
X2162891Y2152778D01*
X2171446Y2161333D01*
X2172432Y2160524D01*
X2171958Y2159814D01*
X2171645Y2158238D01*
X2171958Y2156662D01*
X2172851Y2155325D01*
X2174188Y2154433D01*
X2175764Y2154119D01*
X2176942Y2154353D01*
X2178907D01*
X2179292Y2153083D01*
X2179201Y2153023D01*
X2178309Y2151686D01*
X2177995Y2150110D01*
X2178309Y2148534D01*
X2179201Y2147197D01*
X2180538Y2146304D01*
X2182114Y2145991D01*
X2183690Y2146304D01*
X2185027Y2147197D01*
X2185919Y2148534D01*
X2186233Y2150110D01*
X2186098Y2150789D01*
X2187018Y2151851D01*
X2228490D01*
X2233509Y2146832D01*
X2234140Y2146411D01*
X2234883Y2146263D01*
X2259210D01*
X2259954Y2146411D01*
X2260584Y2146832D01*
X2279192Y2165440D01*
X2300473D01*
X2301216Y2165587D01*
X2301847Y2166009D01*
X2312708Y2176870D01*
X2489666D01*
X2491576Y2174960D01*
Y2168906D01*
X2491723Y2168163D01*
X2492145Y2167533D01*
X2501543Y2158135D01*
X2502173Y2157713D01*
X2502916Y2157566D01*
X2509769D01*
X2510417Y2156595D01*
X2511754Y2155703D01*
X2513330Y2155389D01*
X2514906Y2155703D01*
X2516243Y2156595D01*
X2517135Y2157932D01*
X2517449Y2159508D01*
X2517135Y2161084D01*
X2516243Y2162421D01*
X2514906Y2163313D01*
X2514433Y2163408D01*
X2514558Y2164678D01*
X2519421D01*
X2520069Y2163707D01*
X2521406Y2162814D01*
X2522982Y2162501D01*
X2524558Y2162814D01*
X2525895Y2163707D01*
X2526788Y2165044D01*
X2527101Y2166620D01*
X2526788Y2168196D01*
X2525895Y2169533D01*
X2524558Y2170426D01*
X2522982Y2170739D01*
X2522378Y2170619D01*
X2521614Y2171762D01*
X2521707Y2171902D01*
X2522021Y2173478D01*
X2521707Y2175054D01*
X2520815Y2176391D01*
X2520234Y2176778D01*
Y2178306D01*
X2520815Y2178693D01*
X2521707Y2180030D01*
X2522021Y2181606D01*
X2521707Y2183182D01*
X2520815Y2184519D01*
X2519478Y2185412D01*
X2517902Y2185725D01*
X2517702Y2185685D01*
X2517641Y2185760D01*
X2518242Y2187030D01*
X2637543D01*
X2638287Y2187177D01*
X2638917Y2187599D01*
X2648717Y2197399D01*
X2649220Y2197299D01*
X2650796Y2197612D01*
X2652133Y2198505D01*
X2653026Y2199842D01*
X2653339Y2201418D01*
X2653026Y2202994D01*
X2652133Y2204331D01*
X2650796Y2205224D01*
X2649220Y2205537D01*
X2647644Y2205224D01*
X2646307Y2204331D01*
X2645414Y2202994D01*
X2645393Y2202887D01*
X2644970Y2202668D01*
X2644014Y2202462D01*
X2642922Y2203192D01*
X2641346Y2203505D01*
X2639770Y2203192D01*
X2639176Y2202795D01*
X2637572Y2203107D01*
X2637555Y2203123D01*
X2637413Y2203366D01*
X2637455Y2203451D01*
X2638417Y2204093D01*
X2639309Y2205430D01*
X2639623Y2207006D01*
X2639309Y2208582D01*
X2638417Y2209919D01*
X2637080Y2210811D01*
X2635504Y2211125D01*
X2633928Y2210811D01*
X2632818Y2210070D01*
X2631663Y2210116D01*
X2631524Y2210145D01*
X2631313Y2210291D01*
X2631297Y2210459D01*
X2633350Y2212511D01*
X2634488Y2212285D01*
X2636064Y2212599D01*
X2637401Y2213491D01*
X2638293Y2214828D01*
X2638607Y2216404D01*
X2638316Y2217867D01*
X2638362Y2218189D01*
X2638868Y2219137D01*
X2673524D01*
X2673806Y2218949D01*
X2675382Y2218635D01*
X2676958Y2218949D01*
X2678295Y2219841D01*
X2679188Y2221178D01*
X2679501Y2222754D01*
X2679188Y2224330D01*
X2679062Y2224518D01*
X2679661Y2225638D01*
X2682557D01*
X2683301Y2225786D01*
X2683931Y2226207D01*
X2694557Y2236833D01*
X2695702Y2236606D01*
X2697278Y2236919D01*
X2698615Y2237812D01*
X2699507Y2239148D01*
X2699821Y2240724D01*
X2699507Y2242301D01*
X2698615Y2243637D01*
X2697278Y2244530D01*
X2695702Y2244843D01*
X2694126Y2244530D01*
X2692789Y2243637D01*
X2691896Y2242301D01*
X2691583Y2240724D01*
X2691811Y2239580D01*
X2681753Y2229522D01*
X2672842D01*
X2672099Y2229375D01*
X2671469Y2228953D01*
X2668228Y2225712D01*
X2624328D01*
X2624328Y2225712D01*
X2623585Y2225565D01*
X2622955Y2225143D01*
X2622954Y2225143D01*
X2609300Y2211488D01*
X2552597D01*
X2531322Y2232763D01*
X2530692Y2233185D01*
X2529948Y2233332D01*
X2521246D01*
X2518967Y2235612D01*
X2519675Y2236672D01*
X2519989Y2238248D01*
X2519675Y2239824D01*
X2518783Y2241161D01*
X2517446Y2242054D01*
X2515870Y2242367D01*
X2514294Y2242054D01*
X2512957Y2241161D01*
X2512065Y2239824D01*
X2511751Y2238248D01*
X2512065Y2236672D01*
X2512957Y2235335D01*
X2514294Y2234442D01*
X2514460Y2233931D01*
X2514294Y2232655D01*
X2512957Y2231763D01*
X2512065Y2230426D01*
X2511751Y2228850D01*
X2512065Y2227274D01*
X2512957Y2225937D01*
X2513674Y2225458D01*
X2513289Y2224188D01*
X2322110D01*
X2310995Y2235303D01*
X2310365Y2235724D01*
X2309622Y2235872D01*
X2304330D01*
X2303051Y2237152D01*
X2303336Y2237580D01*
X2303823Y2240026D01*
X2303336Y2242472D01*
X2301950Y2244546D01*
X2299876Y2245932D01*
X2297430Y2246419D01*
X2294984Y2245932D01*
X2292910Y2244546D01*
X2291524Y2242472D01*
X2291423Y2241968D01*
X2269133D01*
X2224127Y2286974D01*
X2223497Y2287395D01*
X2222753Y2287543D01*
X2156183D01*
X2144229Y2299497D01*
X2144323Y2299970D01*
X2144010Y2301546D01*
X2143117Y2302883D01*
X2141780Y2303775D01*
X2140204Y2304089D01*
X2138628Y2303775D01*
X2137291Y2302883D01*
X2136398Y2301546D01*
X2136320Y2301152D01*
X2135430Y2300220D01*
X2133854Y2300533D01*
X2132278Y2300220D01*
X2130941Y2299327D01*
X2130049Y2297990D01*
X2129735Y2296414D01*
X2130049Y2294838D01*
X2130941Y2293501D01*
X2132278Y2292608D01*
X2133854Y2292295D01*
X2135274Y2292578D01*
X2135856Y2292148D01*
X2136302Y2291664D01*
X2136085Y2290572D01*
X2136398Y2288996D01*
X2137291Y2287659D01*
X2138628Y2286767D01*
X2138459Y2285505D01*
X2136372D01*
X2135368Y2286691D01*
X2135433Y2287016D01*
X2135119Y2288592D01*
X2134227Y2289929D01*
X2132890Y2290822D01*
X2131314Y2291135D01*
X2129738Y2290822D01*
X2129512Y2290671D01*
X2128242Y2291349D01*
Y2301751D01*
X2128341Y2301817D01*
X2129234Y2303154D01*
X2129548Y2304730D01*
X2129234Y2306306D01*
X2128341Y2307643D01*
X2127005Y2308535D01*
X2125429Y2308849D01*
D02*
G37*
G36*
X2541778Y2272847D02*
X2540202Y2272534D01*
X2538865Y2271641D01*
X2537973Y2270304D01*
X2537659Y2268728D01*
X2537973Y2267152D01*
X2538865Y2265815D01*
X2539836Y2265167D01*
Y2263866D01*
X2539984Y2263123D01*
X2540405Y2262493D01*
X2563331Y2239566D01*
X2563961Y2239145D01*
X2564705Y2238997D01*
X2627026D01*
X2627770Y2239145D01*
X2628400Y2239566D01*
X2636115Y2247281D01*
X2636537Y2247911D01*
X2636627Y2248365D01*
X2637655Y2249051D01*
X2638547Y2250388D01*
X2638861Y2251964D01*
X2638547Y2253540D01*
X2637655Y2254877D01*
X2636318Y2255770D01*
X2634742Y2256083D01*
X2633166Y2255770D01*
X2631830Y2254877D01*
X2630937Y2253540D01*
X2630724Y2252473D01*
X2629572Y2251849D01*
X2629400Y2251830D01*
X2629206Y2251960D01*
X2627630Y2252273D01*
X2626054Y2251960D01*
X2624717Y2251067D01*
X2623824Y2249730D01*
X2623511Y2248154D01*
X2623739Y2247009D01*
X2622151Y2245421D01*
X2566561D01*
X2551245Y2260738D01*
X2551295Y2261243D01*
X2552188Y2262580D01*
X2552501Y2264156D01*
X2552188Y2265732D01*
X2551295Y2267069D01*
X2549958Y2267961D01*
X2548382Y2268275D01*
X2547049Y2268010D01*
X2546219Y2268528D01*
X2545870Y2268864D01*
X2545583Y2270304D01*
X2544691Y2271641D01*
X2543354Y2272534D01*
X2541778Y2272847D01*
D02*
G37*
G36*
X2549144Y2050851D02*
X2547568Y2050538D01*
X2546231Y2049645D01*
X2545338Y2048308D01*
X2545025Y2046732D01*
X2545338Y2045156D01*
X2546231Y2043819D01*
X2547568Y2042926D01*
X2549144Y2042613D01*
X2550720Y2042926D01*
X2552057Y2043819D01*
X2552950Y2045156D01*
X2553263Y2046732D01*
X2552950Y2048308D01*
X2552057Y2049645D01*
X2550720Y2050538D01*
X2549144Y2050851D01*
D02*
G37*
G36*
X2548128Y2065837D02*
X2546552Y2065524D01*
X2545215Y2064631D01*
X2544323Y2063294D01*
X2544009Y2061718D01*
X2544323Y2060142D01*
X2545215Y2058805D01*
X2546552Y2057912D01*
X2548128Y2057599D01*
X2549704Y2057912D01*
X2551041Y2058805D01*
X2551933Y2060142D01*
X2552247Y2061718D01*
X2551933Y2063294D01*
X2551041Y2064631D01*
X2549704Y2065524D01*
X2548128Y2065837D01*
D02*
G37*
G36*
X2567940D02*
X2566364Y2065524D01*
X2565027Y2064631D01*
X2564135Y2063294D01*
X2563821Y2061718D01*
X2564135Y2060142D01*
X2565027Y2058805D01*
X2566364Y2057912D01*
X2567940Y2057599D01*
X2569516Y2057912D01*
X2570853Y2058805D01*
X2571746Y2060142D01*
X2572059Y2061718D01*
X2571746Y2063294D01*
X2570853Y2064631D01*
X2569516Y2065524D01*
X2567940Y2065837D01*
D02*
G37*
G36*
X2515362Y2050343D02*
X2513786Y2050029D01*
X2512449Y2049137D01*
X2511557Y2047800D01*
X2511243Y2046224D01*
X2511557Y2044648D01*
X2512449Y2043311D01*
X2513786Y2042419D01*
X2515362Y2042105D01*
X2516938Y2042419D01*
X2518275Y2043311D01*
X2519167Y2044648D01*
X2519481Y2046224D01*
X2519167Y2047800D01*
X2518275Y2049137D01*
X2516938Y2050029D01*
X2515362Y2050343D01*
D02*
G37*
G36*
X2080000Y1989841D02*
X2077105Y1989556D01*
X2074320Y1988712D01*
X2071754Y1987340D01*
X2069505Y1985495D01*
X2067660Y1983246D01*
X2066288Y1980680D01*
X2065444Y1977895D01*
X2065159Y1975000D01*
X2065444Y1972105D01*
X2066288Y1969320D01*
X2067660Y1966754D01*
X2069505Y1964505D01*
X2071754Y1962660D01*
X2074320Y1961288D01*
X2077105Y1960444D01*
X2080000Y1960159D01*
X2082895Y1960444D01*
X2085680Y1961288D01*
X2088246Y1962660D01*
X2090495Y1964505D01*
X2092340Y1966754D01*
X2093712Y1969320D01*
X2094556Y1972105D01*
X2094841Y1975000D01*
X2094556Y1977895D01*
X2093712Y1980680D01*
X2092340Y1983246D01*
X2090495Y1985495D01*
X2088246Y1987340D01*
X2085680Y1988712D01*
X2082895Y1989556D01*
X2080000Y1989841D01*
D02*
G37*
G36*
X2568194Y2049835D02*
X2566618Y2049521D01*
X2565281Y2048629D01*
X2564388Y2047292D01*
X2564075Y2045716D01*
X2564388Y2044140D01*
X2565281Y2042803D01*
X2566618Y2041911D01*
X2568194Y2041597D01*
X2569770Y2041911D01*
X2571107Y2042803D01*
X2572000Y2044140D01*
X2572313Y2045716D01*
X2572000Y2047292D01*
X2571107Y2048629D01*
X2569770Y2049521D01*
X2568194Y2049835D01*
D02*
G37*
G36*
X2530602Y2050089D02*
X2529026Y2049776D01*
X2527689Y2048883D01*
X2526797Y2047546D01*
X2526483Y2045970D01*
X2526797Y2044394D01*
X2527689Y2043057D01*
X2529026Y2042164D01*
X2530602Y2041851D01*
X2532178Y2042164D01*
X2533515Y2043057D01*
X2534408Y2044394D01*
X2534721Y2045970D01*
X2534408Y2047546D01*
X2533515Y2048883D01*
X2532178Y2049776D01*
X2530602Y2050089D01*
D02*
G37*
G36*
X2549652Y2081077D02*
X2548076Y2080764D01*
X2546739Y2079871D01*
X2545847Y2078534D01*
X2545533Y2076958D01*
X2545847Y2075382D01*
X2546739Y2074045D01*
X2548076Y2073152D01*
X2549652Y2072839D01*
X2551228Y2073152D01*
X2552565Y2074045D01*
X2553457Y2075382D01*
X2553771Y2076958D01*
X2553457Y2078534D01*
X2552565Y2079871D01*
X2551228Y2080764D01*
X2549652Y2081077D01*
D02*
G37*
G36*
X2567178D02*
X2565602Y2080764D01*
X2564265Y2079871D01*
X2563372Y2078534D01*
X2563059Y2076958D01*
X2563372Y2075382D01*
X2564265Y2074045D01*
X2565602Y2073152D01*
X2567178Y2072839D01*
X2568754Y2073152D01*
X2570091Y2074045D01*
X2570984Y2075382D01*
X2571297Y2076958D01*
X2570984Y2078534D01*
X2570091Y2079871D01*
X2568754Y2080764D01*
X2567178Y2081077D01*
D02*
G37*
G36*
X2137664Y2078029D02*
X2136088Y2077715D01*
X2134751Y2076823D01*
X2133858Y2075486D01*
X2133568Y2074028D01*
X2133482Y2073862D01*
X2133402Y2073801D01*
X2131718Y2074109D01*
X2131433Y2074537D01*
X2130096Y2075430D01*
X2128520Y2075743D01*
X2126944Y2075430D01*
X2125607Y2074537D01*
X2124715Y2073200D01*
X2124401Y2071624D01*
X2124598Y2070632D01*
X2120959Y2066993D01*
X2120510Y2066321D01*
X2120352Y2065528D01*
X2120352Y2065528D01*
Y2063414D01*
X2119511Y2062853D01*
X2118618Y2061516D01*
X2118305Y2059940D01*
X2118618Y2058364D01*
X2119511Y2057027D01*
X2120848Y2056134D01*
X2122424Y2055821D01*
X2124000Y2056134D01*
X2124416Y2056412D01*
X2125686Y2055734D01*
Y2046574D01*
X2123416Y2044304D01*
X2122424Y2044501D01*
X2120848Y2044187D01*
X2119511Y2043295D01*
X2118618Y2041958D01*
X2118305Y2040382D01*
X2118618Y2038806D01*
X2119511Y2037469D01*
X2120848Y2036577D01*
X2122424Y2036263D01*
X2124000Y2036577D01*
X2125337Y2037469D01*
X2126230Y2038806D01*
X2126543Y2040382D01*
X2126346Y2041374D01*
X2129223Y2044251D01*
X2129223Y2044251D01*
X2129672Y2044923D01*
X2129830Y2045716D01*
X2129830Y2045716D01*
Y2062892D01*
X2136884Y2069946D01*
X2137664Y2069791D01*
X2139240Y2070105D01*
X2140577Y2070997D01*
X2141470Y2072334D01*
X2141783Y2073910D01*
X2141470Y2075486D01*
X2140577Y2076823D01*
X2139240Y2077715D01*
X2137664Y2078029D01*
D02*
G37*
G36*
X2530348Y2079807D02*
X2528772Y2079494D01*
X2527435Y2078601D01*
X2526543Y2077264D01*
X2526229Y2075688D01*
X2526543Y2074112D01*
X2527435Y2072775D01*
X2528772Y2071882D01*
X2530348Y2071569D01*
X2531924Y2071882D01*
X2533261Y2072775D01*
X2534153Y2074112D01*
X2534467Y2075688D01*
X2534153Y2077264D01*
X2533261Y2078601D01*
X2531924Y2079494D01*
X2530348Y2079807D01*
D02*
G37*
G36*
X2514854Y2066091D02*
X2513278Y2065777D01*
X2511941Y2064885D01*
X2511048Y2063548D01*
X2510735Y2061972D01*
X2511048Y2060396D01*
X2511941Y2059059D01*
X2513278Y2058167D01*
X2514854Y2057853D01*
X2516430Y2058167D01*
X2517767Y2059059D01*
X2518660Y2060396D01*
X2518973Y2061972D01*
X2518660Y2063548D01*
X2517767Y2064885D01*
X2516430Y2065777D01*
X2514854Y2066091D01*
D02*
G37*
G36*
X2530348Y2066345D02*
X2528772Y2066031D01*
X2527435Y2065139D01*
X2526543Y2063802D01*
X2526229Y2062226D01*
X2526543Y2060650D01*
X2527435Y2059313D01*
X2528772Y2058421D01*
X2530348Y2058107D01*
X2531924Y2058421D01*
X2533261Y2059313D01*
X2534153Y2060650D01*
X2534467Y2062226D01*
X2534153Y2063802D01*
X2533261Y2065139D01*
X2531924Y2066031D01*
X2530348Y2066345D01*
D02*
G37*
G36*
X2514346Y2079299D02*
X2512770Y2078985D01*
X2511433Y2078093D01*
X2510540Y2076756D01*
X2510227Y2075180D01*
X2510540Y2073604D01*
X2511433Y2072267D01*
X2512770Y2071375D01*
X2514346Y2071061D01*
X2515922Y2071375D01*
X2517259Y2072267D01*
X2518152Y2073604D01*
X2518465Y2075180D01*
X2518152Y2076756D01*
X2517259Y2078093D01*
X2515922Y2078985D01*
X2514346Y2079299D01*
D02*
G37*
G36*
X2592070Y2282753D02*
X2590494Y2282440D01*
X2589157Y2281547D01*
X2589115Y2281483D01*
X2553115D01*
X2553073Y2281547D01*
X2551736Y2282440D01*
X2550160Y2282753D01*
X2548584Y2282440D01*
X2547247Y2281547D01*
X2546355Y2280210D01*
X2546041Y2278634D01*
X2546355Y2277058D01*
X2547247Y2275721D01*
X2548584Y2274828D01*
X2550160Y2274515D01*
X2551736Y2274828D01*
X2553073Y2275721D01*
X2553115Y2275785D01*
X2589115D01*
X2589157Y2275721D01*
X2590494Y2274828D01*
X2592070Y2274515D01*
X2593646Y2274828D01*
X2594983Y2275721D01*
X2595876Y2277058D01*
X2596189Y2278634D01*
X2595876Y2280210D01*
X2594983Y2281547D01*
X2593646Y2282440D01*
X2592070Y2282753D01*
D02*
G37*
G36*
X2209800Y2399334D02*
X2208318Y2399139D01*
X2205755Y2398077D01*
X2203553Y2396387D01*
X2201863Y2394185D01*
X2200801Y2391622D01*
X2200606Y2390140D01*
X2209800D01*
Y2399334D01*
D02*
G37*
G36*
X2221534Y2387600D02*
X2212340D01*
Y2378406D01*
X2213822Y2378601D01*
X2216385Y2379663D01*
X2218587Y2381353D01*
X2220277Y2383555D01*
X2221339Y2386118D01*
X2221534Y2387600D01*
D02*
G37*
G36*
X2556002Y2429166D02*
X2555259Y2429019D01*
X2554629Y2428597D01*
X2554628Y2428597D01*
X2552150Y2426118D01*
X2541016D01*
X2540273Y2425970D01*
X2539643Y2425549D01*
X2536826Y2422733D01*
X2535682Y2422961D01*
X2534106Y2422648D01*
X2532769Y2421755D01*
X2531877Y2420418D01*
X2531563Y2418842D01*
X2531877Y2417266D01*
X2532769Y2415929D01*
X2534106Y2415036D01*
X2535682Y2414723D01*
X2537258Y2415036D01*
X2538595Y2415929D01*
X2539487Y2417266D01*
X2539801Y2418842D01*
X2539573Y2419987D01*
X2541821Y2422234D01*
X2544455D01*
X2545111Y2420964D01*
X2544577Y2420164D01*
X2544263Y2418588D01*
X2544577Y2417012D01*
X2545469Y2415675D01*
X2546806Y2414783D01*
X2548382Y2414469D01*
X2549958Y2414783D01*
X2551295Y2415675D01*
X2551944Y2416647D01*
X2552681Y2416794D01*
X2553311Y2417215D01*
X2556166Y2420069D01*
X2557337Y2419444D01*
X2557217Y2418842D01*
X2557531Y2417266D01*
X2558423Y2415929D01*
X2559394Y2415281D01*
Y2388616D01*
X2559541Y2387873D01*
X2559963Y2387243D01*
X2565760Y2381445D01*
X2565244Y2380166D01*
X2564482Y2380131D01*
X2563995Y2380861D01*
X2562658Y2381754D01*
X2561082Y2382067D01*
X2559506Y2381754D01*
X2558169Y2380861D01*
X2557276Y2379524D01*
X2556963Y2377948D01*
X2557276Y2376372D01*
X2557471Y2376080D01*
X2556792Y2374810D01*
X2554267D01*
X2552273Y2376803D01*
X2552501Y2377948D01*
X2552188Y2379524D01*
X2551295Y2380861D01*
X2549958Y2381754D01*
X2548382Y2382067D01*
X2546806Y2381754D01*
X2545469Y2380861D01*
X2544577Y2379524D01*
X2544263Y2377948D01*
X2544577Y2376372D01*
X2545469Y2375035D01*
X2546806Y2374142D01*
X2548382Y2373829D01*
X2549527Y2374057D01*
X2552089Y2371495D01*
X2552719Y2371073D01*
X2553462Y2370926D01*
X2553462Y2370926D01*
X2565618D01*
X2566361Y2371073D01*
X2566991Y2371495D01*
X2568962Y2373466D01*
X2591653D01*
X2592619Y2372336D01*
X2592523Y2371852D01*
X2592837Y2370276D01*
X2593729Y2368939D01*
X2595066Y2368047D01*
X2596642Y2367733D01*
X2598218Y2368047D01*
X2599555Y2368939D01*
X2600447Y2370276D01*
X2600761Y2371852D01*
X2600447Y2373428D01*
X2599574Y2374736D01*
X2599608Y2374919D01*
X2599983Y2376006D01*
X2607776D01*
X2617302Y2366479D01*
Y2363509D01*
X2615566Y2361773D01*
X2614422Y2362001D01*
X2612846Y2361687D01*
X2611509Y2360795D01*
X2610616Y2359458D01*
X2610303Y2357882D01*
X2610404Y2357376D01*
X2610160Y2357047D01*
X2609298Y2356423D01*
X2608072Y2356667D01*
X2606496Y2356353D01*
X2605159Y2355461D01*
X2604266Y2354124D01*
X2603953Y2352548D01*
X2604266Y2350972D01*
X2605159Y2349635D01*
X2605167Y2348129D01*
X2604700Y2347632D01*
X2597571D01*
X2597186Y2348902D01*
X2597523Y2349127D01*
X2598416Y2350464D01*
X2598729Y2352040D01*
X2598416Y2353616D01*
X2597523Y2354953D01*
X2596186Y2355845D01*
X2594610Y2356159D01*
X2594535Y2356144D01*
X2588242Y2362436D01*
X2587318Y2363054D01*
X2586228Y2363271D01*
X2586228Y2363271D01*
X2529496D01*
X2526913Y2365854D01*
X2527538Y2367025D01*
X2527808Y2366971D01*
X2529384Y2367285D01*
X2530721Y2368177D01*
X2531613Y2369514D01*
X2531927Y2371090D01*
X2531613Y2372666D01*
X2530721Y2374003D01*
X2529750Y2374651D01*
Y2378348D01*
X2531020Y2378917D01*
X2531429Y2378552D01*
X2531309Y2377948D01*
X2531622Y2376372D01*
X2532515Y2375035D01*
X2533852Y2374142D01*
X2535428Y2373829D01*
X2537004Y2374142D01*
X2538341Y2375035D01*
X2539234Y2376372D01*
X2539547Y2377948D01*
X2539234Y2379524D01*
X2538341Y2380861D01*
X2537004Y2381754D01*
X2535428Y2382067D01*
X2534283Y2381839D01*
X2506067Y2410055D01*
X2505437Y2410477D01*
X2504694Y2410624D01*
X2485395D01*
X2484747Y2411595D01*
X2483410Y2412487D01*
X2481834Y2412801D01*
X2480258Y2412487D01*
X2478921Y2411595D01*
X2478029Y2410258D01*
X2477715Y2408682D01*
X2478029Y2407106D01*
X2478921Y2405769D01*
X2480258Y2404877D01*
X2481834Y2404563D01*
X2483410Y2404877D01*
X2484747Y2405769D01*
X2485395Y2406740D01*
X2503889D01*
X2506198Y2404432D01*
X2505712Y2403258D01*
X2437897D01*
X2437249Y2404229D01*
X2435912Y2405121D01*
X2434336Y2405435D01*
X2432760Y2405121D01*
X2431423Y2404229D01*
X2430531Y2402892D01*
X2430217Y2401316D01*
X2430531Y2399740D01*
X2431423Y2398403D01*
X2432760Y2397511D01*
X2434336Y2397197D01*
X2435912Y2397511D01*
X2437249Y2398403D01*
X2437897Y2399374D01*
X2507663D01*
X2525866Y2381171D01*
Y2374651D01*
X2524895Y2374003D01*
X2524003Y2372666D01*
X2523689Y2371090D01*
X2523743Y2370820D01*
X2522572Y2370195D01*
X2518704Y2374063D01*
X2518719Y2374138D01*
X2518405Y2375714D01*
X2517513Y2377051D01*
X2516176Y2377944D01*
X2514600Y2378257D01*
X2513024Y2377944D01*
X2511687Y2377051D01*
X2510795Y2375714D01*
X2510481Y2374138D01*
X2510795Y2372562D01*
X2511687Y2371225D01*
X2513024Y2370332D01*
X2514600Y2370019D01*
X2514675Y2370034D01*
X2526302Y2358408D01*
X2526302Y2358408D01*
X2527226Y2357790D01*
X2528316Y2357573D01*
X2585048D01*
X2590506Y2352115D01*
X2590491Y2352040D01*
X2590804Y2350464D01*
X2591697Y2349127D01*
X2592034Y2348902D01*
X2591649Y2347632D01*
X2554334D01*
X2553590Y2347484D01*
X2552960Y2347063D01*
X2532701Y2326804D01*
X2531115D01*
X2530467Y2327775D01*
X2529130Y2328667D01*
X2527554Y2328981D01*
X2525978Y2328667D01*
X2524641Y2327775D01*
X2523748Y2326438D01*
X2523435Y2324862D01*
X2523690Y2323581D01*
X2523205Y2322587D01*
X2523102Y2322455D01*
X2522529Y2322576D01*
X2522216Y2324152D01*
X2521323Y2325489D01*
X2519986Y2326382D01*
X2518410Y2326695D01*
X2516834Y2326382D01*
X2515497Y2325489D01*
X2514604Y2324152D01*
X2514291Y2322576D01*
X2514604Y2321000D01*
X2515240Y2320049D01*
X2514709Y2318779D01*
X2458914D01*
X2451943Y2325750D01*
X2452171Y2326894D01*
X2451857Y2328470D01*
X2450965Y2329807D01*
X2449628Y2330699D01*
X2448052Y2331013D01*
X2446476Y2330699D01*
X2445139Y2329807D01*
X2444247Y2328470D01*
X2443933Y2326894D01*
X2444247Y2325318D01*
X2445139Y2323981D01*
X2446476Y2323089D01*
X2448052Y2322775D01*
X2449196Y2323003D01*
X2454787Y2317413D01*
X2454301Y2316239D01*
X2451460D01*
X2450711Y2317361D01*
X2449374Y2318253D01*
X2447798Y2318567D01*
X2446222Y2318253D01*
X2444885Y2317361D01*
X2443992Y2316024D01*
X2443679Y2314448D01*
X2443992Y2312872D01*
X2444885Y2311535D01*
X2446222Y2310643D01*
X2447798Y2310329D01*
X2449374Y2310643D01*
X2450711Y2311535D01*
X2451258Y2312355D01*
X2523333D01*
X2523819Y2311181D01*
X2507385Y2294747D01*
X2506964Y2294117D01*
X2506816Y2293373D01*
Y2292609D01*
X2505845Y2291961D01*
X2504953Y2290624D01*
X2504639Y2289048D01*
X2504953Y2287472D01*
X2505845Y2286135D01*
X2507182Y2285242D01*
X2508758Y2284929D01*
X2510334Y2285242D01*
X2511671Y2286135D01*
X2512563Y2287472D01*
X2512877Y2289048D01*
X2512563Y2290624D01*
X2511671Y2291961D01*
X2511557Y2292037D01*
X2511432Y2293301D01*
X2524049Y2305917D01*
X2525077Y2305605D01*
X2525337Y2305409D01*
X2526165Y2304169D01*
X2527502Y2303277D01*
X2529078Y2302963D01*
X2529763Y2301804D01*
X2529590Y2301546D01*
X2529277Y2299970D01*
X2529590Y2298394D01*
X2530483Y2297057D01*
X2531820Y2296165D01*
X2533396Y2295851D01*
X2534972Y2296165D01*
X2535404Y2296453D01*
X2536804Y2295861D01*
X2536956Y2295092D01*
X2537849Y2293755D01*
X2539186Y2292863D01*
X2540762Y2292549D01*
X2542338Y2292863D01*
X2543675Y2293755D01*
X2544568Y2295092D01*
X2544881Y2296668D01*
X2544568Y2298244D01*
X2543675Y2299581D01*
X2542704Y2300229D01*
Y2305888D01*
X2562784Y2325968D01*
X2605163D01*
X2606316Y2324815D01*
X2605830Y2323642D01*
X2603754D01*
X2602763Y2323445D01*
X2601923Y2322883D01*
X2589149Y2310109D01*
X2588768Y2310185D01*
X2587192Y2309872D01*
X2585855Y2308979D01*
X2584962Y2307642D01*
X2584649Y2306066D01*
X2584962Y2304490D01*
X2585855Y2303153D01*
X2587192Y2302260D01*
X2588768Y2301947D01*
X2589149Y2302023D01*
X2595343Y2295829D01*
X2596183Y2295267D01*
X2597174Y2295070D01*
X2630264D01*
X2630350Y2294984D01*
Y2287493D01*
X2628265Y2285408D01*
X2627884Y2285484D01*
X2626308Y2285170D01*
X2624971Y2284277D01*
X2624078Y2282941D01*
X2623765Y2281364D01*
X2624078Y2279788D01*
X2624971Y2278452D01*
X2626308Y2277559D01*
X2627884Y2277245D01*
X2629460Y2277559D01*
X2630797Y2278452D01*
X2631689Y2279788D01*
X2632003Y2281364D01*
X2631927Y2281745D01*
X2634771Y2284589D01*
X2635333Y2285429D01*
X2635529Y2286420D01*
Y2296057D01*
X2635333Y2297048D01*
X2634771Y2297888D01*
X2633168Y2299491D01*
X2632328Y2300052D01*
X2631337Y2300250D01*
X2598247D01*
X2592811Y2305685D01*
X2592887Y2306066D01*
X2592811Y2306447D01*
X2604827Y2318462D01*
X2665730D01*
X2666721Y2318659D01*
X2667561Y2319221D01*
X2671605Y2323264D01*
X2688557D01*
X2710913Y2300909D01*
X2711753Y2300347D01*
X2712744Y2300150D01*
X2727673D01*
X2730930Y2296893D01*
X2731771Y2296331D01*
X2732762Y2296134D01*
X2747803D01*
X2747907Y2295978D01*
X2749244Y2295085D01*
X2750820Y2294772D01*
X2752396Y2295085D01*
X2753733Y2295978D01*
X2754626Y2297314D01*
X2754939Y2298891D01*
X2754626Y2300467D01*
X2753733Y2301803D01*
X2752396Y2302696D01*
X2750820Y2303009D01*
X2749244Y2302696D01*
X2747907Y2301803D01*
X2747581Y2301314D01*
X2736248D01*
X2735862Y2302584D01*
X2736714Y2303153D01*
X2737607Y2304490D01*
X2737921Y2306066D01*
X2737607Y2307642D01*
X2736714Y2308979D01*
X2735378Y2309872D01*
X2733802Y2310185D01*
X2732226Y2309872D01*
X2731130Y2309140D01*
X2719913D01*
X2717064Y2311989D01*
Y2319044D01*
X2716866Y2320035D01*
X2716305Y2320875D01*
X2713281Y2323899D01*
X2712441Y2324461D01*
X2712197Y2325050D01*
X2712715Y2325826D01*
X2713029Y2327402D01*
X2712715Y2328978D01*
X2711823Y2330315D01*
X2710852Y2330963D01*
Y2336548D01*
X2712025Y2337034D01*
X2719474Y2329585D01*
X2720105Y2329164D01*
X2720848Y2329016D01*
X2721605D01*
X2722253Y2328045D01*
X2723590Y2327153D01*
X2725166Y2326839D01*
X2726742Y2327153D01*
X2728079Y2328045D01*
X2728972Y2329382D01*
X2729285Y2330958D01*
X2728972Y2332534D01*
X2728079Y2333871D01*
X2726742Y2334763D01*
X2725166Y2335077D01*
X2723590Y2334763D01*
X2722253Y2333871D01*
X2722180Y2333761D01*
X2720916Y2333637D01*
X2703831Y2350722D01*
X2703200Y2351143D01*
X2702457Y2351291D01*
X2644544D01*
X2642883Y2352952D01*
Y2359955D01*
X2642735Y2360699D01*
X2642314Y2361329D01*
X2642314Y2361329D01*
X2613908Y2389735D01*
X2613278Y2390157D01*
X2612534Y2390304D01*
X2604056D01*
X2599950Y2394410D01*
X2599320Y2394831D01*
X2598576Y2394979D01*
X2594704D01*
X2593960Y2394831D01*
X2593330Y2394410D01*
X2593330Y2394410D01*
X2586684Y2387764D01*
X2572300D01*
X2570898Y2389167D01*
Y2422688D01*
X2570750Y2423431D01*
X2570329Y2424061D01*
X2565793Y2428597D01*
X2565163Y2429019D01*
X2564420Y2429166D01*
X2556002D01*
X2556002Y2429166D01*
D02*
G37*
G36*
X2212340Y2399334D02*
Y2390140D01*
X2221534D01*
X2221339Y2391622D01*
X2220277Y2394185D01*
X2218587Y2396387D01*
X2216385Y2398077D01*
X2213822Y2399139D01*
X2212340Y2399334D01*
D02*
G37*
G36*
X2090000Y2379119D02*
X2088424Y2378806D01*
X2087087Y2377913D01*
X2086194Y2376576D01*
X2085881Y2375000D01*
X2086194Y2373424D01*
X2087087Y2372087D01*
X2088424Y2371194D01*
X2090000Y2370881D01*
X2091576Y2371194D01*
X2092913Y2372087D01*
X2093806Y2373424D01*
X2094119Y2375000D01*
X2093806Y2376576D01*
X2092913Y2377913D01*
X2091576Y2378806D01*
X2090000Y2379119D01*
D02*
G37*
G36*
X2080000D02*
X2078424Y2378806D01*
X2077087Y2377913D01*
X2076194Y2376576D01*
X2075881Y2375000D01*
X2076194Y2373424D01*
X2077087Y2372087D01*
X2078424Y2371194D01*
X2080000Y2370881D01*
X2081576Y2371194D01*
X2082913Y2372087D01*
X2083806Y2373424D01*
X2084119Y2375000D01*
X2083806Y2376576D01*
X2082913Y2377913D01*
X2081576Y2378806D01*
X2080000Y2379119D01*
D02*
G37*
G36*
X2209800Y2387600D02*
X2200606D01*
X2200801Y2386118D01*
X2201863Y2383555D01*
X2203553Y2381353D01*
X2205755Y2379663D01*
X2208318Y2378601D01*
X2209800Y2378406D01*
Y2387600D01*
D02*
G37*
G36*
X2605024Y2450798D02*
X2602604Y2450479D01*
X2600349Y2449545D01*
X2598412Y2448059D01*
X2596927Y2446123D01*
X2595993Y2443868D01*
X2595674Y2441448D01*
X2595993Y2439028D01*
X2596927Y2436773D01*
X2598412Y2434837D01*
X2600349Y2433351D01*
X2601139Y2433023D01*
Y2427224D01*
X2601435Y2425737D01*
X2602277Y2424477D01*
X2608095Y2418659D01*
X2609355Y2417817D01*
X2610842Y2417522D01*
X2634032D01*
X2655803Y2395751D01*
X2657063Y2394909D01*
X2658549Y2394613D01*
X2668209D01*
X2680946Y2381876D01*
X2681613Y2380877D01*
X2682950Y2379984D01*
X2684526Y2379671D01*
X2685704Y2379905D01*
X2743735D01*
X2744463Y2378957D01*
X2746399Y2377471D01*
X2748654Y2376537D01*
X2751074Y2376218D01*
X2753494Y2376537D01*
X2755749Y2377471D01*
X2757686Y2378957D01*
X2759171Y2380893D01*
X2760105Y2383148D01*
X2760424Y2385568D01*
X2760105Y2387988D01*
X2759171Y2390243D01*
X2757686Y2392179D01*
X2755749Y2393665D01*
X2753494Y2394599D01*
X2751074Y2394918D01*
X2748654Y2394599D01*
X2746399Y2393665D01*
X2744463Y2392179D01*
X2742977Y2390243D01*
X2742043Y2387988D01*
X2742001Y2387675D01*
X2686135D01*
X2672565Y2401245D01*
X2671305Y2402087D01*
X2669818Y2402383D01*
X2660158D01*
X2638388Y2424153D01*
X2637128Y2424995D01*
X2635641Y2425291D01*
X2612451D01*
X2608909Y2428833D01*
Y2433023D01*
X2609699Y2433351D01*
X2611635Y2434837D01*
X2613121Y2436773D01*
X2614055Y2439028D01*
X2614374Y2441448D01*
X2614055Y2443868D01*
X2613121Y2446123D01*
X2611635Y2448059D01*
X2609699Y2449545D01*
X2607444Y2450479D01*
X2605024Y2450798D01*
D02*
G37*
G36*
X2328672Y2451052D02*
X2326252Y2450733D01*
X2323997Y2449799D01*
X2322061Y2448313D01*
X2320575Y2446377D01*
X2319641Y2444122D01*
X2319322Y2441702D01*
X2319641Y2439282D01*
X2319968Y2438492D01*
X2315253Y2433777D01*
X2305575D01*
X2305166Y2434979D01*
X2305311Y2435091D01*
X2306797Y2437027D01*
X2307731Y2439282D01*
X2308050Y2441702D01*
X2307731Y2444122D01*
X2306797Y2446377D01*
X2305311Y2448313D01*
X2303375Y2449799D01*
X2301120Y2450733D01*
X2298700Y2451052D01*
X2296280Y2450733D01*
X2294025Y2449799D01*
X2292089Y2448313D01*
X2290603Y2446377D01*
X2289669Y2444122D01*
X2289350Y2441702D01*
X2289669Y2439282D01*
X2290603Y2437027D01*
X2292089Y2435091D01*
X2292234Y2434979D01*
X2291825Y2433777D01*
X2286719D01*
X2282004Y2438492D01*
X2282331Y2439282D01*
X2282650Y2441702D01*
X2282331Y2444122D01*
X2281397Y2446377D01*
X2279911Y2448313D01*
X2277975Y2449799D01*
X2275720Y2450733D01*
X2273300Y2451052D01*
X2270880Y2450733D01*
X2268625Y2449799D01*
X2266689Y2448313D01*
X2265203Y2446377D01*
X2264269Y2444122D01*
X2263950Y2441702D01*
X2264269Y2439282D01*
X2265203Y2437027D01*
X2266689Y2435091D01*
X2268625Y2433605D01*
X2270880Y2432671D01*
X2273300Y2432352D01*
X2275720Y2432671D01*
X2276510Y2432998D01*
X2282363Y2427145D01*
X2283623Y2426303D01*
X2285110Y2426007D01*
X2316862D01*
X2318349Y2426303D01*
X2319609Y2427145D01*
X2325462Y2432998D01*
X2326252Y2432671D01*
X2328672Y2432352D01*
X2331092Y2432671D01*
X2331882Y2432998D01*
X2371523Y2393357D01*
Y2383325D01*
X2370733Y2382997D01*
X2368797Y2381511D01*
X2367311Y2379575D01*
X2366377Y2377320D01*
X2366058Y2374900D01*
X2366377Y2372480D01*
X2367311Y2370225D01*
X2368797Y2368289D01*
X2370733Y2366803D01*
X2372988Y2365869D01*
X2375408Y2365550D01*
X2377828Y2365869D01*
X2380083Y2366803D01*
X2382019Y2368289D01*
X2383505Y2370225D01*
X2384439Y2372480D01*
X2384758Y2374900D01*
X2384439Y2377320D01*
X2383505Y2379575D01*
X2382019Y2381511D01*
X2380083Y2382997D01*
X2379293Y2383325D01*
Y2390851D01*
X2398292D01*
X2399448Y2391081D01*
X2405295D01*
X2422374Y2374002D01*
X2423041Y2373003D01*
X2424378Y2372110D01*
X2425954Y2371797D01*
X2427530Y2372110D01*
X2428867Y2373003D01*
X2429760Y2374340D01*
X2430073Y2375916D01*
X2429760Y2377492D01*
X2428867Y2378829D01*
X2427868Y2379496D01*
X2409651Y2397713D01*
X2408391Y2398555D01*
X2406904Y2398851D01*
X2398522D01*
X2397366Y2398621D01*
X2377247D01*
X2337376Y2438492D01*
X2337703Y2439282D01*
X2338022Y2441702D01*
X2337703Y2444122D01*
X2336769Y2446377D01*
X2335283Y2448313D01*
X2333347Y2449799D01*
X2331092Y2450733D01*
X2328672Y2451052D01*
D02*
G37*
G36*
X2170506D02*
X2168086Y2450733D01*
X2165831Y2449799D01*
X2163895Y2448313D01*
X2162409Y2446377D01*
X2161475Y2444122D01*
X2161156Y2441702D01*
X2161475Y2439282D01*
X2162122Y2437719D01*
X2157087Y2432684D01*
X2150668D01*
X2150237Y2433954D01*
X2151718Y2435091D01*
X2153203Y2437027D01*
X2154138Y2439282D01*
X2154456Y2441702D01*
X2154138Y2444122D01*
X2153203Y2446377D01*
X2151718Y2448313D01*
X2149781Y2449799D01*
X2147526Y2450733D01*
X2145106Y2451052D01*
X2142686Y2450733D01*
X2140431Y2449799D01*
X2138495Y2448313D01*
X2137009Y2446377D01*
X2136075Y2444122D01*
X2135756Y2441702D01*
X2136075Y2439282D01*
X2137009Y2437027D01*
X2138495Y2435091D01*
X2139975Y2433954D01*
X2139544Y2432684D01*
X2127791D01*
X2122756Y2437719D01*
X2123404Y2439282D01*
X2123722Y2441702D01*
X2123404Y2444122D01*
X2122469Y2446377D01*
X2120984Y2448313D01*
X2119047Y2449799D01*
X2116792Y2450733D01*
X2114372Y2451052D01*
X2111952Y2450733D01*
X2109697Y2449799D01*
X2107761Y2448313D01*
X2106275Y2446377D01*
X2105341Y2444122D01*
X2105022Y2441702D01*
X2105341Y2439282D01*
X2106275Y2437027D01*
X2107761Y2435091D01*
X2109697Y2433605D01*
X2111952Y2432671D01*
X2114372Y2432352D01*
X2116792Y2432671D01*
X2116810Y2432678D01*
X2123435Y2426053D01*
X2124696Y2425211D01*
X2126182Y2424915D01*
X2158696D01*
X2160183Y2425211D01*
X2161443Y2426053D01*
X2165448Y2430058D01*
X2166622Y2429572D01*
Y2395227D01*
X2165448Y2394741D01*
X2154300Y2405889D01*
Y2407764D01*
X2154623Y2407979D01*
X2155516Y2409315D01*
X2155829Y2410892D01*
X2155516Y2412468D01*
X2154623Y2413804D01*
X2153286Y2414697D01*
X2151710Y2415011D01*
X2150134Y2414697D01*
X2148798Y2413804D01*
X2147905Y2412468D01*
X2147591Y2410892D01*
X2147905Y2409315D01*
X2148798Y2407979D01*
X2149120Y2407764D01*
Y2404816D01*
X2149318Y2403825D01*
X2149879Y2402985D01*
X2162771Y2390093D01*
X2162285Y2388920D01*
X2119941D01*
X2098273Y2410587D01*
X2098349Y2410968D01*
X2098035Y2412544D01*
X2097143Y2413881D01*
X2095806Y2414774D01*
X2094230Y2415087D01*
X2092654Y2414774D01*
X2091317Y2413881D01*
X2090424Y2412544D01*
X2090111Y2410968D01*
X2090424Y2409392D01*
X2091317Y2408055D01*
X2092654Y2407162D01*
X2094230Y2406849D01*
X2094611Y2406925D01*
X2117037Y2384499D01*
X2117877Y2383937D01*
X2118868Y2383740D01*
X2163261D01*
X2193999Y2353003D01*
X2194839Y2352441D01*
X2195830Y2352244D01*
X2220157D01*
X2221759Y2350643D01*
X2221683Y2350262D01*
X2221996Y2348686D01*
X2222889Y2347349D01*
X2224226Y2346456D01*
X2225802Y2346143D01*
X2227378Y2346456D01*
X2228715Y2347349D01*
X2229608Y2348686D01*
X2229921Y2350262D01*
X2229608Y2351838D01*
X2228715Y2353175D01*
X2227378Y2354068D01*
X2225971Y2354347D01*
X2225569Y2354784D01*
X2225586Y2354960D01*
X2226257Y2356054D01*
X2230137D01*
X2231081Y2355088D01*
X2231395Y2353512D01*
X2232287Y2352175D01*
X2233624Y2351283D01*
X2235200Y2350969D01*
X2236776Y2351283D01*
X2238113Y2352175D01*
X2239005Y2353512D01*
X2239319Y2355088D01*
X2239148Y2355950D01*
X2240318Y2356576D01*
X2256745Y2340149D01*
X2258005Y2339307D01*
X2259491Y2339011D01*
X2260303D01*
X2260631Y2338221D01*
X2262117Y2336285D01*
X2264053Y2334799D01*
X2266308Y2333865D01*
X2268728Y2333546D01*
X2271148Y2333865D01*
X2273403Y2334799D01*
X2275339Y2336285D01*
X2276825Y2338221D01*
X2277759Y2340476D01*
X2278078Y2342896D01*
X2277759Y2345316D01*
X2276825Y2347571D01*
X2275339Y2349507D01*
X2273403Y2350993D01*
X2271148Y2351927D01*
X2268728Y2352246D01*
X2266308Y2351927D01*
X2264053Y2350993D01*
X2262117Y2349507D01*
X2261271Y2348406D01*
X2259605Y2348276D01*
X2241410Y2366471D01*
X2240150Y2367313D01*
X2238663Y2367609D01*
X2201596D01*
X2174391Y2394814D01*
Y2433277D01*
X2175181Y2433605D01*
X2177118Y2435091D01*
X2178604Y2437027D01*
X2179538Y2439282D01*
X2179856Y2441702D01*
X2179538Y2444122D01*
X2178604Y2446377D01*
X2177118Y2448313D01*
X2175181Y2449799D01*
X2172926Y2450733D01*
X2170506Y2451052D01*
D02*
G37*
G36*
X2895770Y2452226D02*
Y2452226D01*
X2894997Y2452226D01*
X2888730D01*
Y2450028D01*
X2794987D01*
X2794987Y2450028D01*
X2794194Y2449870D01*
X2793522Y2449421D01*
X2793522Y2449421D01*
X2781105Y2437004D01*
X2780656Y2436332D01*
X2780553Y2435815D01*
X2779657Y2435217D01*
X2778765Y2433880D01*
X2778451Y2432304D01*
X2778765Y2430728D01*
X2778863Y2430581D01*
X2778184Y2429311D01*
X2767584D01*
X2766494Y2429094D01*
X2765569Y2428476D01*
X2765569Y2428476D01*
X2755981Y2418887D01*
X2755749Y2419065D01*
X2753494Y2419999D01*
X2751074Y2420318D01*
X2748654Y2419999D01*
X2746399Y2419065D01*
X2744463Y2417579D01*
X2742977Y2415643D01*
X2742043Y2413388D01*
X2741724Y2410968D01*
X2742043Y2408548D01*
X2742977Y2406293D01*
X2744463Y2404357D01*
X2746399Y2402871D01*
X2748654Y2401937D01*
X2751074Y2401618D01*
X2753494Y2401937D01*
X2755749Y2402871D01*
X2757686Y2404357D01*
X2759171Y2406293D01*
X2760105Y2408548D01*
X2760424Y2410968D01*
X2760105Y2413388D01*
X2759647Y2414496D01*
X2768764Y2423613D01*
X2788152D01*
X2788152Y2423613D01*
X2789243Y2423830D01*
X2789634Y2424092D01*
X2790778Y2423328D01*
X2790643Y2422652D01*
X2790956Y2421076D01*
X2791849Y2419739D01*
X2793186Y2418846D01*
X2794762Y2418533D01*
X2796338Y2418846D01*
X2797675Y2419739D01*
X2798568Y2421076D01*
X2798881Y2422652D01*
X2798568Y2424228D01*
X2797675Y2425565D01*
X2797551Y2425647D01*
X2797420Y2427206D01*
X2806192Y2435978D01*
X2879531D01*
X2886050Y2429459D01*
X2886050Y2429459D01*
X2886722Y2429010D01*
X2887515Y2428852D01*
X2887515Y2428852D01*
X2898284D01*
X2898284Y2428852D01*
X2899077Y2429010D01*
X2899749Y2429459D01*
X2901215Y2430925D01*
X2901215Y2430925D01*
X2901664Y2431597D01*
X2901682Y2431686D01*
X2903270D01*
Y2440226D01*
X2900999D01*
X2900513Y2441399D01*
X2901215Y2442101D01*
X2901215Y2442101D01*
X2901664Y2442773D01*
X2901822Y2443566D01*
X2903042Y2443686D01*
X2903270D01*
Y2452226D01*
X2897003D01*
X2896230Y2452226D01*
Y2452226D01*
X2895770D01*
D02*
G37*
G36*
X2247900Y2451052D02*
X2245480Y2450733D01*
X2243225Y2449799D01*
X2241289Y2448313D01*
X2239809Y2446385D01*
X2224683D01*
X2224683Y2446385D01*
X2222949Y2446040D01*
X2221478Y2445058D01*
X2221478Y2445058D01*
X2207865Y2431445D01*
X2206883Y2429974D01*
X2206538Y2428240D01*
Y2422426D01*
X2206395Y2422367D01*
X2204459Y2420881D01*
X2202973Y2418945D01*
X2202039Y2416690D01*
X2201720Y2414270D01*
X2202039Y2411850D01*
X2202973Y2409595D01*
X2204459Y2407659D01*
X2206395Y2406173D01*
X2208650Y2405239D01*
X2211070Y2404920D01*
X2213490Y2405239D01*
X2215745Y2406173D01*
X2217681Y2407659D01*
X2219167Y2409595D01*
X2220101Y2411850D01*
X2220420Y2414270D01*
X2220101Y2416690D01*
X2219167Y2418945D01*
X2217681Y2420881D01*
X2215745Y2422367D01*
X2215602Y2422426D01*
Y2426363D01*
X2226560Y2437321D01*
X2239681D01*
X2239803Y2437027D01*
X2241289Y2435091D01*
X2243225Y2433605D01*
X2245480Y2432671D01*
X2247900Y2432352D01*
X2250320Y2432671D01*
X2252575Y2433605D01*
X2254511Y2435091D01*
X2255997Y2437027D01*
X2256931Y2439282D01*
X2257250Y2441702D01*
X2256931Y2444122D01*
X2255997Y2446377D01*
X2254511Y2448313D01*
X2252575Y2449799D01*
X2250320Y2450733D01*
X2247900Y2451052D01*
D02*
G37*
G36*
X2630424Y2450798D02*
X2628004Y2450479D01*
X2625749Y2449545D01*
X2623813Y2448059D01*
X2622327Y2446123D01*
X2621393Y2443868D01*
X2621074Y2441448D01*
X2621393Y2439028D01*
X2622327Y2436773D01*
X2623813Y2434837D01*
X2625749Y2433351D01*
X2628004Y2432417D01*
X2630424Y2432098D01*
X2632844Y2432417D01*
X2635099Y2433351D01*
X2637036Y2434837D01*
X2638521Y2436773D01*
X2639455Y2439028D01*
X2639774Y2441448D01*
X2639455Y2443868D01*
X2638521Y2446123D01*
X2637036Y2448059D01*
X2635099Y2449545D01*
X2632844Y2450479D01*
X2630424Y2450798D01*
D02*
G37*
G36*
X2751074Y2445718D02*
X2748654Y2445399D01*
X2746399Y2444465D01*
X2744463Y2442979D01*
X2742977Y2441043D01*
X2742043Y2438788D01*
X2741724Y2436368D01*
X2742043Y2433948D01*
X2742977Y2431693D01*
X2744463Y2429757D01*
X2746399Y2428271D01*
X2748654Y2427337D01*
X2751074Y2427018D01*
X2753494Y2427337D01*
X2755749Y2428271D01*
X2757686Y2429757D01*
X2759171Y2431693D01*
X2760105Y2433948D01*
X2760424Y2436368D01*
X2760105Y2438788D01*
X2759171Y2441043D01*
X2757686Y2442979D01*
X2755749Y2444465D01*
X2753494Y2445399D01*
X2751074Y2445718D01*
D02*
G37*
G36*
X2354072Y2451052D02*
X2351652Y2450733D01*
X2349397Y2449799D01*
X2347461Y2448313D01*
X2345975Y2446377D01*
X2345041Y2444122D01*
X2344722Y2441702D01*
X2345041Y2439282D01*
X2345975Y2437027D01*
X2347461Y2435091D01*
X2349397Y2433605D01*
X2351652Y2432671D01*
X2354072Y2432352D01*
X2356492Y2432671D01*
X2358747Y2433605D01*
X2360683Y2435091D01*
X2362169Y2437027D01*
X2363103Y2439282D01*
X2363422Y2441702D01*
X2363103Y2444122D01*
X2362169Y2446377D01*
X2360683Y2448313D01*
X2358747Y2449799D01*
X2356492Y2450733D01*
X2354072Y2451052D01*
D02*
G37*
G36*
X2088972D02*
X2086552Y2450733D01*
X2084297Y2449799D01*
X2082361Y2448313D01*
X2080875Y2446377D01*
X2079941Y2444122D01*
X2079622Y2441702D01*
X2079941Y2439282D01*
X2080875Y2437027D01*
X2082361Y2435091D01*
X2084297Y2433605D01*
X2086552Y2432671D01*
X2088972Y2432352D01*
X2091392Y2432671D01*
X2093647Y2433605D01*
X2095584Y2435091D01*
X2097070Y2437027D01*
X2098004Y2439282D01*
X2098322Y2441702D01*
X2098004Y2444122D01*
X2097070Y2446377D01*
X2095584Y2448313D01*
X2093647Y2449799D01*
X2091392Y2450733D01*
X2088972Y2451052D01*
D02*
G37*
G36*
X2148284Y2352863D02*
X2145837Y2352376D01*
X2143763Y2350990D01*
X2142473Y2349059D01*
X2129792D01*
X2129576Y2349382D01*
X2128239Y2350275D01*
X2126663Y2350589D01*
X2125087Y2350275D01*
X2123751Y2349382D01*
X2122858Y2348046D01*
X2122544Y2346470D01*
X2122858Y2344893D01*
X2123751Y2343557D01*
X2125087Y2342664D01*
X2126663Y2342351D01*
X2128239Y2342664D01*
X2129576Y2343557D01*
X2129792Y2343880D01*
X2142473D01*
X2143763Y2341949D01*
X2145837Y2340564D01*
X2148284Y2340077D01*
X2150730Y2340564D01*
X2152804Y2341949D01*
X2154094Y2343880D01*
X2166292D01*
X2171721Y2338451D01*
X2171645Y2338070D01*
X2171958Y2336494D01*
X2172851Y2335157D01*
X2174188Y2334265D01*
X2175764Y2333951D01*
X2177340Y2334265D01*
X2178677Y2335157D01*
X2179570Y2336494D01*
X2179883Y2338070D01*
X2179570Y2339646D01*
X2178677Y2340983D01*
X2177340Y2341875D01*
X2175764Y2342189D01*
X2175383Y2342113D01*
X2169196Y2348301D01*
X2168355Y2348862D01*
X2167364Y2349059D01*
X2154094D01*
X2152804Y2350990D01*
X2150730Y2352376D01*
X2148284Y2352863D01*
D02*
G37*
G36*
X2080000Y2365119D02*
X2078424Y2364805D01*
X2077087Y2363913D01*
X2076194Y2362576D01*
X2075881Y2361000D01*
X2076194Y2359424D01*
X2077087Y2358087D01*
X2078424Y2357195D01*
X2080000Y2356881D01*
X2081576Y2357195D01*
X2082913Y2358087D01*
X2083806Y2359424D01*
X2084119Y2361000D01*
X2083806Y2362576D01*
X2082913Y2363913D01*
X2081576Y2364805D01*
X2080000Y2365119D01*
D02*
G37*
G36*
X2090000D02*
X2088424Y2364805D01*
X2087087Y2363913D01*
X2086194Y2362576D01*
X2085881Y2361000D01*
X2086194Y2359424D01*
X2087087Y2358087D01*
X2088424Y2357195D01*
X2090000Y2356881D01*
X2091576Y2357195D01*
X2092913Y2358087D01*
X2093806Y2359424D01*
X2094119Y2361000D01*
X2093806Y2362576D01*
X2092913Y2363913D01*
X2091576Y2364805D01*
X2090000Y2365119D01*
D02*
G37*
G36*
X2375154Y2335736D02*
X2372734Y2335417D01*
X2370479Y2334483D01*
X2368543Y2332997D01*
X2367057Y2331061D01*
X2366123Y2328806D01*
X2365804Y2326386D01*
X2366123Y2323966D01*
X2367057Y2321711D01*
X2368543Y2319775D01*
X2370479Y2318289D01*
X2372734Y2317355D01*
X2375154Y2317036D01*
X2377574Y2317355D01*
X2379829Y2318289D01*
X2381765Y2319775D01*
X2383251Y2321711D01*
X2384185Y2323966D01*
X2384504Y2326386D01*
X2384185Y2328806D01*
X2383251Y2331061D01*
X2381765Y2332997D01*
X2379829Y2334483D01*
X2377574Y2335417D01*
X2375154Y2335736D01*
D02*
G37*
G36*
X2268728Y2301446D02*
X2266308Y2301127D01*
X2264053Y2300193D01*
X2262117Y2298707D01*
X2260631Y2296771D01*
X2259697Y2294516D01*
X2259378Y2292096D01*
X2259697Y2289676D01*
X2260631Y2287421D01*
X2262117Y2285485D01*
X2264053Y2283999D01*
X2266308Y2283065D01*
X2268728Y2282746D01*
X2271148Y2283065D01*
X2273403Y2283999D01*
X2275339Y2285485D01*
X2276825Y2287421D01*
X2277759Y2289676D01*
X2278078Y2292096D01*
X2277759Y2294516D01*
X2276825Y2296771D01*
X2275339Y2298707D01*
X2273403Y2300193D01*
X2271148Y2301127D01*
X2268728Y2301446D01*
D02*
G37*
G36*
Y2326846D02*
X2266308Y2326527D01*
X2264053Y2325593D01*
X2262117Y2324107D01*
X2260631Y2322171D01*
X2259697Y2319916D01*
X2259378Y2317496D01*
X2259697Y2315076D01*
X2260631Y2312821D01*
X2262117Y2310885D01*
X2264053Y2309399D01*
X2266308Y2308465D01*
X2268728Y2308146D01*
X2271148Y2308465D01*
X2273403Y2309399D01*
X2275339Y2310885D01*
X2276825Y2312821D01*
X2277759Y2315076D01*
X2278078Y2317496D01*
X2277759Y2319916D01*
X2276825Y2322171D01*
X2275339Y2324107D01*
X2273403Y2325593D01*
X2271148Y2326527D01*
X2268728Y2326846D01*
D02*
G37*
G36*
X2131489Y2339159D02*
X2129913Y2338845D01*
X2128577Y2337952D01*
X2127684Y2336616D01*
X2127370Y2335040D01*
X2127684Y2333463D01*
X2128577Y2332127D01*
X2129913Y2331234D01*
X2131489Y2330921D01*
X2133065Y2331234D01*
X2134402Y2332127D01*
X2134823Y2332169D01*
X2145213Y2321779D01*
X2146053Y2321217D01*
X2147044Y2321020D01*
X2153903D01*
X2155193Y2319089D01*
X2157267Y2317704D01*
X2159714Y2317217D01*
X2162160Y2317704D01*
X2164234Y2319089D01*
X2165524Y2321020D01*
X2169365D01*
X2169673Y2319476D01*
X2170565Y2318139D01*
X2171902Y2317247D01*
X2173478Y2316933D01*
X2175054Y2317247D01*
X2176391Y2318139D01*
X2177283Y2319476D01*
X2177597Y2321052D01*
X2177283Y2322628D01*
X2176391Y2323965D01*
X2175054Y2324857D01*
X2173478Y2325171D01*
X2173097Y2325095D01*
X2172751Y2325441D01*
X2171911Y2326002D01*
X2170920Y2326199D01*
X2165524D01*
X2164234Y2328130D01*
X2162160Y2329516D01*
X2159714Y2330003D01*
X2157267Y2329516D01*
X2155193Y2328130D01*
X2153903Y2326199D01*
X2148117D01*
X2137446Y2336871D01*
X2136605Y2337432D01*
X2135614Y2337630D01*
X2134617D01*
X2134402Y2337952D01*
X2133065Y2338845D01*
X2131489Y2339159D01*
D02*
G37*
G36*
X2279192Y2367026D02*
X2269998D01*
Y2357832D01*
X2271479Y2358027D01*
X2274043Y2359089D01*
X2276245Y2360779D01*
X2277935Y2362980D01*
X2278997Y2365544D01*
X2279192Y2367026D01*
D02*
G37*
G36*
X2400808Y2384250D02*
X2398388Y2383931D01*
X2396133Y2382997D01*
X2394197Y2381511D01*
X2392711Y2379575D01*
X2391777Y2377320D01*
X2391458Y2374900D01*
X2391777Y2372480D01*
X2392711Y2370225D01*
X2394197Y2368289D01*
X2396133Y2366803D01*
X2398388Y2365869D01*
X2400808Y2365550D01*
X2403228Y2365869D01*
X2405483Y2366803D01*
X2407419Y2368289D01*
X2408905Y2370225D01*
X2409839Y2372480D01*
X2410158Y2374900D01*
X2409839Y2377320D01*
X2408905Y2379575D01*
X2407419Y2381511D01*
X2405483Y2382997D01*
X2403228Y2383931D01*
X2400808Y2384250D01*
D02*
G37*
G36*
X2267458Y2378760D02*
X2265977Y2378565D01*
X2263412Y2377503D01*
X2261211Y2375813D01*
X2259521Y2373611D01*
X2258459Y2371048D01*
X2258264Y2369566D01*
X2267458D01*
Y2378760D01*
D02*
G37*
G36*
X2269998D02*
Y2369566D01*
X2279192D01*
X2278997Y2371048D01*
X2277935Y2373611D01*
X2276245Y2375813D01*
X2274043Y2377503D01*
X2271479Y2378565D01*
X2269998Y2378760D01*
D02*
G37*
G36*
X2267458Y2367026D02*
X2258264D01*
X2258459Y2365544D01*
X2259521Y2362980D01*
X2261211Y2360779D01*
X2263412Y2359089D01*
X2265977Y2358027D01*
X2267458Y2357832D01*
Y2367026D01*
D02*
G37*
%LPD*%
G36*
X2501867Y2205562D02*
X2501582Y2205134D01*
X2501095Y2202688D01*
X2501582Y2200242D01*
X2502968Y2198168D01*
X2505042Y2196782D01*
X2507488Y2196295D01*
X2509934Y2196782D01*
X2510362Y2197067D01*
X2512547Y2194882D01*
X2512061Y2193708D01*
X2311443D01*
X2306612Y2198539D01*
X2306630Y2198728D01*
X2310426Y2202524D01*
X2313094D01*
X2313838Y2202672D01*
X2314468Y2203093D01*
X2321265Y2209890D01*
X2497540D01*
X2501867Y2205562D01*
D02*
G37*
G36*
X2316086Y2213796D02*
X2311238Y2208948D01*
X2305723D01*
X2305622Y2209452D01*
X2304236Y2211526D01*
X2302162Y2212912D01*
X2299716Y2213399D01*
X2297270Y2212912D01*
X2296664Y2212507D01*
X2295375Y2213796D01*
X2295861Y2214970D01*
X2315600D01*
X2316086Y2213796D01*
D02*
G37*
G36*
X2291524Y2237580D02*
X2292910Y2235506D01*
X2294984Y2234120D01*
X2297430Y2233633D01*
X2299876Y2234120D01*
X2300304Y2234405D01*
X2302153Y2232557D01*
X2302441Y2232364D01*
X2302599Y2231242D01*
X2302528Y2230894D01*
X2301292Y2230068D01*
X2299906Y2227994D01*
X2299419Y2225548D01*
X2299696Y2224154D01*
X2298891Y2223172D01*
X2284337D01*
X2270599Y2236910D01*
X2271085Y2238084D01*
X2291423D01*
X2291524Y2237580D01*
D02*
G37*
G36*
X2631989Y2342896D02*
X2631989Y2342895D01*
X2632619Y2342474D01*
X2633362Y2342327D01*
X2651547D01*
X2651705Y2342134D01*
X2652018Y2340558D01*
X2652911Y2339221D01*
X2654248Y2338329D01*
X2655824Y2338015D01*
X2657400Y2338329D01*
X2658737Y2339221D01*
X2659630Y2340558D01*
X2659943Y2342134D01*
X2659652Y2343597D01*
X2659697Y2343919D01*
X2660204Y2344867D01*
X2700128D01*
X2706968Y2338027D01*
Y2330963D01*
X2705997Y2330315D01*
X2705104Y2328978D01*
X2705074Y2328823D01*
X2703696Y2328405D01*
X2697001Y2335099D01*
X2696161Y2335661D01*
X2695170Y2335858D01*
X2688580D01*
X2688332Y2337106D01*
X2687439Y2338443D01*
X2686102Y2339335D01*
X2684526Y2339649D01*
X2682950Y2339335D01*
X2681613Y2338443D01*
X2680721Y2337106D01*
X2680407Y2335530D01*
X2680721Y2333954D01*
X2681613Y2332617D01*
X2682950Y2331725D01*
X2684526Y2331411D01*
X2684907Y2331487D01*
X2684957Y2331437D01*
X2685797Y2330876D01*
X2686788Y2330678D01*
X2694097D01*
X2704539Y2320237D01*
X2705379Y2319675D01*
X2706370Y2319478D01*
X2710377D01*
X2711884Y2317971D01*
Y2310916D01*
X2712081Y2309925D01*
X2712643Y2309085D01*
X2714721Y2307006D01*
X2714263Y2305669D01*
X2713565Y2305581D01*
X2691461Y2327685D01*
X2690621Y2328246D01*
X2689630Y2328444D01*
X2673183D01*
X2672798Y2329714D01*
X2673723Y2330331D01*
X2674615Y2331668D01*
X2674929Y2333244D01*
X2674615Y2334820D01*
X2673723Y2336157D01*
X2672386Y2337050D01*
X2670810Y2337363D01*
X2669234Y2337050D01*
X2667897Y2336157D01*
X2667004Y2334820D01*
X2666691Y2333244D01*
X2666919Y2332099D01*
X2661013Y2326193D01*
X2639630D01*
X2639124Y2327141D01*
X2639078Y2327463D01*
X2639369Y2328926D01*
X2639055Y2330502D01*
X2638163Y2331839D01*
X2636826Y2332731D01*
X2635250Y2333045D01*
X2634106Y2332817D01*
X2631441Y2335482D01*
X2630811Y2335903D01*
X2630067Y2336051D01*
X2629349D01*
X2628964Y2337321D01*
X2629527Y2337697D01*
X2630420Y2339034D01*
X2630733Y2340610D01*
X2630420Y2342186D01*
X2629527Y2343523D01*
X2628190Y2344415D01*
X2626614Y2344729D01*
X2625038Y2344415D01*
X2623701Y2343523D01*
X2623605Y2343378D01*
X2623172Y2343399D01*
X2622905Y2343693D01*
X2622360Y2344711D01*
X2622605Y2345944D01*
X2622314Y2347407D01*
X2622359Y2347729D01*
X2622866Y2348677D01*
X2626207D01*
X2631989Y2342896D01*
D02*
G37*
D17*
X2299716Y2207006D02*
D03*
X2159714Y2323610D02*
D03*
D18*
X2305812Y2225548D02*
D03*
X2299462Y2188972D02*
D03*
X2297430Y2240026D02*
D03*
X2583688Y2168652D02*
D03*
X2526919Y2212213D02*
D03*
X2507488Y2202688D02*
D03*
X2283968Y2204466D02*
D03*
X2092452Y2184654D02*
D03*
X2503932Y2171700D02*
D03*
X2136648Y2252218D02*
D03*
X2148284Y2346470D02*
D03*
X2185622Y2224804D02*
D03*
D55*
X2608072Y2347250D02*
Y2352548D01*
X2606512Y2345690D02*
X2608072Y2347250D01*
X2554334Y2345690D02*
X2606512D01*
X2614422Y2357882D02*
X2619244Y2362704D01*
Y2367284D01*
X2608580Y2377948D02*
X2619244Y2367284D01*
X2622296Y2358136D02*
Y2367824D01*
X2609378Y2380742D02*
X2622296Y2367824D01*
X2569210Y2380742D02*
X2609378D01*
X2507488Y2183892D02*
X2517902Y2173478D01*
X2309799Y2183892D02*
X2507488D01*
X2513076Y2186432D02*
X2517902Y2181606D01*
X2308747Y2186432D02*
X2513076D01*
X2319408Y2214372D02*
X2511806D01*
X2311654Y2219706D02*
X2530856D01*
X2321306Y2222246D02*
X2531908D01*
X2511806Y2214372D02*
X2529332Y2196846D01*
X2522220Y2216912D02*
X2526919Y2212213D01*
X2530856Y2219706D02*
X2548636Y2201926D01*
X2531908Y2222246D02*
X2549688Y2204466D01*
X2450592Y2249424D02*
X2454482Y2253314D01*
X2518918D01*
X2440940Y2248662D02*
Y2250266D01*
X2446528Y2255854D01*
X2440940Y2257552D02*
X2441782Y2258394D01*
X2446528Y2255854D02*
X2521625D01*
X2441782Y2258394D02*
X2525696D01*
X2141009Y2299970D02*
X2155378Y2285601D01*
X2140204Y2299970D02*
X2141009D01*
X2142140Y2295247D02*
X2154326Y2283061D01*
X2135021Y2295247D02*
X2142140D01*
X2133854Y2296414D02*
X2135021Y2295247D01*
X2150261Y2280515D02*
X2150267Y2280521D01*
X2185483Y2277975D02*
X2185489Y2277981D01*
X2146458Y2277975D02*
X2185483D01*
X2140568Y2274183D02*
X2141856Y2272895D01*
X2133676Y2274183D02*
X2140568D01*
X2133453Y2273959D02*
X2133676Y2274183D01*
X2140204Y2290572D02*
X2150261Y2280515D01*
X2140870Y2283563D02*
X2146458Y2277975D01*
X2134767Y2283563D02*
X2140870D01*
X2131314Y2287016D02*
X2134767Y2283563D01*
X2268328Y2240026D02*
X2297430D01*
X2207006Y2219198D02*
X2235600D01*
X2204212Y2221992D02*
X2207006Y2219198D01*
X2288286Y2188972D02*
X2299462D01*
X2140204Y2290572D02*
Y2291080D01*
X2561336Y2388616D02*
X2569210Y2380742D01*
X2695702Y2240470D02*
Y2240724D01*
X2548382Y2377948D02*
X2553462Y2372868D01*
X2565618D01*
X2568158Y2375408D01*
X2566416Y2387128D02*
X2570262Y2383282D01*
X2561336Y2388616D02*
Y2418842D01*
X2566416Y2387128D02*
Y2421636D01*
X2558034Y2424684D02*
X2563368D01*
X2566416Y2421636D01*
X2568956Y2388362D02*
X2571496Y2385822D01*
X2568956Y2388362D02*
Y2422688D01*
X2564420Y2427224D02*
X2568956Y2422688D01*
X2556002Y2427224D02*
X2564420D01*
X2552954Y2424176D02*
X2556002Y2427224D01*
X2535682Y2418842D02*
X2541016Y2424176D01*
X2552954D01*
X2551938Y2418588D02*
X2558034Y2424684D01*
X2548382Y2418588D02*
X2551938D01*
X2299716Y2207006D02*
X2312042D01*
X2297317Y2175002D02*
X2308747Y2186432D01*
X2298369Y2172462D02*
X2309799Y2183892D01*
X2304843Y2197561D02*
X2310638Y2191766D01*
X2297430Y2240026D02*
X2303526Y2233930D01*
X2309622D01*
X2312042Y2207006D02*
X2319408Y2214372D01*
X2305812Y2225548D02*
X2311654Y2219706D01*
X2309622Y2233930D02*
X2321306Y2222246D01*
X2515870Y2228850D02*
X2516290Y2228430D01*
X2481834Y2408682D02*
X2504694D01*
X2535428Y2377948D01*
X2434336Y2401316D02*
X2508468D01*
X2527808Y2381976D01*
Y2371090D02*
Y2381976D01*
X2568158Y2375408D02*
X2593086D01*
X2596642Y2371852D01*
X2561082Y2377948D02*
X2608580D01*
X2570262Y2383282D02*
X2610430D01*
X2599180Y2385822D02*
X2611482D01*
X2596640Y2388362D02*
X2599180Y2385822D01*
X2603251Y2388362D02*
X2612534D01*
X2598576Y2393037D02*
X2603251Y2388362D01*
X2594704Y2393037D02*
X2598576D01*
X2587489Y2385822D02*
X2594704Y2393037D01*
X2571496Y2385822D02*
X2587489D01*
X2525696Y2258394D02*
X2525776Y2258314D01*
X2521625Y2255854D02*
X2525007Y2252472D01*
X2531110D01*
X2518918Y2253314D02*
X2525602Y2246630D01*
X2536190D01*
X2527142Y2311757D02*
X2534769D01*
X2508758Y2293373D02*
X2527142Y2311757D01*
X2508758Y2289048D02*
Y2293373D01*
X2533396Y2299970D02*
Y2302918D01*
X2529078Y2307082D02*
X2533967D01*
X2447949Y2314297D02*
X2533717D01*
X2458109Y2316837D02*
X2532665D01*
X2448052Y2326894D02*
X2458109Y2316837D01*
X2447798Y2314448D02*
X2447949Y2314297D01*
X2682557Y2227580D02*
X2695702Y2240724D01*
X2290873Y2197561D02*
X2304843D01*
X2283968Y2204466D02*
X2290873Y2197561D01*
X2633928Y2251150D02*
X2634742Y2251964D01*
X2541778Y2263866D02*
X2564705Y2240939D01*
X2541778Y2263866D02*
Y2268728D01*
X2548382Y2260854D02*
Y2264156D01*
X2526919Y2212213D02*
X2539746Y2199386D01*
X2620264D01*
X2548636Y2201926D02*
X2615692D01*
X2299462Y2188972D02*
X2637543D01*
X2649220Y2200649D01*
Y2201418D01*
X2310638Y2191766D02*
X2633726D01*
X2641346Y2199386D01*
X2529332Y2196846D02*
X2624335D01*
X2634495Y2207006D01*
X2635504D01*
X2627376Y2206498D02*
Y2206752D01*
X2620264Y2199386D02*
X2627376Y2206498D01*
X2615692Y2201926D02*
X2625241Y2211475D01*
X2629566D01*
X2634488Y2216397D01*
Y2216404D01*
X2549688Y2204466D02*
X2614640D01*
X2626324Y2216150D01*
X2627630D01*
X2625948Y2221079D02*
X2673707D01*
X2528896Y2228850D02*
X2550740Y2207006D01*
X2515870Y2228850D02*
X2528896D01*
X2673707Y2221079D02*
X2675382Y2222754D01*
X2551792Y2209546D02*
X2610104D01*
X2529948Y2231390D02*
X2551792Y2209546D01*
X2520442Y2231390D02*
X2529948D01*
X2515870Y2235962D02*
X2520442Y2231390D01*
X2515870Y2235962D02*
Y2238248D01*
X2624328Y2223770D02*
X2669032D01*
X2672842Y2227580D01*
X2682557D01*
X2548382Y2260854D02*
X2565757Y2243479D01*
X2550740Y2207006D02*
X2611875D01*
X2625948Y2221079D01*
X2610104Y2209546D02*
X2624328Y2223770D01*
X2564705Y2240939D02*
X2627026D01*
X2634742Y2248655D01*
Y2251964D01*
X2565757Y2243479D02*
X2622955D01*
X2627630Y2248154D01*
X2540762Y2296668D02*
Y2306692D01*
X2531613Y2319377D02*
X2555386Y2343150D01*
X2607564D01*
X2533717Y2314297D02*
X2557490Y2338070D01*
X2534769Y2311757D02*
X2558542Y2335530D01*
X2533967Y2307082D02*
X2559875Y2332990D01*
X2533396Y2302918D02*
X2560928Y2330450D01*
X2540762Y2306692D02*
X2561980Y2327910D01*
X2605968D01*
X2560928Y2330450D02*
X2607056D01*
X2610207Y2327299D01*
X2624733D01*
X2626868Y2329434D01*
X2559875Y2332990D02*
X2608108D01*
X2610902Y2330196D01*
X2621019D01*
X2624932Y2334109D01*
X2630067D01*
X2635250Y2328926D01*
X2558542Y2335530D02*
X2617724D01*
X2617978Y2335784D01*
X2532665Y2316837D02*
X2556438Y2340610D01*
X2557490Y2338070D02*
X2613653D01*
X2616193Y2340610D01*
X2626614D01*
X2556438D02*
X2611374D01*
X2616708Y2345944D01*
X2618486D01*
X2607564Y2343150D02*
X2615033Y2350619D01*
X2627012D01*
X2653689Y2344269D02*
X2655824Y2342134D01*
X2638401Y2349397D02*
X2640989Y2346809D01*
X2638401Y2349397D02*
Y2358903D01*
X2640941Y2352148D02*
Y2359955D01*
Y2352148D02*
X2643740Y2349349D01*
X2661817Y2324251D02*
X2670810Y2333244D01*
X2605968Y2327910D02*
X2609627Y2324251D01*
X2661817D01*
X2643740Y2349349D02*
X2702457D01*
X2640989Y2346809D02*
X2700933D01*
X2708910Y2338832D01*
Y2327402D02*
Y2338832D01*
X2702457Y2349349D02*
X2720848Y2330958D01*
X2725166D01*
X2270360Y2206898D02*
X2288286Y2188972D01*
X2220649Y2280521D02*
X2282480Y2218690D01*
X2281428Y2216150D02*
X2290275D01*
X2299419Y2207006D02*
X2299716D01*
X2290275Y2216150D02*
X2299419Y2207006D01*
X2282480Y2218690D02*
X2291327D01*
X2293105Y2216912D01*
X2522220D01*
X2141856Y2272895D02*
X2217281D01*
X2185489Y2277981D02*
X2219597D01*
X2150267Y2280521D02*
X2220649D01*
X2154326Y2283061D02*
X2221701D01*
X2155378Y2285601D02*
X2222753D01*
X2268328Y2240026D01*
X2221701Y2283061D02*
X2283532Y2221230D01*
X2301494D01*
X2305812Y2225548D01*
X2219597Y2277981D02*
X2281428Y2216150D01*
X2217281Y2272895D02*
X2261870Y2228306D01*
Y2218944D02*
Y2228306D01*
Y2218944D02*
X2264410Y2216404D01*
X2272030D01*
X2283968Y2204466D01*
X2299421Y2169922D02*
X2310851Y2181352D01*
X2235600Y2219198D02*
X2247900Y2206898D01*
X2270360D01*
X2159000Y2151634D02*
X2171446Y2164080D01*
X2507488Y2202688D02*
X2515870Y2194306D01*
X2498344Y2211832D02*
X2507488Y2202688D01*
X2320460Y2211832D02*
X2498344D01*
X2138934Y2278888D02*
X2139455D01*
X2142908Y2275435D01*
X2291842Y2205115D02*
X2296856Y2200101D01*
X2305257D01*
X2309622Y2204466D01*
X2313094D01*
X2320460Y2211832D01*
X2628900Y2194306D02*
X2633980Y2199386D01*
X2515870Y2194306D02*
X2628900D01*
X2291842Y2205115D02*
Y2209764D01*
X2280920Y2212848D02*
X2288758D01*
X2291842Y2209764D01*
X2142908Y2275435D02*
X2218333D01*
X2280920Y2212848D01*
X2612534Y2388362D02*
X2640941Y2359955D01*
X2611482Y2385822D02*
X2638401Y2358903D01*
X2610430Y2383282D02*
X2633726Y2359986D01*
X2627012Y2350619D02*
X2633362Y2344269D01*
X2653689D01*
X2633726Y2350516D02*
Y2359986D01*
X2533506Y2324862D02*
X2554334Y2345690D01*
X2520593Y2319377D02*
X2531613D01*
X2518410Y2321560D02*
X2520593Y2319377D01*
X2518410Y2321560D02*
Y2322576D01*
X2527554Y2324862D02*
X2533506D01*
X2310851Y2181352D02*
X2494280D01*
X2503932Y2171700D01*
X2509012Y2166620D02*
X2522982D01*
X2503932Y2171700D02*
X2509012Y2166620D01*
X2490470Y2178812D02*
X2493518Y2175764D01*
X2311903Y2178812D02*
X2490470D01*
X2300473Y2167382D02*
X2311903Y2178812D01*
X2241804Y2157730D02*
X2249939D01*
X2493518Y2168906D02*
Y2175764D01*
Y2168906D02*
X2502916Y2159508D01*
X2513330D01*
X2256500Y2175002D02*
X2297317D01*
X2257552Y2172462D02*
X2298369D01*
X2262378Y2169922D02*
X2299421D01*
X2250912Y2169414D02*
X2256500Y2175002D01*
X2252980Y2160771D02*
Y2167890D01*
X2257552Y2172462D01*
X2257806Y2165350D02*
X2262378Y2169922D01*
X2249939Y2157730D02*
X2252980Y2160771D01*
X2278387Y2167382D02*
X2300473D01*
X2259210Y2148205D02*
X2278387Y2167382D01*
X2244598Y2169414D02*
X2250912D01*
X2238502Y2161032D02*
X2241804Y2157730D01*
X2235454Y2164080D02*
X2238502Y2161032D01*
X2158492Y2169414D02*
X2244598D01*
X2171446Y2164080D02*
X2235454D01*
X2234883Y2148205D02*
X2259210D01*
X2229295Y2153793D02*
X2234883Y2148205D01*
X2185797Y2153793D02*
X2229295D01*
X2182114Y2150110D02*
X2185797Y2153793D01*
D56*
X2586228Y2360422D02*
X2594610Y2352040D01*
X2528316Y2360422D02*
X2586228D01*
X2514600Y2374138D02*
X2528316Y2360422D01*
X2881862Y2441606D02*
X2887512Y2435956D01*
X2892250D01*
X2803297Y2441606D02*
X2881862D01*
X2788152Y2426462D02*
X2803297Y2441606D01*
X2767584Y2426462D02*
X2788152D01*
X2752090Y2410968D02*
X2767584Y2426462D01*
X2134029Y2262396D02*
X2178794D01*
X2125393Y2271032D02*
X2134029Y2262396D01*
X2178794D02*
X2191004Y2250186D01*
X2125393Y2271032D02*
Y2304694D01*
X2125429Y2304730D01*
X2185876Y2226074D02*
X2191004Y2231202D01*
X2751074Y2410968D02*
X2752090D01*
X2550160Y2278634D02*
X2592070D01*
X2098040Y2190242D02*
Y2195068D01*
X2092452Y2184654D02*
X2098040Y2190242D01*
X2191004Y2231202D02*
Y2250186D01*
D57*
X2338578Y2107946D02*
X2345182Y2101342D01*
X2338578Y2107946D02*
Y2114804D01*
X2345182Y2101342D02*
X2523744D01*
Y2094738D02*
Y2101342D01*
X2247749Y2441853D02*
X2247900Y2441702D01*
X2224683Y2441853D02*
X2247749D01*
X2211070Y2428240D02*
X2224683Y2441853D01*
X2211070Y2414270D02*
Y2428240D01*
D59*
X2794762Y2422652D02*
Y2427478D01*
X2805334Y2438050D01*
X2880389D01*
X2887515Y2430924D01*
X2887726Y2441448D02*
X2897632D01*
X2884012Y2445162D02*
X2887726Y2441448D01*
X2798984Y2445162D02*
X2884012D01*
X2790952Y2437130D02*
X2798984Y2445162D01*
X2897632Y2441448D02*
X2899750Y2443566D01*
X2782570Y2435539D02*
X2794987Y2447956D01*
X2892250D01*
X2782570Y2432304D02*
Y2435539D01*
X2899750Y2443566D02*
Y2447956D01*
Y2432390D02*
Y2435956D01*
X2898284Y2430924D02*
X2899750Y2432390D01*
X2887515Y2430924D02*
X2898284D01*
X2413500Y2264343D02*
Y2266442D01*
X2408698Y2259541D02*
X2413500Y2264343D01*
X2408698Y2256552D02*
Y2259541D01*
X2406396Y2254250D02*
X2408698Y2256552D01*
X2399164Y2241550D02*
X2406276Y2248662D01*
X2379218Y2241550D02*
X2399164D01*
X2398006Y2244344D02*
X2405118Y2251456D01*
X2383282Y2244344D02*
X2398006D01*
X2403961Y2254250D02*
X2406396D01*
X2401496Y2251784D02*
X2403961Y2254250D01*
X2413500Y2256020D02*
Y2257552D01*
X2408936Y2251456D02*
X2413500Y2256020D01*
X2405118Y2251456D02*
X2408936D01*
X2406276Y2248662D02*
X2413500D01*
X2396818Y2251784D02*
X2401496D01*
X2396744Y2251710D02*
X2396818Y2251784D01*
X2380742Y2246884D02*
X2383282Y2244344D01*
X2370074Y2250694D02*
X2379218Y2241550D01*
X2370074Y2250694D02*
Y2257044D01*
X2122424Y2065528D02*
X2128520Y2071624D01*
X2122424Y2059940D02*
Y2065528D01*
X2137664Y2073656D02*
Y2073910D01*
X2127758Y2063750D02*
X2137664Y2073656D01*
X2127758Y2045716D02*
Y2063750D01*
X2122424Y2040382D02*
X2127758Y2045716D01*
X2158492Y2161032D02*
X2158746Y2160778D01*
X2158492Y2161032D02*
X2164207Y2166747D01*
X2239578D02*
X2243769Y2162556D01*
X2247392D01*
X2164207Y2166747D02*
X2239578D01*
D60*
X2605024Y2427224D02*
Y2441448D01*
Y2427224D02*
X2610842Y2421406D01*
X2635641D01*
X2658549Y2398498D01*
X2669818D01*
X2273300Y2441702D02*
X2285110Y2429892D01*
X2316862D01*
X2669818Y2398498D02*
X2684526Y2383790D01*
X2406904Y2394966D02*
X2425954Y2375916D01*
X2398522Y2394966D02*
X2406904D01*
X2375408D02*
X2375638Y2394736D01*
X2398292D01*
X2398522Y2394966D01*
X2375408Y2374900D02*
Y2394966D01*
X2328672Y2441702D02*
X2375408Y2394966D01*
X2114372Y2440610D02*
X2126182Y2428800D01*
X2158696D01*
X2170506Y2440610D01*
X2316862Y2429892D02*
X2328672Y2441702D01*
X2684526Y2383790D02*
X2749296D01*
X2751074Y2385568D01*
X2259491Y2342896D02*
X2268728D01*
X2170506Y2393204D02*
X2199987Y2363724D01*
X2170506Y2393204D02*
Y2440610D01*
X2238663Y2363724D02*
X2259491Y2342896D01*
X2199987Y2363724D02*
X2238663D01*
X2257044Y2152650D02*
X2268220Y2163826D01*
X2175764Y2158238D02*
X2231136D01*
X2236724Y2152650D01*
X2257044D01*
D61*
X2398014Y2238502D02*
X2400046Y2236470D01*
X2377955Y2238502D02*
X2398014D01*
X2365018Y2262148D02*
X2369566Y2266696D01*
X2365018Y2251439D02*
X2377955Y2238502D01*
X2365018Y2251439D02*
Y2262148D01*
X2136648Y2242058D02*
Y2252218D01*
D62*
X2094230Y2410968D02*
X2118868Y2386330D01*
X2122678Y2227580D02*
Y2236081D01*
X2128556Y2241959D01*
X2401570Y2274570D02*
X2472944D01*
X2574774Y2173962D02*
X2580084Y2168652D01*
X2583688D01*
X2713760D02*
X2719070Y2173962D01*
X2583688Y2168652D02*
X2713760D01*
X2375154Y2300986D02*
X2401570Y2274570D01*
X2135614Y2335040D02*
X2147044Y2323610D01*
X2131489Y2335040D02*
X2135614D01*
X2147044Y2323610D02*
X2159714D01*
X2170920D02*
X2173478Y2321052D01*
X2159714Y2323610D02*
X2170920D01*
X2126663Y2346470D02*
X2148284D01*
X2167364D02*
X2175764Y2338070D01*
X2148284Y2346470D02*
X2167364D01*
X2627884Y2281364D02*
Y2281825D01*
X2588768Y2306066D02*
X2597174Y2297660D01*
X2631337D01*
X2632940Y2296057D01*
Y2286420D02*
Y2296057D01*
X2627884Y2281364D02*
X2632940Y2286420D01*
X2588768Y2306066D02*
X2603754Y2321052D01*
X2665730D01*
X2670532Y2325854D01*
X2750654Y2298724D02*
X2750820Y2298891D01*
X2684526Y2335530D02*
X2686788Y2333268D01*
X2670532Y2325854D02*
X2689630D01*
X2686788Y2333268D02*
X2695170D01*
X2706370Y2322068D01*
X2689630Y2325854D02*
X2712744Y2302740D01*
X2714474Y2310916D02*
Y2319044D01*
X2711450Y2322068D02*
X2714474Y2319044D01*
X2706370Y2322068D02*
X2711450D01*
X2714474Y2310916D02*
X2718840Y2306550D01*
X2712744Y2302740D02*
X2728746D01*
X2732762Y2298724D01*
X2733318Y2306550D02*
X2733802Y2306066D01*
X2718840Y2306550D02*
X2733318D01*
X2732762Y2298724D02*
X2750654D01*
X2230906Y2191790D02*
X2240534Y2201418D01*
X2130552Y2197100D02*
X2203196D01*
X2208506Y2191790D01*
X2230906D01*
X2151710Y2410892D02*
X2151864Y2410738D01*
X2197883Y2358644D02*
X2231644D01*
X2235200Y2355088D01*
X2118868Y2386330D02*
X2164334D01*
X2195830Y2354834D01*
X2221230D01*
X2225802Y2350262D01*
X2151710Y2404816D02*
X2197883Y2358644D01*
X2151710Y2404816D02*
Y2410892D01*
D63*
X2003961Y2162640D02*
G03*
X2001959Y2167641I-7252J-1D01*
G01*
X2020461Y2196640D02*
G03*
X2003961Y2201141I-16501J-27999D01*
G01*
X2020461Y2196640D02*
G03*
X2025459Y2195639I3936J6677D01*
G01*
X2021959Y2169640D02*
G03*
X2021959Y2169641I-18000J1D01*
G01*
X1909961Y1975640D02*
G03*
X1932460Y1953141I22499J0D01*
G01*
X1900959Y1975640D02*
G03*
X1932460Y1944139I31501J0D01*
G01*
X1905460Y1975640D02*
G03*
X1932460Y1948640I27000J0D01*
G01*
X1914459Y1975640D02*
G03*
X1932460Y1957639I18001J0D01*
G01*
X1918960Y1975640D02*
G03*
X1932460Y1962140I13500J0D01*
G01*
X1923461Y1975640D02*
G03*
X1932460Y1966641I8999J0D01*
G01*
X1927959Y1975640D02*
G03*
X1932460Y1971139I4501J0D01*
G01*
Y2196640D02*
G03*
X1905460Y2169640I0J-27000D01*
G01*
X1932460Y2192139D02*
G03*
X1909961Y2169640I0J-22499D01*
G01*
X1932460Y2201141D02*
G03*
X1900959Y2169640I0J-31501D01*
G01*
X1932460Y2178639D02*
G03*
X1923461Y2169640I0J-8999D01*
G01*
X1932460Y2183140D02*
G03*
X1918960Y2169640I0J-13500D01*
G01*
X1932460Y2174141D02*
G03*
X1927959Y2169640I0J-4501D01*
G01*
X1932460Y2187641D02*
G03*
X1914459Y2169640I0J-18001D01*
G01*
X1999460Y1971139D02*
G03*
X2003961Y1975640I0J4501D01*
G01*
X1999460Y1962140D02*
G03*
X2012960Y1975640I0J13500D01*
G01*
X1999460Y1966641D02*
G03*
X2008459Y1975640I0J8999D01*
G01*
X1999460Y1953141D02*
G03*
X2021959Y1975640I0J22499D01*
G01*
X1999460Y1944139D02*
G03*
X2030961Y1975640I0J31501D01*
G01*
X1999460Y1948640D02*
G03*
X2026460Y1975640I0J27000D01*
G01*
X1999460Y1957639D02*
G03*
X2017461Y1975640I0J18001D01*
G01*
X2030961Y2169640D02*
G03*
X2003961Y2196640I-27000J0D01*
G01*
X2012960Y2169640D02*
G03*
X2003961Y2178639I-8999J0D01*
G01*
X2017461Y2169640D02*
G03*
X2003961Y2183140I-13500J0D01*
G01*
X2026460Y2169640D02*
G03*
X2003961Y2192139I-22499J0D01*
G01*
X2008459Y2169640D02*
G03*
X2008459Y2169641I-4500J1D01*
G01*
D02*
G03*
X2003961Y2174141I-4500J0D01*
G01*
X2021959Y2169641D02*
G03*
X2003961Y2187641I-18000J0D01*
G01*
Y1975640D02*
Y2162640D01*
X1918960Y1975640D02*
Y2169640D01*
X1932460Y1944139D02*
X1999460D01*
X1932460Y1962140D02*
X1999460D01*
X1932460Y1966641D02*
X1999460D01*
X1932460Y1971139D02*
X1999460D01*
X1900959Y1975640D02*
Y2169640D01*
X1909961Y1975640D02*
Y2169640D01*
X1905460Y1975640D02*
Y2169640D01*
X1914459Y1975640D02*
Y2169640D01*
X1927959Y1975640D02*
Y2169640D01*
X1923461Y1975640D02*
Y2169640D01*
X1932460Y1957639D02*
X1999460D01*
X1932460Y1948640D02*
X1999460D01*
X1932460Y1953141D02*
X1999460D01*
X2008459Y2169640D02*
Y2169641D01*
Y1975640D02*
Y2169640D01*
Y2169641D01*
Y2169640D02*
Y2169641D01*
Y2169640D02*
Y2169641D01*
Y2169640D02*
Y2169641D01*
Y2169640D02*
Y2169641D01*
Y2169640D02*
Y2169641D01*
Y2169640D02*
Y2169641D01*
Y2169640D02*
Y2169641D01*
Y2169640D02*
Y2169641D01*
Y2169640D02*
Y2169641D01*
Y2169640D02*
Y2169641D01*
Y2169640D02*
Y2169641D01*
Y2169640D02*
Y2169641D01*
Y2169640D02*
Y2169641D01*
Y2169640D02*
Y2169641D01*
Y2169640D02*
Y2169641D01*
Y2169640D02*
Y2169641D01*
X1932460Y2187641D02*
X2003961D01*
X1932460Y2178639D02*
X2003961D01*
X1932460Y2183140D02*
X2003961D01*
X1932460Y2201141D02*
X2003961D01*
X1932460Y2192139D02*
X2003961D01*
X1932460Y2196640D02*
X2003961D01*
X2008459Y2169640D02*
Y2169641D01*
Y2169640D02*
Y2169641D01*
Y2169640D02*
Y2169641D01*
Y2169640D02*
Y2169641D01*
X1932460Y2174141D02*
X2003961D01*
X2008459Y2169640D02*
Y2169641D01*
Y2169640D02*
Y2169641D01*
Y2169640D02*
Y2169641D01*
Y2169640D02*
Y2169641D01*
Y2169640D02*
Y2169641D01*
Y2169640D02*
Y2169641D01*
Y2169640D02*
Y2169641D01*
Y2169640D02*
Y2169641D01*
Y2169640D02*
Y2169641D01*
Y2169640D02*
Y2169641D01*
Y2169640D02*
Y2169641D01*
Y2169640D02*
Y2169641D01*
Y2169640D02*
Y2169641D01*
Y2169640D02*
Y2169641D01*
Y2169640D02*
Y2169641D01*
Y2169640D02*
Y2169641D01*
Y2169640D02*
Y2169641D01*
Y2169640D02*
Y2169641D01*
Y2169640D02*
Y2169641D01*
Y2169640D02*
Y2169641D01*
Y2169640D02*
Y2169641D01*
Y2169640D02*
Y2169641D01*
Y2169640D02*
Y2169641D01*
Y2169640D02*
Y2169641D01*
Y2169640D02*
Y2169641D01*
Y2169640D02*
Y2169641D01*
Y2169640D02*
Y2169641D01*
Y2169640D02*
Y2169641D01*
Y2169640D02*
Y2169641D01*
Y2169640D02*
Y2169641D01*
Y2169640D02*
Y2169641D01*
X2012960Y1975640D02*
Y2169640D01*
X2021959Y1975640D02*
Y2169640D01*
Y2169641D01*
X2017461Y1975640D02*
Y2169640D01*
X2008459D02*
Y2169641D01*
Y2169640D02*
Y2169641D01*
Y2169640D02*
Y2169641D01*
Y2169640D02*
Y2169641D01*
X2021959Y2169640D02*
Y2169641D01*
Y2169640D02*
Y2169641D01*
X2008459Y2169640D02*
Y2169641D01*
Y2169640D02*
Y2169641D01*
Y2169640D02*
Y2169641D01*
X2021959Y2169640D02*
Y2169641D01*
Y2169640D02*
Y2169641D01*
Y2169640D02*
Y2169641D01*
Y2169640D02*
Y2169641D01*
Y2169640D02*
Y2169641D01*
Y2169640D02*
Y2169641D01*
Y2169640D02*
Y2169641D01*
Y2169640D02*
Y2169641D01*
Y2169640D02*
Y2169641D01*
Y2169640D02*
Y2169641D01*
Y2169640D02*
Y2169641D01*
Y2169640D02*
Y2169641D01*
Y2169640D02*
Y2169641D01*
Y2169640D02*
Y2169641D01*
X2030961Y1975640D02*
Y2169640D01*
X2026460Y1975640D02*
Y2169640D01*
X2021959D02*
Y2169641D01*
Y2169640D02*
Y2169641D01*
Y2169640D02*
Y2169641D01*
Y2169640D02*
Y2169641D01*
Y2169640D02*
Y2169641D01*
Y2169640D02*
Y2169641D01*
Y2169640D02*
Y2169641D01*
Y2169640D02*
Y2169641D01*
Y2169640D02*
Y2169641D01*
Y2169640D02*
Y2169641D01*
Y2169640D02*
Y2169641D01*
Y2169640D02*
Y2169641D01*
Y2169640D02*
Y2169641D01*
Y2169640D02*
Y2169641D01*
Y2169640D02*
Y2169641D01*
Y2169640D02*
Y2169641D01*
X2008459Y2169640D02*
Y2169641D01*
X2021959Y2169640D02*
Y2169641D01*
X2008459Y2169640D02*
Y2169641D01*
Y2169640D02*
Y2169641D01*
Y2169640D02*
Y2169641D01*
Y2169640D02*
Y2169641D01*
X2021959Y2169640D02*
Y2169641D01*
Y2169640D02*
Y2169641D01*
Y2169640D02*
Y2169641D01*
Y2169640D02*
Y2169641D01*
Y2169640D02*
Y2169641D01*
Y2169640D02*
Y2169641D01*
Y2169640D02*
Y2169641D01*
Y2169640D02*
Y2169641D01*
Y2169640D02*
Y2169641D01*
Y2169640D02*
Y2169641D01*
Y2169640D02*
Y2169641D01*
Y2169640D02*
Y2169641D01*
Y2169640D02*
Y2169641D01*
Y2169640D02*
Y2169641D01*
Y2169640D02*
Y2169641D01*
Y2169640D02*
Y2169641D01*
Y2169640D02*
Y2169641D01*
Y2169640D02*
Y2169641D01*
Y2169640D02*
Y2169641D01*
Y2169640D02*
Y2169641D01*
Y2169640D02*
Y2169641D01*
Y2169640D02*
Y2169641D01*
Y2169640D02*
Y2169641D01*
Y2169640D02*
Y2169641D01*
Y2169640D02*
Y2169641D01*
Y2169640D02*
Y2169641D01*
Y2169640D02*
Y2169641D01*
Y2169640D02*
Y2169641D01*
Y2169640D02*
Y2169641D01*
Y2169640D02*
Y2169641D01*
Y2169640D02*
Y2169641D01*
D71*
X2273300Y2441702D02*
D03*
X2298700D02*
D03*
X2247900D02*
D03*
X2375154Y2300986D02*
D03*
Y2326386D02*
D03*
X2400808Y2374900D02*
D03*
X2375408D02*
D03*
X2145106Y2441702D02*
D03*
X2170506D02*
D03*
X2211070Y2388870D02*
D03*
Y2414270D02*
D03*
X2328672Y2441702D02*
D03*
X2354072D02*
D03*
X2605024Y2441448D02*
D03*
X2630424D02*
D03*
X2751074Y2385568D02*
D03*
Y2436368D02*
D03*
Y2410968D02*
D03*
X2114372Y2441702D02*
D03*
X2088972D02*
D03*
X2268728Y2266696D02*
D03*
Y2292096D02*
D03*
Y2317496D02*
D03*
Y2368296D02*
D03*
Y2342896D02*
D03*
D72*
X2001959Y2167641D02*
D03*
X2025459Y2195639D02*
D03*
D73*
X2694686Y2435098D02*
D03*
X2569464Y2353310D02*
D03*
X2581148D02*
D03*
X2556002D02*
D03*
X2542540D02*
D03*
X2184654Y2117344D02*
D03*
X2601722Y2357628D02*
D03*
X2594610Y2352040D02*
D03*
X2645664Y2365756D02*
D03*
X2645918Y2387346D02*
D03*
X2610104Y2404618D02*
D03*
X2711196Y2408682D02*
D03*
X2661920Y2378202D02*
D03*
Y2367026D02*
D03*
X2608072Y2352548D02*
D03*
X2664206Y2443988D02*
D03*
X2627630Y2380488D02*
D03*
X2147062Y2302002D02*
D03*
X2225040Y2401824D02*
D03*
X2224786Y2419096D02*
D03*
X2196592Y2446528D02*
D03*
X2235454Y2379980D02*
D03*
X2207514Y2371344D02*
D03*
X2194306Y2420874D02*
D03*
X2515616Y2150364D02*
D03*
X2294890Y2180336D02*
D03*
X2281936Y2161032D02*
D03*
X2286762Y2422144D02*
D03*
X2130044Y2438908D02*
D03*
X2235200Y2454148D02*
D03*
X2208784Y2453386D02*
D03*
X2261108Y2453894D02*
D03*
X2122424Y2360168D02*
D03*
X2114296Y2210308D02*
D03*
X2100326Y2219960D02*
D03*
X2085086Y2144268D02*
D03*
X2131822Y2138426D02*
D03*
X2894584Y2044192D02*
D03*
X2904998Y2077466D02*
D03*
X2893822D02*
D03*
Y2053844D02*
D03*
X2893314Y2066036D02*
D03*
X2080000Y2206000D02*
D03*
X2090000D02*
D03*
Y2220000D02*
D03*
X2080000D02*
D03*
Y2375000D02*
D03*
X2090000D02*
D03*
Y2361000D02*
D03*
X2080000D02*
D03*
X2069084Y2221992D02*
D03*
X2057654Y2214626D02*
D03*
X2057908Y2249678D02*
D03*
Y2282952D02*
D03*
Y2327148D02*
D03*
Y2363724D02*
D03*
X2069084Y2382774D02*
D03*
X2057654Y2402078D02*
D03*
X2057400Y2428748D02*
D03*
Y2452878D02*
D03*
X2066798Y2026920D02*
D03*
X2067560Y2071116D02*
D03*
X2099056Y2069084D02*
D03*
X2121662Y2027428D02*
D03*
X2103120Y2027936D02*
D03*
X2057146Y2099564D02*
D03*
Y2068830D02*
D03*
Y2036318D02*
D03*
X2066290Y2086610D02*
D03*
X2083308Y2088388D02*
D03*
X2118106D02*
D03*
X2137918Y2014982D02*
D03*
X2134616Y2037334D02*
D03*
X2150872Y2037588D02*
D03*
X2163572Y2041906D02*
D03*
X2164080Y2062988D02*
D03*
X2203958Y2099818D02*
D03*
X2206244Y2123440D02*
D03*
X2225294Y2146808D02*
D03*
X2203196Y2147316D02*
D03*
X2247900Y2141728D02*
D03*
X2223770Y2082546D02*
D03*
X2257806Y2078990D02*
D03*
X2255520Y2103628D02*
D03*
X2225040Y2103120D02*
D03*
X2226056Y2124202D02*
D03*
X2255012Y2126996D02*
D03*
X2226056Y2021332D02*
D03*
X2259584Y1995678D02*
D03*
X2258060Y2023872D02*
D03*
X2226056Y2040636D02*
D03*
X2225294Y2064512D02*
D03*
X2257298Y2056384D02*
D03*
X2199386Y1951228D02*
D03*
X2230374Y1949958D02*
D03*
X2230628Y1972564D02*
D03*
X2198624Y1972056D02*
D03*
X2197862Y1995932D02*
D03*
X2230374Y1996948D02*
D03*
X2252472Y2379980D02*
D03*
X2248916Y2224786D02*
D03*
X2317750Y2234692D02*
D03*
X2108200Y2368550D02*
D03*
X2112772Y2225802D02*
D03*
X2220722Y2231644D02*
D03*
X2230120Y2243582D02*
D03*
X2227580Y2253996D02*
D03*
X2218690Y2262378D02*
D03*
X2212594Y2442972D02*
D03*
X2197100Y2402078D02*
D03*
X2224786Y2385314D02*
D03*
X2185670Y2390140D02*
D03*
X2194306Y2380234D02*
D03*
X2124710Y2406650D02*
D03*
X2153158Y2392680D02*
D03*
X2143506Y2404364D02*
D03*
X2217420Y2292096D02*
D03*
X2229104Y2312924D02*
D03*
X2280158Y2188718D02*
D03*
X2193798Y2203450D02*
D03*
X2157730D02*
D03*
X2242820Y2188972D02*
D03*
X2249170Y2199132D02*
D03*
X2221230Y2185162D02*
D03*
X2206752Y2178304D02*
D03*
X2199894Y2190242D02*
D03*
X2184908Y2190496D02*
D03*
X2183384Y2178304D02*
D03*
X2144522Y2178558D02*
D03*
X2125980Y2176780D02*
D03*
Y2126742D02*
D03*
X2115058Y2107184D02*
D03*
X2131060Y2081530D02*
D03*
X2131822Y2096770D02*
D03*
X2144522Y2108962D02*
D03*
X2548128Y2061718D02*
D03*
X2567940D02*
D03*
X2567178Y2076958D02*
D03*
X2549652D02*
D03*
X2530348Y2075688D02*
D03*
Y2062226D02*
D03*
X2530602Y2045970D02*
D03*
X2515362Y2046224D02*
D03*
X2514854Y2061972D02*
D03*
X2514346Y2075180D02*
D03*
X2176526Y2060448D02*
D03*
X2199132Y2076704D02*
D03*
X2187956D02*
D03*
X2177034Y2076450D02*
D03*
X2281682Y2246884D02*
D03*
X2175764Y2158238D02*
D03*
X2323338Y2374138D02*
D03*
X2178558Y2409190D02*
D03*
X2323338Y2255012D02*
D03*
X2315464Y2263902D02*
D03*
X2314956Y2276856D02*
D03*
X2332482Y2365502D02*
D03*
X2322576Y2286508D02*
D03*
X2801620Y2404872D02*
D03*
X2794762Y2422652D02*
D03*
X2780284Y2441702D02*
D03*
X2790952Y2437130D02*
D03*
X2782570Y2432304D02*
D03*
X2755138Y2398522D02*
D03*
X2741168Y2375662D02*
D03*
X2767076Y2350008D02*
D03*
X2772918Y2357120D02*
D03*
X2746756Y2368804D02*
D03*
X2735580Y2368550D02*
D03*
X2769108Y2442972D02*
D03*
X2581148Y2249932D02*
D03*
X2122678Y2227580D02*
D03*
X2627500Y2258240D02*
D03*
X2226818Y2204974D02*
D03*
X2212848Y2197100D02*
D03*
X2106422Y2202180D02*
D03*
X2234946Y2178304D02*
D03*
X2514854Y2111248D02*
D03*
X2350008Y2112010D02*
D03*
X2349754Y2130044D02*
D03*
X2330704Y2101088D02*
D03*
X2328672Y2123694D02*
D03*
X2329688Y2149856D02*
D03*
X2327910Y2172970D02*
D03*
X2439670Y2197862D02*
D03*
Y2388108D02*
D03*
X2410206Y2417572D02*
D03*
X2387854Y2365756D02*
D03*
Y2385822D02*
D03*
X2358898D02*
D03*
X2662682Y2175002D02*
D03*
X2643632Y2184908D02*
D03*
X2644140Y2174748D02*
D03*
X2631440Y2182622D02*
D03*
X2625090Y2175002D02*
D03*
X2330958Y2383282D02*
D03*
X2315210Y2405634D02*
D03*
X2368296Y2359152D02*
D03*
X2314702Y2299208D02*
D03*
X2282190Y2311908D02*
D03*
X2332990Y2266442D02*
D03*
X2341118Y2254758D02*
D03*
X2332228Y2282952D02*
D03*
X2351786Y2238248D02*
D03*
X2362454Y2284222D02*
D03*
X2347214Y2280920D02*
D03*
X2515362Y2346706D02*
D03*
X2434082Y2280412D02*
D03*
X2423668D02*
D03*
X2472944Y2274570D02*
D03*
X2460244Y2282952D02*
D03*
X2411984Y2282698D02*
D03*
X2401316Y2298446D02*
D03*
X2501900Y2272284D02*
D03*
X2467102Y2268728D02*
D03*
X2482596Y2280412D02*
D03*
X2481580Y2272030D02*
D03*
X2451354Y2263394D02*
D03*
X2445512Y2268728D02*
D03*
X2492756Y2237994D02*
D03*
X2441194Y2238756D02*
D03*
X2430272Y2239264D02*
D03*
X2338578Y2114804D02*
D03*
X2523744Y2101342D02*
D03*
Y2094738D02*
D03*
X2338578Y2107946D02*
D03*
X2365248Y2205228D02*
D03*
X2391918Y2319274D02*
D03*
X2450592Y2249424D02*
D03*
X2440940Y2248662D02*
D03*
Y2257552D02*
D03*
X2400046Y2236470D02*
D03*
X2360676Y2243836D02*
D03*
X2396744Y2251710D02*
D03*
X2413500Y2266442D02*
D03*
X2380742Y2246884D02*
D03*
X2382012Y2230120D02*
D03*
X2400554Y2268728D02*
D03*
X2387092Y2280412D02*
D03*
X2370074Y2257044D02*
D03*
X2384552Y2312416D02*
D03*
X2413500Y2248662D02*
D03*
Y2257552D02*
D03*
X2478532Y2235200D02*
D03*
X2314702Y2313686D02*
D03*
X2489200Y2227580D02*
D03*
X2494534Y2248154D02*
D03*
X2751582Y2314194D02*
D03*
X2541524Y2342134D02*
D03*
X2561590Y2292350D02*
D03*
X2540762Y2296668D02*
D03*
X2592324Y2262124D02*
D03*
X2556256Y2272284D02*
D03*
X2588514Y2285492D02*
D03*
X2567432Y2182368D02*
D03*
X2581656Y2234438D02*
D03*
X2581402Y2271014D02*
D03*
X2577846Y2304796D02*
D03*
X2533396Y2277618D02*
D03*
X2592324Y2270252D02*
D03*
X2881880Y2066036D02*
D03*
X2870200Y2053844D02*
D03*
X2869692Y2066036D02*
D03*
X2856230D02*
D03*
X2857500Y2053844D02*
D03*
X2881884Y2053840D02*
D03*
X2840228Y2053844D02*
D03*
X2824988Y2066036D02*
D03*
X2839974D02*
D03*
X2826766Y2053844D02*
D03*
X2446020Y2067052D02*
D03*
X2764790Y2034032D02*
D03*
X2763012Y2057908D02*
D03*
X2735072Y2033778D02*
D03*
X2706878D02*
D03*
X2678176Y2036064D02*
D03*
X2681478Y2059686D02*
D03*
X2707386Y2060194D02*
D03*
X2734310Y2058924D02*
D03*
X2763012Y2083816D02*
D03*
X2734056Y2083562D02*
D03*
X2706878Y2083054D02*
D03*
X2679192D02*
D03*
X2399538Y2035556D02*
D03*
X2398014Y2059940D02*
D03*
X2371344Y2037080D02*
D03*
X2344674Y2037588D02*
D03*
X2314702Y2034286D02*
D03*
X2313178Y2060448D02*
D03*
X2343404Y2060194D02*
D03*
X2369820Y2059432D02*
D03*
X2400046Y2089150D02*
D03*
X2370074Y2089404D02*
D03*
X2343404Y2087880D02*
D03*
X2313178Y2086102D02*
D03*
X2184146Y2290826D02*
D03*
X2164334Y2268220D02*
D03*
X2160524Y2255266D02*
D03*
X2173224Y2268220D02*
D03*
X2170938Y2255012D02*
D03*
X2155444Y2268220D02*
D03*
X2138632Y2269508D02*
D03*
X2133453Y2273959D02*
D03*
X2122424Y2264918D02*
D03*
X2149856Y2255520D02*
D03*
X2685034Y2418842D02*
D03*
X2728214Y2445258D02*
D03*
X2737358Y2435352D02*
D03*
X2719832Y2408682D02*
D03*
X2640558Y2428748D02*
D03*
X2490470Y2110994D02*
D03*
X2494280Y2159254D02*
D03*
X2457958Y2172716D02*
D03*
X2437130Y2228596D02*
D03*
X2424430Y2228342D02*
D03*
X2509266Y2322830D02*
D03*
X2466594Y2247138D02*
D03*
X2447798Y2282952D02*
D03*
X2471928Y2284730D02*
D03*
X2460752Y2300732D02*
D03*
X2599436Y2220214D02*
D03*
X2591308Y2248916D02*
D03*
X2501392Y2382266D02*
D03*
X2486660Y2395982D02*
D03*
X2463546D02*
D03*
X2420366Y2392172D02*
D03*
X2358644Y2295398D02*
D03*
X2332228Y2297430D02*
D03*
X2408174Y2290572D02*
D03*
X2346198Y2313940D02*
D03*
X2369312Y2342134D02*
D03*
X2358644Y2358644D02*
D03*
X2358390Y2373122D02*
D03*
X2367026Y2391156D02*
D03*
X2356104Y2331466D02*
D03*
X2358644Y2400554D02*
D03*
X2178812Y2424176D02*
D03*
X2325878Y2399284D02*
D03*
X2343658Y2383790D02*
D03*
X2331720Y2409952D02*
D03*
X2325878Y2425446D02*
D03*
X2315464Y2381250D02*
D03*
X2315210Y2394204D02*
D03*
X2315718Y2355088D02*
D03*
X2343912Y2339594D02*
D03*
X2123694Y2146554D02*
D03*
X2223770Y2197354D02*
D03*
X2156968Y2141474D02*
D03*
X2146046Y2133600D02*
D03*
X2130298Y2153158D02*
D03*
X2157222Y2121916D02*
D03*
X2210562Y2336292D02*
D03*
X2212086Y2316226D02*
D03*
X2215388Y2250440D02*
D03*
X2179320Y2303272D02*
D03*
X2194560Y2291842D02*
D03*
X2131136Y2419782D02*
D03*
X2121408Y2394204D02*
D03*
X2141982Y2120138D02*
D03*
X2122170Y2259076D02*
D03*
X2734056Y2204720D02*
D03*
X2726182Y2195322D02*
D03*
X2711958Y2188972D02*
D03*
X2678938Y2378456D02*
D03*
X2678176Y2354580D02*
D03*
X2706116Y2391156D02*
D03*
X2691384Y2375662D02*
D03*
X2690368Y2341880D02*
D03*
X2703322Y2375916D02*
D03*
X2701544Y2306066D02*
D03*
X2687320Y2320036D02*
D03*
X2390140Y2295652D02*
D03*
X2402078Y2311654D02*
D03*
X2373630Y2407920D02*
D03*
X2383790Y2414778D02*
D03*
X2371852Y2431542D02*
D03*
X2364994Y2452624D02*
D03*
X2393442Y2453132D02*
D03*
X2414016Y2453386D02*
D03*
X2450084Y2452624D02*
D03*
X2470912Y2452878D02*
D03*
X2492756Y2453386D02*
D03*
X2341626Y2452878D02*
D03*
X2313178Y2453132D02*
D03*
X2286000Y2454148D02*
D03*
X2183384Y2453640D02*
D03*
X2157476Y2454148D02*
D03*
X2129790Y2453640D02*
D03*
X2101850Y2454402D02*
D03*
X2083130Y2421052D02*
D03*
X2076526Y2428164D02*
D03*
X2076196Y2453132D02*
D03*
X2141042Y2420036D02*
D03*
X2106168Y2409190D02*
D03*
X2120468Y2420036D02*
D03*
X2792476Y2149094D02*
D03*
X2767076Y2162810D02*
D03*
X2750058Y2251202D02*
D03*
X2781300Y2252472D02*
D03*
X2796286Y2288286D02*
D03*
X2811272Y2268982D02*
D03*
X2810764Y2303526D02*
D03*
X2790698Y2307082D02*
D03*
X2743454Y2282952D02*
D03*
X2797810Y2317750D02*
D03*
X2782824Y2319020D02*
D03*
X2798064Y2332990D02*
D03*
X2798318Y2347214D02*
D03*
X2798572Y2360930D02*
D03*
Y2379980D02*
D03*
X2797556Y2394458D02*
D03*
X2811272Y2352548D02*
D03*
Y2370074D02*
D03*
X2812542Y2389632D02*
D03*
X2811780Y2407920D02*
D03*
Y2421128D02*
D03*
X2424430Y2040128D02*
D03*
X2430018Y2089404D02*
D03*
X2282952Y2084578D02*
D03*
X2122424Y2059940D02*
D03*
X2261616Y1949704D02*
D03*
X2158238Y2028698D02*
D03*
X2282952Y2038096D02*
D03*
X2283206Y2062988D02*
D03*
X2790698Y2031238D02*
D03*
X2788158Y2052066D02*
D03*
X2787650Y2070862D02*
D03*
X2811018Y2029460D02*
D03*
X2811780Y2090166D02*
D03*
Y2110232D02*
D03*
X2812034Y2186178D02*
D03*
X2811526Y2207006D02*
D03*
Y2229866D02*
D03*
X2811018Y2251456D02*
D03*
X2812288Y2282952D02*
D03*
X2197354Y2242312D02*
D03*
X2205482Y2247392D02*
D03*
X2648204Y2089404D02*
D03*
X2599436Y2090928D02*
D03*
X2567940Y2092452D02*
D03*
X2541524Y2092706D02*
D03*
X2509520Y2091944D02*
D03*
X2486660Y2090166D02*
D03*
X2457704Y2089404D02*
D03*
X2640838Y2031238D02*
D03*
X2591308Y2029206D02*
D03*
X2554224Y2029968D02*
D03*
X2516632Y2029714D02*
D03*
X2481072Y2030984D02*
D03*
X2441702Y2029968D02*
D03*
X2492756Y2050034D02*
D03*
X2492502Y2073910D02*
D03*
X2157984Y2010664D02*
D03*
X2112264Y2076196D02*
D03*
X2099056Y2114296D02*
D03*
X2084832D02*
D03*
X2068830Y2112264D02*
D03*
X2057654Y1971548D02*
D03*
X2057400Y2015998D02*
D03*
Y1998218D02*
D03*
X2113280Y2156968D02*
D03*
X2101342Y2088134D02*
D03*
X2125980Y2189734D02*
D03*
X2271522Y2182114D02*
D03*
X2304034Y2162302D02*
D03*
X2294890Y2150110D02*
D03*
X2249678Y2213864D02*
D03*
X2184654Y2138934D02*
D03*
X2612136Y2146808D02*
D03*
X2590038Y2145792D02*
D03*
X2560066D02*
D03*
X2532380Y2144776D02*
D03*
X2504694Y2444496D02*
D03*
X2483612Y2435098D02*
D03*
X2465578Y2435606D02*
D03*
X2445258Y2434590D02*
D03*
X2422398Y2435606D02*
D03*
X2401062Y2434844D02*
D03*
X2382266Y2435606D02*
D03*
X2365756Y2416810D02*
D03*
X2359914Y2427986D02*
D03*
X2414524Y2406396D02*
D03*
X2454910Y2411476D02*
D03*
X2438400Y2411730D02*
D03*
X2469388D02*
D03*
X2498344Y2415286D02*
D03*
X2512822Y2411730D02*
D03*
X2505202Y2395474D02*
D03*
X2513838Y2383282D02*
D03*
X2447798Y2395728D02*
D03*
X2428748Y2385060D02*
D03*
X2437130Y2356612D02*
D03*
X2448560Y2352548D02*
D03*
X2414270Y2338324D02*
D03*
X2417064Y2372868D02*
D03*
X2388108Y2343912D02*
D03*
X2358644D02*
D03*
X2385822Y2402332D02*
D03*
X2408936Y2361692D02*
D03*
X2405888Y2350516D02*
D03*
X2403348Y2332736D02*
D03*
X2426716Y2363216D02*
D03*
X2430272Y2338070D02*
D03*
X2461006Y2324862D02*
D03*
Y2334768D02*
D03*
X2488946Y2335022D02*
D03*
X2503424Y2351024D02*
D03*
X2502662Y2363724D02*
D03*
X2512822Y2333244D02*
D03*
X2500376Y2228850D02*
D03*
X2502916Y2238248D02*
D03*
X2505710Y2247646D02*
D03*
X2495804Y2263902D02*
D03*
X2470404Y2307336D02*
D03*
X2448052Y2294128D02*
D03*
X2369566Y2266696D02*
D03*
X2331720Y2247900D02*
D03*
X2356104Y2229358D02*
D03*
X2367534Y2239010D02*
D03*
X2408428Y2241550D02*
D03*
X2393442Y2274316D02*
D03*
X2387854Y2333244D02*
D03*
X2332736Y2326386D02*
D03*
X2316480Y2421128D02*
D03*
X2343404Y2408174D02*
D03*
Y2395982D02*
D03*
X2344166Y2371852D02*
D03*
X2344674Y2356358D02*
D03*
X2479802Y2263648D02*
D03*
X2400808Y2283714D02*
D03*
X2479548Y2247900D02*
D03*
X2281936Y2319274D02*
D03*
X2364486Y2314194D02*
D03*
X2315210Y2331212D02*
D03*
X2129790Y2379726D02*
D03*
X2179320Y2398268D02*
D03*
X2160524Y2378964D02*
D03*
X2182114Y2357628D02*
D03*
X2188972Y2347976D02*
D03*
X2203450Y2348484D02*
D03*
X2211832Y2326386D02*
D03*
X2247900Y2293874D02*
D03*
X2248408Y2340610D02*
D03*
X2250694Y2364994D02*
D03*
X2227072Y2430526D02*
D03*
X2186940Y2438146D02*
D03*
X2286254Y2409952D02*
D03*
X2328926Y2355088D02*
D03*
X2315972Y2342642D02*
D03*
X2316226Y2367026D02*
D03*
X2347214Y2294636D02*
D03*
X2350770Y2269744D02*
D03*
X2365756Y2229358D02*
D03*
X2340102Y2238502D02*
D03*
X2303272Y2248662D02*
D03*
X2377948Y2286254D02*
D03*
X2310638Y2240534D02*
D03*
X2315464Y2198116D02*
D03*
X2329688Y2197862D02*
D03*
X2325624Y2206244D02*
D03*
X2392426Y2197608D02*
D03*
X2374646Y2197354D02*
D03*
X2401824Y2204466D02*
D03*
X2383028Y2204720D02*
D03*
X2357628Y2197100D02*
D03*
X2425192Y2204212D02*
D03*
X2466340Y2198116D02*
D03*
X2492756D02*
D03*
X2412746Y2197862D02*
D03*
X2452878Y2205736D02*
D03*
X2478278D02*
D03*
X2400554Y2228342D02*
D03*
X2418080Y2239010D02*
D03*
X2451354Y2228596D02*
D03*
X2323338Y2228850D02*
D03*
X2346960Y2229612D02*
D03*
X2374646Y2233168D02*
D03*
X2486406Y2144522D02*
D03*
X2314702Y2172462D02*
D03*
X2348230Y2204974D02*
D03*
X2349754Y2151888D02*
D03*
X2314956Y2152142D02*
D03*
X2371852Y2172716D02*
D03*
X2398014Y2172462D02*
D03*
X2486660Y2172716D02*
D03*
X2429002Y2172970D02*
D03*
X2428240Y2150872D02*
D03*
X2457196Y2151126D02*
D03*
X2399538Y2150872D02*
D03*
X2373122Y2150364D02*
D03*
X2585720Y2074418D02*
D03*
X2608072Y2068322D02*
D03*
X2612136Y2040890D02*
D03*
X2586482Y2049018D02*
D03*
X2630424Y2072132D02*
D03*
X2657602D02*
D03*
X2658110Y2049526D02*
D03*
X2630424Y2052828D02*
D03*
X2424938Y2060702D02*
D03*
X2465324Y2075180D02*
D03*
X2469642Y2052066D02*
D03*
X2451608Y2045970D02*
D03*
X2199386Y2023110D02*
D03*
X2164588Y2084578D02*
D03*
X2076450Y2015744D02*
D03*
X2096516D02*
D03*
X2284222Y2010918D02*
D03*
X2176526Y2022856D02*
D03*
X2116582Y2015998D02*
D03*
X2117090Y1995678D02*
D03*
X2169668Y1994662D02*
D03*
X2139696Y1996186D02*
D03*
X2284476Y1987550D02*
D03*
X2096516Y1997456D02*
D03*
X2075942Y1997964D02*
D03*
X2057400Y1949958D02*
D03*
X2101088Y1972056D02*
D03*
X2285746Y1968500D02*
D03*
X2141474Y1971802D02*
D03*
X2168652D02*
D03*
X2117852D02*
D03*
Y1950466D02*
D03*
X2170176Y1951482D02*
D03*
X2142236Y1950212D02*
D03*
X2287778Y1949196D02*
D03*
X2090674Y1949958D02*
D03*
X2760980Y2125726D02*
D03*
X2531618Y2125472D02*
D03*
X2557780Y2125726D02*
D03*
X2659380D02*
D03*
X2684780D02*
D03*
X2608580D02*
D03*
X2633980D02*
D03*
X2583180D02*
D03*
X2735580D02*
D03*
X2710180D02*
D03*
Y2106422D02*
D03*
X2735580D02*
D03*
X2583180D02*
D03*
X2633980D02*
D03*
X2608580D02*
D03*
X2684780D02*
D03*
X2659380D02*
D03*
X2557780D02*
D03*
X2532380D02*
D03*
X2760980D02*
D03*
X2471166Y2130044D02*
D03*
X2363724D02*
D03*
X2389124D02*
D03*
X2312924D02*
D03*
X2272194Y2148068D02*
D03*
X2281428Y2130552D02*
D03*
X2440432Y2130044D02*
D03*
X2414524D02*
D03*
Y2110740D02*
D03*
X2439924D02*
D03*
X2282444Y2109724D02*
D03*
X2349500Y2172716D02*
D03*
X2312924Y2110740D02*
D03*
X2389124D02*
D03*
X2363724D02*
D03*
X2128266Y2108200D02*
D03*
X2465324Y2110740D02*
D03*
X2552700Y2013204D02*
D03*
X2316226Y2011172D02*
D03*
X2349500Y2013204D02*
D03*
X2451100D02*
D03*
X2476500D02*
D03*
X2400300D02*
D03*
X2425700D02*
D03*
X2374900D02*
D03*
X2527300D02*
D03*
X2501900D02*
D03*
Y1993900D02*
D03*
X2527300D02*
D03*
X2374900D02*
D03*
X2425700D02*
D03*
X2400300D02*
D03*
X2476500D02*
D03*
X2451100D02*
D03*
X2349500D02*
D03*
X2317242Y1988566D02*
D03*
X2552700Y1993900D02*
D03*
X2810002Y2011680D02*
D03*
X2579116Y2013204D02*
D03*
X2604516D02*
D03*
X2706116D02*
D03*
X2731516D02*
D03*
X2655316D02*
D03*
X2680716D02*
D03*
X2629916D02*
D03*
X2782316D02*
D03*
X2756916D02*
D03*
Y1993900D02*
D03*
X2782316D02*
D03*
X2629916D02*
D03*
X2680716D02*
D03*
X2655316D02*
D03*
X2731516D02*
D03*
X2706116D02*
D03*
X2604516D02*
D03*
X2579116D02*
D03*
X2810002Y1993392D02*
D03*
X2553462Y1971040D02*
D03*
X2318512Y1968500D02*
D03*
X2350262Y1971040D02*
D03*
X2451862D02*
D03*
X2477262D02*
D03*
X2401062D02*
D03*
X2426462D02*
D03*
X2375662D02*
D03*
X2528062D02*
D03*
X2502662D02*
D03*
Y1951736D02*
D03*
X2528062D02*
D03*
X2375662D02*
D03*
X2426462D02*
D03*
X2401062D02*
D03*
X2477262D02*
D03*
X2451862D02*
D03*
X2350262D02*
D03*
X2318766Y1948434D02*
D03*
X2553462Y1951736D02*
D03*
X2809240Y1971040D02*
D03*
X2579878Y1970786D02*
D03*
X2605278D02*
D03*
X2706878D02*
D03*
X2732278D02*
D03*
X2656078D02*
D03*
X2681478D02*
D03*
X2630678D02*
D03*
X2783078D02*
D03*
X2757678D02*
D03*
Y1951482D02*
D03*
X2783078D02*
D03*
X2630678D02*
D03*
X2681478D02*
D03*
X2656078D02*
D03*
X2732278D02*
D03*
X2706878D02*
D03*
X2605278D02*
D03*
X2579878D02*
D03*
X2809240D02*
D03*
X2907284Y2431034D02*
D03*
Y2452116D02*
D03*
Y2441956D02*
D03*
X2885186Y2453894D02*
D03*
X2171192Y2205736D02*
D03*
X2181098Y2210308D02*
D03*
X2227834Y2214372D02*
D03*
X2204212Y2221992D02*
D03*
X2128556Y2241959D02*
D03*
X2694686Y2312670D02*
D03*
X2684526Y2383790D02*
D03*
X2717292Y2365248D02*
D03*
X2755138Y2281936D02*
D03*
X2702814Y2365756D02*
D03*
X2503932Y2142490D02*
D03*
X2515362Y2361438D02*
D03*
X2380234Y2275078D02*
D03*
X2517902Y2181606D02*
D03*
X2522982Y2166620D02*
D03*
X2517902Y2173478D02*
D03*
X2140204Y2299970D02*
D03*
Y2290572D02*
D03*
X2133854Y2306320D02*
D03*
X2131314Y2287016D02*
D03*
X2133854Y2296414D02*
D03*
X2194306Y2316734D02*
D03*
X2194814Y2299970D02*
D03*
X2708910Y2327402D02*
D03*
X2751328Y2306320D02*
D03*
X2582926Y2392680D02*
D03*
X2583688Y2427732D02*
D03*
X2566162Y2453640D02*
D03*
X2526030D02*
D03*
X2541524Y2412492D02*
D03*
X2523236Y2414778D02*
D03*
X2654554Y2454148D02*
D03*
X2803906Y2281936D02*
D03*
X2707640Y2140204D02*
D03*
X2712720Y2160270D02*
D03*
X2696972Y2185416D02*
D03*
X2670556Y2214118D02*
D03*
X2554478Y2243328D02*
D03*
X2534920Y2237232D02*
D03*
X2509266Y2279650D02*
D03*
X2569972Y2297430D02*
D03*
X2571242Y2368296D02*
D03*
X2626360Y2314956D02*
D03*
X2137664Y2392680D02*
D03*
X2221992Y2322576D02*
D03*
X2097786Y2396236D02*
D03*
X2768600Y2216912D02*
D03*
X2735072Y2270506D02*
D03*
X2763520Y2335276D02*
D03*
X2645664Y2372360D02*
D03*
X2728214Y2376170D02*
D03*
X2593086Y2427986D02*
D03*
X2785872Y2350262D02*
D03*
X2820162Y2453894D02*
D03*
X2770124Y2432812D02*
D03*
X2783586Y2399284D02*
D03*
X2783840Y2388362D02*
D03*
Y2375408D02*
D03*
X2757424Y2368804D02*
D03*
X2765806Y2378964D02*
D03*
X2766060Y2415286D02*
D03*
X2719070Y2252218D02*
D03*
X2712466Y2357374D02*
D03*
X2740914Y2341372D02*
D03*
X2757424Y2328164D02*
D03*
X2125459Y2312231D02*
D03*
X2215388Y2347976D02*
D03*
X2167636Y2308098D02*
D03*
Y2315718D02*
D03*
X2107438Y2355596D02*
D03*
X2122424Y2371090D02*
D03*
X2137664Y2210054D02*
D03*
X2176018Y2099818D02*
D03*
X2057654Y2168398D02*
D03*
X2133552Y2321578D02*
D03*
X2248154Y2271522D02*
D03*
X2751074Y2214626D02*
D03*
X2670556Y2454148D02*
D03*
X2650490Y2192274D02*
D03*
X2070608Y2167382D02*
D03*
X2070862Y2193290D02*
D03*
X2057400Y2150110D02*
D03*
X2071116Y2149602D02*
D03*
X2197100Y2252472D02*
D03*
X2120138Y2163064D02*
D03*
X2211070Y2304034D02*
D03*
X2271268Y2197608D02*
D03*
X2212340Y2238248D02*
D03*
X2080514Y2195068D02*
D03*
X2167636Y2353310D02*
D03*
X2779522Y2364740D02*
D03*
X2740914Y2241042D02*
D03*
X2753614Y2179574D02*
D03*
X2748788Y2196846D02*
D03*
X2726182Y2183130D02*
D03*
X2758186Y2321306D02*
D03*
X2715514Y2215833D02*
D03*
X2724912Y2147824D02*
D03*
X2791714Y2175256D02*
D03*
X2738120Y2215134D02*
D03*
X2757424Y2227072D02*
D03*
X2146046Y2233422D02*
D03*
X2123694Y2210562D02*
D03*
X2058162Y2193544D02*
D03*
X2182114Y2150110D02*
D03*
X2167636Y2329688D02*
D03*
Y2337308D02*
D03*
X2723896Y2164588D02*
D03*
X2710434Y2175256D02*
D03*
X2070608Y2137156D02*
D03*
X2108454Y2385060D02*
D03*
X2076018Y2413432D02*
D03*
X2221738Y2340356D02*
D03*
X2543302Y2369566D02*
D03*
X2556002Y2367280D02*
D03*
X2609850Y2393950D02*
D03*
X2653538Y2388616D02*
D03*
X2360930Y2273046D02*
D03*
X2812034Y2060448D02*
D03*
X2738882Y2137410D02*
D03*
X2739136Y2150110D02*
D03*
X2738882Y2162810D02*
D03*
Y2175510D02*
D03*
Y2188210D02*
D03*
X2687320Y2454402D02*
D03*
X2448814Y2337816D02*
D03*
X2057400Y2182368D02*
D03*
X2503678Y2126996D02*
D03*
X2132584Y2352040D02*
D03*
X2140712Y2367788D02*
D03*
X2157984D02*
D03*
X2169922Y2361184D02*
D03*
X2175002Y2329180D02*
D03*
X2235200Y2355088D02*
D03*
X2175256Y2346960D02*
D03*
X2057146Y2120900D02*
D03*
X2145792Y2190496D02*
D03*
X2645410Y2239010D02*
D03*
X2590546Y2224532D02*
D03*
X2646426Y2289048D02*
D03*
X2728214Y2277618D02*
D03*
X2762758Y2255012D02*
D03*
X2672334Y2185162D02*
D03*
X2609088Y2175002D02*
D03*
X2662936Y2207768D02*
D03*
X2562352Y2255774D02*
D03*
X2568702Y2249424D02*
D03*
X2556256Y2261362D02*
D03*
X2607818Y2314956D02*
D03*
X2678176Y2367280D02*
D03*
X2585212Y2313432D02*
D03*
X2583434Y2182622D02*
D03*
X2542794Y2253488D02*
D03*
X2566416Y2165858D02*
D03*
X2599944Y2182368D02*
D03*
X2533650Y2268220D02*
D03*
X2569210Y2284730D02*
D03*
X2709418Y2205482D02*
D03*
X2699766Y2205672D02*
D03*
X2690876D02*
D03*
X2657602Y2199132D02*
D03*
X2719070Y2208022D02*
D03*
X2094230Y2410968D02*
D03*
X2514600Y2374138D02*
D03*
X2526030Y2351786D02*
D03*
X2667508Y2389886D02*
D03*
X2609850Y2368804D02*
D03*
X2496058Y2280412D02*
D03*
X2182368Y2236724D02*
D03*
X2546096Y2182368D02*
D03*
X2232152Y2371598D02*
D03*
X2247900Y2317750D02*
D03*
X2727960Y2251964D02*
D03*
X2738882Y2251456D02*
D03*
X2535428Y2167128D02*
D03*
X2576322Y2155190D02*
D03*
X2593594Y2161032D02*
D03*
X2556510Y2182368D02*
D03*
X2593848Y2175002D02*
D03*
X2607564Y2160778D02*
D03*
X2535428Y2182368D02*
D03*
X2175256Y2233422D02*
D03*
X2502916Y2339086D02*
D03*
X2309114Y2212086D02*
D03*
X2125429Y2304730D02*
D03*
X2190750Y2236216D02*
D03*
X2136648Y2242058D02*
D03*
X2131489Y2335040D02*
D03*
X2173478Y2321052D02*
D03*
X2126663Y2346470D02*
D03*
X2175764Y2338070D02*
D03*
X2588768Y2306066D02*
D03*
X2716530Y2390902D02*
D03*
X2680462Y2205228D02*
D03*
X2768854Y2316480D02*
D03*
X2756662Y2340610D02*
D03*
X2743454Y2291588D02*
D03*
X2758440Y2270252D02*
D03*
X2695702Y2240724D02*
D03*
X2547620Y2247138D02*
D03*
X2750820Y2298891D02*
D03*
X2719070Y2173962D02*
D03*
X2727960Y2270252D02*
D03*
X2739136Y2264664D02*
D03*
X2766060Y2398268D02*
D03*
X2778252Y2453894D02*
D03*
X2791968D02*
D03*
X2805938D02*
D03*
X2144522Y2379472D02*
D03*
X2219960Y2371344D02*
D03*
X2494788Y2432812D02*
D03*
X2513838Y2453386D02*
D03*
X2513330Y2435606D02*
D03*
X2512822Y2422652D02*
D03*
X2596896Y2407412D02*
D03*
X2661412Y2429002D02*
D03*
X2582418Y2453386D02*
D03*
X2640838Y2453894D02*
D03*
X2646426Y2398776D02*
D03*
X2616708Y2452624D02*
D03*
X2586228Y2438400D02*
D03*
X2639568Y2407412D02*
D03*
X2594610Y2453132D02*
D03*
X2660904Y2415286D02*
D03*
X2646426Y2354580D02*
D03*
X2595626Y2418842D02*
D03*
X2698496Y2398776D02*
D03*
X2684526Y2396236D02*
D03*
X2672334Y2432050D02*
D03*
X2685288Y2431542D02*
D03*
X2630678Y2427986D02*
D03*
X2672588Y2405380D02*
D03*
X2763774Y2453894D02*
D03*
X2731262D02*
D03*
X2649982Y2436368D02*
D03*
X2747772Y2453894D02*
D03*
X2703830Y2335276D02*
D03*
X2411984Y2228088D02*
D03*
X2462276Y2263648D02*
D03*
X2370582Y2275840D02*
D03*
X2456688Y2268728D02*
D03*
X2332228Y2311400D02*
D03*
X2660904Y2406904D02*
D03*
X2790190Y2090928D02*
D03*
X2788158Y2107184D02*
D03*
X2791714Y2194560D02*
D03*
X2792730Y2224532D02*
D03*
X2795778Y2246630D02*
D03*
X2792476Y2208530D02*
D03*
X2767330Y2183892D02*
D03*
X2765806Y2145284D02*
D03*
X2787396Y2126234D02*
D03*
X2715514Y2453894D02*
D03*
X2811272Y2131822D02*
D03*
X2736342Y2278380D02*
D03*
X2740914Y2225802D02*
D03*
X2750312Y2237232D02*
D03*
X2761996Y2241804D02*
D03*
X2775458Y2307590D02*
D03*
X2771648Y2264156D02*
D03*
X2774442Y2339594D02*
D03*
X2754122Y2291080D02*
D03*
X2749042Y2264664D02*
D03*
X2767838Y2296668D02*
D03*
X2780030Y2273046D02*
D03*
X2812034Y2315210D02*
D03*
X2776474Y2236216D02*
D03*
X2795270Y2268220D02*
D03*
X2709926Y2251456D02*
D03*
X2712466Y2265680D02*
D03*
X2708402Y2315718D02*
D03*
X2725166Y2340864D02*
D03*
X2684526Y2406650D02*
D03*
X2726944Y2362708D02*
D03*
X2716784Y2376170D02*
D03*
X2686050Y2191766D02*
D03*
X2691638Y2354834D02*
D03*
X2548382Y2377948D02*
D03*
X2561082D02*
D03*
X2561336Y2418842D02*
D03*
X2535682D02*
D03*
X2548382Y2418588D02*
D03*
X2539492Y2453894D02*
D03*
X2553716D02*
D03*
X2541778Y2268728D02*
D03*
X2596642Y2371852D02*
D03*
X2615692Y2182368D02*
D03*
X2605532Y2292287D02*
D03*
X2582926Y2407666D02*
D03*
X2574544Y2414778D02*
D03*
X2620264Y2292350D02*
D03*
X2627630D02*
D03*
X2620518Y2281682D02*
D03*
X2761488Y2306066D02*
D03*
X2423414Y2349246D02*
D03*
X2634742Y2251964D02*
D03*
X2627884Y2281364D02*
D03*
X2691638Y2366518D02*
D03*
X2277618Y2234692D02*
D03*
X2640330Y2160778D02*
D03*
X2623312D02*
D03*
X2671826Y2196592D02*
D03*
X2679192Y2174494D02*
D03*
X2672588Y2160524D02*
D03*
X2669794Y2138680D02*
D03*
X2812034Y2161540D02*
D03*
X2657094Y2183638D02*
D03*
X2655824Y2160778D02*
D03*
X2659126Y2150110D02*
D03*
X2704338Y2152142D02*
D03*
X2629408Y2151126D02*
D03*
X2643632Y2140966D02*
D03*
X2683256Y2153158D02*
D03*
X2702560Y2194052D02*
D03*
X2695956Y2174748D02*
D03*
X2694178Y2160016D02*
D03*
X2688336Y2139696D02*
D03*
X2727452Y2435098D02*
D03*
X2701036Y2454402D02*
D03*
X2703830Y2444496D02*
D03*
X2737866Y2419096D02*
D03*
X2738374Y2402586D02*
D03*
X2754376Y2424176D02*
D03*
X2402586Y2261362D02*
D03*
X2768346Y2199386D02*
D03*
X2787650Y2281682D02*
D03*
X2229358Y2331720D02*
D03*
X2229612Y2289556D02*
D03*
X2067560Y2180082D02*
D03*
X2146808Y2207514D02*
D03*
X2057400Y2138172D02*
D03*
X2233930Y2208530D02*
D03*
X2515870Y2228850D02*
D03*
Y2238248D02*
D03*
X2467102Y2228596D02*
D03*
X2481834Y2408682D02*
D03*
X2535428Y2377948D02*
D03*
X2527808Y2371090D02*
D03*
X2434336Y2401316D02*
D03*
X2509012Y2264156D02*
D03*
X2783332Y2332482D02*
D03*
X2151710Y2410892D02*
D03*
X2581402Y2368296D02*
D03*
X2785110Y2409698D02*
D03*
X2851404Y2453894D02*
D03*
X2835656D02*
D03*
X2868930D02*
D03*
X2811018Y2431288D02*
D03*
X2795016Y2413508D02*
D03*
X2823210Y2431796D02*
D03*
X2852674D02*
D03*
X2838704D02*
D03*
X2878074D02*
D03*
X2475992Y2335022D02*
D03*
X2425954Y2375916D02*
D03*
X2866644Y2431796D02*
D03*
X2596640Y2388362D02*
D03*
X2655824Y2342134D02*
D03*
X2701544Y2354834D02*
D03*
X2525776Y2258314D02*
D03*
X2531110Y2252472D02*
D03*
X2536190Y2246630D02*
D03*
X2508758Y2289048D02*
D03*
X2533396Y2299970D02*
D03*
X2529078Y2307082D02*
D03*
X2448052Y2326894D02*
D03*
X2447798Y2314448D02*
D03*
X2518410Y2322576D02*
D03*
X2639314Y2233676D02*
D03*
X2631948Y2229866D02*
D03*
X2621280Y2229104D02*
D03*
X2611882Y2289810D02*
D03*
X2596642Y2398776D02*
D03*
X2675382Y2222754D02*
D03*
X2772410Y2328418D02*
D03*
X2526284Y2341880D02*
D03*
X2533904Y2287016D02*
D03*
X2539492Y2230628D02*
D03*
X2802636Y2426462D02*
D03*
X2782062Y2296414D02*
D03*
X2774696Y2286508D02*
D03*
X2766568Y2278380D02*
D03*
X2799588Y2302256D02*
D03*
X2748534Y2275586D02*
D03*
X2811526Y2327148D02*
D03*
Y2339594D02*
D03*
X2811780Y2072894D02*
D03*
Y2045970D02*
D03*
X2581402Y2259838D02*
D03*
X2622042Y2252980D02*
D03*
X2559812Y2235962D02*
D03*
X2568194Y2235454D02*
D03*
X2592070Y2278634D02*
D03*
X2615438Y2273300D02*
D03*
X2596388Y2254504D02*
D03*
X2613406Y2279142D02*
D03*
X2581148Y2287778D02*
D03*
X2587244Y2294890D02*
D03*
X2568448Y2272030D02*
D03*
X2548382Y2264156D02*
D03*
X2538730Y2259584D02*
D03*
X2594864Y2321306D02*
D03*
X2545080Y2237740D02*
D03*
X2557272Y2285492D02*
D03*
X2568448Y2262632D02*
D03*
X2574774Y2173962D02*
D03*
X2641346Y2199386D02*
D03*
X2635504Y2207006D02*
D03*
X2634488Y2216404D02*
D03*
X2649220Y2201418D02*
D03*
X2627376Y2206752D02*
D03*
X2627630Y2216150D02*
D03*
X2615184Y2253488D02*
D03*
X2607056Y2253996D02*
D03*
X2627630Y2248154D02*
D03*
X2550160Y2278634D02*
D03*
X2545842Y2224786D02*
D03*
X2554732Y2215896D02*
D03*
X2565146Y2215388D02*
D03*
X2556510Y2226564D02*
D03*
X2568194Y2225294D02*
D03*
X2581656Y2223770D02*
D03*
X2582164Y2214880D02*
D03*
X2593594D02*
D03*
X2605786Y2215388D02*
D03*
X2612898Y2220722D02*
D03*
X2723134Y2215388D02*
D03*
X2721102Y2233168D02*
D03*
X2704592Y2234692D02*
D03*
X2713736Y2234946D02*
D03*
X2617724Y2314956D02*
D03*
X2677922Y2333244D02*
D03*
X2646172Y2310384D02*
D03*
X2670810Y2333244D02*
D03*
X2684526Y2335530D02*
D03*
X2676906Y2341626D02*
D03*
X2663444Y2341880D02*
D03*
X2618486Y2345944D02*
D03*
X2626868Y2329434D02*
D03*
X2548128Y2304796D02*
D03*
X2554986Y2311654D02*
D03*
X2563622Y2320798D02*
D03*
X2635250Y2328926D02*
D03*
X2626614Y2340610D02*
D03*
X2617978Y2335784D02*
D03*
X2635758Y2314956D02*
D03*
X2709418Y2350008D02*
D03*
X2725928Y2296922D02*
D03*
X2698750Y2340864D02*
D03*
X2740660Y2326894D02*
D03*
X2718816Y2296922D02*
D03*
X2738374Y2315718D02*
D03*
X2722118D02*
D03*
X2551938Y2161540D02*
D03*
X2692654Y2391156D02*
D03*
X2613152Y2429256D02*
D03*
Y2414270D02*
D03*
X2718308Y2267966D02*
D03*
X2672842Y2418588D02*
D03*
X2724150Y2322322D02*
D03*
X2725166Y2330958D02*
D03*
X2733802Y2306066D02*
D03*
X2246630Y2234946D02*
D03*
X2266696Y2251964D02*
D03*
X2159000Y2151634D02*
D03*
X2166112Y2190242D02*
D03*
X2122424Y2040382D02*
D03*
X2128520Y2071624D02*
D03*
X2137664Y2073910D02*
D03*
X2098040Y2195068D02*
D03*
X2130552Y2197100D02*
D03*
X2240534Y2201418D02*
D03*
X2158492Y2169414D02*
D03*
Y2161032D02*
D03*
X2296160Y2416810D02*
D03*
X2290318Y2400808D02*
D03*
X2297430Y2384552D02*
D03*
Y2369566D02*
D03*
X2296922Y2352548D02*
D03*
X2286762Y2342642D02*
D03*
X2295652Y2330450D02*
D03*
X2297176Y2318004D02*
D03*
X2297430Y2303018D02*
D03*
X2297176Y2287778D02*
D03*
Y2269236D02*
D03*
X2297684Y2255774D02*
D03*
X2092198Y2348230D02*
D03*
X2093468Y2313178D02*
D03*
Y2268220D02*
D03*
X2093214Y2233168D02*
D03*
X2176780Y2046986D02*
D03*
X2187702D02*
D03*
X2199386Y2046478D02*
D03*
X2188210Y2060448D02*
D03*
X2199894Y2060702D02*
D03*
X2549144Y2046732D02*
D03*
X2568194Y2045716D02*
D03*
X2905506Y2065782D02*
D03*
X2906014Y2044700D02*
D03*
X2905760Y2054860D02*
D03*
X2882138Y2044446D02*
D03*
X2883408Y2077974D02*
D03*
X2297938Y2230628D02*
D03*
X2282444Y2229612D02*
D03*
X2278812Y2279396D02*
D03*
X2278050Y2380996D02*
D03*
X2263826Y2279396D02*
D03*
X2258619Y2306091D02*
D03*
Y2330196D02*
D03*
X2082038Y2051050D02*
D03*
X2259584Y1971040D02*
D03*
X2225802Y2350262D02*
D03*
X2222754Y2450338D02*
D03*
X2163064Y2402586D02*
D03*
X2159508Y2411222D02*
D03*
X2204466Y2433574D02*
D03*
X2260600Y2428748D02*
D03*
X2171192Y2369820D02*
D03*
X2138934Y2278888D02*
D03*
X2633980Y2199386D02*
D03*
X2661666Y2354326D02*
D03*
X2682240Y2443734D02*
D03*
X2631440Y2407412D02*
D03*
X2622296Y2358136D02*
D03*
X2614422Y2357882D02*
D03*
X2633726Y2350516D02*
D03*
X2527046Y2333498D02*
D03*
X2527554Y2324862D02*
D03*
X2513330Y2159508D02*
D03*
X2247392Y2162556D02*
D03*
X2268220Y2163826D02*
D03*
X2257806Y2165350D02*
D03*
X2244598Y2169414D02*
D03*
X2238502Y2161032D02*
D03*
X2234692Y2227072D02*
D03*
D74*
X2681701Y2276069D02*
D03*
Y2264070D02*
D03*
Y2252071D02*
D03*
X2669702Y2276069D02*
D03*
Y2264070D02*
D03*
Y2252071D02*
D03*
X2657704Y2276069D02*
D03*
Y2264070D02*
D03*
Y2252071D02*
D03*
D75*
X2892250Y2447956D02*
D03*
Y2435956D02*
D03*
X2899750Y2447956D02*
D03*
Y2435956D02*
D03*
M02*
