G04 Layer_Color=16711935*
%FSLAX44Y44*%
%MOMM*%
G71*
G01*
G75*
G04:AMPARAMS|DCode=102|XSize=1.2032mm|YSize=1.2032mm|CornerRadius=0.6016mm|HoleSize=0mm|Usage=FLASHONLY|Rotation=90.000|XOffset=0mm|YOffset=0mm|HoleType=Round|Shape=RoundedRectangle|*
%AMROUNDEDRECTD102*
21,1,1.2032,0.0000,0,0,90.0*
21,1,0.0000,1.2032,0,0,90.0*
1,1,1.2032,0.0000,0.0000*
1,1,1.2032,0.0000,0.0000*
1,1,1.2032,0.0000,0.0000*
1,1,1.2032,0.0000,0.0000*
%
%ADD102ROUNDEDRECTD102*%
G04:AMPARAMS|DCode=103|XSize=1.2032mm|YSize=1.2032mm|CornerRadius=0.6016mm|HoleSize=0mm|Usage=FLASHONLY|Rotation=0.000|XOffset=0mm|YOffset=0mm|HoleType=Round|Shape=RoundedRectangle|*
%AMROUNDEDRECTD103*
21,1,1.2032,0.0000,0,0,0.0*
21,1,0.0000,1.2032,0,0,0.0*
1,1,1.2032,0.0000,0.0000*
1,1,1.2032,0.0000,0.0000*
1,1,1.2032,0.0000,0.0000*
1,1,1.2032,0.0000,0.0000*
%
%ADD103ROUNDEDRECTD103*%
%ADD137C,1.8032*%
%ADD138C,0.7531*%
%ADD139C,0.2032*%
%ADD140C,0.8532*%
%ADD141R,0.6532X0.8032*%
D102*
X2299716Y2207006D02*
D03*
X2159714Y2323610D02*
D03*
D103*
X2305812Y2225548D02*
D03*
X2299462Y2188972D02*
D03*
X2297430Y2240026D02*
D03*
X2583688Y2168652D02*
D03*
X2526919Y2212213D02*
D03*
X2507488Y2202688D02*
D03*
X2283968Y2204466D02*
D03*
X2092452Y2184654D02*
D03*
X2503932Y2171700D02*
D03*
X2136648Y2252218D02*
D03*
X2148284Y2346470D02*
D03*
X2185622Y2224804D02*
D03*
D137*
X2273300Y2441702D02*
D03*
X2298700D02*
D03*
X2247900D02*
D03*
X2375154Y2300986D02*
D03*
Y2326386D02*
D03*
X2400808Y2374900D02*
D03*
X2375408D02*
D03*
X2145106Y2441702D02*
D03*
X2170506D02*
D03*
X2211070Y2388870D02*
D03*
Y2414270D02*
D03*
X2328672Y2441702D02*
D03*
X2354072D02*
D03*
X2605024Y2441448D02*
D03*
X2630424D02*
D03*
X2751074Y2385568D02*
D03*
Y2436368D02*
D03*
Y2410968D02*
D03*
X2114372Y2441702D02*
D03*
X2088972D02*
D03*
X2268728Y2266696D02*
D03*
Y2292096D02*
D03*
Y2317496D02*
D03*
Y2368296D02*
D03*
Y2342896D02*
D03*
D138*
X2001959Y2167641D02*
D03*
X2025459Y2195639D02*
D03*
D139*
X2833000Y2412000D02*
D03*
X2880000Y1970000D02*
D03*
X1930000Y2427500D02*
D03*
X2080000Y1975000D02*
D03*
D140*
X2681701Y2276069D02*
D03*
Y2264070D02*
D03*
Y2252071D02*
D03*
X2669702Y2276069D02*
D03*
Y2264070D02*
D03*
Y2252071D02*
D03*
X2657704Y2276069D02*
D03*
Y2264070D02*
D03*
Y2252071D02*
D03*
D141*
X2892250Y2447956D02*
D03*
Y2435956D02*
D03*
X2899750Y2447956D02*
D03*
Y2435956D02*
D03*
M02*
