M48
;Layer_Color=9474304
;FILE_FORMAT=4:4
METRIC,LZ
;TYPE=PLATED
T1F00S00C0.3000
T2F00S00C0.4001
T3F00S00C1.0000
;TYPE=NON_PLATED
T4F00S00C2.7000
%
T01
X020574Y01949958
X02057654Y01971548
X02101088Y01972056
X02117852Y01971802
Y01950466
X02142236Y01950212
X02141474Y01971802
X02168652
X02170176Y01951482
X02199386Y01951228
X02198624Y01972056
X02230628Y01972564
X02230374Y01949958
X02261616Y01949704
X02259584Y0197104
X02285746Y019685
X02287778Y01949196
X02318766Y01948434
X02318512Y019685
X02350262Y0197104
Y01951736
X02375662
Y0197104
X02090674Y01949958
X02401062Y01951736
Y0197104
X02426462
Y01951736
X02451862
Y0197104
X02477262
Y01951736
X02502662
Y0197104
X02528062
Y01951736
X02553462
Y0197104
X02579878Y01970786
Y01951482
X02605278
Y01970786
X02630678
Y01951482
X02656078
Y01970786
X02681478
Y01951482
X02706878
Y01970786
X02732278
Y01951482
X02757678
Y01970786
X02783078
Y01951482
X0280924
Y0197104
X02810002Y01993392
Y0201168
X02811018Y0202946
X0281178Y0204597
X02812034Y02060448
X0281178Y02072894
Y02090166
Y02110232
X02811272Y02131822
X02787396Y02126234
X02788158Y02107184
X0279019Y02090928
X0278765Y02070862
X02788158Y02052066
X02790698Y02031238
X02782316Y02013204
Y019939
X02826766Y02053844
X02840228
X02839974Y02066036
X02824988
X0285623
X02869692
X0288188
X02893314
X02893822Y02077466
X02883408Y02077974
X02904998Y02077466
X02905506Y02065782
X0290576Y0205486
X02906014Y020447
X02894584Y02044192
X02893822Y02053844
X02881884Y0205384
X02882138Y02044446
X028702Y02053844
X028575
X02812034Y0216154
Y02186178
X02811526Y02207006
X02792476Y0220853
X02791714Y0219456
Y02175256
X02792476Y02149094
X0279273Y02224532
X02811526Y02229866
X02811018Y02251456
X02811272Y02268982
X02812288Y02282952
X02803906Y02281936
X02796286Y02288286
X0278765Y02281682
X0278003Y02273046
X0279527Y0226822
X02795778Y0224663
X027813Y02252472
X02782062Y02296414
X02790698Y02307082
X02799588Y02302256
X02810764Y02303526
X02812034Y0231521
X02811526Y02327148
Y02339594
X02811272Y02352548
Y02370074
X02798572Y0236093
X02798318Y02347214
X02798064Y0233299
X02783332Y02332482
X02782824Y0231902
X0279781Y0231775
X02785872Y02350262
X02779522Y0236474
X0278384Y02375408
X02798572Y0237998
X02765806Y02378964
X02757424Y02368804
X02746756
X0273558Y0236855
X02741168Y02375662
X02728214Y0237617
X02716784
X02717292Y02365248
X02726944Y02362708
X02712466Y02357374
X02709418Y02350008
X02701544Y02354834
X02691638
Y02366518
X02691384Y02375662
X02703322Y02375916
X02702814Y02365756
X02678176Y0236728
X02678938Y02378456
X0266192Y02378202
Y02367026
X02661666Y02354326
X02663444Y0234188
X02655824Y02342134
X02676906Y02341626
X02677922Y02333244
X0267081
X02684526Y0233553
X02690368Y0234188
X0269875Y02340864
X0270383Y02335276
X0270891Y02327402
X02708402Y02315718
X02722118
X0272415Y02322322
X02725166Y02330958
Y02340864
X02740914Y02341372
X0274066Y02326894
X02738374Y02315718
X02733802Y02306066
X02725928Y02296922
X02718816
X02701544Y02306066
X02694686Y0231267
X0268732Y02320036
X02678176Y0235458
X02646426
X02645664Y02365756
Y0237236
X0262763Y02380488
X02622296Y02358136
X02614422Y02357882
X02608072Y02352548
X02601722Y02357628
X0259461Y0235204
X02581148Y0235331
X02569464
X02556002
X0254254
X02541524Y02342134
X02526284Y0234188
X02527046Y02333498
X02527554Y02324862
X0251841Y02322576
X02509266Y0232283
X02512822Y02333244
X02502916Y02339086
X02503424Y02351024
X02502662Y02363724
X02515362Y02361438
X025146Y02374138
X02527808Y0237109
X02535428Y02377948
X02548382
X02561082
X02556002Y0236728
X02543302Y02369566
X02571242Y02368296
X02581402
X02596642Y02371852
X0260985Y02368804
X02618486Y02345944
X02617978Y02335784
X02626614Y0234061
X02626868Y02329434
X0263525Y02328926
X02635758Y02314956
X0262636
X02617724
X02607818
X02594864Y02321306
X02585212Y02313432
X02588768Y02306066
X02577846Y02304796
X02569972Y0229743
X0256159Y0229235
X02557272Y02285492
X0256921Y0228473
X02568448Y0227203
Y02262632
X02562352Y02255774
X02556256Y02261362
X02548382Y02264156
X02541778Y02268728
X0253365Y0226822
X02533396Y02277618
X02533904Y02287016
X02533396Y0229997
X02540762Y02296668
X02548128Y02304796
X02554986Y02311654
X02563622Y02320798
X02529078Y02307082
X02508758Y02289048
X02509266Y0227965
X02496058Y02280412
X02482596
X0248158Y0227203
X02479802Y02263648
X02479548Y022479
X02478532Y022352
X02492756Y02237994
X02502916Y02238248
X02500376Y0222885
X024892Y0222758
X02467102Y02228596
X02451354
X0243713
X0242443Y02228342
X02411984Y02228088
X02400554Y02228342
X02400046Y0223647
X02408428Y0224155
X024135Y02248662
Y02257552
Y02266442
X02400554Y02268728
X02402586Y02261362
X02396744Y0225171
X02393442Y02274316
X02387092Y02280412
X02400808Y02283714
X02411984Y02282698
X02408174Y02290572
X02401316Y02298446
X0239014Y02295652
X02384552Y02312416
X02391918Y02319274
X02402078Y02311654
X02403348Y02332736
X02387854Y02333244
X02388108Y02343912
X02387854Y02365756
X02408936Y02361692
X02405888Y02350516
X02423414Y02349246
X02426716Y02363216
X02425954Y02375916
X02417064Y02372868
X0243713Y02356612
X0244856Y02352548
X02448814Y02337816
X02448052Y02326894
X02447798Y02314448
X02448052Y02294128
X02447798Y02282952
X02460244
X02471928Y0228473
X02472944Y0227457
X02467102Y02268728
X02462276Y02263648
X02456688Y02268728
X02451354Y02263394
X02445512Y02268728
X0244094Y02257552
Y02248662
X02441194Y02238756
X02430272Y02239264
X0241808Y0223901
X02425192Y02204212
X02412746Y02197862
X02401824Y02204466
X02392426Y02197608
X02383028Y0220472
X02382012Y0223012
X02398014Y02172462
X02399538Y02150872
X0242824
X02429002Y0217297
X02457958Y02172716
X02457196Y02151126
X02471166Y02130044
X02465324Y0211074
X0249047Y02110994
X02514854Y02111248
X02523744Y02101342
Y02094738
X0250952Y02091944
X02514346Y0207518
X02514854Y02061972
X02530348Y02062226
Y02075688
X02549652Y02076958
X02548128Y02061718
X02549144Y02046732
X02530602Y0204597
X02515362Y02046224
X02516632Y02029714
X025273Y02013204
Y019939
X025019
Y02013204
X024765
Y019939
X024511
Y02013204
X024257
Y019939
X024003
Y02013204
X02399538Y02035556
X02398014Y0205994
X02424938Y02060702
X0242443Y02040128
X02441702Y02029968
X02451608Y0204597
X02469642Y02052066
X02492756Y02050034
X02492502Y0207391
X0248666Y02090166
X02457704Y02089404
X02465324Y0207518
X0244602Y02067052
X02430018Y02089404
X02400046Y0208915
X02389124Y0211074
Y02130044
X02414524
Y0211074
X02439924
X02440432Y02130044
X02486406Y02144522
X02503932Y0214249
X02503678Y02126996
X02531618Y02125472
X0253238Y02106422
X02541524Y02092706
X0256794Y02092452
X02567178Y02076958
X0256794Y02061718
X02568194Y02045716
X02586482Y02049018
X02591308Y02029206
X02579116Y02013204
Y019939
X02604516
Y02013204
X02629916
Y019939
X02655316
Y02013204
X02680716
Y019939
X02706116
Y02013204
X02706878Y02033778
X02707386Y02060194
X02706878Y02083054
X0271018Y02106422
Y02125726
X0270764Y02140204
X02704338Y02152142
X0271272Y0216027
X02723896Y02164588
X0271907Y02173962
X02710434Y02175256
X02695956Y02174748
X02696972Y02185416
X0270256Y02194052
X02699766Y02205672
X02690876
X02680462Y02205228
X02671826Y02196592
X02672334Y02185162
X02657094Y02183638
X02662682Y02175002
X02679192Y02174494
X02672588Y02160524
X02655824Y02160778
X02659126Y0215011
X02669794Y0213868
X02688336Y02139696
X0268478Y02125726
Y02106422
X0265938
Y02125726
X0263398
Y02106422
X0260858
Y02125726
X02612136Y02146808
X02607564Y02160778
X02593594Y02161032
X02593848Y02175002
X02599944Y02182368
X02615692
X02609088Y02175002
X0262509
X0263144Y02182622
X02643632Y02184908
X0264414Y02174748
X0264033Y02160778
X02623312
X02629408Y02151126
X02643632Y02140966
X02683256Y02153158
X02694178Y02160016
X0268605Y02191766
X02711958Y02188972
X02709418Y02205482
X0271907Y02208022
X02715514Y02215833
X02723134Y02215388
X0273812Y02215134
X02751074Y02214626
X02757424Y02227072
X02750312Y02237232
X02740914Y02241042
X02738882Y02251456
X02750058Y02251202
X02749042Y02264664
X02739136
X02735072Y02270506
X0272796Y02270252
X02728214Y02277618
X02736342Y0227838
X02743454Y02282952
Y02291588
X02754122Y0229108
X02755138Y02281936
X02748534Y02275586
X0275844Y02270252
X02766568Y0227838
X02774696Y02286508
X02767838Y02296668
X02761488Y02306066
X02751328Y0230632
X0275082Y02298891
X02751582Y02314194
X02758186Y02321306
X02757424Y02328164
X0276352Y02335276
X02756662Y0234061
X02774442Y02339594
X0277241Y02328418
X02768854Y0231648
X02775458Y0230759
X02771648Y02264156
X02762758Y02255012
X02761996Y02241804
X02776474Y02236216
X027686Y02216912
X02768346Y02199386
X0276733Y02183892
X02753614Y02179574
X02738882Y0217551
Y0216281
X02739136Y0215011
X02738882Y0213741
X0273558Y02125726
Y02106422
X02734056Y02083562
X0273431Y02058924
X02735072Y02033778
X02731516Y02013204
Y019939
X02756916
Y02013204
X0276479Y02034032
X02763012Y02057908
Y02083816
X0276098Y02106422
Y02125726
X02765806Y02145284
X02767076Y0216281
X02748788Y02196846
X02738882Y0218821
X02726182Y0218313
Y02195322
X02734056Y0220472
X02740914Y02225802
X02721102Y02233168
X02713736Y02234946
X02704592Y02234692
X02695702Y02240724
X02709926Y02251456
X0271907Y02252218
X0272796Y02251964
X02718308Y02267966
X02712466Y0226568
X02675382Y02222754
X02670556Y02214118
X02662936Y02207768
X02657602Y02199132
X0264922Y02201418
X02641346Y02199386
X0263398
X02635504Y02207006
X02627376Y02206752
X0262763Y0221615
X02634488Y02216404
X02631948Y02229866
X02639314Y02233676
X0264541Y0223901
X02634742Y02251964
X0262763Y02248154
X026275Y0225824
X02622042Y0225298
X02615184Y02253488
X02607056Y02253996
X02596388Y02254504
X02591308Y02248916
X02581148Y02249932
X02581402Y02259838
Y02271014
X02592324Y02270252
Y02262124
X0259207Y02278634
X02588514Y02285492
X02581148Y02287778
X02587244Y0229489
X02605532Y02292287
X02611882Y0228981
X02620264Y0229235
X0262763
X02627884Y02281364
X02620518Y02281682
X02613406Y02279142
X02615438Y022733
X02646426Y02289048
X02646172Y02310384
X02633726Y02350516
X0252603Y02351786
X02515362Y02346706
X02488946Y02335022
X02475992
X02461006Y02334768
Y02324862
X02460752Y02300732
X02470404Y02307336
X02434082Y02280412
X02423668
X02450592Y02249424
X02466594Y02247138
X02494534Y02248154
X0250571Y02247646
X0251587Y02238248
Y0222885
X02539492Y02230628
X0253492Y02237232
X0253619Y0224663
X0253111Y02252472
X02525776Y02258314
X0253873Y02259584
X02542794Y02253488
X0254762Y02247138
X02554478Y02243328
X02559812Y02235962
X02568194Y02235454
Y02225294
X02565146Y02215388
X02554732Y02215896
X0255651Y02226564
X02545842Y02224786
X0254508Y0223774
X02568702Y02249424
X02581656Y02234438
Y0222377
X02582164Y0221488
X02593594
X02599436Y02220214
X02605786Y02215388
X02612898Y02220722
X0262128Y02229104
X02590546Y02224532
X02583434Y02182622
X02567432Y02182368
X0255651
X02546096
X02535428
Y02167128
X02522982Y0216662
X02517902Y02173478
Y02181606
X0251333Y02159508
X02515616Y02150364
X0253238Y02144776
X02560066Y02145792
X0255778Y02125726
Y02106422
X0258318
Y02125726
X02590038Y02145792
X02576322Y0215519
X02574774Y02173962
X02566416Y02165858
X02551938Y0216154
X0249428Y02159254
X0248666Y02172716
X02492756Y02198116
X02478278Y02205736
X0246634Y02198116
X02452878Y02205736
X0243967Y02197862
X02495804Y02263902
X02509012Y02264156
X025019Y02272284
X02556256
X0255016Y02278634
X02430272Y0233807
X0241427Y02338324
X02767076Y02350008
X02772918Y0235712
X02724912Y02147824
X02679192Y02083054
X02681478Y02059686
X02678176Y02036064
X0265811Y02049526
X02657602Y02072132
X02648204Y02089404
X02630424Y02072132
Y02052828
X02612136Y0204089
X02608072Y02068322
X0258572Y02074418
X02599436Y02090928
X02640838Y02031238
X02554224Y02029968
X025527Y02013204
Y019939
X02481072Y02030984
X0265049Y02192274
X02374646Y02197354
X02365248Y02205228
X02357628Y021971
X0234823Y02204974
X02325624Y02206244
X02329688Y02197862
X02315464Y02198116
X02309114Y02212086
X02297938Y02230628
X02282444Y02229612
X02277618Y02234692
X02281682Y02246884
X02266696Y02251964
X02263826Y02279396
X02278812
X02297176Y02287778
X0229743Y02303018
X02297176Y02318004
X02295652Y0233045
X0231521Y02331212
X02315972Y02342642
X02315718Y02355088
X02316226Y02367026
X02323338Y02374138
X02332482Y02365502
X02328926Y02355088
X02344674Y02356358
X02344166Y02371852
X0235839Y02373122
X02358644Y02358644
X02368296Y02359152
X02369312Y02342134
X02358644Y02343912
X02356104Y02331466
X02343912Y02339594
X02332736Y02326386
X02332228Y023114
Y0229743
Y02282952
X02322576Y02286508
X02314956Y02276856
X02315464Y02263902
X02323338Y02255012
X0233172Y022479
X02341118Y02254758
X02340102Y02238502
X02351786Y02238248
X02356104Y02229358
X0234696Y02229612
X02365756Y02229358
X02367534Y0223901
X02360676Y02243836
X02370074Y02257044
X02369566Y02266696
X02370582Y0227584
X02380234Y02275078
X02377948Y02286254
X02362454Y02284222
X0236093Y02273046
X0235077Y02269744
X02347214Y0228092
Y02294636
X02358644Y02295398
X02364486Y02314194
X02346198Y0231394
X02314702Y02313686
Y02299208
X0228219Y02311908
X02281936Y02319274
X02286762Y02342642
X02296922Y02352548
X0229743Y02369566
X0227805Y02380996
X02252472Y0237998
X02250694Y02364994
X02232152Y02371598
X02235454Y0237998
X0221996Y02371344
X02207514
X02194306Y02380234
X02171192Y0236982
X02169922Y02361184
X02167636Y0235331
X02175256Y0234696
X02175764Y0233807
X02167636Y02337308
Y02329688
X02175002Y0232918
X02173478Y02321052
X02167636Y02315718
Y02308098
X0217932Y02303272
X02184146Y02290826
X0219456Y02291842
X02194814Y0229997
X02194306Y02316734
X02212086Y02316226
X02211832Y02326386
X02210562Y02336292
X02221738Y02340356
X02215388Y02347976
X0220345Y02348484
X02188972Y02347976
X02182114Y02357628
X02157984Y02367788
X02160524Y02378964
X02144522Y02379472
X0212979Y02379726
X02122424Y0237109
Y02360168
X02126663Y0234647
X02132584Y0235204
X02131489Y0233504
X02133552Y02321578
X02133854Y0230632
Y02296414
X02140204Y0229997
X02147062Y02302002
X02140204Y02290572
X02131314Y02287016
X02133453Y02273959
X02138632Y02269508
X02138934Y02278888
X02155444Y0226822
X02164334
X02173224
X02170938Y02255012
X02160524Y02255266
X02149856Y0225552
X02146046Y02233422
X02136648Y02242058
X02128556Y02241959
X02122678Y0222758
X02112772Y02225802
X02114296Y02210308
X02123694Y02210562
X02137664Y02210054
X02146808Y02207514
X0215773Y0220345
X02171192Y02205736
X02181098Y02210308
X02193798Y0220345
X02199894Y02190242
X02184908Y02190496
X02183384Y02178304
X02206752
X0222123Y02185162
X0222377Y02197354
X02226818Y02204974
X02227834Y02214372
X0223393Y0220853
X02240534Y02201418
X0224917Y02199132
X02249678Y02213864
X02248916Y02224786
X0224663Y02234946
X02234692Y02227072
X02220722Y02231644
X0221234Y02238248
X02215388Y0225044
X02205482Y02247392
X02197354Y02242312
X021971Y02252472
X0219075Y02236216
X02182368Y02236724
X02175256Y02233422
X02204212Y02221992
X02212848Y021971
X0224282Y02188972
X02234946Y02178304
X02244598Y02169414
X02247392Y02162556
X02238502Y02161032
X02257806Y0216535
X0226822Y02163826
X02281936Y02161032
X02272194Y02148068
X0229489Y0215011
X02304034Y02162302
X02314702Y02172462
X0232791Y0217297
X023495Y02172716
X02349754Y02151888
Y02130044
X02363724
Y0211074
X02350008Y0211201
X02338578Y02114804
Y02107946
X02330704Y02101088
X02328672Y02123694
X02312924Y02130044
Y0211074
X02313178Y02086102
Y02060448
X02314702Y02034286
X02316226Y02011172
X02317242Y01988566
X02284476Y0198755
X02284222Y02010918
X02282952Y02038096
X02283206Y02062988
X02282952Y02084578
X02282444Y02109724
X02281428Y02130552
X02255012Y02126996
X022479Y02141728
X02225294Y02146808
X02203196Y02147316
X02182114Y0215011
X02184654Y02138934
Y02117344
X02176018Y02099818
X02177034Y0207645
X02187956Y02076704
X02199132
X02199894Y02060702
X0218821Y02060448
X02176526
X0217678Y02046986
X02187702
X02199386Y02046478
Y0202311
X02176526Y02022856
X02158238Y02028698
X02150872Y02037588
X02134616Y02037334
X02122424Y02040382
X02121662Y02027428
X02116582Y02015998
X02096516Y02015744
Y01997456
X02075942Y01997964
X0207645Y02015744
X020574Y02015998
Y01998218
X02066798Y0202692
X02057146Y02036318
Y0206883
X0206756Y02071116
X0206629Y0208661
X02083308Y02088388
X02101342Y02088134
X02118106Y02088388
X02112264Y02076196
X02099056Y02069084
X0212852Y02071624
X02137664Y0207391
X0213106Y0208153
X02131822Y0209677
X02128266Y021082
X02115058Y02107184
X02099056Y02114296
X02084832
X0206883Y02112264
X02057146Y021209
X020574Y02138172
Y0215011
X02071116Y02149602
X02070608Y02137156
X02085086Y02144268
X02070608Y02167382
X02057654Y02168398
X020574Y02182368
X02058162Y02193544
X02070862Y0219329
X02080514Y02195068
X0208Y02206
X0209
Y0222
X0208
X02069084Y02221992
X02057654Y02214626
X02057908Y02249678
Y02282952
Y02327148
Y02363724
X0208Y02361
X0209
Y02375
X0208
X021082Y0236855
X02107438Y02355596
X02092198Y0234823
X02093468Y02313178
X02125459Y02312231
X02125429Y0230473
X02122424Y02264918
X0212217Y02259076
X02093468Y0226822
X02093214Y02233168
X02100326Y0221996
X02106422Y0220218
X0209804Y02195068
X0212598Y02189734
X02130552Y021971
X02145792Y02190496
X02144522Y02178558
X0212598Y0217678
X02120138Y02163064
X0211328Y02156968
X02123694Y02146554
X02130298Y02153158
X02131822Y02138426
X0212598Y02126742
X02141982Y02120138
X02144522Y02108962
X02157222Y02121916
X02156968Y02141474
X02159Y02151634
X02158492Y02161032
Y02169414
X02175764Y02158238
X02166112Y02190242
X02146046Y021336
X02164588Y02084578
X0216408Y02062988
X02163572Y02041906
X02157984Y02010664
X02137918Y02014982
X02139696Y01996186
X0211709Y01995678
X0210312Y02027936
X02082038Y0205105
X02122424Y0205994
X02057146Y02099564
X0206756Y02180082
X02025459Y02195639
X02001959Y02167641
X02206244Y0212344
X02226056Y02124202
X0222504Y0210312
X0222377Y02082546
X02225294Y02064512
X02226056Y02040636
Y02021332
X02230374Y01996948
X02259584Y01995678
X0225806Y02023872
X02257298Y02056384
X02257806Y0207899
X0225552Y02103628
X02203958Y02099818
X02197862Y01995932
X02169668Y01994662
X023495Y019939
Y02013204
X023749
Y019939
X02371344Y0203708
X0236982Y02059432
X02343404Y02060194
X02344674Y02037588
X02343404Y0208788
X02370074Y02089404
X02373122Y02150364
X02371852Y02172716
X02374646Y02233168
X02380742Y02246884
X0233299Y02266442
X02297176Y02269236
X02297684Y02255774
X02303272Y02248662
X02310638Y02240534
X0231775Y02234692
X02323338Y0222885
X0229489Y02180336
X02280158Y02188718
X02271522Y02182114
X02271268Y02197608
X0223012Y02243582
X0222758Y02253996
X0221869Y02262378
X0221742Y02292096
X02229612Y02289556
X022479Y02293874
X02248154Y02271522
X02258619Y02306091
X022479Y0231775
X02258619Y02330196
X02248408Y0234061
X022352Y02355088
X02225802Y02350262
X02229358Y0233172
X02221992Y02322576
X02229104Y02312924
X0221107Y02304034
X02140712Y02367788
X02314956Y02152142
X02329688Y02149856
X02330958Y02383282
X02343658Y0238379
X02343404Y02395982
Y02408174
X0233172Y02409952
X02325878Y02399284
X0231521Y02394204
Y02405634
X0231648Y02421128
X02325878Y02425446
X02359914Y02427986
X02371852Y02431542
X02365756Y0241681
X0237363Y0240792
X02358644Y02400554
X02358898Y02385822
X02367026Y02391156
X02315464Y0238125
X0229743Y02384552
X02290318Y02400808
X02286254Y02409952
X02286762Y02422144
X0229616Y0241681
X02286Y02454148
X02261108Y02453894
X022606Y02428748
X02227072Y02430526
X02224786Y02419096
X0222504Y02401824
X02224786Y02385314
X0218567Y0239014
X0217932Y02398268
X02178558Y0240919
X02178812Y02424176
X02194306Y02420874
X021971Y02402078
X02163064Y02402586
X02159508Y02411222
X0215171Y02410892
X02143506Y02404364
X02137664Y0239268
X02153158
X02121408Y02394204
X0212471Y0240665
X02120468Y02420036
X02131136Y02419782
X02141042Y02420036
X02130044Y02438908
X0212979Y0245364
X02157476Y02454148
X02183384Y0245364
X0218694Y02438146
X02196592Y02446528
X02208784Y02453386
X02212594Y02442972
X02222754Y02450338
X022352Y02454148
X02204466Y02433574
X02106168Y0240919
X0209423Y02410968
X02097786Y02396236
X02108454Y0238506
X02069084Y02382774
X02057654Y02402078
X020574Y02428748
X02076526Y02428164
X0208313Y02421052
X02076018Y02413432
X02076196Y02453132
X020574Y02452878
X0210185Y02454402
X02313178Y02453132
X02341626Y02452878
X02364994Y02452624
X02393442Y02453132
X02414016Y02453386
X02422398Y02435606
X02401062Y02434844
X02382266Y02435606
X0238379Y02414778
X02385822Y02402332
X02387854Y02385822
X02420366Y02392172
X02428748Y0238506
X0243967Y02388108
X02447798Y02395728
X02463546Y02395982
X02469388Y0241173
X0245491Y02411476
X024384Y0241173
X02434336Y02401316
X02414524Y02406396
X02410206Y02417572
X02445258Y0243459
X02465578Y02435606
X02483612Y02435098
X02494788Y02432812
X02498344Y02415286
X02512822Y0241173
Y02422652
X0251333Y02435606
X02504694Y02444496
X02513838Y02453386
X0252603Y0245364
X02539492Y02453894
X02553716
X02566162Y0245364
X02582418Y02453386
X0259461Y02453132
X02616708Y02452624
X02640838Y02453894
X02654554Y02454148
X02670556
X02664206Y02443988
X02661412Y02429002
X02672334Y0243205
X02685288Y02431542
X02694686Y02435098
X0270383Y02444496
X02701036Y02454402
X0268732
X0268224Y02443734
X02685034Y02418842
X02672842Y02418588
X02672588Y0240538
X02660904Y02406904
Y02415286
X02639568Y02407412
X0263144
X02630678Y02427986
X02640558Y02428748
X02649982Y02436368
X02646426Y02398776
X02645918Y02387346
X02653538Y02388616
X02667508Y02389886
X02684526Y0238379
Y02396236
Y0240665
X02698496Y02398776
X02692654Y02391156
X02706116
X0271653Y02390902
X02719832Y02408682
X02711196
X02738374Y02402586
X02737866Y02419096
X02737358Y02435352
X02727452Y02435098
X02728214Y02445258
X02731262Y02453894
X02715514
X02747772
X02763774
X02769108Y02442972
X02770124Y02432812
X0276606Y02415286
Y02398268
X02755138Y02398522
X02754376Y02424176
X02613152Y02429256
Y0241427
X02610104Y02404618
X0260985Y0239395
X02596642Y02398776
X02596896Y02407412
X02595626Y02418842
X02593086Y02427986
X02583688Y02427732
X02586228Y024384
X02582926Y02407666
Y0239268
X0259664Y02388362
X02574544Y02414778
X02561336Y02418842
X02548382Y02418588
X02541524Y02412492
X02535682Y02418842
X02523236Y02414778
X02505202Y02395474
X02501392Y02382266
X02513838Y02383282
X0248666Y02395982
X02481834Y02408682
X02470912Y02452878
X02450084Y02452624
X02492756Y02453386
X02778252Y02453894
X02791968
X02805938
X02820162
X02835656
X02851404
X0286893
X02885186
X02907284Y02452116
Y02441956
Y02431034
X02878074Y02431796
X02866644
X02852674
X02838704
X0282321
X02811018Y02431288
X0281178Y02421128
Y0240792
X0280162Y02404872
X02797556Y02394458
X02783586Y02399284
X0278384Y02388362
X0278511Y02409698
X02795016Y02413508
X02794762Y02422652
X02802636Y02426462
X02790952Y0243713
X0278257Y02432304
X02780284Y02441702
X02812542Y02389632
T02
X02657704Y02252071
X02669702
X02681701
Y0226407
Y02276069
X02669702
Y0226407
X02657704
Y02276069
T03
X02400808Y023749
X02375408
X02375154Y02326386
Y02300986
X02268728Y02292096
Y02266696
Y02317496
Y02342896
Y02368296
X022733Y02441702
X022987
X02328672
X02354072
X022479
X0221107Y0241427
Y0238887
X02170506Y02441702
X02145106
X02114372
X02088972
X02605024Y02441448
X02630424
X02751074Y02436368
Y02410968
Y02385568
T04
X0208Y01975
X0288Y0197
X0193Y024275
X02833Y02412
M30
