G04 Layer_Color=32768*
%FSLAX25Y25*%
%MOIN*%
G70*
G01*
G75*
%ADD32C,0.01000*%
%ADD62C,0.00394*%
%ADD64C,0.00300*%
D32*
X-995Y-3771D02*
Y121918D01*
Y-3771D02*
X147871D01*
Y121918D01*
X-995D02*
X147871D01*
D62*
X132048Y79720D02*
G03*
X133131Y78638I1083J0D01*
G01*
X132048Y79720D02*
G03*
X133131Y78638I1083J0D01*
G01*
Y80803D02*
G03*
X132048Y79720I0J-1083D01*
G01*
X133131Y80803D02*
G03*
X132048Y79720I0J-1083D01*
G01*
X141005Y78636D02*
G03*
X142481Y80112I0J1476D01*
G01*
X141005Y78636D02*
G03*
X142481Y80112I0J1476D01*
G01*
Y96845D02*
G03*
X141005Y98321I-1476J0D01*
G01*
X142481Y96845D02*
G03*
X141005Y98321I-1476J0D01*
G01*
X132048Y97240D02*
G03*
X133131Y96157I1083J0D01*
G01*
X132048Y97240D02*
G03*
X133131Y96157I1083J0D01*
G01*
X133131Y98323D02*
G03*
X132048Y97240I0J-1083D01*
G01*
X133131Y98323D02*
G03*
X132048Y97240I0J-1083D01*
G01*
X125257Y78638D02*
G03*
X126340Y79720I0J1083D01*
G01*
X125257Y78638D02*
G03*
X126340Y79720I0J1083D01*
G01*
D02*
G03*
X125257Y80803I-1083J0D01*
G01*
X126340Y79720D02*
G03*
X125257Y80803I-1083J0D01*
G01*
X115907Y80112D02*
G03*
X117383Y78636I1476J0D01*
G01*
X115907Y80112D02*
G03*
X117383Y78636I1476J0D01*
G01*
X126182Y97230D02*
G03*
X125230Y98320I-1021J70D01*
G01*
X125240Y96154D02*
G03*
X126183Y97185I-44J987D01*
G01*
X117383Y98321D02*
G03*
X115907Y96809I18J-1494D01*
G01*
X117383Y98321D02*
G03*
X115907Y96809I18J-1494D01*
G01*
X126182Y97230D02*
G03*
X125230Y98320I-1021J70D01*
G01*
X125240Y96154D02*
G03*
X126183Y97185I-44J987D01*
G01*
X133131Y78636D02*
X141005D01*
X133131D02*
X141005D01*
X133131Y80803D02*
X140316D01*
X133131D02*
X140316D01*
Y96157D01*
Y80803D02*
Y96157D01*
X142481Y80112D02*
Y96845D01*
Y80112D02*
Y96845D01*
X133131Y98321D02*
X141005D01*
X133131D02*
X141005D01*
X133131Y96157D02*
X140316D01*
X133131D02*
X140316D01*
X117383Y78636D02*
X125257D01*
X117383D02*
X125257D01*
X118072Y80803D02*
X125257D01*
X118072D02*
X125257D01*
X115907Y80112D02*
Y96845D01*
Y80112D02*
Y96845D01*
X118072Y80803D02*
Y96157D01*
Y80803D02*
Y96157D01*
X125257D01*
X118072D02*
X125257D01*
X117383Y98321D02*
X125257D01*
X117383D02*
X125257D01*
D64*
X91778Y104723D02*
Y107222D01*
X92611Y106389D01*
X93444Y107222D01*
Y104723D01*
X94277D02*
X95110D01*
X94694D01*
Y106389D01*
X94277D01*
X96360Y104723D02*
X97193D01*
X96776D01*
Y107222D01*
X96360D01*
X98443Y104723D02*
X99276D01*
X98859D01*
Y107222D01*
X98443D01*
X100525Y104723D02*
X101358D01*
X100942D01*
Y106389D01*
X100525D01*
X102608Y104723D02*
Y106389D01*
X103857D01*
X104274Y105973D01*
Y104723D01*
X105940Y103890D02*
X106357D01*
X106773Y104306D01*
Y106389D01*
X105524D01*
X105107Y105973D01*
Y105140D01*
X105524Y104723D01*
X106773D01*
X110105Y106806D02*
X110522Y107222D01*
X111355D01*
X111772Y106806D01*
Y105140D01*
X111355Y104723D01*
X110522D01*
X110105Y105140D01*
Y106806D01*
X112605Y104723D02*
Y105140D01*
X113021D01*
Y104723D01*
X112605D01*
X116353Y107222D02*
X114687D01*
Y105973D01*
X115520Y106389D01*
X115937D01*
X116353Y105973D01*
Y105140D01*
X115937Y104723D01*
X115104D01*
X114687Y105140D01*
X118853Y107222D02*
X117186D01*
Y105973D01*
X118019Y106389D01*
X118436D01*
X118853Y105973D01*
Y105140D01*
X118436Y104723D01*
X117603D01*
X117186Y105140D01*
X122185Y104723D02*
Y106389D01*
X122601D01*
X123018Y105973D01*
Y104723D01*
Y105973D01*
X123434Y106389D01*
X123851Y105973D01*
Y104723D01*
X124684D02*
Y106389D01*
X125101D01*
X125517Y105973D01*
Y104723D01*
Y105973D01*
X125934Y106389D01*
X126350Y105973D01*
Y104723D01*
X130516D02*
X129682Y105556D01*
Y106389D01*
X130516Y107222D01*
X133431Y104723D02*
X131765D01*
X133431Y106389D01*
Y106806D01*
X133015Y107222D01*
X132182D01*
X131765Y106806D01*
X136763Y103890D02*
Y106389D01*
X138013D01*
X138430Y105973D01*
Y105140D01*
X138013Y104723D01*
X136763D01*
X140929Y106389D02*
X139679D01*
X139263Y105973D01*
Y105140D01*
X139679Y104723D01*
X140929D01*
X141762D02*
X143011D01*
X143428Y105140D01*
X143011Y105556D01*
X142178D01*
X141762Y105973D01*
X142178Y106389D01*
X143428D01*
X144261Y104723D02*
X145094Y105556D01*
Y106389D01*
X144261Y107222D01*
M02*
