G04 Layer_Physical_Order=2*
G04 Layer_Color=16711680*
%FSLAX25Y25*%
%MOIN*%
G70*
G01*
G75*
%ADD32C,0.01000*%
%ADD33C,0.00600*%
%ADD34C,0.00400*%
%ADD35C,0.01200*%
%ADD37C,0.01402*%
%ADD38C,0.02000*%
%ADD40C,0.00492*%
%ADD42C,0.00500*%
%ADD54C,0.06299*%
%ADD55C,0.05906*%
%ADD56C,0.01969*%
%ADD57R,0.12598X0.16535*%
%ADD58C,0.03937*%
%ADD59R,0.01500X0.03581*%
G36*
X146868Y-2764D02*
X1Y-2764D01*
Y99366D01*
X86862D01*
X86862Y102648D01*
X146868D01*
Y-2764D01*
D02*
G37*
%LPC*%
G36*
X14203Y46106D02*
X7904D01*
Y37838D01*
X14203D01*
Y46106D01*
D02*
G37*
G36*
X6904D02*
X605D01*
Y37838D01*
X6904D01*
Y46106D01*
D02*
G37*
G36*
X112692Y41929D02*
X112152Y41822D01*
X111694Y41516D01*
X111388Y41058D01*
X111281Y40518D01*
X111362Y40112D01*
X111120Y39776D01*
X110988Y39676D01*
X110931Y39687D01*
X110391Y39580D01*
X109933Y39274D01*
X109627Y38816D01*
X109520Y38276D01*
X109627Y37736D01*
X109933Y37278D01*
X110104Y37164D01*
Y29199D01*
X110159Y28926D01*
X110313Y28694D01*
X111606Y27402D01*
X111360Y26941D01*
X111266Y26959D01*
X110726Y26852D01*
X110268Y26546D01*
X109962Y26088D01*
X109855Y25548D01*
X109962Y25008D01*
X110268Y24550D01*
X110726Y24244D01*
X111266Y24137D01*
X111623Y24208D01*
X111777Y24105D01*
X112050Y24050D01*
X121301D01*
X127256Y18095D01*
X127488Y17941D01*
X127761Y17886D01*
X130436D01*
X130709Y17941D01*
X130941Y18095D01*
X136058Y23212D01*
X137328D01*
X137541Y22894D01*
X137999Y22588D01*
X138539Y22481D01*
X139079Y22588D01*
X139537Y22894D01*
X139843Y23352D01*
X139950Y23892D01*
X139843Y24432D01*
X139537Y24890D01*
X139079Y25196D01*
X138539Y25303D01*
X137999Y25196D01*
X137541Y24890D01*
X137374Y24640D01*
X135762D01*
X135489Y24585D01*
X135384Y24515D01*
X134884Y24703D01*
Y28197D01*
X135150Y28375D01*
X135456Y28833D01*
X135563Y29373D01*
X135456Y29913D01*
X135150Y30371D01*
X134692Y30677D01*
X134152Y30784D01*
X133612Y30677D01*
X133154Y30371D01*
X132848Y29913D01*
X132741Y29373D01*
X132848Y28833D01*
X133154Y28375D01*
X133456Y28173D01*
Y24044D01*
X131091Y21679D01*
X129461D01*
X129157Y21882D01*
X128617Y21989D01*
X128077Y21882D01*
X127619Y21576D01*
X127313Y21118D01*
X127254Y20823D01*
X126720Y20650D01*
X122694Y24676D01*
X122885Y25138D01*
X128186D01*
X128223Y24950D01*
X128529Y24492D01*
X128987Y24186D01*
X129527Y24079D01*
X130067Y24186D01*
X130525Y24492D01*
X130831Y24950D01*
X130938Y25490D01*
X130831Y26030D01*
X130525Y26488D01*
X130512Y26496D01*
X130494Y27110D01*
X130715Y27441D01*
X130822Y27981D01*
X130715Y28521D01*
X130409Y28979D01*
X129951Y29285D01*
X129411Y29392D01*
X128871Y29285D01*
X128413Y28979D01*
X128107Y28521D01*
X128000Y27981D01*
X127572Y27566D01*
X114875D01*
X112532Y29909D01*
Y35974D01*
X113120Y36563D01*
X113275Y36794D01*
X113329Y37067D01*
Y39279D01*
X113690Y39520D01*
X113996Y39978D01*
X114103Y40518D01*
X113996Y41058D01*
X113690Y41516D01*
X113232Y41822D01*
X112692Y41929D01*
D02*
G37*
G36*
X6904Y55374D02*
X605D01*
Y47106D01*
X6904D01*
Y55374D01*
D02*
G37*
G36*
X41227Y62128D02*
X40687Y62021D01*
X40229Y61715D01*
X39923Y61257D01*
X39816Y60717D01*
X39923Y60177D01*
X40229Y59719D01*
X40687Y59413D01*
X41227Y59306D01*
X41464Y59353D01*
X43509Y57307D01*
X43874Y57064D01*
X44303Y56979D01*
X54313D01*
Y47104D01*
X54250Y47010D01*
X54143Y46470D01*
X54250Y45930D01*
X54556Y45472D01*
X55014Y45166D01*
X55554Y45059D01*
X56094Y45166D01*
X56366Y45348D01*
X58526D01*
X60268Y43606D01*
X60347Y43207D01*
X60653Y42749D01*
X61111Y42443D01*
X61651Y42336D01*
X62191Y42443D01*
X62649Y42749D01*
X62955Y43207D01*
X63062Y43747D01*
X62955Y44287D01*
X62649Y44745D01*
X62191Y45051D01*
X61949Y45099D01*
X59785Y47264D01*
X59421Y47507D01*
X58991Y47592D01*
X56557D01*
Y57289D01*
X56739Y57561D01*
X56846Y58101D01*
X56739Y58641D01*
X56433Y59099D01*
X55975Y59405D01*
X55435Y59512D01*
X54895Y59405D01*
X54623Y59223D01*
X44768D01*
X42481Y61511D01*
X42265Y61654D01*
X42225Y61715D01*
X41767Y62021D01*
X41227Y62128D01*
D02*
G37*
G36*
X122878Y8700D02*
X122003Y8584D01*
X121187Y8247D01*
X120487Y7709D01*
X119949Y7009D01*
X119612Y6193D01*
X119496Y5318D01*
X119612Y4443D01*
X119949Y3627D01*
X120487Y2927D01*
X121187Y2389D01*
X122003Y2052D01*
X122878Y1936D01*
X123753Y2052D01*
X124569Y2389D01*
X125269Y2927D01*
X125807Y3627D01*
X126145Y4443D01*
X126260Y5318D01*
X126145Y6193D01*
X125807Y7009D01*
X125269Y7709D01*
X124569Y8247D01*
X123753Y8584D01*
X122878Y8700D01*
D02*
G37*
G36*
X111783D02*
X110908Y8584D01*
X110092Y8247D01*
X109392Y7709D01*
X108854Y7009D01*
X108517Y6193D01*
X108401Y5318D01*
X108517Y4443D01*
X108854Y3627D01*
X109392Y2927D01*
X110092Y2389D01*
X110908Y2052D01*
X111783Y1936D01*
X112658Y2052D01*
X113474Y2389D01*
X114174Y2927D01*
X114712Y3627D01*
X115050Y4443D01*
X115165Y5318D01*
X115050Y6193D01*
X114712Y7009D01*
X114174Y7709D01*
X113474Y8247D01*
X112658Y8584D01*
X111783Y8700D01*
D02*
G37*
G36*
X133553D02*
X132678Y8584D01*
X131862Y8247D01*
X131162Y7709D01*
X130624Y7009D01*
X130287Y6193D01*
X130171Y5318D01*
X130287Y4443D01*
X130624Y3627D01*
X131162Y2927D01*
X131862Y2389D01*
X132678Y2052D01*
X133553Y1936D01*
X134428Y2052D01*
X135244Y2389D01*
X135944Y2927D01*
X136482Y3627D01*
X136820Y4443D01*
X136935Y5318D01*
X136820Y6193D01*
X136482Y7009D01*
X135944Y7709D01*
X135244Y8247D01*
X134428Y8584D01*
X133553Y8700D01*
D02*
G37*
G36*
X45968Y56188D02*
X45422Y56080D01*
X44959Y55770D01*
X44649Y55307D01*
X44541Y54761D01*
Y38554D01*
X44541Y38554D01*
X44649Y38008D01*
X44959Y37545D01*
X53214Y29290D01*
X53214Y29290D01*
X53677Y28980D01*
X54223Y28872D01*
X55491D01*
X56037Y28980D01*
X56500Y29290D01*
X56810Y29753D01*
X56918Y30299D01*
X56810Y30845D01*
X56500Y31308D01*
X56037Y31618D01*
X55491Y31726D01*
X54814D01*
X47395Y39145D01*
Y54741D01*
X47399Y54761D01*
X47292Y55301D01*
X46986Y55759D01*
X46984Y55760D01*
X46977Y55770D01*
X46514Y56080D01*
X45968Y56188D01*
D02*
G37*
G36*
X105313Y21476D02*
X104773Y21369D01*
X104315Y21063D01*
X104009Y20605D01*
X103902Y20065D01*
X104009Y19525D01*
X104315Y19067D01*
X104650Y18843D01*
Y16379D01*
X104701Y16125D01*
X104844Y15910D01*
X106184Y14571D01*
X106112Y14210D01*
X106177Y13880D01*
X105896Y13440D01*
X105812Y13380D01*
X104629D01*
X104468Y13621D01*
X104010Y13927D01*
X103470Y14034D01*
X102930Y13927D01*
X102472Y13621D01*
X102166Y13163D01*
X102059Y12623D01*
X102166Y12083D01*
X102472Y11625D01*
X102930Y11319D01*
X103470Y11212D01*
X104010Y11319D01*
X104468Y11625D01*
X104755Y12054D01*
X106533D01*
X106787Y12105D01*
X107002Y12248D01*
X107559Y12806D01*
X108063Y12906D01*
X108521Y13212D01*
X108827Y13670D01*
X108934Y14210D01*
X108827Y14750D01*
X108521Y15208D01*
X108063Y15514D01*
X107523Y15621D01*
X107093Y15536D01*
X105976Y16654D01*
Y18843D01*
X106311Y19067D01*
X106617Y19525D01*
X106724Y20065D01*
X106617Y20605D01*
X106311Y21063D01*
X105853Y21369D01*
X105313Y21476D01*
D02*
G37*
G36*
X14203Y55374D02*
X7904D01*
Y47106D01*
X14203D01*
Y55374D01*
D02*
G37*
G36*
X103535Y101183D02*
X102995Y101076D01*
X102537Y100770D01*
X102231Y100312D01*
X102124Y99772D01*
X102231Y99232D01*
X102537Y98774D01*
X102713Y98657D01*
Y90942D01*
X99116Y87345D01*
X98926Y86885D01*
Y79943D01*
X98520Y79538D01*
X87872D01*
X87413Y79347D01*
X85157Y77091D01*
X84695Y77283D01*
Y85647D01*
X84617Y86037D01*
X84396Y86368D01*
X83742Y87022D01*
X83673Y87369D01*
X83367Y87827D01*
X82909Y88133D01*
X82369Y88240D01*
X81829Y88133D01*
X81371Y87827D01*
X81065Y87369D01*
X80958Y86829D01*
X81065Y86289D01*
X81371Y85831D01*
X81829Y85525D01*
X82369Y85418D01*
X82656Y85017D01*
Y80626D01*
X82156Y80419D01*
X79402Y83173D01*
X79188Y83316D01*
X78936Y83366D01*
X78936Y83366D01*
X75863D01*
X75652Y83681D01*
X75194Y83987D01*
X74654Y84094D01*
X74114Y83987D01*
X73656Y83681D01*
X73350Y83223D01*
X73243Y82683D01*
X73350Y82143D01*
X73656Y81685D01*
X74114Y81379D01*
X74654Y81272D01*
X75194Y81379D01*
X75652Y81685D01*
X75895Y82048D01*
X78663D01*
X81287Y79424D01*
Y37769D01*
X76972Y33453D01*
X76555Y33536D01*
X76015Y33429D01*
X75557Y33123D01*
X75311Y32754D01*
X74766Y32592D01*
X74168Y33189D01*
Y62547D01*
X73978Y63006D01*
X73467Y63517D01*
X73553Y63952D01*
X73446Y64492D01*
X73140Y64950D01*
X72682Y65256D01*
X72142Y65363D01*
X71602Y65256D01*
X71144Y64950D01*
X70838Y64492D01*
X70731Y63952D01*
X70365Y63643D01*
X69947Y63560D01*
X69489Y63254D01*
X69183Y62796D01*
X69076Y62256D01*
X69183Y61716D01*
X69489Y61258D01*
X69947Y60952D01*
X70487Y60845D01*
X70783Y60904D01*
X72070Y59617D01*
Y32589D01*
X72260Y32130D01*
X75245Y29145D01*
X75704Y28955D01*
X77266D01*
X77537Y28625D01*
X77644Y28085D01*
X77950Y27627D01*
X78408Y27321D01*
X78948Y27214D01*
X79488Y27321D01*
X79946Y27627D01*
X80192Y27995D01*
X80737Y28157D01*
X81359Y27536D01*
X81818Y27346D01*
X82556D01*
X82814Y26960D01*
X83272Y26654D01*
X83812Y26547D01*
X84352Y26654D01*
X84810Y26960D01*
X85116Y27418D01*
X85223Y27958D01*
X85116Y28498D01*
X84810Y28956D01*
X84352Y29262D01*
X83812Y29369D01*
X83272Y29262D01*
X82814Y28956D01*
X82606Y28644D01*
X82087D01*
X80992Y29740D01*
X80992Y29740D01*
X79869Y30863D01*
X79409Y31053D01*
X78105D01*
X77838Y31553D01*
X77859Y31585D01*
X77966Y32125D01*
X77890Y32509D01*
X82412Y37030D01*
X82412Y37030D01*
X82555Y37244D01*
X82605Y37496D01*
Y44158D01*
X83105Y44425D01*
X83183Y44373D01*
X83723Y44266D01*
X84263Y44373D01*
X84721Y44679D01*
X85027Y45137D01*
X85134Y45677D01*
X85027Y46217D01*
X84721Y46675D01*
X84695Y46692D01*
Y47752D01*
X84968Y47888D01*
X85195Y47944D01*
X85604Y47671D01*
X86144Y47564D01*
X86509Y47636D01*
X86826Y47210D01*
X86719Y47050D01*
X86612Y46510D01*
X86719Y45970D01*
X87025Y45512D01*
X87483Y45206D01*
X87770Y45149D01*
X87888Y44626D01*
X87582Y44168D01*
X87475Y43628D01*
X87582Y43088D01*
X87888Y42630D01*
X88346Y42324D01*
X88886Y42217D01*
X89426Y42324D01*
X89884Y42630D01*
X90190Y43088D01*
X90289Y43586D01*
X90431Y43664D01*
X90674Y43729D01*
X90782Y43753D01*
X91234Y43451D01*
X91513Y43396D01*
Y27888D01*
X91518Y27863D01*
X91517Y27857D01*
Y25386D01*
X89483Y23351D01*
X89096Y23428D01*
X88556Y23321D01*
X88098Y23015D01*
X87792Y22557D01*
X87685Y22017D01*
X87792Y21477D01*
X88098Y21019D01*
X88556Y20713D01*
X89096Y20606D01*
X89636Y20713D01*
X90094Y21019D01*
X90253Y21258D01*
X90311Y21296D01*
X92649Y23634D01*
X93111Y23442D01*
Y12555D01*
X92816Y12358D01*
X92510Y11900D01*
X92403Y11360D01*
X92510Y10820D01*
X92816Y10362D01*
X93274Y10056D01*
X93814Y9949D01*
X94354Y10056D01*
X94812Y10362D01*
X95118Y10820D01*
X95225Y11360D01*
X95118Y11900D01*
X95015Y12055D01*
X95315Y12505D01*
X95532Y12462D01*
X96072Y12569D01*
X96530Y12875D01*
X96836Y13333D01*
X96943Y13873D01*
X96836Y14413D01*
X96530Y14871D01*
X96072Y15177D01*
X95532Y15284D01*
X95209Y15549D01*
Y23450D01*
X95671Y23641D01*
X99047Y20266D01*
X99506Y20076D01*
X100372D01*
X100627Y19694D01*
X101085Y19388D01*
X101625Y19281D01*
X102165Y19388D01*
X102623Y19694D01*
X102929Y20152D01*
X103036Y20692D01*
X102929Y21232D01*
X102623Y21690D01*
X102165Y21996D01*
X101625Y22103D01*
X101085Y21996D01*
X100627Y21690D01*
X100416Y21374D01*
X99775D01*
X96009Y25140D01*
Y48412D01*
X96756Y49159D01*
X96909Y49057D01*
X97449Y48950D01*
X97989Y49057D01*
X98447Y49363D01*
X98753Y49821D01*
X98860Y50361D01*
X98753Y50901D01*
X98447Y51359D01*
X97989Y51665D01*
X97449Y51772D01*
X96909Y51665D01*
X96451Y51359D01*
X96145Y50901D01*
X96038Y50361D01*
X96052Y50291D01*
X95671Y49911D01*
X95209Y50102D01*
Y51707D01*
X95519Y51961D01*
X96059Y52068D01*
X96517Y52374D01*
X96823Y52832D01*
X96930Y53372D01*
X96823Y53912D01*
X96517Y54370D01*
X96059Y54676D01*
X95519Y54783D01*
X95240Y54728D01*
X94940Y55178D01*
X95064Y55364D01*
X95171Y55904D01*
X95064Y56444D01*
X94758Y56902D01*
X94300Y57208D01*
X93760Y57315D01*
X93220Y57208D01*
X92762Y56902D01*
X92456Y56444D01*
X92349Y55904D01*
X92456Y55364D01*
X92762Y54906D01*
X93111Y54673D01*
Y46082D01*
X93102Y46074D01*
X92611Y45861D01*
X92314Y46059D01*
X91774Y46166D01*
X91272Y46067D01*
X91226Y46079D01*
X91162Y46113D01*
X90810Y46377D01*
Y62947D01*
X90860Y62988D01*
X91400Y63095D01*
X91858Y63401D01*
X92164Y63859D01*
X92271Y64399D01*
X92164Y64939D01*
X91858Y65397D01*
X91400Y65703D01*
X90860Y65810D01*
X90320Y65703D01*
X89862Y65397D01*
X89556Y64939D01*
X89449Y64399D01*
X89556Y63859D01*
X89569Y63839D01*
X89512Y63700D01*
Y47674D01*
X89021Y47508D01*
X88563Y47814D01*
X88441Y47838D01*
Y49652D01*
X88390Y49905D01*
X88247Y50121D01*
X86388Y51979D01*
Y75265D01*
X88499Y77376D01*
X99178D01*
X99432Y77426D01*
X99647Y77570D01*
X100894Y78816D01*
X101037Y79031D01*
X101088Y79285D01*
Y84781D01*
X101278Y84937D01*
X101818Y85044D01*
X102276Y85350D01*
X102582Y85808D01*
X102689Y86348D01*
X102582Y86888D01*
X102276Y87346D01*
X101907Y87592D01*
X101745Y88137D01*
X103821Y90213D01*
X104011Y90672D01*
Y98455D01*
X104075Y98468D01*
X104533Y98774D01*
X104839Y99232D01*
X104946Y99772D01*
X104839Y100312D01*
X104533Y100770D01*
X104075Y101076D01*
X103535Y101183D01*
D02*
G37*
G36*
X116752Y75480D02*
X116212Y75373D01*
X115754Y75067D01*
X115448Y74609D01*
X115341Y74069D01*
X115422Y73658D01*
X115065Y73356D01*
X115016Y73334D01*
X114680Y73558D01*
X114140Y73665D01*
X113600Y73558D01*
X113142Y73252D01*
X112836Y72794D01*
X112729Y72254D01*
X112836Y71714D01*
X113142Y71256D01*
X113222Y71202D01*
Y70898D01*
X113292Y70547D01*
X113491Y70249D01*
X116518Y67222D01*
Y63159D01*
X116325Y63030D01*
X116019Y62572D01*
X115912Y62032D01*
X116019Y61492D01*
X116145Y61304D01*
X112492Y57652D01*
X112271Y57321D01*
X112193Y56931D01*
Y45620D01*
X100166Y33593D01*
X99945Y33262D01*
X99867Y32872D01*
Y30187D01*
X99687Y30066D01*
X99381Y29608D01*
X99274Y29068D01*
X99381Y28528D01*
X99687Y28070D01*
X100145Y27764D01*
X100685Y27657D01*
X101225Y27764D01*
X101683Y28070D01*
X101989Y28528D01*
X102096Y29068D01*
X101989Y29608D01*
X101907Y29731D01*
Y32450D01*
X113934Y44477D01*
X114155Y44808D01*
X114233Y45198D01*
Y56508D01*
X114726Y57002D01*
X115188Y56810D01*
Y53376D01*
X115238Y53123D01*
X115382Y52908D01*
X116904Y51385D01*
X116986Y50975D01*
X117292Y50517D01*
X117750Y50211D01*
X118290Y50104D01*
X118757Y50196D01*
X119219Y50003D01*
X119257Y49983D01*
Y45703D01*
X119083Y45586D01*
X118773Y45123D01*
X118665Y44577D01*
Y38784D01*
X118665Y38784D01*
X118773Y38238D01*
X119083Y37775D01*
X120038Y36819D01*
X120038Y36819D01*
X120501Y36510D01*
X121047Y36401D01*
X121047Y36401D01*
X131853D01*
X131853Y36401D01*
X132399Y36510D01*
X132862Y36819D01*
X133981Y37938D01*
X146347D01*
Y55274D01*
X142115D01*
Y58033D01*
X142232Y58122D01*
X142801Y58864D01*
X143158Y59727D01*
X143280Y60654D01*
X143158Y61581D01*
X142801Y62444D01*
X142232Y63186D01*
X141490Y63755D01*
X140627Y64112D01*
X139700Y64234D01*
X138773Y64112D01*
X137910Y63755D01*
X137168Y63186D01*
X136599Y62444D01*
X136242Y61581D01*
X136120Y60654D01*
X136242Y59727D01*
X136599Y58864D01*
X137168Y58122D01*
X137285Y58033D01*
Y55274D01*
X132949D01*
Y40944D01*
X131262Y39256D01*
X125915D01*
X125636Y39734D01*
X125639Y39756D01*
X125742Y40277D01*
X125700Y40488D01*
X127230Y42018D01*
X127420Y42477D01*
Y54452D01*
X127733Y54514D01*
X128191Y54820D01*
X128497Y55278D01*
X128604Y55818D01*
X128497Y56358D01*
X128191Y56816D01*
X127822Y57062D01*
X127714Y57196D01*
X127591Y57660D01*
X127695Y57911D01*
Y60780D01*
X128150Y61084D01*
X128456Y61542D01*
X128563Y62082D01*
X128456Y62622D01*
X128150Y63080D01*
X127692Y63386D01*
X127152Y63493D01*
X126612Y63386D01*
X126154Y63080D01*
X125848Y62622D01*
X125741Y62082D01*
X125848Y61542D01*
X126154Y61084D01*
X126397Y60922D01*
Y58180D01*
X125140Y56924D01*
X124950Y56464D01*
Y51303D01*
X124604Y51234D01*
X124146Y50928D01*
X123840Y50470D01*
X123733Y49930D01*
X123840Y49390D01*
X124146Y48932D01*
X124379Y48777D01*
Y44897D01*
X124139Y44700D01*
X123599Y44593D01*
X123141Y44287D01*
X122835Y43829D01*
X122728Y43289D01*
X122835Y42749D01*
X123141Y42291D01*
X123566Y42007D01*
X123608Y41800D01*
X123625Y41470D01*
X123333Y41275D01*
X123027Y40817D01*
X122920Y40277D01*
X123023Y39756D01*
X123026Y39734D01*
X122747Y39256D01*
X121639D01*
X121519Y39375D01*
Y44577D01*
X121411Y45123D01*
X121101Y45586D01*
X121092Y45593D01*
Y54246D01*
X121117Y54466D01*
X121530Y54804D01*
X121686Y54835D01*
X122144Y55141D01*
X122450Y55599D01*
X122557Y56139D01*
X122458Y56640D01*
X123402Y57584D01*
X123545Y57799D01*
X123596Y58053D01*
Y69521D01*
X124161Y70086D01*
X124556Y70008D01*
X125096Y70115D01*
X125554Y70421D01*
X125860Y70879D01*
X125967Y71419D01*
X125860Y71959D01*
X125554Y72417D01*
X125096Y72723D01*
X124556Y72830D01*
X124016Y72723D01*
X123558Y72417D01*
X123252Y71959D01*
X123145Y71419D01*
X123198Y71149D01*
X122935Y70909D01*
X122454Y71116D01*
X122415Y71313D01*
X122216Y71611D01*
X121792Y72035D01*
X121793Y72044D01*
X121686Y72584D01*
X121380Y73042D01*
X120922Y73348D01*
X120382Y73455D01*
X119842Y73348D01*
X119384Y73042D01*
X119078Y72584D01*
X118971Y72044D01*
X119078Y71504D01*
X119222Y71289D01*
X119149Y70801D01*
X119056Y70705D01*
X118685Y70457D01*
X118448Y70102D01*
X117955Y70096D01*
X117745Y70318D01*
Y73067D01*
X117750Y73071D01*
X118056Y73529D01*
X118163Y74069D01*
X118056Y74609D01*
X117750Y75067D01*
X117292Y75373D01*
X116752Y75480D01*
D02*
G37*
G36*
X111693Y100451D02*
X111153Y100344D01*
X110695Y100038D01*
X110389Y99580D01*
X110282Y99040D01*
X110389Y98500D01*
X110695Y98042D01*
X111153Y97736D01*
X111693Y97629D01*
X112233Y97736D01*
X112691Y98042D01*
X112997Y98500D01*
X113001Y98522D01*
X115520D01*
X115520Y78105D01*
X142833Y78105D01*
X142833Y98796D01*
X130210D01*
X130166Y99019D01*
X129967Y99317D01*
X129195Y100089D01*
X128897Y100288D01*
X128546Y100358D01*
X112164D01*
X111693Y100451D01*
D02*
G37*
G36*
X109022Y89955D02*
X108482Y89848D01*
X108024Y89542D01*
X107718Y89084D01*
X107611Y88544D01*
X107617Y88510D01*
X106156Y87049D01*
X105957Y86751D01*
X105887Y86400D01*
Y76432D01*
X105868Y76419D01*
X105562Y75961D01*
X105455Y75421D01*
X105562Y74881D01*
X105868Y74423D01*
X106326Y74117D01*
X106866Y74010D01*
X107406Y74117D01*
X107864Y74423D01*
X108170Y74881D01*
X108277Y75421D01*
X108170Y75961D01*
X107864Y76419D01*
X107723Y76513D01*
Y86020D01*
X108866Y87164D01*
X109022Y87133D01*
X109562Y87240D01*
X110020Y87546D01*
X110326Y88004D01*
X110433Y88544D01*
X110326Y89084D01*
X110020Y89542D01*
X109562Y89848D01*
X109022Y89955D01*
D02*
G37*
G36*
X34347Y85510D02*
X33807Y85403D01*
X33349Y85097D01*
X33116Y84748D01*
X32000D01*
X31541Y84558D01*
X27166Y80183D01*
X26980Y80215D01*
X26656Y80380D01*
X26571Y80807D01*
X26265Y81265D01*
X25807Y81571D01*
X25267Y81678D01*
X24727Y81571D01*
X24269Y81265D01*
X23963Y80807D01*
X23856Y80267D01*
X23963Y79727D01*
X24269Y79269D01*
X24618Y79036D01*
Y75322D01*
X22751Y73455D01*
X22561Y72996D01*
Y71263D01*
X22751Y70804D01*
X24582Y68973D01*
Y42393D01*
X23229Y41040D01*
X22831Y41119D01*
X22291Y41012D01*
X21833Y40706D01*
X21527Y40248D01*
X21420Y39708D01*
X21527Y39168D01*
X21833Y38710D01*
X22291Y38404D01*
X22326Y38397D01*
X22431Y37866D01*
X22323Y37794D01*
X22017Y37336D01*
X21910Y36796D01*
X22017Y36256D01*
X22323Y35798D01*
X22781Y35492D01*
X23321Y35385D01*
X23655Y35451D01*
X23956Y35001D01*
X23935Y34970D01*
X23828Y34430D01*
X23935Y33890D01*
X24241Y33432D01*
X24699Y33126D01*
X25239Y33019D01*
X25779Y33126D01*
X26237Y33432D01*
X26543Y33890D01*
X26650Y34430D01*
X26594Y34715D01*
X26778Y34891D01*
X27036Y35055D01*
X27504Y34962D01*
X28044Y35069D01*
X28502Y35375D01*
X28808Y35833D01*
X28915Y36373D01*
X29351Y36748D01*
X29477Y36723D01*
X30017Y36830D01*
X30475Y37136D01*
X30781Y37594D01*
X30849Y37938D01*
X31358Y38135D01*
X31360D01*
X34746Y34749D01*
Y18622D01*
X34774Y18554D01*
X34350Y18271D01*
X33878Y18742D01*
X33976Y19235D01*
X33869Y19775D01*
X33563Y20233D01*
X33105Y20539D01*
X32565Y20646D01*
X32025Y20539D01*
X31567Y20233D01*
X31261Y19775D01*
X31154Y19235D01*
X31261Y18695D01*
X31567Y18237D01*
X32025Y17931D01*
X32565Y17824D01*
X32743Y17859D01*
X38936Y11666D01*
X38745Y11204D01*
X30884D01*
X30732Y11305D01*
X30192Y11412D01*
X29652Y11305D01*
X29194Y10999D01*
X28888Y10541D01*
X28781Y10001D01*
X28888Y9461D01*
X29194Y9003D01*
X29652Y8697D01*
X30192Y8590D01*
X30732Y8697D01*
X31190Y9003D01*
X31496Y9461D01*
X31559Y9776D01*
X70412D01*
X70685Y9831D01*
X70917Y9985D01*
X82567Y21635D01*
X82721Y21867D01*
X82776Y22140D01*
Y22554D01*
X83060Y22744D01*
X83366Y23202D01*
X83473Y23742D01*
X83366Y24282D01*
X83060Y24740D01*
X82602Y25046D01*
X82062Y25153D01*
X81522Y25046D01*
X81373Y24947D01*
X80923Y25247D01*
X80936Y25313D01*
X80829Y25853D01*
X80523Y26311D01*
X80065Y26617D01*
X79525Y26724D01*
X78985Y26617D01*
X78527Y26311D01*
X78221Y25853D01*
X78114Y25313D01*
X78221Y24773D01*
X78527Y24315D01*
X78811Y24125D01*
Y21313D01*
X69870Y12371D01*
X40249D01*
X38045Y14575D01*
X38101Y14759D01*
X38246Y15081D01*
X38645Y15348D01*
X38951Y15806D01*
X39058Y16346D01*
X38951Y16886D01*
X38645Y17344D01*
X38187Y17650D01*
X37647Y17757D01*
X37256Y17680D01*
X36044Y18891D01*
Y31356D01*
X36544Y31508D01*
X36650Y31350D01*
X37108Y31044D01*
X37648Y30937D01*
X38188Y31044D01*
X38646Y31350D01*
X38952Y31808D01*
X39059Y32348D01*
X38952Y32888D01*
X38646Y33346D01*
X38303Y33575D01*
X38318Y34047D01*
X38795Y34244D01*
X39589Y33451D01*
Y18670D01*
X39589Y18670D01*
X39639Y18418D01*
X39782Y18205D01*
X41263Y16724D01*
X41188Y16346D01*
X41295Y15806D01*
X41601Y15348D01*
X42059Y15042D01*
X42599Y14935D01*
X43139Y15042D01*
X43597Y15348D01*
X43903Y15806D01*
X44010Y16346D01*
X43903Y16886D01*
X43597Y17344D01*
X43139Y17650D01*
X42599Y17757D01*
X42176Y17673D01*
X40906Y18943D01*
Y30896D01*
X41406Y31041D01*
X41630Y30706D01*
X42088Y30400D01*
X42628Y30293D01*
X43168Y30400D01*
X43626Y30706D01*
X43648Y30738D01*
X44148Y30587D01*
Y18097D01*
X44338Y17638D01*
X45987Y15989D01*
X46293Y15862D01*
X46299Y15831D01*
X46605Y15373D01*
X47063Y15067D01*
X47603Y14960D01*
X48143Y15067D01*
X48601Y15373D01*
X48907Y15831D01*
X49014Y16371D01*
X48907Y16911D01*
X48601Y17369D01*
X48143Y17675D01*
X47603Y17782D01*
X47063Y17675D01*
X46605Y17369D01*
X46458Y17355D01*
X45446Y18366D01*
Y32822D01*
X45256Y33282D01*
X33293Y45245D01*
Y62791D01*
X36879Y66378D01*
X37140Y66326D01*
X37680Y66433D01*
X38138Y66739D01*
X38444Y67197D01*
X38551Y67737D01*
X38444Y68277D01*
X38138Y68735D01*
X37680Y69041D01*
X37140Y69148D01*
X36600Y69041D01*
X36142Y68735D01*
X35836Y68277D01*
X35729Y67737D01*
X35836Y67197D01*
X35846Y67182D01*
X32954Y64290D01*
X32493Y64481D01*
Y68900D01*
X32972Y69380D01*
X33435Y69288D01*
X33975Y69395D01*
X34433Y69701D01*
X34739Y70159D01*
X34846Y70699D01*
X34739Y71239D01*
X34433Y71697D01*
X33975Y72003D01*
X33435Y72110D01*
X32895Y72003D01*
X32437Y71697D01*
X32156Y71276D01*
X32120Y71272D01*
X31656Y71578D01*
Y72152D01*
X32040Y72536D01*
X32440Y72457D01*
X32980Y72564D01*
X33438Y72870D01*
X33744Y73328D01*
X33851Y73868D01*
X33744Y74408D01*
X33438Y74866D01*
X32980Y75172D01*
X32921Y75184D01*
X32675Y75716D01*
X32782Y76256D01*
X32675Y76796D01*
X32369Y77254D01*
X32027Y77482D01*
Y77627D01*
X32333Y78084D01*
X32441Y78624D01*
X32354Y79060D01*
X32625Y79560D01*
X34251D01*
X34299Y79317D01*
X34605Y78859D01*
X35063Y78553D01*
X35603Y78446D01*
X36143Y78553D01*
X36601Y78859D01*
X36907Y79317D01*
X37014Y79857D01*
X36907Y80397D01*
X36601Y80855D01*
X36143Y81161D01*
X35603Y81268D01*
X35063Y81161D01*
X34611Y80859D01*
X33665D01*
X33394Y81353D01*
X33501Y81893D01*
X33394Y82433D01*
X33350Y82499D01*
X33710Y82860D01*
X33807Y82795D01*
X34347Y82688D01*
X34887Y82795D01*
X35345Y83101D01*
X35651Y83559D01*
X35758Y84099D01*
X35651Y84639D01*
X35345Y85097D01*
X34887Y85403D01*
X34347Y85510D01*
D02*
G37*
G36*
X140200Y74269D02*
Y71154D01*
X143315D01*
X143256Y71607D01*
X142888Y72495D01*
X142303Y73257D01*
X141541Y73842D01*
X140653Y74210D01*
X140200Y74269D01*
D02*
G37*
G36*
X19859Y88943D02*
X19313Y88835D01*
X18850Y88525D01*
X17733Y87408D01*
X17423Y86945D01*
X17315Y86399D01*
X17315Y86399D01*
Y62443D01*
X17315Y62443D01*
X17423Y61897D01*
X17733Y61434D01*
X19004Y60163D01*
X19467Y59853D01*
X20013Y59745D01*
X20559Y59853D01*
X21022Y60163D01*
X21332Y60626D01*
X21440Y61172D01*
X21332Y61718D01*
X21022Y62181D01*
X20978Y62226D01*
X20971Y62236D01*
X20961Y62243D01*
X20169Y63034D01*
Y85808D01*
X20868Y86507D01*
X21178Y86970D01*
X21286Y87516D01*
X21178Y88062D01*
X20868Y88525D01*
X20405Y88835D01*
X19859Y88943D01*
D02*
G37*
G36*
X98870Y68025D02*
X98330Y67918D01*
X97872Y67612D01*
X97566Y67154D01*
X97459Y66614D01*
X97566Y66074D01*
X97872Y65616D01*
X97914Y65588D01*
Y60939D01*
X96580Y59605D01*
X96485Y59623D01*
X95945Y59516D01*
X95487Y59210D01*
X95181Y58752D01*
X95074Y58212D01*
X95181Y57672D01*
X95487Y57214D01*
X95945Y56908D01*
X96485Y56801D01*
X97025Y56908D01*
X97483Y57214D01*
X97789Y57672D01*
X97896Y58212D01*
X97878Y58307D01*
X99481Y59910D01*
X99680Y60208D01*
X99750Y60559D01*
Y65537D01*
X99868Y65616D01*
X100174Y66074D01*
X100281Y66614D01*
X100174Y67154D01*
X99868Y67612D01*
X99410Y67918D01*
X98870Y68025D01*
D02*
G37*
G36*
X139200Y70154D02*
X136085D01*
X136144Y69701D01*
X136512Y68814D01*
X137097Y68051D01*
X137859Y67466D01*
X138747Y67098D01*
X139200Y67039D01*
Y70154D01*
D02*
G37*
G36*
Y74269D02*
X138747Y74210D01*
X137859Y73842D01*
X137097Y73257D01*
X136512Y72495D01*
X136144Y71607D01*
X136085Y71154D01*
X139200D01*
Y74269D01*
D02*
G37*
G36*
X143315Y70154D02*
X140200D01*
Y67039D01*
X140653Y67098D01*
X141541Y67466D01*
X142303Y68051D01*
X142888Y68814D01*
X143256Y69701D01*
X143315Y70154D01*
D02*
G37*
%LPD*%
D32*
X121283Y59571D02*
X121567Y59855D01*
X106805Y86400D02*
X108987Y88582D01*
X106805Y75630D02*
X106956Y75479D01*
X111693Y99040D02*
X111911D01*
Y99440D02*
X128546D01*
X121120Y89838D02*
X126665D01*
X129318Y92491D02*
Y98668D01*
X128546Y99440D02*
X129318Y98668D01*
X111885Y99456D02*
X111901Y99440D01*
X98832Y60559D02*
Y66614D01*
X120435Y72094D02*
X121567Y70962D01*
Y59855D02*
Y70962D01*
X117436Y62087D02*
Y67602D01*
X120174Y44654D02*
Y54446D01*
X119262Y55358D02*
X120174Y54446D01*
X114140Y70898D02*
X117436Y67602D01*
X114140Y70898D02*
Y72254D01*
X119262Y57566D02*
X121299Y59603D01*
X119262Y55358D02*
Y57566D01*
X120106Y44586D02*
X120174Y44654D01*
X126665Y89838D02*
X129318Y92491D01*
X96485Y58212D02*
X98832Y60559D01*
X106805Y75630D02*
Y86400D01*
D33*
X135762Y23926D02*
X138539D01*
X130436Y18600D02*
X135762Y23926D01*
X127761Y18600D02*
X130436D01*
X128593Y20544D02*
X129014Y20965D01*
X134170Y23748D02*
Y29355D01*
X131387Y20965D02*
X134170Y23748D01*
X129014Y20965D02*
X131387D01*
X134152Y29373D02*
X134170Y29355D01*
X112050Y24764D02*
X121597D01*
X111266Y25548D02*
X112050Y24764D01*
X121597D02*
X127761Y18600D01*
X111818Y29613D02*
Y36270D01*
Y29613D02*
X114579Y26852D01*
X128296D01*
X79525Y21017D02*
Y25313D01*
X70166Y11658D02*
X79525Y21017D01*
X39953Y11658D02*
X70166D01*
X32926Y18685D02*
X39953Y11658D01*
X32926Y18685D02*
Y19043D01*
X32686Y19283D02*
X32926Y19043D01*
X82062Y22140D02*
Y23742D01*
X70412Y10490D02*
X82062Y22140D01*
X30595Y10490D02*
X70412D01*
X30147Y10042D02*
X30595Y10490D01*
X114165Y25852D02*
X129279D01*
X129483Y25648D01*
X110818Y29199D02*
X114165Y25852D01*
X110818Y38291D02*
X110852Y38325D01*
X110818Y29199D02*
Y38291D01*
X111818Y36270D02*
X112615Y37067D01*
Y40514D01*
X128296Y26852D02*
X129418Y27974D01*
X112615Y40514D02*
X112685Y40584D01*
D34*
X70415Y62190D02*
X72719Y59886D01*
X88974Y43606D02*
Y45007D01*
X81818Y27995D02*
X83834D01*
X90161Y63700D02*
X90860Y64399D01*
X84875Y50244D02*
X86144Y48975D01*
X26031Y40186D02*
Y71018D01*
X23426Y37581D02*
X26031Y40186D01*
X22827Y39720D02*
X25231Y42124D01*
Y69242D01*
X25267Y75053D02*
Y80267D01*
X23210Y72996D02*
X25267Y75053D01*
X23210Y71263D02*
Y72996D01*
Y71263D02*
X25231Y69242D01*
X24941Y72108D02*
X26031Y71018D01*
X31358Y78624D02*
X31359D01*
X31029D02*
X31358D01*
X31359Y78625D01*
X27677Y78644D02*
X30926Y81893D01*
X32090D01*
X28477Y78313D02*
X30373Y80209D01*
X26831Y78930D02*
X32000Y84099D01*
X28477Y39111D02*
Y78313D01*
X30373Y80209D02*
X35354D01*
X27677Y36789D02*
Y78644D01*
X26831Y39769D02*
Y78930D01*
X32000Y84099D02*
X34347D01*
X31359Y78625D02*
X31359Y78624D01*
X35354Y80209D02*
X35521Y80042D01*
X33373Y70699D02*
X33435D01*
X31843Y69169D02*
X33373Y70699D01*
X125028Y44178D02*
Y49902D01*
X124139Y43289D02*
X125028Y44178D01*
X93760Y11457D02*
Y55904D01*
X94560Y14887D02*
Y52413D01*
X95360Y24871D02*
Y48681D01*
X94560Y52413D02*
X95519Y53372D01*
X93760Y11457D02*
X93815Y11402D01*
X25446Y38384D02*
X26831Y39769D01*
X25446Y34671D02*
Y38384D01*
X28477Y39111D02*
X29436Y38152D01*
X27396Y36508D02*
X27677Y36789D01*
X37140Y67557D02*
Y67737D01*
Y67557D02*
X37140Y67557D01*
X32643Y63060D02*
X37140Y67557D01*
X32643Y44976D02*
Y63060D01*
Y44976D02*
X44797Y32822D01*
X30151Y75036D02*
X31371Y76256D01*
X29351Y41062D02*
Y76699D01*
X99506Y20725D02*
X101597D01*
X95360Y24871D02*
X99506Y20725D01*
X94560Y14887D02*
X95514Y13933D01*
X97040Y50361D02*
X97449D01*
X95360Y48681D02*
X97040Y50361D01*
X46446Y16448D02*
X47576D01*
X44797Y18097D02*
X46446Y16448D01*
X35395Y18622D02*
X37594Y16423D01*
X37646Y32441D02*
Y34699D01*
X30151Y42194D02*
X37646Y34699D01*
X42547Y32338D02*
Y32832D01*
X31843Y43536D02*
X42547Y32832D01*
X37647Y16346D02*
X37865D01*
X37879Y16361D01*
X126771Y42477D02*
Y55503D01*
X124552Y40258D02*
X126771Y42477D01*
X72338Y63728D02*
Y63728D01*
X35395Y18622D02*
Y35018D01*
X29351Y41062D02*
X35395Y35018D01*
X29351Y76699D02*
X30810Y78158D01*
X30891D01*
X31843Y43536D02*
Y69169D01*
X30151Y42194D02*
Y75036D01*
X44797Y18097D02*
Y32822D01*
X125138Y49957D02*
X125599Y50418D01*
Y56464D01*
X127046Y57911D01*
X84875Y50244D02*
Y75892D01*
X103362Y90672D02*
Y99704D01*
X99575Y79674D02*
Y86885D01*
X103362Y90672D01*
X84875Y75892D02*
X87872Y78888D01*
X98789D01*
X99575Y79674D01*
X23426Y36788D02*
Y37581D01*
X103362Y99704D02*
X103537Y99879D01*
X72338Y63728D02*
X73519Y62547D01*
X30891Y78158D02*
X31358Y78624D01*
X73519Y32921D02*
X76035Y30404D01*
X73519Y32921D02*
Y62547D01*
X72719Y32589D02*
Y59886D01*
Y32589D02*
X75704Y29604D01*
X78025D01*
X78930Y28699D01*
X80532Y29281D02*
Y29281D01*
Y29281D02*
X81818Y27995D01*
X79409Y30404D02*
X80532Y29281D01*
X76035Y30404D02*
X79409D01*
X88974Y45007D02*
X90161Y46194D01*
Y63700D01*
X127046Y57911D02*
Y62257D01*
X126771Y55503D02*
X127184Y55916D01*
D35*
X117304Y61022D02*
Y62087D01*
X82281Y86931D02*
X82391D01*
X83675Y85647D01*
X83582Y45714D02*
X83675Y45807D01*
X91654Y44894D02*
X92533Y44015D01*
X113213Y56931D02*
X117304Y61022D01*
X113213Y45198D02*
Y56931D01*
X100887Y32872D02*
X113213Y45198D01*
X120842Y84237D02*
X134111D01*
X129695Y84052D02*
X129743Y84100D01*
X129695Y76478D02*
Y84052D01*
X92533Y27888D02*
Y44015D01*
X92537Y24964D02*
Y27857D01*
X89590Y22017D02*
X92537Y24964D01*
X89096Y22017D02*
X89590D01*
X83675Y45807D02*
Y85647D01*
X129695Y76478D02*
X133105Y73068D01*
X100887Y29324D02*
Y32872D01*
X100661Y29098D02*
X100887Y29324D01*
X134111Y84237D02*
X137996Y88122D01*
D37*
X58991Y46470D02*
X61693Y43768D01*
X55435Y46449D02*
Y58101D01*
Y46449D02*
X55538Y46346D01*
X55554Y46470D02*
X58991D01*
X44303Y58101D02*
X55435D01*
X41687Y60717D02*
X44303Y58101D01*
X41227Y60717D02*
X41687D01*
D38*
X18742Y62443D02*
X20013Y61172D01*
X131853Y37829D02*
X140023Y45999D01*
X45968Y38554D02*
Y54761D01*
X120092Y38784D02*
X121047Y37829D01*
X131853D01*
X18742Y86399D02*
X19859Y87516D01*
X18742Y62443D02*
Y86399D01*
X140023Y45999D02*
Y46228D01*
X120092Y38784D02*
Y44577D01*
X54223Y30299D02*
X55491D01*
X45968Y38554D02*
X54223Y30299D01*
D40*
X76565Y32115D02*
X81946Y37496D01*
X78936Y82707D02*
X81946Y79697D01*
Y37496D02*
Y79697D01*
X30997Y72425D02*
X32440Y73868D01*
X74663Y82707D02*
X78936D01*
X40248Y18670D02*
Y33724D01*
X30997Y42974D02*
Y72425D01*
Y42974D02*
X40248Y33724D01*
Y18670D02*
X42598Y16320D01*
D42*
X105313Y16379D02*
X107502Y14189D01*
X103533Y12761D02*
X103577Y12717D01*
X107502Y13687D02*
Y14189D01*
X106533Y12717D02*
X107502Y13687D01*
X103577Y12717D02*
X106533D01*
X107502Y14189D02*
X107523Y14210D01*
X117702Y51525D02*
X118309D01*
X116636Y74030D02*
X117082Y73584D01*
X87778Y46816D02*
Y49652D01*
X85725Y51705D02*
X87778Y49652D01*
Y46816D02*
X88025Y46569D01*
X122933Y69796D02*
X124556Y71419D01*
X122933Y58053D02*
Y69796D01*
X119735Y69479D02*
X119857Y69357D01*
Y60534D02*
Y69357D01*
X117485Y58162D02*
X119857Y60534D01*
X117082Y69749D02*
X118957Y67874D01*
X115851Y57801D02*
X118957Y60907D01*
Y67874D01*
X117485Y54053D02*
Y58162D01*
X115851Y53376D02*
Y57801D01*
Y53376D02*
X117702Y51525D01*
X117082Y69749D02*
Y73584D01*
X120961Y56081D02*
X122933Y58053D01*
X85725Y51705D02*
Y75539D01*
X100425Y79285D02*
Y85478D01*
X101270Y86323D01*
X85725Y75539D02*
X88224Y78038D01*
X99178D01*
X100425Y79285D01*
X105313Y16379D02*
Y20065D01*
X110916Y38261D02*
X110931Y38276D01*
D54*
X139700Y60654D02*
D03*
Y70654D02*
D03*
D55*
X111783Y5318D02*
D03*
X122878D02*
D03*
X133553D02*
D03*
D56*
X89859Y18517D02*
D03*
X86448Y23762D02*
D03*
X74995Y25036D02*
D03*
X76332Y27526D02*
D03*
X77543Y22502D02*
D03*
X72056Y27989D02*
D03*
X70350Y31606D02*
D03*
X66505Y29443D02*
D03*
X64423Y31686D02*
D03*
X58945D02*
D03*
X75822Y12787D02*
D03*
X82958Y12404D02*
D03*
X131902Y42247D02*
D03*
X114877Y38934D02*
D03*
X106476Y47514D02*
D03*
X108747Y50266D02*
D03*
X104350Y50383D02*
D03*
X102078Y47514D02*
D03*
X97403Y47485D02*
D03*
X110874Y47456D02*
D03*
X78977Y32091D02*
D03*
X97516Y39121D02*
D03*
X84009Y35660D02*
D03*
X87322Y36407D02*
D03*
X89967Y33720D02*
D03*
X96670Y10206D02*
D03*
X109223Y9460D02*
D03*
X128254Y5160D02*
D03*
X125288Y9423D02*
D03*
X117567Y12186D02*
D03*
X114253Y13910D02*
D03*
X120281Y9607D02*
D03*
X114234Y9588D02*
D03*
X141701Y32422D02*
D03*
X138193Y34400D02*
D03*
X136351Y26782D02*
D03*
X133873Y16262D02*
D03*
X113931Y30414D02*
D03*
X116955Y40694D02*
D03*
X103744Y39023D02*
D03*
X101110Y36495D02*
D03*
X108371Y36618D02*
D03*
X108782Y32329D02*
D03*
X109047Y27867D02*
D03*
X103420Y30793D02*
D03*
X101050Y26256D02*
D03*
X100980Y23313D02*
D03*
X132271Y25246D02*
D03*
X130878Y35238D02*
D03*
X131104Y32136D02*
D03*
X134336Y19513D02*
D03*
X131999Y27678D02*
D03*
X133184Y33040D02*
D03*
X134152Y29373D02*
D03*
X138539Y23892D02*
D03*
X111266Y25548D02*
D03*
X88359Y27695D02*
D03*
X84220Y21912D02*
D03*
X78060Y61592D02*
D03*
X75394Y61603D02*
D03*
X142685Y27298D02*
D03*
Y13912D02*
D03*
Y526D02*
D03*
X139339Y20605D02*
D03*
X135992Y13912D02*
D03*
X139339Y7219D02*
D03*
X135992Y526D02*
D03*
X129299Y67456D02*
D03*
Y526D02*
D03*
X122606D02*
D03*
X115913D02*
D03*
X109220D02*
D03*
X105874Y33991D02*
D03*
Y7219D02*
D03*
X102527Y526D02*
D03*
X99181Y7219D02*
D03*
X95835Y526D02*
D03*
X92488Y7219D02*
D03*
X89142Y526D02*
D03*
X82449Y94227D02*
D03*
X85795Y7219D02*
D03*
X82449Y526D02*
D03*
X79102Y7219D02*
D03*
X75756Y526D02*
D03*
X72409Y7219D02*
D03*
X69063Y526D02*
D03*
X65716Y7219D02*
D03*
X62370Y526D02*
D03*
X59024Y7219D02*
D03*
X55677Y526D02*
D03*
X48984D02*
D03*
X42291Y40684D02*
D03*
Y526D02*
D03*
X35598D02*
D03*
X28905Y27298D02*
D03*
Y13912D02*
D03*
Y526D02*
D03*
X22213Y94227D02*
D03*
Y80841D02*
D03*
Y67456D02*
D03*
Y54070D02*
D03*
Y27298D02*
D03*
Y13912D02*
D03*
Y526D02*
D03*
X15520Y94227D02*
D03*
Y80841D02*
D03*
Y67456D02*
D03*
Y54070D02*
D03*
Y40684D02*
D03*
Y27298D02*
D03*
X18866Y20605D02*
D03*
X15520Y13912D02*
D03*
X18866Y7219D02*
D03*
X15520Y526D02*
D03*
X8827Y94227D02*
D03*
X12173Y87534D02*
D03*
X8827Y80841D02*
D03*
X12173Y74148D02*
D03*
X8827Y67456D02*
D03*
X12173Y60763D02*
D03*
Y33991D02*
D03*
X8827Y27298D02*
D03*
X12173Y20605D02*
D03*
X8827Y13912D02*
D03*
X12173Y7219D02*
D03*
X8827Y526D02*
D03*
X2134Y94227D02*
D03*
X5480Y87534D02*
D03*
X2134Y80841D02*
D03*
X5480Y74148D02*
D03*
X2134Y67456D02*
D03*
X5480Y60763D02*
D03*
X2134Y27298D02*
D03*
X5480Y20605D02*
D03*
X2134Y13912D02*
D03*
X5480Y7219D02*
D03*
X2134Y526D02*
D03*
X126549Y101514D02*
D03*
X120744Y101542D02*
D03*
X114096Y101516D02*
D03*
X111693Y99040D02*
D03*
X119567Y76935D02*
D03*
X110807Y65905D02*
D03*
X128854Y59127D02*
D03*
X127439Y64894D02*
D03*
X108037Y99176D02*
D03*
X114275Y76064D02*
D03*
X111961Y82224D02*
D03*
X104400Y79071D02*
D03*
X37450Y84974D02*
D03*
X39222Y83211D02*
D03*
X42550Y67394D02*
D03*
X131150Y100021D02*
D03*
X22661Y57579D02*
D03*
X23066Y43765D02*
D03*
Y49783D02*
D03*
X22723Y63816D02*
D03*
X22256Y75229D02*
D03*
X28487Y84598D02*
D03*
X22136Y84617D02*
D03*
X123358Y75555D02*
D03*
X126869Y76912D02*
D03*
X70876Y39344D02*
D03*
X51290Y39496D02*
D03*
X48816Y41489D02*
D03*
X59437Y41984D02*
D03*
X61808Y39525D02*
D03*
X88006Y63401D02*
D03*
X88038Y58275D02*
D03*
Y52412D02*
D03*
X88023Y46510D02*
D03*
X91967Y53012D02*
D03*
X103535Y99772D02*
D03*
X22831Y39708D02*
D03*
X101278Y86348D02*
D03*
X86144Y48975D02*
D03*
X75448Y39308D02*
D03*
X68035Y39344D02*
D03*
X23321Y36796D02*
D03*
X19859Y87516D02*
D03*
X48229Y76511D02*
D03*
X43833Y76499D02*
D03*
X39106Y76558D02*
D03*
X32090Y81893D02*
D03*
X31029Y78624D02*
D03*
X35603Y79857D02*
D03*
X33435Y70699D02*
D03*
X121298Y59664D02*
D03*
X117485Y54053D02*
D03*
X118290Y51515D02*
D03*
X122578Y49697D02*
D03*
X117323Y62032D02*
D03*
X115340Y49559D02*
D03*
X121146Y56139D02*
D03*
X122641Y46650D02*
D03*
X114140Y72254D02*
D03*
X116752Y74069D02*
D03*
X119683Y69459D02*
D03*
X120382Y72044D02*
D03*
X112055Y88075D02*
D03*
X109022Y88544D02*
D03*
X87391Y38733D02*
D03*
X88886Y43628D02*
D03*
X121219Y89781D02*
D03*
X120842Y84237D02*
D03*
X145022Y74544D02*
D03*
X62729Y83078D02*
D03*
X61911Y80796D02*
D03*
X107044Y58001D02*
D03*
X111076Y53389D02*
D03*
X102974Y53601D02*
D03*
X110824Y62518D02*
D03*
X103265Y62440D02*
D03*
X106658Y65893D02*
D03*
X114619Y66049D02*
D03*
X105138Y22661D02*
D03*
X113790Y21163D02*
D03*
X108926Y21145D02*
D03*
X131591Y50728D02*
D03*
X128719Y52949D02*
D03*
X128736Y48966D02*
D03*
X130427Y44483D02*
D03*
X130484Y40340D02*
D03*
X125011Y15487D02*
D03*
X130311Y16575D02*
D03*
X91561Y13939D02*
D03*
X54260Y17817D02*
D03*
X50648Y17923D02*
D03*
X80554Y16812D02*
D03*
X85877Y16741D02*
D03*
X68588Y23901D02*
D03*
X64576Y18493D02*
D03*
X59866Y18667D02*
D03*
X57462Y21012D02*
D03*
X71495Y20838D02*
D03*
X72931Y69988D02*
D03*
X75478Y86844D02*
D03*
X67349Y86229D02*
D03*
X65145Y84132D02*
D03*
X2587Y53466D02*
D03*
X7562Y49789D02*
D03*
Y42702D02*
D03*
X2567Y39706D02*
D03*
X12182Y39799D02*
D03*
X93193Y59083D02*
D03*
X93760Y55904D02*
D03*
X95532Y13873D02*
D03*
X95519Y53372D02*
D03*
X39372Y47311D02*
D03*
X43250Y43494D02*
D03*
X43171Y49068D02*
D03*
X118143Y48224D02*
D03*
X100230Y50054D02*
D03*
X52766Y46198D02*
D03*
X55554Y46470D02*
D03*
X61651Y43747D02*
D03*
X145000Y56637D02*
D03*
X134958Y56764D02*
D03*
X103470Y12623D02*
D03*
X83723Y45677D02*
D03*
X102123Y65965D02*
D03*
X98870Y66614D02*
D03*
X120092Y44577D02*
D03*
X89096Y22017D02*
D03*
X56396Y39453D02*
D03*
X53763Y41387D02*
D03*
X45980Y43947D02*
D03*
X45988Y54761D02*
D03*
X38458Y41959D02*
D03*
X49059Y49508D02*
D03*
X34497Y50691D02*
D03*
X55491Y30299D02*
D03*
X19973Y61238D02*
D03*
X42628Y31704D02*
D03*
X37140Y67737D02*
D03*
X25267Y80267D02*
D03*
X34347Y84099D02*
D03*
X31371Y76256D02*
D03*
X32440Y73868D02*
D03*
X65714Y93250D02*
D03*
X61879Y85434D02*
D03*
X101625Y20692D02*
D03*
X93814Y11360D02*
D03*
X107523Y14210D02*
D03*
X105313Y20065D02*
D03*
X97449Y50361D02*
D03*
X74654Y82683D02*
D03*
X37648Y32348D02*
D03*
X37647Y16346D02*
D03*
X42599D02*
D03*
X124331Y40277D02*
D03*
X90860Y64399D02*
D03*
X124556Y71419D02*
D03*
X127193Y55818D02*
D03*
X96485Y58212D02*
D03*
X27504Y36373D02*
D03*
X125144Y49930D02*
D03*
X124139Y43289D02*
D03*
X25239Y34430D02*
D03*
X29477Y38134D02*
D03*
X28927Y32032D02*
D03*
X62325Y93070D02*
D03*
X58877Y24172D02*
D03*
X55912Y24521D02*
D03*
X66251Y13569D02*
D03*
X66436Y21865D02*
D03*
X73880Y18338D02*
D03*
X76555Y32125D02*
D03*
X17580Y46603D02*
D03*
X33858Y67459D02*
D03*
X66889Y76706D02*
D03*
X72142Y63952D02*
D03*
X30361Y94407D02*
D03*
X49615Y87034D02*
D03*
X66224Y89718D02*
D03*
X70946Y51658D02*
D03*
X34565Y45930D02*
D03*
X37282Y56758D02*
D03*
X34499Y54244D02*
D03*
X70819Y46029D02*
D03*
X75871Y44182D02*
D03*
X67501Y44718D02*
D03*
X36873Y64466D02*
D03*
X39535Y66696D02*
D03*
X43144Y87367D02*
D03*
X56392Y13482D02*
D03*
X75511Y54302D02*
D03*
X77529Y51708D02*
D03*
X79740Y54206D02*
D03*
X61167Y13542D02*
D03*
X70209Y14548D02*
D03*
X70487Y62256D02*
D03*
X48855Y46235D02*
D03*
X52694Y50062D02*
D03*
X26004Y29506D02*
D03*
X81497Y82809D02*
D03*
X69073Y78692D02*
D03*
X7404Y34179D02*
D03*
X127152Y62082D02*
D03*
X55000Y93260D02*
D03*
X27230Y90453D02*
D03*
X124995Y68531D02*
D03*
X79842Y70110D02*
D03*
X54669Y65284D02*
D03*
Y73158D02*
D03*
Y69221D02*
D03*
X58606Y65284D02*
D03*
X62543D02*
D03*
X58606Y69221D02*
D03*
Y73158D02*
D03*
X62543Y69221D02*
D03*
Y73158D02*
D03*
X98656Y97505D02*
D03*
X98379Y92375D02*
D03*
X46358Y82740D02*
D03*
X24941Y72108D02*
D03*
X47603Y16371D02*
D03*
X39585Y64139D02*
D03*
X42551Y62900D02*
D03*
X55435Y58101D02*
D03*
X41227Y60717D02*
D03*
X42140Y56549D02*
D03*
X39109Y53868D02*
D03*
X43250Y52987D02*
D03*
X52610Y53456D02*
D03*
X57669Y54373D02*
D03*
X59807Y54351D02*
D03*
X70910Y54086D02*
D03*
X68035Y56112D02*
D03*
X70169Y56736D02*
D03*
X70013Y43799D02*
D03*
X80022Y78107D02*
D03*
X78411Y80486D02*
D03*
X78376Y75857D02*
D03*
X53945Y86630D02*
D03*
X134929Y46117D02*
D03*
X134999Y39967D02*
D03*
X144444Y46064D02*
D03*
X144391Y53235D02*
D03*
X134982Y53253D02*
D03*
X144374Y39826D02*
D03*
X139841Y49598D02*
D03*
X139810Y43095D02*
D03*
X95803Y72067D02*
D03*
X137955Y88078D02*
D03*
X37964Y18830D02*
D03*
X42815Y18838D02*
D03*
X47193Y32736D02*
D03*
X33247Y32744D02*
D03*
X145052Y95540D02*
D03*
X145053Y87701D02*
D03*
X145328Y34043D02*
D03*
Y21556D02*
D03*
Y9070D02*
D03*
X7503Y56633D02*
D03*
X2447Y46623D02*
D03*
X12431Y46701D02*
D03*
X12251Y53486D02*
D03*
X132838Y76849D02*
D03*
X40433Y98066D02*
D03*
X56803Y86798D02*
D03*
X56796Y90895D02*
D03*
X61879Y89319D02*
D03*
X63496Y87349D02*
D03*
X87814Y70298D02*
D03*
X91655Y71451D02*
D03*
X106546Y92167D02*
D03*
X117219Y6332D02*
D03*
X130730Y9251D02*
D03*
X105918Y10861D02*
D03*
X34098Y98059D02*
D03*
X27274D02*
D03*
X106866Y75421D02*
D03*
X82369Y86829D02*
D03*
X1562Y98066D02*
D03*
X7351D02*
D03*
X13984D02*
D03*
X46642Y98144D02*
D03*
X84693Y98066D02*
D03*
X74542Y93250D02*
D03*
X77202Y90634D02*
D03*
X69522Y93229D02*
D03*
X71848Y90730D02*
D03*
X105801Y101518D02*
D03*
X145040Y101498D02*
D03*
X140451Y99898D02*
D03*
X136355Y101551D02*
D03*
X145147Y80635D02*
D03*
X140562Y76835D02*
D03*
X111822Y73964D02*
D03*
X114162Y79440D02*
D03*
X114185Y96827D02*
D03*
X114184Y91374D02*
D03*
X114161Y85313D02*
D03*
X85162Y87532D02*
D03*
X100876Y95137D02*
D03*
X88493Y101226D02*
D03*
X94636Y101301D02*
D03*
X100163Y101186D02*
D03*
X61847Y98115D02*
D03*
X75410Y98200D02*
D03*
X79251Y95964D02*
D03*
X53126Y98173D02*
D03*
X33427Y90460D02*
D03*
X37270Y94463D02*
D03*
X39090Y90121D02*
D03*
X43977Y93469D02*
D03*
X46397Y91333D02*
D03*
X21840Y90323D02*
D03*
X98505Y76174D02*
D03*
X88081Y74940D02*
D03*
X106589Y70769D02*
D03*
X103334D02*
D03*
X104171Y74772D02*
D03*
X92995Y76046D02*
D03*
X85868Y79534D02*
D03*
X100271Y90180D02*
D03*
X104274Y85865D02*
D03*
X91081Y80768D02*
D03*
X97527Y80832D02*
D03*
X49563Y93263D02*
D03*
X52472Y91333D02*
D03*
X21158Y98087D02*
D03*
X17103Y89144D02*
D03*
X68841Y98173D02*
D03*
X145102Y65432D02*
D03*
X134571Y65572D02*
D03*
X129626Y72364D02*
D03*
X133869Y70393D02*
D03*
X78981Y44246D02*
D03*
X77701Y39344D02*
D03*
X78948Y28625D02*
D03*
X83812Y27958D02*
D03*
X30192Y10001D02*
D03*
X28806Y22228D02*
D03*
X32565Y19235D02*
D03*
X79525Y25313D02*
D03*
X82062Y23742D02*
D03*
X89911Y25606D02*
D03*
X91937Y48048D02*
D03*
X91774Y44755D02*
D03*
X100685Y29068D02*
D03*
X129527Y25490D02*
D03*
X129411Y27981D02*
D03*
X112692Y40518D02*
D03*
X110931Y38276D02*
D03*
X135169Y36629D02*
D03*
X128617Y20578D02*
D03*
X113843Y34908D02*
D03*
X127013Y29512D02*
D03*
D57*
X7404Y46606D02*
D03*
X139648D02*
D03*
D58*
X139771Y46572D02*
Y49598D01*
X139700Y49918D02*
X139780Y49838D01*
X139700Y49918D02*
Y60654D01*
X7562Y57919D02*
X7601Y57958D01*
X17338Y46701D02*
X17466Y46573D01*
X12431Y46701D02*
X17338D01*
X139771Y46572D02*
X140014Y46329D01*
X7437Y33988D02*
X7562Y34113D01*
Y42702D01*
Y49789D02*
Y57919D01*
X17466Y46573D02*
X17616Y46723D01*
D59*
X1125Y46600D02*
D03*
M02*
