G04 Layer_Color=128*
%FSLAX25Y25*%
%MOIN*%
G70*
G01*
G75*
%ADD67C,0.00200*%
D67*
X137732Y60654D02*
X141668D01*
X139700Y58685D02*
Y62622D01*
X137732Y70654D02*
X141668D01*
X139700Y68686D02*
Y72623D01*
X110307Y5318D02*
X113259D01*
X111783Y3842D02*
Y6794D01*
X121402Y5318D02*
X124354D01*
X122878Y3842D02*
Y6794D01*
X132077Y5318D02*
X135029D01*
X133553Y3842D02*
Y6794D01*
X89367Y18517D02*
X90351D01*
X89859Y18025D02*
Y19009D01*
X85956Y23762D02*
X86940D01*
X86448Y23270D02*
Y24254D01*
X74503Y25036D02*
X75487D01*
X74995Y24544D02*
Y25528D01*
X75840Y27526D02*
X76824D01*
X76332Y27034D02*
Y28018D01*
X77051Y22502D02*
X78035D01*
X77543Y22010D02*
Y22994D01*
X71564Y27989D02*
X72548D01*
X72056Y27497D02*
Y28481D01*
X69858Y31606D02*
X70842D01*
X70350Y31114D02*
Y32098D01*
X66013Y29443D02*
X66997D01*
X66505Y28951D02*
Y29935D01*
X63931Y31686D02*
X64915D01*
X64423Y31194D02*
Y32178D01*
X58453Y31686D02*
X59437D01*
X58945Y31194D02*
Y32178D01*
X75330Y12787D02*
X76314D01*
X75822Y12295D02*
Y13279D01*
X82466Y12404D02*
X83450D01*
X82958Y11912D02*
Y12896D01*
X131410Y42247D02*
X132394D01*
X131902Y41755D02*
Y42739D01*
X114385Y38934D02*
X115369D01*
X114877Y38442D02*
Y39426D01*
X105984Y47514D02*
X106968D01*
X106476Y47022D02*
Y48006D01*
X108255Y50266D02*
X109239D01*
X108747Y49774D02*
Y50758D01*
X103858Y50383D02*
X104842D01*
X104350Y49891D02*
Y50875D01*
X101586Y47514D02*
X102570D01*
X102078Y47022D02*
Y48006D01*
X96911Y47485D02*
X97895D01*
X97403Y46993D02*
Y47977D01*
X110382Y47456D02*
X111366D01*
X110874Y46964D02*
Y47948D01*
X78485Y32091D02*
X79469D01*
X78977Y31599D02*
Y32583D01*
X97024Y39121D02*
X98008D01*
X97516Y38629D02*
Y39613D01*
X83517Y35660D02*
X84501D01*
X84009Y35168D02*
Y36152D01*
X86830Y36407D02*
X87814D01*
X87322Y35915D02*
Y36899D01*
X89475Y33720D02*
X90459D01*
X89967Y33228D02*
Y34212D01*
X96178Y10206D02*
X97162D01*
X96670Y9714D02*
Y10698D01*
X108731Y9460D02*
X109715D01*
X109223Y8968D02*
Y9952D01*
X127762Y5160D02*
X128746D01*
X128254Y4668D02*
Y5652D01*
X124796Y9423D02*
X125780D01*
X125288Y8931D02*
Y9915D01*
X117075Y12186D02*
X118059D01*
X117567Y11694D02*
Y12678D01*
X113761Y13910D02*
X114745D01*
X114253Y13418D02*
Y14402D01*
X119789Y9607D02*
X120773D01*
X120281Y9115D02*
Y10099D01*
X113742Y9588D02*
X114726D01*
X114234Y9096D02*
Y10080D01*
X141209Y32422D02*
X142193D01*
X141701Y31930D02*
Y32914D01*
X137701Y34400D02*
X138685D01*
X138193Y33908D02*
Y34892D01*
X135859Y26782D02*
X136843D01*
X136351Y26290D02*
Y27274D01*
X133381Y16262D02*
X134365D01*
X133873Y15770D02*
Y16754D01*
X113439Y30414D02*
X114423D01*
X113931Y29922D02*
Y30906D01*
X116463Y40694D02*
X117447D01*
X116955Y40202D02*
Y41186D01*
X103252Y39023D02*
X104236D01*
X103744Y38531D02*
Y39515D01*
X100618Y36495D02*
X101602D01*
X101110Y36003D02*
Y36987D01*
X107879Y36618D02*
X108863D01*
X108371Y36126D02*
Y37110D01*
X108290Y32329D02*
X109274D01*
X108782Y31837D02*
Y32821D01*
X108555Y27867D02*
X109539D01*
X109047Y27375D02*
Y28359D01*
X102928Y30793D02*
X103912D01*
X103420Y30301D02*
Y31285D01*
X100558Y26256D02*
X101542D01*
X101050Y25764D02*
Y26748D01*
X100488Y23313D02*
X101472D01*
X100980Y22821D02*
Y23805D01*
X131779Y25246D02*
X132763D01*
X132271Y24754D02*
Y25738D01*
X130386Y35238D02*
X131370D01*
X130878Y34746D02*
Y35730D01*
X130612Y32136D02*
X131596D01*
X131104Y31644D02*
Y32628D01*
X133844Y19513D02*
X134828D01*
X134336Y19021D02*
Y20005D01*
X131507Y27678D02*
X132491D01*
X131999Y27186D02*
Y28170D01*
X132692Y33040D02*
X133676D01*
X133184Y32548D02*
Y33532D01*
X133660Y29373D02*
X134644D01*
X134152Y28881D02*
Y29865D01*
X138047Y23892D02*
X139031D01*
X138539Y23400D02*
Y24384D01*
X110774Y25548D02*
X111758D01*
X111266Y25056D02*
Y26040D01*
X87867Y27695D02*
X88851D01*
X88359Y27203D02*
Y28187D01*
X83728Y21912D02*
X84712D01*
X84220Y21420D02*
Y22404D01*
X77568Y61592D02*
X78552D01*
X78060Y61100D02*
Y62084D01*
X74902Y61603D02*
X75886D01*
X75394Y61111D02*
Y62095D01*
X142193Y27298D02*
X143177D01*
X142685Y26806D02*
Y27790D01*
X142193Y13912D02*
X143177D01*
X142685Y13420D02*
Y14404D01*
X142193Y526D02*
X143177D01*
X142685Y34D02*
Y1019D01*
X138846Y20605D02*
X139831D01*
X139339Y20113D02*
Y21097D01*
X135500Y13912D02*
X136484D01*
X135992Y13420D02*
Y14404D01*
X138846Y7219D02*
X139831D01*
X139339Y6727D02*
Y7711D01*
X135500Y526D02*
X136484D01*
X135992Y34D02*
Y1019D01*
X128807Y67456D02*
X129791D01*
X129299Y66963D02*
Y67948D01*
X128807Y526D02*
X129791D01*
X129299Y34D02*
Y1019D01*
X122114Y526D02*
X123098D01*
X122606Y34D02*
Y1019D01*
X115421Y526D02*
X116405D01*
X115913Y34D02*
Y1019D01*
X108728Y526D02*
X109713D01*
X109220Y34D02*
Y1019D01*
X105382Y33991D02*
X106366D01*
X105874Y33499D02*
Y34483D01*
X105382Y7219D02*
X106366D01*
X105874Y6727D02*
Y7711D01*
X102035Y526D02*
X103020D01*
X102527Y34D02*
Y1019D01*
X98689Y7219D02*
X99673D01*
X99181Y6727D02*
Y7711D01*
X95342Y526D02*
X96327D01*
X95835Y34D02*
Y1019D01*
X91996Y7219D02*
X92980D01*
X92488Y6727D02*
Y7711D01*
X88650Y526D02*
X89634D01*
X89142Y34D02*
Y1019D01*
X81957Y94227D02*
X82941D01*
X82449Y93735D02*
Y94719D01*
X85303Y7219D02*
X86287D01*
X85795Y6727D02*
Y7711D01*
X81957Y526D02*
X82941D01*
X82449Y34D02*
Y1019D01*
X78610Y7219D02*
X79594D01*
X79102Y6727D02*
Y7711D01*
X75264Y526D02*
X76248D01*
X75756Y34D02*
Y1019D01*
X71917Y7219D02*
X72901D01*
X72409Y6727D02*
Y7711D01*
X68571Y526D02*
X69555D01*
X69063Y34D02*
Y1019D01*
X65224Y7219D02*
X66209D01*
X65716Y6727D02*
Y7711D01*
X61878Y526D02*
X62862D01*
X62370Y34D02*
Y1019D01*
X58531Y7219D02*
X59516D01*
X59024Y6727D02*
Y7711D01*
X55185Y526D02*
X56169D01*
X55677Y34D02*
Y1019D01*
X48492Y526D02*
X49476D01*
X48984Y34D02*
Y1019D01*
X41799Y40684D02*
X42783D01*
X42291Y40192D02*
Y41176D01*
X41799Y526D02*
X42783D01*
X42291Y34D02*
Y1019D01*
X35106Y526D02*
X36091D01*
X35598Y34D02*
Y1019D01*
X28413Y27298D02*
X29398D01*
X28905Y26806D02*
Y27790D01*
X28413Y13912D02*
X29398D01*
X28905Y13420D02*
Y14404D01*
X28413Y526D02*
X29398D01*
X28905Y34D02*
Y1019D01*
X21721Y94227D02*
X22705D01*
X22213Y93735D02*
Y94719D01*
X21721Y80841D02*
X22705D01*
X22213Y80349D02*
Y81334D01*
X21721Y67456D02*
X22705D01*
X22213Y66963D02*
Y67948D01*
X21721Y54070D02*
X22705D01*
X22213Y53578D02*
Y54562D01*
X21721Y27298D02*
X22705D01*
X22213Y26806D02*
Y27790D01*
X21721Y13912D02*
X22705D01*
X22213Y13420D02*
Y14404D01*
X21721Y526D02*
X22705D01*
X22213Y34D02*
Y1019D01*
X15028Y94227D02*
X16012D01*
X15520Y93735D02*
Y94719D01*
X15028Y80841D02*
X16012D01*
X15520Y80349D02*
Y81334D01*
X15028Y67456D02*
X16012D01*
X15520Y66963D02*
Y67948D01*
X15028Y54070D02*
X16012D01*
X15520Y53578D02*
Y54562D01*
X15028Y40684D02*
X16012D01*
X15520Y40192D02*
Y41176D01*
X15028Y27298D02*
X16012D01*
X15520Y26806D02*
Y27790D01*
X18374Y20605D02*
X19358D01*
X18866Y20113D02*
Y21097D01*
X15028Y13912D02*
X16012D01*
X15520Y13420D02*
Y14404D01*
X18374Y7219D02*
X19358D01*
X18866Y6727D02*
Y7711D01*
X15028Y526D02*
X16012D01*
X15520Y34D02*
Y1019D01*
X8335Y94227D02*
X9319D01*
X8827Y93735D02*
Y94719D01*
X11681Y87534D02*
X12665D01*
X12173Y87042D02*
Y88026D01*
X8335Y80841D02*
X9319D01*
X8827Y80349D02*
Y81334D01*
X11681Y74148D02*
X12665D01*
X12173Y73656D02*
Y74641D01*
X8335Y67456D02*
X9319D01*
X8827Y66963D02*
Y67948D01*
X11681Y60763D02*
X12665D01*
X12173Y60271D02*
Y61255D01*
X11681Y33991D02*
X12665D01*
X12173Y33499D02*
Y34483D01*
X8335Y27298D02*
X9319D01*
X8827Y26806D02*
Y27790D01*
X11681Y20605D02*
X12665D01*
X12173Y20113D02*
Y21097D01*
X8335Y13912D02*
X9319D01*
X8827Y13420D02*
Y14404D01*
X11681Y7219D02*
X12665D01*
X12173Y6727D02*
Y7711D01*
X8335Y526D02*
X9319D01*
X8827Y34D02*
Y1019D01*
X1642Y94227D02*
X2626D01*
X2134Y93735D02*
Y94719D01*
X4988Y87534D02*
X5972D01*
X5480Y87042D02*
Y88026D01*
X1642Y80841D02*
X2626D01*
X2134Y80349D02*
Y81334D01*
X4988Y74148D02*
X5972D01*
X5480Y73656D02*
Y74641D01*
X1642Y67456D02*
X2626D01*
X2134Y66963D02*
Y67948D01*
X4988Y60763D02*
X5972D01*
X5480Y60271D02*
Y61255D01*
X1642Y27298D02*
X2626D01*
X2134Y26806D02*
Y27790D01*
X4988Y20605D02*
X5972D01*
X5480Y20113D02*
Y21097D01*
X1642Y13912D02*
X2626D01*
X2134Y13420D02*
Y14404D01*
X4988Y7219D02*
X5972D01*
X5480Y6727D02*
Y7711D01*
X1642Y526D02*
X2626D01*
X2134Y34D02*
Y1019D01*
X126057Y101514D02*
X127041D01*
X126549Y101022D02*
Y102006D01*
X120252Y101542D02*
X121236D01*
X120744Y101050D02*
Y102034D01*
X113604Y101516D02*
X114588D01*
X114096Y101024D02*
Y102008D01*
X111201Y99040D02*
X112185D01*
X111693Y98548D02*
Y99532D01*
X119075Y76935D02*
X120059D01*
X119567Y76443D02*
Y77427D01*
X110315Y65905D02*
X111299D01*
X110807Y65413D02*
Y66397D01*
X128362Y59127D02*
X129346D01*
X128854Y58635D02*
Y59619D01*
X126947Y64894D02*
X127931D01*
X127439Y64402D02*
Y65386D01*
X107545Y99176D02*
X108529D01*
X108037Y98684D02*
Y99668D01*
X113783Y76064D02*
X114767D01*
X114275Y75572D02*
Y76556D01*
X111469Y82224D02*
X112453D01*
X111961Y81732D02*
Y82716D01*
X103908Y79071D02*
X104892D01*
X104400Y78579D02*
Y79563D01*
X36958Y84974D02*
X37942D01*
X37450Y84482D02*
Y85466D01*
X38730Y83211D02*
X39714D01*
X39222Y82719D02*
Y83703D01*
X42058Y67394D02*
X43042D01*
X42550Y66902D02*
Y67886D01*
X130658Y100021D02*
X131642D01*
X131150Y99529D02*
Y100513D01*
X22169Y57579D02*
X23153D01*
X22661Y57087D02*
Y58071D01*
X22574Y43765D02*
X23558D01*
X23066Y43273D02*
Y44257D01*
X22574Y49783D02*
X23558D01*
X23066Y49291D02*
Y50275D01*
X22231Y63816D02*
X23215D01*
X22723Y63324D02*
Y64308D01*
X21764Y75229D02*
X22748D01*
X22256Y74737D02*
Y75721D01*
X27995Y84598D02*
X28979D01*
X28487Y84106D02*
Y85090D01*
X21644Y84617D02*
X22628D01*
X22136Y84125D02*
Y85109D01*
X122866Y75555D02*
X123850D01*
X123358Y75063D02*
Y76047D01*
X126377Y76912D02*
X127361D01*
X126869Y76420D02*
Y77404D01*
X70384Y39344D02*
X71368D01*
X70876Y38852D02*
Y39836D01*
X50798Y39496D02*
X51782D01*
X51290Y39004D02*
Y39988D01*
X48324Y41489D02*
X49308D01*
X48816Y40997D02*
Y41981D01*
X58945Y41984D02*
X59929D01*
X59437Y41492D02*
Y42476D01*
X61316Y39525D02*
X62300D01*
X61808Y39033D02*
Y40017D01*
X87514Y63401D02*
X88498D01*
X88006Y62909D02*
Y63893D01*
X87546Y58275D02*
X88530D01*
X88038Y57783D02*
Y58767D01*
X87546Y52412D02*
X88530D01*
X88038Y51920D02*
Y52904D01*
X87531Y46510D02*
X88515D01*
X88023Y46018D02*
Y47002D01*
X91475Y53012D02*
X92459D01*
X91967Y52520D02*
Y53504D01*
X103043Y99772D02*
X104027D01*
X103535Y99280D02*
Y100264D01*
X22339Y39708D02*
X23323D01*
X22831Y39216D02*
Y40200D01*
X100786Y86348D02*
X101770D01*
X101278Y85856D02*
Y86840D01*
X85652Y48975D02*
X86636D01*
X86144Y48483D02*
Y49467D01*
X74956Y39308D02*
X75940D01*
X75448Y38816D02*
Y39800D01*
X67543Y39344D02*
X68527D01*
X68035Y38852D02*
Y39836D01*
X22829Y36796D02*
X23813D01*
X23321Y36304D02*
Y37288D01*
X19367Y87516D02*
X20351D01*
X19859Y87024D02*
Y88008D01*
X47737Y76511D02*
X48721D01*
X48229Y76019D02*
Y77003D01*
X43341Y76499D02*
X44325D01*
X43833Y76007D02*
Y76991D01*
X38614Y76558D02*
X39598D01*
X39106Y76066D02*
Y77050D01*
X31598Y81893D02*
X32582D01*
X32090Y81401D02*
Y82385D01*
X30537Y78624D02*
X31521D01*
X31029Y78132D02*
Y79117D01*
X35111Y79857D02*
X36095D01*
X35603Y79365D02*
Y80349D01*
X32943Y70699D02*
X33927D01*
X33435Y70207D02*
Y71191D01*
X120806Y59664D02*
X121790D01*
X121298Y59172D02*
Y60156D01*
X116993Y54053D02*
X117977D01*
X117485Y53561D02*
Y54545D01*
X117798Y51515D02*
X118782D01*
X118290Y51023D02*
Y52007D01*
X122086Y49697D02*
X123070D01*
X122578Y49205D02*
Y50189D01*
X116831Y62032D02*
X117815D01*
X117323Y61540D02*
Y62524D01*
X114848Y49559D02*
X115832D01*
X115340Y49067D02*
Y50051D01*
X120654Y56139D02*
X121638D01*
X121146Y55647D02*
Y56631D01*
X122149Y46650D02*
X123133D01*
X122641Y46158D02*
Y47142D01*
X113648Y72254D02*
X114632D01*
X114140Y71762D02*
Y72746D01*
X116260Y74069D02*
X117244D01*
X116752Y73577D02*
Y74561D01*
X119191Y69459D02*
X120175D01*
X119683Y68967D02*
Y69951D01*
X119890Y72044D02*
X120874D01*
X120382Y71552D02*
Y72536D01*
X111563Y88075D02*
X112547D01*
X112055Y87583D02*
Y88567D01*
X108530Y88544D02*
X109514D01*
X109022Y88052D02*
Y89036D01*
X86899Y38733D02*
X87883D01*
X87391Y38241D02*
Y39225D01*
X88394Y43628D02*
X89378D01*
X88886Y43136D02*
Y44120D01*
X120727Y89781D02*
X121711D01*
X121219Y89289D02*
Y90273D01*
X120350Y84237D02*
X121334D01*
X120842Y83745D02*
Y84729D01*
X144530Y74544D02*
X145514D01*
X145022Y74052D02*
Y75036D01*
X62237Y83078D02*
X63221D01*
X62729Y82586D02*
Y83570D01*
X61419Y80796D02*
X62403D01*
X61911Y80304D02*
Y81288D01*
X106552Y58001D02*
X107536D01*
X107044Y57509D02*
Y58493D01*
X110584Y53389D02*
X111568D01*
X111076Y52897D02*
Y53881D01*
X102482Y53601D02*
X103466D01*
X102974Y53109D02*
Y54093D01*
X110332Y62518D02*
X111316D01*
X110824Y62026D02*
Y63010D01*
X102773Y62440D02*
X103757D01*
X103265Y61948D02*
Y62932D01*
X106166Y65893D02*
X107150D01*
X106658Y65401D02*
Y66385D01*
X114127Y66049D02*
X115111D01*
X114619Y65557D02*
Y66541D01*
X104646Y22661D02*
X105630D01*
X105138Y22169D02*
Y23153D01*
X113298Y21163D02*
X114282D01*
X113790Y20671D02*
Y21655D01*
X108434Y21145D02*
X109418D01*
X108926Y20653D02*
Y21637D01*
X131099Y50728D02*
X132083D01*
X131591Y50236D02*
Y51220D01*
X128227Y52949D02*
X129211D01*
X128719Y52457D02*
Y53441D01*
X128244Y48966D02*
X129228D01*
X128736Y48474D02*
Y49458D01*
X129935Y44483D02*
X130919D01*
X130427Y43991D02*
Y44975D01*
X129992Y40340D02*
X130976D01*
X130484Y39848D02*
Y40832D01*
X124519Y15487D02*
X125503D01*
X125011Y14995D02*
Y15979D01*
X129819Y16575D02*
X130803D01*
X130311Y16083D02*
Y17067D01*
X91069Y13939D02*
X92053D01*
X91561Y13447D02*
Y14431D01*
X53768Y17817D02*
X54752D01*
X54260Y17325D02*
Y18309D01*
X50156Y17923D02*
X51140D01*
X50648Y17431D02*
Y18415D01*
X80062Y16812D02*
X81046D01*
X80554Y16320D02*
Y17304D01*
X85385Y16741D02*
X86369D01*
X85877Y16249D02*
Y17233D01*
X68096Y23901D02*
X69080D01*
X68588Y23409D02*
Y24393D01*
X64084Y18493D02*
X65068D01*
X64576Y18001D02*
Y18985D01*
X59374Y18667D02*
X60358D01*
X59866Y18175D02*
Y19159D01*
X56970Y21012D02*
X57954D01*
X57462Y20520D02*
Y21504D01*
X71003Y20838D02*
X71987D01*
X71495Y20346D02*
Y21330D01*
X72439Y69988D02*
X73423D01*
X72931Y69496D02*
Y70480D01*
X74986Y86844D02*
X75970D01*
X75478Y86352D02*
Y87336D01*
X66857Y86229D02*
X67841D01*
X67349Y85737D02*
Y86721D01*
X64653Y84132D02*
X65637D01*
X65145Y83640D02*
Y84624D01*
X2095Y53466D02*
X3079D01*
X2587Y52974D02*
Y53958D01*
X7070Y49789D02*
X8054D01*
X7562Y49297D02*
Y50281D01*
X7070Y42702D02*
X8054D01*
X7562Y42210D02*
Y43194D01*
X2075Y39706D02*
X3059D01*
X2567Y39214D02*
Y40198D01*
X11690Y39799D02*
X12674D01*
X12182Y39307D02*
Y40291D01*
X92701Y59083D02*
X93685D01*
X93193Y58591D02*
Y59575D01*
X93268Y55904D02*
X94252D01*
X93760Y55412D02*
Y56396D01*
X95040Y13873D02*
X96024D01*
X95532Y13381D02*
Y14365D01*
X95027Y53372D02*
X96011D01*
X95519Y52880D02*
Y53864D01*
X38880Y47311D02*
X39864D01*
X39372Y46819D02*
Y47803D01*
X42758Y43494D02*
X43742D01*
X43250Y43002D02*
Y43986D01*
X42679Y49068D02*
X43663D01*
X43171Y48576D02*
Y49560D01*
X117651Y48224D02*
X118635D01*
X118143Y47732D02*
Y48716D01*
X99738Y50054D02*
X100722D01*
X100230Y49562D02*
Y50546D01*
X52274Y46198D02*
X53258D01*
X52766Y45706D02*
Y46690D01*
X55062Y46470D02*
X56046D01*
X55554Y45978D02*
Y46962D01*
X61159Y43747D02*
X62143D01*
X61651Y43255D02*
Y44239D01*
X144508Y56637D02*
X145492D01*
X145000Y56145D02*
Y57129D01*
X134466Y56764D02*
X135450D01*
X134958Y56272D02*
Y57256D01*
X102978Y12623D02*
X103962D01*
X103470Y12131D02*
Y13115D01*
X83231Y45677D02*
X84215D01*
X83723Y45185D02*
Y46169D01*
X101631Y65965D02*
X102615D01*
X102123Y65473D02*
Y66457D01*
X98378Y66614D02*
X99362D01*
X98870Y66122D02*
Y67106D01*
X119600Y44577D02*
X120584D01*
X120092Y44085D02*
Y45069D01*
X88604Y22017D02*
X89588D01*
X89096Y21525D02*
Y22509D01*
X55904Y39453D02*
X56888D01*
X56396Y38961D02*
Y39945D01*
X53271Y41387D02*
X54255D01*
X53763Y40895D02*
Y41879D01*
X45488Y43947D02*
X46472D01*
X45980Y43455D02*
Y44439D01*
X45496Y54761D02*
X46480D01*
X45988Y54269D02*
Y55253D01*
X37966Y41959D02*
X38950D01*
X38458Y41467D02*
Y42451D01*
X48567Y49508D02*
X49551D01*
X49059Y49016D02*
Y50000D01*
X34005Y50691D02*
X34989D01*
X34497Y50199D02*
Y51183D01*
X54999Y30299D02*
X55983D01*
X55491Y29807D02*
Y30791D01*
X19481Y61238D02*
X20465D01*
X19973Y60746D02*
Y61730D01*
X42136Y31704D02*
X43120D01*
X42628Y31212D02*
Y32196D01*
X36648Y67737D02*
X37632D01*
X37140Y67245D02*
Y68229D01*
X24775Y80267D02*
X25759D01*
X25267Y79775D02*
Y80759D01*
X33855Y84099D02*
X34839D01*
X34347Y83607D02*
Y84591D01*
X30879Y76256D02*
X31863D01*
X31371Y75764D02*
Y76748D01*
X31948Y73868D02*
X32932D01*
X32440Y73376D02*
Y74360D01*
X65222Y93250D02*
X66206D01*
X65714Y92758D02*
Y93742D01*
X61387Y85434D02*
X62371D01*
X61879Y84942D02*
Y85926D01*
X101133Y20692D02*
X102117D01*
X101625Y20200D02*
Y21184D01*
X93322Y11360D02*
X94306D01*
X93814Y10868D02*
Y11852D01*
X107031Y14210D02*
X108015D01*
X107523Y13718D02*
Y14702D01*
X104821Y20065D02*
X105805D01*
X105313Y19573D02*
Y20557D01*
X96957Y50361D02*
X97941D01*
X97449Y49869D02*
Y50853D01*
X74162Y82683D02*
X75146D01*
X74654Y82191D02*
Y83175D01*
X37156Y32348D02*
X38140D01*
X37648Y31856D02*
Y32840D01*
X37155Y16346D02*
X38139D01*
X37647Y15854D02*
Y16838D01*
X42107Y16346D02*
X43091D01*
X42599Y15854D02*
Y16838D01*
X123839Y40277D02*
X124823D01*
X124331Y39785D02*
Y40769D01*
X90368Y64399D02*
X91352D01*
X90860Y63907D02*
Y64891D01*
X124064Y71419D02*
X125048D01*
X124556Y70927D02*
Y71911D01*
X126701Y55818D02*
X127685D01*
X127193Y55326D02*
Y56310D01*
X95993Y58212D02*
X96977D01*
X96485Y57720D02*
Y58704D01*
X27012Y36373D02*
X27996D01*
X27504Y35881D02*
Y36865D01*
X124652Y49930D02*
X125636D01*
X125144Y49438D02*
Y50422D01*
X123647Y43289D02*
X124631D01*
X124139Y42797D02*
Y43781D01*
X24747Y34430D02*
X25731D01*
X25239Y33938D02*
Y34922D01*
X28985Y38134D02*
X29969D01*
X29477Y37642D02*
Y38626D01*
X28435Y32032D02*
X29419D01*
X28927Y31540D02*
Y32524D01*
X61833Y93070D02*
X62817D01*
X62325Y92578D02*
Y93562D01*
X58385Y24172D02*
X59369D01*
X58877Y23680D02*
Y24664D01*
X55420Y24521D02*
X56404D01*
X55912Y24029D02*
Y25013D01*
X65759Y13569D02*
X66743D01*
X66251Y13077D02*
Y14061D01*
X65944Y21865D02*
X66928D01*
X66436Y21373D02*
Y22357D01*
X73388Y18338D02*
X74372D01*
X73880Y17846D02*
Y18830D01*
X76063Y32125D02*
X77047D01*
X76555Y31633D02*
Y32617D01*
X17088Y46603D02*
X18072D01*
X17580Y46111D02*
Y47095D01*
X33366Y67459D02*
X34350D01*
X33858Y66967D02*
Y67951D01*
X66397Y76706D02*
X67381D01*
X66889Y76214D02*
Y77198D01*
X71650Y63952D02*
X72634D01*
X72142Y63460D02*
Y64444D01*
X29869Y94407D02*
X30853D01*
X30361Y93915D02*
Y94899D01*
X49123Y87034D02*
X50107D01*
X49615Y86542D02*
Y87526D01*
X65732Y89718D02*
X66716D01*
X66224Y89226D02*
Y90210D01*
X70454Y51658D02*
X71438D01*
X70946Y51166D02*
Y52150D01*
X34073Y45930D02*
X35057D01*
X34565Y45438D02*
Y46422D01*
X36790Y56758D02*
X37774D01*
X37282Y56266D02*
Y57250D01*
X34007Y54244D02*
X34991D01*
X34499Y53752D02*
Y54736D01*
X70327Y46029D02*
X71311D01*
X70819Y45537D02*
Y46521D01*
X75379Y44182D02*
X76363D01*
X75871Y43690D02*
Y44674D01*
X67009Y44718D02*
X67993D01*
X67501Y44226D02*
Y45210D01*
X36381Y64466D02*
X37365D01*
X36873Y63974D02*
Y64958D01*
X39043Y66696D02*
X40027D01*
X39535Y66204D02*
Y67188D01*
X42652Y87367D02*
X43636D01*
X43144Y86875D02*
Y87859D01*
X55900Y13482D02*
X56884D01*
X56392Y12990D02*
Y13974D01*
X75019Y54302D02*
X76003D01*
X75511Y53810D02*
Y54794D01*
X77037Y51708D02*
X78021D01*
X77529Y51216D02*
Y52200D01*
X79248Y54206D02*
X80232D01*
X79740Y53714D02*
Y54698D01*
X60675Y13542D02*
X61659D01*
X61167Y13050D02*
Y14034D01*
X69717Y14548D02*
X70701D01*
X70209Y14056D02*
Y15040D01*
X69995Y62256D02*
X70979D01*
X70487Y61764D02*
Y62748D01*
X48363Y46235D02*
X49347D01*
X48855Y45743D02*
Y46727D01*
X52202Y50062D02*
X53186D01*
X52694Y49570D02*
Y50554D01*
X25512Y29506D02*
X26496D01*
X26004Y29014D02*
Y29998D01*
X81005Y82809D02*
X81989D01*
X81497Y82317D02*
Y83301D01*
X68581Y78692D02*
X69565D01*
X69073Y78200D02*
Y79184D01*
X6912Y34179D02*
X7896D01*
X7404Y33687D02*
Y34671D01*
X126660Y62082D02*
X127644D01*
X127152Y61590D02*
Y62574D01*
X54508Y93260D02*
X55492D01*
X55000Y92768D02*
Y93752D01*
X26738Y90453D02*
X27722D01*
X27230Y89961D02*
Y90945D01*
X124503Y68531D02*
X125487D01*
X124995Y68039D02*
Y69023D01*
X79350Y70110D02*
X80334D01*
X79842Y69618D02*
Y70602D01*
X54177Y65284D02*
X55161D01*
X54669Y64792D02*
Y65776D01*
X54177Y73158D02*
X55161D01*
X54669Y72666D02*
Y73650D01*
X54177Y69221D02*
X55161D01*
X54669Y68729D02*
Y69713D01*
X58114Y65284D02*
X59098D01*
X58606Y64792D02*
Y65776D01*
X62051Y65284D02*
X63035D01*
X62543Y64792D02*
Y65776D01*
X58114Y69221D02*
X59098D01*
X58606Y68729D02*
Y69713D01*
X58114Y73158D02*
X59098D01*
X58606Y72666D02*
Y73650D01*
X62051Y69221D02*
X63035D01*
X62543Y68729D02*
Y69713D01*
X62051Y73158D02*
X63035D01*
X62543Y72666D02*
Y73650D01*
X98164Y97505D02*
X99148D01*
X98656Y97013D02*
Y97997D01*
X97887Y92375D02*
X98871D01*
X98379Y91883D02*
Y92867D01*
X45866Y82740D02*
X46850D01*
X46358Y82248D02*
Y83232D01*
X24449Y72108D02*
X25433D01*
X24941Y71616D02*
Y72600D01*
X47111Y16371D02*
X48095D01*
X47603Y15879D02*
Y16863D01*
X39093Y64139D02*
X40077D01*
X39585Y63647D02*
Y64631D01*
X42059Y62900D02*
X43043D01*
X42551Y62408D02*
Y63392D01*
X54943Y58101D02*
X55927D01*
X55435Y57609D02*
Y58593D01*
X40735Y60717D02*
X41719D01*
X41227Y60225D02*
Y61209D01*
X41648Y56549D02*
X42632D01*
X42140Y56057D02*
Y57041D01*
X38617Y53868D02*
X39601D01*
X39109Y53376D02*
Y54360D01*
X42758Y52987D02*
X43742D01*
X43250Y52495D02*
Y53479D01*
X52118Y53456D02*
X53102D01*
X52610Y52964D02*
Y53948D01*
X57177Y54373D02*
X58161D01*
X57669Y53881D02*
Y54865D01*
X59315Y54351D02*
X60299D01*
X59807Y53859D02*
Y54843D01*
X70418Y54086D02*
X71402D01*
X70910Y53594D02*
Y54578D01*
X67543Y56112D02*
X68527D01*
X68035Y55620D02*
Y56604D01*
X69677Y56736D02*
X70661D01*
X70169Y56244D02*
Y57228D01*
X69521Y43799D02*
X70505D01*
X70013Y43307D02*
Y44291D01*
X79530Y78107D02*
X80514D01*
X80022Y77615D02*
Y78599D01*
X77919Y80486D02*
X78903D01*
X78411Y79994D02*
Y80978D01*
X77884Y75857D02*
X78868D01*
X78376Y75365D02*
Y76349D01*
X53453Y86630D02*
X54437D01*
X53945Y86138D02*
Y87122D01*
X134437Y46117D02*
X135421D01*
X134929Y45625D02*
Y46609D01*
X134507Y39967D02*
X135491D01*
X134999Y39475D02*
Y40459D01*
X143952Y46064D02*
X144936D01*
X144444Y45572D02*
Y46556D01*
X143899Y53235D02*
X144883D01*
X144391Y52743D02*
Y53727D01*
X134490Y53253D02*
X135474D01*
X134982Y52761D02*
Y53745D01*
X143882Y39826D02*
X144866D01*
X144374Y39334D02*
Y40318D01*
X139349Y49598D02*
X140333D01*
X139841Y49106D02*
Y50090D01*
X139318Y43095D02*
X140302D01*
X139810Y42603D02*
Y43587D01*
X95311Y72067D02*
X96295D01*
X95803Y71575D02*
Y72559D01*
X137463Y88078D02*
X138447D01*
X137955Y87586D02*
Y88570D01*
X37472Y18830D02*
X38456D01*
X37964Y18338D02*
Y19322D01*
X42323Y18838D02*
X43307D01*
X42815Y18346D02*
Y19330D01*
X46701Y32736D02*
X47685D01*
X47193Y32244D02*
Y33228D01*
X32755Y32744D02*
X33739D01*
X33247Y32252D02*
Y33236D01*
X144560Y95540D02*
X145544D01*
X145052Y95048D02*
Y96032D01*
X144561Y87701D02*
X145545D01*
X145053Y87209D02*
Y88193D01*
X144836Y34043D02*
X145820D01*
X145328Y33551D02*
Y34535D01*
X144836Y21556D02*
X145820D01*
X145328Y21064D02*
Y22048D01*
X144836Y9070D02*
X145820D01*
X145328Y8578D02*
Y9562D01*
X7011Y56633D02*
X7995D01*
X7503Y56141D02*
Y57125D01*
X1955Y46623D02*
X2939D01*
X2447Y46131D02*
Y47115D01*
X11939Y46701D02*
X12923D01*
X12431Y46209D02*
Y47193D01*
X11759Y53486D02*
X12743D01*
X12251Y52994D02*
Y53978D01*
X132346Y76849D02*
X133330D01*
X132838Y76357D02*
Y77341D01*
X39941Y98066D02*
X40925D01*
X40433Y97574D02*
Y98558D01*
X56311Y86798D02*
X57295D01*
X56803Y86306D02*
Y87290D01*
X56304Y90895D02*
X57288D01*
X56796Y90403D02*
Y91387D01*
X61387Y89319D02*
X62371D01*
X61879Y88827D02*
Y89811D01*
X63004Y87349D02*
X63988D01*
X63496Y86857D02*
Y87841D01*
X87322Y70298D02*
X88306D01*
X87814Y69806D02*
Y70790D01*
X91163Y71451D02*
X92147D01*
X91655Y70959D02*
Y71943D01*
X106054Y92167D02*
X107038D01*
X106546Y91675D02*
Y92659D01*
X116727Y6332D02*
X117711D01*
X117219Y5840D02*
Y6824D01*
X130238Y9251D02*
X131222D01*
X130730Y8759D02*
Y9743D01*
X105426Y10861D02*
X106410D01*
X105918Y10369D02*
Y11353D01*
X33606Y98059D02*
X34590D01*
X34098Y97567D02*
Y98551D01*
X26782Y98059D02*
X27766D01*
X27274Y97567D02*
Y98551D01*
X106374Y75421D02*
X107358D01*
X106866Y74929D02*
Y75913D01*
X81877Y86829D02*
X82861D01*
X82369Y86337D02*
Y87321D01*
X1070Y98066D02*
X2054D01*
X1562Y97574D02*
Y98558D01*
X6859Y98066D02*
X7843D01*
X7351Y97574D02*
Y98558D01*
X13492Y98066D02*
X14476D01*
X13984Y97574D02*
Y98558D01*
X46150Y98144D02*
X47134D01*
X46642Y97652D02*
Y98636D01*
X84201Y98066D02*
X85185D01*
X84693Y97574D02*
Y98558D01*
X74050Y93250D02*
X75034D01*
X74542Y92758D02*
Y93742D01*
X76710Y90634D02*
X77694D01*
X77202Y90142D02*
Y91126D01*
X69030Y93229D02*
X70014D01*
X69522Y92737D02*
Y93721D01*
X71356Y90730D02*
X72340D01*
X71848Y90238D02*
Y91222D01*
X105309Y101518D02*
X106293D01*
X105801Y101026D02*
Y102010D01*
X144548Y101498D02*
X145532D01*
X145040Y101006D02*
Y101990D01*
X139959Y99898D02*
X140943D01*
X140451Y99406D02*
Y100390D01*
X135863Y101551D02*
X136847D01*
X136355Y101059D02*
Y102043D01*
X144655Y80635D02*
X145639D01*
X145147Y80143D02*
Y81127D01*
X140070Y76835D02*
X141054D01*
X140562Y76343D02*
Y77327D01*
X111330Y73964D02*
X112314D01*
X111822Y73472D02*
Y74456D01*
X113670Y79440D02*
X114654D01*
X114162Y78948D02*
Y79932D01*
X113693Y96827D02*
X114677D01*
X114185Y96335D02*
Y97319D01*
X113692Y91374D02*
X114676D01*
X114184Y90882D02*
Y91866D01*
X113669Y85313D02*
X114653D01*
X114161Y84821D02*
Y85805D01*
X84670Y87532D02*
X85654D01*
X85162Y87040D02*
Y88024D01*
X100384Y95137D02*
X101368D01*
X100876Y94645D02*
Y95629D01*
X88001Y101226D02*
X88985D01*
X88493Y100734D02*
Y101718D01*
X94144Y101301D02*
X95128D01*
X94636Y100809D02*
Y101793D01*
X99671Y101186D02*
X100655D01*
X100163Y100694D02*
Y101678D01*
X61355Y98115D02*
X62339D01*
X61847Y97623D02*
Y98607D01*
X74918Y98200D02*
X75902D01*
X75410Y97708D02*
Y98692D01*
X78759Y95964D02*
X79743D01*
X79251Y95472D02*
Y96456D01*
X52634Y98173D02*
X53618D01*
X53126Y97681D02*
Y98665D01*
X32935Y90460D02*
X33919D01*
X33427Y89968D02*
Y90952D01*
X36778Y94463D02*
X37762D01*
X37270Y93971D02*
Y94955D01*
X38598Y90121D02*
X39582D01*
X39090Y89629D02*
Y90613D01*
X43485Y93469D02*
X44469D01*
X43977Y92977D02*
Y93961D01*
X45905Y91333D02*
X46889D01*
X46397Y90841D02*
Y91825D01*
X21348Y90323D02*
X22332D01*
X21840Y89831D02*
Y90815D01*
X98013Y76174D02*
X98997D01*
X98505Y75682D02*
Y76666D01*
X87589Y74940D02*
X88573D01*
X88081Y74448D02*
Y75432D01*
X106097Y70769D02*
X107081D01*
X106589Y70277D02*
Y71261D01*
X102842Y70769D02*
X103826D01*
X103334Y70277D02*
Y71261D01*
X103679Y74772D02*
X104663D01*
X104171Y74280D02*
Y75264D01*
X92503Y76046D02*
X93487D01*
X92995Y75554D02*
Y76538D01*
X85376Y79534D02*
X86360D01*
X85868Y79042D02*
Y80026D01*
X99779Y90180D02*
X100763D01*
X100271Y89688D02*
Y90672D01*
X103782Y85865D02*
X104766D01*
X104274Y85373D02*
Y86357D01*
X90589Y80768D02*
X91573D01*
X91081Y80276D02*
Y81260D01*
X97035Y80832D02*
X98019D01*
X97527Y80340D02*
Y81324D01*
X49071Y93263D02*
X50055D01*
X49563Y92771D02*
Y93755D01*
X51980Y91333D02*
X52964D01*
X52472Y90841D02*
Y91825D01*
X20666Y98087D02*
X21650D01*
X21158Y97595D02*
Y98579D01*
X16611Y89144D02*
X17595D01*
X17103Y88652D02*
Y89636D01*
X68349Y98173D02*
X69333D01*
X68841Y97681D02*
Y98665D01*
X144610Y65432D02*
X145594D01*
X145102Y64940D02*
Y65924D01*
X134079Y65572D02*
X135063D01*
X134571Y65080D02*
Y66064D01*
X129134Y72364D02*
X130118D01*
X129626Y71872D02*
Y72856D01*
X133377Y70393D02*
X134361D01*
X133869Y69901D02*
Y70885D01*
X78489Y44246D02*
X79473D01*
X78981Y43754D02*
Y44738D01*
X77209Y39344D02*
X78193D01*
X77701Y38852D02*
Y39836D01*
X78456Y28625D02*
X79440D01*
X78948Y28133D02*
Y29117D01*
X83320Y27958D02*
X84304D01*
X83812Y27466D02*
Y28450D01*
X29700Y10001D02*
X30684D01*
X30192Y9509D02*
Y10493D01*
X28314Y22228D02*
X29298D01*
X28806Y21736D02*
Y22720D01*
X32073Y19235D02*
X33057D01*
X32565Y18743D02*
Y19727D01*
X79033Y25313D02*
X80017D01*
X79525Y24821D02*
Y25805D01*
X81570Y23742D02*
X82554D01*
X82062Y23250D02*
Y24234D01*
X89419Y25606D02*
X90403D01*
X89911Y25114D02*
Y26098D01*
X91445Y48048D02*
X92429D01*
X91937Y47556D02*
Y48540D01*
X91282Y44755D02*
X92266D01*
X91774Y44263D02*
Y45247D01*
X100193Y29068D02*
X101177D01*
X100685Y28576D02*
Y29560D01*
X129035Y25490D02*
X130019D01*
X129527Y24998D02*
Y25982D01*
X128919Y27981D02*
X129903D01*
X129411Y27489D02*
Y28473D01*
X112200Y40518D02*
X113184D01*
X112692Y40026D02*
Y41010D01*
X110439Y38276D02*
X111423D01*
X110931Y37784D02*
Y38768D01*
X134677Y36629D02*
X135661D01*
X135169Y36137D02*
Y37121D01*
X128125Y20578D02*
X129109D01*
X128617Y20086D02*
Y21070D01*
X113351Y34908D02*
X114335D01*
X113843Y34416D02*
Y35400D01*
X126521Y29512D02*
X127505D01*
X127013Y29020D02*
Y30004D01*
M02*
