M48
;Layer_Color=9474304
;FILE_FORMAT=2:5
INCH,LZ
;TYPE=PLATED
T1F00S00C0.00984
T2F00S00C0.02953
T3F00S00C0.03937
%
T01
X0002134Y0000526
X0008827
X001552
X0012173Y0007219
X000548
X0002134Y0013912
X0008827
X001552
X0012173Y0020605
X000548
X0002134Y0027298
X0008827
X001552
X0012173Y0033991
X0007404Y0034179
X0007562Y0042702
Y0049789
X0007503Y0056633
X000548Y0060763
X0012173
X0012251Y0053486
X001552Y005407
X0012431Y0046701
X0012182Y0039799
X001552Y0040684
X0002567Y0039706
X0002447Y0046623
X0002587Y0053466
X0002134Y0067456
X0008827
X001552
X0012173Y0074148
X000548
X0002134Y0080841
X0008827
X001552
X0012173Y0087534
X000548
X0002134Y0094227
X0001562Y0098066
X0007351
X0008827Y0094227
X001552
X0013984Y0098066
X0021158Y0098087
X0022213Y0094227
X002184Y0090323
X0019859Y0087516
X0017103Y0089144
X0022136Y0084617
X0022213Y0080841
X0025267Y0080267
X0031029Y0078624
X0031371Y0076256
X003244Y0073868
X0033435Y0070699
X0033858Y0067459
X003714Y0067737
X0039535Y0066696
X0039585Y0064139
X0036873Y0064466
X0042551Y00629
X0041227Y0060717
X004214Y0056549
X004325Y0052987
X0043171Y0049068
X0039372Y0047311
X0034565Y004593
X0034497Y0050691
X0034499Y0054244
X0039109Y0053868
X0037282Y0056758
X0045988Y0054761
X005261Y0053456
X0052694Y0050062
X0052766Y0046198
X0055554Y004647
X0053763Y0041387
X005129Y0039496
X0048816Y0041489
X0048855Y0046235
X0049059Y0049508
X004598Y0043947
X004325Y0043494
X0042291Y0040684
X0038458Y0041959
X0037648Y0032348
X0033247Y0032744
X0028927Y0032032
X0028905Y0027298
X0026004Y0029506
X0025239Y003443
X0027504Y0036373
X0029477Y0038134
X0023321Y0036796
X0022831Y0039708
X0023066Y0043765
Y0049783
X0022213Y005407
X0022661Y0057579
X0022723Y0063816
X0022213Y0067456
X0024941Y0072108
X0022256Y0075229
X0028487Y0084598
X003209Y0081893
X0034347Y0084099
X003745Y0084974
X0039222Y0083211
X0039106Y0076558
X0043833Y0076499
X0048229Y0076511
X0046358Y008274
X0049615Y0087034
X0053945Y008663
X0056803Y0086798
X0056796Y0090895
X0055Y009326
X0052472Y0091333
X0049563Y0093263
X0046397Y0091333
X0043977Y0093469
X0043144Y0087367
X003909Y0090121
X0033427Y009046
X002723Y0090453
X0030361Y0094407
X0027274Y0098059
X0034098
X0040433Y0098066
X0046642Y0098144
X0053126Y0098173
X0061847Y0098115
X0062325Y009307
X0065714Y009325
X0069522Y0093229
X0071848Y009073
X0074542Y009325
X0077202Y0090634
X0075478Y0086844
X0074654Y0082683
X0078411Y0080486
X0080022Y0078107
X0078376Y0075857
X0079842Y007011
X0072931Y0069988
X0072142Y0063952
X0070487Y0062256
X0075394Y0061603
X007806Y0061592
X007974Y0054206
X0075511Y0054302
X0077529Y0051708
X0070946Y0051658
X007091Y0054086
X0070169Y0056736
X0068035Y0056112
X0059807Y0054351
X0057669Y0054373
X0055435Y0058101
X0054669Y0065284
X0058606
Y0069221
X0054669
Y0073158
X0058606
X0062543
Y0069221
Y0065284
X0066889Y0076706
X0069073Y0078692
X0067349Y0086229
X0065145Y0084132
X0062729Y0083078
X0061911Y0080796
X0061879Y0085434
X0063496Y0087349
X0061879Y0089319
X0066224Y0089718
X0068841Y0098173
X007541Y00982
X0079251Y0095964
X0082449Y0094227
X0084693Y0098066
X0088493Y0101226
X0094636Y0101301
X0100163Y0101186
X0103535Y0099772
X0105801Y0101518
X0108037Y0099176
X0111693Y009904
X0114185Y0096827
X0114096Y0101516
X0120744Y0101542
X0126549Y0101514
X013115Y0100021
X0136355Y0101551
X0140451Y0099898
X014504Y0101498
X0145052Y009554
X0145053Y0087701
X0145147Y0080635
X0145022Y0074544
X0140562Y0076835
X0132838Y0076849
X0126869Y0076912
X0123358Y0075555
X0119567Y0076935
X0116752Y0074069
X011414Y0072254
X0114275Y0076064
X0114162Y007944
X0111961Y0082224
X0114161Y0085313
X0112055Y0088075
X0109022Y0088544
X0106546Y0092167
X0100271Y009018
X0098379Y0092375
X0100876Y0095137
X0098656Y0097505
X0101278Y0086348
X0104274Y0085865
X01044Y0079071
X0104171Y0074772
X0106866Y0075421
X0106589Y0070769
X0103334
X0102123Y0065965
X009887Y0066614
X0106658Y0065893
X0110807Y0065905
X0110824Y0062518
X0117323Y0062032
X0121298Y0059664
X0121146Y0056139
X0117485Y0054053
X011829Y0051515
X0118143Y0048224
X011534Y0049559
X0110874Y0047456
X0106476Y0047514
X0102078
X010023Y0050054
X0097449Y0050361
X0097403Y0047485
X0091937Y0048048
X0091774Y0044755
X0088886Y0043628
X0088023Y004651
X0086144Y0048975
X0088038Y0052412
X0091967Y0053012
X0095519Y0053372
X009376Y0055904
X0093193Y0059083
X0096485Y0058212
X0088038Y0058275
X0088006Y0063401
X009086Y0064399
X0091655Y0071451
X0095803Y0072067
X0092995Y0076046
X0098505Y0076174
X0097527Y0080832
X0091081Y0080768
X0085868Y0079534
X0088081Y007494
X0087814Y0070298
X0081497Y0082809
X0082369Y0086829
X0085162Y0087532
X0114184Y0091374
X0121219Y0089781
X0120842Y0084237
X0120382Y0072044
X0119683Y0069459
X0124995Y0068531
X0124556Y0071419
X0129626Y0072364
X0129299Y0067456
X0127439Y0064894
X0127152Y0062082
X0128854Y0059127
X0127193Y0055818
X0128719Y0052949
X0128736Y0048966
X0125144Y004993
X0122578Y0049697
X0122641Y004665
X0120092Y0044577
X0124139Y0043289
X0124331Y0040277
X0130484Y004034
X0131902Y0042247
X0130427Y0044483
X0134929Y0046117
X0134999Y0039967
X0135169Y0036629
X0138193Y00344
X0141701Y0032422
X0145328Y0034043
X0144374Y0039826
X0144444Y0046064
X0144391Y0053235
X0145Y0056637
X0145102Y0065432
X0134571Y0065572
X0133869Y0070393
X0134958Y0056764
X0134982Y0053253
X0131591Y0050728
X0139841Y0049598
X013981Y0043095
X0133184Y003304
X0131104Y0032136
X0130878Y0035238
X0131999Y0027678
X0132271Y0025246
X0129527Y002549
X0129411Y0027981
X0127013Y0029512
X0134152Y0029373
X0136351Y0026782
X0138539Y0023892
X0139339Y0020605
X0134336Y0019513
X0133873Y0016262
X0130311Y0016575
X0128617Y0020578
X0125011Y0015487
X0125288Y0009423
X0120281Y0009607
X0117567Y0012186
X0114253Y001391
X0114234Y0009588
X0109223Y000946
X0105918Y0010861
X0105874Y0007219
X0099181
X009667Y0010206
X0093814Y001136
X0095532Y0013873
X0091561Y0013939
X0089859Y0018517
X0089096Y0022017
X0086448Y0023762
X008422Y0021912
X0082062Y0023742
X0079525Y0025313
X0078948Y0028625
X0078977Y0032091
X0076555Y0032125
X0076332Y0027526
X0074995Y0025036
X0077543Y0022502
X0071495Y0020838
X007388Y0018338
X0070209Y0014548
X0066251Y0013569
X0061167Y0013542
X0056392Y0013482
X005426Y0017817
X0050648Y0017923
X0047603Y0016371
X0042599Y0016346
X0042815Y0018838
X0037964Y001883
X0037647Y0016346
X0032565Y0019235
X0028806Y0022228
X0028905Y0013912
X0030192Y0010001
X0028905Y0000526
X0022213
X0018866Y0007219
X0022213Y0013912
X0018866Y0020605
X0022213Y0027298
X001758Y0046603
X0019973Y0061238
X004255Y0067394
X0035603Y0079857
X003727Y0094463
X0042628Y0031704
X0047193Y0032736
X0055491Y0030299
X0058945Y0031686
X0064423
X0066505Y0029443
X007035Y0031606
X0072056Y0027989
X0068588Y0023901
X0066436Y0021865
X0064576Y0018493
X0059866Y0018667
X0057462Y0021012
X0058877Y0024172
X0055912Y0024521
X0056396Y0039453
X0061808Y0039525
X0061651Y0043747
X0059437Y0041984
X0067501Y0044718
X0070013Y0043799
X0070819Y0046029
X0070876Y0039344
X0068035
X0075448Y0039308
X0077701Y0039344
X0078981Y0044246
X0075871Y0044182
X0083723Y0045677
X0084009Y003566
X0087322Y0036407
X0087391Y0038733
X0089967Y003372
X0088359Y0027695
X0089911Y0025606
X0083812Y0027958
X0085877Y0016741
X0080554Y0016812
X0082958Y0012404
X0075822Y0012787
X0079102Y0007219
X0072409
X0065716
X0059024
X0055677Y0000526
X0048984
X0042291
X0035598
X006237
X0069063
X0075756
X0082449
X0089142
X0095835
X0102527
X010922
X0115913
X0122606
X0129299
X0128254Y000516
X013073Y0009251
X0135992Y0013912
X0142685
X0145328Y000907
X0139339Y0007219
X0135992Y0000526
X0142685
X0145328Y0021556
X0142685Y0027298
X0113931Y0030414
X0113843Y0034908
X0114877Y0038934
X0112692Y0040518
X0110931Y0038276
X0108371Y0036618
X0108782Y0032329
X0105874Y0033991
X010342Y0030793
X0100685Y0029068
X010105Y0026256
X010098Y0023313
X0101625Y0020692
X0105313Y0020065
X0105138Y0022661
X0108926Y0021145
X011379Y0021163
X0111266Y0025548
X0109047Y0027867
X0107523Y001421
X010347Y0012623
X0092488Y0007219
X0085795
X0117219Y0006332
X0116955Y0040694
X0103744Y0039023
X010111Y0036495
X0097516Y0039121
X010435Y0050383
X0108747Y0050266
X0111076Y0053389
X0102974Y0053601
X0107044Y0058001
X0103265Y006244
X0114619Y0066049
X0111822Y0073964
X0137955Y0088078
T02
X0111783Y0005318
X0122878
X0133553
T03
X01397Y0060654
Y0070654
M30
