G04 Layer_Physical_Order=1*
G04 Layer_Color=255*
%FSLAX25Y25*%
%MOIN*%
G70*
G01*
G75*
%ADD10R,0.01400X0.01400*%
%ADD11R,0.01400X0.01400*%
%ADD12R,0.02913X0.10984*%
%ADD13R,0.01575X0.00984*%
%ADD14R,0.01575X0.02756*%
%ADD15R,0.02362X0.02559*%
%ADD16R,0.05906X0.09449*%
G04:AMPARAMS|DCode=17|XSize=31.89mil|YSize=16.54mil|CornerRadius=2.07mil|HoleSize=0mil|Usage=FLASHONLY|Rotation=180.000|XOffset=0mil|YOffset=0mil|HoleType=Round|Shape=RoundedRectangle|*
%AMROUNDEDRECTD17*
21,1,0.03189,0.01240,0,0,180.0*
21,1,0.02776,0.01654,0,0,180.0*
1,1,0.00413,-0.01388,0.00620*
1,1,0.00413,0.01388,0.00620*
1,1,0.00413,0.01388,-0.00620*
1,1,0.00413,-0.01388,-0.00620*
%
%ADD17ROUNDEDRECTD17*%
G04:AMPARAMS|DCode=18|XSize=61.81mil|YSize=16.14mil|CornerRadius=2.02mil|HoleSize=0mil|Usage=FLASHONLY|Rotation=0.000|XOffset=0mil|YOffset=0mil|HoleType=Round|Shape=RoundedRectangle|*
%AMROUNDEDRECTD18*
21,1,0.06181,0.01211,0,0,0.0*
21,1,0.05778,0.01614,0,0,0.0*
1,1,0.00404,0.02889,-0.00605*
1,1,0.00404,-0.02889,-0.00605*
1,1,0.00404,-0.02889,0.00605*
1,1,0.00404,0.02889,0.00605*
%
%ADD18ROUNDEDRECTD18*%
%ADD19R,0.10630X0.12205*%
%ADD20R,0.03347X0.01181*%
%ADD21R,0.03937X0.03937*%
%ADD22R,0.08661X0.04134*%
%ADD23R,0.04134X0.03937*%
%ADD24R,0.02559X0.02362*%
%ADD25C,0.03937*%
%ADD26R,0.03740X0.03543*%
G04:AMPARAMS|DCode=27|XSize=39.37mil|YSize=70.87mil|CornerRadius=4.92mil|HoleSize=0mil|Usage=FLASHONLY|Rotation=270.000|XOffset=0mil|YOffset=0mil|HoleType=Round|Shape=RoundedRectangle|*
%AMROUNDEDRECTD27*
21,1,0.03937,0.06102,0,0,270.0*
21,1,0.02953,0.07087,0,0,270.0*
1,1,0.00984,-0.03051,-0.01476*
1,1,0.00984,-0.03051,0.01476*
1,1,0.00984,0.03051,0.01476*
1,1,0.00984,0.03051,-0.01476*
%
%ADD27ROUNDEDRECTD27*%
G04:AMPARAMS|DCode=28|XSize=37.4mil|YSize=33.47mil|CornerRadius=3.35mil|HoleSize=0mil|Usage=FLASHONLY|Rotation=90.000|XOffset=0mil|YOffset=0mil|HoleType=Round|Shape=RoundedRectangle|*
%AMROUNDEDRECTD28*
21,1,0.03740,0.02677,0,0,90.0*
21,1,0.03071,0.03347,0,0,90.0*
1,1,0.00669,0.01339,0.01535*
1,1,0.00669,0.01339,-0.01535*
1,1,0.00669,-0.01339,-0.01535*
1,1,0.00669,-0.01339,0.01535*
%
%ADD28ROUNDEDRECTD28*%
G04:AMPARAMS|DCode=29|XSize=8.66mil|YSize=29.92mil|CornerRadius=2.17mil|HoleSize=0mil|Usage=FLASHONLY|Rotation=180.000|XOffset=0mil|YOffset=0mil|HoleType=Round|Shape=RoundedRectangle|*
%AMROUNDEDRECTD29*
21,1,0.00866,0.02559,0,0,180.0*
21,1,0.00433,0.02992,0,0,180.0*
1,1,0.00433,-0.00217,0.01280*
1,1,0.00433,0.00217,0.01280*
1,1,0.00433,0.00217,-0.01280*
1,1,0.00433,-0.00217,-0.01280*
%
%ADD29ROUNDEDRECTD29*%
G04:AMPARAMS|DCode=30|XSize=8.66mil|YSize=29.92mil|CornerRadius=2.17mil|HoleSize=0mil|Usage=FLASHONLY|Rotation=270.000|XOffset=0mil|YOffset=0mil|HoleType=Round|Shape=RoundedRectangle|*
%AMROUNDEDRECTD30*
21,1,0.00866,0.02559,0,0,270.0*
21,1,0.00433,0.02992,0,0,270.0*
1,1,0.00433,-0.01280,-0.00217*
1,1,0.00433,-0.01280,0.00217*
1,1,0.00433,0.01280,0.00217*
1,1,0.00433,0.01280,-0.00217*
%
%ADD30ROUNDEDRECTD30*%
%ADD31R,0.11024X0.11024*%
%ADD32C,0.01000*%
%ADD33C,0.00600*%
%ADD34C,0.00400*%
%ADD35C,0.01200*%
%ADD36C,0.00866*%
%ADD37C,0.01402*%
%ADD38C,0.02000*%
%ADD39C,0.00800*%
%ADD40C,0.00492*%
%ADD41C,0.00402*%
%ADD42C,0.00500*%
%ADD43C,0.01100*%
%ADD44C,0.00866*%
%ADD45C,0.01969*%
%ADD46C,0.00700*%
%ADD47C,0.00850*%
%ADD48C,0.00591*%
%ADD49C,0.01600*%
%ADD50R,0.04752X0.02683*%
%ADD51R,0.01842X0.24459*%
%ADD52R,1.08799X0.01727*%
%ADD53R,0.01950X0.22982*%
%ADD54C,0.06299*%
%ADD55C,0.05906*%
%ADD56C,0.01969*%
G36*
X126194Y43296D02*
X126965Y43143D01*
Y41072D01*
X127375D01*
Y39893D01*
X126989D01*
Y37406D01*
X125558D01*
Y37792D01*
X123358D01*
Y37406D01*
X122322D01*
X122145Y37835D01*
X121684Y38026D01*
X115906D01*
X115446Y37835D01*
X115255Y37374D01*
Y36164D01*
X115446Y35703D01*
X115446Y35276D01*
X115255Y34815D01*
Y33605D01*
X115446Y33144D01*
X115446Y32717D01*
X115255Y32256D01*
Y31046D01*
X115446Y30585D01*
X115327Y30093D01*
X115245Y29971D01*
X115191Y29697D01*
Y29592D01*
X118795D01*
Y28592D01*
X115191D01*
Y28487D01*
X115245Y28213D01*
X115327Y28091D01*
X115368Y27920D01*
X115021Y27451D01*
X112251D01*
X111900Y27381D01*
X111602Y27182D01*
X111361Y26941D01*
X111266Y26959D01*
X110726Y26852D01*
X110268Y26546D01*
X109962Y26088D01*
X109855Y25548D01*
X109962Y25008D01*
X110268Y24550D01*
X110726Y24244D01*
X111266Y24137D01*
X111806Y24244D01*
X112264Y24550D01*
X112570Y25008D01*
X112677Y25548D01*
X112733Y25615D01*
X115384D01*
X115406Y25564D01*
X115446Y25040D01*
X115406Y24942D01*
X115255Y24579D01*
Y23369D01*
X115446Y22908D01*
X115446Y22481D01*
X115255Y22020D01*
Y20809D01*
X115446Y20349D01*
X115724Y20234D01*
X115624Y19734D01*
X106996D01*
X106724Y20065D01*
X106617Y20605D01*
X106311Y21063D01*
X105853Y21369D01*
X105313Y21476D01*
X104773Y21369D01*
X104315Y21063D01*
X104009Y20605D01*
X103902Y20065D01*
X103908Y20035D01*
X103447Y19789D01*
X102955Y20281D01*
X103036Y20692D01*
X102929Y21232D01*
X102623Y21690D01*
X102165Y21996D01*
X101625Y22103D01*
X101085Y21996D01*
X100627Y21690D01*
X100547Y21571D01*
X99893Y21446D01*
X99737Y21561D01*
Y22020D01*
X99546Y22481D01*
X99546Y22908D01*
X99737Y23369D01*
Y24579D01*
X99586Y24942D01*
X99546Y25040D01*
Y25467D01*
X99586Y25564D01*
X99737Y25928D01*
Y27138D01*
X99720Y27179D01*
X100003Y27727D01*
X100145Y27764D01*
X100685Y27657D01*
X101225Y27764D01*
X101683Y28070D01*
X101989Y28528D01*
X102096Y29068D01*
X101989Y29608D01*
X101683Y30066D01*
X101225Y30372D01*
X100685Y30479D01*
X100145Y30372D01*
X99817Y30501D01*
X99636Y30802D01*
X99737Y31046D01*
Y32256D01*
X99586Y32620D01*
X99546Y32717D01*
Y33144D01*
X99586Y33242D01*
X99737Y33605D01*
Y34815D01*
X99546Y35276D01*
X99546Y35703D01*
X99737Y36164D01*
Y37374D01*
X99546Y37835D01*
X99086Y38026D01*
X93379D01*
X93285Y38492D01*
X94985Y40192D01*
X109629D01*
X109991Y39810D01*
X109946Y39283D01*
X109933Y39274D01*
X109627Y38816D01*
X109520Y38276D01*
X109627Y37736D01*
X109933Y37278D01*
X110391Y36972D01*
X110931Y36865D01*
X111471Y36972D01*
X111929Y37278D01*
X112235Y37736D01*
X112342Y38276D01*
X112261Y38682D01*
X112503Y39018D01*
X112635Y39118D01*
X112692Y39107D01*
X113232Y39214D01*
X113690Y39520D01*
X113996Y39978D01*
X114103Y40518D01*
X113996Y41058D01*
X113797Y41356D01*
X114009Y41846D01*
X114019Y41856D01*
X117392D01*
X118314Y40933D01*
X118773Y40743D01*
X122503D01*
X122920Y40277D01*
X123027Y39737D01*
X123333Y39279D01*
X123791Y38973D01*
X124331Y38866D01*
X124871Y38973D01*
X125329Y39279D01*
X125635Y39737D01*
X125742Y40277D01*
X125635Y40817D01*
X125329Y41275D01*
X124904Y41559D01*
X124862Y41766D01*
X124845Y42096D01*
X125137Y42291D01*
X125443Y42749D01*
X125522Y43144D01*
X125993Y43430D01*
X126194Y43296D01*
D02*
G37*
G36*
X36766Y77863D02*
X37225Y77673D01*
X52249D01*
Y76041D01*
X52092Y75735D01*
X51787Y75578D01*
X49453D01*
X49212Y75530D01*
X49008Y75394D01*
X48924Y75267D01*
X38292D01*
X35774Y77785D01*
X35946Y78321D01*
X36247Y78381D01*
X36766Y77863D01*
D02*
G37*
G36*
X86526Y89136D02*
X84640D01*
X80172Y91091D01*
X84703Y93073D01*
X86526D01*
Y89136D01*
D02*
G37*
G36*
X134261Y33514D02*
Y30874D01*
X134152Y30784D01*
X133612Y30677D01*
X133154Y30371D01*
X133021Y30173D01*
X131398D01*
X129960Y31610D01*
Y32801D01*
X125660D01*
Y32789D01*
X123659D01*
Y32403D01*
X122503D01*
X122155Y32853D01*
X122185Y33242D01*
X122301Y33522D01*
X123358D01*
Y33492D01*
X125361D01*
Y33467D01*
X127361D01*
Y33367D01*
X128061D01*
Y34567D01*
X128561D01*
Y35067D01*
X129761D01*
Y35767D01*
X129189D01*
Y37680D01*
X130094D01*
X134261Y33514D01*
D02*
G37*
G36*
X146868Y-2765D02*
X1Y-2765D01*
Y99365D01*
X42116D01*
Y96430D01*
X42125Y96407D01*
X42118Y96384D01*
X42132Y96358D01*
X42128Y96329D01*
X42198Y96232D01*
X42243Y96124D01*
X42264Y96115D01*
X42276Y96093D01*
X43824Y94840D01*
X43923Y94810D01*
X44058Y94720D01*
X44448Y94642D01*
X45230D01*
Y94062D01*
X46430D01*
X47630D01*
Y94560D01*
X51315D01*
Y94062D01*
X52515D01*
X53715D01*
Y94428D01*
X54158Y94566D01*
X54158Y94566D01*
Y94566D01*
X54158Y94566D01*
X56259D01*
Y92522D01*
X58010D01*
Y81183D01*
X57510Y80895D01*
X57307Y81012D01*
X57251Y81234D01*
X57251D01*
Y83234D01*
X57351D01*
Y83934D01*
X56151D01*
Y84434D01*
X55651D01*
Y85634D01*
X55121D01*
Y85647D01*
X54421D01*
Y84447D01*
X53421D01*
Y85647D01*
X52898D01*
X52486Y85859D01*
Y85859D01*
X52486Y85859D01*
X47749D01*
Y81121D01*
X47749D01*
X47650Y80662D01*
X45104D01*
X45005Y81121D01*
X45005Y81162D01*
Y85859D01*
X42287D01*
X39697Y88448D01*
X39234Y88758D01*
X38688Y88866D01*
X38688Y88866D01*
X20165D01*
X19859Y88927D01*
X19319Y88820D01*
X18861Y88514D01*
X18555Y88056D01*
X18544Y88001D01*
X18536Y87989D01*
X18428Y87443D01*
X18536Y86897D01*
X18846Y86434D01*
X18850Y86430D01*
X18850Y86430D01*
X19313Y86120D01*
X19859Y86012D01*
X19859Y86012D01*
X38096D01*
X40268Y83840D01*
Y81315D01*
X39777Y81099D01*
X36286Y84590D01*
X35827Y84780D01*
X35557D01*
X35345Y85097D01*
X34887Y85403D01*
X34347Y85510D01*
X33807Y85403D01*
X33349Y85097D01*
X33043Y84639D01*
X32936Y84099D01*
X33043Y83559D01*
X33087Y83493D01*
X32727Y83132D01*
X32630Y83197D01*
X32090Y83304D01*
X31550Y83197D01*
X31092Y82891D01*
X30786Y82433D01*
X30679Y81893D01*
X30779Y81389D01*
X30775Y81336D01*
X30494Y80889D01*
X26516D01*
X26265Y81265D01*
X25807Y81571D01*
X25267Y81678D01*
X24727Y81571D01*
X24269Y81265D01*
X23963Y80807D01*
X23856Y80267D01*
X23963Y79727D01*
X24269Y79269D01*
X24727Y78963D01*
X25267Y78856D01*
X25807Y78963D01*
X26265Y79269D01*
X26480Y79591D01*
X29498D01*
X29504Y79579D01*
X29710Y79090D01*
X29618Y78624D01*
X29725Y78084D01*
X30031Y77627D01*
X30373Y77398D01*
Y77254D01*
X30067Y76796D01*
X29960Y76256D01*
X30067Y75716D01*
X30373Y75258D01*
X30831Y74952D01*
X30890Y74940D01*
X31136Y74408D01*
X31029Y73868D01*
X31115Y73433D01*
X30845Y72933D01*
X26055D01*
X25939Y73106D01*
X25481Y73412D01*
X24941Y73519D01*
X24401Y73412D01*
X23943Y73106D01*
X23637Y72648D01*
X23530Y72108D01*
X23637Y71568D01*
X23943Y71110D01*
X24401Y70804D01*
X24941Y70697D01*
X25481Y70804D01*
X25939Y71110D01*
X26245Y71568D01*
X26258Y71634D01*
X31839D01*
X32110Y71134D01*
X32024Y70699D01*
X32131Y70159D01*
X32437Y69701D01*
X32895Y69395D01*
X33435Y69288D01*
X33975Y69395D01*
X34433Y69701D01*
X34752Y69732D01*
X35092Y69392D01*
X35551Y69202D01*
X35940D01*
X36081Y68876D01*
X36120Y68702D01*
X35836Y68277D01*
X35729Y67737D01*
X35836Y67197D01*
X36142Y66739D01*
X36600Y66433D01*
X37140Y66326D01*
X37680Y66433D01*
X38138Y66739D01*
X38444Y67197D01*
X38551Y67737D01*
X38504Y67976D01*
X38929Y68402D01*
X45599D01*
X46699Y67302D01*
X46508Y66840D01*
X44756D01*
X44298Y66940D01*
X43924Y66940D01*
X43018D01*
Y65259D01*
Y63578D01*
X43924D01*
X44298Y63578D01*
X44756Y63678D01*
X46922D01*
X47109Y63434D01*
X46870Y62934D01*
X43791D01*
Y58197D01*
X48528D01*
Y59335D01*
X50838D01*
X51112Y58837D01*
X51035Y58793D01*
X50701Y58727D01*
X50370Y58506D01*
X49379Y57515D01*
X47542D01*
Y57259D01*
X47059D01*
X46513Y57151D01*
X46050Y56841D01*
X46050Y56841D01*
X44979Y55770D01*
X44669Y55307D01*
X44561Y54761D01*
X44669Y54215D01*
X44979Y53752D01*
X45442Y53442D01*
X45988Y53334D01*
X46534Y53442D01*
X46942Y53715D01*
X47152Y53661D01*
X47442Y53489D01*
Y52791D01*
X49123D01*
X50804D01*
Y53697D01*
X50804Y54071D01*
X50704Y54529D01*
Y55827D01*
X50928Y56002D01*
X51428Y55758D01*
Y54485D01*
X52128D01*
Y55685D01*
X52628D01*
Y56185D01*
X53828D01*
Y56885D01*
X53828Y56885D01*
X53828D01*
X53873Y57046D01*
X54417Y57133D01*
X54437Y57103D01*
X54895Y56797D01*
X55435Y56690D01*
X55646Y56732D01*
X55783Y56629D01*
X57346D01*
Y56129D01*
X57846D01*
Y54929D01*
X58546D01*
Y54929D01*
X58671Y54919D01*
Y54919D01*
X59042Y54919D01*
X59371D01*
Y56119D01*
X60371D01*
Y54919D01*
X60839D01*
Y53315D01*
X59658D01*
X59200Y53415D01*
X58826Y53415D01*
X57920D01*
Y51734D01*
X57420D01*
Y51234D01*
X55641D01*
Y50053D01*
X55763D01*
X56218Y49945D01*
X56218Y49553D01*
Y47867D01*
X55803D01*
X55714Y47850D01*
X55554Y47881D01*
X55014Y47774D01*
X54556Y47468D01*
X54250Y47010D01*
X54143Y46470D01*
X54250Y45930D01*
X54556Y45472D01*
X54591Y45449D01*
X54439Y44949D01*
X46973D01*
X46520Y45251D01*
X45980Y45358D01*
X45440Y45251D01*
X44982Y44945D01*
X44676Y44487D01*
X44569Y43947D01*
X44676Y43407D01*
X44982Y42949D01*
X45440Y42643D01*
X45980Y42536D01*
X46520Y42643D01*
X46919Y42909D01*
X57874D01*
X58264Y42987D01*
X58595Y43208D01*
X59774Y44387D01*
X60316Y44273D01*
X60339Y44245D01*
X60240Y43747D01*
X60347Y43207D01*
X60653Y42749D01*
X61111Y42443D01*
X61651Y42336D01*
X62191Y42443D01*
X62771Y42255D01*
X62853Y42125D01*
X62708Y41397D01*
X62892Y40473D01*
X63415Y39689D01*
X64199Y39166D01*
X65123Y38982D01*
X66047Y39166D01*
X66831Y39689D01*
X67289Y40376D01*
X79733D01*
X79883Y40158D01*
X79957Y39892D01*
X78344Y38279D01*
X33622D01*
X30924Y40977D01*
X30465Y41168D01*
X23641D01*
X23300Y41026D01*
X22831Y41119D01*
X22291Y41012D01*
X21833Y40706D01*
X21316Y40832D01*
X21252Y40910D01*
X21324Y41273D01*
X21140Y42197D01*
X20617Y42981D01*
X19833Y43504D01*
X18909Y43688D01*
X17985Y43504D01*
X17201Y42981D01*
X16678Y42197D01*
X16494Y41273D01*
X16678Y40349D01*
X17201Y39565D01*
X17985Y39042D01*
X18062Y39026D01*
X18160Y38536D01*
X18081Y38484D01*
X17558Y37700D01*
X17374Y36776D01*
X17558Y35852D01*
X18081Y35068D01*
X18865Y34545D01*
X19789Y34361D01*
X20209Y34445D01*
X20510Y33995D01*
X20164Y33477D01*
X19980Y32553D01*
X20164Y31629D01*
X20687Y30845D01*
X21471Y30322D01*
X22395Y30138D01*
X23319Y30322D01*
X24103Y30845D01*
X24626Y31629D01*
X24810Y32553D01*
X24801Y32596D01*
X25227Y33021D01*
X25239Y33019D01*
X25779Y33126D01*
X26237Y33432D01*
X26470Y33781D01*
X36400D01*
X36532Y33552D01*
X36606Y33281D01*
X36344Y32888D01*
X36237Y32348D01*
X36263Y32215D01*
X35853Y31715D01*
X35815D01*
Y19931D01*
X39529D01*
Y31715D01*
X39443D01*
X39033Y32215D01*
X39059Y32348D01*
X38952Y32888D01*
X38690Y33281D01*
X38764Y33552D01*
X38896Y33781D01*
X49213D01*
X49404Y33319D01*
X47800Y31715D01*
X45815D01*
Y19931D01*
X49529D01*
Y31580D01*
X50874Y32925D01*
X74832D01*
X74911Y32876D01*
X75221Y32512D01*
X75144Y32125D01*
X75251Y31585D01*
X75557Y31127D01*
X76015Y30821D01*
X76555Y30714D01*
X77095Y30821D01*
X77553Y31127D01*
X77859Y31585D01*
X77966Y32125D01*
X77859Y32665D01*
X77553Y33123D01*
X77317Y33281D01*
X77469Y33781D01*
X79938D01*
X80398Y33971D01*
X86221Y39794D01*
X88975D01*
X89192Y39294D01*
X88776Y38672D01*
X88592Y37748D01*
X88776Y36824D01*
X89299Y36040D01*
X90083Y35517D01*
X91007Y35333D01*
X91931Y35517D01*
X92219Y35709D01*
X92557Y35638D01*
X92792Y35141D01*
X92657Y34815D01*
Y33605D01*
X92807Y33242D01*
X92847Y33144D01*
Y32717D01*
X92807Y32620D01*
X92724Y32418D01*
X88541D01*
X88432Y32526D01*
Y33108D01*
X88532D01*
Y33808D01*
X87332D01*
Y34308D01*
X86832D01*
Y35508D01*
X86132D01*
Y34352D01*
X82070D01*
Y32292D01*
X79975D01*
Y30279D01*
X79955D01*
Y30148D01*
X79550D01*
X79179Y30074D01*
X79083Y30009D01*
X78948Y30036D01*
X78408Y29929D01*
X77950Y29623D01*
X77644Y29165D01*
X77537Y28625D01*
X77644Y28085D01*
X77950Y27627D01*
X78408Y27321D01*
X78948Y27214D01*
X79037Y27231D01*
X79368Y26787D01*
X79312Y26682D01*
X78985Y26617D01*
X78527Y26311D01*
X78221Y25853D01*
X78114Y25313D01*
X78221Y24773D01*
X78527Y24315D01*
X78985Y24009D01*
X79525Y23902D01*
X80065Y24009D01*
X80214Y24108D01*
X80664Y23808D01*
X80651Y23742D01*
X80758Y23202D01*
X81064Y22744D01*
X81522Y22438D01*
X82062Y22331D01*
X82602Y22438D01*
X83060Y22744D01*
X83178Y22920D01*
X85211D01*
Y25000D01*
X87274D01*
Y29098D01*
X89092D01*
Y28595D01*
X90292D01*
Y28095D01*
X90792D01*
Y26895D01*
X91492D01*
Y27260D01*
X91992Y27467D01*
X92657Y26802D01*
Y25928D01*
X92807Y25564D01*
X92847Y25467D01*
Y25040D01*
X92807Y24942D01*
X92657Y24579D01*
Y23749D01*
X91915Y23007D01*
X91725Y22548D01*
Y18757D01*
X91442Y18334D01*
X91258Y17410D01*
X91442Y16486D01*
X91965Y15702D01*
X92749Y15179D01*
X93673Y14995D01*
X94068Y15074D01*
X94369Y14624D01*
X94228Y14413D01*
X94121Y13873D01*
X94228Y13333D01*
X94264Y13280D01*
X94270Y13124D01*
X93916Y12751D01*
X93814Y12771D01*
X93274Y12664D01*
X92816Y12358D01*
X92510Y11900D01*
X92403Y11360D01*
X92510Y10820D01*
X92816Y10362D01*
X93274Y10056D01*
X93814Y9949D01*
X94354Y10056D01*
X94812Y10362D01*
X95118Y10820D01*
X95225Y11360D01*
X95455Y11639D01*
X96188D01*
X96647Y11829D01*
X99163Y14345D01*
X102663D01*
X102807Y13845D01*
X102472Y13621D01*
X102282Y13337D01*
X101733D01*
X101615Y13313D01*
X101242Y13562D01*
X100318Y13746D01*
X99394Y13562D01*
X98610Y13039D01*
X98087Y12255D01*
X97903Y11331D01*
X98087Y10407D01*
X98610Y9623D01*
X99394Y9100D01*
X100318Y8916D01*
X101242Y9100D01*
X102026Y9623D01*
X102549Y10407D01*
X102648Y10906D01*
X102920Y11305D01*
X103191Y11267D01*
X103470Y11212D01*
X104010Y11319D01*
X104468Y11625D01*
X104774Y12083D01*
X104881Y12623D01*
X104814Y12961D01*
X105275Y13208D01*
X106482Y12001D01*
X106941Y11811D01*
X108597D01*
Y10870D01*
X110910D01*
Y8585D01*
X110908Y8584D01*
X110092Y8247D01*
X109392Y7709D01*
X108854Y7009D01*
X108517Y6193D01*
X108401Y5318D01*
X108517Y4443D01*
X108854Y3627D01*
X109392Y2927D01*
X110092Y2389D01*
X110908Y2052D01*
X111783Y1936D01*
X112658Y2052D01*
X113474Y2389D01*
X114174Y2927D01*
X114712Y3627D01*
X115050Y4443D01*
X115165Y5318D01*
X115050Y6193D01*
X114712Y7009D01*
X114174Y7709D01*
X113474Y8247D01*
X112746Y8548D01*
Y10870D01*
X112897D01*
Y15080D01*
X113370Y15145D01*
X116471D01*
X119706Y11910D01*
Y10882D01*
X121988D01*
Y8579D01*
X121187Y8247D01*
X120487Y7709D01*
X119949Y7009D01*
X119612Y6193D01*
X119496Y5318D01*
X119612Y4443D01*
X119949Y3627D01*
X120487Y2927D01*
X121187Y2389D01*
X122003Y2052D01*
X122878Y1936D01*
X123753Y2052D01*
X124569Y2389D01*
X125269Y2927D01*
X125807Y3627D01*
X126145Y4443D01*
X126260Y5318D01*
X126145Y6193D01*
X125807Y7009D01*
X125269Y7709D01*
X124569Y8247D01*
X123824Y8555D01*
Y10882D01*
X124006D01*
Y13082D01*
X124004D01*
Y15085D01*
X120716D01*
X119519Y16283D01*
X119710Y16745D01*
X125343D01*
X126806Y15282D01*
X126660Y14804D01*
X126578Y14787D01*
X125794Y14264D01*
X125271Y13480D01*
X125087Y12556D01*
X125271Y11632D01*
X125794Y10848D01*
X126578Y10325D01*
X127502Y10141D01*
X128426Y10325D01*
X129210Y10848D01*
X129596Y11426D01*
X130143Y11555D01*
X130225Y11540D01*
X130399Y11402D01*
Y10690D01*
X132681D01*
Y8585D01*
X132678Y8584D01*
X131862Y8247D01*
X131162Y7709D01*
X130624Y7009D01*
X130287Y6193D01*
X130171Y5318D01*
X130287Y4443D01*
X130624Y3627D01*
X131162Y2927D01*
X131862Y2389D01*
X132678Y2052D01*
X133553Y1936D01*
X134428Y2052D01*
X135244Y2389D01*
X135944Y2927D01*
X136482Y3627D01*
X136820Y4443D01*
X136935Y5318D01*
X136820Y6193D01*
X136482Y7009D01*
X135944Y7709D01*
X135244Y8247D01*
X134517Y8548D01*
Y10690D01*
X134699D01*
Y14908D01*
X130399D01*
X130399Y14908D01*
Y14908D01*
X129968Y15088D01*
X127670Y17386D01*
X127861Y17848D01*
X129886D01*
X130140Y17899D01*
X130355Y18042D01*
X131493Y19180D01*
X131636Y19395D01*
X131687Y19649D01*
Y19840D01*
X132080D01*
Y24140D01*
X130845D01*
X130817Y24171D01*
X130624Y24640D01*
X130831Y24950D01*
X130938Y25490D01*
X130831Y26030D01*
X130525Y26488D01*
X130512Y26496D01*
X130494Y27110D01*
X130715Y27441D01*
X130822Y27981D01*
X130758Y28304D01*
X131069Y28703D01*
X131084Y28715D01*
X131141Y28745D01*
X132907D01*
X133154Y28375D01*
X133612Y28069D01*
X134152Y27962D01*
X134692Y28069D01*
X135150Y28375D01*
X135456Y28833D01*
X135563Y29373D01*
X135738Y29534D01*
X135778Y29546D01*
X136353Y29446D01*
X136725Y28888D01*
X137509Y28365D01*
X138433Y28181D01*
X139357Y28365D01*
X140141Y28888D01*
X140664Y29672D01*
X140848Y30596D01*
X140664Y31520D01*
X140141Y32304D01*
X139357Y32827D01*
X138433Y33011D01*
X137509Y32827D01*
X136961Y32461D01*
X136461Y32728D01*
Y34638D01*
X135155D01*
X130895Y38899D01*
X130663Y39053D01*
X130390Y39108D01*
X129189D01*
Y39893D01*
X128803D01*
Y40539D01*
X128965Y40972D01*
X129665D01*
Y42172D01*
Y43372D01*
X129055D01*
X128805Y43806D01*
X128826Y43819D01*
X129349Y44603D01*
X129533Y45527D01*
X129349Y46451D01*
X128826Y47235D01*
X128042Y47758D01*
X127118Y47942D01*
X126194Y47758D01*
X125410Y47235D01*
X124887Y46451D01*
X124717Y45599D01*
X123301D01*
X122842Y45409D01*
X121980Y44548D01*
X121923Y44551D01*
X121470Y44745D01*
X121396Y45117D01*
X121090Y45575D01*
X120632Y45881D01*
X120093Y45988D01*
X120055Y46026D01*
X119724Y46247D01*
X119334Y46325D01*
X92324D01*
X91934Y46247D01*
X91804Y46160D01*
X91774Y46166D01*
X91234Y46059D01*
X90776Y45753D01*
X90470Y45295D01*
X90371Y44797D01*
X90229Y44719D01*
X89986Y44653D01*
X89878Y44630D01*
X89426Y44932D01*
X89139Y44989D01*
X89021Y45512D01*
X89327Y45970D01*
X89434Y46510D01*
X89327Y47050D01*
X89021Y47508D01*
X88563Y47814D01*
X88023Y47921D01*
X87658Y47849D01*
X87341Y48275D01*
X87448Y48435D01*
X87555Y48975D01*
X87448Y49515D01*
X87142Y49973D01*
X86684Y50279D01*
X86144Y50386D01*
X85604Y50279D01*
X85146Y49973D01*
X84840Y49515D01*
X84733Y48975D01*
X84840Y48435D01*
X85146Y47977D01*
X85509Y47735D01*
Y46467D01*
X85045Y46239D01*
X85009Y46245D01*
X84721Y46675D01*
X84263Y46981D01*
X83723Y47088D01*
X83183Y46981D01*
X82725Y46675D01*
X82419Y46217D01*
X82312Y45677D01*
X82329Y45590D01*
X79359Y42620D01*
X67154D01*
X66831Y43105D01*
X66325Y43442D01*
Y46686D01*
X66303Y46798D01*
Y47361D01*
X66385Y47442D01*
X67022Y47381D01*
X67058Y47326D01*
X67842Y46803D01*
X68766Y46619D01*
X69690Y46803D01*
X70474Y47326D01*
X70997Y48110D01*
X71181Y49034D01*
X70997Y49958D01*
X70474Y50742D01*
X69690Y51265D01*
X69645Y51274D01*
X69695Y51774D01*
X69833D01*
Y52955D01*
X68054D01*
Y53455D01*
X67554D01*
Y55136D01*
X67170D01*
Y55591D01*
X65970D01*
Y56091D01*
X65470D01*
Y57291D01*
X64770D01*
X64360Y57509D01*
X64323Y57546D01*
X64530Y58046D01*
X70280D01*
X71278Y57048D01*
Y55503D01*
X71278Y55503D01*
X71328Y55251D01*
X71471Y55038D01*
X72303Y54206D01*
Y49829D01*
X72249Y49558D01*
Y46605D01*
X72318Y46257D01*
X72515Y45962D01*
X72810Y45765D01*
X73158Y45695D01*
X79261D01*
X79609Y45765D01*
X79904Y45962D01*
X80101Y46257D01*
X80170Y46605D01*
Y49558D01*
X80101Y49906D01*
X79904Y50201D01*
X79609Y50398D01*
X79261Y50467D01*
X73620D01*
Y54479D01*
X73620Y54479D01*
X73570Y54731D01*
X73427Y54945D01*
X73334Y55038D01*
X73541Y55538D01*
X79261D01*
X79609Y55607D01*
X79904Y55804D01*
X80101Y56099D01*
X80170Y56447D01*
Y59400D01*
X80101Y59748D01*
X79904Y60043D01*
X79609Y60241D01*
X79261Y60310D01*
X73158D01*
X72887Y60256D01*
X65065D01*
X64963Y60358D01*
Y62401D01*
X65120Y62707D01*
X65426Y62864D01*
X67760D01*
X68000Y62912D01*
X68204Y63048D01*
X68240Y63052D01*
X69086Y62206D01*
X69183Y61716D01*
X69489Y61258D01*
X69947Y60952D01*
X70487Y60845D01*
X71027Y60952D01*
X71485Y61258D01*
X71791Y61716D01*
X71791Y61718D01*
X72798D01*
X73257Y61909D01*
X74617Y63269D01*
X78067D01*
X82047Y59288D01*
X81712Y58786D01*
X81528Y57862D01*
X81712Y56938D01*
X82235Y56154D01*
X83019Y55631D01*
X83943Y55447D01*
X84867Y55631D01*
X85651Y56154D01*
X86174Y56938D01*
X86358Y57862D01*
X86174Y58786D01*
X85651Y59570D01*
X84867Y60093D01*
X84394Y60187D01*
X84289Y60718D01*
X84863Y61101D01*
X85386Y61885D01*
X85570Y62809D01*
X85386Y63733D01*
X84863Y64517D01*
X84813Y64550D01*
X84964Y65050D01*
X89075D01*
X89479Y64551D01*
X89449Y64399D01*
X89556Y63859D01*
X89862Y63401D01*
X90320Y63095D01*
X90860Y62988D01*
X91400Y63095D01*
X91696Y63293D01*
X92149Y63005D01*
X92088Y62700D01*
X92272Y61776D01*
X92795Y60992D01*
X93579Y60469D01*
X94503Y60285D01*
X95427Y60469D01*
X96211Y60992D01*
X96526Y61465D01*
X97220D01*
Y59941D01*
X96720Y59577D01*
X96485Y59623D01*
X95945Y59516D01*
X95487Y59210D01*
X95181Y58752D01*
X95074Y58212D01*
X95181Y57672D01*
X95433Y57296D01*
X95244Y56849D01*
X94803Y56835D01*
X94758Y56902D01*
X94300Y57208D01*
X93760Y57315D01*
X93220Y57208D01*
X92762Y56902D01*
X92456Y56444D01*
X92349Y55904D01*
X92456Y55364D01*
X92762Y54906D01*
X93220Y54600D01*
X93760Y54493D01*
X94039Y54548D01*
X94339Y54098D01*
X94215Y53912D01*
X94108Y53372D01*
X94215Y52832D01*
X94521Y52374D01*
X94979Y52068D01*
X95519Y51961D01*
X96059Y52068D01*
X96517Y52374D01*
X96720Y52678D01*
X97220Y52526D01*
Y51916D01*
X96990Y51686D01*
X96987Y51681D01*
X96909Y51665D01*
X96451Y51359D01*
X96145Y50901D01*
X96038Y50361D01*
X96145Y49821D01*
X96451Y49363D01*
X96909Y49057D01*
X97449Y48950D01*
X97989Y49057D01*
X98447Y49363D01*
X98753Y49821D01*
X98860Y50361D01*
X98795Y50687D01*
X99117Y51187D01*
X101366D01*
Y51481D01*
X106470D01*
Y58083D01*
Y64685D01*
X101366D01*
Y64979D01*
X99815D01*
X99663Y65479D01*
X99868Y65616D01*
X100174Y66074D01*
X100281Y66614D01*
X100233Y66857D01*
X100565Y67229D01*
X116846D01*
X117271Y66805D01*
X117271Y66805D01*
X117535Y66628D01*
X117847Y66566D01*
X117847Y66566D01*
X119267D01*
X120120Y65714D01*
X120080Y65214D01*
X119897D01*
Y62932D01*
X118387D01*
X118321Y63030D01*
X117863Y63336D01*
X117323Y63443D01*
X117207Y63420D01*
X117124Y63489D01*
X114647D01*
Y63989D01*
X114147D01*
Y65079D01*
X112474D01*
Y64685D01*
X107470D01*
Y58083D01*
Y51481D01*
X112474D01*
Y51087D01*
X114147D01*
Y52178D01*
X115147D01*
Y51087D01*
X116688D01*
X116688Y51087D01*
Y51087D01*
X117072Y50813D01*
X117153Y50725D01*
X117292Y50517D01*
X117750Y50211D01*
X118290Y50104D01*
X118830Y50211D01*
X119288Y50517D01*
X119512Y50852D01*
X122677D01*
X122776Y50872D01*
X123553D01*
X123820Y50372D01*
X123733Y49930D01*
X123840Y49390D01*
X124146Y48932D01*
X124604Y48626D01*
X125144Y48519D01*
X125684Y48626D01*
X126142Y48932D01*
X126448Y49390D01*
X126555Y49930D01*
X126448Y50470D01*
X126413Y50531D01*
X126234Y50978D01*
X126234Y51324D01*
Y53072D01*
X126220D01*
Y54283D01*
X126444Y54402D01*
X126720Y54501D01*
X127193Y54407D01*
X127733Y54514D01*
X128127Y54777D01*
X128603Y54750D01*
X128683Y54736D01*
X128909Y54397D01*
X129693Y53874D01*
X130617Y53690D01*
X131541Y53874D01*
X132325Y54397D01*
X132848Y55181D01*
X133032Y56105D01*
X132848Y57029D01*
X132325Y57813D01*
X131541Y58336D01*
X130617Y58520D01*
X129693Y58336D01*
X128909Y57813D01*
X128495Y57192D01*
X127982Y57027D01*
X127876Y57027D01*
X127733Y57122D01*
X127193Y57229D01*
X126710Y57133D01*
X126592Y57164D01*
X126210Y57427D01*
Y58884D01*
X126215D01*
Y60488D01*
X126715Y60758D01*
X127152Y60671D01*
X127692Y60778D01*
X127932Y60938D01*
X128515Y60869D01*
X128582Y60830D01*
X128816Y60478D01*
X129600Y59955D01*
X130524Y59771D01*
X131448Y59955D01*
X132232Y60478D01*
X132755Y61262D01*
X132939Y62186D01*
X132755Y63110D01*
X132232Y63894D01*
X131448Y64417D01*
X130524Y64601D01*
X129600Y64417D01*
X128816Y63894D01*
X128491Y63407D01*
X128488Y63403D01*
X127857Y63277D01*
X127851Y63280D01*
X127692Y63386D01*
X127152Y63493D01*
X126640Y63392D01*
X126604Y63391D01*
X126140Y63672D01*
Y65012D01*
X126240D01*
Y65712D01*
X125040D01*
Y66212D01*
X124540D01*
Y67412D01*
X124224D01*
Y67413D01*
X123524D01*
Y66213D01*
X122524D01*
Y67413D01*
X121824D01*
Y67024D01*
X121324Y66817D01*
X120418Y67723D01*
X120488Y68332D01*
X120488Y68332D01*
X120681Y68461D01*
X120987Y68919D01*
X121094Y69459D01*
X120987Y69999D01*
X120843Y70214D01*
X120916Y70702D01*
X121009Y70798D01*
X121380Y71046D01*
X121686Y71504D01*
X121793Y72044D01*
X121690Y72562D01*
X121688Y72588D01*
X121968Y73062D01*
X123624D01*
X123775Y72562D01*
X123558Y72417D01*
X123252Y71959D01*
X123145Y71419D01*
X123252Y70879D01*
X123558Y70421D01*
X124016Y70115D01*
X124556Y70008D01*
X125096Y70115D01*
X125554Y70421D01*
X125805Y70797D01*
X125925Y70821D01*
X126140Y70964D01*
X130694Y75518D01*
X130837Y75733D01*
X130888Y75987D01*
Y78112D01*
X142842D01*
X142842Y98803D01*
X115529Y98803D01*
X115529Y78112D01*
X128603D01*
Y76749D01*
X126242Y74388D01*
X118100D01*
X118056Y74609D01*
X117750Y75067D01*
X117292Y75373D01*
X116752Y75480D01*
X116212Y75373D01*
X115754Y75067D01*
X115448Y74609D01*
X115341Y74069D01*
X115422Y73658D01*
X115065Y73356D01*
X115016Y73334D01*
X114680Y73558D01*
X114140Y73665D01*
X113600Y73558D01*
X113142Y73252D01*
X112836Y72794D01*
X112770Y72463D01*
X111026D01*
X110492Y72997D01*
Y76163D01*
X111144D01*
Y77363D01*
X111644D01*
Y77863D01*
X112844D01*
Y78563D01*
X112841D01*
Y78860D01*
X111641D01*
Y79360D01*
X111141D01*
Y80560D01*
X110970D01*
X110729Y80960D01*
Y84516D01*
X108353D01*
X108353Y84516D01*
X107973D01*
Y84516D01*
X107853Y84516D01*
X105597D01*
Y84516D01*
X105115Y84558D01*
Y84794D01*
X102915D01*
X102905Y84881D01*
X102859Y85361D01*
X102859D01*
X102615Y85761D01*
X102593Y85861D01*
X102689Y86348D01*
X102582Y86888D01*
X102276Y87346D01*
X101818Y87652D01*
X101278Y87759D01*
X100738Y87652D01*
X100280Y87346D01*
X99974Y86888D01*
X99867Y86348D01*
X99963Y85861D01*
X99941Y85761D01*
X99697Y85361D01*
X99697Y85361D01*
X99697Y85361D01*
Y82003D01*
X99697Y82003D01*
Y81818D01*
X99697D01*
X99697Y81502D01*
Y78458D01*
X102859D01*
Y79611D01*
X103742Y80494D01*
X105115D01*
Y80494D01*
X105486Y80570D01*
X105692Y80379D01*
Y76304D01*
X105692Y76304D01*
X105589Y76002D01*
X105562Y75961D01*
X105455Y75421D01*
X105562Y74881D01*
X105868Y74423D01*
X105952Y74367D01*
Y73341D01*
X106022Y72990D01*
X106221Y72692D01*
X108757Y70156D01*
X108566Y69694D01*
X102292D01*
X102242Y69723D01*
X101920Y70194D01*
X102053Y70863D01*
X101869Y71787D01*
X101346Y72571D01*
X100562Y73094D01*
X99638Y73278D01*
X98714Y73094D01*
X97930Y72571D01*
X97407Y71787D01*
X97223Y70863D01*
X97209Y70846D01*
X93022D01*
X92562Y70656D01*
X90857Y68950D01*
X71121D01*
X70376Y69695D01*
X70466Y69880D01*
X70671Y70107D01*
X70911Y70060D01*
X71749D01*
Y72446D01*
X72749D01*
Y70060D01*
X73588D01*
X73914Y70124D01*
X74190Y70309D01*
X74296Y70467D01*
X74336Y70481D01*
X74730Y70497D01*
X74851Y70467D01*
X74909Y70381D01*
X75152Y70219D01*
X75438Y70161D01*
X78116D01*
X78402Y70219D01*
X78645Y70381D01*
X78808Y70624D01*
X78865Y70911D01*
Y73981D01*
X78808Y74268D01*
X78645Y74511D01*
X78402Y74673D01*
X78116Y74730D01*
X75760D01*
X75180Y75310D01*
X75427Y75771D01*
X75438Y75768D01*
X76277D01*
Y78155D01*
Y80541D01*
X75438D01*
X75113Y80476D01*
X74837Y80292D01*
X74731Y80133D01*
X74691Y80120D01*
X74296Y80104D01*
X74175Y80133D01*
X74118Y80220D01*
X73875Y80382D01*
X73588Y80439D01*
X70911D01*
X70624Y80382D01*
X70381Y80220D01*
X70219Y79977D01*
X70162Y79690D01*
Y77444D01*
X69998D01*
X69727Y77390D01*
X69497Y77236D01*
X67861Y75601D01*
X66603D01*
X66486Y75578D01*
X65426D01*
X65120Y75735D01*
X64963Y76041D01*
Y77150D01*
X65576D01*
X65576Y77150D01*
X65829Y77200D01*
X66042Y77343D01*
X66654Y77955D01*
X66704Y77988D01*
X70894Y82178D01*
X73343D01*
X73350Y82143D01*
X73656Y81685D01*
X74114Y81379D01*
X74654Y81272D01*
X75194Y81379D01*
X75305Y81453D01*
X75746Y81634D01*
X75746Y81634D01*
X75746Y81634D01*
X77746D01*
Y81534D01*
X78446D01*
Y82734D01*
Y83934D01*
X77746D01*
Y83834D01*
X75746D01*
X75746Y83834D01*
Y83834D01*
X75746Y83834D01*
X75284Y83927D01*
X75194Y83987D01*
X74654Y84094D01*
X74114Y83987D01*
X73656Y83681D01*
X73532Y83496D01*
X70943D01*
X70561Y83709D01*
X70484Y83978D01*
Y84614D01*
X74126D01*
Y89350D01*
X69389D01*
Y86023D01*
X69182Y85885D01*
X69034Y85736D01*
X68932Y85584D01*
X68561Y85272D01*
X67861D01*
Y84072D01*
X67361D01*
Y83572D01*
X66161D01*
Y83100D01*
X65771D01*
Y81900D01*
X65271D01*
Y81400D01*
X64071D01*
Y80700D01*
X64071Y80700D01*
X63892Y80274D01*
X63319D01*
X62994Y80209D01*
X62718Y80025D01*
X61943Y79250D01*
X61465Y79049D01*
X61288Y79084D01*
X60872Y79286D01*
X60872Y79338D01*
Y83386D01*
X64754Y85489D01*
Y89648D01*
X60872Y91194D01*
Y94529D01*
X75202D01*
X79475Y90255D01*
X79839Y90012D01*
X80269Y89927D01*
X81753D01*
X84330Y88799D01*
Y88736D01*
X84559D01*
X84640Y88703D01*
X86526D01*
X86607Y88736D01*
X89264D01*
Y88864D01*
X97114D01*
Y94345D01*
X97632D01*
Y96412D01*
X92801D01*
X87970D01*
Y96069D01*
X87540D01*
X87451Y96022D01*
Y93474D01*
X86604D01*
X86526Y93506D01*
X84703D01*
X84625Y93474D01*
X84330D01*
Y93382D01*
X81562Y92171D01*
X80734D01*
X76461Y96445D01*
X76096Y96688D01*
X75667Y96773D01*
X59562D01*
X59530Y96767D01*
X56260D01*
Y96766D01*
X54158D01*
Y96686D01*
X53615D01*
Y96762D01*
X51415D01*
Y96760D01*
X47530D01*
Y96762D01*
X45330D01*
X44932Y97008D01*
Y99365D01*
X86862D01*
X86862Y102647D01*
X146868D01*
Y-2765D01*
D02*
G37*
G36*
X44096Y95176D02*
X42549Y96429D01*
X42883Y96508D01*
X44096Y95176D01*
D02*
G37*
%LPC*%
G36*
X129761Y34067D02*
X129061D01*
Y33367D01*
X129761D01*
Y34067D01*
D02*
G37*
G36*
X139810Y44506D02*
X139270Y44399D01*
X138812Y44093D01*
X138506Y43635D01*
X138399Y43095D01*
X138506Y42555D01*
X138812Y42097D01*
X139270Y41791D01*
X139810Y41684D01*
X140350Y41791D01*
X140808Y42097D01*
X141114Y42555D01*
X141221Y43095D01*
X141114Y43635D01*
X140808Y44093D01*
X140350Y44399D01*
X139810Y44506D01*
D02*
G37*
G36*
X131365Y43372D02*
X130665D01*
Y42672D01*
X131365D01*
Y43372D01*
D02*
G37*
G36*
X134999Y41378D02*
X134459Y41271D01*
X134001Y40965D01*
X133695Y40507D01*
X133588Y39967D01*
X133695Y39427D01*
X134001Y38969D01*
X134459Y38663D01*
X134999Y38556D01*
X135539Y38663D01*
X135997Y38969D01*
X136303Y39427D01*
X136410Y39967D01*
X136303Y40507D01*
X135997Y40965D01*
X135539Y41271D01*
X134999Y41378D01*
D02*
G37*
G36*
X144374Y41237D02*
X143834Y41130D01*
X143376Y40824D01*
X143070Y40366D01*
X142963Y39826D01*
X143070Y39286D01*
X143376Y38828D01*
X143834Y38522D01*
X144374Y38415D01*
X144914Y38522D01*
X145372Y38828D01*
X145678Y39286D01*
X145785Y39826D01*
X145678Y40366D01*
X145372Y40824D01*
X144914Y41130D01*
X144374Y41237D01*
D02*
G37*
G36*
X131365Y41672D02*
X130665D01*
Y40972D01*
X131365D01*
Y41672D01*
D02*
G37*
G36*
X144444Y47475D02*
X143904Y47368D01*
X143446Y47062D01*
X143140Y46604D01*
X143033Y46064D01*
X143140Y45524D01*
X143446Y45066D01*
X143904Y44760D01*
X144444Y44653D01*
X144984Y44760D01*
X145442Y45066D01*
X145748Y45524D01*
X145855Y46064D01*
X145748Y46604D01*
X145442Y47062D01*
X144984Y47368D01*
X144444Y47475D01*
D02*
G37*
G36*
X56920Y53415D02*
X55641D01*
Y52234D01*
X56920D01*
Y53415D01*
D02*
G37*
G36*
X134982Y54664D02*
X134442Y54557D01*
X133984Y54251D01*
X133678Y53793D01*
X133571Y53253D01*
X133678Y52713D01*
X133984Y52255D01*
X134442Y51949D01*
X134982Y51842D01*
X135522Y51949D01*
X135980Y52255D01*
X136286Y52713D01*
X136393Y53253D01*
X136286Y53793D01*
X135980Y54251D01*
X135522Y54557D01*
X134982Y54664D01*
D02*
G37*
G36*
X53828Y55185D02*
X53128D01*
Y54485D01*
X53828D01*
Y55185D01*
D02*
G37*
G36*
X69833Y55136D02*
X68554D01*
Y53955D01*
X69833D01*
Y55136D01*
D02*
G37*
G36*
X144391Y54646D02*
X143851Y54539D01*
X143393Y54233D01*
X143087Y53775D01*
X142980Y53235D01*
X143087Y52695D01*
X143393Y52237D01*
X143851Y51931D01*
X144391Y51824D01*
X144931Y51931D01*
X145389Y52237D01*
X145695Y52695D01*
X145802Y53235D01*
X145695Y53775D01*
X145389Y54233D01*
X144931Y54539D01*
X144391Y54646D01*
D02*
G37*
G36*
X139841Y51009D02*
X139301Y50902D01*
X138843Y50596D01*
X138537Y50138D01*
X138430Y49598D01*
X138537Y49058D01*
X138843Y48600D01*
X139301Y48294D01*
X139841Y48187D01*
X140381Y48294D01*
X140839Y48600D01*
X141145Y49058D01*
X141252Y49598D01*
X141145Y50138D01*
X140839Y50596D01*
X140381Y50902D01*
X139841Y51009D01*
D02*
G37*
G36*
X134929Y47528D02*
X134389Y47421D01*
X133931Y47115D01*
X133625Y46657D01*
X133518Y46117D01*
X133625Y45577D01*
X133931Y45119D01*
X134389Y44813D01*
X134929Y44706D01*
X135469Y44813D01*
X135927Y45119D01*
X136233Y45577D01*
X136340Y46117D01*
X136233Y46657D01*
X135927Y47115D01*
X135469Y47421D01*
X134929Y47528D01*
D02*
G37*
G36*
X50804Y51791D02*
X49623D01*
Y50511D01*
X50804D01*
Y51791D01*
D02*
G37*
G36*
X48623D02*
X47442D01*
Y50511D01*
X48623D01*
Y51791D01*
D02*
G37*
G36*
X88532Y35508D02*
X87832D01*
Y34808D01*
X88532D01*
Y35508D01*
D02*
G37*
G36*
X52172Y15791D02*
X50715D01*
Y10299D01*
X52172D01*
Y15791D01*
D02*
G37*
G36*
X47603Y17782D02*
X47063Y17675D01*
X46605Y17369D01*
X46299Y16911D01*
X46192Y16371D01*
X46227Y16191D01*
X45837Y15691D01*
X45815D01*
Y3907D01*
X49529D01*
Y15691D01*
X49369D01*
X48979Y16191D01*
X49014Y16371D01*
X48907Y16911D01*
X48601Y17369D01*
X48143Y17675D01*
X47603Y17782D01*
D02*
G37*
G36*
X34529Y15691D02*
X30815D01*
Y11798D01*
X30315Y11388D01*
X30192Y11412D01*
X29652Y11305D01*
X29194Y10999D01*
X28888Y10541D01*
X28781Y10001D01*
X28888Y9461D01*
X29194Y9003D01*
X29652Y8697D01*
X30192Y8590D01*
X30315Y8614D01*
X30815Y8204D01*
Y3907D01*
X34529D01*
Y15691D01*
D02*
G37*
G36*
X54629Y15791D02*
X53172D01*
Y10299D01*
X54629D01*
Y15791D01*
D02*
G37*
G36*
Y9299D02*
X53172D01*
Y3807D01*
X54629D01*
Y9299D01*
D02*
G37*
G36*
X52172D02*
X50715D01*
Y3807D01*
X52172D01*
Y9299D01*
D02*
G37*
G36*
X42599Y17757D02*
X42059Y17650D01*
X41601Y17344D01*
X41295Y16886D01*
X41188Y16346D01*
X41218Y16191D01*
X40816Y15691D01*
X40815D01*
Y3907D01*
X44529D01*
Y15691D01*
X44382D01*
X43980Y16191D01*
X44010Y16346D01*
X43903Y16886D01*
X43597Y17344D01*
X43139Y17650D01*
X42599Y17757D01*
D02*
G37*
G36*
X37647D02*
X37107Y17650D01*
X36649Y17344D01*
X36343Y16886D01*
X36236Y16346D01*
X36266Y16191D01*
X35864Y15691D01*
X35815D01*
Y3907D01*
X39529D01*
Y15691D01*
X39430D01*
X39028Y16191D01*
X39058Y16346D01*
X38951Y16886D01*
X38645Y17344D01*
X38187Y17650D01*
X37647Y17757D01*
D02*
G37*
G36*
X34529Y31715D02*
X30815D01*
Y19931D01*
X30815D01*
X31192Y19431D01*
X31154Y19235D01*
X31261Y18695D01*
X31567Y18237D01*
X32025Y17931D01*
X32565Y17824D01*
X33105Y17931D01*
X33563Y18237D01*
X33869Y18695D01*
X33976Y19235D01*
X33937Y19431D01*
X34321Y19931D01*
X34529D01*
Y31715D01*
D02*
G37*
G36*
X89792Y27595D02*
X89092D01*
Y26895D01*
X89792D01*
Y27595D01*
D02*
G37*
G36*
X67458Y23935D02*
X66758D01*
Y23235D01*
X67458D01*
Y23935D01*
D02*
G37*
G36*
X55860Y31726D02*
X55860Y31726D01*
X53024D01*
X53024Y31726D01*
X52966Y31715D01*
X50815D01*
Y19931D01*
X54529D01*
Y28872D01*
X55269D01*
X55742Y28398D01*
X55649Y27930D01*
X55833Y27006D01*
X56356Y26222D01*
X57140Y25699D01*
X58064Y25515D01*
X58988Y25699D01*
X59772Y26222D01*
X59927Y26456D01*
X60414D01*
Y25711D01*
X60680D01*
X61053Y25211D01*
X61026Y25085D01*
Y24996D01*
X60672Y24643D01*
X60314D01*
Y22871D01*
X65055D01*
X65058Y23235D01*
X65554Y23235D01*
X65758D01*
Y24435D01*
X66258D01*
Y24935D01*
X67458D01*
Y25404D01*
X68840D01*
X75791Y18453D01*
X76254Y18143D01*
X76800Y18035D01*
X76800Y18035D01*
X86575D01*
X86575Y18035D01*
X87121Y18143D01*
X87584Y18453D01*
X90134Y21003D01*
X90444Y21466D01*
X90552Y22012D01*
X90444Y22558D01*
X90134Y23021D01*
X89671Y23331D01*
X89125Y23439D01*
X88579Y23331D01*
X88568Y23323D01*
X88556Y23321D01*
X88098Y23015D01*
X88075Y22981D01*
X85984Y20889D01*
X77391D01*
X70440Y27840D01*
X69977Y28150D01*
X69431Y28258D01*
X69431Y28258D01*
X64954D01*
Y30055D01*
X60414D01*
Y29548D01*
X59914Y29425D01*
X59772Y29638D01*
X58988Y30161D01*
X58064Y30345D01*
X57871Y30307D01*
X56869Y31308D01*
X56406Y31618D01*
X55860Y31726D01*
D02*
G37*
G36*
X62184Y21871D02*
X60314D01*
Y20099D01*
X62184D01*
Y21871D01*
D02*
G37*
G36*
X42628Y33115D02*
X42088Y33008D01*
X41630Y32702D01*
X41324Y32244D01*
X41219Y31715D01*
X40815D01*
Y19931D01*
X44529D01*
Y31715D01*
X44037D01*
X43932Y32244D01*
X43626Y32702D01*
X43168Y33008D01*
X42628Y33115D01*
D02*
G37*
G36*
X135670Y25338D02*
X134746Y25154D01*
X133962Y24631D01*
X133439Y23847D01*
X133255Y22923D01*
X133439Y21999D01*
X133962Y21215D01*
X134746Y20692D01*
X135670Y20508D01*
X136594Y20692D01*
X137378Y21215D01*
X137901Y21999D01*
X138017Y22584D01*
X138539Y22481D01*
X139079Y22588D01*
X139537Y22894D01*
X139843Y23352D01*
X139950Y23892D01*
X139843Y24432D01*
X139537Y24890D01*
X139079Y25196D01*
X138539Y25303D01*
X137999Y25196D01*
X137541Y24890D01*
X137487Y24810D01*
X137110D01*
X136594Y25154D01*
X135670Y25338D01*
D02*
G37*
G36*
X65054Y21871D02*
X63184D01*
Y20099D01*
X65054D01*
Y21871D01*
D02*
G37*
G36*
X56846Y55629D02*
X56146D01*
Y54929D01*
X56846D01*
Y55629D01*
D02*
G37*
G36*
X57351Y85634D02*
X56651D01*
Y84934D01*
X57351D01*
Y85634D01*
D02*
G37*
G36*
X66861Y85272D02*
X66161D01*
Y84572D01*
X66861D01*
Y85272D01*
D02*
G37*
G36*
X92301Y87865D02*
X87970D01*
Y85798D01*
X92301D01*
Y87865D01*
D02*
G37*
G36*
X81607Y89350D02*
X76869D01*
Y84614D01*
X81607D01*
Y85118D01*
X82107Y85470D01*
X82369Y85418D01*
X82909Y85525D01*
X83367Y85831D01*
X83673Y86289D01*
X83780Y86829D01*
X83673Y87369D01*
X83367Y87827D01*
X82909Y88133D01*
X82369Y88240D01*
X82107Y88188D01*
X81607Y88540D01*
Y89350D01*
D02*
G37*
G36*
X92301Y84798D02*
X87970D01*
Y82731D01*
X92301D01*
Y84798D01*
D02*
G37*
G36*
X64771Y83100D02*
X64071D01*
Y82400D01*
X64771D01*
Y83100D01*
D02*
G37*
G36*
X80146Y83934D02*
X79446D01*
Y83234D01*
X80146D01*
Y83934D01*
D02*
G37*
G36*
X97632Y84798D02*
X93301D01*
Y82731D01*
X97632D01*
Y84798D01*
D02*
G37*
G36*
Y87865D02*
X93301D01*
Y85798D01*
X97632D01*
Y87865D01*
D02*
G37*
G36*
X53715Y93062D02*
X53015D01*
Y92362D01*
X53715D01*
Y93062D01*
D02*
G37*
G36*
X52015D02*
X51315D01*
Y92362D01*
X52015D01*
Y93062D01*
D02*
G37*
G36*
X97632Y99479D02*
X93301D01*
Y97412D01*
X97632D01*
Y99479D01*
D02*
G37*
G36*
X92301D02*
X87970D01*
Y97412D01*
X92301D01*
Y99479D01*
D02*
G37*
G36*
X103535Y101183D02*
X102995Y101076D01*
X102537Y100770D01*
X102231Y100312D01*
X102124Y99772D01*
X102221Y99282D01*
X102202Y99187D01*
X101971Y98782D01*
X101971Y98782D01*
X101971Y98782D01*
Y95424D01*
X101971Y95424D01*
Y95239D01*
X101971D01*
X101971Y94924D01*
Y91879D01*
X105133D01*
Y92913D01*
X106110Y93890D01*
X107342D01*
X107406Y93885D01*
X107827Y93731D01*
Y89554D01*
X107827D01*
X107726Y89096D01*
X107718Y89084D01*
X107611Y88544D01*
X107718Y88004D01*
X108024Y87546D01*
X108482Y87240D01*
X109022Y87133D01*
X109562Y87240D01*
X110020Y87546D01*
X110326Y88004D01*
X110433Y88544D01*
X110331Y89057D01*
X110436Y89219D01*
X110656Y89490D01*
X111193D01*
Y90690D01*
X111693D01*
Y91190D01*
X112893D01*
Y91890D01*
X112793D01*
Y93890D01*
X112793Y93890D01*
X112889Y94291D01*
X112889Y94291D01*
X112889Y94350D01*
Y97847D01*
X112889Y97847D01*
X112889D01*
X112893Y98345D01*
X112997Y98500D01*
X113104Y99040D01*
X112997Y99580D01*
X112691Y100038D01*
X112233Y100344D01*
X111693Y100451D01*
X111153Y100344D01*
X110695Y100038D01*
X110389Y99580D01*
X110282Y99040D01*
X110389Y98500D01*
X110212Y97974D01*
X110013Y97847D01*
X107757D01*
X107393Y98174D01*
Y98190D01*
X105193D01*
X105179Y98302D01*
X105133Y98782D01*
X105133D01*
X104868Y99188D01*
X104849Y99282D01*
X104946Y99772D01*
X104839Y100312D01*
X104533Y100770D01*
X104075Y101076D01*
X103535Y101183D01*
D02*
G37*
G36*
X112893Y90190D02*
X112193D01*
Y89490D01*
X112893D01*
Y90190D01*
D02*
G37*
G36*
X47630Y93062D02*
X46930D01*
Y92362D01*
X47630D01*
Y93062D01*
D02*
G37*
G36*
X45930D02*
X45230D01*
Y92362D01*
X45930D01*
Y93062D01*
D02*
G37*
G36*
X80146Y82234D02*
X79446D01*
Y81534D01*
X80146D01*
Y82234D01*
D02*
G37*
G36*
X42018Y64759D02*
X40738D01*
Y63578D01*
X42018D01*
Y64759D01*
D02*
G37*
G36*
X41047Y62934D02*
X36310D01*
Y62579D01*
X35950Y62242D01*
X32788D01*
Y61989D01*
X21202D01*
X21002Y62190D01*
X20971Y62236D01*
X20925Y62267D01*
X20906Y62285D01*
X20443Y62595D01*
X19897Y62703D01*
X19351Y62595D01*
X18888Y62285D01*
X18578Y61822D01*
X18470Y61276D01*
X18578Y60730D01*
X18888Y60267D01*
X19602Y59553D01*
X19602Y59553D01*
X20065Y59243D01*
X20611Y59135D01*
X20611Y59135D01*
X32328D01*
X32688Y58798D01*
X32688Y58424D01*
Y57518D01*
X34369D01*
X36050D01*
Y57805D01*
X36310Y58197D01*
X36550Y58197D01*
X41047D01*
Y59158D01*
X41227Y59306D01*
X41767Y59413D01*
X42225Y59719D01*
X42531Y60177D01*
X42638Y60717D01*
X42531Y61257D01*
X42225Y61715D01*
X41767Y62021D01*
X41227Y62128D01*
X41047Y62276D01*
Y62934D01*
D02*
G37*
G36*
X42018Y66940D02*
X40738D01*
Y65759D01*
X42018D01*
Y66940D01*
D02*
G37*
G36*
X116821Y65079D02*
X115147D01*
Y64489D01*
X116821D01*
Y65079D01*
D02*
G37*
G36*
X36050Y56518D02*
X34869D01*
Y55238D01*
X36050D01*
Y56518D01*
D02*
G37*
G36*
X33869D02*
X32688D01*
Y55238D01*
X33869D01*
Y56518D01*
D02*
G37*
G36*
X139700Y64234D02*
X138773Y64112D01*
X137910Y63755D01*
X137168Y63186D01*
X136599Y62444D01*
X136242Y61581D01*
X136120Y60654D01*
X136242Y59727D01*
X136599Y58864D01*
X137168Y58122D01*
X137910Y57553D01*
X138773Y57196D01*
X139700Y57074D01*
X140627Y57196D01*
X141490Y57553D01*
X142232Y58122D01*
X142801Y58864D01*
X143158Y59727D01*
X143280Y60654D01*
X143158Y61581D01*
X142801Y62444D01*
X142232Y63186D01*
X141490Y63755D01*
X140627Y64112D01*
X139700Y64234D01*
D02*
G37*
G36*
X67170Y57291D02*
X66470D01*
Y56591D01*
X67170D01*
Y57291D01*
D02*
G37*
G36*
X126240Y67412D02*
X125540D01*
Y66712D01*
X126240D01*
Y67412D01*
D02*
G37*
G36*
X112844Y76863D02*
X112144D01*
Y76163D01*
X112844D01*
Y76863D01*
D02*
G37*
G36*
X78967Y77655D02*
X77277D01*
Y75768D01*
X78116D01*
X78441Y75833D01*
X78717Y76017D01*
X78902Y76294D01*
X78967Y76619D01*
Y77655D01*
D02*
G37*
G36*
X112841Y80560D02*
X112141D01*
Y79860D01*
X112841D01*
Y80560D01*
D02*
G37*
G36*
X78116Y80541D02*
X77277D01*
Y78655D01*
X78967D01*
Y79690D01*
X78902Y80016D01*
X78717Y80292D01*
X78441Y80476D01*
X78116Y80541D01*
D02*
G37*
G36*
X143315Y70154D02*
X140200D01*
Y67039D01*
X140653Y67098D01*
X141541Y67466D01*
X142303Y68051D01*
X142888Y68814D01*
X143256Y69701D01*
X143315Y70154D01*
D02*
G37*
G36*
X139200D02*
X136085D01*
X136144Y69701D01*
X136512Y68814D01*
X137097Y68051D01*
X137859Y67466D01*
X138747Y67098D01*
X139200Y67039D01*
Y70154D01*
D02*
G37*
G36*
X140200Y74269D02*
Y71154D01*
X143315D01*
X143256Y71607D01*
X142888Y72495D01*
X142303Y73257D01*
X141541Y73842D01*
X140653Y74210D01*
X140200Y74269D01*
D02*
G37*
G36*
X139200D02*
X138747Y74210D01*
X137859Y73842D01*
X137097Y73257D01*
X136512Y72495D01*
X136144Y71607D01*
X136085Y71154D01*
X139200D01*
Y74269D01*
D02*
G37*
%LPD*%
D10*
X81055Y29179D02*
D03*
Y27079D02*
D03*
X87332Y32208D02*
D03*
Y34308D02*
D03*
X106792Y77404D02*
D03*
Y79504D02*
D03*
X104015Y81594D02*
D03*
Y83694D02*
D03*
X111693Y92790D02*
D03*
Y90690D02*
D03*
X108927Y90654D02*
D03*
Y92754D02*
D03*
X106293Y94990D02*
D03*
Y97090D02*
D03*
X52515Y95662D02*
D03*
Y93562D02*
D03*
X46430Y95662D02*
D03*
Y93562D02*
D03*
X135361Y31438D02*
D03*
Y33538D02*
D03*
X126484Y20942D02*
D03*
Y23042D02*
D03*
X124496Y23045D02*
D03*
Y20945D02*
D03*
X130980Y20940D02*
D03*
Y23040D02*
D03*
X124759Y29589D02*
D03*
Y31689D02*
D03*
X124458Y34592D02*
D03*
Y36692D02*
D03*
X128089Y36693D02*
D03*
Y38793D02*
D03*
X123024Y64113D02*
D03*
Y66213D02*
D03*
X121187Y88034D02*
D03*
Y85934D02*
D03*
X84111Y26120D02*
D03*
Y24020D02*
D03*
X90292Y30195D02*
D03*
Y28095D02*
D03*
X59484Y46740D02*
D03*
Y48840D02*
D03*
X66258Y26535D02*
D03*
Y24435D02*
D03*
X53921Y84447D02*
D03*
Y82347D02*
D03*
X59453Y89370D02*
D03*
Y91470D02*
D03*
X57346Y58229D02*
D03*
Y56129D02*
D03*
X52628Y57785D02*
D03*
Y55685D02*
D03*
X56151Y82334D02*
D03*
Y84434D02*
D03*
X86174Y26100D02*
D03*
Y28200D02*
D03*
X125040Y64112D02*
D03*
Y66212D02*
D03*
X59444Y85371D02*
D03*
Y83271D02*
D03*
X65271Y81900D02*
D03*
Y79800D02*
D03*
X59871Y56119D02*
D03*
Y58219D02*
D03*
X63021Y48785D02*
D03*
Y46685D02*
D03*
X65203Y48786D02*
D03*
Y46686D02*
D03*
X57318Y48845D02*
D03*
Y46745D02*
D03*
X120997Y64114D02*
D03*
Y62014D02*
D03*
X67361Y81972D02*
D03*
Y84072D02*
D03*
D11*
X81075Y31192D02*
D03*
X83175D02*
D03*
X109541Y79360D02*
D03*
X111641D02*
D03*
X109697Y11970D02*
D03*
X111797D02*
D03*
X109697Y13980D02*
D03*
X111797D02*
D03*
X120806Y11982D02*
D03*
X122906D02*
D03*
X120804Y13985D02*
D03*
X122904D02*
D03*
X131499Y13808D02*
D03*
X133599D02*
D03*
X131499Y11790D02*
D03*
X133599D02*
D03*
X128860Y31701D02*
D03*
X126760D02*
D03*
X128561Y34567D02*
D03*
X126461D02*
D03*
X109544Y77363D02*
D03*
X111644D02*
D03*
X128065Y42172D02*
D03*
X130165D02*
D03*
X125134Y51972D02*
D03*
X123034D02*
D03*
X125120Y53930D02*
D03*
X123020D02*
D03*
X125110Y55919D02*
D03*
X123010D02*
D03*
X125110Y57927D02*
D03*
X123010D02*
D03*
X125115Y59984D02*
D03*
X123015D02*
D03*
X125114Y62008D02*
D03*
X123014D02*
D03*
X127130Y25337D02*
D03*
X125030D02*
D03*
X86185Y30198D02*
D03*
X88285D02*
D03*
X127131Y27318D02*
D03*
X125031D02*
D03*
X76846Y82734D02*
D03*
X78946D02*
D03*
X59459Y93622D02*
D03*
X57359D02*
D03*
X50542Y95660D02*
D03*
X48442D02*
D03*
X59444Y87370D02*
D03*
X61544D02*
D03*
X55258Y95666D02*
D03*
X57358D02*
D03*
X59460Y95667D02*
D03*
X57360D02*
D03*
X63870Y56091D02*
D03*
X65970D02*
D03*
X83170Y33252D02*
D03*
X85270D02*
D03*
D12*
X37672Y25823D02*
D03*
X32672D02*
D03*
Y9799D02*
D03*
X37672D02*
D03*
X42672Y25823D02*
D03*
X47672D02*
D03*
X52672D02*
D03*
X42672Y9799D02*
D03*
X47672D02*
D03*
X52672D02*
D03*
D13*
X108945Y95183D02*
D03*
Y96955D02*
D03*
X106785Y83624D02*
D03*
Y81852D02*
D03*
D14*
X111701Y96069D02*
D03*
X109541Y82738D02*
D03*
D15*
X101278Y80138D02*
D03*
Y83682D02*
D03*
X103552Y93559D02*
D03*
Y97103D02*
D03*
X62707Y26850D02*
D03*
Y23306D02*
D03*
X34369Y60562D02*
D03*
Y57018D02*
D03*
X49123Y55835D02*
D03*
Y52291D02*
D03*
D16*
X129530Y88084D02*
D03*
D17*
X123822Y84147D02*
D03*
Y88084D02*
D03*
Y92021D02*
D03*
X135239D02*
D03*
Y88084D02*
D03*
Y84147D02*
D03*
D18*
X96197Y36769D02*
D03*
Y34210D02*
D03*
Y31651D02*
D03*
Y29092D02*
D03*
Y26533D02*
D03*
Y23974D02*
D03*
Y21415D02*
D03*
X118795D02*
D03*
Y23974D02*
D03*
Y26533D02*
D03*
Y29092D02*
D03*
Y31651D02*
D03*
Y34210D02*
D03*
Y36769D02*
D03*
D19*
X106970Y58083D02*
D03*
D20*
X99293Y52178D02*
D03*
Y54146D02*
D03*
Y56115D02*
D03*
Y58083D02*
D03*
Y60052D02*
D03*
Y62020D02*
D03*
Y63989D02*
D03*
X114647D02*
D03*
Y62020D02*
D03*
Y60052D02*
D03*
Y58083D02*
D03*
Y56115D02*
D03*
Y54146D02*
D03*
Y52178D02*
D03*
D21*
X71758Y86982D02*
D03*
X79238D02*
D03*
X38679Y60566D02*
D03*
X46159D02*
D03*
X50117Y83490D02*
D03*
X42637D02*
D03*
D22*
X92801Y96912D02*
D03*
Y85298D02*
D03*
D23*
X86797Y91105D02*
D03*
D24*
X60964Y51734D02*
D03*
X57420D02*
D03*
X64510Y53455D02*
D03*
X68054D02*
D03*
X46062Y65259D02*
D03*
X42518D02*
D03*
D25*
X68766Y49034D02*
D03*
X138433Y30596D02*
D03*
X65123Y41397D02*
D03*
X135670Y22923D02*
D03*
X91007Y37748D02*
D03*
X100318Y11331D02*
D03*
X127502Y12556D02*
D03*
X83943Y57862D02*
D03*
X58064Y27930D02*
D03*
X93673Y17410D02*
D03*
X83155Y62809D02*
D03*
X99638Y70863D02*
D03*
X95002Y67628D02*
D03*
X22395Y32553D02*
D03*
X94503Y62700D02*
D03*
X18909Y41273D02*
D03*
X19789Y36776D02*
D03*
X130524Y62186D02*
D03*
X130617Y56105D02*
D03*
X127118Y45527D02*
D03*
D26*
X62684Y27883D02*
D03*
Y22371D02*
D03*
D27*
X76209Y48081D02*
D03*
Y57924D02*
D03*
D28*
X72249Y72446D02*
D03*
Y78155D02*
D03*
X76777Y72446D02*
D03*
Y78155D02*
D03*
D29*
X54669Y61347D02*
D03*
X53094D02*
D03*
X57819D02*
D03*
X56244D02*
D03*
Y77095D02*
D03*
X53094D02*
D03*
X54669D02*
D03*
X60968Y61347D02*
D03*
X59394D02*
D03*
X64118D02*
D03*
X62543D02*
D03*
X59394Y77095D02*
D03*
X57819D02*
D03*
X62543D02*
D03*
X60968D02*
D03*
X64118D02*
D03*
D30*
X50732Y65284D02*
D03*
Y63709D02*
D03*
Y70008D02*
D03*
Y71583D02*
D03*
Y66859D02*
D03*
Y68434D02*
D03*
Y73158D02*
D03*
Y74733D02*
D03*
X66480Y63709D02*
D03*
Y65284D02*
D03*
Y66859D02*
D03*
Y71583D02*
D03*
Y73158D02*
D03*
Y68434D02*
D03*
Y70008D02*
D03*
Y74733D02*
D03*
D31*
X58606Y69221D02*
D03*
D32*
X117313Y62111D02*
X117410Y62014D01*
X109541Y77340D02*
Y79360D01*
X109574Y72617D02*
Y77379D01*
X123014Y59974D02*
Y62008D01*
X121606Y59972D02*
X123016D01*
X108927Y88759D02*
X109118Y88568D01*
X106792Y75572D02*
X106932Y75432D01*
X135728Y22826D02*
X136794Y23892D01*
X138539D01*
X111301Y25583D02*
X112251Y26533D01*
X118795D01*
X83977Y26100D02*
X86174D01*
X111693Y96005D02*
Y99040D01*
Y96005D02*
X111719Y95979D01*
X106870Y73341D02*
X110066Y70145D01*
X106870Y73341D02*
Y75385D01*
X110066Y70145D02*
X117704D01*
X109574Y72617D02*
X110646Y71545D01*
X113468D01*
X111828Y5279D02*
Y11939D01*
X133599Y5285D02*
Y11790D01*
X59394Y83201D02*
X59468Y83275D01*
X117410Y62014D02*
X120997D01*
X114647Y62020D02*
X117309D01*
X121298Y59664D02*
X121606Y59972D01*
X123014Y59974D02*
X123016Y59972D01*
X113468Y71545D02*
X114155Y72232D01*
X117704Y70145D02*
X119603Y72044D01*
X120382D01*
X103552Y93559D02*
X104481D01*
X103981Y83728D02*
X104015Y83694D01*
X101333Y83728D02*
X103981D01*
X109541Y82738D02*
Y82760D01*
X109579Y82798D01*
X103573Y97103D02*
X103586Y97090D01*
X106293D01*
X111646Y96010D02*
X111693Y95963D01*
Y92790D02*
Y95963D01*
X108927Y88759D02*
Y90654D01*
X133593Y5279D02*
X133599Y5285D01*
X122899Y5350D02*
X122906Y5357D01*
Y11982D01*
X111797Y11970D02*
X111828Y11939D01*
X127193Y55818D02*
X129995D01*
X22475Y32606D02*
X24299Y34430D01*
X25239D01*
X59394Y77095D02*
Y83201D01*
X106792Y75572D02*
Y77404D01*
X109541Y79360D02*
Y82738D01*
X104481Y93559D02*
X106105Y95183D01*
X32669Y10001D02*
X32671Y10003D01*
X30192Y10001D02*
X32669D01*
X83939Y26138D02*
X83977Y26100D01*
X84111Y26120D02*
Y27739D01*
X83858Y27992D02*
X84111Y27739D01*
X82356Y24020D02*
X84111D01*
X82075Y23739D02*
X82356Y24020D01*
X81055Y26898D02*
Y27079D01*
X79537Y25380D02*
X81055Y26898D01*
X127152Y62082D02*
X130532D01*
X130604Y62154D01*
X129995Y55818D02*
X130547Y56370D01*
X118795Y26533D02*
X124894D01*
X125030Y26669D01*
X125037Y26676D01*
X125030Y25337D02*
Y26669D01*
X96197Y29092D02*
X100652D01*
X100654Y29090D01*
X109519Y77318D02*
X109541Y77340D01*
X109574Y77379D02*
X109606Y77411D01*
D33*
X124443Y34576D02*
X124452Y34567D01*
X124411Y34608D02*
X124443Y34576D01*
X124452Y34567D02*
X126461D01*
X127952Y36692D02*
X128089Y36555D01*
X83170Y31221D02*
X83199Y31192D01*
X88245Y31704D02*
X96429D01*
X87292Y32199D02*
X87325Y32232D01*
X85248Y33345D02*
X85338Y33255D01*
X93951Y26517D02*
X96334D01*
X88312Y30282D02*
X88399Y30195D01*
X86185Y28155D02*
Y30198D01*
X86237Y32199D02*
X87292D01*
X85270Y33166D02*
X86237Y32199D01*
X85270Y33166D02*
Y33252D01*
X87782Y32167D02*
X88245Y31704D01*
X87358Y32167D02*
X87782D01*
X138562Y29664D02*
X139237Y30339D01*
X135323Y30544D02*
Y31487D01*
X131102Y29459D02*
X134155D01*
X124496Y20945D02*
X126487D01*
X118629Y21468D02*
X122710D01*
X134152Y29373D02*
X135323Y30544D01*
X128860Y31701D02*
X131102Y29459D01*
X137649Y31438D02*
X138453Y30634D01*
X135361Y31438D02*
X137649D01*
X128086Y42112D02*
X128152Y42178D01*
X135273Y33511D02*
X135345D01*
X130390Y38394D02*
X135273Y33511D01*
X100272Y11162D02*
X101733Y12623D01*
X134353Y84147D02*
X135239D01*
X88399Y30195D02*
X90292D01*
X86146Y28116D02*
X86185Y28155D01*
X83170Y31221D02*
Y33252D01*
X123321Y23045D02*
X124496D01*
X122382Y23984D02*
X123321Y23045D01*
X124496D02*
X126460D01*
X126473Y23032D01*
X123233Y20945D02*
X124496D01*
X122710Y21468D02*
X123233Y20945D01*
X126487D02*
X126495Y20953D01*
X107779Y13980D02*
X109697D01*
X107543Y14216D02*
X107779Y13980D01*
X101733Y12623D02*
X103470D01*
X96429Y31704D02*
X96478Y31655D01*
X90292Y30195D02*
X91356D01*
X92266Y28202D02*
X93951Y26517D01*
X92266Y28202D02*
Y29285D01*
X91356Y30195D02*
X92266Y29285D01*
X96197Y36769D02*
X96627Y37199D01*
X127131Y27318D02*
X128721D01*
X129446Y28043D01*
X118946Y31647D02*
X118988Y31689D01*
X124687Y31707D02*
X124693Y31701D01*
X118988Y31689D02*
X124759D01*
X124693Y31701D02*
X126760D01*
X119121Y36692D02*
X124458D01*
X119072Y36741D02*
X119121Y36692D01*
X118853Y34236D02*
X124102D01*
X124443Y34576D01*
X128065Y42172D02*
Y44377D01*
X127233Y45209D02*
X128065Y44377D01*
X124458Y36692D02*
X127952D01*
X128089Y38793D02*
Y42079D01*
Y38793D02*
X128488Y38394D01*
X130390D01*
X126484Y20942D02*
X128286D01*
X128584Y20644D01*
X126484Y23042D02*
X130938D01*
X130947Y23051D01*
X118552Y23984D02*
X122382D01*
D34*
X84029Y57862D02*
Y58225D01*
X66465Y63731D02*
X68479D01*
X92374Y22548D02*
X93800Y23974D01*
X92374Y18709D02*
Y22548D01*
Y18709D02*
X93615Y17468D01*
X93750Y17371D02*
X94527Y16594D01*
X118289D01*
X78336Y63918D02*
X84029Y58225D01*
X74348Y63918D02*
X78336D01*
X72798Y62368D02*
X74348Y63918D01*
X70599Y62368D02*
X72798D01*
X70487Y62256D02*
X70599Y62368D01*
X66465Y65306D02*
X67449D01*
X81405Y64899D02*
X83261Y63043D01*
X73089Y64899D02*
X81405D01*
X72142Y63952D02*
X73089Y64899D01*
X68729Y65699D02*
X89745D01*
X70121Y67444D02*
X94695D01*
X70852Y68301D02*
X91126D01*
X127547Y12485D02*
X128957Y13895D01*
X131132Y11874D02*
X131518D01*
X127403Y12485D02*
X127547D01*
X125612Y17394D02*
X131132Y11874D01*
X102513Y17394D02*
X125612D01*
X98426Y21481D02*
X102513Y17394D01*
X97298Y21481D02*
X98426D01*
X93800Y23974D02*
X96197D01*
X42599Y9758D02*
Y16346D01*
Y9758D02*
X42647Y9710D01*
X47603Y9701D02*
Y16371D01*
X42628Y25875D02*
X42783Y25720D01*
X109282Y12460D02*
X109752Y11990D01*
X130456Y13681D02*
X131525D01*
X123049Y53863D02*
X123107Y53921D01*
X122560Y54418D02*
X123057Y53921D01*
X121010Y53863D02*
X123049D01*
X99088Y70196D02*
X99725Y70834D01*
X22831Y39708D02*
X23641Y40518D01*
X23321Y36796D02*
X26243Y39718D01*
X30133D01*
X33022Y36830D01*
X78944D01*
X33353Y37630D02*
X78613D01*
X30465Y40518D02*
X33353Y37630D01*
X23641Y40518D02*
X30465D01*
X25082Y72133D02*
X25232Y72283D01*
X34530D01*
X25401Y80329D02*
X25490Y80240D01*
X32401D01*
X50617Y74618D02*
X50732Y74733D01*
X38023Y74618D02*
X50617D01*
X32401Y80240D02*
X38023Y74618D01*
X34530Y72283D02*
X36148Y70665D01*
X53079Y77117D02*
Y78092D01*
X52849Y78322D02*
X53079Y78092D01*
X37225Y78322D02*
X52849D01*
X45868Y69051D02*
X49613Y65306D01*
X38660Y69051D02*
X45868D01*
X37345Y67736D02*
X38660Y69051D01*
X46200Y69851D02*
X49170Y66881D01*
X35551Y69851D02*
X46200D01*
X34641Y70761D02*
X35551Y69851D01*
X36148Y70665D02*
X46539D01*
X48749Y68455D01*
X46870Y71465D02*
X48305Y70030D01*
X36844Y71465D02*
X46870D01*
X34527Y73782D02*
X36844Y71465D01*
X47333Y72265D02*
X48015Y71583D01*
X37175Y72265D02*
X47333D01*
X33237Y76203D02*
X37175Y72265D01*
X31796Y78776D02*
X37507Y73065D01*
X50639D02*
X50732Y73158D01*
X37507Y73065D02*
X50639D01*
X31796Y78776D02*
Y78895D01*
X31409Y76203D02*
X33237D01*
X48015Y71583D02*
X50732D01*
X32440Y73868D02*
X32830D01*
X32454Y73782D02*
X34527D01*
X32361Y81809D02*
X36980D01*
X39576Y79213D01*
X53641D01*
X39945Y80013D02*
X54770D01*
X35827Y84131D02*
X39945Y80013D01*
X34367Y84131D02*
X35827D01*
X33435Y70699D02*
X34579D01*
X34641Y70761D01*
X118758Y56115D02*
X121010Y53863D01*
X114647Y56115D02*
X118758D01*
X114651Y58080D02*
X121954D01*
X114647Y58083D02*
X114651Y58080D01*
X121957Y58083D02*
X122819D01*
X121954Y58080D02*
X121957Y58083D01*
X101571Y69045D02*
X119243D01*
X99768Y70848D02*
X101571Y69045D01*
X95532Y13873D02*
Y14128D01*
X96188Y12289D02*
X98894Y14994D01*
X94746Y12289D02*
X96188D01*
X123301Y44950D02*
X126780D01*
X93022Y70196D02*
X99088D01*
X95900Y66024D02*
X97935Y63989D01*
X99293D01*
X123108Y64128D02*
X123124Y64112D01*
X120997Y64114D02*
X122910D01*
X114647Y54146D02*
X117474D01*
X93945Y56115D02*
X99293D01*
X29477Y38134D02*
X31581Y36030D01*
X42628Y25875D02*
Y31704D01*
X37140Y67737D02*
X37344D01*
X37345Y67736D01*
X104407Y14994D02*
X106941Y12460D01*
X98894Y14994D02*
X104407D01*
X106941Y12460D02*
X109282D01*
X93893Y11436D02*
X94746Y12289D01*
X109458Y11970D02*
X109697D01*
X125943Y18194D02*
X130456Y13681D01*
X101625Y20692D02*
X104123Y18194D01*
X95532Y14128D02*
X97198Y15794D01*
X118289Y16594D02*
X120730Y14153D01*
X116740Y15794D02*
X120510Y12024D01*
X120760D01*
X97449Y51227D02*
X98417Y52195D01*
X97449Y50361D02*
Y51227D01*
X95607Y53435D02*
X96318Y54146D01*
X99293D01*
X47603Y9701D02*
X47636Y9668D01*
X90902Y64543D02*
X91065D01*
X89745Y65699D02*
X90902Y64543D01*
X121209Y56117D02*
X121407Y55919D01*
X123010D01*
X125114Y62008D02*
X127025D01*
X125155Y55818D02*
X127193D01*
X122819Y58083D02*
X122976Y57926D01*
X125110Y56057D02*
Y57927D01*
X125115Y57855D02*
X125125Y57845D01*
X96842Y58083D02*
X99293D01*
X123124Y64112D02*
X125040D01*
X122910Y64114D02*
X122962Y64062D01*
X125120Y51842D02*
X125134Y51828D01*
X53641Y79213D02*
X54654Y78199D01*
X66480Y70008D02*
X67556D01*
X67496Y66933D02*
X68729Y65699D01*
X71923Y63952D02*
X72142D01*
X67932Y64823D02*
X71052D01*
X71923Y63952D01*
X54770Y80013D02*
X56229Y78554D01*
Y77117D02*
Y78554D01*
X49613Y65306D02*
X50717D01*
X67449D02*
X67932Y64823D01*
X66517Y66933D02*
X67496D01*
X68479Y63731D02*
X69956Y62255D01*
X66465Y66881D02*
X66517Y66933D01*
X69956Y62255D02*
X70304D01*
X48305Y70030D02*
X50717D01*
X54654Y77117D02*
Y78199D01*
X48749Y68455D02*
X50717D01*
X49170Y66881D02*
X50717D01*
X94695Y67444D02*
X94914Y67663D01*
X67556Y70008D02*
X70121Y67444D01*
X91126Y68301D02*
X93022Y70196D01*
X67745Y71408D02*
X70852Y68301D01*
X88037Y45923D02*
Y46577D01*
X86158Y45175D02*
Y49047D01*
X78944Y36830D02*
X88037Y45923D01*
X78613Y37630D02*
X86158Y45175D01*
X88974Y43617D02*
X88977Y43620D01*
X90668D01*
X119436Y42993D02*
X121344D01*
X118324Y44105D02*
X119436Y42993D01*
X121344D02*
X123301Y44950D01*
X117992Y43305D02*
X119104Y42193D01*
X123125D01*
X124115Y43183D01*
X117661Y42505D02*
X118773Y41393D01*
X123215D01*
X124331Y40277D01*
X90668Y43620D02*
X91118Y43171D01*
X92430D01*
X93365Y44105D01*
X118324D01*
X93696Y43305D02*
X117992D01*
X94027Y42505D02*
X117661D01*
X92435Y42044D02*
X93696Y43305D01*
X92766Y41244D02*
X94027Y42505D01*
X79276Y36030D02*
X85289Y42044D01*
X92435D01*
X31581Y36030D02*
X79276D01*
X35562Y79985D02*
X37225Y78322D01*
X125134Y49930D02*
Y51828D01*
X125120Y51842D02*
Y53930D01*
X127025Y62008D02*
X127187Y62170D01*
X79607Y35230D02*
X85621Y41244D01*
X92766D01*
X28733Y35230D02*
X79607D01*
X27547Y36416D02*
X28733Y35230D01*
X32150Y82020D02*
X32361Y81809D01*
X125072Y55901D02*
X125155Y55818D01*
X125115Y57855D02*
Y59984D01*
X125110Y60018D02*
X125186Y59942D01*
X97198Y15794D02*
X116740D01*
X104123Y18194D02*
X125943D01*
X79938Y34430D02*
X85952Y40444D01*
X93097D01*
X94359Y41705D01*
X25239Y34430D02*
X79938D01*
X94359Y41705D02*
X111593D01*
X112751Y40547D01*
X127088Y45417D02*
X127264Y45241D01*
X126780Y44950D02*
X127167Y45337D01*
D35*
X32565Y19235D02*
Y26565D01*
X119334Y45305D02*
X120086Y44553D01*
X45850Y43929D02*
X57874D01*
X49073Y55767D02*
X51091Y57785D01*
X113931Y30185D02*
X115032Y29084D01*
X113931Y30185D02*
Y30414D01*
X130859Y35263D02*
X130878Y35244D01*
Y35238D02*
Y35244D01*
X46430Y95662D02*
X48200D01*
X57360Y95667D02*
X57375Y95652D01*
X59459Y91391D02*
X59503Y91347D01*
X57355Y93585D02*
X57360Y93590D01*
X59402Y87403D02*
X59453Y87454D01*
X68486Y48786D02*
X68830Y49130D01*
X65184Y48785D02*
X65193Y48776D01*
X103508Y97077D02*
X103535Y97104D01*
Y99772D01*
X101278Y83682D02*
Y86348D01*
X121187Y88034D02*
Y89650D01*
X121241Y88080D02*
X121245Y88084D01*
X123822D01*
X121187Y89650D02*
X121239Y89702D01*
X61544Y87370D02*
Y89088D01*
Y85786D02*
Y87370D01*
X63426D01*
X59393Y45448D02*
Y46649D01*
X57874Y43929D02*
X59393Y45448D01*
X65203Y48786D02*
X68486D01*
X59393Y46649D02*
X59484Y46740D01*
X62908D02*
X62964Y46684D01*
X59484Y46740D02*
X62908D01*
X63021Y48785D02*
X65184D01*
X53190Y54402D02*
X57606D01*
X57420Y54123D02*
X57579Y54282D01*
X57420Y51734D02*
Y54123D01*
X56043Y84434D02*
X56055Y84422D01*
X34432Y57127D02*
X34453Y57148D01*
X57360Y54648D02*
X57606Y54402D01*
X59884Y56129D02*
X59900Y56113D01*
X57346Y56129D02*
X57360D01*
X52459Y53847D02*
X52531Y53919D01*
X52628Y54016D02*
Y55685D01*
X69276Y56091D02*
X69610Y56425D01*
X51091Y57785D02*
X52607D01*
X52628D01*
X52619Y53831D02*
X53190Y54402D01*
X57606D02*
X57647Y54361D01*
X57659Y54373D01*
X57669D01*
X137959Y88084D02*
X138108Y88233D01*
X59453Y87454D02*
Y89370D01*
X59444Y87421D02*
X59450Y87427D01*
X59444Y85371D02*
Y87370D01*
Y87421D01*
X121187Y84480D02*
Y85934D01*
X79354Y86829D02*
X82369D01*
X79296Y86887D02*
X79354Y86829D01*
X59459Y91391D02*
Y93622D01*
X57360Y93590D02*
Y95667D01*
X52531Y95666D02*
X55224D01*
X55258D01*
X55208Y95650D02*
X55224Y95666D01*
X52459Y95738D02*
X52531Y95666D01*
X50542Y95660D02*
X52549D01*
X55224Y95666D02*
X55304Y95746D01*
X43428Y96633D02*
X43477D01*
X44448Y95662D01*
X46430D01*
X32565Y26565D02*
X32731Y26731D01*
X92324Y45305D02*
X119334D01*
X91774Y44755D02*
X92324Y45305D01*
X96197Y34391D02*
Y36769D01*
Y34391D02*
X96285Y34303D01*
X92086Y36769D02*
X96197D01*
X127130Y25337D02*
X129373D01*
X91074Y37781D02*
X92086Y36769D01*
X123604Y29589D02*
X124759D01*
X123159Y29144D02*
X123604Y29589D01*
X118838Y29144D02*
X123159D01*
X115032Y29084D02*
X118718D01*
X111641Y77423D02*
Y79360D01*
X124759Y29589D02*
X126974D01*
X127030Y29533D01*
X49098Y52818D02*
X51686D01*
X52584Y53716D01*
X57360Y54648D02*
Y56129D01*
X59884D01*
X65970Y56091D02*
X69276D01*
X61544Y85786D02*
X61928Y85402D01*
X61544Y89088D02*
X61917Y89461D01*
X63426Y87370D02*
X63510Y87454D01*
X128540Y34617D02*
X128594Y34563D01*
X111641Y77423D02*
X111700Y77364D01*
X120822Y84115D02*
X121187Y84480D01*
X135239Y88084D02*
X137959D01*
D36*
X57804Y58804D02*
Y61369D01*
X54654Y59890D02*
Y61369D01*
X52607Y57785D02*
Y57843D01*
X60953Y59715D02*
Y61369D01*
X52607Y57843D02*
X54654Y59890D01*
X64452Y53368D02*
X64511Y53309D01*
Y48861D02*
Y53309D01*
X63870Y54066D02*
X64437Y53499D01*
X63870Y54066D02*
Y56091D01*
Y56193D02*
Y56798D01*
X60953Y59715D02*
X63870Y56798D01*
X52502Y60762D02*
X52807Y61067D01*
X46159Y60566D02*
X46355Y60762D01*
X50137Y83425D02*
X51215Y82347D01*
X53921D01*
X56077D02*
X56113Y82311D01*
X53921Y82347D02*
X56077D01*
X62543Y77117D02*
Y78649D01*
X64482Y79533D02*
X65004D01*
X64374Y79425D02*
X64482Y79533D01*
X62543Y78649D02*
X63319Y79425D01*
X65004Y79533D02*
X65271Y79800D01*
X63319Y79425D02*
X64374D01*
X60970Y71622D02*
Y76030D01*
X60968Y76032D02*
X60970Y76030D01*
X60968Y76032D02*
Y77095D01*
X67628Y82239D02*
X68122D01*
X69635Y83751D01*
Y85136D02*
X69783Y85284D01*
X69635Y83751D02*
Y85136D01*
X65747Y79771D02*
X66804Y80828D01*
Y81415D02*
X67361Y81972D01*
X66804Y80828D02*
Y81415D01*
X57321Y58321D02*
X57804Y58804D01*
X60953Y61369D02*
X60953Y61369D01*
X56229D02*
Y66881D01*
X46156Y65135D02*
X46832D01*
X48258Y63709D01*
X50732D01*
X49172Y55876D02*
Y55950D01*
X56229Y66881D02*
X60970Y71622D01*
D37*
X83657Y45331D02*
Y45792D01*
X65203Y41353D02*
Y42694D01*
X64956Y41106D02*
X65203Y41353D01*
X55489Y46431D02*
X55803Y46745D01*
X55223Y58006D02*
X55425Y58208D01*
X80269Y91049D02*
X87023D01*
X75667Y95651D02*
X80269Y91049D01*
X59562Y95651D02*
X75667D01*
X65203Y43227D02*
Y46686D01*
Y42694D02*
Y43227D01*
X64683Y43747D02*
X65203Y43227D01*
X61651Y43747D02*
X64683D01*
X65203Y42694D02*
X65243Y42654D01*
X65203Y41353D02*
X65241Y41391D01*
X65497Y41647D02*
X65646Y41498D01*
X79824D01*
X83657Y45331D01*
X55803Y46745D02*
X57318D01*
X55571Y58237D02*
X57016D01*
X55435Y58101D02*
X55571Y58237D01*
X59795Y56043D02*
X59871Y56119D01*
X59807Y54351D02*
Y56031D01*
X59795Y56043D02*
X59807Y56031D01*
D38*
X19859Y87439D02*
X38688D01*
X38484Y60732D02*
X38608Y60856D01*
X19897Y61276D02*
X20611Y60562D01*
X38675Y60565D02*
X38719Y60609D01*
X47059Y55832D02*
X49123D01*
X62985Y26831D02*
X69431D01*
X62543Y27565D02*
X63131Y26977D01*
X86575Y19462D02*
X89125Y22012D01*
X76800Y19462D02*
X86575D01*
X69431Y26831D02*
X76800Y19462D01*
X58134Y27883D02*
X62684D01*
X58112Y27905D02*
X58134Y27883D01*
X55860Y30299D02*
X58112Y28047D01*
X55491Y30299D02*
X55860D01*
X20611Y60562D02*
X34369D01*
X19855Y87443D02*
X19859Y87439D01*
X53024Y30299D02*
X55491D01*
X53024D02*
X53108Y30215D01*
X52742Y29849D02*
X53108Y30215D01*
X46355Y60762D02*
X52502D01*
X38688Y87439D02*
X42637Y83490D01*
X45988Y54761D02*
X47059Y55832D01*
X34206Y60783D02*
X34379Y60610D01*
X34369Y60562D02*
X34539Y60732D01*
X38484D01*
D39*
X65013Y24435D02*
X66258D01*
X62855Y22516D02*
X63094D01*
X86888Y34752D02*
X87332Y34308D01*
X85525Y34752D02*
X86888D01*
X84602Y35675D02*
X85525Y34752D01*
X98812Y66654D02*
X100203Y68045D01*
X56139Y82263D02*
Y82473D01*
X19165Y41209D02*
X20666Y39708D01*
X22831D01*
X20189Y36744D02*
X21061Y35872D01*
X22397D01*
X23321Y36796D01*
X117847Y67382D02*
X119605D01*
X117184Y68045D02*
X117847Y67382D01*
X100203Y68045D02*
X117184D01*
X106314Y95183D02*
X108945D01*
X102232Y80138D02*
X103726Y81632D01*
X101278Y80138D02*
X102232D01*
X104043Y81695D02*
X104200Y81852D01*
X104110Y83624D02*
X106785D01*
X104200Y81852D02*
X106785D01*
Y79594D02*
X106805Y79574D01*
X106785Y79594D02*
Y81852D01*
X106482Y96955D02*
X108945D01*
X112363Y63989D02*
X114647D01*
X120963Y64116D02*
Y66024D01*
X119605Y67382D02*
X120963Y66024D01*
X53876Y84459D02*
X53901Y84434D01*
X65271Y83667D02*
X65277Y83673D01*
X64971Y82200D02*
X65271Y81900D01*
X112371Y52178D02*
X114647D01*
X57807Y77696D02*
Y79187D01*
X56186Y80808D02*
X57807Y79187D01*
X56186Y80808D02*
Y82217D01*
X56139Y82263D02*
X56186Y82217D01*
X103726Y81632D02*
X104106D01*
X106157Y95026D02*
X106314Y95183D01*
X108910Y92709D02*
X108945Y92744D01*
Y95183D01*
X106105D02*
X106314D01*
X104015Y83719D02*
X104110Y83624D01*
X106276Y97161D02*
X106482Y96955D01*
X63094Y22516D02*
X65013Y24435D01*
X53901Y84434D02*
X56043D01*
X106966Y58592D02*
X112363Y63989D01*
X111115Y53433D02*
X112371Y52178D01*
D40*
X70622Y82837D02*
X74808D01*
X74757Y82786D02*
X74809Y82734D01*
X75284Y33584D02*
X76668Y32200D01*
X50601Y33584D02*
X75284D01*
X47672Y30655D02*
X50601Y33584D01*
X47672Y25823D02*
Y30655D01*
X122904Y12184D02*
X123010Y12078D01*
X64103Y60286D02*
Y61369D01*
X62528Y60188D02*
Y61369D01*
X61911Y80796D02*
X62585D01*
X62528Y60188D02*
X64011Y58705D01*
X70553D01*
X133599Y11790D02*
Y13808D01*
X122904Y12184D02*
Y13985D01*
X111797Y12053D02*
X111832Y12018D01*
X111797Y12053D02*
Y13980D01*
X74809Y82734D02*
X76846D01*
X66239Y78454D02*
X70622Y82837D01*
X64305Y77808D02*
X65576D01*
X66222Y78454D01*
X66239D01*
X64118Y77095D02*
Y77622D01*
X64305Y77808D01*
X61235Y80132D02*
X61426Y80323D01*
X61459Y80261D02*
X61467Y80253D01*
X72961Y49558D02*
Y54479D01*
X71937Y55503D02*
X72961Y54479D01*
X70553Y58705D02*
X71937Y57321D01*
Y55503D02*
Y57321D01*
X64792Y59597D02*
X73257D01*
X64103Y60286D02*
X64792Y59597D01*
D41*
X69503Y66500D02*
X91578D01*
X94481Y62843D02*
X95209Y62115D01*
X99511D01*
X66465Y68455D02*
X66688Y68233D01*
X99511Y62115D02*
X99529Y62097D01*
X93898Y63531D02*
Y64180D01*
X91578Y66500D02*
X93898Y64180D01*
Y63531D02*
X94387Y63042D01*
X67770Y68233D02*
X69503Y66500D01*
X66688Y68233D02*
X67770D01*
D42*
X126516Y73725D02*
X129266Y76475D01*
X117194Y73725D02*
X126516D01*
X116811Y74108D02*
X117194Y73725D01*
X124614Y84153D02*
X129266Y79501D01*
X130225Y80019D02*
X134353Y84147D01*
X130225Y75987D02*
Y80019D01*
X118290Y51515D02*
X122677D01*
X124373Y84153D02*
X124614D01*
X122677Y51515D02*
X123064Y51902D01*
X125671Y71433D02*
X130225Y75987D01*
X124548Y71433D02*
X125671D01*
X129266Y76475D02*
Y79501D01*
X105313Y20065D02*
X106307Y19071D01*
X91556Y37700D02*
X94711Y40855D01*
X91556Y37600D02*
Y37700D01*
X94711Y40855D02*
X109982D01*
X110901Y39936D01*
Y38348D02*
Y39936D01*
X106307Y19071D02*
X126268D01*
X131024Y19649D02*
Y20885D01*
X126268Y19071D02*
X126828Y18511D01*
X129886D01*
X131024Y19649D01*
D43*
X37648Y25759D02*
Y32348D01*
X37647Y10020D02*
X37765Y9902D01*
X37647Y10020D02*
Y16346D01*
X37628Y25739D02*
X37648Y25759D01*
X37647Y16346D02*
X37894D01*
X37896Y16343D01*
X81075Y29242D02*
Y31192D01*
X81037Y29204D02*
X81075Y29242D01*
X79550Y29179D02*
X81055D01*
X79055Y28684D02*
X79550Y29179D01*
D44*
X57278Y48925D02*
X57363Y48840D01*
X60153Y49509D02*
Y51167D01*
X59484Y48840D02*
X60153Y49509D01*
X57363Y48840D02*
X59484D01*
X61688Y52282D02*
Y56880D01*
X61092Y51686D02*
X61688Y52282D01*
X60349Y58219D02*
X61688Y56880D01*
X59871Y58219D02*
X60349D01*
X59935Y58484D02*
Y58580D01*
X59394Y59121D02*
X59935Y58580D01*
X59394Y59121D02*
Y61347D01*
D45*
X72931Y69988D02*
Y70454D01*
X72174Y71211D02*
X72931Y70454D01*
X78376Y75857D02*
Y76722D01*
X72174Y71211D02*
Y72786D01*
X76652Y78446D02*
X78376Y76722D01*
D46*
X61521Y80232D02*
X61542Y80253D01*
X61467D02*
X61542D01*
D47*
X60971Y77883D02*
Y78847D01*
X61235Y79111D02*
Y80132D01*
X60971Y78847D02*
X61235Y79111D01*
D48*
X68375Y73318D02*
X70030Y74973D01*
X70446D01*
X70484Y75011D01*
X76655Y72786D02*
X76701D01*
X75423Y74018D02*
X76655Y72786D01*
X74476Y75011D02*
X75423Y74064D01*
Y74018D02*
Y74064D01*
X70484Y75011D02*
X74476D01*
X69998Y76735D02*
X72087D01*
X68054Y74922D02*
X68185D01*
X68155Y74892D02*
X68185Y74922D01*
X69998Y76735D01*
X66603Y73318D02*
X68375D01*
X66603Y74892D02*
X68155D01*
X66465Y74755D02*
X66603Y74892D01*
X66465Y73180D02*
X66603Y73318D01*
D49*
X39384Y60787D02*
X39454Y60717D01*
X41227D01*
D50*
X106733Y51935D02*
D03*
X107032Y64442D02*
D03*
D51*
X11738Y107860D02*
D03*
D52*
X65218Y119228D02*
D03*
D53*
X43524Y107921D02*
D03*
D54*
X139700Y60654D02*
D03*
Y70654D02*
D03*
D55*
X111783Y5318D02*
D03*
X122878D02*
D03*
X133553D02*
D03*
D56*
X89859Y18517D02*
D03*
X86448Y23762D02*
D03*
X74995Y25036D02*
D03*
X76332Y27526D02*
D03*
X77543Y22502D02*
D03*
X72056Y27989D02*
D03*
X70350Y31606D02*
D03*
X66505Y29443D02*
D03*
X64423Y31686D02*
D03*
X58945D02*
D03*
X75822Y12787D02*
D03*
X82958Y12404D02*
D03*
X131902Y42247D02*
D03*
X114877Y38934D02*
D03*
X106476Y47514D02*
D03*
X108747Y50266D02*
D03*
X104350Y50383D02*
D03*
X102078Y47514D02*
D03*
X97403Y47485D02*
D03*
X110874Y47456D02*
D03*
X78977Y32091D02*
D03*
X97516Y39121D02*
D03*
X84009Y35660D02*
D03*
X87322Y36407D02*
D03*
X89967Y33720D02*
D03*
X96670Y10206D02*
D03*
X109223Y9460D02*
D03*
X128254Y5160D02*
D03*
X125288Y9423D02*
D03*
X117567Y12186D02*
D03*
X114253Y13910D02*
D03*
X120281Y9607D02*
D03*
X114234Y9588D02*
D03*
X141701Y32422D02*
D03*
X138193Y34400D02*
D03*
X136351Y26782D02*
D03*
X133873Y16262D02*
D03*
X113931Y30414D02*
D03*
X116955Y40694D02*
D03*
X103744Y39023D02*
D03*
X101110Y36495D02*
D03*
X108371Y36618D02*
D03*
X108782Y32329D02*
D03*
X109047Y27867D02*
D03*
X103420Y30793D02*
D03*
X101050Y26256D02*
D03*
X100980Y23313D02*
D03*
X132271Y25246D02*
D03*
X130878Y35238D02*
D03*
X131104Y32136D02*
D03*
X134336Y19513D02*
D03*
X131999Y27678D02*
D03*
X133184Y33040D02*
D03*
X134152Y29373D02*
D03*
X138539Y23892D02*
D03*
X111266Y25548D02*
D03*
X88359Y27695D02*
D03*
X84220Y21912D02*
D03*
X78060Y61592D02*
D03*
X75394Y61603D02*
D03*
X142685Y27298D02*
D03*
Y13912D02*
D03*
Y526D02*
D03*
X139339Y20605D02*
D03*
X135992Y13912D02*
D03*
X139339Y7219D02*
D03*
X135992Y526D02*
D03*
X129299Y67456D02*
D03*
Y526D02*
D03*
X122606D02*
D03*
X115913D02*
D03*
X109220D02*
D03*
X105874Y33991D02*
D03*
Y7219D02*
D03*
X102527Y526D02*
D03*
X99181Y7219D02*
D03*
X95835Y526D02*
D03*
X92488Y7219D02*
D03*
X89142Y526D02*
D03*
X82449Y94227D02*
D03*
X85795Y7219D02*
D03*
X82449Y526D02*
D03*
X79102Y7219D02*
D03*
X75756Y526D02*
D03*
X72409Y7219D02*
D03*
X69063Y526D02*
D03*
X65716Y7219D02*
D03*
X62370Y526D02*
D03*
X59024Y7219D02*
D03*
X55677Y526D02*
D03*
X48984D02*
D03*
X42291Y40684D02*
D03*
Y526D02*
D03*
X35598D02*
D03*
X28905Y27298D02*
D03*
Y13912D02*
D03*
Y526D02*
D03*
X22213Y94227D02*
D03*
Y80841D02*
D03*
Y67456D02*
D03*
Y54070D02*
D03*
Y27298D02*
D03*
Y13912D02*
D03*
Y526D02*
D03*
X15520Y94227D02*
D03*
Y80841D02*
D03*
Y67456D02*
D03*
Y54070D02*
D03*
Y40684D02*
D03*
Y27298D02*
D03*
X18866Y20605D02*
D03*
X15520Y13912D02*
D03*
X18866Y7219D02*
D03*
X15520Y526D02*
D03*
X8827Y94227D02*
D03*
X12173Y87534D02*
D03*
X8827Y80841D02*
D03*
X12173Y74148D02*
D03*
X8827Y67456D02*
D03*
X12173Y60763D02*
D03*
Y33991D02*
D03*
X8827Y27298D02*
D03*
X12173Y20605D02*
D03*
X8827Y13912D02*
D03*
X12173Y7219D02*
D03*
X8827Y526D02*
D03*
X2134Y94227D02*
D03*
X5480Y87534D02*
D03*
X2134Y80841D02*
D03*
X5480Y74148D02*
D03*
X2134Y67456D02*
D03*
X5480Y60763D02*
D03*
X2134Y27298D02*
D03*
X5480Y20605D02*
D03*
X2134Y13912D02*
D03*
X5480Y7219D02*
D03*
X2134Y526D02*
D03*
X126549Y101514D02*
D03*
X120744Y101542D02*
D03*
X114096Y101516D02*
D03*
X111693Y99040D02*
D03*
X119567Y76935D02*
D03*
X110807Y65905D02*
D03*
X128854Y59127D02*
D03*
X127439Y64894D02*
D03*
X108037Y99176D02*
D03*
X114275Y76064D02*
D03*
X111961Y82224D02*
D03*
X104400Y79071D02*
D03*
X37450Y84974D02*
D03*
X39222Y83211D02*
D03*
X42550Y67394D02*
D03*
X131150Y100021D02*
D03*
X22661Y57579D02*
D03*
X23066Y43765D02*
D03*
Y49783D02*
D03*
X22723Y63816D02*
D03*
X22256Y75229D02*
D03*
X28487Y84598D02*
D03*
X22136Y84617D02*
D03*
X123358Y75555D02*
D03*
X126869Y76912D02*
D03*
X70876Y39344D02*
D03*
X51290Y39496D02*
D03*
X48816Y41489D02*
D03*
X59437Y41984D02*
D03*
X61808Y39525D02*
D03*
X88006Y63401D02*
D03*
X88038Y58275D02*
D03*
Y52412D02*
D03*
X88023Y46510D02*
D03*
X91967Y53012D02*
D03*
X103535Y99772D02*
D03*
X22831Y39708D02*
D03*
X101278Y86348D02*
D03*
X86144Y48975D02*
D03*
X75448Y39308D02*
D03*
X68035Y39344D02*
D03*
X23321Y36796D02*
D03*
X19859Y87516D02*
D03*
X48229Y76511D02*
D03*
X43833Y76499D02*
D03*
X39106Y76558D02*
D03*
X32090Y81893D02*
D03*
X31029Y78624D02*
D03*
X35603Y79857D02*
D03*
X33435Y70699D02*
D03*
X121298Y59664D02*
D03*
X117485Y54053D02*
D03*
X118290Y51515D02*
D03*
X122578Y49697D02*
D03*
X117323Y62032D02*
D03*
X115340Y49559D02*
D03*
X121146Y56139D02*
D03*
X122641Y46650D02*
D03*
X114140Y72254D02*
D03*
X116752Y74069D02*
D03*
X119683Y69459D02*
D03*
X120382Y72044D02*
D03*
X112055Y88075D02*
D03*
X109022Y88544D02*
D03*
X87391Y38733D02*
D03*
X88886Y43628D02*
D03*
X121219Y89781D02*
D03*
X120842Y84237D02*
D03*
X145022Y74544D02*
D03*
X62729Y83078D02*
D03*
X61911Y80796D02*
D03*
X107044Y58001D02*
D03*
X111076Y53389D02*
D03*
X102974Y53601D02*
D03*
X110824Y62518D02*
D03*
X103265Y62440D02*
D03*
X106658Y65893D02*
D03*
X114619Y66049D02*
D03*
X105138Y22661D02*
D03*
X113790Y21163D02*
D03*
X108926Y21145D02*
D03*
X131591Y50728D02*
D03*
X128719Y52949D02*
D03*
X128736Y48966D02*
D03*
X130427Y44483D02*
D03*
X130484Y40340D02*
D03*
X125011Y15487D02*
D03*
X130311Y16575D02*
D03*
X91561Y13939D02*
D03*
X54260Y17817D02*
D03*
X50648Y17923D02*
D03*
X80554Y16812D02*
D03*
X85877Y16741D02*
D03*
X68588Y23901D02*
D03*
X64576Y18493D02*
D03*
X59866Y18667D02*
D03*
X57462Y21012D02*
D03*
X71495Y20838D02*
D03*
X72931Y69988D02*
D03*
X75478Y86844D02*
D03*
X67349Y86229D02*
D03*
X65145Y84132D02*
D03*
X2587Y53466D02*
D03*
X7562Y49789D02*
D03*
Y42702D02*
D03*
X2567Y39706D02*
D03*
X12182Y39799D02*
D03*
X93193Y59083D02*
D03*
X93760Y55904D02*
D03*
X95532Y13873D02*
D03*
X95519Y53372D02*
D03*
X39372Y47311D02*
D03*
X43250Y43494D02*
D03*
X43171Y49068D02*
D03*
X118143Y48224D02*
D03*
X100230Y50054D02*
D03*
X52766Y46198D02*
D03*
X55554Y46470D02*
D03*
X61651Y43747D02*
D03*
X145000Y56637D02*
D03*
X134958Y56764D02*
D03*
X103470Y12623D02*
D03*
X83723Y45677D02*
D03*
X102123Y65965D02*
D03*
X98870Y66614D02*
D03*
X120092Y44577D02*
D03*
X89096Y22017D02*
D03*
X56396Y39453D02*
D03*
X53763Y41387D02*
D03*
X45980Y43947D02*
D03*
X45988Y54761D02*
D03*
X38458Y41959D02*
D03*
X49059Y49508D02*
D03*
X34497Y50691D02*
D03*
X55491Y30299D02*
D03*
X19973Y61238D02*
D03*
X42628Y31704D02*
D03*
X37140Y67737D02*
D03*
X25267Y80267D02*
D03*
X34347Y84099D02*
D03*
X31371Y76256D02*
D03*
X32440Y73868D02*
D03*
X65714Y93250D02*
D03*
X61879Y85434D02*
D03*
X101625Y20692D02*
D03*
X93814Y11360D02*
D03*
X107523Y14210D02*
D03*
X105313Y20065D02*
D03*
X97449Y50361D02*
D03*
X74654Y82683D02*
D03*
X37648Y32348D02*
D03*
X37647Y16346D02*
D03*
X42599D02*
D03*
X124331Y40277D02*
D03*
X90860Y64399D02*
D03*
X124556Y71419D02*
D03*
X127193Y55818D02*
D03*
X96485Y58212D02*
D03*
X27504Y36373D02*
D03*
X125144Y49930D02*
D03*
X124139Y43289D02*
D03*
X25239Y34430D02*
D03*
X29477Y38134D02*
D03*
X28927Y32032D02*
D03*
X62325Y93070D02*
D03*
X58877Y24172D02*
D03*
X55912Y24521D02*
D03*
X66251Y13569D02*
D03*
X66436Y21865D02*
D03*
X73880Y18338D02*
D03*
X76555Y32125D02*
D03*
X17580Y46603D02*
D03*
X33858Y67459D02*
D03*
X66889Y76706D02*
D03*
X72142Y63952D02*
D03*
X30361Y94407D02*
D03*
X49615Y87034D02*
D03*
X66224Y89718D02*
D03*
X70946Y51658D02*
D03*
X34565Y45930D02*
D03*
X37282Y56758D02*
D03*
X34499Y54244D02*
D03*
X70819Y46029D02*
D03*
X75871Y44182D02*
D03*
X67501Y44718D02*
D03*
X36873Y64466D02*
D03*
X39535Y66696D02*
D03*
X43144Y87367D02*
D03*
X56392Y13482D02*
D03*
X75511Y54302D02*
D03*
X77529Y51708D02*
D03*
X79740Y54206D02*
D03*
X61167Y13542D02*
D03*
X70209Y14548D02*
D03*
X70487Y62256D02*
D03*
X48855Y46235D02*
D03*
X52694Y50062D02*
D03*
X26004Y29506D02*
D03*
X81497Y82809D02*
D03*
X69073Y78692D02*
D03*
X7404Y34179D02*
D03*
X127152Y62082D02*
D03*
X55000Y93260D02*
D03*
X27230Y90453D02*
D03*
X124995Y68531D02*
D03*
X79842Y70110D02*
D03*
X54669Y65284D02*
D03*
Y73158D02*
D03*
Y69221D02*
D03*
X58606Y65284D02*
D03*
X62543D02*
D03*
X58606Y69221D02*
D03*
Y73158D02*
D03*
X62543Y69221D02*
D03*
Y73158D02*
D03*
X98656Y97505D02*
D03*
X98379Y92375D02*
D03*
X46358Y82740D02*
D03*
X24941Y72108D02*
D03*
X47603Y16371D02*
D03*
X39585Y64139D02*
D03*
X42551Y62900D02*
D03*
X55435Y58101D02*
D03*
X41227Y60717D02*
D03*
X42140Y56549D02*
D03*
X39109Y53868D02*
D03*
X43250Y52987D02*
D03*
X52610Y53456D02*
D03*
X57669Y54373D02*
D03*
X59807Y54351D02*
D03*
X70910Y54086D02*
D03*
X68035Y56112D02*
D03*
X70169Y56736D02*
D03*
X70013Y43799D02*
D03*
X80022Y78107D02*
D03*
X78411Y80486D02*
D03*
X78376Y75857D02*
D03*
X53945Y86630D02*
D03*
X134929Y46117D02*
D03*
X134999Y39967D02*
D03*
X144444Y46064D02*
D03*
X144391Y53235D02*
D03*
X134982Y53253D02*
D03*
X144374Y39826D02*
D03*
X139841Y49598D02*
D03*
X139810Y43095D02*
D03*
X95803Y72067D02*
D03*
X137955Y88078D02*
D03*
X37964Y18830D02*
D03*
X42815Y18838D02*
D03*
X47193Y32736D02*
D03*
X33247Y32744D02*
D03*
X145052Y95540D02*
D03*
X145053Y87701D02*
D03*
X145328Y34043D02*
D03*
Y21556D02*
D03*
Y9070D02*
D03*
X7503Y56633D02*
D03*
X2447Y46623D02*
D03*
X12431Y46701D02*
D03*
X12251Y53486D02*
D03*
X132838Y76849D02*
D03*
X40433Y98066D02*
D03*
X56803Y86798D02*
D03*
X56796Y90895D02*
D03*
X61879Y89319D02*
D03*
X63496Y87349D02*
D03*
X87814Y70298D02*
D03*
X91655Y71451D02*
D03*
X106546Y92167D02*
D03*
X117219Y6332D02*
D03*
X130730Y9251D02*
D03*
X105918Y10861D02*
D03*
X34098Y98059D02*
D03*
X27274D02*
D03*
X106866Y75421D02*
D03*
X82369Y86829D02*
D03*
X1562Y98066D02*
D03*
X7351D02*
D03*
X13984D02*
D03*
X46642Y98144D02*
D03*
X84693Y98066D02*
D03*
X74542Y93250D02*
D03*
X77202Y90634D02*
D03*
X69522Y93229D02*
D03*
X71848Y90730D02*
D03*
X105801Y101518D02*
D03*
X145040Y101498D02*
D03*
X140451Y99898D02*
D03*
X136355Y101551D02*
D03*
X145147Y80635D02*
D03*
X140562Y76835D02*
D03*
X111822Y73964D02*
D03*
X114162Y79440D02*
D03*
X114185Y96827D02*
D03*
X114184Y91374D02*
D03*
X114161Y85313D02*
D03*
X85162Y87532D02*
D03*
X100876Y95137D02*
D03*
X88493Y101226D02*
D03*
X94636Y101301D02*
D03*
X100163Y101186D02*
D03*
X61847Y98115D02*
D03*
X75410Y98200D02*
D03*
X79251Y95964D02*
D03*
X53126Y98173D02*
D03*
X33427Y90460D02*
D03*
X37270Y94463D02*
D03*
X39090Y90121D02*
D03*
X43977Y93469D02*
D03*
X46397Y91333D02*
D03*
X21840Y90323D02*
D03*
X98505Y76174D02*
D03*
X88081Y74940D02*
D03*
X106589Y70769D02*
D03*
X103334D02*
D03*
X104171Y74772D02*
D03*
X92995Y76046D02*
D03*
X85868Y79534D02*
D03*
X100271Y90180D02*
D03*
X104274Y85865D02*
D03*
X91081Y80768D02*
D03*
X97527Y80832D02*
D03*
X49563Y93263D02*
D03*
X52472Y91333D02*
D03*
X21158Y98087D02*
D03*
X17103Y89144D02*
D03*
X68841Y98173D02*
D03*
X145102Y65432D02*
D03*
X134571Y65572D02*
D03*
X129626Y72364D02*
D03*
X133869Y70393D02*
D03*
X78981Y44246D02*
D03*
X77701Y39344D02*
D03*
X78948Y28625D02*
D03*
X83812Y27958D02*
D03*
X30192Y10001D02*
D03*
X28806Y22228D02*
D03*
X32565Y19235D02*
D03*
X79525Y25313D02*
D03*
X82062Y23742D02*
D03*
X89911Y25606D02*
D03*
X91937Y48048D02*
D03*
X91774Y44755D02*
D03*
X100685Y29068D02*
D03*
X129527Y25490D02*
D03*
X129411Y27981D02*
D03*
X112692Y40518D02*
D03*
X110931Y38276D02*
D03*
X135169Y36629D02*
D03*
X128617Y20578D02*
D03*
X113843Y34908D02*
D03*
X127013Y29512D02*
D03*
M02*
