M48
;Layer_Color=9474304
;FILE_FORMAT=2:5
INCH,TZ
;TYPE=PLATED
T1F00S00C0.00787
;TYPE=NON_PLATED
T2F00S00C0.05315
%
T01
X57087Y2953
X62598Y3150
X64567Y6299
X66535Y8465
X70079
X76575Y8661
X79134Y7480
X81496Y8661
X82677Y5709
X84646Y3150
X79134
X73622
X68110
X61417Y8465
X58858Y9055
X56496Y8465
X55699Y19681
X58061Y19685
X60630
X63290Y19393
X66535Y19685
X69291
X71653
X76575
X78937
X81441Y19679
X87795Y19882
X91535
X98622Y19685
X100951Y19291
X106299Y18504
X106496Y9252
X106693Y3150
X112205
X109843Y6299
X114961Y5906
Y10630
Y15354
Y24016
Y29528
Y35039
Y40551
Y46063
Y51575
Y57087
Y62598
Y68110
Y73622
Y79134
X113155Y81417
X114961Y84646
Y90158
Y95669
Y101181
Y105905
Y109843
X110236Y106299
X109646Y117913
X114961Y118504
Y124016
Y129528
X109843Y124606
X101575Y124311
X98228Y129724
X106102Y130709
X101673Y115256
X91535Y114173
X87992Y114370
X84646Y114173
X81957Y114635
X79331Y114764
X76378Y114370
X71850Y113779
X67323Y114370
X64263Y114302
X59055Y115157
Y124803
X59252Y130118
X76378Y130512
Y125197
X80512Y128740
X84646Y125591
X83526Y102165
X83686Y98647
X81299Y98806
Y96444
X82117Y94228
X84156Y91828
X86118Y93144
X88416Y92595
X90920Y93504
X93110Y91929
X96260Y92520
X97638Y84055
X104724Y85630
X105315Y81299
X105089Y78716
X96653Y76378
X89370Y74803
X90874Y72961
X89173Y69087
X93307Y68504
X90997Y65942
X89976Y63378
X90158Y60988
X91294Y58878
X96457Y58661
X101378Y63841
Y69882
X106496Y60827
X106890Y54921
X106693Y45669
X107874Y38386
Y35433
X101671Y30546
X99606Y31693
X96260Y31102
X87068Y31136
X87402Y37992
X81299Y36417
Y34449
X77453Y32374
X74606Y32480
X72638
X69882Y32677
X66929Y31102
X64567Y31693
X61024Y31496
X61221Y36220
X63386Y37795
X63779Y40157
X66267Y40097
X68186Y41475
X69880Y37600
X74606Y39843
Y41732
Y43701
X74410Y46063
X76378
X74378Y48425
X72244Y47244
X73129Y50523
X72264Y54825
X74624Y54724
X73622Y57778
X74999Y60596
X75394Y68417
X73032
X74704Y75106
X75249Y77405
X70370Y80171
X69685Y82480
X72244Y82874
X67223Y83962
X68307Y79020
X67323Y76772
X64173Y75197
X60039Y61024
X56102
Y57087
Y53150
X60039
Y57087
X69784Y56593
X81329Y53347
Y50984
X81496Y46260
X83465Y42913
X90748Y45472
X87795Y53543
X86818Y57819
X84447Y58658
X85676Y60676
X86811Y65152
X83924Y66925
X84449Y70079
X80347Y87040
X85827Y90158
X88975Y89446
X86221Y99409
X86811Y102756
X96063
X102559Y101181
X110039Y93898
X70261Y102756
X66732Y103740
X66535Y101181
X62964Y102727
X61024Y101373
X58465Y102756
X57874Y100197
X55801Y93504
X60369Y93312
X64567Y97835
X54134Y87992
X56984Y43699
X57221Y41337
X59685Y39156
X59152Y45819
X90748Y6693
X90158Y3150
X95669
X101181
X93959Y8858
X49606Y8661
X44094Y9252
X46063Y2953
X51575
X40551Y3150
X35039
X29528
X24016
X18504
X12992
X7480
X3543Y3937
X3063Y8858
Y14764
X3150Y24016
Y29528
Y35039
X5906
X3150Y40551
Y46063
Y51575
Y57087
Y62598
Y68110
Y73622
Y79134
Y84646
Y90158
Y95669
Y101181
Y105905
Y109843
Y118504
Y124016
Y129528
X10630Y129921
X11516Y124409
X13976Y125197
X16923Y124600
X26378Y125197
X28937Y126772
X31496Y125197
X36417
X39173Y126575
X41732Y125197
X46850Y130315
X53150Y130512
X52953Y125394
X52658Y114174
X44882Y114173
X42323
X39370
X35827Y113189
X31496
X26969
X19882Y114370
X11516Y115256
X9801Y113013
X17520Y98622
X23228Y99410
X26575Y102362
X31496
X36811Y100000
X42126Y99803
X41665Y97247
X42717Y103150
X40157
X46457Y101969
X47146Y99606
X53051
X52832Y103839
X50495Y92721
X47640Y91835
X45276Y92224
X45276Y86516
X43802Y85220
X42028Y83661
X45079Y82902
X45079Y79921
X44974Y77182
X44291Y68898
Y64961
X48228
X52165
Y61024
X48228
Y57087
X52165
Y53150
X48228
X44291
Y57087
Y61024
X36934Y65224
X31102Y63717
X30238Y61494
X31743Y59673
X30900Y53177
X28740Y54764
X24192Y55022
X25289Y48937
X25197Y45988
X25000Y42511
X28150Y43307
X31808Y45472
X36985Y43527
X37008Y40945
X38976
X41256Y40167
X43504Y41339
X47297Y40230
X49409Y39173
X51933Y40870
X52655Y45276
X47047Y35630
X42529Y35803
X42913Y30906
X45267Y30704
X47835Y31693
X38976Y30709
X37008
X32874Y35827
X26378Y30709
X24016Y31693
X17225Y32050
X14173Y30709
X16369Y36251
X19685Y36417
X18898Y41732
X16339Y42126
X17256Y48819
X14894
X14706Y51177
X14961Y55315
X18949Y53037
X18701Y50688
X20079Y47047
X22341Y49213
X21715Y60630
X15551Y61417
X16445Y64418
X17717Y66929
X16732Y73032
X17520Y79921
X17717Y89764
X26772Y89567
Y86221
X30118Y85039
X33465Y85236
Y81693
X37795Y82283
X37795Y85138
Y87795
Y90354
X39370Y92224
X33661Y92323
X33465Y88779
X34941Y95374
X30315Y94291
X25787Y95276
X27756Y77756
X30709Y74803
X31102Y71382
X28346Y71260
X28150Y67126
X30906
X24213Y73622
X37598Y75000
X39524Y73175
X35827Y77165
X41839Y87763
X49803Y87008
X50947Y83585
X53937Y85433
X51968Y90354
X52165Y68898
X48228
X48690Y20146
X45540Y19882
X36024Y19685
X33200Y19814
X24409Y19685
X19291
X11516Y18406
Y9350
X24016Y8858
X34055Y9252
X34252Y130512
X34646Y135039
X38583
X42520
X46850
X30709
X27165
X15551
X11417
X7480
X3150
X55905
X60236
X64567
X74803
X79921
X85039
X96850
X101181
X105512
X110236
X114961
T02
X112803Y19685
Y114173
X5307
Y19685
M30
