G04*
G04 #@! TF.GenerationSoftware,Altium Limited,Altium NEXUS,5.1.2 (10)*
G04*
G04 Layer_Color=65535*
%FSLAX25Y25*%
%MOIN*%
G70*
G04*
G04 #@! TF.SameCoordinates,614915EC-EFCC-4F07-BEE6-519DBFB5DABB*
G04*
G04*
G04 #@! TF.FilePolarity,Positive*
G04*
G01*
G75*
G36*
X29385Y24536D02*
X29409Y24521D01*
X29399Y24502D01*
X29337Y24478D01*
X29269Y24469D01*
X29173Y24459D01*
X29048Y24449D01*
X28952Y24440D01*
X28894Y24401D01*
X28817Y24382D01*
X28669Y24368D01*
X28495Y24339D01*
X28457Y24329D01*
X28409Y24320D01*
X28294Y24291D01*
X28217Y24281D01*
X28044Y24252D01*
X27948Y24233D01*
X27895Y24219D01*
X27828Y24200D01*
X27727Y24185D01*
X27602Y24166D01*
X27525Y24147D01*
X27477Y24137D01*
X27361Y24108D01*
X27284Y24099D01*
X27227Y24089D01*
X27131Y24070D01*
X27049Y24046D01*
X26972Y24026D01*
X26881Y24012D01*
X26765Y23993D01*
X26717Y23983D01*
X26640Y23964D01*
X26578Y23940D01*
X26539Y23930D01*
X26371Y23906D01*
X26333Y23897D01*
X26285Y23887D01*
X26246Y23877D01*
X26198Y23858D01*
X26145Y23844D01*
X26011Y23825D01*
X25972Y23815D01*
X25910Y23801D01*
X25871Y23791D01*
X25795Y23762D01*
X25718Y23743D01*
X25631Y23733D01*
X25540Y23719D01*
X25492Y23700D01*
X25424Y23671D01*
X25348Y23652D01*
X25280Y23642D01*
X25184Y23632D01*
X25136Y23613D01*
X25069Y23584D01*
X24973Y23555D01*
X24877Y23546D01*
X24838Y23536D01*
X24785Y23522D01*
X24684Y23479D01*
X24646Y23469D01*
X24579Y23459D01*
X24463Y23440D01*
X24415Y23421D01*
X24396Y23411D01*
X24309Y23373D01*
X24175Y23354D01*
X24136Y23344D01*
X24011Y23286D01*
X23877Y23267D01*
X23838Y23257D01*
X23747Y23224D01*
X23646Y23181D01*
X23507Y23156D01*
X23459Y23137D01*
X23396Y23104D01*
X23358Y23094D01*
X23199Y23060D01*
X23089Y23008D01*
X23021Y22998D01*
X22983Y22988D01*
X22930Y22974D01*
X22829Y22921D01*
X22791Y22911D01*
X22723Y22902D01*
X22670Y22887D01*
X22589Y22844D01*
X22541Y22825D01*
X22425Y22806D01*
X22363Y22782D01*
X22300Y22738D01*
X22224Y22719D01*
X22123Y22695D01*
X22075Y22676D01*
X22060Y22661D01*
X21993Y22633D01*
X21911Y22618D01*
X21873Y22609D01*
X21714Y22537D01*
X21613Y22512D01*
X21570Y22479D01*
X21551Y22469D01*
X21503Y22450D01*
X21392Y22426D01*
X21272Y22364D01*
X21234Y22354D01*
X21171Y22340D01*
X21123Y22320D01*
X21099Y22296D01*
X21080Y22287D01*
X21032Y22267D01*
X20993Y22258D01*
X20935Y22248D01*
X20844Y22186D01*
X20801Y22171D01*
X20763Y22162D01*
X20705Y22152D01*
X20638Y22104D01*
X20590Y22085D01*
X20513Y22066D01*
X20426Y22017D01*
X20359Y21989D01*
X20282Y21969D01*
X20215Y21921D01*
X20147Y21892D01*
X20085Y21878D01*
X20051Y21864D01*
X19998Y21821D01*
X19955Y21806D01*
X19917Y21796D01*
X19864Y21782D01*
X19830Y21758D01*
X19811Y21739D01*
X19792Y21729D01*
X19744Y21710D01*
X19676Y21691D01*
X19657Y21681D01*
X19494Y21604D01*
X19426Y21566D01*
X19369Y21527D01*
X19306Y21513D01*
X19229Y21465D01*
X19215Y21450D01*
X19080Y21402D01*
X19061Y21383D01*
X19042Y21373D01*
X19023Y21354D01*
X18955Y21335D01*
X18869Y21287D01*
X18811Y21249D01*
X18754Y21239D01*
X18706Y21210D01*
X18638Y21162D01*
X18585Y21148D01*
X18532Y21114D01*
X18494Y21076D01*
X18427Y21056D01*
X18364Y21032D01*
X18321Y20989D01*
X18273Y20970D01*
X18211Y20946D01*
X18196Y20931D01*
X18177Y20922D01*
X18148Y20893D01*
X18057Y20859D01*
X17999Y20811D01*
X17864Y20744D01*
X17840Y20720D01*
X17773Y20691D01*
X17725Y20672D01*
X17677Y20624D01*
X17629Y20605D01*
X17542Y20557D01*
X17504Y20518D01*
X17417Y20470D01*
X17389Y20441D01*
X17369Y20432D01*
X17264Y20374D01*
X17216Y20326D01*
X17167Y20306D01*
X17100Y20239D01*
X17033Y20201D01*
X16995Y20162D01*
X16975Y20153D01*
X16908Y20114D01*
X16841Y20047D01*
X16793Y20018D01*
X16725Y19951D01*
X16677Y19922D01*
X16620Y19864D01*
X16600Y19855D01*
X16576Y19831D01*
X16567Y19812D01*
X16533Y19778D01*
X16466Y19739D01*
X16038Y19312D01*
X16028Y19292D01*
X15980Y19225D01*
X15966Y19211D01*
X15947Y19201D01*
X15923Y19177D01*
X15913Y19158D01*
X15856Y19100D01*
X15846Y19081D01*
X15803Y19018D01*
X15783Y19009D01*
X15759Y18985D01*
X15702Y18879D01*
X15663Y18841D01*
X15615Y18754D01*
X15586Y18725D01*
X15577Y18706D01*
X15548Y18639D01*
X15509Y18572D01*
X15490Y18552D01*
X15471Y18504D01*
X15437Y18413D01*
X15394Y18341D01*
X15375Y18273D01*
X15365Y18235D01*
X15356Y18177D01*
X15308Y18072D01*
X15298Y18033D01*
X15288Y17966D01*
X15283Y17721D01*
X15293Y17500D01*
X15308Y17408D01*
X15365Y17284D01*
X15380Y17192D01*
X15399Y17144D01*
X15413Y17130D01*
X15423Y17110D01*
X15442Y17091D01*
X15461Y17043D01*
X15471Y17005D01*
X15509Y16937D01*
X15529Y16918D01*
X15538Y16899D01*
X15586Y16813D01*
X15644Y16755D01*
X15673Y16707D01*
X15740Y16639D01*
X15779Y16572D01*
X15928Y16423D01*
X15947Y16414D01*
X16000Y16370D01*
X16052Y16318D01*
X16072Y16308D01*
X16120Y16260D01*
X16139Y16250D01*
X16158Y16231D01*
X16177Y16221D01*
X16221Y16188D01*
X16230Y16169D01*
X16245Y16154D01*
X16293Y16135D01*
X16360Y16096D01*
X16399Y16058D01*
X16485Y16010D01*
X16533Y15962D01*
X16572Y15952D01*
X16653Y15909D01*
X16663Y15890D01*
X16797Y15822D01*
X16831Y15789D01*
X16879Y15770D01*
X16956Y15741D01*
X16995Y15702D01*
X17043Y15683D01*
X17081Y15673D01*
X17143Y15649D01*
X17158Y15635D01*
X17177Y15625D01*
X17196Y15606D01*
X17264Y15587D01*
X17316Y15573D01*
X17456Y15500D01*
X17518Y15486D01*
X17557Y15476D01*
X17605Y15457D01*
X17677Y15414D01*
X17792Y15395D01*
X17831Y15385D01*
X17898Y15347D01*
X17965Y15318D01*
X18033Y15308D01*
X18134Y15284D01*
X18215Y15241D01*
X18283Y15222D01*
X18350Y15212D01*
X18451Y15188D01*
X18561Y15135D01*
X18657Y15125D01*
X18696Y15116D01*
X18773Y15106D01*
X18850Y15058D01*
X18902Y15044D01*
X19032Y15029D01*
X19095Y15015D01*
X19172Y14996D01*
X19249Y14967D01*
X19301Y14953D01*
X19340Y14943D01*
X19465Y14933D01*
X19551Y14914D01*
X19619Y14885D01*
X19734Y14856D01*
X19801Y14847D01*
X19921Y14832D01*
X19960Y14823D01*
X20042Y14799D01*
X20138Y14770D01*
X20248Y14755D01*
X20354Y14746D01*
X20431Y14736D01*
X20469Y14727D01*
X20609Y14683D01*
X20676Y14674D01*
X20714Y14664D01*
X20916Y14654D01*
X20945Y14645D01*
X21008Y14630D01*
X21056Y14621D01*
X21094Y14611D01*
X21147Y14597D01*
X21185Y14587D01*
X21310Y14578D01*
X21407Y14568D01*
X21637Y14558D01*
X21666Y14549D01*
X21704Y14539D01*
X21868Y14530D01*
X21916Y14510D01*
X21983Y14501D01*
X22175Y14491D01*
X22204Y14481D01*
X22776Y14467D01*
X22834Y14457D01*
X22882Y14448D01*
X23170Y14438D01*
X23209Y14429D01*
X23291Y14405D01*
X23704Y14395D01*
X23733Y14385D01*
X25050Y14376D01*
X25078Y14385D01*
X25160Y14371D01*
X25242Y14347D01*
X25396Y14357D01*
X26592Y14352D01*
X26640Y14361D01*
X26693Y14376D01*
X28202Y14385D01*
X28231Y14395D01*
X28385Y14405D01*
X28731Y14414D01*
X28779Y14434D01*
X28817Y14443D01*
X28861Y14448D01*
X29106Y14443D01*
X29154Y14462D01*
X29250Y14472D01*
X29851Y14486D01*
X29899Y14496D01*
X30130Y14505D01*
X30168Y14515D01*
X30211Y14530D01*
X30279Y14539D01*
X30442Y14549D01*
X30471Y14558D01*
X30596Y14568D01*
X30841Y14573D01*
X30932Y14568D01*
X30961Y14578D01*
X31033Y14592D01*
X31124Y14597D01*
X31153Y14587D01*
X31182Y14597D01*
X31240Y14606D01*
X31288Y14626D01*
X31442Y14635D01*
X31471Y14645D01*
X31509Y14654D01*
X31894Y14664D01*
X31922Y14674D01*
X32115Y14693D01*
X32143Y14703D01*
X32220Y14722D01*
X32345Y14731D01*
X32374Y14741D01*
X32441Y14751D01*
X32735Y14765D01*
X32773Y14775D01*
X32908Y14784D01*
X32989Y14818D01*
X33095Y14828D01*
X33124Y14837D01*
X33307Y14847D01*
X33479Y14856D01*
X33508Y14866D01*
X33624Y14885D01*
X33777Y14924D01*
X33845Y14933D01*
X34109Y14948D01*
X34157Y14957D01*
X34268Y14991D01*
X34364Y15001D01*
X34412Y15020D01*
X34508Y15029D01*
X34700Y15039D01*
X34729Y15049D01*
X34820Y15063D01*
X34859Y15073D01*
X34921Y15097D01*
X34960Y15106D01*
X35027Y15116D01*
X35224Y15130D01*
X35282Y15140D01*
X35320Y15150D01*
X35373Y15164D01*
X35474Y15188D01*
X35556Y15212D01*
X35758Y15222D01*
X35786Y15231D01*
X35839Y15246D01*
X35916Y15274D01*
X35964Y15294D01*
X35979Y15308D01*
X35998Y15318D01*
X36012Y15361D01*
X36003Y15400D01*
X35959Y15424D01*
X35921Y15433D01*
X35835Y15443D01*
X35767Y15491D01*
X35700Y15520D01*
X35599Y15544D01*
X35541Y15582D01*
X35488Y15606D01*
X35450Y15616D01*
X35373Y15625D01*
X35306Y15664D01*
X35239Y15693D01*
X35200Y15702D01*
X35118Y15717D01*
X35070Y15726D01*
X34989Y15760D01*
X34873Y15789D01*
X34806Y15798D01*
X34681Y15808D01*
X34633Y15827D01*
X34566Y15846D01*
X34474Y15861D01*
X34426Y15870D01*
X34373Y15885D01*
X34090Y15899D01*
X34042Y15909D01*
X34003Y15919D01*
X33869Y15928D01*
X33825Y15952D01*
X33787Y15962D01*
X33614Y15971D01*
X33585Y15981D01*
X33105Y15991D01*
X33076Y16000D01*
X33037Y16010D01*
X32965Y16015D01*
X32932Y16010D01*
X32903Y16019D01*
X32860Y16015D01*
X32783Y16024D01*
X32701Y16048D01*
X32634Y16058D01*
X32595Y16048D01*
X32393Y16058D01*
X32364Y16068D01*
X32263Y16072D01*
X32038Y16068D01*
X32009Y16077D01*
X31490Y16087D01*
X31461Y16096D01*
X31394Y16106D01*
X30625Y16116D01*
X30577Y16135D01*
X30509Y16144D01*
X29586Y16154D01*
X29558Y16164D01*
X28875Y16173D01*
X28846Y16183D01*
X28808Y16193D01*
X28712Y16202D01*
X28673Y16193D01*
X28616Y16202D01*
X28529Y16241D01*
X28447Y16236D01*
X28409Y16245D01*
X28361Y16255D01*
X28169Y16265D01*
X28015Y16284D01*
X27977Y16293D01*
X27895Y16327D01*
X27828Y16337D01*
X27630Y16361D01*
X27573Y16370D01*
X27534Y16380D01*
X27486Y16399D01*
X27424Y16423D01*
X27361Y16438D01*
X27265Y16447D01*
X27217Y16457D01*
X27169Y16476D01*
X27155Y16490D01*
X27116Y16500D01*
X27068Y16519D01*
X27006Y16534D01*
X26929Y16543D01*
X26881Y16553D01*
X26842Y16563D01*
X26770Y16606D01*
X26703Y16625D01*
X26636Y16635D01*
X26573Y16659D01*
X26559Y16673D01*
X26539Y16683D01*
X26520Y16702D01*
X26371Y16736D01*
X26294Y16784D01*
X26184Y16817D01*
X26145Y16827D01*
X26059Y16875D01*
X25992Y16904D01*
X25953Y16913D01*
X25891Y16937D01*
X25857Y16962D01*
X25771Y17000D01*
X25732Y17009D01*
X25679Y17053D01*
X25636Y17077D01*
X25598Y17086D01*
X25535Y17110D01*
X25501Y17134D01*
X25473Y17163D01*
X25410Y17187D01*
X25372Y17207D01*
X25362Y17226D01*
X25328Y17259D01*
X25223Y17317D01*
X25184Y17356D01*
X25165Y17365D01*
X25102Y17408D01*
X25093Y17428D01*
X25050Y17471D01*
X25030Y17481D01*
X25016Y17495D01*
X25006Y17514D01*
X24953Y17567D01*
X24934Y17577D01*
X24920Y17591D01*
X24910Y17610D01*
X24891Y17629D01*
X24886Y17644D01*
X24867Y17654D01*
X24843Y17678D01*
X24833Y17697D01*
X24785Y17764D01*
X24747Y17803D01*
X24689Y17908D01*
X24660Y17937D01*
X24641Y17985D01*
X24617Y18048D01*
X24583Y18101D01*
X24545Y18187D01*
X24531Y18278D01*
X24502Y18355D01*
X24478Y18408D01*
X24468Y18533D01*
X24458Y18562D01*
X24449Y18629D01*
X24463Y18721D01*
X24492Y18836D01*
X24502Y18884D01*
X24511Y18922D01*
X24526Y18975D01*
X24545Y19110D01*
X24554Y19148D01*
X24593Y19216D01*
X24622Y19283D01*
X24631Y19321D01*
X24646Y19374D01*
X24670Y19408D01*
X24708Y19466D01*
X24742Y19557D01*
X24795Y19610D01*
X24804Y19629D01*
X24852Y19715D01*
X24896Y19768D01*
X24944Y19845D01*
X24987Y19879D01*
X25035Y19965D01*
X25069Y19999D01*
X25088Y20008D01*
X25102Y20023D01*
X25112Y20042D01*
X25174Y20105D01*
X25189Y20109D01*
X25199Y20129D01*
X25261Y20191D01*
X25280Y20201D01*
X25328Y20258D01*
X25357Y20287D01*
X25376Y20297D01*
X25424Y20355D01*
X25511Y20422D01*
X25559Y20470D01*
X25578Y20480D01*
X25631Y20523D01*
X25665Y20557D01*
X25713Y20585D01*
X25780Y20653D01*
X25847Y20691D01*
X25886Y20730D01*
X25905Y20739D01*
X25972Y20777D01*
X26020Y20826D01*
X26088Y20864D01*
X26136Y20912D01*
X26203Y20941D01*
X26222Y20951D01*
X26280Y21008D01*
X26405Y21076D01*
X26424Y21095D01*
X26530Y21152D01*
X26568Y21191D01*
X26616Y21210D01*
X26636Y21220D01*
X26751Y21297D01*
X26818Y21335D01*
X26847Y21364D01*
X26866Y21373D01*
X26914Y21393D01*
X26982Y21431D01*
X27001Y21450D01*
X27020Y21460D01*
X27087Y21489D01*
X27155Y21527D01*
X27183Y21556D01*
X27231Y21575D01*
X27284Y21590D01*
X27361Y21638D01*
X27376Y21652D01*
X27472Y21691D01*
X27525Y21734D01*
X27539Y21748D01*
X27592Y21763D01*
X27630Y21772D01*
X27683Y21806D01*
X27703Y21825D01*
X27770Y21854D01*
X27832Y21869D01*
X27880Y21888D01*
X27895Y21902D01*
X27914Y21912D01*
X27933Y21931D01*
X28001Y21950D01*
X28049Y21969D01*
X28101Y22013D01*
X28154Y22037D01*
X28255Y22061D01*
X28289Y22085D01*
X28318Y22114D01*
X28385Y22133D01*
X28443Y22142D01*
X28539Y22210D01*
X28577Y22219D01*
X28678Y22243D01*
X28693Y22258D01*
X28712Y22267D01*
X28731Y22287D01*
X28798Y22316D01*
X28880Y22330D01*
X28957Y22378D01*
X29019Y22402D01*
X29082Y22416D01*
X29120Y22426D01*
X29260Y22498D01*
X29327Y22508D01*
X29365Y22517D01*
X29414Y22546D01*
X29500Y22585D01*
X29539Y22594D01*
X29596Y22604D01*
X29740Y22671D01*
X29779Y22681D01*
X29870Y22695D01*
X29918Y22714D01*
X29976Y22753D01*
X30029Y22767D01*
X30096Y22777D01*
X30173Y22796D01*
X30240Y22835D01*
X30288Y22854D01*
X30327Y22863D01*
X30394Y22873D01*
X30456Y22887D01*
X30505Y22907D01*
X30519Y22921D01*
X30567Y22940D01*
X30634Y22960D01*
X30745Y22974D01*
X30783Y22984D01*
X30894Y23036D01*
X30932Y23046D01*
X31052Y23060D01*
X31091Y23070D01*
X31197Y23109D01*
X31259Y23133D01*
X31297Y23142D01*
X31461Y23161D01*
X31490Y23171D01*
X31552Y23195D01*
X31605Y23219D01*
X31682Y23238D01*
X31807Y23248D01*
X31836Y23257D01*
X31874Y23267D01*
X31927Y23281D01*
X31975Y23301D01*
X32018Y23315D01*
X32057Y23325D01*
X32182Y23334D01*
X32273Y23349D01*
X32355Y23373D01*
X32446Y23406D01*
X32485Y23416D01*
X32715Y23435D01*
X32773Y23445D01*
X32821Y23464D01*
X32884Y23488D01*
X33018Y23507D01*
X33114Y23517D01*
X33239Y23527D01*
X33379Y23551D01*
X33460Y23575D01*
X33571Y23599D01*
X33744Y23608D01*
X33850Y23618D01*
X33946Y23628D01*
X34061Y23647D01*
X34138Y23666D01*
X34234Y23676D01*
X34330Y23695D01*
X34561Y23704D01*
X34772Y23714D01*
X34825Y23729D01*
X34984Y23724D01*
X35022Y23733D01*
X35075Y23757D01*
X35114Y23767D01*
X35224Y23762D01*
X35277Y23767D01*
X35306Y23757D01*
X35392Y23767D01*
X35440Y23786D01*
X35517Y23796D01*
X35546Y23786D01*
X36738Y23796D01*
X37656Y23781D01*
X37771Y23762D01*
X37853Y23757D01*
X37882Y23767D01*
X37988Y23757D01*
X38055Y23729D01*
X38286Y23719D01*
X38314Y23709D01*
X38704Y23695D01*
X38785Y23671D01*
X38920Y23661D01*
X38968Y23642D01*
X39079Y23628D01*
X39117Y23618D01*
X39290Y23608D01*
X39396Y23599D01*
X39473Y23589D01*
X39511Y23580D01*
X39559Y23560D01*
X39603Y23546D01*
X39641Y23536D01*
X39737Y23527D01*
X39953Y23503D01*
X39992Y23493D01*
X40102Y23459D01*
X40170Y23440D01*
X40420Y23411D01*
X40448Y23402D01*
X40535Y23363D01*
X40597Y23349D01*
X40727Y23334D01*
X40766Y23325D01*
X40838Y23310D01*
X40886Y23291D01*
X40939Y23267D01*
X41015Y23248D01*
X41126Y23233D01*
X41164Y23224D01*
X41212Y23205D01*
X41294Y23171D01*
X41357Y23156D01*
X41414Y23147D01*
X41462Y23137D01*
X41501Y23128D01*
X41549Y23109D01*
X41650Y23065D01*
X41760Y23041D01*
X41881Y22979D01*
X41958Y22960D01*
X42020Y22936D01*
X42078Y22897D01*
X42140Y22873D01*
X42179Y22863D01*
X42227Y22835D01*
X42265Y22796D01*
X42313Y22777D01*
X42352Y22767D01*
X42404Y22724D01*
X42428Y22700D01*
X42515Y22652D01*
X42563Y22604D01*
X42649Y22556D01*
X42674Y22522D01*
X42832Y22364D01*
X42847Y22359D01*
X42856Y22340D01*
X42909Y22287D01*
X42928Y22277D01*
X42996Y22171D01*
X43039Y22128D01*
X43087Y22041D01*
X43125Y22003D01*
X43145Y21955D01*
X43154Y21917D01*
X43193Y21849D01*
X43222Y21801D01*
X43231Y21763D01*
X43241Y21696D01*
X43250Y21561D01*
X43241Y21532D01*
X43250Y21494D01*
X43231Y21301D01*
X43193Y21234D01*
X43164Y21186D01*
X43154Y21148D01*
X43130Y21085D01*
X43106Y21052D01*
X43068Y21013D01*
X43039Y20965D01*
X43005Y20931D01*
X42986Y20922D01*
X42928Y20826D01*
X42900Y20797D01*
X42813Y20749D01*
X42789Y20715D01*
X42765Y20691D01*
X42746Y20681D01*
X42693Y20638D01*
X42669Y20614D01*
X42601Y20585D01*
X42582Y20576D01*
X42529Y20532D01*
X42515Y20518D01*
X42409Y20460D01*
X42380Y20432D01*
X42332Y20412D01*
X42265Y20374D01*
X42236Y20345D01*
X42188Y20326D01*
X42126Y20302D01*
X42068Y20254D01*
X42015Y20230D01*
X41948Y20191D01*
X41919Y20162D01*
X41871Y20143D01*
X41789Y20129D01*
X41732Y20081D01*
X41741Y20023D01*
X41765Y19999D01*
X41900Y19961D01*
X41938Y19951D01*
X42054Y19932D01*
X42092Y19922D01*
X42313Y19912D01*
X42361Y19893D01*
X42400Y19884D01*
X42505Y19874D01*
X42553Y19855D01*
X42630Y19836D01*
X42851Y19826D01*
X42880Y19816D01*
X43000Y19802D01*
X43039Y19792D01*
X43087Y19773D01*
X43164Y19763D01*
X43270Y19744D01*
X43366Y19735D01*
X43529Y19725D01*
X43567Y19715D01*
X43664Y19696D01*
X43745Y19672D01*
X43784Y19662D01*
X44019Y19638D01*
X44197Y19624D01*
X44293Y19586D01*
X44389Y19576D01*
X44462Y19562D01*
X44567Y19552D01*
X44745Y19537D01*
X44774Y19528D01*
X44889Y19518D01*
X44976Y19480D01*
X45043Y19470D01*
X45221Y19456D01*
X45346Y19446D01*
X45394Y19437D01*
X45447Y19422D01*
X45485Y19413D01*
X45552Y19403D01*
X45615Y19389D01*
X45668Y19374D01*
X45793Y19365D01*
X45937Y19374D01*
X46004Y19413D01*
X46071Y19441D01*
X46110Y19451D01*
X46192Y19466D01*
X46268Y19494D01*
X46283Y19509D01*
X46302Y19518D01*
X46350Y19537D01*
X46442Y19552D01*
X46490Y19562D01*
X46528Y19571D01*
X46610Y19614D01*
X46677Y19634D01*
X46716Y19643D01*
X46826Y19658D01*
X46874Y19677D01*
X46946Y19720D01*
X47014Y19730D01*
X47052Y19739D01*
X47119Y19749D01*
X47244Y19807D01*
X47359Y19826D01*
X47398Y19836D01*
X47460Y19860D01*
X47475Y19874D01*
X47542Y19903D01*
X47609Y19912D01*
X47648Y19922D01*
X47725Y19932D01*
X47802Y19980D01*
X47850Y19999D01*
X47960Y20023D01*
X48008Y20042D01*
X48081Y20086D01*
X48143Y20100D01*
X48220Y20119D01*
X48359Y20191D01*
X48422Y20206D01*
X48470Y20225D01*
X48503Y20258D01*
X48551Y20278D01*
X48614Y20292D01*
X48691Y20340D01*
X48715Y20364D01*
X48768Y20379D01*
X48816Y20398D01*
X48873Y20446D01*
X48926Y20470D01*
X48994Y20508D01*
X49022Y20537D01*
X49042Y20547D01*
X49147Y20605D01*
X49186Y20643D01*
X49253Y20681D01*
X49311Y20739D01*
X49378Y20777D01*
X49436Y20835D01*
X49450Y20840D01*
X49460Y20859D01*
X49652Y21052D01*
X49662Y21071D01*
X49729Y21138D01*
X49739Y21157D01*
X49782Y21210D01*
X49806Y21234D01*
X49859Y21335D01*
X49878Y21345D01*
X49892Y21359D01*
X49912Y21407D01*
X49936Y21470D01*
X49950Y21484D01*
X49960Y21503D01*
X49988Y21532D01*
X50008Y21580D01*
X50022Y21662D01*
X50056Y21715D01*
X50094Y21801D01*
X50104Y21869D01*
X50118Y21960D01*
X50128Y21998D01*
X50133Y22301D01*
X50113Y22349D01*
X50104Y22445D01*
X50094Y22512D01*
X50085Y22570D01*
X50065Y22589D01*
X50056Y22609D01*
X50027Y22637D01*
X50012Y22700D01*
X50003Y22748D01*
X49984Y22796D01*
X49950Y22830D01*
X49912Y22916D01*
X49902Y22936D01*
X49868Y22979D01*
X49854Y22984D01*
X49844Y23003D01*
X49796Y23089D01*
X49767Y23118D01*
X49758Y23137D01*
X49739Y23156D01*
X49700Y23224D01*
X49633Y23291D01*
X49623Y23310D01*
X49580Y23354D01*
X49561Y23363D01*
X49537Y23387D01*
X49527Y23406D01*
X49494Y23440D01*
X49474Y23450D01*
X49441Y23483D01*
X49431Y23503D01*
X49397Y23536D01*
X49378Y23546D01*
X49325Y23589D01*
X49282Y23632D01*
X49196Y23680D01*
X49176Y23709D01*
X49157Y23719D01*
X49090Y23757D01*
X49032Y23815D01*
X48970Y23839D01*
X48936Y23863D01*
X48897Y23901D01*
X48849Y23921D01*
X48763Y23969D01*
X48744Y23988D01*
X48724Y23998D01*
X48657Y24026D01*
X48590Y24065D01*
X48503Y24103D01*
X48455Y24123D01*
X48407Y24171D01*
X48340Y24190D01*
X48254Y24209D01*
X48239Y24233D01*
X48263Y24257D01*
X48359Y24248D01*
X48465Y24200D01*
X48537Y24185D01*
X48614Y24166D01*
X48662Y24156D01*
X48700Y24147D01*
X48859Y24074D01*
X48989Y24060D01*
X49037Y24041D01*
X49095Y24002D01*
X49147Y23988D01*
X49215Y23978D01*
X49277Y23964D01*
X49325Y23945D01*
X49340Y23930D01*
X49359Y23921D01*
X49407Y23901D01*
X49445Y23892D01*
X49518Y23877D01*
X49638Y23815D01*
X49714Y23796D01*
X49801Y23776D01*
X49907Y23709D01*
X50046Y23685D01*
X50061Y23671D01*
X50080Y23661D01*
X50118Y23623D01*
X50181Y23608D01*
X50238Y23599D01*
X50287Y23580D01*
X50320Y23555D01*
X50368Y23527D01*
X50407Y23517D01*
X50469Y23503D01*
X50522Y23469D01*
X50541Y23450D01*
X50589Y23430D01*
X50681Y23397D01*
X50753Y23354D01*
X50820Y23334D01*
X50882Y23310D01*
X50916Y23286D01*
X50945Y23257D01*
X51012Y23238D01*
X51075Y23214D01*
X51089Y23200D01*
X51108Y23190D01*
X51137Y23161D01*
X51200Y23137D01*
X51253Y23104D01*
X51310Y23065D01*
X51349Y23056D01*
X51435Y23008D01*
X51464Y22979D01*
X51502Y22969D01*
X51570Y22931D01*
X51608Y22892D01*
X51704Y22854D01*
X51762Y22796D01*
X51810Y22777D01*
X51872Y22753D01*
X51925Y22700D01*
X52012Y22652D01*
X52060Y22604D01*
X52127Y22565D01*
X52166Y22527D01*
X52185Y22517D01*
X52271Y22469D01*
X52291Y22440D01*
X52310Y22431D01*
X52329Y22412D01*
X52377Y22383D01*
X52435Y22325D01*
X52483Y22296D01*
X52550Y22229D01*
X52569Y22219D01*
X52622Y22176D01*
X52685Y22114D01*
X52704Y22104D01*
X52762Y22046D01*
X52781Y22037D01*
X52834Y21993D01*
X52843Y21974D01*
X52877Y21941D01*
X52896Y21931D01*
X52920Y21907D01*
X52930Y21888D01*
X52973Y21835D01*
X53007Y21801D01*
X53016Y21782D01*
X53093Y21705D01*
X53103Y21686D01*
X53170Y21599D01*
X53209Y21561D01*
X53237Y21513D01*
X53295Y21455D01*
X53343Y21369D01*
X53372Y21340D01*
X53391Y21292D01*
X53420Y21244D01*
X53439Y21225D01*
X53449Y21205D01*
X53468Y21186D01*
X53502Y21095D01*
X53535Y21061D01*
X53545Y21042D01*
X53574Y20975D01*
X53588Y20912D01*
X53612Y20878D01*
X53651Y20821D01*
X53680Y20705D01*
X53704Y20643D01*
X53747Y20542D01*
X53756Y20504D01*
X53771Y20383D01*
X53781Y20335D01*
X53795Y20282D01*
X53804Y20244D01*
X53819Y20172D01*
X53843Y20090D01*
X53853Y20052D01*
X53848Y19912D01*
X53853Y19581D01*
X53843Y19552D01*
X53853Y19485D01*
X53843Y19369D01*
X53833Y19341D01*
X53824Y19302D01*
X53800Y19201D01*
X53785Y19148D01*
X53766Y19071D01*
X53756Y18937D01*
X53689Y18793D01*
X53670Y18716D01*
X53656Y18624D01*
X53636Y18576D01*
X53612Y18552D01*
X53603Y18533D01*
X53584Y18485D01*
X53569Y18422D01*
X53550Y18374D01*
X53526Y18341D01*
X53507Y18322D01*
X53487Y18254D01*
X53478Y18216D01*
X53454Y18163D01*
X53434Y18153D01*
X53391Y18081D01*
X53377Y18028D01*
X53343Y17976D01*
X53324Y17956D01*
X53295Y17889D01*
X53262Y17827D01*
X53242Y17817D01*
X53228Y17803D01*
X53199Y17735D01*
X53189Y17706D01*
X53146Y17654D01*
X53132Y17639D01*
X53084Y17553D01*
X53036Y17505D01*
X52997Y17437D01*
X52959Y17399D01*
X52949Y17380D01*
X52901Y17293D01*
X52843Y17235D01*
X52834Y17216D01*
X52790Y17163D01*
X52757Y17130D01*
X52747Y17110D01*
X52704Y17058D01*
X52661Y17014D01*
X52651Y16995D01*
X52608Y16942D01*
X52574Y16909D01*
X52536Y16841D01*
X52502Y16808D01*
X52483Y16798D01*
X52468Y16784D01*
X52459Y16764D01*
X52416Y16721D01*
X52396Y16712D01*
X52372Y16688D01*
X52363Y16668D01*
X52286Y16591D01*
X52257Y16543D01*
X52243Y16529D01*
X52223Y16519D01*
X52199Y16495D01*
X52190Y16476D01*
X52156Y16442D01*
X52137Y16433D01*
X52103Y16399D01*
X52094Y16380D01*
X52069Y16356D01*
X52050Y16346D01*
X51997Y16303D01*
X51964Y16269D01*
X51945Y16260D01*
X51911Y16226D01*
X51901Y16207D01*
X51868Y16173D01*
X51849Y16164D01*
X51815Y16130D01*
X51805Y16111D01*
X51772Y16077D01*
X51723Y16048D01*
X51666Y15991D01*
X51647Y15981D01*
X51570Y15904D01*
X51551Y15894D01*
X51483Y15846D01*
X51459Y15813D01*
X51402Y15774D01*
X51339Y15712D01*
X51320Y15702D01*
X51267Y15659D01*
X51257Y15640D01*
X51176Y15587D01*
X51118Y15529D01*
X51031Y15481D01*
X51012Y15452D01*
X50993Y15443D01*
X50906Y15375D01*
X50878Y15347D01*
X50810Y15308D01*
X50772Y15270D01*
X50753Y15260D01*
X50685Y15222D01*
X50628Y15164D01*
X50560Y15125D01*
X50522Y15087D01*
X50503Y15078D01*
X50416Y15029D01*
X50378Y14991D01*
X50359Y14981D01*
X50291Y14943D01*
X50234Y14885D01*
X50171Y14861D01*
X50128Y14818D01*
X50109Y14808D01*
X50104Y14804D01*
X50099Y14799D01*
X50008Y14765D01*
X49945Y14703D01*
X49897Y14683D01*
X49849Y14654D01*
X49811Y14616D01*
X49763Y14597D01*
X49695Y14558D01*
X49676Y14539D01*
X49590Y14501D01*
X49570Y14491D01*
X49513Y14434D01*
X49465Y14414D01*
X49402Y14390D01*
X49359Y14347D01*
X49292Y14318D01*
X49244Y14289D01*
X49176Y14241D01*
X49114Y14217D01*
X49080Y14193D01*
X49051Y14164D01*
X48955Y14126D01*
X48936Y14116D01*
X48883Y14073D01*
X48830Y14049D01*
X48744Y14001D01*
X48724Y13982D01*
X48705Y13972D01*
X48580Y13905D01*
X48532Y13876D01*
X48426Y13818D01*
X48398Y13789D01*
X48359Y13780D01*
X48330Y13770D01*
X48263Y13732D01*
X48234Y13703D01*
X48186Y13684D01*
X48095Y13650D01*
X48061Y13616D01*
X48042Y13607D01*
X47975Y13578D01*
X47927Y13549D01*
X47859Y13501D01*
X47797Y13487D01*
X47749Y13467D01*
X47706Y13424D01*
X47657Y13405D01*
X47619Y13395D01*
X47552Y13347D01*
X47533Y13328D01*
X47484Y13309D01*
X47432Y13294D01*
X47374Y13256D01*
X47359Y13241D01*
X47311Y13222D01*
X47273Y13213D01*
X47206Y13174D01*
X47148Y13136D01*
X47095Y13121D01*
X47047Y13102D01*
X47014Y13078D01*
X46994Y13059D01*
X46946Y13040D01*
X46884Y13025D01*
X46836Y13006D01*
X46764Y12953D01*
X46725Y12944D01*
X46648Y12915D01*
X46595Y12871D01*
X46533Y12847D01*
X46480Y12833D01*
X46446Y12819D01*
X46379Y12770D01*
X46317Y12756D01*
X46268Y12737D01*
X46235Y12713D01*
X46216Y12694D01*
X46168Y12674D01*
X46129Y12665D01*
X46076Y12650D01*
X46023Y12617D01*
X45995Y12588D01*
X45932Y12573D01*
X45875Y12564D01*
X45826Y12545D01*
X45802Y12521D01*
X45783Y12511D01*
X45716Y12482D01*
X45639Y12463D01*
X45533Y12396D01*
X45466Y12386D01*
X45403Y12362D01*
X45370Y12328D01*
X45351Y12319D01*
X45303Y12300D01*
X45235Y12290D01*
X45173Y12266D01*
X45115Y12228D01*
X45062Y12203D01*
X44980Y12189D01*
X44947Y12175D01*
X44918Y12146D01*
X44899Y12136D01*
X44851Y12117D01*
X44783Y12107D01*
X44745Y12098D01*
X44678Y12059D01*
X44630Y12030D01*
X44553Y12011D01*
X44486Y12002D01*
X44466Y11982D01*
X44447Y11973D01*
X44428Y11953D01*
X44380Y11934D01*
X44313Y11925D01*
X44274Y11915D01*
X44207Y11877D01*
X44120Y11838D01*
X44053Y11829D01*
X44014Y11819D01*
X43952Y11795D01*
X43938Y11780D01*
X43918Y11771D01*
X43851Y11742D01*
X43784Y11732D01*
X43745Y11723D01*
X43668Y11675D01*
X43620Y11655D01*
X43553Y11646D01*
X43476Y11627D01*
X43418Y11588D01*
X43371Y11569D01*
X43260Y11545D01*
X43212Y11526D01*
X43197Y11511D01*
X43178Y11502D01*
X43130Y11483D01*
X43092Y11473D01*
X43024Y11463D01*
X42986Y11454D01*
X42842Y11386D01*
X42803Y11377D01*
X42702Y11362D01*
X42582Y11300D01*
X42544Y11290D01*
X42476Y11281D01*
X42414Y11266D01*
X42337Y11218D01*
X42284Y11204D01*
X42246Y11194D01*
X42164Y11180D01*
X42116Y11161D01*
X42102Y11146D01*
X42034Y11117D01*
X41972Y11103D01*
X41924Y11093D01*
X41847Y11064D01*
X41794Y11040D01*
X41746Y11021D01*
X41693Y11007D01*
X41645Y10997D01*
X41530Y10968D01*
X41419Y10915D01*
X41381Y10906D01*
X41289Y10891D01*
X41227Y10867D01*
X41169Y10829D01*
X41102Y10810D01*
X40996Y10819D01*
X40991Y10843D01*
X41015Y10867D01*
X41092Y10887D01*
X41155Y10901D01*
X41236Y10944D01*
X41285Y10964D01*
X41381Y10992D01*
X41443Y11016D01*
X41525Y11060D01*
X41563Y11069D01*
X41655Y11103D01*
X41756Y11146D01*
X41818Y11170D01*
X41866Y11189D01*
X41881Y11204D01*
X41919Y11213D01*
X41967Y11233D01*
X42006Y11242D01*
X42068Y11266D01*
X42102Y11290D01*
X42188Y11329D01*
X42260Y11343D01*
X42313Y11377D01*
X42371Y11415D01*
X42481Y11439D01*
X42534Y11473D01*
X42582Y11502D01*
X42630Y11521D01*
X42693Y11535D01*
X42726Y11550D01*
X42794Y11598D01*
X42842Y11617D01*
X42895Y11631D01*
X42996Y11704D01*
X43077Y11718D01*
X43125Y11737D01*
X43140Y11752D01*
X43159Y11761D01*
X43178Y11780D01*
X43298Y11824D01*
X43332Y11848D01*
X43351Y11867D01*
X43399Y11886D01*
X43438Y11896D01*
X43505Y11934D01*
X43563Y11973D01*
X43601Y11982D01*
X43688Y12030D01*
X43716Y12059D01*
X43765Y12078D01*
X43817Y12093D01*
X43918Y12165D01*
X43971Y12179D01*
X44029Y12218D01*
X44053Y12242D01*
X44120Y12261D01*
X44168Y12290D01*
X44216Y12338D01*
X44284Y12357D01*
X44351Y12396D01*
X44389Y12434D01*
X44442Y12449D01*
X44495Y12482D01*
X44524Y12511D01*
X44543Y12521D01*
X44644Y12573D01*
X44654Y12593D01*
X44668Y12607D01*
X44735Y12636D01*
X44803Y12674D01*
X44841Y12713D01*
X44928Y12761D01*
X44966Y12799D01*
X45029Y12823D01*
X45062Y12847D01*
X45110Y12896D01*
X45197Y12944D01*
X45245Y12992D01*
X45312Y13030D01*
X45360Y13078D01*
X45447Y13126D01*
X45461Y13141D01*
X45471Y13160D01*
X45552Y13213D01*
X45610Y13270D01*
X45629Y13280D01*
X45682Y13323D01*
X45726Y13366D01*
X45793Y13405D01*
X45870Y13482D01*
X45889Y13491D01*
X45946Y13549D01*
X45995Y13578D01*
X46028Y13612D01*
X46038Y13631D01*
X46062Y13655D01*
X46081Y13665D01*
X46124Y13708D01*
X46134Y13727D01*
X46148Y13741D01*
X46168Y13751D01*
X46220Y13804D01*
X46230Y13823D01*
X46244Y13837D01*
X46264Y13847D01*
X46307Y13890D01*
X46317Y13910D01*
X46403Y13996D01*
X46413Y14015D01*
X46456Y14068D01*
X46470Y14083D01*
X46480Y14102D01*
X46518Y14160D01*
X46528Y14179D01*
X46562Y14203D01*
X46586Y14227D01*
X46634Y14313D01*
X46672Y14352D01*
X46692Y14400D01*
X46701Y14419D01*
X46768Y14515D01*
X46792Y14578D01*
X46831Y14635D01*
X46855Y14659D01*
X46884Y14775D01*
X46932Y14861D01*
X46951Y14909D01*
X46961Y14948D01*
X46975Y15039D01*
X47004Y15116D01*
X47028Y15169D01*
X47042Y15231D01*
X47052Y15395D01*
X47057Y15611D01*
X47047Y15640D01*
X47038Y15822D01*
X46970Y15967D01*
X46956Y16058D01*
X46946Y16096D01*
X46932Y16111D01*
X46922Y16130D01*
X46893Y16159D01*
X46850Y16279D01*
X46797Y16332D01*
X46749Y16418D01*
X46711Y16457D01*
X46701Y16476D01*
X46639Y16567D01*
X46595Y16611D01*
X46586Y16630D01*
X46312Y16904D01*
X46293Y16913D01*
X46225Y16981D01*
X46206Y16990D01*
X46120Y17058D01*
X46100Y17077D01*
X46033Y17115D01*
X45985Y17163D01*
X45879Y17221D01*
X45850Y17250D01*
X45802Y17269D01*
X45735Y17308D01*
X45716Y17327D01*
X45697Y17336D01*
X45677Y17356D01*
X45625Y17370D01*
X45577Y17389D01*
X45543Y17413D01*
X45514Y17442D01*
X45476Y17452D01*
X45384Y17485D01*
X45351Y17519D01*
X45331Y17529D01*
X45283Y17548D01*
X45245Y17557D01*
X45197Y17577D01*
X45129Y17625D01*
X45053Y17644D01*
X44990Y17668D01*
X44918Y17711D01*
X44822Y17740D01*
X44783Y17750D01*
X44721Y17774D01*
X44707Y17788D01*
X44620Y17827D01*
X44529Y17841D01*
X44481Y17860D01*
X44466Y17875D01*
X44447Y17884D01*
X44380Y17913D01*
X44240Y17937D01*
X44192Y17956D01*
X44130Y17990D01*
X44063Y18009D01*
X43971Y18024D01*
X43933Y18033D01*
X43885Y18053D01*
X43803Y18086D01*
X43765Y18096D01*
X43630Y18115D01*
X43543Y18153D01*
X43495Y18173D01*
X43433Y18187D01*
X43356Y18197D01*
X43270Y18206D01*
X43222Y18216D01*
X43111Y18249D01*
X42952Y18283D01*
X42847Y18293D01*
X42693Y18312D01*
X42654Y18322D01*
X42621Y18336D01*
X42573Y18355D01*
X42534Y18365D01*
X42380Y18374D01*
X42313Y18384D01*
X42183Y18398D01*
X42126Y18408D01*
X42087Y18418D01*
X42034Y18442D01*
X41958Y18461D01*
X41626Y18485D01*
X41587Y18495D01*
X41535Y18509D01*
X41496Y18519D01*
X41429Y18528D01*
X41390Y18538D01*
X41323Y18548D01*
X41227Y18557D01*
X41102Y18567D01*
X40948Y18576D01*
X40919Y18586D01*
X40823Y18596D01*
X40770Y18610D01*
X40727Y18624D01*
X40660Y18634D01*
X40549Y18648D01*
X40376Y18658D01*
X40174Y18668D01*
X40126Y18677D01*
X40088Y18687D01*
X39953Y18697D01*
X39905Y18716D01*
X39857Y18725D01*
X39775Y18730D01*
X39747Y18721D01*
X39675Y18735D01*
X39636Y18744D01*
X39367Y18754D01*
X39218Y18759D01*
X39189Y18749D01*
X39088Y18773D01*
X39035Y18788D01*
X38872Y18778D01*
X38824Y18797D01*
X38757Y18817D01*
X38449Y18826D01*
X38420Y18836D01*
X37464Y18850D01*
X37425Y18860D01*
X37377Y18869D01*
X34763Y18879D01*
X34758Y18884D01*
X34729Y18874D01*
X34623Y18846D01*
X33614Y18836D01*
X33585Y18826D01*
X33489Y18817D01*
X33220Y18807D01*
X33172Y18788D01*
X33133Y18778D01*
X32994Y18783D01*
X32879Y18773D01*
X32840Y18764D01*
X32754Y18754D01*
X32739Y18749D01*
X32710Y18759D01*
X32249Y18740D01*
X32220Y18730D01*
X31999Y18721D01*
X31951Y18701D01*
X31913Y18692D01*
X31730Y18682D01*
X31682Y18663D01*
X31259Y18653D01*
X31230Y18644D01*
X31134Y18634D01*
X31009Y18624D01*
X30942Y18596D01*
X30798Y18586D01*
X30769Y18576D01*
X30730Y18567D01*
X30375Y18557D01*
X30346Y18548D01*
X30235Y18533D01*
X30187Y18523D01*
X30149Y18514D01*
X30091Y18504D01*
X30005Y18495D01*
X29966Y18485D01*
X29639Y18466D01*
X29582Y18456D01*
X29341Y18408D01*
X29284Y18398D01*
X29207Y18389D01*
X29043Y18379D01*
X28957Y18370D01*
X28918Y18360D01*
X28813Y18350D01*
X28774Y18341D01*
X28712Y18317D01*
X28548Y18298D01*
X28452Y18288D01*
X28299Y18278D01*
X28270Y18269D01*
X28202Y18259D01*
X28126Y18249D01*
X28058Y18221D01*
X27991Y18211D01*
X27952Y18201D01*
X27741Y18192D01*
X27712Y18182D01*
X27606Y18173D01*
X27520Y18134D01*
X27385Y18115D01*
X27260Y18105D01*
X27222Y18096D01*
X27068Y18086D01*
X26982Y18048D01*
X26943Y18038D01*
X26876Y18028D01*
X26588Y18000D01*
X26496Y17985D01*
X26443Y17961D01*
X26347Y17932D01*
X26285Y17899D01*
X26275Y17860D01*
X26285Y17831D01*
X26309Y17807D01*
X26376Y17788D01*
X26424Y17769D01*
X26477Y17726D01*
X26539Y17702D01*
X26588Y17682D01*
X26640Y17639D01*
X26703Y17615D01*
X26780Y17586D01*
X26799Y17567D01*
X26818Y17557D01*
X26837Y17538D01*
X26905Y17519D01*
X26943Y17509D01*
X27011Y17471D01*
X27059Y17442D01*
X27135Y17423D01*
X27188Y17408D01*
X27222Y17394D01*
X27328Y17346D01*
X27395Y17336D01*
X27433Y17327D01*
X27496Y17303D01*
X27510Y17288D01*
X27558Y17269D01*
X27597Y17259D01*
X27731Y17240D01*
X27813Y17226D01*
X27861Y17207D01*
X27924Y17183D01*
X27962Y17173D01*
X28053Y17158D01*
X28150Y17149D01*
X28236Y17139D01*
X28313Y17130D01*
X28351Y17120D01*
X28399Y17101D01*
X28443Y17086D01*
X28481Y17077D01*
X28731Y17058D01*
X28904Y17048D01*
X28933Y17038D01*
X29029Y17029D01*
X29096Y17019D01*
X29144Y17000D01*
X29183Y16990D01*
X29394Y16981D01*
X29423Y16971D01*
X30043Y16957D01*
X30125Y16933D01*
X30586Y16923D01*
X30634Y16904D01*
X30702Y16894D01*
X30827Y16904D01*
X30855Y16894D01*
X31398Y16899D01*
X31475Y16889D01*
X31571Y16880D01*
X32067Y16875D01*
X32095Y16885D01*
X32191Y16875D01*
X32461Y16865D01*
X32595Y16875D01*
X32624Y16865D01*
X32696Y16851D01*
X32975Y16841D01*
X33028Y16817D01*
X33066Y16808D01*
X33114Y16798D01*
X33143Y16808D01*
X33287Y16798D01*
X33316Y16789D01*
X33725Y16774D01*
X33806Y16750D01*
X33931Y16740D01*
X33950Y16721D01*
X34018Y16712D01*
X34143Y16702D01*
X34172Y16692D01*
X34393Y16683D01*
X34422Y16673D01*
X34571Y16639D01*
X34623Y16625D01*
X34691Y16606D01*
X34816Y16596D01*
X34931Y16587D01*
X34998Y16558D01*
X35094Y16529D01*
X35147Y16514D01*
X35234Y16505D01*
X35311Y16495D01*
X35407Y16457D01*
X35469Y16433D01*
X35537Y16423D01*
X35575Y16414D01*
X35666Y16399D01*
X35777Y16346D01*
X35815Y16337D01*
X35882Y16327D01*
X35921Y16318D01*
X35974Y16303D01*
X36046Y16260D01*
X36113Y16241D01*
X36190Y16221D01*
X36243Y16207D01*
X36301Y16169D01*
X36353Y16144D01*
X36464Y16120D01*
X36517Y16087D01*
X36565Y16058D01*
X36632Y16039D01*
X36680Y16019D01*
X36709Y15991D01*
X36728Y15981D01*
X36748Y15962D01*
X36810Y15947D01*
X36858Y15928D01*
X36892Y15904D01*
X36921Y15875D01*
X36959Y15866D01*
X37022Y15842D01*
X37055Y15818D01*
X37084Y15789D01*
X37190Y15731D01*
X37228Y15693D01*
X37291Y15669D01*
X37324Y15645D01*
X37363Y15606D01*
X37382Y15597D01*
X37435Y15553D01*
X37488Y15500D01*
X37574Y15452D01*
X37598Y15419D01*
X37661Y15356D01*
X37675Y15351D01*
X37685Y15332D01*
X37723Y15265D01*
X37800Y15188D01*
X37839Y15121D01*
X37877Y15082D01*
X37887Y15044D01*
X37925Y14977D01*
X37964Y14919D01*
X37992Y14804D01*
X38007Y14751D01*
X38017Y14712D01*
X38041Y14630D01*
X38050Y14592D01*
X38065Y14510D01*
X38069Y14419D01*
X38041Y14352D01*
X38031Y14208D01*
X38012Y14160D01*
X38002Y14121D01*
X37983Y13986D01*
X37964Y13900D01*
X37896Y13794D01*
X37887Y13717D01*
X37848Y13650D01*
X37810Y13612D01*
X37776Y13520D01*
X37723Y13467D01*
X37675Y13381D01*
X37661Y13366D01*
X37642Y13357D01*
X37603Y13299D01*
X37579Y13266D01*
X37531Y13217D01*
X37521Y13198D01*
X37478Y13145D01*
X37372Y13040D01*
X37353Y13030D01*
X37300Y12987D01*
X37247Y12934D01*
X37228Y12924D01*
X37161Y12857D01*
X37142Y12847D01*
X37079Y12804D01*
X37070Y12785D01*
X37012Y12746D01*
X36978Y12722D01*
X36954Y12689D01*
X36940Y12674D01*
X36834Y12617D01*
X36796Y12578D01*
X36728Y12540D01*
X36680Y12492D01*
X36594Y12444D01*
X36555Y12405D01*
X36469Y12357D01*
X36421Y12309D01*
X36334Y12261D01*
X36296Y12223D01*
X36248Y12203D01*
X36180Y12165D01*
X36166Y12151D01*
X36161Y12136D01*
X36142Y12127D01*
X36036Y12069D01*
X36007Y12040D01*
X35959Y12021D01*
X35897Y11997D01*
X35844Y11944D01*
X35753Y11910D01*
X35695Y11862D01*
X35642Y11838D01*
X35589Y11824D01*
X35556Y11809D01*
X35503Y11766D01*
X35440Y11742D01*
X35402Y11732D01*
X35354Y11704D01*
X35335Y11684D01*
X35315Y11675D01*
X35267Y11655D01*
X35205Y11631D01*
X35171Y11617D01*
X35152Y11598D01*
X35133Y11588D01*
X35085Y11569D01*
X35046Y11559D01*
X34984Y11535D01*
X34921Y11492D01*
X34873Y11473D01*
X34835Y11463D01*
X34772Y11449D01*
X34695Y11401D01*
X34643Y11377D01*
X34532Y11353D01*
X34518Y11338D01*
X34498Y11329D01*
X34470Y11300D01*
X34417Y11286D01*
X34321Y11266D01*
X34273Y11247D01*
X34258Y11233D01*
X34239Y11223D01*
X34172Y11194D01*
X34061Y11170D01*
X34013Y11151D01*
X33931Y11108D01*
X33893Y11098D01*
X33792Y11074D01*
X33734Y11035D01*
X33672Y11011D01*
X33604Y11002D01*
X33503Y10978D01*
X33489Y10964D01*
X33470Y10954D01*
X33403Y10925D01*
X33364Y10915D01*
X33263Y10901D01*
X33225Y10891D01*
X33177Y10872D01*
X33105Y10829D01*
X32946Y10805D01*
X32898Y10786D01*
X32797Y10742D01*
X32682Y10723D01*
X32547Y10694D01*
X32422Y10637D01*
X32292Y10622D01*
X32254Y10613D01*
X32201Y10589D01*
X32134Y10560D01*
X32018Y10541D01*
X31894Y10521D01*
X31865Y10512D01*
X31745Y10468D01*
X31706Y10459D01*
X31648Y10449D01*
X31552Y10440D01*
X31437Y10411D01*
X31341Y10372D01*
X31293Y10363D01*
X31177Y10353D01*
X31120Y10344D01*
X31072Y10334D01*
X30995Y10315D01*
X30918Y10286D01*
X30865Y10271D01*
X30769Y10262D01*
X30639Y10247D01*
X30591Y10238D01*
X30514Y10219D01*
X30432Y10185D01*
X30365Y10175D01*
X30192Y10166D01*
X30163Y10156D01*
X30091Y10142D01*
X30053Y10132D01*
X30000Y10118D01*
X29889Y10093D01*
X29832Y10084D01*
X29697Y10074D01*
X29601Y10065D01*
X29505Y10046D01*
X29447Y10036D01*
X29399Y10026D01*
X29361Y10017D01*
X29308Y10002D01*
X29241Y9993D01*
X28986Y9978D01*
X28938Y9969D01*
X28861Y9959D01*
X28769Y9945D01*
X28721Y9925D01*
X28606Y9916D01*
X28577Y9906D01*
X28539Y9896D01*
X28169Y9882D01*
X28111Y9872D01*
X28029Y9868D01*
X28020Y9877D01*
X27991Y9868D01*
X27943Y9858D01*
X27876Y9829D01*
X27765Y9834D01*
X27707Y9824D01*
X27669Y9815D01*
X27409Y9805D01*
X27044Y9796D01*
X27006Y9786D01*
X26958Y9776D01*
X26905Y9771D01*
X26876Y9781D01*
X26539Y9771D01*
X26511Y9762D01*
X26434Y9743D01*
X24896Y9752D01*
X24848Y9771D01*
X24752Y9781D01*
X24497Y9776D01*
X24439Y9786D01*
X24309Y9800D01*
X23858Y9810D01*
X23829Y9820D01*
X23747Y9834D01*
X23742Y9839D01*
X23713Y9829D01*
X23627Y9839D01*
X23560Y9868D01*
X23425Y9877D01*
X23396Y9887D01*
X23137Y9896D01*
X23108Y9906D01*
X23031Y9916D01*
X23002Y9925D01*
X22925Y9945D01*
X22834Y9959D01*
X22757Y9978D01*
X22623Y9988D01*
X22526Y9997D01*
X22478Y10007D01*
X22430Y10026D01*
X22368Y10050D01*
X22291Y10069D01*
X22142Y10084D01*
X22084Y10093D01*
X22036Y10103D01*
X21959Y10132D01*
X21878Y10156D01*
X21839Y10166D01*
X21719Y10180D01*
X21680Y10190D01*
X21570Y10243D01*
X21455Y10262D01*
X21387Y10271D01*
X21325Y10295D01*
X21253Y10339D01*
X21190Y10353D01*
X21113Y10363D01*
X21036Y10391D01*
X21022Y10406D01*
X21003Y10416D01*
X20955Y10435D01*
X20844Y10459D01*
X20763Y10502D01*
X20714Y10521D01*
X20647Y10541D01*
X20585Y10565D01*
X20561Y10589D01*
X20541Y10598D01*
X20522Y10617D01*
X20484Y10627D01*
X20392Y10661D01*
X20349Y10704D01*
X20253Y10733D01*
X20205Y10762D01*
X20167Y10800D01*
X20075Y10834D01*
X20042Y10858D01*
X20003Y10896D01*
X19897Y10954D01*
X19859Y10992D01*
X19772Y11040D01*
X19724Y11088D01*
X19705Y11098D01*
X19662Y11132D01*
X19652Y11151D01*
X19628Y11175D01*
X19561Y11213D01*
X19523Y11271D01*
X19479Y11314D01*
X19470Y11333D01*
X19426Y11377D01*
X19407Y11386D01*
X19393Y11401D01*
X19383Y11420D01*
X19345Y11487D01*
X19306Y11526D01*
X19297Y11545D01*
X19287Y11574D01*
X19268Y11651D01*
X19244Y11790D01*
X19220Y11843D01*
X19229Y11901D01*
X19258Y11968D01*
X19268Y12006D01*
X19282Y12098D01*
X19306Y12160D01*
X19354Y12208D01*
X19402Y12295D01*
X19446Y12338D01*
X19465Y12348D01*
X19551Y12434D01*
X19619Y12473D01*
X19676Y12530D01*
X19744Y12569D01*
X19792Y12617D01*
X19878Y12665D01*
X19926Y12713D01*
X19994Y12751D01*
X20008Y12766D01*
X20018Y12785D01*
X20032Y12799D01*
X20051Y12809D01*
X20119Y12857D01*
X20138Y12876D01*
X20157Y12886D01*
X20224Y12934D01*
X20239Y12977D01*
X20195Y13030D01*
X20128Y13040D01*
X20090Y13049D01*
X20027Y13073D01*
X19974Y13097D01*
X19893Y13112D01*
X19739Y13131D01*
X19700Y13141D01*
X19624Y13170D01*
X19580Y13184D01*
X19503Y13203D01*
X19407Y13213D01*
X19369Y13222D01*
X19287Y13237D01*
X19249Y13246D01*
X19172Y13275D01*
X19119Y13290D01*
X19080Y13299D01*
X19013Y13309D01*
X18902Y13323D01*
X18797Y13362D01*
X18754Y13376D01*
X18677Y13395D01*
X18537Y13410D01*
X18489Y13419D01*
X18441Y13439D01*
X18360Y13472D01*
X18225Y13491D01*
X18129Y13501D01*
X18100Y13511D01*
X18037Y13535D01*
X17985Y13559D01*
X17946Y13568D01*
X17879Y13578D01*
X17783Y13588D01*
X17682Y13612D01*
X17619Y13636D01*
X17552Y13655D01*
X17514Y13665D01*
X17446Y13674D01*
X17336Y13689D01*
X17288Y13708D01*
X17206Y13732D01*
X17139Y13751D01*
X17100Y13761D01*
X17004Y13770D01*
X16942Y13785D01*
X16865Y13804D01*
X16817Y13823D01*
X16735Y13847D01*
X16600Y13866D01*
X16495Y13876D01*
X16466Y13886D01*
X16394Y13871D01*
X16317Y13852D01*
X16264Y13818D01*
X16235Y13789D01*
X16168Y13770D01*
X16105Y13756D01*
X16052Y13722D01*
X16033Y13703D01*
X15985Y13684D01*
X15947Y13674D01*
X15879Y13636D01*
X15822Y13597D01*
X15783Y13588D01*
X15721Y13564D01*
X15687Y13540D01*
X15668Y13520D01*
X15620Y13501D01*
X15582Y13491D01*
X15495Y13443D01*
X15466Y13415D01*
X15428Y13405D01*
X15341Y13357D01*
X15312Y13328D01*
X15264Y13309D01*
X15226Y13299D01*
X15173Y13256D01*
X15111Y13222D01*
X15048Y13198D01*
X15005Y13155D01*
X14986Y13145D01*
X14918Y13117D01*
X14870Y13088D01*
X14832Y13049D01*
X14726Y12992D01*
X14659Y12944D01*
X14611Y12924D01*
X14558Y12881D01*
X14543Y12867D01*
X14438Y12809D01*
X14409Y12780D01*
X14342Y12751D01*
X14293Y12722D01*
X14279Y12708D01*
X14274Y12694D01*
X14255Y12684D01*
X14236Y12665D01*
X14207Y12655D01*
X14154Y12612D01*
X14130Y12588D01*
X14024Y12530D01*
X13986Y12492D01*
X13919Y12453D01*
X13871Y12405D01*
X13765Y12348D01*
X13717Y12300D01*
X13649Y12261D01*
X13592Y12203D01*
X13544Y12175D01*
X13496Y12127D01*
X13409Y12078D01*
X13361Y12030D01*
X13275Y11982D01*
X13251Y11949D01*
X13236Y11934D01*
X13217Y11925D01*
X13164Y11881D01*
X13150Y11867D01*
X13130Y11857D01*
X13111Y11838D01*
X13092Y11829D01*
X13039Y11785D01*
X12996Y11742D01*
X12977Y11732D01*
X12722Y11478D01*
X12712Y11458D01*
X12650Y11367D01*
X12635Y11362D01*
X12626Y11343D01*
X12578Y11257D01*
X12530Y11209D01*
X12515Y11146D01*
X12506Y11108D01*
X12486Y11060D01*
X12462Y11035D01*
X12443Y10988D01*
X12424Y10911D01*
X12419Y10838D01*
X12424Y10776D01*
X12414Y10747D01*
X12400Y10694D01*
X12395Y10622D01*
X12414Y10574D01*
X12424Y10372D01*
X12433Y10344D01*
X12453Y10295D01*
X12501Y10228D01*
X12515Y10175D01*
X12530Y10142D01*
X12573Y10089D01*
X12597Y10065D01*
X12635Y9997D01*
X12693Y9940D01*
X12703Y9921D01*
X12746Y9868D01*
X12765Y9858D01*
X12789Y9834D01*
X12799Y9815D01*
X12842Y9771D01*
X12861Y9762D01*
X12929Y9695D01*
X12948Y9685D01*
X13001Y9642D01*
X13015Y9618D01*
X13034Y9608D01*
X13126Y9546D01*
X13159Y9512D01*
X13246Y9464D01*
X13303Y9406D01*
X13356Y9392D01*
X13390Y9377D01*
X13448Y9320D01*
X13539Y9286D01*
X13582Y9243D01*
X13630Y9224D01*
X13683Y9209D01*
X13717Y9185D01*
X13755Y9147D01*
X13803Y9127D01*
X13875Y9113D01*
X13909Y9099D01*
X13938Y9070D01*
X13957Y9060D01*
X14024Y9031D01*
X14087Y9017D01*
X14140Y8983D01*
X14188Y8954D01*
X14265Y8935D01*
X14327Y8911D01*
X14385Y8873D01*
X14438Y8858D01*
X14515Y8839D01*
X14567Y8825D01*
X14582Y8810D01*
X14601Y8801D01*
X14649Y8772D01*
X14688Y8762D01*
X14798Y8738D01*
X14846Y8719D01*
X14861Y8705D01*
X14947Y8666D01*
X15087Y8642D01*
X15192Y8594D01*
X15231Y8584D01*
X15279Y8575D01*
X15336Y8565D01*
X15375Y8556D01*
X15476Y8512D01*
X15553Y8493D01*
X15634Y8479D01*
X15683Y8460D01*
X15702Y8440D01*
X15697Y8416D01*
X15658Y8407D01*
X15625Y8402D01*
X15548Y8411D01*
X15375Y8440D01*
X15322Y8455D01*
X15283Y8464D01*
X15024Y8512D01*
X14928Y8522D01*
X14837Y8536D01*
X14697Y8580D01*
X14620Y8599D01*
X14414Y8613D01*
X14366Y8623D01*
X14289Y8652D01*
X14226Y8676D01*
X14159Y8685D01*
X14120Y8695D01*
X13967Y8705D01*
X13919Y8724D01*
X13851Y8753D01*
X13813Y8762D01*
X13698Y8782D01*
X13630Y8791D01*
X13539Y8805D01*
X13462Y8834D01*
X13399Y8858D01*
X13337Y8873D01*
X13231Y8882D01*
X13193Y8892D01*
X13145Y8911D01*
X13044Y8954D01*
X12962Y8969D01*
X12866Y8979D01*
X12828Y8988D01*
X12717Y9041D01*
X12554Y9070D01*
X12491Y9084D01*
X12443Y9104D01*
X12429Y9118D01*
X12381Y9137D01*
X12342Y9147D01*
X12275Y9156D01*
X12236Y9166D01*
X12184Y9180D01*
X12150Y9195D01*
X12102Y9224D01*
X12054Y9243D01*
X11963Y9257D01*
X11914Y9267D01*
X11794Y9329D01*
X11727Y9339D01*
X11689Y9349D01*
X11626Y9363D01*
X11506Y9426D01*
X11468Y9435D01*
X11395Y9449D01*
X11362Y9464D01*
X11294Y9512D01*
X11232Y9526D01*
X11184Y9536D01*
X11146Y9546D01*
X11112Y9570D01*
X11006Y9618D01*
X10934Y9632D01*
X10857Y9680D01*
X10804Y9704D01*
X10737Y9724D01*
X10689Y9743D01*
X10622Y9791D01*
X10569Y9805D01*
X10530Y9815D01*
X10497Y9829D01*
X10477Y9848D01*
X10458Y9858D01*
X10391Y9887D01*
X10352Y9896D01*
X10266Y9945D01*
X10247Y9964D01*
X10155Y9997D01*
X10122Y10022D01*
X10083Y10060D01*
X10016Y10079D01*
X9954Y10103D01*
X9939Y10118D01*
X9920Y10127D01*
X9891Y10156D01*
X9829Y10180D01*
X9795Y10194D01*
X9742Y10238D01*
X9728Y10252D01*
X9636Y10286D01*
X9622Y10300D01*
X9607Y10305D01*
X9598Y10324D01*
X9526Y10368D01*
X9497Y10377D01*
X9444Y10420D01*
X9401Y10444D01*
X9334Y10483D01*
X9295Y10521D01*
X9276Y10531D01*
X9185Y10593D01*
X9161Y10617D01*
X9074Y10666D01*
X9026Y10713D01*
X8959Y10752D01*
X8944Y10766D01*
X8935Y10786D01*
X8920Y10800D01*
X8901Y10810D01*
X8815Y10877D01*
X8786Y10906D01*
X8766Y10915D01*
X8699Y10983D01*
X8680Y10992D01*
X8661Y11011D01*
X8642Y11021D01*
X8291Y11372D01*
X8281Y11391D01*
X8214Y11458D01*
X8185Y11507D01*
X8118Y11574D01*
X8108Y11593D01*
X8089Y11612D01*
X8084Y11627D01*
X8065Y11636D01*
X8041Y11660D01*
X8031Y11680D01*
X7983Y11747D01*
X7954Y11776D01*
X7897Y11881D01*
X7868Y11910D01*
X7858Y11930D01*
X7800Y12035D01*
X7772Y12064D01*
X7752Y12112D01*
X7728Y12175D01*
X7704Y12208D01*
X7685Y12228D01*
X7656Y12295D01*
X7642Y12348D01*
X7603Y12405D01*
X7589Y12420D01*
X7570Y12468D01*
X7555Y12550D01*
X7512Y12631D01*
X7483Y12698D01*
X7474Y12766D01*
X7450Y12905D01*
X7425Y12987D01*
X7411Y13049D01*
X7392Y13126D01*
X7382Y13366D01*
X7378Y13602D01*
X7387Y13631D01*
X7378Y13794D01*
X7387Y13823D01*
X7397Y13861D01*
X7406Y13890D01*
X7416Y13929D01*
X7425Y14025D01*
X7445Y14073D01*
X7464Y14150D01*
X7478Y14289D01*
X7507Y14366D01*
X7551Y14467D01*
X7560Y14534D01*
X7570Y14573D01*
X7589Y14621D01*
X7627Y14688D01*
X7647Y14736D01*
X7661Y14799D01*
X7671Y14837D01*
X7733Y14929D01*
X7752Y14996D01*
X7791Y15063D01*
X7820Y15092D01*
X7839Y15159D01*
X7858Y15207D01*
X7901Y15260D01*
X7916Y15274D01*
X7940Y15337D01*
X7954Y15371D01*
X7983Y15400D01*
X7993Y15419D01*
X8012Y15438D01*
X8031Y15486D01*
X8074Y15539D01*
X8089Y15553D01*
X8156Y15678D01*
X8195Y15717D01*
X8233Y15784D01*
X8281Y15832D01*
X8310Y15899D01*
X8320Y15919D01*
X8387Y15986D01*
X8416Y16034D01*
X8473Y16092D01*
X8483Y16111D01*
X8526Y16164D01*
X8569Y16207D01*
X8608Y16274D01*
X8675Y16341D01*
X8685Y16361D01*
X8718Y16404D01*
X8738Y16414D01*
X8752Y16428D01*
X8762Y16447D01*
X8795Y16490D01*
X8815Y16500D01*
X8867Y16553D01*
X8877Y16572D01*
X8891Y16587D01*
X8911Y16596D01*
X8963Y16649D01*
X8973Y16668D01*
X9031Y16716D01*
X9050Y16736D01*
X9060Y16755D01*
X9074Y16769D01*
X9093Y16779D01*
X9146Y16832D01*
X9156Y16851D01*
X9170Y16865D01*
X9189Y16875D01*
X9233Y16918D01*
X9242Y16937D01*
X9257Y16952D01*
X9276Y16962D01*
X9329Y17014D01*
X9338Y17034D01*
X9353Y17048D01*
X9401Y17077D01*
X9439Y17115D01*
X9459Y17125D01*
X9487Y17154D01*
X9507Y17163D01*
X9521Y17178D01*
X9531Y17197D01*
X9555Y17221D01*
X9574Y17231D01*
X9641Y17279D01*
X9708Y17346D01*
X9728Y17356D01*
X9785Y17413D01*
X9805Y17423D01*
X9857Y17466D01*
X9901Y17509D01*
X9920Y17519D01*
X9973Y17562D01*
X10006Y17596D01*
X10074Y17634D01*
X10131Y17692D01*
X10199Y17730D01*
X10256Y17788D01*
X10324Y17827D01*
X10348Y17851D01*
X10352Y17865D01*
X10372Y17875D01*
X10458Y17923D01*
X10506Y17971D01*
X10588Y18014D01*
X10598Y18033D01*
X10631Y18067D01*
X10694Y18091D01*
X10747Y18144D01*
X10766Y18153D01*
X10833Y18192D01*
X10871Y18230D01*
X10891Y18240D01*
X10977Y18288D01*
X11025Y18336D01*
X11073Y18355D01*
X11093Y18365D01*
X11146Y18408D01*
X11160Y18422D01*
X11246Y18471D01*
X11285Y18509D01*
X11352Y18538D01*
X11400Y18567D01*
X11439Y18605D01*
X11506Y18634D01*
X11554Y18663D01*
X11592Y18701D01*
X11641Y18721D01*
X11689Y18749D01*
X11727Y18788D01*
X11794Y18817D01*
X11862Y18855D01*
X11890Y18884D01*
X11953Y18908D01*
X12006Y18942D01*
X12035Y18970D01*
X12131Y19009D01*
X12174Y19042D01*
X12184Y19062D01*
X12236Y19086D01*
X12289Y19100D01*
X12323Y19124D01*
X12361Y19163D01*
X12467Y19201D01*
X12520Y19244D01*
X12534Y19259D01*
X12626Y19292D01*
X12659Y19317D01*
X12688Y19345D01*
X12794Y19384D01*
X12890Y19451D01*
X12943Y19466D01*
X12991Y19494D01*
X13001Y19513D01*
X13044Y19537D01*
X13082Y19547D01*
X13145Y19571D01*
X13159Y19586D01*
X13179Y19595D01*
X13207Y19624D01*
X13299Y19658D01*
X13332Y19682D01*
X13361Y19711D01*
X13457Y19739D01*
X13524Y19778D01*
X13553Y19807D01*
X13621Y19826D01*
X13683Y19850D01*
X13717Y19884D01*
X13736Y19893D01*
X13784Y19912D01*
X13875Y19946D01*
X13919Y19989D01*
X13986Y20008D01*
X14048Y20033D01*
X14063Y20047D01*
X14082Y20057D01*
X14111Y20086D01*
X14178Y20105D01*
X14241Y20129D01*
X14255Y20143D01*
X14274Y20153D01*
X14293Y20172D01*
X14346Y20186D01*
X14385Y20196D01*
X14433Y20215D01*
X14467Y20239D01*
X14495Y20268D01*
X14563Y20287D01*
X14625Y20311D01*
X14659Y20335D01*
X14745Y20374D01*
X14784Y20383D01*
X14832Y20403D01*
X14918Y20460D01*
X14957Y20470D01*
X15010Y20484D01*
X15058Y20504D01*
X15091Y20537D01*
X15159Y20566D01*
X15216Y20576D01*
X15308Y20638D01*
X15360Y20653D01*
X15447Y20672D01*
X15466Y20691D01*
X15485Y20701D01*
X15514Y20730D01*
X15582Y20749D01*
X15644Y20763D01*
X15658Y20777D01*
X15678Y20787D01*
X15735Y20826D01*
X15798Y20840D01*
X15846Y20850D01*
X15903Y20888D01*
X15918Y20902D01*
X15966Y20922D01*
X16067Y20946D01*
X16120Y20979D01*
X16168Y21008D01*
X16245Y21027D01*
X16302Y21037D01*
X16399Y21104D01*
X16451Y21119D01*
X16499Y21128D01*
X16562Y21152D01*
X16581Y21172D01*
X16600Y21181D01*
X16648Y21201D01*
X16711Y21215D01*
X16749Y21225D01*
X16831Y21268D01*
X16898Y21297D01*
X16937Y21306D01*
X16990Y21321D01*
X17043Y21354D01*
X17110Y21383D01*
X17187Y21402D01*
X17240Y21417D01*
X17273Y21431D01*
X17341Y21479D01*
X17422Y21494D01*
X17461Y21503D01*
X17581Y21566D01*
X17643Y21580D01*
X17691Y21590D01*
X17740Y21609D01*
X17754Y21623D01*
X17773Y21633D01*
X17840Y21662D01*
X17879Y21671D01*
X17989Y21696D01*
X18047Y21734D01*
X18100Y21758D01*
X18167Y21768D01*
X18206Y21777D01*
X18369Y21854D01*
X18460Y21869D01*
X18508Y21888D01*
X18580Y21931D01*
X18633Y21945D01*
X18691Y21955D01*
X18768Y21984D01*
X18782Y21998D01*
X18850Y22027D01*
X18931Y22041D01*
X18989Y22051D01*
X19071Y22094D01*
X19119Y22114D01*
X19196Y22133D01*
X19263Y22142D01*
X19407Y22210D01*
X19446Y22219D01*
X19527Y22234D01*
X19590Y22258D01*
X19647Y22296D01*
X19763Y22316D01*
X19801Y22325D01*
X19864Y22349D01*
X19936Y22392D01*
X20018Y22407D01*
X20075Y22416D01*
X20152Y22445D01*
X20234Y22479D01*
X20311Y22498D01*
X20378Y22508D01*
X20416Y22517D01*
X20436Y22527D01*
X20493Y22565D01*
X20561Y22585D01*
X20628Y22594D01*
X20700Y22609D01*
X20763Y22633D01*
X20849Y22671D01*
X20916Y22681D01*
X20955Y22690D01*
X21017Y22705D01*
X21056Y22714D01*
X21137Y22758D01*
X21214Y22777D01*
X21315Y22791D01*
X21354Y22801D01*
X21402Y22820D01*
X21416Y22835D01*
X21464Y22854D01*
X21503Y22863D01*
X21570Y22873D01*
X21652Y22887D01*
X21700Y22907D01*
X21801Y22950D01*
X21892Y22964D01*
X21950Y22974D01*
X21998Y22984D01*
X22036Y22993D01*
X22147Y23046D01*
X22214Y23056D01*
X22310Y23065D01*
X22435Y23123D01*
X22474Y23133D01*
X22541Y23142D01*
X22579Y23152D01*
X22685Y23161D01*
X22829Y23229D01*
X22896Y23238D01*
X23007Y23253D01*
X23045Y23262D01*
X23094Y23281D01*
X23175Y23315D01*
X23243Y23325D01*
X23281Y23334D01*
X23392Y23349D01*
X23430Y23358D01*
X23560Y23411D01*
X23627Y23421D01*
X23723Y23430D01*
X23762Y23440D01*
X23882Y23483D01*
X23959Y23503D01*
X24007Y23512D01*
X24093Y23522D01*
X24151Y23531D01*
X24242Y23565D01*
X24290Y23584D01*
X24367Y23604D01*
X24526Y23618D01*
X24564Y23628D01*
X24612Y23647D01*
X24665Y23671D01*
X24742Y23690D01*
X24867Y23700D01*
X24934Y23709D01*
X24987Y23724D01*
X25069Y23757D01*
X25131Y23772D01*
X25170Y23781D01*
X25300Y23796D01*
X25376Y23805D01*
X25463Y23844D01*
X25530Y23863D01*
X25569Y23873D01*
X25694Y23882D01*
X25785Y23897D01*
X25867Y23921D01*
X25934Y23940D01*
X26030Y23969D01*
X26155Y23978D01*
X26314Y24012D01*
X26390Y24031D01*
X26472Y24055D01*
X26511Y24065D01*
X26640Y24079D01*
X26698Y24089D01*
X26804Y24108D01*
X26914Y24142D01*
X27049Y24161D01*
X27169Y24175D01*
X27217Y24185D01*
X27299Y24209D01*
X27409Y24233D01*
X27448Y24243D01*
X27525Y24252D01*
X27654Y24267D01*
X27693Y24276D01*
X27770Y24286D01*
X27799Y24296D01*
X27900Y24320D01*
X27977Y24339D01*
X28073Y24349D01*
X28159Y24358D01*
X28207Y24368D01*
X28265Y24377D01*
X28390Y24387D01*
X28438Y24406D01*
X28520Y24430D01*
X28616Y24440D01*
X28683Y24449D01*
X28846Y24469D01*
X28962Y24478D01*
X28981Y24498D01*
X29034Y24512D01*
X29092Y24521D01*
X29289Y24545D01*
X29385Y24536D01*
D02*
G37*
G36*
X15913Y8363D02*
X15908Y8359D01*
X15903Y8363D01*
X15908Y8368D01*
X15913Y8363D01*
D02*
G37*
G36*
X53425Y7195D02*
X53492Y7157D01*
X53598Y7109D01*
X53660Y7075D01*
X53670Y7056D01*
X53766Y6960D01*
X53776Y6921D01*
X53795Y6873D01*
X53804Y6854D01*
X53843Y6797D01*
X53862Y6729D01*
X53872Y6547D01*
X53862Y5912D01*
X53829Y5869D01*
X53790Y5859D01*
X53636Y5869D01*
X53180Y5864D01*
X53151Y5883D01*
X53132Y5931D01*
X53122Y6441D01*
X53108Y6455D01*
X53069Y6465D01*
X51675Y6455D01*
X51661Y6441D01*
X51651Y6402D01*
X51661Y5989D01*
X51671Y5960D01*
X51680Y5710D01*
X51748Y5614D01*
X51757Y5595D01*
X51781Y5561D01*
X51872Y5528D01*
X51906Y5504D01*
X51935Y5475D01*
X51983Y5456D01*
X52021Y5446D01*
X52089Y5408D01*
X52108Y5388D01*
X52127Y5379D01*
X52175Y5359D01*
X52228Y5345D01*
X52262Y5321D01*
X52319Y5283D01*
X52425Y5244D01*
X52492Y5196D01*
X52540Y5177D01*
X52593Y5162D01*
X52651Y5124D01*
X52666Y5110D01*
X52714Y5090D01*
X52805Y5057D01*
X52838Y5023D01*
X52858Y5014D01*
X52906Y4994D01*
X52944Y4985D01*
X53012Y4946D01*
X53031Y4927D01*
X53050Y4917D01*
X53098Y4898D01*
X53151Y4884D01*
X53185Y4860D01*
X53242Y4821D01*
X53310Y4802D01*
X53377Y4764D01*
X53396Y4744D01*
X53463Y4716D01*
X53531Y4677D01*
X53555Y4663D01*
X53564Y4643D01*
X53598Y4619D01*
X53651Y4576D01*
X53680Y4547D01*
X53689Y4528D01*
X53766Y4451D01*
X53795Y4384D01*
X53862Y4240D01*
X53872Y4086D01*
X53862Y2577D01*
X53824Y2510D01*
X53747Y2365D01*
X53689Y2308D01*
X53680Y2288D01*
X53636Y2235D01*
X53617Y2226D01*
X53564Y2183D01*
X53531Y2149D01*
X53367Y2063D01*
X53319Y2043D01*
X53223Y2034D01*
X51454Y2043D01*
X51387Y2082D01*
X51262Y2149D01*
X51209Y2192D01*
X51176Y2226D01*
X51156Y2235D01*
X51104Y2288D01*
X51094Y2308D01*
X51027Y2375D01*
X50921Y2596D01*
X50911Y2692D01*
X50916Y3370D01*
X50911Y3461D01*
X50935Y3504D01*
X50974Y3514D01*
X51627Y3504D01*
X51651Y3480D01*
X51661Y3413D01*
X51651Y3375D01*
X51661Y2798D01*
X51675Y2783D01*
X51714Y2774D01*
X53108Y2783D01*
X53122Y2798D01*
X53132Y2836D01*
X53122Y3509D01*
X53113Y3538D01*
X53103Y3865D01*
X53064Y3932D01*
X53021Y3985D01*
X53007Y3999D01*
X52997Y4019D01*
X52983Y4033D01*
X52964Y4043D01*
X52877Y4091D01*
X52824Y4134D01*
X52699Y4182D01*
X52685Y4196D01*
X52666Y4206D01*
X52646Y4225D01*
X52598Y4245D01*
X52507Y4278D01*
X52483Y4302D01*
X52464Y4312D01*
X52396Y4341D01*
X52334Y4365D01*
X52300Y4389D01*
X52281Y4408D01*
X52233Y4427D01*
X52142Y4461D01*
X52127Y4475D01*
X52108Y4485D01*
X52089Y4504D01*
X52041Y4523D01*
X52002Y4533D01*
X51935Y4571D01*
X51916Y4591D01*
X51868Y4610D01*
X51776Y4643D01*
X51762Y4658D01*
X51743Y4667D01*
X51723Y4687D01*
X51675Y4706D01*
X51584Y4739D01*
X51560Y4764D01*
X51541Y4773D01*
X51416Y4840D01*
X51387Y4869D01*
X51368Y4879D01*
X51301Y4917D01*
X51276Y4932D01*
X51267Y4951D01*
X51253Y4965D01*
X51233Y4975D01*
X51180Y5018D01*
X51027Y5172D01*
X50969Y5278D01*
X50931Y5336D01*
X50921Y5403D01*
X50911Y5499D01*
X50921Y6652D01*
X50969Y6739D01*
X51007Y6825D01*
X51017Y6845D01*
X51060Y6898D01*
X51113Y6950D01*
X51123Y6970D01*
X51156Y7003D01*
X51176Y7013D01*
X51253Y7090D01*
X51272Y7099D01*
X51397Y7167D01*
X51464Y7195D01*
X51502Y7205D01*
X52819D01*
X53425Y7195D01*
D02*
G37*
G36*
X23425D02*
X23516Y7133D01*
X23593Y7104D01*
X23646Y7070D01*
X23704Y7013D01*
X23723Y7003D01*
X23757Y6979D01*
X23766Y6960D01*
X23786Y6941D01*
X23795Y6921D01*
X23853Y6864D01*
X23863Y6845D01*
X23891Y6777D01*
X23959Y6633D01*
X23968Y6595D01*
X23959Y5903D01*
X23934Y5869D01*
X23896Y5859D01*
X23742Y5869D01*
X23286Y5864D01*
X23247Y5893D01*
X23238Y5931D01*
X23228Y6028D01*
X23238Y6066D01*
X23233Y6330D01*
X23238Y6412D01*
X23214Y6455D01*
X23175Y6465D01*
X22435D01*
X21781Y6455D01*
X21757Y6431D01*
X21767Y2798D01*
X21781Y2783D01*
X21820Y2774D01*
X23204Y2783D01*
X23228Y2808D01*
X23238Y2846D01*
X23228Y2990D01*
X23238Y3019D01*
X23233Y3466D01*
X23252Y3504D01*
X23291Y3514D01*
X23944Y3504D01*
X23968Y3480D01*
X23978Y3413D01*
X23968Y3346D01*
X23959Y2567D01*
X23920Y2510D01*
X23891Y2442D01*
X23853Y2375D01*
X23786Y2308D01*
X23776Y2288D01*
X23704Y2216D01*
X23685Y2207D01*
X23617Y2139D01*
X23550Y2111D01*
X23531Y2101D01*
X23473Y2063D01*
X23425Y2043D01*
X23329Y2034D01*
X21560Y2043D01*
X21474Y2091D01*
X21349Y2159D01*
X21291Y2216D01*
X21229Y2250D01*
X21219Y2269D01*
X21152Y2356D01*
X21133Y2375D01*
X21123Y2394D01*
X21056Y2519D01*
X21027Y2586D01*
X21017Y2625D01*
X21027Y6672D01*
X21065Y6739D01*
X21084Y6758D01*
X21109Y6821D01*
X21128Y6869D01*
X21200Y6941D01*
X21229Y6989D01*
X21253Y7013D01*
X21320Y7051D01*
X21368Y7099D01*
X21435Y7128D01*
X21483Y7157D01*
X21570Y7195D01*
X21608Y7205D01*
X23425Y7195D01*
D02*
G37*
G36*
X9872D02*
X9939Y7157D01*
X10045Y7109D01*
X10107Y7075D01*
X10117Y7056D01*
X10213Y6960D01*
X10223Y6921D01*
X10242Y6873D01*
X10251Y6854D01*
X10290Y6797D01*
X10309Y6729D01*
X10319Y6595D01*
Y6585D01*
X10309Y5912D01*
X10276Y5869D01*
X10237Y5859D01*
X10083Y5869D01*
X9627Y5864D01*
X9598Y5883D01*
X9579Y5931D01*
X9569Y6441D01*
X9555Y6455D01*
X9516Y6465D01*
X8122Y6455D01*
X8108Y6441D01*
X8098Y6402D01*
X8108Y5989D01*
X8118Y5960D01*
X8127Y5710D01*
X8175Y5643D01*
X8185Y5624D01*
X8228Y5561D01*
X8320Y5528D01*
X8353Y5504D01*
X8382Y5475D01*
X8430Y5456D01*
X8468Y5446D01*
X8536Y5408D01*
X8555Y5388D01*
X8574Y5379D01*
X8622Y5359D01*
X8675Y5345D01*
X8718Y5311D01*
X8738Y5302D01*
X8757Y5283D01*
X8810Y5268D01*
X8872Y5244D01*
X8959Y5187D01*
X8997Y5177D01*
X9060Y5153D01*
X9074Y5138D01*
X9093Y5129D01*
X9112Y5110D01*
X9161Y5090D01*
X9252Y5057D01*
X9285Y5023D01*
X9305Y5014D01*
X9353Y4994D01*
X9391Y4985D01*
X9459Y4946D01*
X9478Y4927D01*
X9497Y4917D01*
X9526Y4908D01*
X9617Y4874D01*
X9641Y4850D01*
X9660Y4840D01*
X9680Y4821D01*
X9732Y4807D01*
X9771Y4797D01*
X9824Y4764D01*
X9843Y4744D01*
X9910Y4716D01*
X9978Y4677D01*
X10002Y4663D01*
X10011Y4643D01*
X10045Y4619D01*
X10098Y4576D01*
X10127Y4547D01*
X10136Y4528D01*
X10213Y4451D01*
X10242Y4384D01*
X10309Y4240D01*
X10319Y4057D01*
X10309Y2577D01*
X10271Y2510D01*
X10194Y2365D01*
X10136Y2308D01*
X10127Y2288D01*
X10083Y2235D01*
X10064Y2226D01*
X10011Y2183D01*
X9978Y2149D01*
X9814Y2063D01*
X9766Y2043D01*
X9670Y2034D01*
X7901Y2043D01*
X7834Y2082D01*
X7690Y2159D01*
X7623Y2226D01*
X7603Y2235D01*
X7551Y2288D01*
X7541Y2308D01*
X7474Y2375D01*
X7368Y2596D01*
X7358Y2692D01*
X7363Y3370D01*
X7358Y3461D01*
X7382Y3504D01*
X7421Y3514D01*
X8074Y3504D01*
X8098Y3480D01*
X8108Y3413D01*
X8098Y3375D01*
X8108Y2798D01*
X8122Y2783D01*
X8161Y2774D01*
X9555Y2783D01*
X9569Y2798D01*
X9579Y2836D01*
X9569Y3509D01*
X9560Y3538D01*
X9550Y3865D01*
X9511Y3932D01*
X9468Y3985D01*
X9454Y3999D01*
X9444Y4019D01*
X9430Y4033D01*
X9410Y4043D01*
X9305Y4100D01*
X9266Y4139D01*
X9146Y4182D01*
X9132Y4196D01*
X9112Y4206D01*
X9093Y4225D01*
X9045Y4245D01*
X8954Y4278D01*
X8930Y4302D01*
X8911Y4312D01*
X8843Y4341D01*
X8781Y4365D01*
X8747Y4389D01*
X8728Y4408D01*
X8680Y4427D01*
X8589Y4461D01*
X8574Y4475D01*
X8555Y4485D01*
X8536Y4504D01*
X8488Y4523D01*
X8449Y4533D01*
X8382Y4571D01*
X8363Y4591D01*
X8315Y4610D01*
X8223Y4643D01*
X8209Y4658D01*
X8190Y4667D01*
X8170Y4687D01*
X8122Y4706D01*
X8031Y4739D01*
X8007Y4764D01*
X7988Y4773D01*
X7863Y4840D01*
X7834Y4869D01*
X7815Y4879D01*
X7728Y4927D01*
X7704Y4961D01*
X7647Y4999D01*
X7474Y5172D01*
X7416Y5278D01*
X7378Y5336D01*
X7368Y5374D01*
X7358Y5557D01*
X7368Y6652D01*
X7416Y6739D01*
X7454Y6825D01*
X7464Y6845D01*
X7507Y6898D01*
X7560Y6950D01*
X7570Y6970D01*
X7603Y7003D01*
X7623Y7013D01*
X7700Y7090D01*
X7719Y7099D01*
X7844Y7167D01*
X7911Y7195D01*
X7949Y7205D01*
X9872Y7195D01*
D02*
G37*
G36*
X32807D02*
X32821Y7181D01*
X32831Y7143D01*
X32821Y2058D01*
X32807Y2043D01*
X32768Y2034D01*
X32105Y2043D01*
X32033Y2115D01*
X32023Y2135D01*
X32004Y2183D01*
X31994Y2221D01*
X31970Y2284D01*
X31966Y2288D01*
X31927Y2346D01*
X31908Y2413D01*
X31874Y2505D01*
X31850Y2529D01*
X31812Y2615D01*
X31797Y2678D01*
X31749Y2755D01*
X31725Y2808D01*
X31711Y2870D01*
X31692Y2918D01*
X31658Y2952D01*
X31639Y3000D01*
X31629Y3038D01*
X31605Y3101D01*
X31567Y3158D01*
X31543Y3221D01*
X31528Y3274D01*
X31509Y3322D01*
X31471Y3379D01*
X31446Y3442D01*
X31437Y3480D01*
X31413Y3543D01*
X31389Y3567D01*
X31379Y3586D01*
X31350Y3653D01*
X31341Y3711D01*
X31312Y3759D01*
X31293Y3778D01*
X31283Y3797D01*
X31264Y3846D01*
X31249Y3898D01*
X31230Y3946D01*
X31216Y3961D01*
X31206Y3980D01*
X31177Y4047D01*
X31158Y4115D01*
X31120Y4182D01*
X31072Y4288D01*
X31057Y4341D01*
X31009Y4417D01*
X30985Y4470D01*
X30971Y4533D01*
X30951Y4581D01*
X30927Y4605D01*
X30918Y4624D01*
X30899Y4672D01*
X30889Y4711D01*
X30831Y4816D01*
X30803Y4884D01*
X30793Y4922D01*
X30769Y4985D01*
X30726Y5057D01*
X30711Y5119D01*
X30702Y5167D01*
X30687Y5201D01*
X30673Y5215D01*
X30634Y5206D01*
X30620Y5162D01*
X30610Y5124D01*
X30620Y4595D01*
X30615Y2178D01*
X30620Y2087D01*
X30586Y2043D01*
X30548Y2034D01*
X29904Y2043D01*
X29880Y2067D01*
X29870Y2135D01*
X29880Y2173D01*
X29875Y7147D01*
X29889Y7181D01*
X29913Y7205D01*
X30605Y7195D01*
X30668Y7133D01*
X30678Y7114D01*
X30706Y7046D01*
X30716Y6989D01*
X30745Y6941D01*
X30783Y6883D01*
X30812Y6768D01*
X30860Y6700D01*
X30889Y6633D01*
X30903Y6571D01*
X30951Y6494D01*
X30966Y6479D01*
X30980Y6426D01*
X30990Y6378D01*
X31009Y6330D01*
X31043Y6297D01*
X31052Y6278D01*
X31072Y6229D01*
X31086Y6167D01*
X31105Y6119D01*
X31129Y6095D01*
X31139Y6076D01*
X31168Y6008D01*
X31182Y5936D01*
X31221Y5879D01*
X31245Y5855D01*
X31259Y5802D01*
X31269Y5754D01*
X31288Y5706D01*
X31312Y5681D01*
X31321Y5662D01*
X31350Y5595D01*
X31360Y5537D01*
X31408Y5470D01*
X31446Y5384D01*
X31461Y5311D01*
X31485Y5278D01*
X31523Y5220D01*
X31533Y5182D01*
X31547Y5119D01*
X31562Y5086D01*
X31605Y5033D01*
X31629Y4970D01*
X31639Y4913D01*
X31668Y4865D01*
X31706Y4807D01*
X31725Y4730D01*
X31749Y4667D01*
X31783Y4634D01*
X31793Y4615D01*
X31812Y4566D01*
X31826Y4494D01*
X31860Y4442D01*
X31898Y4384D01*
X31922Y4283D01*
X31985Y4163D01*
X32009Y4052D01*
X32028Y4023D01*
X32067Y4033D01*
X32081Y4047D01*
X32100Y4124D01*
X32090Y4365D01*
X32100Y7181D01*
X32115Y7195D01*
X32153Y7205D01*
X32807Y7195D01*
D02*
G37*
G36*
X49272D02*
X49340Y7157D01*
X49465Y7090D01*
X49508Y7056D01*
X49518Y7037D01*
X49551Y7013D01*
X49633Y6931D01*
X49642Y6912D01*
X49657Y6898D01*
X49676Y6888D01*
X49690Y6873D01*
X49700Y6854D01*
X49767Y6729D01*
X49806Y6643D01*
X49796Y5153D01*
X49753Y5100D01*
X49710Y5066D01*
X49700Y5047D01*
X49638Y4985D01*
X49623Y4980D01*
X49614Y4961D01*
X49551Y4898D01*
X49537Y4893D01*
X49527Y4874D01*
X49465Y4812D01*
X49445Y4802D01*
X49431Y4788D01*
X49421Y4768D01*
X49378Y4725D01*
X49359Y4716D01*
X49325Y4682D01*
X49306Y4634D01*
X49316Y4576D01*
X49349Y4533D01*
X49369Y4523D01*
X49787Y4105D01*
X49806Y4057D01*
X49796Y2577D01*
X49758Y2510D01*
X49729Y2442D01*
X49690Y2375D01*
X49623Y2308D01*
X49614Y2288D01*
X49551Y2226D01*
X49532Y2216D01*
X49455Y2139D01*
X49388Y2111D01*
X49340Y2082D01*
X49253Y2043D01*
X49186Y2034D01*
X46879Y2043D01*
X46865Y2058D01*
X46855Y2096D01*
Y6893D01*
Y6902D01*
X46865Y7181D01*
X46879Y7195D01*
X46917Y7205D01*
X49272Y7195D01*
D02*
G37*
G36*
X44082D02*
X44125Y7162D01*
X44144Y7114D01*
X44173Y7008D01*
X44183Y6941D01*
X44236Y6792D01*
X44255Y6744D01*
X44264Y6705D01*
X44284Y6580D01*
X44313Y6503D01*
X44337Y6441D01*
X44356Y6364D01*
X44370Y6273D01*
X44380Y6234D01*
X44399Y6186D01*
X44423Y6133D01*
X44442Y6066D01*
X44462Y5951D01*
X44471Y5912D01*
X44505Y5821D01*
X44529Y5768D01*
X44538Y5730D01*
X44548Y5662D01*
X44562Y5600D01*
X44591Y5523D01*
X44615Y5460D01*
X44635Y5384D01*
X44644Y5316D01*
X44654Y5278D01*
X44668Y5225D01*
X44711Y5124D01*
X44731Y5047D01*
X44745Y4937D01*
X44774Y4860D01*
X44817Y4759D01*
X44831Y4648D01*
X44841Y4610D01*
X44889Y4485D01*
X44913Y4403D01*
X44937Y4264D01*
X44956Y4216D01*
X45000Y4115D01*
X45024Y3975D01*
X45062Y3870D01*
X45096Y3759D01*
X45105Y3692D01*
X45120Y3629D01*
X45139Y3581D01*
X45173Y3500D01*
X45202Y3336D01*
X45211Y3298D01*
X45235Y3235D01*
X45250Y3221D01*
X45259Y3182D01*
X45269Y3153D01*
X45278Y3115D01*
X45293Y3033D01*
X45303Y2985D01*
X45312Y2947D01*
X45331Y2899D01*
X45355Y2846D01*
X45384Y2731D01*
X45394Y2654D01*
X45413Y2606D01*
X45423Y2586D01*
X45452Y2519D01*
X45471Y2404D01*
X45490Y2327D01*
X45524Y2235D01*
X45543Y2187D01*
X45567Y2125D01*
X45557Y2058D01*
X45543Y2043D01*
X45504Y2034D01*
X45384Y2039D01*
X44831Y2034D01*
X44803Y2043D01*
X44764Y2053D01*
X44750Y2067D01*
X44731Y2135D01*
X44721Y2240D01*
X44711Y2269D01*
X44687Y2332D01*
X44654Y2442D01*
X44635Y2577D01*
X44625Y2615D01*
X44601Y2678D01*
X44577Y2731D01*
X44558Y2808D01*
X44548Y2875D01*
X44534Y2957D01*
X44524Y2995D01*
X44495Y3072D01*
X44481Y3105D01*
X44457Y3130D01*
X44389Y3149D01*
X44250Y3144D01*
X43197Y3149D01*
X43169Y3139D01*
X43044Y3149D01*
X43005Y3139D01*
X42986Y3130D01*
X42962Y3105D01*
X42914Y3000D01*
X42895Y2932D01*
X42880Y2841D01*
X42871Y2793D01*
X42851Y2745D01*
X42808Y2644D01*
X42799Y2577D01*
X42775Y2476D01*
X42746Y2399D01*
X42712Y2288D01*
X42702Y2250D01*
X42688Y2178D01*
X42659Y2101D01*
X42621Y2053D01*
X42553Y2034D01*
X42030Y2039D01*
X41909Y2034D01*
X41876Y2058D01*
X41866Y2096D01*
X41881Y2149D01*
X41914Y2231D01*
X41938Y2293D01*
X41953Y2346D01*
X41962Y2385D01*
X41977Y2476D01*
X42006Y2553D01*
X42049Y2692D01*
X42058Y2731D01*
X42073Y2803D01*
X42111Y2908D01*
X42131Y2957D01*
X42140Y2995D01*
X42150Y3053D01*
X42164Y3144D01*
X42193Y3211D01*
X42212Y3259D01*
X42231Y3326D01*
X42241Y3365D01*
X42255Y3447D01*
X42275Y3495D01*
X42308Y3576D01*
X42327Y3653D01*
X42342Y3735D01*
X42361Y3812D01*
X42380Y3860D01*
X42404Y3913D01*
X42424Y3990D01*
X42433Y4057D01*
X42443Y4095D01*
X42467Y4158D01*
X42491Y4211D01*
X42510Y4288D01*
X42525Y4369D01*
X42534Y4417D01*
X42573Y4523D01*
X42597Y4576D01*
X42616Y4691D01*
X42630Y4754D01*
X42649Y4802D01*
X42674Y4855D01*
X42693Y4922D01*
X42707Y5004D01*
X42717Y5052D01*
X42736Y5100D01*
X42779Y5201D01*
X42799Y5316D01*
X42813Y5369D01*
X42851Y5475D01*
X42875Y5557D01*
X42885Y5595D01*
X42900Y5686D01*
X42904Y5691D01*
X42914Y5739D01*
X42962Y5845D01*
X42972Y5883D01*
X42981Y5951D01*
X42996Y6013D01*
X43034Y6119D01*
X43053Y6167D01*
X43063Y6205D01*
X43082Y6321D01*
X43092Y6359D01*
X43111Y6407D01*
X43154Y6508D01*
X43169Y6590D01*
X43178Y6648D01*
X43188Y6686D01*
X43241Y6806D01*
X43250Y6873D01*
X43274Y6984D01*
X43327Y7114D01*
X43342Y7167D01*
X43371Y7195D01*
X43409Y7205D01*
X44082Y7195D01*
D02*
G37*
G36*
X39083D02*
X39098Y7181D01*
X39107Y7143D01*
X39103Y2832D01*
X39117Y2798D01*
X39141Y2774D01*
X40886Y2779D01*
X40924Y2769D01*
X40943Y2750D01*
X40953Y2711D01*
X40943Y2067D01*
X40919Y2043D01*
X40881Y2034D01*
X38872D01*
X38391Y2043D01*
X38377Y2058D01*
X38367Y2096D01*
X38358Y2125D01*
X38367Y2154D01*
X38363Y7128D01*
X38372Y7176D01*
X38391Y7195D01*
X38430Y7205D01*
X39083Y7195D01*
D02*
G37*
G36*
X27856D02*
X27962Y7128D01*
X28015Y7114D01*
X28082Y7075D01*
X28092Y7056D01*
X28126Y7022D01*
X28145Y7013D01*
X28207Y6950D01*
X28217Y6931D01*
X28275Y6873D01*
X28284Y6854D01*
X28322Y6768D01*
X28332Y6748D01*
X28375Y6696D01*
X28390Y6643D01*
X28399Y6604D01*
X28390Y2577D01*
X28351Y2510D01*
X28275Y2365D01*
X28207Y2298D01*
X28198Y2279D01*
X28145Y2226D01*
X28126Y2216D01*
X28049Y2139D01*
X27981Y2111D01*
X27837Y2043D01*
X27770Y2034D01*
X25982Y2043D01*
X25876Y2111D01*
X25814Y2135D01*
X25780Y2159D01*
X25732Y2207D01*
X25713Y2216D01*
X25650Y2260D01*
X25641Y2279D01*
X25593Y2346D01*
X25554Y2385D01*
X25449Y2606D01*
X25458Y6681D01*
X25525Y6787D01*
X25549Y6849D01*
X25573Y6883D01*
X25622Y6931D01*
X25660Y6998D01*
X25756Y7056D01*
X25771Y7080D01*
X25790Y7090D01*
X25915Y7157D01*
X25963Y7186D01*
X26040Y7205D01*
X27443D01*
X27856Y7195D01*
D02*
G37*
G36*
X19148D02*
X19172Y7171D01*
X19181Y7104D01*
X19172Y7075D01*
X19176Y2101D01*
X19167Y2063D01*
X19148Y2043D01*
X19109Y2034D01*
X18465Y2043D01*
X18441Y2067D01*
X18431Y2106D01*
Y6354D01*
Y6364D01*
X18441Y7181D01*
X18456Y7195D01*
X18494Y7205D01*
X19148Y7195D01*
D02*
G37*
G36*
X15457D02*
X15481Y7171D01*
X15490Y7104D01*
X15481Y7075D01*
X15490Y2798D01*
X15505Y2783D01*
X15543Y2774D01*
X17268Y2779D01*
X17302Y2764D01*
X17326Y2740D01*
X17336Y2673D01*
X17326Y2644D01*
X17331Y2101D01*
X17321Y2063D01*
X17302Y2043D01*
X17264Y2034D01*
X14774Y2043D01*
X14750Y2067D01*
X14740Y2106D01*
X14745Y2216D01*
X14740Y4105D01*
Y4115D01*
X14745Y7051D01*
X14740Y7152D01*
X14764Y7195D01*
X14803Y7205D01*
X15457Y7195D01*
D02*
G37*
G36*
X12871D02*
X12895Y7171D01*
X12904Y7133D01*
X12895Y6950D01*
Y5153D01*
Y5143D01*
X12900Y2091D01*
X12885Y2058D01*
X12871Y2043D01*
X12832Y2034D01*
X12188Y2043D01*
X12164Y2067D01*
X12155Y2135D01*
X12164Y2231D01*
X12160Y7157D01*
X12184Y7191D01*
X12198Y7205D01*
X12871Y7195D01*
D02*
G37*
G36*
X101838Y26109D02*
X101886D01*
X102017Y26095D01*
X102163Y26075D01*
X102315Y26040D01*
X102481Y25998D01*
X102633Y25943D01*
X102640D01*
X102654Y25936D01*
X102675Y25922D01*
X102702Y25908D01*
X102772Y25874D01*
X102862Y25812D01*
X102965Y25743D01*
X103069Y25653D01*
X103166Y25549D01*
X103256Y25431D01*
Y25424D01*
X103263Y25417D01*
X103277Y25396D01*
X103291Y25376D01*
X103325Y25306D01*
X103367Y25216D01*
X103415Y25106D01*
X103450Y24974D01*
X103484Y24836D01*
X103498Y24684D01*
X102889Y24635D01*
Y24642D01*
Y24656D01*
X102882Y24677D01*
X102875Y24711D01*
X102855Y24788D01*
X102827Y24891D01*
X102786Y25002D01*
X102723Y25113D01*
X102647Y25216D01*
X102550Y25313D01*
X102536Y25320D01*
X102502Y25348D01*
X102433Y25390D01*
X102343Y25431D01*
X102225Y25473D01*
X102087Y25514D01*
X101914Y25542D01*
X101720Y25549D01*
X101623D01*
X101581Y25542D01*
X101526Y25535D01*
X101401Y25521D01*
X101263Y25493D01*
X101125Y25459D01*
X100993Y25403D01*
X100938Y25369D01*
X100882Y25334D01*
X100869Y25327D01*
X100841Y25300D01*
X100800Y25251D01*
X100758Y25196D01*
X100709Y25120D01*
X100668Y25037D01*
X100640Y24940D01*
X100627Y24829D01*
Y24815D01*
Y24788D01*
X100633Y24739D01*
X100647Y24684D01*
X100668Y24614D01*
X100703Y24545D01*
X100744Y24476D01*
X100806Y24407D01*
X100813Y24400D01*
X100848Y24379D01*
X100876Y24359D01*
X100903Y24345D01*
X100945Y24324D01*
X100993Y24296D01*
X101056Y24275D01*
X101125Y24248D01*
X101201Y24220D01*
X101291Y24185D01*
X101388Y24158D01*
X101498Y24123D01*
X101623Y24095D01*
X101761Y24061D01*
X101768D01*
X101796Y24054D01*
X101838Y24047D01*
X101886Y24033D01*
X101948Y24019D01*
X102024Y23999D01*
X102101Y23978D01*
X102183Y23957D01*
X102363Y23909D01*
X102536Y23860D01*
X102620Y23832D01*
X102696Y23805D01*
X102765Y23784D01*
X102820Y23756D01*
X102827D01*
X102841Y23750D01*
X102862Y23736D01*
X102889Y23722D01*
X102965Y23680D01*
X103055Y23625D01*
X103159Y23549D01*
X103263Y23466D01*
X103360Y23369D01*
X103443Y23265D01*
X103450Y23251D01*
X103478Y23217D01*
X103505Y23154D01*
X103547Y23071D01*
X103581Y22975D01*
X103616Y22857D01*
X103637Y22725D01*
X103644Y22587D01*
Y22580D01*
Y22573D01*
Y22552D01*
Y22525D01*
X103630Y22448D01*
X103616Y22352D01*
X103588Y22241D01*
X103554Y22123D01*
X103498Y21999D01*
X103422Y21867D01*
Y21860D01*
X103415Y21853D01*
X103381Y21812D01*
X103332Y21750D01*
X103263Y21680D01*
X103173Y21597D01*
X103062Y21507D01*
X102938Y21424D01*
X102793Y21348D01*
X102786D01*
X102772Y21341D01*
X102751Y21334D01*
X102723Y21321D01*
X102682Y21307D01*
X102633Y21286D01*
X102523Y21258D01*
X102391Y21224D01*
X102232Y21189D01*
X102059Y21168D01*
X101872Y21161D01*
X101761D01*
X101706Y21168D01*
X101644D01*
X101575Y21175D01*
X101491Y21182D01*
X101319Y21210D01*
X101139Y21238D01*
X100959Y21286D01*
X100786Y21348D01*
X100779D01*
X100765Y21355D01*
X100744Y21369D01*
X100716Y21383D01*
X100633Y21424D01*
X100537Y21487D01*
X100426Y21570D01*
X100308Y21667D01*
X100198Y21784D01*
X100094Y21916D01*
Y21923D01*
X100080Y21937D01*
X100073Y21957D01*
X100052Y21985D01*
X100038Y22019D01*
X100017Y22061D01*
X99969Y22165D01*
X99921Y22296D01*
X99879Y22442D01*
X99851Y22608D01*
X99838Y22781D01*
X100433Y22836D01*
Y22829D01*
Y22822D01*
X100440Y22802D01*
Y22774D01*
X100453Y22712D01*
X100474Y22622D01*
X100502Y22532D01*
X100530Y22428D01*
X100578Y22331D01*
X100627Y22241D01*
X100633Y22234D01*
X100654Y22206D01*
X100689Y22158D01*
X100744Y22109D01*
X100813Y22047D01*
X100889Y21985D01*
X100993Y21923D01*
X101104Y21867D01*
X101111D01*
X101118Y21860D01*
X101139Y21853D01*
X101159Y21847D01*
X101228Y21826D01*
X101319Y21798D01*
X101429Y21770D01*
X101554Y21750D01*
X101692Y21736D01*
X101844Y21729D01*
X101907D01*
X101976Y21736D01*
X102059Y21743D01*
X102156Y21757D01*
X102267Y21770D01*
X102377Y21798D01*
X102481Y21833D01*
X102495Y21840D01*
X102530Y21853D01*
X102578Y21881D01*
X102640Y21909D01*
X102702Y21957D01*
X102772Y22006D01*
X102841Y22061D01*
X102896Y22130D01*
X102903Y22137D01*
X102917Y22165D01*
X102938Y22199D01*
X102965Y22255D01*
X102993Y22310D01*
X103014Y22379D01*
X103028Y22456D01*
X103035Y22538D01*
Y22545D01*
Y22580D01*
X103028Y22622D01*
X103021Y22677D01*
X103000Y22732D01*
X102979Y22802D01*
X102945Y22871D01*
X102896Y22933D01*
X102889Y22940D01*
X102869Y22961D01*
X102841Y22988D01*
X102793Y23030D01*
X102737Y23071D01*
X102661Y23120D01*
X102571Y23168D01*
X102467Y23210D01*
X102460Y23217D01*
X102426Y23224D01*
X102370Y23244D01*
X102336Y23251D01*
X102287Y23265D01*
X102239Y23286D01*
X102177Y23300D01*
X102107Y23321D01*
X102024Y23341D01*
X101941Y23362D01*
X101844Y23390D01*
X101734Y23417D01*
X101616Y23445D01*
X101609D01*
X101588Y23452D01*
X101554Y23459D01*
X101512Y23473D01*
X101457Y23486D01*
X101395Y23500D01*
X101256Y23542D01*
X101104Y23590D01*
X100945Y23639D01*
X100806Y23687D01*
X100744Y23715D01*
X100689Y23743D01*
X100682D01*
X100675Y23750D01*
X100633Y23777D01*
X100571Y23812D01*
X100502Y23867D01*
X100419Y23929D01*
X100336Y24005D01*
X100253Y24095D01*
X100184Y24192D01*
X100177Y24206D01*
X100156Y24241D01*
X100128Y24296D01*
X100101Y24365D01*
X100073Y24455D01*
X100045Y24559D01*
X100024Y24670D01*
X100017Y24788D01*
Y24794D01*
Y24801D01*
Y24822D01*
Y24850D01*
X100031Y24919D01*
X100045Y25009D01*
X100066Y25113D01*
X100101Y25230D01*
X100149Y25348D01*
X100218Y25466D01*
Y25473D01*
X100225Y25480D01*
X100260Y25521D01*
X100308Y25576D01*
X100371Y25646D01*
X100453Y25722D01*
X100557Y25805D01*
X100682Y25881D01*
X100820Y25950D01*
X100827D01*
X100841Y25957D01*
X100862Y25964D01*
X100889Y25978D01*
X100924Y25992D01*
X100972Y26005D01*
X101076Y26033D01*
X101208Y26061D01*
X101360Y26089D01*
X101519Y26109D01*
X101699Y26116D01*
X101789D01*
X101838Y26109D01*
D02*
G37*
G36*
X106585Y26026D02*
X106702Y26019D01*
X106827Y26012D01*
X106945Y25998D01*
X107048Y25985D01*
X107062D01*
X107111Y25971D01*
X107173Y25957D01*
X107256Y25936D01*
X107346Y25902D01*
X107443Y25860D01*
X107546Y25812D01*
X107636Y25756D01*
X107650Y25749D01*
X107678Y25729D01*
X107720Y25687D01*
X107775Y25639D01*
X107837Y25576D01*
X107899Y25493D01*
X107969Y25403D01*
X108024Y25300D01*
X108031Y25286D01*
X108045Y25251D01*
X108072Y25189D01*
X108100Y25106D01*
X108121Y25009D01*
X108149Y24898D01*
X108162Y24774D01*
X108169Y24642D01*
Y24635D01*
Y24614D01*
Y24587D01*
X108162Y24538D01*
X108155Y24490D01*
X108149Y24428D01*
X108135Y24359D01*
X108121Y24282D01*
X108072Y24123D01*
X108045Y24040D01*
X108003Y23950D01*
X107955Y23860D01*
X107906Y23777D01*
X107844Y23694D01*
X107775Y23611D01*
X107768Y23604D01*
X107754Y23590D01*
X107733Y23570D01*
X107699Y23549D01*
X107657Y23514D01*
X107602Y23480D01*
X107533Y23438D01*
X107457Y23404D01*
X107367Y23362D01*
X107263Y23321D01*
X107152Y23286D01*
X107021Y23258D01*
X106882Y23231D01*
X106730Y23210D01*
X106557Y23196D01*
X106377Y23189D01*
X105152D01*
Y21245D01*
X104516D01*
Y26033D01*
X106481D01*
X106585Y26026D01*
D02*
G37*
G36*
X98931Y21245D02*
X98294D01*
Y26033D01*
X98931D01*
Y21245D01*
D02*
G37*
G36*
X76409Y171989D02*
X74858D01*
Y173423D01*
X76409D01*
Y171989D01*
D02*
G37*
G36*
X70416Y173563D02*
X70544Y173551D01*
X70695Y173540D01*
X70847Y173516D01*
X71022Y173493D01*
X71395Y173411D01*
X71582Y173353D01*
X71768Y173295D01*
X71955Y173213D01*
X72129Y173120D01*
X72293Y173015D01*
X72444Y172898D01*
X72456Y172887D01*
X72479Y172863D01*
X72514Y172828D01*
X72561Y172782D01*
X72619Y172712D01*
X72689Y172630D01*
X72759Y172537D01*
X72841Y172432D01*
X72911Y172304D01*
X72981Y172175D01*
X73051Y172024D01*
X73109Y171861D01*
X73167Y171697D01*
X73214Y171511D01*
X73249Y171324D01*
X73260Y171114D01*
X71628Y171056D01*
Y171068D01*
Y171079D01*
X71605Y171161D01*
X71582Y171266D01*
X71535Y171394D01*
X71477Y171546D01*
X71395Y171686D01*
X71290Y171826D01*
X71173Y171942D01*
X71162Y171954D01*
X71115Y171989D01*
X71034Y172036D01*
X70917Y172082D01*
X70777Y172129D01*
X70602Y172175D01*
X70392Y172210D01*
X70147Y172222D01*
X70031D01*
X69902Y172210D01*
X69751Y172187D01*
X69576Y172152D01*
X69389Y172094D01*
X69214Y172024D01*
X69051Y171919D01*
X69040Y171907D01*
X69016Y171884D01*
X68970Y171849D01*
X68923Y171791D01*
X68876Y171721D01*
X68830Y171627D01*
X68806Y171534D01*
X68795Y171417D01*
Y171406D01*
Y171371D01*
X68806Y171313D01*
X68830Y171254D01*
X68853Y171173D01*
X68888Y171091D01*
X68946Y171009D01*
X69028Y170928D01*
X69040Y170916D01*
X69098Y170881D01*
X69133Y170858D01*
X69191Y170835D01*
X69249Y170800D01*
X69331Y170765D01*
X69424Y170730D01*
X69529Y170683D01*
X69658Y170636D01*
X69786Y170590D01*
X69949Y170543D01*
X70124Y170496D01*
X70310Y170450D01*
X70520Y170391D01*
X70532D01*
X70579Y170380D01*
X70637Y170368D01*
X70719Y170345D01*
X70812Y170322D01*
X70929Y170287D01*
X71057Y170252D01*
X71185Y170217D01*
X71465Y170123D01*
X71756Y170030D01*
X72036Y169925D01*
X72153Y169867D01*
X72269Y169808D01*
X72281D01*
X72293Y169797D01*
X72363Y169750D01*
X72468Y169680D01*
X72596Y169587D01*
X72736Y169470D01*
X72887Y169330D01*
X73039Y169167D01*
X73167Y168981D01*
X73179Y168957D01*
X73214Y168887D01*
X73272Y168782D01*
X73330Y168631D01*
X73389Y168444D01*
X73447Y168223D01*
X73482Y167978D01*
X73494Y167698D01*
Y167686D01*
Y167663D01*
Y167628D01*
Y167581D01*
X73482Y167523D01*
X73470Y167441D01*
X73447Y167278D01*
X73400Y167068D01*
X73330Y166847D01*
X73225Y166625D01*
X73097Y166392D01*
Y166380D01*
X73074Y166369D01*
X73027Y166299D01*
X72934Y166182D01*
X72817Y166054D01*
X72666Y165902D01*
X72468Y165762D01*
X72258Y165622D01*
X72001Y165494D01*
X71990D01*
X71966Y165483D01*
X71931Y165471D01*
X71873Y165448D01*
X71803Y165424D01*
X71721Y165401D01*
X71628Y165378D01*
X71523Y165354D01*
X71395Y165319D01*
X71267Y165296D01*
X70964Y165249D01*
X70625Y165214D01*
X70252Y165203D01*
X70101D01*
X69996Y165214D01*
X69867Y165226D01*
X69727Y165238D01*
X69564Y165261D01*
X69389Y165296D01*
X69005Y165378D01*
X68806Y165436D01*
X68620Y165494D01*
X68422Y165576D01*
X68235Y165669D01*
X68060Y165774D01*
X67897Y165902D01*
X67885Y165914D01*
X67862Y165937D01*
X67815Y165972D01*
X67769Y166031D01*
X67699Y166112D01*
X67629Y166206D01*
X67547Y166310D01*
X67466Y166427D01*
X67384Y166567D01*
X67302Y166718D01*
X67221Y166893D01*
X67139Y167080D01*
X67081Y167278D01*
X67011Y167500D01*
X66964Y167733D01*
X66929Y167978D01*
X68515Y168129D01*
Y168118D01*
X68527Y168094D01*
Y168048D01*
X68538Y168001D01*
X68585Y167861D01*
X68643Y167686D01*
X68713Y167488D01*
X68818Y167290D01*
X68935Y167115D01*
X69086Y166952D01*
X69110Y166940D01*
X69168Y166893D01*
X69261Y166835D01*
X69401Y166765D01*
X69576Y166695D01*
X69774Y166637D01*
X70007Y166590D01*
X70275Y166579D01*
X70404D01*
X70544Y166602D01*
X70719Y166625D01*
X70905Y166660D01*
X71103Y166718D01*
X71290Y166800D01*
X71453Y166905D01*
X71477Y166917D01*
X71523Y166963D01*
X71582Y167033D01*
X71663Y167127D01*
X71733Y167243D01*
X71803Y167383D01*
X71850Y167523D01*
X71861Y167686D01*
Y167698D01*
Y167733D01*
X71850Y167791D01*
X71838Y167861D01*
X71815Y167931D01*
X71791Y168013D01*
X71745Y168094D01*
X71686Y168176D01*
X71675Y168188D01*
X71651Y168211D01*
X71616Y168246D01*
X71558Y168293D01*
X71477Y168351D01*
X71372Y168409D01*
X71255Y168467D01*
X71103Y168526D01*
X71092D01*
X71045Y168549D01*
X70964Y168572D01*
X70905Y168596D01*
X70835Y168607D01*
X70754Y168631D01*
X70660Y168666D01*
X70555Y168689D01*
X70439Y168724D01*
X70299Y168759D01*
X70147Y168794D01*
X69984Y168841D01*
X69797Y168887D01*
X69786D01*
X69739Y168899D01*
X69669Y168922D01*
X69588Y168946D01*
X69483Y168981D01*
X69354Y169016D01*
X69226Y169062D01*
X69075Y169109D01*
X68771Y169225D01*
X68480Y169365D01*
X68328Y169435D01*
X68200Y169517D01*
X68072Y169599D01*
X67967Y169680D01*
X67955Y169692D01*
X67932Y169715D01*
X67897Y169750D01*
X67850Y169797D01*
X67792Y169867D01*
X67734Y169948D01*
X67664Y170030D01*
X67605Y170135D01*
X67466Y170380D01*
X67349Y170660D01*
X67302Y170811D01*
X67267Y170963D01*
X67244Y171138D01*
X67232Y171313D01*
Y171324D01*
Y171336D01*
Y171371D01*
Y171417D01*
X67256Y171534D01*
X67279Y171686D01*
X67314Y171861D01*
X67372Y172059D01*
X67454Y172269D01*
X67570Y172467D01*
Y172479D01*
X67582Y172490D01*
X67640Y172560D01*
X67710Y172653D01*
X67827Y172770D01*
X67967Y172898D01*
X68142Y173038D01*
X68340Y173167D01*
X68573Y173283D01*
X68585D01*
X68608Y173295D01*
X68643Y173306D01*
X68690Y173330D01*
X68760Y173353D01*
X68830Y173376D01*
X68923Y173400D01*
X69028Y173435D01*
X69261Y173481D01*
X69529Y173528D01*
X69832Y173563D01*
X70171Y173575D01*
X70310D01*
X70416Y173563D01*
D02*
G37*
G36*
X92616D02*
X92744Y173551D01*
X92896Y173540D01*
X93059Y173528D01*
X93234Y173493D01*
X93607Y173423D01*
X93992Y173306D01*
X94190Y173237D01*
X94377Y173155D01*
X94552Y173062D01*
X94715Y172945D01*
X94727Y172933D01*
X94750Y172922D01*
X94797Y172875D01*
X94855Y172828D01*
X94925Y172770D01*
X94995Y172688D01*
X95076Y172595D01*
X95170Y172490D01*
X95263Y172374D01*
X95356Y172245D01*
X95450Y172105D01*
X95531Y171942D01*
X95624Y171779D01*
X95694Y171604D01*
X95764Y171406D01*
X95811Y171208D01*
X94190Y170905D01*
Y170916D01*
X94178Y170928D01*
X94155Y170998D01*
X94109Y171103D01*
X94039Y171243D01*
X93957Y171394D01*
X93840Y171546D01*
X93700Y171697D01*
X93537Y171837D01*
X93514Y171849D01*
X93456Y171896D01*
X93351Y171954D01*
X93222Y172012D01*
X93047Y172082D01*
X92849Y172129D01*
X92628Y172175D01*
X92371Y172187D01*
X92266D01*
X92196Y172175D01*
X92103Y172164D01*
X91998Y172152D01*
X91882Y172129D01*
X91753Y172105D01*
X91485Y172024D01*
X91345Y171966D01*
X91205Y171896D01*
X91065Y171814D01*
X90925Y171732D01*
X90797Y171616D01*
X90669Y171499D01*
X90657Y171487D01*
X90646Y171464D01*
X90611Y171429D01*
X90576Y171371D01*
X90529Y171301D01*
X90471Y171219D01*
X90412Y171114D01*
X90366Y170998D01*
X90307Y170858D01*
X90249Y170706D01*
X90191Y170543D01*
X90144Y170368D01*
X90109Y170170D01*
X90074Y169948D01*
X90063Y169727D01*
X90051Y169482D01*
Y169470D01*
Y169424D01*
Y169342D01*
X90063Y169249D01*
X90074Y169121D01*
X90086Y168992D01*
X90109Y168829D01*
X90132Y168666D01*
X90202Y168316D01*
X90319Y167955D01*
X90389Y167780D01*
X90471Y167616D01*
X90576Y167453D01*
X90681Y167313D01*
X90692Y167301D01*
X90715Y167278D01*
X90750Y167243D01*
X90797Y167197D01*
X90867Y167150D01*
X90937Y167080D01*
X91030Y167022D01*
X91135Y166952D01*
X91252Y166882D01*
X91369Y166823D01*
X91660Y166707D01*
X91823Y166660D01*
X91987Y166625D01*
X92173Y166602D01*
X92360Y166590D01*
X92453D01*
X92546Y166602D01*
X92686Y166614D01*
X92838Y166637D01*
X93012Y166672D01*
X93199Y166718D01*
X93386Y166788D01*
X93397D01*
X93409Y166800D01*
X93467Y166823D01*
X93572Y166870D01*
X93689Y166928D01*
X93829Y166998D01*
X93980Y167080D01*
X94132Y167173D01*
X94272Y167278D01*
Y168316D01*
X92406D01*
Y169680D01*
X95916D01*
Y166439D01*
X95893Y166415D01*
X95858Y166392D01*
X95823Y166357D01*
X95764Y166310D01*
X95706Y166264D01*
X95543Y166147D01*
X95321Y166019D01*
X95065Y165867D01*
X94773Y165716D01*
X94423Y165576D01*
X94412D01*
X94377Y165564D01*
X94330Y165541D01*
X94260Y165518D01*
X94167Y165494D01*
X94062Y165459D01*
X93945Y165424D01*
X93817Y165389D01*
X93526Y165319D01*
X93187Y165261D01*
X92838Y165214D01*
X92465Y165203D01*
X92336D01*
X92255Y165214D01*
X92138D01*
X92010Y165226D01*
X91870Y165249D01*
X91707Y165273D01*
X91369Y165331D01*
X90995Y165424D01*
X90611Y165552D01*
X90436Y165634D01*
X90249Y165727D01*
X90237Y165739D01*
X90214Y165751D01*
X90156Y165786D01*
X90098Y165832D01*
X90016Y165879D01*
X89934Y165949D01*
X89829Y166031D01*
X89724Y166124D01*
X89491Y166334D01*
X89258Y166602D01*
X89037Y166905D01*
X88838Y167255D01*
Y167267D01*
X88815Y167301D01*
X88792Y167360D01*
X88768Y167430D01*
X88733Y167523D01*
X88687Y167628D01*
X88652Y167756D01*
X88605Y167896D01*
X88558Y168048D01*
X88524Y168223D01*
X88442Y168584D01*
X88395Y168981D01*
X88372Y169412D01*
Y169424D01*
Y169470D01*
Y169540D01*
X88384Y169622D01*
Y169738D01*
X88395Y169867D01*
X88419Y170007D01*
X88442Y170170D01*
X88500Y170508D01*
X88593Y170893D01*
X88722Y171278D01*
X88803Y171464D01*
X88897Y171651D01*
X88908Y171662D01*
X88920Y171697D01*
X88955Y171744D01*
X88990Y171814D01*
X89048Y171896D01*
X89118Y171989D01*
X89200Y172094D01*
X89281Y172210D01*
X89386Y172327D01*
X89503Y172455D01*
X89631Y172583D01*
X89771Y172712D01*
X89923Y172828D01*
X90074Y172957D01*
X90436Y173167D01*
X90447D01*
X90471Y173190D01*
X90517Y173202D01*
X90576Y173237D01*
X90657Y173260D01*
X90739Y173295D01*
X90855Y173330D01*
X90972Y173376D01*
X91100Y173411D01*
X91252Y173446D01*
X91415Y173481D01*
X91578Y173516D01*
X91952Y173563D01*
X92371Y173575D01*
X92511D01*
X92616Y173563D01*
D02*
G37*
G36*
X85865Y165354D02*
X84104D01*
X82519Y171382D01*
X80910Y165354D01*
X79137D01*
X77225Y173423D01*
X78892D01*
X80105Y167873D01*
X81574Y173423D01*
X83533D01*
X84932Y167780D01*
X86168Y173423D01*
X87812D01*
X85865Y165354D01*
D02*
G37*
G36*
X99659Y173458D02*
X99752D01*
X99857Y173446D01*
X99974Y173423D01*
X100113Y173388D01*
X100253Y173353D01*
X100417Y173295D01*
X100580Y173237D01*
X100743Y173155D01*
X100918Y173062D01*
X101081Y172957D01*
X101244Y172828D01*
X101408Y172677D01*
X101559Y172514D01*
X101571Y172502D01*
X101594Y172467D01*
X101629Y172409D01*
X101688Y172327D01*
X101746Y172222D01*
X101816Y172094D01*
X101886Y171942D01*
X101956Y171767D01*
X102026Y171557D01*
X102107Y171324D01*
X102166Y171068D01*
X102224Y170788D01*
X102282Y170473D01*
X102317Y170135D01*
X102340Y169773D01*
X102352Y169377D01*
Y169365D01*
Y169354D01*
Y169319D01*
Y169284D01*
Y169167D01*
X102340Y169016D01*
X102329Y168829D01*
X102306Y168619D01*
X102282Y168398D01*
X102247Y168153D01*
X102201Y167885D01*
X102154Y167628D01*
X102084Y167360D01*
X102002Y167092D01*
X101909Y166847D01*
X101793Y166602D01*
X101676Y166380D01*
X101524Y166182D01*
X101513Y166171D01*
X101489Y166136D01*
X101443Y166089D01*
X101373Y166031D01*
X101291Y165961D01*
X101198Y165867D01*
X101081Y165786D01*
X100953Y165692D01*
X100813Y165599D01*
X100650Y165518D01*
X100475Y165436D01*
X100288Y165354D01*
X100078Y165296D01*
X99869Y165249D01*
X99647Y165214D01*
X99402Y165203D01*
X99309D01*
X99251Y165214D01*
X99169D01*
X99076Y165226D01*
X98854Y165261D01*
X98609Y165331D01*
X98365Y165413D01*
X98108Y165541D01*
X97991Y165611D01*
X97875Y165704D01*
X97863Y165716D01*
X97851Y165727D01*
X97816Y165762D01*
X97781Y165797D01*
X97735Y165856D01*
X97676Y165914D01*
X97630Y165996D01*
X97560Y166077D01*
X97502Y166182D01*
X97432Y166287D01*
X97373Y166415D01*
X97315Y166555D01*
X97257Y166695D01*
X97210Y166858D01*
X97163Y167022D01*
X97128Y167208D01*
X98621Y167383D01*
Y167360D01*
X98633Y167301D01*
X98644Y167220D01*
X98679Y167127D01*
X98714Y167010D01*
X98761Y166893D01*
X98819Y166788D01*
X98901Y166695D01*
X98913Y166683D01*
X98948Y166660D01*
X98994Y166625D01*
X99064Y166590D01*
X99157Y166555D01*
X99251Y166520D01*
X99379Y166497D01*
X99507Y166485D01*
X99531D01*
X99589Y166497D01*
X99670Y166509D01*
X99787Y166544D01*
X99915Y166590D01*
X100043Y166672D01*
X100183Y166777D01*
X100312Y166917D01*
X100323Y166940D01*
X100347Y166963D01*
X100370Y167010D01*
X100393Y167057D01*
X100428Y167127D01*
X100452Y167208D01*
X100498Y167313D01*
X100533Y167430D01*
X100568Y167558D01*
X100603Y167710D01*
X100638Y167873D01*
X100673Y168059D01*
X100697Y168269D01*
X100720Y168502D01*
X100743Y168747D01*
X100732Y168736D01*
X100720Y168724D01*
X100685Y168689D01*
X100638Y168642D01*
X100580Y168596D01*
X100510Y168537D01*
X100347Y168409D01*
X100137Y168281D01*
X99880Y168176D01*
X99740Y168129D01*
X99600Y168106D01*
X99449Y168083D01*
X99286Y168071D01*
X99192D01*
X99122Y168083D01*
X99041Y168094D01*
X98948Y168106D01*
X98726Y168164D01*
X98469Y168246D01*
X98341Y168316D01*
X98201Y168386D01*
X98061Y168467D01*
X97921Y168561D01*
X97781Y168677D01*
X97653Y168806D01*
X97642Y168817D01*
X97618Y168841D01*
X97595Y168887D01*
X97548Y168934D01*
X97490Y169016D01*
X97432Y169097D01*
X97373Y169202D01*
X97315Y169319D01*
X97245Y169447D01*
X97187Y169599D01*
X97128Y169750D01*
X97070Y169925D01*
X97024Y170100D01*
X97000Y170298D01*
X96977Y170508D01*
X96965Y170718D01*
Y170730D01*
Y170776D01*
Y170835D01*
X96977Y170928D01*
X96989Y171033D01*
X97000Y171149D01*
X97024Y171289D01*
X97059Y171429D01*
X97140Y171744D01*
X97198Y171919D01*
X97268Y172082D01*
X97350Y172245D01*
X97455Y172409D01*
X97560Y172560D01*
X97688Y172712D01*
X97700Y172723D01*
X97723Y172747D01*
X97758Y172782D01*
X97816Y172828D01*
X97898Y172887D01*
X97980Y172957D01*
X98085Y173015D01*
X98201Y173097D01*
X98318Y173167D01*
X98469Y173225D01*
X98621Y173295D01*
X98784Y173353D01*
X98959Y173400D01*
X99146Y173435D01*
X99332Y173458D01*
X99542Y173470D01*
X99600D01*
X99659Y173458D01*
D02*
G37*
G36*
X114922Y172199D02*
X114910Y172187D01*
X114887Y172164D01*
X114852Y172129D01*
X114805Y172082D01*
X114747Y172012D01*
X114677Y171931D01*
X114595Y171837D01*
X114502Y171721D01*
X114409Y171592D01*
X114304Y171452D01*
X114187Y171301D01*
X114070Y171138D01*
X113954Y170951D01*
X113837Y170765D01*
X113709Y170555D01*
X113581Y170333D01*
X113569Y170322D01*
X113546Y170275D01*
X113511Y170217D01*
X113464Y170123D01*
X113418Y170018D01*
X113348Y169878D01*
X113278Y169727D01*
X113196Y169564D01*
X113114Y169377D01*
X113033Y169179D01*
X112940Y168969D01*
X112858Y168747D01*
X112695Y168269D01*
X112543Y167768D01*
Y167756D01*
X112531Y167710D01*
X112508Y167640D01*
X112485Y167535D01*
X112461Y167418D01*
X112438Y167290D01*
X112403Y167127D01*
X112368Y166963D01*
X112333Y166777D01*
X112310Y166590D01*
X112251Y166182D01*
X112217Y165762D01*
X112205Y165354D01*
X110712D01*
Y165378D01*
Y165424D01*
X110724Y165518D01*
Y165646D01*
X110736Y165797D01*
X110759Y165972D01*
X110782Y166182D01*
X110817Y166404D01*
X110852Y166649D01*
X110899Y166917D01*
X110957Y167197D01*
X111016Y167500D01*
X111097Y167803D01*
X111179Y168118D01*
X111284Y168432D01*
X111400Y168759D01*
X111412Y168782D01*
X111435Y168841D01*
X111470Y168934D01*
X111517Y169051D01*
X111587Y169202D01*
X111669Y169389D01*
X111762Y169587D01*
X111867Y169808D01*
X111983Y170042D01*
X112112Y170287D01*
X112251Y170555D01*
X112415Y170811D01*
X112753Y171359D01*
X113138Y171884D01*
X109628D01*
Y173318D01*
X114922D01*
Y172199D01*
D02*
G37*
G36*
X107308Y165354D02*
X105757D01*
Y171196D01*
X105745Y171184D01*
X105722Y171161D01*
X105675Y171126D01*
X105605Y171068D01*
X105524Y170998D01*
X105430Y170928D01*
X105314Y170846D01*
X105186Y170753D01*
X105046Y170660D01*
X104894Y170566D01*
X104731Y170461D01*
X104556Y170368D01*
X104183Y170193D01*
X103763Y170030D01*
Y171429D01*
X103775D01*
X103786Y171441D01*
X103821Y171452D01*
X103868Y171464D01*
X103985Y171522D01*
X104148Y171592D01*
X104346Y171686D01*
X104568Y171814D01*
X104813Y171977D01*
X105069Y172164D01*
X105081Y172175D01*
X105104Y172187D01*
X105139Y172222D01*
X105186Y172269D01*
X105314Y172385D01*
X105454Y172537D01*
X105617Y172723D01*
X105780Y172957D01*
X105932Y173202D01*
X106048Y173470D01*
X107308D01*
Y165354D01*
D02*
G37*
G36*
X76409D02*
X74858D01*
Y171208D01*
X76409D01*
Y165354D01*
D02*
G37*
G36*
X88263Y151462D02*
X87675D01*
Y152133D01*
X88263D01*
Y151462D01*
D02*
G37*
G36*
X80243Y152209D02*
X80292D01*
X80423Y152196D01*
X80568Y152175D01*
X80721Y152140D01*
X80887Y152099D01*
X81039Y152043D01*
X81046D01*
X81060Y152036D01*
X81081Y152023D01*
X81108Y152009D01*
X81177Y151974D01*
X81267Y151912D01*
X81371Y151843D01*
X81475Y151753D01*
X81572Y151649D01*
X81662Y151531D01*
Y151524D01*
X81669Y151517D01*
X81683Y151497D01*
X81696Y151476D01*
X81731Y151407D01*
X81773Y151317D01*
X81821Y151206D01*
X81856Y151075D01*
X81890Y150936D01*
X81904Y150784D01*
X81295Y150735D01*
Y150742D01*
Y150756D01*
X81288Y150777D01*
X81281Y150812D01*
X81261Y150888D01*
X81233Y150991D01*
X81191Y151102D01*
X81129Y151213D01*
X81053Y151317D01*
X80956Y151414D01*
X80942Y151420D01*
X80907Y151448D01*
X80838Y151490D01*
X80748Y151531D01*
X80631Y151573D01*
X80492Y151614D01*
X80319Y151642D01*
X80126Y151649D01*
X80029D01*
X79987Y151642D01*
X79932Y151635D01*
X79807Y151621D01*
X79669Y151593D01*
X79530Y151559D01*
X79399Y151504D01*
X79344Y151469D01*
X79288Y151434D01*
X79274Y151427D01*
X79247Y151400D01*
X79205Y151351D01*
X79164Y151296D01*
X79115Y151220D01*
X79074Y151137D01*
X79046Y151040D01*
X79032Y150929D01*
Y150915D01*
Y150888D01*
X79039Y150839D01*
X79053Y150784D01*
X79074Y150715D01*
X79108Y150645D01*
X79150Y150576D01*
X79212Y150507D01*
X79219Y150500D01*
X79254Y150479D01*
X79281Y150459D01*
X79309Y150445D01*
X79351Y150424D01*
X79399Y150396D01*
X79461Y150376D01*
X79530Y150348D01*
X79607Y150320D01*
X79697Y150286D01*
X79793Y150258D01*
X79904Y150223D01*
X80029Y150196D01*
X80167Y150161D01*
X80174D01*
X80202Y150154D01*
X80243Y150147D01*
X80292Y150133D01*
X80354Y150120D01*
X80430Y150099D01*
X80506Y150078D01*
X80589Y150057D01*
X80769Y150009D01*
X80942Y149960D01*
X81025Y149933D01*
X81101Y149905D01*
X81170Y149884D01*
X81226Y149857D01*
X81233D01*
X81247Y149850D01*
X81267Y149836D01*
X81295Y149822D01*
X81371Y149780D01*
X81461Y149725D01*
X81565Y149649D01*
X81669Y149566D01*
X81766Y149469D01*
X81849Y149365D01*
X81856Y149351D01*
X81883Y149317D01*
X81911Y149255D01*
X81952Y149171D01*
X81987Y149075D01*
X82022Y148957D01*
X82042Y148826D01*
X82049Y148687D01*
Y148680D01*
Y148673D01*
Y148653D01*
Y148625D01*
X82035Y148549D01*
X82022Y148452D01*
X81994Y148341D01*
X81959Y148223D01*
X81904Y148099D01*
X81828Y147968D01*
Y147960D01*
X81821Y147954D01*
X81786Y147912D01*
X81738Y147850D01*
X81669Y147781D01*
X81579Y147698D01*
X81468Y147608D01*
X81344Y147525D01*
X81198Y147449D01*
X81191D01*
X81177Y147441D01*
X81157Y147435D01*
X81129Y147421D01*
X81087Y147407D01*
X81039Y147386D01*
X80928Y147359D01*
X80797Y147324D01*
X80638Y147289D01*
X80465Y147268D01*
X80278Y147262D01*
X80167D01*
X80112Y147268D01*
X80050D01*
X79980Y147275D01*
X79897Y147282D01*
X79724Y147310D01*
X79544Y147338D01*
X79364Y147386D01*
X79191Y147449D01*
X79185D01*
X79171Y147455D01*
X79150Y147469D01*
X79122Y147483D01*
X79039Y147525D01*
X78942Y147587D01*
X78831Y147670D01*
X78714Y147767D01*
X78603Y147884D01*
X78499Y148016D01*
Y148023D01*
X78486Y148037D01*
X78479Y148057D01*
X78458Y148085D01*
X78444Y148120D01*
X78423Y148161D01*
X78375Y148265D01*
X78326Y148397D01*
X78285Y148542D01*
X78257Y148708D01*
X78243Y148881D01*
X78838Y148936D01*
Y148929D01*
Y148922D01*
X78845Y148902D01*
Y148874D01*
X78859Y148812D01*
X78880Y148722D01*
X78908Y148632D01*
X78935Y148528D01*
X78984Y148431D01*
X79032Y148341D01*
X79039Y148334D01*
X79060Y148307D01*
X79094Y148258D01*
X79150Y148210D01*
X79219Y148147D01*
X79295Y148085D01*
X79399Y148023D01*
X79510Y147968D01*
X79517D01*
X79523Y147960D01*
X79544Y147954D01*
X79565Y147947D01*
X79634Y147926D01*
X79724Y147898D01*
X79835Y147871D01*
X79959Y147850D01*
X80098Y147836D01*
X80250Y147829D01*
X80312D01*
X80382Y147836D01*
X80465Y147843D01*
X80562Y147857D01*
X80672Y147871D01*
X80783Y147898D01*
X80887Y147933D01*
X80901Y147940D01*
X80935Y147954D01*
X80984Y147981D01*
X81046Y148009D01*
X81108Y148057D01*
X81177Y148106D01*
X81247Y148161D01*
X81302Y148230D01*
X81309Y148237D01*
X81323Y148265D01*
X81344Y148300D01*
X81371Y148355D01*
X81399Y148410D01*
X81420Y148479D01*
X81433Y148556D01*
X81440Y148639D01*
Y148646D01*
Y148680D01*
X81433Y148722D01*
X81427Y148777D01*
X81406Y148832D01*
X81385Y148902D01*
X81350Y148971D01*
X81302Y149033D01*
X81295Y149040D01*
X81274Y149061D01*
X81247Y149089D01*
X81198Y149130D01*
X81143Y149171D01*
X81067Y149220D01*
X80977Y149268D01*
X80873Y149310D01*
X80866Y149317D01*
X80831Y149324D01*
X80776Y149345D01*
X80741Y149351D01*
X80693Y149365D01*
X80645Y149386D01*
X80582Y149400D01*
X80513Y149421D01*
X80430Y149441D01*
X80347Y149462D01*
X80250Y149490D01*
X80139Y149518D01*
X80022Y149545D01*
X80015D01*
X79994Y149552D01*
X79959Y149559D01*
X79918Y149573D01*
X79863Y149587D01*
X79800Y149601D01*
X79662Y149642D01*
X79510Y149690D01*
X79351Y149739D01*
X79212Y149787D01*
X79150Y149815D01*
X79094Y149843D01*
X79088D01*
X79081Y149850D01*
X79039Y149877D01*
X78977Y149912D01*
X78908Y149967D01*
X78825Y150030D01*
X78742Y150106D01*
X78658Y150196D01*
X78589Y150293D01*
X78582Y150306D01*
X78562Y150341D01*
X78534Y150396D01*
X78506Y150466D01*
X78479Y150556D01*
X78451Y150659D01*
X78430Y150770D01*
X78423Y150888D01*
Y150895D01*
Y150901D01*
Y150922D01*
Y150950D01*
X78437Y151019D01*
X78451Y151109D01*
X78472Y151213D01*
X78506Y151331D01*
X78555Y151448D01*
X78624Y151566D01*
Y151573D01*
X78631Y151580D01*
X78665Y151621D01*
X78714Y151677D01*
X78776Y151746D01*
X78859Y151822D01*
X78963Y151905D01*
X79088Y151981D01*
X79226Y152050D01*
X79233D01*
X79247Y152057D01*
X79268Y152064D01*
X79295Y152078D01*
X79330Y152092D01*
X79378Y152106D01*
X79482Y152133D01*
X79614Y152161D01*
X79766Y152189D01*
X79925Y152209D01*
X80105Y152216D01*
X80195D01*
X80243Y152209D01*
D02*
G37*
G36*
X92526Y150888D02*
X92568D01*
X92623Y150881D01*
X92755Y150860D01*
X92900Y150825D01*
X93052Y150770D01*
X93204Y150701D01*
X93350Y150604D01*
X93357D01*
X93363Y150590D01*
X93405Y150549D01*
X93467Y150486D01*
X93543Y150396D01*
X93620Y150286D01*
X93696Y150147D01*
X93765Y149988D01*
X93813Y149801D01*
X93239Y149711D01*
Y149718D01*
X93232Y149725D01*
X93225Y149767D01*
X93204Y149829D01*
X93170Y149905D01*
X93135Y149988D01*
X93080Y150078D01*
X93018Y150161D01*
X92948Y150230D01*
X92941Y150237D01*
X92914Y150258D01*
X92865Y150286D01*
X92810Y150320D01*
X92734Y150355D01*
X92651Y150382D01*
X92554Y150403D01*
X92450Y150410D01*
X92409D01*
X92374Y150403D01*
X92298Y150396D01*
X92194Y150369D01*
X92083Y150334D01*
X91959Y150279D01*
X91841Y150196D01*
X91786Y150147D01*
X91730Y150092D01*
Y150085D01*
X91717Y150078D01*
X91703Y150057D01*
X91689Y150030D01*
X91668Y149995D01*
X91640Y149953D01*
X91620Y149905D01*
X91592Y149850D01*
X91564Y149780D01*
X91544Y149704D01*
X91516Y149621D01*
X91495Y149531D01*
X91481Y149434D01*
X91467Y149324D01*
X91454Y149206D01*
Y149082D01*
Y149075D01*
Y149054D01*
Y149012D01*
X91461Y148971D01*
Y148909D01*
X91467Y148846D01*
X91488Y148694D01*
X91516Y148528D01*
X91564Y148355D01*
X91627Y148203D01*
X91668Y148127D01*
X91717Y148064D01*
X91730Y148050D01*
X91765Y148016D01*
X91827Y147968D01*
X91903Y147912D01*
X92007Y147850D01*
X92125Y147801D01*
X92263Y147767D01*
X92339Y147760D01*
X92415Y147753D01*
X92429D01*
X92471Y147760D01*
X92540Y147767D01*
X92616Y147781D01*
X92706Y147801D01*
X92803Y147843D01*
X92900Y147891D01*
X92990Y147960D01*
X93004Y147968D01*
X93024Y148002D01*
X93066Y148050D01*
X93114Y148127D01*
X93163Y148217D01*
X93218Y148327D01*
X93260Y148466D01*
X93287Y148618D01*
X93869Y148542D01*
Y148535D01*
X93862Y148514D01*
X93855Y148486D01*
X93848Y148445D01*
X93834Y148390D01*
X93820Y148334D01*
X93772Y148196D01*
X93709Y148050D01*
X93620Y147891D01*
X93509Y147739D01*
X93447Y147670D01*
X93377Y147601D01*
X93370Y147594D01*
X93357Y147587D01*
X93336Y147573D01*
X93308Y147552D01*
X93274Y147525D01*
X93225Y147497D01*
X93170Y147469D01*
X93114Y147435D01*
X92976Y147372D01*
X92810Y147324D01*
X92630Y147282D01*
X92526Y147275D01*
X92422Y147268D01*
X92353D01*
X92305Y147275D01*
X92242Y147282D01*
X92173Y147296D01*
X92097Y147310D01*
X92014Y147324D01*
X91827Y147379D01*
X91737Y147421D01*
X91640Y147462D01*
X91544Y147518D01*
X91454Y147580D01*
X91364Y147649D01*
X91281Y147732D01*
X91274Y147739D01*
X91260Y147753D01*
X91239Y147781D01*
X91211Y147815D01*
X91184Y147864D01*
X91142Y147926D01*
X91108Y147995D01*
X91066Y148071D01*
X91025Y148161D01*
X90990Y148265D01*
X90948Y148369D01*
X90921Y148493D01*
X90893Y148618D01*
X90872Y148763D01*
X90859Y148909D01*
X90852Y149068D01*
Y149075D01*
Y149095D01*
Y149123D01*
Y149165D01*
X90859Y149213D01*
Y149268D01*
X90865Y149331D01*
X90872Y149400D01*
X90893Y149552D01*
X90928Y149718D01*
X90969Y149884D01*
X91031Y150050D01*
Y150057D01*
X91038Y150071D01*
X91052Y150092D01*
X91066Y150120D01*
X91108Y150196D01*
X91170Y150286D01*
X91253Y150390D01*
X91350Y150493D01*
X91467Y150597D01*
X91599Y150680D01*
X91606D01*
X91620Y150687D01*
X91640Y150701D01*
X91668Y150715D01*
X91703Y150728D01*
X91744Y150749D01*
X91848Y150791D01*
X91966Y150825D01*
X92111Y150860D01*
X92263Y150888D01*
X92429Y150895D01*
X92485D01*
X92526Y150888D01*
D02*
G37*
G36*
X72894Y149144D02*
X74160Y147345D01*
X73441D01*
X72721Y148417D01*
X72555Y148673D01*
X71621Y147345D01*
X70908D01*
X72175Y149144D01*
X71005Y150819D01*
X71725D01*
X72271Y149995D01*
X72278Y149988D01*
X72299Y149960D01*
X72327Y149912D01*
X72361Y149864D01*
X72396Y149801D01*
X72438Y149739D01*
X72479Y149677D01*
X72514Y149614D01*
X72521Y149621D01*
X72541Y149649D01*
X72569Y149690D01*
X72603Y149739D01*
X72645Y149801D01*
X72687Y149864D01*
X72777Y149995D01*
X73365Y150819D01*
X74077D01*
X72894Y149144D01*
D02*
G37*
G36*
X86084Y147345D02*
X85482D01*
X84928Y149421D01*
X84790Y150016D01*
X84091Y147345D01*
X83468D01*
X82416Y150819D01*
X83032D01*
X83586Y148812D01*
X83779Y148064D01*
Y148071D01*
X83786Y148085D01*
X83793Y148120D01*
X83800Y148141D01*
X83807Y148175D01*
X83814Y148217D01*
X83828Y148265D01*
X83842Y148320D01*
X83862Y148390D01*
X83883Y148466D01*
X83904Y148556D01*
X83932Y148659D01*
X83959Y148777D01*
X84513Y150819D01*
X85115D01*
X85634Y148798D01*
X85807Y148134D01*
X86008Y148805D01*
X86603Y150819D01*
X87177D01*
X86084Y147345D01*
D02*
G37*
G36*
X94962Y150417D02*
X94969Y150424D01*
X94983Y150438D01*
X95004Y150459D01*
X95038Y150493D01*
X95073Y150528D01*
X95121Y150569D01*
X95183Y150611D01*
X95246Y150659D01*
X95315Y150701D01*
X95391Y150742D01*
X95571Y150819D01*
X95668Y150853D01*
X95772Y150874D01*
X95882Y150888D01*
X95993Y150895D01*
X96055D01*
X96131Y150888D01*
X96222Y150874D01*
X96325Y150860D01*
X96436Y150832D01*
X96547Y150791D01*
X96657Y150742D01*
X96671Y150735D01*
X96706Y150715D01*
X96754Y150680D01*
X96817Y150632D01*
X96879Y150569D01*
X96948Y150500D01*
X97010Y150417D01*
X97066Y150320D01*
X97073Y150306D01*
X97087Y150272D01*
X97107Y150209D01*
X97128Y150120D01*
X97149Y150009D01*
X97170Y149877D01*
X97183Y149718D01*
X97190Y149538D01*
Y147345D01*
X96602D01*
Y149545D01*
Y149552D01*
Y149566D01*
Y149587D01*
Y149614D01*
X96595Y149690D01*
X96581Y149787D01*
X96554Y149891D01*
X96519Y149995D01*
X96471Y150099D01*
X96408Y150182D01*
X96401Y150189D01*
X96374Y150216D01*
X96332Y150251D01*
X96270Y150286D01*
X96194Y150327D01*
X96104Y150355D01*
X95993Y150382D01*
X95869Y150390D01*
X95827D01*
X95779Y150382D01*
X95709Y150376D01*
X95640Y150355D01*
X95557Y150334D01*
X95474Y150300D01*
X95384Y150251D01*
X95377Y150244D01*
X95350Y150223D01*
X95308Y150196D01*
X95260Y150154D01*
X95204Y150099D01*
X95149Y150037D01*
X95100Y149960D01*
X95059Y149877D01*
X95052Y149864D01*
X95045Y149836D01*
X95031Y149780D01*
X95011Y149711D01*
X94990Y149621D01*
X94976Y149511D01*
X94969Y149386D01*
X94962Y149241D01*
Y147345D01*
X94374D01*
Y152133D01*
X94962D01*
Y150417D01*
D02*
G37*
G36*
X88263Y147345D02*
X87675D01*
Y150819D01*
X88263D01*
Y147345D01*
D02*
G37*
G36*
X70396Y151566D02*
X67566D01*
Y150106D01*
X70216D01*
Y149538D01*
X67566D01*
Y147912D01*
X70507D01*
Y147345D01*
X66929D01*
Y152133D01*
X70396D01*
Y151566D01*
D02*
G37*
G36*
X89848Y150819D02*
X90443D01*
Y150362D01*
X89848D01*
Y148320D01*
Y148307D01*
Y148279D01*
Y148237D01*
X89855Y148189D01*
X89862Y148078D01*
X89869Y148030D01*
X89876Y147995D01*
X89883Y147981D01*
X89903Y147954D01*
X89931Y147919D01*
X89980Y147884D01*
X89994Y147878D01*
X90028Y147864D01*
X90090Y147850D01*
X90180Y147843D01*
X90250D01*
X90284Y147850D01*
X90333D01*
X90388Y147857D01*
X90443Y147864D01*
X90519Y147345D01*
X90506D01*
X90478Y147338D01*
X90429Y147331D01*
X90367Y147324D01*
X90298Y147310D01*
X90222Y147303D01*
X90070Y147296D01*
X90014D01*
X89959Y147303D01*
X89890Y147310D01*
X89807Y147317D01*
X89724Y147338D01*
X89648Y147359D01*
X89571Y147393D01*
X89564Y147400D01*
X89544Y147414D01*
X89516Y147435D01*
X89474Y147469D01*
X89440Y147504D01*
X89398Y147552D01*
X89357Y147601D01*
X89329Y147663D01*
Y147670D01*
X89315Y147698D01*
X89308Y147746D01*
X89295Y147815D01*
X89281Y147905D01*
X89274Y147960D01*
Y148023D01*
X89267Y148099D01*
X89260Y148175D01*
Y148258D01*
Y148355D01*
Y150362D01*
X88824D01*
Y150819D01*
X89260D01*
Y151677D01*
X89848Y152030D01*
Y150819D01*
D02*
G37*
G36*
X75344D02*
X75939D01*
Y150362D01*
X75344D01*
Y148320D01*
Y148307D01*
Y148279D01*
Y148237D01*
X75351Y148189D01*
X75358Y148078D01*
X75365Y148030D01*
X75371Y147995D01*
X75378Y147981D01*
X75399Y147954D01*
X75427Y147919D01*
X75475Y147884D01*
X75489Y147878D01*
X75524Y147864D01*
X75586Y147850D01*
X75676Y147843D01*
X75745D01*
X75780Y147850D01*
X75828D01*
X75884Y147857D01*
X75939Y147864D01*
X76015Y147345D01*
X76001D01*
X75974Y147338D01*
X75925Y147331D01*
X75863Y147324D01*
X75794Y147310D01*
X75718Y147303D01*
X75565Y147296D01*
X75510D01*
X75455Y147303D01*
X75385Y147310D01*
X75302Y147317D01*
X75219Y147338D01*
X75143Y147359D01*
X75067Y147393D01*
X75060Y147400D01*
X75039Y147414D01*
X75012Y147435D01*
X74970Y147469D01*
X74936Y147504D01*
X74894Y147552D01*
X74853Y147601D01*
X74825Y147663D01*
Y147670D01*
X74811Y147698D01*
X74804Y147746D01*
X74790Y147815D01*
X74776Y147905D01*
X74770Y147960D01*
Y148023D01*
X74763Y148099D01*
X74756Y148175D01*
Y148258D01*
Y148355D01*
Y150362D01*
X74320D01*
Y150819D01*
X74756D01*
Y151677D01*
X75344Y152030D01*
Y150819D01*
D02*
G37*
G36*
X89149Y159449D02*
X89225Y159435D01*
X89315Y159407D01*
X89412Y159372D01*
X89523Y159324D01*
X89641Y159262D01*
X89426Y158722D01*
X89419Y158729D01*
X89391Y158743D01*
X89350Y158763D01*
X89295Y158784D01*
X89232Y158805D01*
X89156Y158826D01*
X89080Y158840D01*
X89004Y158846D01*
X88969D01*
X88935Y158840D01*
X88886Y158833D01*
X88838Y158819D01*
X88776Y158798D01*
X88713Y158770D01*
X88658Y158729D01*
X88651Y158722D01*
X88630Y158708D01*
X88609Y158680D01*
X88575Y158646D01*
X88540Y158597D01*
X88506Y158542D01*
X88471Y158480D01*
X88443Y158404D01*
X88437Y158390D01*
X88430Y158348D01*
X88416Y158286D01*
X88395Y158203D01*
X88374Y158099D01*
X88360Y157982D01*
X88353Y157857D01*
X88346Y157719D01*
Y155905D01*
X87758D01*
Y159379D01*
X88291D01*
Y158853D01*
X88298Y158860D01*
X88326Y158909D01*
X88360Y158971D01*
X88416Y159047D01*
X88471Y159123D01*
X88533Y159206D01*
X88596Y159275D01*
X88658Y159331D01*
X88665Y159338D01*
X88686Y159352D01*
X88727Y159372D01*
X88769Y159393D01*
X88824Y159414D01*
X88893Y159435D01*
X88962Y159449D01*
X89038Y159455D01*
X89087D01*
X89149Y159449D01*
D02*
G37*
G36*
X72603Y157345D02*
X70784D01*
Y157933D01*
X72603D01*
Y157345D01*
D02*
G37*
G36*
X82215Y155850D02*
Y155843D01*
X82209Y155822D01*
X82195Y155795D01*
X82181Y155760D01*
X82160Y155712D01*
X82139Y155656D01*
X82091Y155539D01*
X82042Y155407D01*
X81987Y155276D01*
X81932Y155158D01*
X81904Y155110D01*
X81883Y155061D01*
X81876Y155047D01*
X81856Y155013D01*
X81821Y154964D01*
X81779Y154902D01*
X81724Y154833D01*
X81662Y154764D01*
X81599Y154694D01*
X81523Y154639D01*
X81516Y154632D01*
X81489Y154618D01*
X81447Y154598D01*
X81385Y154570D01*
X81316Y154542D01*
X81233Y154522D01*
X81143Y154508D01*
X81039Y154501D01*
X81011D01*
X80977Y154508D01*
X80928D01*
X80873Y154522D01*
X80811Y154535D01*
X80741Y154549D01*
X80665Y154577D01*
X80603Y155123D01*
X80610D01*
X80638Y155117D01*
X80672Y155110D01*
X80714Y155096D01*
X80825Y155075D01*
X80935Y155068D01*
X80970D01*
X81004Y155075D01*
X81046D01*
X81150Y155096D01*
X81198Y155117D01*
X81247Y155137D01*
X81253D01*
X81267Y155151D01*
X81288Y155165D01*
X81316Y155186D01*
X81378Y155241D01*
X81433Y155317D01*
Y155324D01*
X81447Y155338D01*
X81461Y155366D01*
X81475Y155407D01*
X81503Y155463D01*
X81530Y155546D01*
X81572Y155642D01*
X81613Y155760D01*
Y155767D01*
X81627Y155795D01*
X81641Y155843D01*
X81669Y155905D01*
X80354Y159379D01*
X80977D01*
X81703Y157366D01*
Y157359D01*
X81710Y157352D01*
X81717Y157331D01*
X81724Y157296D01*
X81738Y157262D01*
X81752Y157220D01*
X81786Y157123D01*
X81828Y157006D01*
X81869Y156867D01*
X81911Y156722D01*
X81952Y156563D01*
Y156570D01*
X81959Y156584D01*
X81966Y156604D01*
X81973Y156632D01*
X81980Y156667D01*
X81994Y156708D01*
X82022Y156812D01*
X82056Y156930D01*
X82105Y157068D01*
X82146Y157206D01*
X82202Y157352D01*
X82949Y159379D01*
X83537D01*
X82215Y155850D01*
D02*
G37*
G36*
X78589Y159449D02*
X78693Y159442D01*
X78811Y159428D01*
X78928Y159407D01*
X79046Y159379D01*
X79157Y159345D01*
X79171Y159338D01*
X79205Y159324D01*
X79254Y159303D01*
X79316Y159275D01*
X79385Y159234D01*
X79454Y159193D01*
X79517Y159137D01*
X79572Y159082D01*
X79579Y159075D01*
X79593Y159054D01*
X79614Y159019D01*
X79641Y158978D01*
X79676Y158916D01*
X79703Y158853D01*
X79731Y158777D01*
X79752Y158687D01*
Y158680D01*
X79759Y158660D01*
X79766Y158618D01*
X79773Y158563D01*
Y158487D01*
X79780Y158397D01*
X79786Y158279D01*
Y158148D01*
Y157359D01*
Y157352D01*
Y157324D01*
Y157283D01*
Y157227D01*
Y157165D01*
Y157089D01*
X79793Y156923D01*
Y156750D01*
X79800Y156577D01*
X79807Y156501D01*
Y156431D01*
X79814Y156369D01*
X79821Y156321D01*
Y156314D01*
X79828Y156286D01*
X79835Y156245D01*
X79856Y156189D01*
X79870Y156127D01*
X79897Y156058D01*
X79932Y155982D01*
X79966Y155905D01*
X79351D01*
X79344Y155912D01*
X79337Y155940D01*
X79323Y155975D01*
X79302Y156030D01*
X79281Y156092D01*
X79268Y156168D01*
X79254Y156252D01*
X79240Y156341D01*
X79233D01*
X79226Y156328D01*
X79185Y156293D01*
X79122Y156245D01*
X79039Y156182D01*
X78935Y156120D01*
X78831Y156051D01*
X78721Y155989D01*
X78603Y155940D01*
X78589Y155933D01*
X78548Y155926D01*
X78486Y155905D01*
X78409Y155885D01*
X78312Y155864D01*
X78202Y155850D01*
X78077Y155836D01*
X77953Y155829D01*
X77897D01*
X77856Y155836D01*
X77807D01*
X77752Y155843D01*
X77627Y155864D01*
X77489Y155899D01*
X77337Y155947D01*
X77198Y156016D01*
X77074Y156106D01*
X77060Y156120D01*
X77025Y156155D01*
X76977Y156217D01*
X76922Y156300D01*
X76866Y156404D01*
X76818Y156521D01*
X76783Y156667D01*
X76776Y156736D01*
X76769Y156819D01*
Y156833D01*
Y156860D01*
X76776Y156909D01*
X76783Y156971D01*
X76797Y157047D01*
X76818Y157123D01*
X76846Y157206D01*
X76880Y157283D01*
X76887Y157290D01*
X76901Y157317D01*
X76929Y157359D01*
X76963Y157407D01*
X77005Y157463D01*
X77060Y157518D01*
X77115Y157573D01*
X77185Y157622D01*
X77192Y157629D01*
X77219Y157642D01*
X77254Y157670D01*
X77309Y157698D01*
X77371Y157725D01*
X77447Y157760D01*
X77524Y157788D01*
X77614Y157815D01*
X77621D01*
X77648Y157822D01*
X77690Y157836D01*
X77745Y157843D01*
X77814Y157857D01*
X77904Y157871D01*
X78008Y157891D01*
X78133Y157905D01*
X78140D01*
X78167Y157912D01*
X78202D01*
X78250Y157919D01*
X78306Y157926D01*
X78375Y157940D01*
X78451Y157947D01*
X78534Y157961D01*
X78700Y157995D01*
X78880Y158030D01*
X79039Y158071D01*
X79115Y158092D01*
X79185Y158113D01*
Y158120D01*
Y158134D01*
X79191Y158175D01*
Y158224D01*
Y158251D01*
Y158265D01*
Y158272D01*
Y158279D01*
Y158321D01*
X79185Y158390D01*
X79171Y158466D01*
X79150Y158549D01*
X79115Y158632D01*
X79074Y158708D01*
X79018Y158770D01*
X79011Y158777D01*
X78977Y158805D01*
X78922Y158833D01*
X78852Y158874D01*
X78755Y158909D01*
X78645Y158943D01*
X78506Y158964D01*
X78347Y158971D01*
X78278D01*
X78209Y158964D01*
X78112Y158950D01*
X78015Y158936D01*
X77911Y158909D01*
X77814Y158874D01*
X77731Y158826D01*
X77724Y158819D01*
X77697Y158798D01*
X77662Y158763D01*
X77621Y158708D01*
X77579Y158639D01*
X77531Y158549D01*
X77489Y158438D01*
X77447Y158314D01*
X76873Y158390D01*
Y158397D01*
X76880Y158404D01*
Y158424D01*
X76887Y158452D01*
X76908Y158514D01*
X76935Y158604D01*
X76970Y158694D01*
X77012Y158791D01*
X77067Y158888D01*
X77129Y158978D01*
X77136Y158985D01*
X77164Y159013D01*
X77205Y159054D01*
X77261Y159109D01*
X77337Y159165D01*
X77427Y159220D01*
X77531Y159282D01*
X77648Y159331D01*
X77655D01*
X77662Y159338D01*
X77683Y159345D01*
X77710Y159352D01*
X77780Y159372D01*
X77877Y159393D01*
X77987Y159414D01*
X78126Y159435D01*
X78271Y159449D01*
X78437Y159455D01*
X78513D01*
X78589Y159449D01*
D02*
G37*
G36*
X73932Y156473D02*
X76292D01*
Y155905D01*
X73295D01*
Y160694D01*
X73932D01*
Y156473D01*
D02*
G37*
G36*
X69600Y157594D02*
X70251D01*
Y157054D01*
X69600D01*
Y155905D01*
X69012D01*
Y157054D01*
X66929D01*
Y157594D01*
X69123Y160694D01*
X69600D01*
Y157594D01*
D02*
G37*
G36*
X85579Y159449D02*
X85634Y159442D01*
X85703Y159428D01*
X85779Y159414D01*
X85869Y159393D01*
X85952Y159372D01*
X86049Y159338D01*
X86139Y159303D01*
X86236Y159255D01*
X86333Y159199D01*
X86430Y159137D01*
X86520Y159061D01*
X86603Y158978D01*
X86610Y158971D01*
X86624Y158957D01*
X86644Y158930D01*
X86672Y158888D01*
X86707Y158840D01*
X86741Y158784D01*
X86783Y158715D01*
X86824Y158632D01*
X86866Y158542D01*
X86907Y158445D01*
X86942Y158334D01*
X86976Y158217D01*
X87004Y158085D01*
X87025Y157947D01*
X87039Y157802D01*
X87046Y157642D01*
Y157635D01*
Y157608D01*
Y157559D01*
X87039Y157490D01*
X84444D01*
Y157483D01*
Y157463D01*
X84451Y157435D01*
Y157393D01*
X84457Y157345D01*
X84471Y157290D01*
X84492Y157165D01*
X84534Y157027D01*
X84589Y156874D01*
X84665Y156736D01*
X84762Y156611D01*
X84769D01*
X84776Y156597D01*
X84817Y156563D01*
X84880Y156514D01*
X84963Y156466D01*
X85073Y156411D01*
X85198Y156362D01*
X85336Y156328D01*
X85413Y156321D01*
X85496Y156314D01*
X85551D01*
X85613Y156321D01*
X85689Y156334D01*
X85772Y156355D01*
X85869Y156383D01*
X85959Y156424D01*
X86049Y156480D01*
X86056Y156487D01*
X86091Y156514D01*
X86132Y156556D01*
X86181Y156611D01*
X86236Y156687D01*
X86298Y156784D01*
X86361Y156895D01*
X86416Y157027D01*
X87025Y156950D01*
Y156944D01*
X87018Y156930D01*
X87011Y156902D01*
X86997Y156860D01*
X86976Y156819D01*
X86956Y156764D01*
X86900Y156646D01*
X86831Y156514D01*
X86734Y156376D01*
X86624Y156245D01*
X86485Y156120D01*
X86478D01*
X86464Y156106D01*
X86444Y156092D01*
X86416Y156072D01*
X86374Y156051D01*
X86333Y156030D01*
X86277Y156002D01*
X86215Y155975D01*
X86146Y155947D01*
X86077Y155919D01*
X85904Y155878D01*
X85710Y155843D01*
X85496Y155829D01*
X85419D01*
X85371Y155836D01*
X85309Y155843D01*
X85233Y155857D01*
X85150Y155871D01*
X85059Y155885D01*
X84866Y155940D01*
X84762Y155982D01*
X84665Y156023D01*
X84561Y156079D01*
X84464Y156141D01*
X84374Y156210D01*
X84285Y156293D01*
X84278Y156300D01*
X84264Y156314D01*
X84243Y156341D01*
X84215Y156383D01*
X84181Y156431D01*
X84146Y156487D01*
X84105Y156556D01*
X84063Y156632D01*
X84022Y156722D01*
X83980Y156819D01*
X83945Y156930D01*
X83911Y157047D01*
X83883Y157172D01*
X83862Y157310D01*
X83849Y157456D01*
X83842Y157608D01*
Y157615D01*
Y157649D01*
Y157691D01*
X83849Y157753D01*
X83855Y157829D01*
X83862Y157912D01*
X83876Y158009D01*
X83897Y158106D01*
X83952Y158327D01*
X83987Y158438D01*
X84028Y158556D01*
X84084Y158667D01*
X84146Y158770D01*
X84215Y158874D01*
X84291Y158971D01*
X84298Y158978D01*
X84312Y158992D01*
X84340Y159013D01*
X84374Y159047D01*
X84416Y159082D01*
X84471Y159123D01*
X84534Y159172D01*
X84610Y159213D01*
X84686Y159262D01*
X84776Y159303D01*
X84873Y159345D01*
X84977Y159379D01*
X85087Y159414D01*
X85205Y159435D01*
X85329Y159449D01*
X85461Y159455D01*
X85530D01*
X85579Y159449D01*
D02*
G37*
%LPC*%
G36*
X49013Y6465D02*
X47619Y6455D01*
X47595Y6431D01*
X47590Y6369D01*
X47595Y5095D01*
X47585Y5066D01*
X47595Y5037D01*
X47619Y4994D01*
X47686Y4985D01*
X47811Y4994D01*
X47840Y4985D01*
X48931Y4989D01*
X49022Y4985D01*
X49066Y5018D01*
X49075Y5086D01*
X49066Y5182D01*
Y5268D01*
Y5278D01*
X49071Y6417D01*
X49051Y6455D01*
X49013Y6465D01*
D02*
G37*
G36*
X49003Y4254D02*
X47619Y4245D01*
X47595Y4220D01*
X47585Y4153D01*
X47595Y4124D01*
X47590Y2841D01*
X47600Y2803D01*
X47619Y2783D01*
X47657Y2774D01*
X49042Y2783D01*
X49066Y2808D01*
X49075Y2846D01*
X49066Y3029D01*
Y3576D01*
Y3586D01*
X49071Y4206D01*
X49046Y4240D01*
X49003Y4254D01*
D02*
G37*
G36*
X43745Y5811D02*
X43716Y5802D01*
X43702Y5787D01*
X43692Y5768D01*
X43664Y5701D01*
X43635Y5605D01*
X43625Y5537D01*
X43616Y5499D01*
X43606Y5441D01*
X43558Y5336D01*
X43539Y5268D01*
X43529Y5201D01*
X43515Y5138D01*
X43505Y5100D01*
X43486Y5052D01*
X43452Y4970D01*
X43428Y4821D01*
X43390Y4725D01*
X43366Y4643D01*
X43346Y4528D01*
X43327Y4451D01*
X43308Y4403D01*
X43279Y4336D01*
X43260Y4259D01*
X43246Y4158D01*
X43226Y4110D01*
X43202Y4047D01*
X43183Y3971D01*
X43193Y3923D01*
X43207Y3908D01*
X43246Y3898D01*
X44236Y3908D01*
X44250Y3923D01*
X44260Y3961D01*
X44245Y4014D01*
X44226Y4062D01*
X44192Y4172D01*
X44173Y4307D01*
X44149Y4369D01*
X44130Y4417D01*
X44106Y4499D01*
X44096Y4538D01*
X44077Y4672D01*
X44067Y4711D01*
X44048Y4759D01*
X44019Y4826D01*
X44000Y4903D01*
X43976Y5042D01*
X43957Y5090D01*
X43933Y5143D01*
X43914Y5220D01*
X43909Y5244D01*
X43904Y5249D01*
X43894Y5364D01*
X43885Y5393D01*
X43837Y5499D01*
X43817Y5576D01*
X43793Y5754D01*
X43774Y5802D01*
X43745Y5811D01*
D02*
G37*
G36*
X27606Y6465D02*
X26213Y6455D01*
X26189Y6431D01*
X26179Y6364D01*
X26189Y6325D01*
X26184Y2832D01*
X26198Y2798D01*
X26222Y2774D01*
X27635Y2783D01*
X27659Y2808D01*
X27669Y2875D01*
X27659Y2942D01*
Y5979D01*
Y5989D01*
X27664Y6407D01*
X27645Y6455D01*
X27606Y6465D01*
D02*
G37*
G36*
X106522Y25466D02*
X105152D01*
Y23756D01*
X106439D01*
X106488Y23763D01*
X106536D01*
X106591Y23770D01*
X106723Y23784D01*
X106868Y23812D01*
X107014Y23853D01*
X107145Y23909D01*
X107207Y23943D01*
X107256Y23985D01*
X107270Y23999D01*
X107297Y24026D01*
X107339Y24082D01*
X107387Y24151D01*
X107436Y24241D01*
X107477Y24351D01*
X107505Y24476D01*
X107519Y24621D01*
Y24628D01*
Y24635D01*
Y24670D01*
X107512Y24732D01*
X107498Y24801D01*
X107484Y24878D01*
X107457Y24967D01*
X107415Y25051D01*
X107367Y25133D01*
X107360Y25140D01*
X107339Y25168D01*
X107304Y25203D01*
X107263Y25251D01*
X107201Y25300D01*
X107131Y25341D01*
X107055Y25383D01*
X106965Y25417D01*
X106958D01*
X106931Y25424D01*
X106889Y25431D01*
X106834Y25445D01*
X106751Y25452D01*
X106647Y25459D01*
X106522Y25466D01*
D02*
G37*
G36*
X99472Y172187D02*
X99402D01*
X99321Y172164D01*
X99227Y172140D01*
X99111Y172105D01*
X98994Y172036D01*
X98878Y171954D01*
X98761Y171837D01*
X98749Y171826D01*
X98714Y171767D01*
X98668Y171686D01*
X98621Y171569D01*
X98574Y171417D01*
X98528Y171219D01*
X98493Y170986D01*
X98481Y170718D01*
Y170706D01*
Y170683D01*
Y170648D01*
Y170590D01*
X98493Y170450D01*
X98516Y170287D01*
X98551Y170088D01*
X98609Y169902D01*
X98679Y169715D01*
X98784Y169564D01*
X98796Y169552D01*
X98843Y169505D01*
X98901Y169447D01*
X98994Y169389D01*
X99111Y169319D01*
X99239Y169260D01*
X99391Y169214D01*
X99554Y169202D01*
X99577D01*
X99624Y169214D01*
X99705Y169225D01*
X99810Y169249D01*
X99927Y169284D01*
X100055Y169354D01*
X100183Y169435D01*
X100300Y169552D01*
X100312Y169564D01*
X100347Y169622D01*
X100405Y169703D01*
X100463Y169808D01*
X100510Y169960D01*
X100568Y170135D01*
X100603Y170345D01*
X100615Y170590D01*
Y170601D01*
Y170625D01*
Y170660D01*
Y170718D01*
X100592Y170846D01*
X100568Y171021D01*
X100533Y171208D01*
X100463Y171406D01*
X100382Y171592D01*
X100265Y171767D01*
X100253Y171791D01*
X100207Y171837D01*
X100137Y171896D01*
X100043Y171977D01*
X99927Y172059D01*
X99787Y172117D01*
X99635Y172164D01*
X99472Y172187D01*
D02*
G37*
G36*
X79191Y157649D02*
X79185D01*
X79177Y157642D01*
X79157Y157635D01*
X79129Y157629D01*
X79094Y157615D01*
X79053Y157601D01*
X79005Y157587D01*
X78949Y157573D01*
X78887Y157552D01*
X78811Y157539D01*
X78735Y157518D01*
X78645Y157497D01*
X78548Y157476D01*
X78451Y157456D01*
X78340Y157442D01*
X78223Y157421D01*
X78209D01*
X78167Y157414D01*
X78098Y157400D01*
X78022Y157386D01*
X77939Y157372D01*
X77856Y157352D01*
X77780Y157331D01*
X77710Y157303D01*
X77704D01*
X77683Y157290D01*
X77655Y157276D01*
X77627Y157255D01*
X77544Y157200D01*
X77475Y157116D01*
Y157110D01*
X77461Y157096D01*
X77454Y157068D01*
X77441Y157033D01*
X77427Y156992D01*
X77413Y156950D01*
X77406Y156895D01*
X77399Y156840D01*
Y156833D01*
Y156798D01*
X77406Y156757D01*
X77420Y156701D01*
X77441Y156639D01*
X77475Y156577D01*
X77517Y156508D01*
X77572Y156445D01*
X77579Y156438D01*
X77607Y156424D01*
X77648Y156397D01*
X77704Y156369D01*
X77780Y156341D01*
X77870Y156314D01*
X77974Y156300D01*
X78098Y156293D01*
X78153D01*
X78223Y156300D01*
X78299Y156314D01*
X78396Y156328D01*
X78492Y156355D01*
X78596Y156390D01*
X78700Y156438D01*
X78714Y156445D01*
X78742Y156466D01*
X78790Y156501D01*
X78845Y156549D01*
X78908Y156604D01*
X78977Y156674D01*
X79032Y156757D01*
X79088Y156847D01*
X79094Y156853D01*
X79101Y156881D01*
X79115Y156930D01*
X79136Y156992D01*
X79157Y157075D01*
X79171Y157172D01*
X79177Y157290D01*
X79185Y157428D01*
X79191Y157649D01*
D02*
G37*
G36*
X69012Y159739D02*
X67503Y157594D01*
X69012D01*
Y159739D01*
D02*
G37*
G36*
X85468Y158971D02*
X85426D01*
X85399Y158964D01*
X85322Y158957D01*
X85233Y158936D01*
X85122Y158902D01*
X85004Y158853D01*
X84893Y158784D01*
X84783Y158694D01*
X84769Y158680D01*
X84741Y158646D01*
X84693Y158583D01*
X84644Y158501D01*
X84589Y158404D01*
X84540Y158279D01*
X84499Y158134D01*
X84478Y157975D01*
X86423D01*
Y157982D01*
Y157995D01*
X86416Y158016D01*
Y158044D01*
X86402Y158127D01*
X86381Y158217D01*
X86347Y158327D01*
X86312Y158431D01*
X86257Y158535D01*
X86194Y158625D01*
Y158632D01*
X86181Y158639D01*
X86146Y158680D01*
X86084Y158736D01*
X86001Y158798D01*
X85897Y158860D01*
X85772Y158916D01*
X85627Y158957D01*
X85551Y158964D01*
X85468Y158971D01*
D02*
G37*
%LPD*%
M02*
