G04*
G04 #@! TF.GenerationSoftware,Altium Limited,Altium NEXUS,5.1.2 (10)*
G04*
G04 Layer_Color=16711935*
%FSLAX25Y25*%
%MOIN*%
G70*
G04*
G04 #@! TF.SameCoordinates,614915EC-EFCC-4F07-BEE6-519DBFB5DABB*
G04*
G04*
G04 #@! TF.FilePolarity,Negative*
G04*
G01*
G75*
%ADD33C,0.02362*%
G04:AMPARAMS|DCode=42|XSize=27.62mil|YSize=27.62mil|CornerRadius=4.36mil|HoleSize=0mil|Usage=FLASHONLY|Rotation=90.000|XOffset=0mil|YOffset=0mil|HoleType=Round|Shape=RoundedRectangle|*
%AMROUNDEDRECTD42*
21,1,0.02762,0.01890,0,0,90.0*
21,1,0.01890,0.02762,0,0,90.0*
1,1,0.00872,0.00945,0.00945*
1,1,0.00872,0.00945,-0.00945*
1,1,0.00872,-0.00945,-0.00945*
1,1,0.00872,-0.00945,0.00945*
%
%ADD42ROUNDEDRECTD42*%
G04:AMPARAMS|DCode=51|XSize=16.6mil|YSize=18.17mil|CornerRadius=3.58mil|HoleSize=0mil|Usage=FLASHONLY|Rotation=270.000|XOffset=0mil|YOffset=0mil|HoleType=Round|Shape=RoundedRectangle|*
%AMROUNDEDRECTD51*
21,1,0.01660,0.01102,0,0,270.0*
21,1,0.00945,0.01817,0,0,270.0*
1,1,0.00715,-0.00551,-0.00472*
1,1,0.00715,-0.00551,0.00472*
1,1,0.00715,0.00551,0.00472*
1,1,0.00715,0.00551,-0.00472*
%
%ADD51ROUNDEDRECTD51*%
G04:AMPARAMS|DCode=55|XSize=16.6mil|YSize=18.17mil|CornerRadius=3.58mil|HoleSize=0mil|Usage=FLASHONLY|Rotation=180.000|XOffset=0mil|YOffset=0mil|HoleType=Round|Shape=RoundedRectangle|*
%AMROUNDEDRECTD55*
21,1,0.01660,0.01102,0,0,180.0*
21,1,0.00945,0.01817,0,0,180.0*
1,1,0.00715,-0.00472,0.00551*
1,1,0.00715,0.00472,0.00551*
1,1,0.00715,0.00472,-0.00551*
1,1,0.00715,-0.00472,-0.00551*
%
%ADD55ROUNDEDRECTD55*%
G04:AMPARAMS|DCode=57|XSize=16.6mil|YSize=17.39mil|CornerRadius=3.58mil|HoleSize=0mil|Usage=FLASHONLY|Rotation=90.000|XOffset=0mil|YOffset=0mil|HoleType=Round|Shape=RoundedRectangle|*
%AMROUNDEDRECTD57*
21,1,0.01660,0.01024,0,0,90.0*
21,1,0.00945,0.01739,0,0,90.0*
1,1,0.00715,0.00512,0.00472*
1,1,0.00715,0.00512,-0.00472*
1,1,0.00715,-0.00512,-0.00472*
1,1,0.00715,-0.00512,0.00472*
%
%ADD57ROUNDEDRECTD57*%
G04:AMPARAMS|DCode=59|XSize=27.62mil|YSize=27.62mil|CornerRadius=4.36mil|HoleSize=0mil|Usage=FLASHONLY|Rotation=0.000|XOffset=0mil|YOffset=0mil|HoleType=Round|Shape=RoundedRectangle|*
%AMROUNDEDRECTD59*
21,1,0.02762,0.01890,0,0,0.0*
21,1,0.01890,0.02762,0,0,0.0*
1,1,0.00872,0.00945,-0.00945*
1,1,0.00872,-0.00945,-0.00945*
1,1,0.00872,-0.00945,0.00945*
1,1,0.00872,0.00945,0.00945*
%
%ADD59ROUNDEDRECTD59*%
%ADD100R,0.12402X0.18110*%
%ADD101R,0.18110X0.12795*%
%ADD102C,0.04337*%
G04:AMPARAMS|DCode=103|XSize=82.68mil|YSize=33.07mil|CornerRadius=4.88mil|HoleSize=0mil|Usage=FLASHONLY|Rotation=270.000|XOffset=0mil|YOffset=0mil|HoleType=Round|Shape=RoundedRectangle|*
%AMROUNDEDRECTD103*
21,1,0.08268,0.02331,0,0,270.0*
21,1,0.07291,0.03307,0,0,270.0*
1,1,0.00976,-0.01165,-0.03646*
1,1,0.00976,-0.01165,0.03646*
1,1,0.00976,0.01165,0.03646*
1,1,0.00976,0.01165,-0.03646*
%
%ADD103ROUNDEDRECTD103*%
G04:AMPARAMS|DCode=104|XSize=66.99mil|YSize=66.99mil|CornerRadius=8.3mil|HoleSize=0mil|Usage=FLASHONLY|Rotation=90.000|XOffset=0mil|YOffset=0mil|HoleType=Round|Shape=RoundedRectangle|*
%AMROUNDEDRECTD104*
21,1,0.06699,0.05039,0,0,90.0*
21,1,0.05039,0.06699,0,0,90.0*
1,1,0.01660,0.02520,0.02520*
1,1,0.01660,0.02520,-0.02520*
1,1,0.01660,-0.02520,-0.02520*
1,1,0.01660,-0.02520,0.02520*
%
%ADD104ROUNDEDRECTD104*%
G04:AMPARAMS|DCode=105|XSize=15.81mil|YSize=27.62mil|CornerRadius=3.18mil|HoleSize=0mil|Usage=FLASHONLY|Rotation=0.000|XOffset=0mil|YOffset=0mil|HoleType=Round|Shape=RoundedRectangle|*
%AMROUNDEDRECTD105*
21,1,0.01581,0.02126,0,0,0.0*
21,1,0.00945,0.02762,0,0,0.0*
1,1,0.00636,0.00472,-0.01063*
1,1,0.00636,-0.00472,-0.01063*
1,1,0.00636,-0.00472,0.01063*
1,1,0.00636,0.00472,0.01063*
%
%ADD105ROUNDEDRECTD105*%
G04:AMPARAMS|DCode=106|XSize=37.47mil|YSize=35.5mil|CornerRadius=5.94mil|HoleSize=0mil|Usage=FLASHONLY|Rotation=180.000|XOffset=0mil|YOffset=0mil|HoleType=Round|Shape=RoundedRectangle|*
%AMROUNDEDRECTD106*
21,1,0.03747,0.02362,0,0,180.0*
21,1,0.02559,0.03550,0,0,180.0*
1,1,0.01187,-0.01280,0.01181*
1,1,0.01187,0.01280,0.01181*
1,1,0.01187,0.01280,-0.01181*
1,1,0.01187,-0.01280,-0.01181*
%
%ADD106ROUNDEDRECTD106*%
G36*
X5095Y37094D02*
Y36134D01*
Y36065D01*
X5148Y35936D01*
X5247Y35838D01*
X5376Y35784D01*
X5445D01*
D01*
X8728D01*
X8798D01*
X8926Y35838D01*
X9025Y35936D01*
X9078Y36065D01*
Y36134D01*
D01*
Y37094D01*
Y37164D01*
X9025Y37292D01*
X8926Y37391D01*
X8798Y37444D01*
X8728D01*
D01*
X5445D01*
X5376D01*
X5247Y37391D01*
X5148Y37292D01*
X5095Y37164D01*
Y37094D01*
D01*
D02*
G37*
G36*
X33378Y36001D02*
X34338D01*
X34408D01*
X34536Y36054D01*
X34635Y36152D01*
X34688Y36281D01*
Y36351D01*
D01*
Y39634D01*
Y39703D01*
X34635Y39832D01*
X34536Y39930D01*
X34408Y39983D01*
X34338D01*
D01*
X33378D01*
X33309D01*
X33180Y39930D01*
X33082Y39832D01*
X33028Y39703D01*
Y39634D01*
D01*
Y36351D01*
Y36281D01*
X33082Y36152D01*
X33180Y36054D01*
X33309Y36001D01*
X33378D01*
D01*
D02*
G37*
G36*
X44291Y93602D02*
Y90847D01*
X40354D01*
Y93602D01*
X44291D01*
D02*
G37*
G36*
X59166Y40528D02*
X60126D01*
X60195D01*
X60324Y40582D01*
X60422Y40680D01*
X60476Y40809D01*
Y40878D01*
D01*
Y44161D01*
Y44231D01*
X60422Y44359D01*
X60324Y44458D01*
X60195Y44511D01*
X60126D01*
D01*
X59166D01*
X59096D01*
X58968Y44458D01*
X58869Y44359D01*
X58816Y44231D01*
Y44161D01*
D01*
Y40878D01*
Y40809D01*
X58869Y40680D01*
X58968Y40582D01*
X59096Y40528D01*
X59166D01*
D01*
D02*
G37*
G36*
X102876Y62202D02*
X109722D01*
X109786D01*
X109904Y62250D01*
X109994Y62340D01*
X110043Y62458D01*
Y62522D01*
D01*
Y64644D01*
Y64707D01*
X109994Y64825D01*
X109904Y64915D01*
X109786Y64964D01*
X109722D01*
D01*
X102876D01*
X102812D01*
X102695Y64915D01*
X102605Y64825D01*
X102556Y64707D01*
Y64644D01*
D01*
Y62522D01*
Y62458D01*
X102605Y62340D01*
X102695Y62250D01*
X102812Y62202D01*
X102876D01*
D01*
D02*
G37*
G36*
Y73225D02*
X109722D01*
X109786D01*
X109904Y73274D01*
X109994Y73364D01*
X110043Y73482D01*
Y73545D01*
D01*
Y75667D01*
Y75731D01*
X109994Y75849D01*
X109904Y75939D01*
X109786Y75987D01*
X109722D01*
D01*
X102876D01*
X102812D01*
X102695Y75939D01*
X102605Y75849D01*
X102556Y75731D01*
Y75667D01*
D01*
Y73545D01*
Y73482D01*
X102605Y73364D01*
X102695Y73274D01*
X102812Y73225D01*
X102876D01*
D01*
D02*
G37*
G36*
X110062Y78260D02*
Y79220D01*
Y79290D01*
X110009Y79418D01*
X109911Y79517D01*
X109782Y79570D01*
X109712D01*
D01*
X106430D01*
X106360D01*
X106231Y79517D01*
X106133Y79418D01*
X106079Y79290D01*
Y79220D01*
D01*
Y78260D01*
Y78191D01*
X106133Y78062D01*
X106231Y77964D01*
X106360Y77910D01*
X106430D01*
D01*
X109712D01*
X109782D01*
X109911Y77964D01*
X110009Y78062D01*
X110062Y78191D01*
Y78260D01*
D01*
D02*
G37*
D33*
X0Y4724D02*
G03*
X4724Y0I4724J0D01*
G01*
X118110Y172441D02*
G03*
X113386Y177165I-4724J0D01*
G01*
Y0D02*
G03*
X118110Y4724I0J4724D01*
G01*
X4724Y177165D02*
G03*
X0Y172441I0J-4724D01*
G01*
X4724Y0D02*
X113386D01*
X4724Y177165D02*
X113386D01*
X118110Y4724D02*
Y172441D01*
X0Y4724D02*
Y172441D01*
D42*
X90733Y82537D02*
D03*
X87190D02*
D03*
X89370Y96457D02*
D03*
X92913D02*
D03*
X81102Y42717D02*
D03*
X77559D02*
D03*
D51*
X8169Y36614D02*
D03*
X6004D02*
D03*
X109153Y78740D02*
D03*
X106988D02*
D03*
D55*
X33858Y39075D02*
D03*
Y36909D02*
D03*
X59646Y41437D02*
D03*
Y43602D02*
D03*
D57*
X60630Y48031D02*
D03*
X58268D02*
D03*
X106890Y81299D02*
D03*
X109252D02*
D03*
D59*
X11614Y39370D02*
D03*
Y35827D02*
D03*
X87190Y78993D02*
D03*
Y82537D02*
D03*
X89370Y100000D02*
D03*
Y96457D02*
D03*
X93898Y64370D02*
D03*
Y60827D02*
D03*
X81102Y42717D02*
D03*
Y39173D02*
D03*
D100*
X49311Y61024D02*
D03*
D101*
X52165Y58366D02*
D03*
D102*
X84842Y55118D02*
D03*
X106700Y49218D02*
D03*
X97250Y67918D02*
D03*
X71930Y76978D02*
D03*
X58470Y96068D02*
D03*
X61970Y86738D02*
D03*
X101770Y58078D02*
D03*
X99210Y100198D02*
D03*
X93900Y51978D02*
D03*
X100790Y89768D02*
D03*
X92520Y34458D02*
D03*
X58270Y67328D02*
D03*
X29140Y37088D02*
D03*
X20670Y33078D02*
D03*
X71930Y86898D02*
D03*
X58270Y77568D02*
D03*
X66730Y44488D02*
D03*
X68310Y97958D02*
D03*
X100790Y79528D02*
D03*
X66930Y34458D02*
D03*
X83661Y63583D02*
D03*
X43693Y44843D02*
D03*
X54134Y47244D02*
D03*
X87008Y47638D02*
D03*
D103*
X11555Y108465D02*
D03*
Y119882D02*
D03*
X16555Y108465D02*
D03*
Y119882D02*
D03*
X21555Y108465D02*
D03*
Y119882D02*
D03*
X26555Y108465D02*
D03*
Y119882D02*
D03*
X31555Y108465D02*
D03*
Y119882D02*
D03*
X36555Y108465D02*
D03*
Y119882D02*
D03*
X41555Y108465D02*
D03*
Y119882D02*
D03*
X46555Y108465D02*
D03*
Y119882D02*
D03*
X51555Y108465D02*
D03*
Y119882D02*
D03*
X56555Y108465D02*
D03*
Y119882D02*
D03*
X61555Y108465D02*
D03*
Y119882D02*
D03*
X66555Y108465D02*
D03*
Y119882D02*
D03*
X71555Y108465D02*
D03*
Y119882D02*
D03*
X76555Y108465D02*
D03*
Y119882D02*
D03*
X81555Y108465D02*
D03*
Y119882D02*
D03*
X86555Y108465D02*
D03*
Y119882D02*
D03*
X91555Y108465D02*
D03*
Y119882D02*
D03*
X96555Y108465D02*
D03*
Y119882D02*
D03*
X101555Y108465D02*
D03*
Y119882D02*
D03*
X106555Y108465D02*
D03*
Y119882D02*
D03*
X11555Y13976D02*
D03*
Y25394D02*
D03*
X16555Y13976D02*
D03*
Y25394D02*
D03*
X21555Y13976D02*
D03*
Y25394D02*
D03*
X26555Y13976D02*
D03*
Y25394D02*
D03*
X31555Y13976D02*
D03*
Y25394D02*
D03*
X36555Y13976D02*
D03*
Y25394D02*
D03*
X41555Y13976D02*
D03*
Y25394D02*
D03*
X46555Y13976D02*
D03*
Y25394D02*
D03*
X51555Y13976D02*
D03*
Y25394D02*
D03*
X56555Y13976D02*
D03*
Y25394D02*
D03*
X61555Y13976D02*
D03*
Y25394D02*
D03*
X66555Y13976D02*
D03*
Y25394D02*
D03*
X71555Y13976D02*
D03*
Y25394D02*
D03*
X76555Y13976D02*
D03*
Y25394D02*
D03*
X81555Y13976D02*
D03*
Y25394D02*
D03*
X86555Y13976D02*
D03*
Y25394D02*
D03*
X91555Y13976D02*
D03*
Y25394D02*
D03*
X96555Y13976D02*
D03*
Y25394D02*
D03*
X101555Y13976D02*
D03*
Y25394D02*
D03*
X106555Y13976D02*
D03*
Y25394D02*
D03*
D104*
X106299Y69095D02*
D03*
D105*
X103347Y74606D02*
D03*
X109252D02*
D03*
X103347Y63583D02*
D03*
X109252D02*
D03*
X107283Y74606D02*
D03*
X105315D02*
D03*
X107283Y63583D02*
D03*
X105315D02*
D03*
D106*
X37992Y33071D02*
D03*
Y38583D02*
D03*
M02*
