G04*
G04 #@! TF.GenerationSoftware,Altium Limited,Altium NEXUS,5.1.2 (10)*
G04*
G04 Layer_Physical_Order=3*
G04 Layer_Color=16737945*
%FSLAX25Y25*%
%MOIN*%
G70*
G04*
G04 #@! TF.SameCoordinates,614915EC-EFCC-4F07-BEE6-519DBFB5DABB*
G04*
G04*
G04 #@! TF.FilePolarity,Positive*
G04*
G01*
G75*
%ADD61C,0.00984*%
%ADD72C,0.00394*%
%ADD73C,0.01000*%
%ADD74C,0.01181*%
%ADD76C,0.00787*%
%ADD77C,0.00799*%
%ADD78C,0.01968*%
%ADD80C,0.00500*%
%ADD90C,0.01968*%
%ADD91C,0.01378*%
%ADD92C,0.01772*%
%ADD93C,0.01402*%
G36*
X15169Y125840D02*
X15125Y125792D01*
X15086Y125742D01*
X15052Y125690D01*
X15023Y125635D01*
X15000Y125578D01*
X14981Y125520D01*
X14968Y125458D01*
X14960Y125395D01*
X14956Y125329D01*
X14958Y125261D01*
X14412Y126080D01*
X14470Y126054D01*
X14527Y126037D01*
X14584Y126027D01*
X14639Y126025D01*
X14693Y126031D01*
X14746Y126044D01*
X14798Y126065D01*
X14849Y126094D01*
X14899Y126130D01*
X14947Y126175D01*
X15169Y125840D01*
D02*
G37*
G36*
X37354Y124877D02*
X37346Y124814D01*
X37344Y124753D01*
X37350Y124693D01*
X37361Y124636D01*
X37379Y124580D01*
X37404Y124526D01*
X37435Y124474D01*
X37473Y124424D01*
X37517Y124376D01*
X37238Y124097D01*
X37190Y124142D01*
X37140Y124179D01*
X37088Y124210D01*
X37034Y124235D01*
X36978Y124253D01*
X36921Y124265D01*
X36861Y124270D01*
X36800Y124268D01*
X36737Y124260D01*
X36672Y124246D01*
X37368Y124942D01*
X37354Y124877D01*
D02*
G37*
G36*
X32432D02*
X32425Y124814D01*
X32423Y124753D01*
X32428Y124693D01*
X32440Y124636D01*
X32458Y124580D01*
X32483Y124526D01*
X32514Y124474D01*
X32551Y124424D01*
X32596Y124376D01*
X32317Y124097D01*
X32269Y124142D01*
X32219Y124179D01*
X32167Y124210D01*
X32113Y124235D01*
X32057Y124253D01*
X31999Y124265D01*
X31940Y124270D01*
X31879Y124268D01*
X31816Y124260D01*
X31751Y124246D01*
X32447Y124942D01*
X32432Y124877D01*
D02*
G37*
G36*
X27314D02*
X27306Y124814D01*
X27305Y124753D01*
X27310Y124693D01*
X27322Y124636D01*
X27340Y124580D01*
X27365Y124526D01*
X27396Y124474D01*
X27433Y124424D01*
X27477Y124376D01*
X27199Y124097D01*
X27151Y124142D01*
X27101Y124179D01*
X27049Y124210D01*
X26995Y124235D01*
X26939Y124253D01*
X26881Y124265D01*
X26822Y124270D01*
X26761Y124268D01*
X26698Y124260D01*
X26633Y124246D01*
X27329Y124942D01*
X27314Y124877D01*
D02*
G37*
G36*
X16668Y123649D02*
X16603Y123664D01*
X16540Y123671D01*
X16479Y123673D01*
X16419Y123668D01*
X16362Y123656D01*
X16306Y123638D01*
X16252Y123613D01*
X16200Y123582D01*
X16150Y123545D01*
X16102Y123500D01*
X15823Y123779D01*
X15867Y123827D01*
X15905Y123877D01*
X15936Y123929D01*
X15961Y123983D01*
X15979Y124039D01*
X15991Y124097D01*
X15996Y124156D01*
X15994Y124217D01*
X15986Y124280D01*
X15972Y124345D01*
X16668Y123649D01*
D02*
G37*
G36*
X58282Y116213D02*
X58333Y116175D01*
X58385Y116144D01*
X58438Y116119D01*
X58494Y116101D01*
X58552Y116090D01*
X58611Y116085D01*
X58672Y116086D01*
X58735Y116094D01*
X58800Y116108D01*
X58104Y115412D01*
X58119Y115477D01*
X58127Y115540D01*
X58128Y115602D01*
X58123Y115661D01*
X58111Y115718D01*
X58093Y115774D01*
X58069Y115828D01*
X58037Y115880D01*
X58000Y115930D01*
X57956Y115979D01*
X58234Y116257D01*
X58282Y116213D01*
D02*
G37*
G36*
X81185Y115690D02*
X81235Y115652D01*
X81287Y115621D01*
X81341Y115596D01*
X81396Y115578D01*
X81454Y115567D01*
X81513Y115561D01*
X81574Y115563D01*
X81638Y115571D01*
X81703Y115585D01*
X81007Y114889D01*
X81021Y114954D01*
X81029Y115017D01*
X81030Y115078D01*
X81025Y115138D01*
X81014Y115196D01*
X80995Y115251D01*
X80971Y115305D01*
X80940Y115357D01*
X80902Y115407D01*
X80858Y115456D01*
X81136Y115734D01*
X81185Y115690D01*
D02*
G37*
G36*
X84167Y115360D02*
X84216Y115320D01*
X84268Y115285D01*
X84322Y115254D01*
X84378Y115227D01*
X84437Y115204D01*
X84498Y115186D01*
X84561Y115172D01*
X84627Y115162D01*
X84694Y115156D01*
X83819Y114707D01*
X83849Y114760D01*
X83871Y114813D01*
X83885Y114865D01*
X83890Y114917D01*
X83888Y114969D01*
X83877Y115019D01*
X83857Y115070D01*
X83829Y115120D01*
X83793Y115169D01*
X83749Y115217D01*
X84119Y115404D01*
X84167Y115360D01*
D02*
G37*
G36*
X90763Y115229D02*
X90813Y115191D01*
X90865Y115160D01*
X90919Y115135D01*
X90974Y115117D01*
X91032Y115105D01*
X91091Y115100D01*
X91153Y115102D01*
X91216Y115110D01*
X91281Y115124D01*
X90585Y114428D01*
X90599Y114493D01*
X90607Y114556D01*
X90608Y114617D01*
X90603Y114677D01*
X90592Y114734D01*
X90574Y114790D01*
X90549Y114844D01*
X90518Y114896D01*
X90480Y114946D01*
X90436Y114994D01*
X90714Y115273D01*
X90763Y115229D01*
D02*
G37*
G36*
X41550D02*
X41600Y115191D01*
X41652Y115160D01*
X41706Y115135D01*
X41762Y115117D01*
X41819Y115105D01*
X41879Y115100D01*
X41940Y115102D01*
X42003Y115110D01*
X42068Y115124D01*
X41372Y114428D01*
X41387Y114493D01*
X41394Y114556D01*
X41396Y114617D01*
X41391Y114677D01*
X41379Y114734D01*
X41361Y114790D01*
X41336Y114844D01*
X41305Y114896D01*
X41267Y114946D01*
X41223Y114994D01*
X41502Y115273D01*
X41550Y115229D01*
D02*
G37*
G36*
X87011Y114294D02*
X86977Y114598D01*
Y114991D01*
X87014Y114993D01*
X87053Y114999D01*
X87094Y115009D01*
X87137Y115022D01*
X87182Y115039D01*
X87229Y115060D01*
X87328Y115113D01*
X87381Y115146D01*
X87435Y115182D01*
X87011Y114294D01*
D02*
G37*
G36*
X71078Y114835D02*
X71128Y114797D01*
X71180Y114766D01*
X71234Y114741D01*
X71289Y114723D01*
X71347Y114712D01*
X71406Y114707D01*
X71468Y114708D01*
X71531Y114716D01*
X71596Y114730D01*
X70900Y114034D01*
X70914Y114099D01*
X70922Y114162D01*
X70923Y114224D01*
X70918Y114283D01*
X70907Y114340D01*
X70889Y114396D01*
X70864Y114450D01*
X70833Y114502D01*
X70795Y114552D01*
X70751Y114601D01*
X71029Y114879D01*
X71078Y114835D01*
D02*
G37*
G36*
X38408Y113966D02*
X38392Y114025D01*
X38370Y114078D01*
X38343Y114125D01*
X38310Y114165D01*
X38272Y114200D01*
X38228Y114228D01*
X38179Y114250D01*
X38124Y114265D01*
X38063Y114275D01*
X37998Y114278D01*
X38127Y114671D01*
X38192Y114674D01*
X38255Y114681D01*
X38317Y114692D01*
X38377Y114708D01*
X38436Y114729D01*
X38494Y114755D01*
X38550Y114785D01*
X38604Y114819D01*
X38658Y114859D01*
X38709Y114903D01*
X38408Y113966D01*
D02*
G37*
G36*
X79076Y113813D02*
X79011Y113828D01*
X78948Y113835D01*
X78887Y113837D01*
X78827Y113832D01*
X78770Y113820D01*
X78714Y113802D01*
X78660Y113777D01*
X78608Y113746D01*
X78558Y113708D01*
X78510Y113664D01*
X78231Y113943D01*
X78275Y113991D01*
X78313Y114041D01*
X78344Y114093D01*
X78369Y114147D01*
X78387Y114203D01*
X78399Y114260D01*
X78404Y114320D01*
X78402Y114381D01*
X78394Y114444D01*
X78380Y114509D01*
X79076Y113813D01*
D02*
G37*
G36*
X68259Y114050D02*
X68251Y113987D01*
X68250Y113926D01*
X68255Y113867D01*
X68267Y113809D01*
X68285Y113753D01*
X68309Y113699D01*
X68340Y113647D01*
X68378Y113597D01*
X68422Y113549D01*
X68144Y113271D01*
X68096Y113315D01*
X68045Y113352D01*
X67993Y113383D01*
X67940Y113408D01*
X67884Y113426D01*
X67826Y113438D01*
X67767Y113443D01*
X67706Y113442D01*
X67642Y113434D01*
X67578Y113419D01*
X68274Y114115D01*
X68259Y114050D01*
D02*
G37*
G36*
X66005Y114806D02*
X65918Y114370D01*
X66025Y113832D01*
X66088Y113738D01*
X65821Y113238D01*
X61252D01*
X61060Y113700D01*
X62666Y115306D01*
X65735D01*
X66005Y114806D01*
D02*
G37*
G36*
X56853Y113700D02*
X56662Y113238D01*
X43911D01*
X43641Y113738D01*
X43728Y114173D01*
X43641Y114609D01*
X43911Y115109D01*
X48375D01*
X48377Y115110D01*
X55443D01*
X56853Y113700D01*
D02*
G37*
G36*
X36815Y113171D02*
X36832Y113048D01*
X36846Y112992D01*
X36862Y112941D01*
X36880Y112892D01*
X36902Y112848D01*
X36926Y112808D01*
X36953Y112771D01*
X36983Y112738D01*
X36704Y112459D01*
X36687Y112472D01*
X36666Y112480D01*
X36641Y112482D01*
X36613Y112480D01*
X36580Y112473D01*
X36544Y112460D01*
X36504Y112443D01*
X36460Y112421D01*
X36360Y112362D01*
X36810Y113238D01*
X36815Y113171D01*
D02*
G37*
G36*
X78386Y115790D02*
X78337Y115757D01*
X78033Y115301D01*
X77926Y114764D01*
X77969Y114546D01*
X77954Y114509D01*
X77972Y114464D01*
X77964Y114417D01*
X77974Y114372D01*
X77977Y114350D01*
X77977Y114333D01*
X77976Y114321D01*
X77974Y114311D01*
X77974Y114311D01*
X76320Y112657D01*
X76132Y112205D01*
Y107118D01*
X75670Y106926D01*
X68679Y113917D01*
X68679Y113918D01*
X68678Y113927D01*
X68676Y113940D01*
X68677Y113956D01*
X68679Y113978D01*
X68690Y114023D01*
X68681Y114071D01*
X68700Y114115D01*
X68684Y114152D01*
X68728Y114370D01*
X68641Y114806D01*
X68910Y115306D01*
X69420D01*
X70494Y114232D01*
X70494Y114232D01*
X70496Y114222D01*
X70497Y114210D01*
X70496Y114194D01*
X70494Y114172D01*
X70484Y114126D01*
X70492Y114079D01*
X70473Y114034D01*
X70489Y113997D01*
X70445Y113779D01*
X70552Y113242D01*
X70857Y112786D01*
X71313Y112481D01*
X71850Y112375D01*
X72388Y112481D01*
X72844Y112786D01*
X73148Y113242D01*
X73255Y113779D01*
X73148Y114317D01*
X72844Y114773D01*
X72388Y115077D01*
X71850Y115184D01*
X71632Y115141D01*
X71596Y115156D01*
X71551Y115138D01*
X71504Y115146D01*
X71458Y115136D01*
X71436Y115134D01*
X71420Y115133D01*
X71408Y115134D01*
X71398Y115136D01*
X71398Y115136D01*
X70706Y115828D01*
X70897Y116290D01*
X78234D01*
X78386Y115790D01*
D02*
G37*
G36*
X32432Y112869D02*
X32425Y112806D01*
X32423Y112745D01*
X32428Y112686D01*
X32440Y112628D01*
X32458Y112572D01*
X32483Y112518D01*
X32514Y112466D01*
X32551Y112416D01*
X32596Y112368D01*
X32317Y112090D01*
X32269Y112134D01*
X32219Y112171D01*
X32167Y112202D01*
X32113Y112227D01*
X32057Y112245D01*
X31999Y112257D01*
X31940Y112262D01*
X31879Y112260D01*
X31816Y112253D01*
X31751Y112238D01*
X32447Y112934D01*
X32432Y112869D01*
D02*
G37*
G36*
X27905D02*
X27897Y112806D01*
X27896Y112745D01*
X27901Y112686D01*
X27912Y112628D01*
X27930Y112572D01*
X27955Y112518D01*
X27986Y112466D01*
X28024Y112416D01*
X28068Y112368D01*
X27790Y112090D01*
X27741Y112134D01*
X27691Y112171D01*
X27639Y112202D01*
X27585Y112227D01*
X27529Y112245D01*
X27472Y112257D01*
X27413Y112262D01*
X27351Y112260D01*
X27288Y112253D01*
X27223Y112238D01*
X27919Y112934D01*
X27905Y112869D01*
D02*
G37*
G36*
X22011Y116222D02*
X21005Y115216D01*
X20818Y114764D01*
Y112076D01*
X19408Y110667D01*
X18946Y110858D01*
Y115286D01*
X20344Y116684D01*
X21819D01*
X22011Y116222D01*
D02*
G37*
G36*
X58535Y104013D02*
X58544Y103963D01*
X58560Y103915D01*
X58581Y103871D01*
X58609Y103829D01*
X58643Y103791D01*
X58683Y103755D01*
X58729Y103722D01*
X58782Y103692D01*
X58840Y103666D01*
X57865Y103536D01*
X57917Y103579D01*
X57963Y103625D01*
X58004Y103672D01*
X58040Y103722D01*
X58070Y103774D01*
X58095Y103828D01*
X58114Y103884D01*
X58127Y103943D01*
X58136Y104004D01*
X58138Y104066D01*
X58532D01*
X58535Y104013D01*
D02*
G37*
G36*
X67502Y104362D02*
X67551Y104318D01*
X67603Y104280D01*
X67657Y104247D01*
X67712Y104220D01*
X67770Y104197D01*
X67829Y104179D01*
X67890Y104166D01*
X67953Y104159D01*
X68018Y104156D01*
X68110Y103762D01*
X68044Y103759D01*
X67983Y103750D01*
X67927Y103734D01*
X67876Y103713D01*
X67830Y103684D01*
X67789Y103650D01*
X67753Y103610D01*
X67721Y103563D01*
X67695Y103510D01*
X67673Y103450D01*
X67454Y104410D01*
X67502Y104362D01*
D02*
G37*
G36*
X41944Y104205D02*
X41994Y104167D01*
X42046Y104136D01*
X42100Y104112D01*
X42156Y104093D01*
X42213Y104082D01*
X42272Y104077D01*
X42334Y104078D01*
X42397Y104086D01*
X42462Y104100D01*
X41766Y103404D01*
X41780Y103469D01*
X41788Y103532D01*
X41789Y103594D01*
X41784Y103653D01*
X41773Y103711D01*
X41755Y103766D01*
X41730Y103820D01*
X41699Y103872D01*
X41661Y103922D01*
X41617Y103971D01*
X41895Y104249D01*
X41944Y104205D01*
D02*
G37*
G36*
X39385D02*
X39435Y104167D01*
X39487Y104136D01*
X39541Y104112D01*
X39597Y104093D01*
X39654Y104082D01*
X39713Y104077D01*
X39775Y104078D01*
X39838Y104086D01*
X39903Y104100D01*
X39207Y103404D01*
X39221Y103469D01*
X39229Y103532D01*
X39230Y103594D01*
X39225Y103653D01*
X39214Y103711D01*
X39196Y103766D01*
X39171Y103820D01*
X39140Y103872D01*
X39102Y103922D01*
X39058Y103971D01*
X39336Y104249D01*
X39385Y104205D01*
D02*
G37*
G36*
X51979Y103347D02*
X51943Y103403D01*
X51904Y103454D01*
X51862Y103498D01*
X51816Y103536D01*
X51768Y103569D01*
X51715Y103595D01*
X51660Y103616D01*
X51601Y103631D01*
X51539Y103640D01*
X51474Y103643D01*
X51474Y104036D01*
X51539Y104039D01*
X51601Y104048D01*
X51660Y104063D01*
X51716Y104084D01*
X51768Y104110D01*
X51817Y104142D01*
X51863Y104181D01*
X51905Y104225D01*
X51944Y104275D01*
X51980Y104331D01*
X51979Y103347D01*
D02*
G37*
G36*
X62191Y103783D02*
X62241Y103745D01*
X62293Y103714D01*
X62347Y103689D01*
X62403Y103671D01*
X62460Y103659D01*
X62520Y103654D01*
X62581Y103656D01*
X62644Y103664D01*
X62709Y103678D01*
X62013Y102982D01*
X62027Y103047D01*
X62035Y103110D01*
X62037Y103171D01*
X62031Y103231D01*
X62020Y103288D01*
X62002Y103344D01*
X61977Y103398D01*
X61946Y103450D01*
X61908Y103500D01*
X61864Y103549D01*
X62142Y103827D01*
X62191Y103783D01*
D02*
G37*
G36*
X57273Y104224D02*
X57302Y104175D01*
X57471Y103749D01*
X57167Y103294D01*
X57060Y102756D01*
X57167Y102218D01*
X57471Y101762D01*
X57927Y101458D01*
X58465Y101351D01*
X59002Y101458D01*
X59145Y101553D01*
X59348Y101476D01*
X59637Y101281D01*
X59726Y100836D01*
X60030Y100380D01*
X60486Y100075D01*
X61024Y99968D01*
X61561Y100075D01*
X61956Y100339D01*
X61970Y100341D01*
X61980Y100355D01*
X62017Y100380D01*
X62026Y100393D01*
X62045Y100401D01*
X62082Y100438D01*
X62107Y100460D01*
X62131Y100478D01*
X62155Y100492D01*
X62177Y100503D01*
X62200Y100512D01*
X62204Y100513D01*
X63948D01*
X64400Y100701D01*
X65216Y101516D01*
X65403Y101969D01*
Y102416D01*
X65407Y102420D01*
X65903Y102637D01*
X66195Y102442D01*
X66732Y102335D01*
X67270Y102442D01*
X67726Y102747D01*
X68030Y103202D01*
X68035Y103226D01*
X68338Y103320D01*
X68541Y103332D01*
X68910Y103029D01*
X68856Y102756D01*
X68963Y102218D01*
X69267Y101762D01*
X69723Y101458D01*
X70261Y101351D01*
X70711Y101441D01*
X71211Y101178D01*
Y97478D01*
X71219Y97460D01*
X71211Y97441D01*
Y91142D01*
X71275Y90989D01*
X70851Y90706D01*
X66945Y94612D01*
X66732Y94754D01*
X66480Y94804D01*
X62423D01*
X59516Y97711D01*
X59303Y97853D01*
X59052Y97903D01*
X43068D01*
X43025Y97923D01*
X42973Y97925D01*
X42944Y97928D01*
X42922Y97933D01*
X42907Y97937D01*
X42899Y97941D01*
X42895Y97943D01*
X42893Y97944D01*
X42892Y97945D01*
X42890Y97947D01*
X42874Y97973D01*
X42836Y97998D01*
X42818Y98041D01*
X42781Y98056D01*
X42658Y98241D01*
X42202Y98545D01*
X41665Y98652D01*
X41127Y98545D01*
X40671Y98241D01*
X40367Y97785D01*
X40260Y97247D01*
X40367Y96710D01*
X40671Y96254D01*
X41127Y95949D01*
X41665Y95842D01*
X42202Y95949D01*
X42658Y96254D01*
X42781Y96438D01*
X42818Y96454D01*
X42836Y96496D01*
X42874Y96522D01*
X42890Y96547D01*
X42892Y96549D01*
X42893Y96550D01*
X42895Y96551D01*
X42899Y96554D01*
X42907Y96557D01*
X42922Y96562D01*
X42944Y96566D01*
X42973Y96569D01*
X43025Y96571D01*
X43068Y96591D01*
X58780D01*
X60182Y95189D01*
X60017Y94647D01*
X59831Y94610D01*
X59375Y94305D01*
X59070Y93850D01*
X58964Y93312D01*
X59070Y92774D01*
X59375Y92318D01*
X59831Y92014D01*
X60369Y91907D01*
X60437Y91921D01*
X60941Y91416D01*
X61267Y91199D01*
X61651Y91123D01*
X65498D01*
X77737Y78883D01*
Y76714D01*
X77275Y76523D01*
X76767Y77031D01*
X76751Y77070D01*
X76706Y77117D01*
X76636Y77196D01*
X76617Y77219D01*
X76617Y77219D01*
X76654Y77405D01*
X76547Y77942D01*
X76243Y78398D01*
X75787Y78703D01*
X75249Y78810D01*
X74712Y78703D01*
X74256Y78398D01*
X73951Y77942D01*
X73844Y77405D01*
X73951Y76867D01*
X74256Y76411D01*
X74712Y76107D01*
X75249Y76000D01*
X75434Y76036D01*
X75540Y75945D01*
X75583Y75903D01*
X75623Y75887D01*
X76362Y75148D01*
Y72790D01*
X75862Y72583D01*
X71373Y77072D01*
Y79192D01*
X71668Y79633D01*
X71775Y80171D01*
X71668Y80708D01*
X71363Y81164D01*
X70907Y81469D01*
X70370Y81576D01*
X69832Y81469D01*
X69376Y81164D01*
X69072Y80708D01*
X68965Y80171D01*
X69072Y79633D01*
X69366Y79192D01*
Y76657D01*
X69443Y76273D01*
X69660Y75947D01*
X74390Y71217D01*
Y69396D01*
X74096Y68955D01*
X73989Y68417D01*
X74096Y67880D01*
X74390Y67439D01*
Y64690D01*
X74467Y64306D01*
X74684Y63981D01*
X74999Y63666D01*
X74807Y63204D01*
X72183D01*
X67929Y67459D01*
Y72244D01*
X67929Y72244D01*
X67868Y72551D01*
X67694Y72812D01*
X65689Y74816D01*
X65673Y74856D01*
X65629Y74902D01*
X65560Y74980D01*
X65542Y75003D01*
X65540Y75006D01*
X65578Y75197D01*
X65471Y75735D01*
X65167Y76190D01*
X64711Y76495D01*
X64547Y77037D01*
X67842Y80333D01*
X68040Y80629D01*
X68109Y80978D01*
Y82897D01*
X68217Y82968D01*
X68521Y83424D01*
X68628Y83962D01*
X68521Y84500D01*
X68217Y84955D01*
X67761Y85260D01*
X67223Y85367D01*
X66686Y85260D01*
X66230Y84955D01*
X65925Y84500D01*
X65818Y83962D01*
X65925Y83424D01*
X66230Y82968D01*
X66287Y82930D01*
Y81355D01*
X61925Y76993D01*
X61896Y76984D01*
X61779Y76883D01*
X61696Y76832D01*
X61621Y76806D01*
X61548Y76795D01*
X61466Y76801D01*
X61365Y76827D01*
X61245Y76881D01*
X61105Y76967D01*
X60948Y77089D01*
X60766Y77258D01*
X60742Y77266D01*
X60646Y77363D01*
Y82780D01*
X60561Y83207D01*
X60319Y83569D01*
X55450Y88437D01*
X55432Y88530D01*
X55127Y88986D01*
X54672Y89290D01*
X54134Y89397D01*
X53596Y89290D01*
X53140Y88986D01*
X52836Y88530D01*
X52729Y87992D01*
X52836Y87454D01*
X53140Y86999D01*
X53596Y86694D01*
X54134Y86587D01*
X54142Y86589D01*
X58414Y82318D01*
Y76901D01*
X58499Y76473D01*
X58741Y76112D01*
X59526Y75326D01*
X59538Y75299D01*
X60528Y74308D01*
X60555Y74297D01*
X61896Y72956D01*
X61896Y72956D01*
X63845Y71007D01*
Y52953D01*
Y52037D01*
X60955Y49147D01*
X43110D01*
X42683Y49062D01*
X42321Y48821D01*
X41368Y47867D01*
X40683D01*
Y53954D01*
X40598Y54382D01*
X40356Y54743D01*
X35976Y59124D01*
Y60921D01*
X35891Y61348D01*
X35649Y61710D01*
X34777Y62582D01*
Y65663D01*
X35240Y65855D01*
X35590Y65529D01*
X35529Y65224D01*
X35636Y64687D01*
X35941Y64231D01*
X36396Y63926D01*
X36934Y63819D01*
X37472Y63926D01*
X37927Y64231D01*
X38232Y64687D01*
X38339Y65224D01*
X38232Y65762D01*
X37927Y66218D01*
X37472Y66522D01*
X37107Y66595D01*
X36632Y67071D01*
Y75798D01*
X36644Y75820D01*
X36637Y75845D01*
X36647Y75868D01*
X36647Y76006D01*
X36648Y76057D01*
X36820Y76172D01*
X37097Y76586D01*
X37210Y76665D01*
X37606Y76785D01*
X38885Y75506D01*
Y74455D01*
X38885Y74454D01*
X38879Y74446D01*
X38871Y74437D01*
X38860Y74426D01*
X38842Y74412D01*
X38803Y74387D01*
X38775Y74347D01*
X38731Y74329D01*
X38715Y74292D01*
X38531Y74169D01*
X38226Y73713D01*
X38119Y73175D01*
X38226Y72638D01*
X38531Y72182D01*
X38986Y71877D01*
X39524Y71770D01*
X40062Y71877D01*
X40518Y72182D01*
X40822Y72638D01*
X40929Y73175D01*
X40822Y73713D01*
X40518Y74169D01*
X40333Y74292D01*
X40317Y74329D01*
X40273Y74347D01*
X40245Y74387D01*
X40206Y74412D01*
X40189Y74425D01*
X40177Y74437D01*
X40169Y74446D01*
X40163Y74454D01*
X40163Y74455D01*
Y75770D01*
X39976Y76222D01*
X36953Y79245D01*
X36501Y79432D01*
X34327D01*
X32476Y81283D01*
Y85623D01*
X32289Y86075D01*
X30063Y88300D01*
X29611Y88488D01*
X26097D01*
X25645Y88300D01*
X24526Y87181D01*
X24064Y87373D01*
Y95208D01*
X25265Y96408D01*
X36510D01*
X41199Y91718D01*
Y88993D01*
X40845Y88757D01*
X40541Y88301D01*
X40434Y87763D01*
X40541Y87225D01*
X40845Y86770D01*
X41217Y86521D01*
X41311Y86431D01*
X41469Y85922D01*
X41388Y85728D01*
Y84892D01*
X41034Y84655D01*
X40730Y84199D01*
X40623Y83661D01*
X40730Y83124D01*
X41034Y82668D01*
X41490Y82363D01*
X42028Y82257D01*
X42565Y82363D01*
X43021Y82668D01*
X43326Y83124D01*
X43433Y83661D01*
X43326Y84199D01*
X43021Y84655D01*
X42667Y84892D01*
Y85464D01*
X42937Y85734D01*
X42943Y85736D01*
X43865Y86659D01*
X44053Y87111D01*
Y88415D01*
X44045Y88434D01*
Y88976D01*
X43857Y89428D01*
X43553Y89733D01*
Y92323D01*
X43365Y92775D01*
X37657Y98484D01*
X37205Y98671D01*
X24606D01*
X24154Y98484D01*
X22558Y96887D01*
X22096Y97078D01*
Y100523D01*
X25265Y103691D01*
X35956D01*
X38524Y101123D01*
X38976Y100936D01*
X43836D01*
X44288Y101123D01*
X46365Y103200D01*
X51552D01*
X51560Y103195D01*
X51570Y103187D01*
X51581Y103175D01*
X51595Y103158D01*
X51619Y103119D01*
X51659Y103091D01*
X51677Y103046D01*
X51714Y103031D01*
X51838Y102845D01*
X52294Y102541D01*
X52832Y102434D01*
X53369Y102541D01*
X53825Y102845D01*
X54130Y103301D01*
X54237Y103839D01*
X54130Y104376D01*
X53825Y104832D01*
X53369Y105137D01*
X52832Y105244D01*
X52294Y105137D01*
X51838Y104832D01*
X51715Y104648D01*
X51679Y104633D01*
X51660Y104588D01*
X51621Y104561D01*
X51596Y104522D01*
X51582Y104504D01*
X51571Y104492D01*
X51561Y104484D01*
X51553Y104479D01*
X51553Y104479D01*
X46101D01*
X45649Y104291D01*
X44611Y103253D01*
X44068Y103418D01*
X44014Y103687D01*
X43710Y104143D01*
X43254Y104448D01*
X42717Y104555D01*
X42499Y104511D01*
X42462Y104526D01*
X42417Y104508D01*
X42370Y104516D01*
X42324Y104506D01*
X42302Y104504D01*
X42286Y104503D01*
X42274Y104504D01*
X42264Y104506D01*
X42264Y104506D01*
X40194Y106576D01*
X40385Y107038D01*
X54460D01*
X57273Y104224D01*
D02*
G37*
G36*
X87747Y102436D02*
X87739Y102373D01*
X87738Y102312D01*
X87743Y102252D01*
X87755Y102195D01*
X87773Y102139D01*
X87798Y102085D01*
X87829Y102033D01*
X87866Y101983D01*
X87910Y101935D01*
X87632Y101656D01*
X87584Y101701D01*
X87534Y101738D01*
X87482Y101769D01*
X87428Y101794D01*
X87372Y101812D01*
X87314Y101824D01*
X87255Y101829D01*
X87194Y101828D01*
X87131Y101820D01*
X87066Y101805D01*
X87762Y102501D01*
X87747Y102436D01*
D02*
G37*
G36*
X84463Y101846D02*
X84455Y101783D01*
X84453Y101721D01*
X84459Y101662D01*
X84470Y101604D01*
X84488Y101549D01*
X84513Y101495D01*
X84544Y101443D01*
X84582Y101393D01*
X84626Y101344D01*
X84347Y101066D01*
X84299Y101110D01*
X84249Y101148D01*
X84197Y101179D01*
X84143Y101203D01*
X84087Y101222D01*
X84030Y101233D01*
X83970Y101238D01*
X83909Y101237D01*
X83846Y101229D01*
X83781Y101215D01*
X84477Y101911D01*
X84463Y101846D01*
D02*
G37*
G36*
X61986Y101602D02*
X62013Y101549D01*
X62044Y101502D01*
X62081Y101462D01*
X62122Y101427D01*
X62168Y101399D01*
X62219Y101377D01*
X62275Y101362D01*
X62336Y101353D01*
X62401Y101349D01*
X62309Y100956D01*
X62244Y100953D01*
X62181Y100946D01*
X62120Y100933D01*
X62060Y100915D01*
X62003Y100892D01*
X61947Y100865D01*
X61894Y100832D01*
X61842Y100794D01*
X61792Y100751D01*
X61744Y100703D01*
X61965Y101662D01*
X61986Y101602D01*
D02*
G37*
G36*
X87177Y99662D02*
X87205Y99609D01*
X87238Y99562D01*
X87275Y99522D01*
X87317Y99487D01*
X87364Y99459D01*
X87415Y99437D01*
X87472Y99422D01*
X87533Y99413D01*
X87598Y99410D01*
X87516Y99016D01*
X87451Y99013D01*
X87388Y99005D01*
X87327Y98992D01*
X87269Y98974D01*
X87212Y98951D01*
X87157Y98922D01*
X87104Y98889D01*
X87053Y98850D01*
X87004Y98806D01*
X86957Y98757D01*
X87154Y99721D01*
X87177Y99662D01*
D02*
G37*
G36*
X84675Y98628D02*
X84684Y98562D01*
X84698Y98499D01*
X84717Y98438D01*
X84740Y98379D01*
X84766Y98323D01*
X84798Y98269D01*
X84833Y98217D01*
X84873Y98168D01*
X84917Y98120D01*
X84730Y97750D01*
X84681Y97794D01*
X84632Y97830D01*
X84583Y97858D01*
X84532Y97878D01*
X84481Y97889D01*
X84430Y97891D01*
X84378Y97886D01*
X84326Y97872D01*
X84273Y97850D01*
X84220Y97820D01*
X84669Y98695D01*
X84675Y98628D01*
D02*
G37*
G36*
X82235Y98487D02*
X82228Y98423D01*
X82226Y98362D01*
X82231Y98303D01*
X82243Y98245D01*
X82261Y98190D01*
X82286Y98136D01*
X82317Y98084D01*
X82354Y98033D01*
X82399Y97985D01*
X82120Y97707D01*
X82072Y97751D01*
X82022Y97789D01*
X81970Y97820D01*
X81916Y97844D01*
X81860Y97862D01*
X81803Y97874D01*
X81743Y97879D01*
X81682Y97878D01*
X81619Y97870D01*
X81554Y97856D01*
X82250Y98551D01*
X82235Y98487D01*
D02*
G37*
G36*
X42547Y97693D02*
X42581Y97652D01*
X42620Y97616D01*
X42663Y97584D01*
X42710Y97558D01*
X42762Y97536D01*
X42817Y97519D01*
X42877Y97507D01*
X42942Y97500D01*
X43010Y97497D01*
Y96997D01*
X42942Y96995D01*
X42877Y96987D01*
X42817Y96975D01*
X42762Y96958D01*
X42710Y96937D01*
X42663Y96910D01*
X42620Y96878D01*
X42581Y96842D01*
X42547Y96801D01*
X42517Y96755D01*
Y97739D01*
X42547Y97693D01*
D02*
G37*
G36*
X82277Y96592D02*
X82296Y96539D01*
X82320Y96492D01*
X82347Y96452D01*
X82379Y96418D01*
X82415Y96390D01*
X82454Y96368D01*
X82498Y96352D01*
X82546Y96343D01*
X82597Y96340D01*
X82542Y95946D01*
X82477Y95944D01*
X82414Y95937D01*
X82352Y95925D01*
X82292Y95909D01*
X82233Y95888D01*
X82176Y95863D01*
X82120Y95833D01*
X82065Y95798D01*
X82012Y95759D01*
X81960Y95715D01*
X82261Y96652D01*
X82277Y96592D01*
D02*
G37*
G36*
X82627Y95073D02*
X82725Y95031D01*
X82768Y95016D01*
X82806Y95006D01*
X82840Y95000D01*
X82870Y94999D01*
X82895Y95002D01*
X82915Y95009D01*
X82932Y95021D01*
X83210Y94743D01*
X83186Y94715D01*
X83166Y94684D01*
X83148Y94648D01*
X83132Y94607D01*
X83120Y94562D01*
X83110Y94513D01*
X83104Y94459D01*
X83100Y94401D01*
X83100Y94272D01*
X82571Y95101D01*
X82627Y95073D01*
D02*
G37*
G36*
X91505Y94299D02*
X91597Y94250D01*
X91637Y94232D01*
X91673Y94220D01*
X91706Y94213D01*
X91735Y94211D01*
X91759Y94213D01*
X91780Y94221D01*
X91797Y94234D01*
X92076Y93955D01*
X92046Y93922D01*
X92019Y93885D01*
X91995Y93845D01*
X91973Y93800D01*
X91955Y93752D01*
X91939Y93700D01*
X91926Y93645D01*
X91915Y93585D01*
X91908Y93522D01*
X91903Y93455D01*
X91453Y94331D01*
X91505Y94299D01*
D02*
G37*
G36*
X97222Y92742D02*
X97244Y92689D01*
X97266Y92642D01*
X97291Y92601D01*
X97317Y92567D01*
X97344Y92539D01*
X97374Y92517D01*
X97405Y92501D01*
X97438Y92492D01*
X97472Y92489D01*
Y92095D01*
X97420Y92093D01*
X97369Y92085D01*
X97318Y92072D01*
X97268Y92055D01*
X97218Y92032D01*
X97169Y92005D01*
X97120Y91972D01*
X97071Y91934D01*
X97023Y91891D01*
X96975Y91844D01*
X97203Y92801D01*
X97222Y92742D01*
D02*
G37*
G36*
X89410Y92347D02*
Y91953D01*
X89373Y91951D01*
X89335Y91946D01*
X89294Y91937D01*
X89252Y91924D01*
X89207Y91907D01*
X89161Y91887D01*
X89061Y91836D01*
X89008Y91805D01*
X88953Y91771D01*
X89399Y92648D01*
X89410Y92347D01*
D02*
G37*
G36*
X87351Y91709D02*
X87422Y91602D01*
X87469Y91129D01*
X86950Y90610D01*
X86762Y90158D01*
Y90101D01*
X86761Y90098D01*
Y86843D01*
X86299Y86652D01*
X85679Y87273D01*
Y88712D01*
X85491Y89164D01*
X84613Y90043D01*
X84777Y90585D01*
X85150Y90834D01*
X85454Y91290D01*
X85475Y91396D01*
X85576Y91826D01*
X86019Y91759D01*
X86118Y91739D01*
X86656Y91846D01*
X86685Y91865D01*
X87351Y91709D01*
D02*
G37*
G36*
X116103Y116702D02*
X115603Y116532D01*
X115412Y116782D01*
X114648Y117368D01*
X113758Y117737D01*
X112803Y117862D01*
X111848Y117737D01*
X110959Y117368D01*
X110195Y116782D01*
X109608Y116018D01*
X109240Y115128D01*
X109114Y114173D01*
X109240Y113218D01*
X109608Y112329D01*
X110195Y111565D01*
X110959Y110978D01*
X111848Y110610D01*
X112803Y110484D01*
X113758Y110610D01*
X114648Y110978D01*
X115412Y111565D01*
X115603Y111814D01*
X116103Y111645D01*
Y22214D01*
X115603Y22044D01*
X115412Y22294D01*
X114648Y22880D01*
X113758Y23248D01*
X112803Y23374D01*
X111848Y23248D01*
X110959Y22880D01*
X110195Y22294D01*
X109608Y21530D01*
X109240Y20640D01*
X109114Y19685D01*
X109240Y18730D01*
X109608Y17841D01*
X110195Y17076D01*
X110959Y16490D01*
X111848Y16122D01*
X112803Y15996D01*
X113758Y16122D01*
X114648Y16490D01*
X115412Y17076D01*
X115603Y17326D01*
X116103Y17156D01*
Y4724D01*
X116103Y4724D01*
X116103Y4724D01*
X116103Y4457D01*
X115999Y3932D01*
X115794Y3437D01*
X115497Y2992D01*
X115118Y2614D01*
X114673Y2316D01*
X114179Y2111D01*
X113654Y2007D01*
X113386Y2007D01*
X113386Y2007D01*
X113386Y2007D01*
X4724D01*
X4724Y2007D01*
X4724Y2007D01*
X4457Y2007D01*
X3932Y2111D01*
X3437Y2316D01*
X2992Y2614D01*
X2614Y2992D01*
X2316Y3437D01*
X2111Y3932D01*
X2007Y4457D01*
X2007Y4724D01*
Y17156D01*
X2507Y17326D01*
X2698Y17076D01*
X3463Y16490D01*
X4352Y16122D01*
X5307Y15996D01*
X6262Y16122D01*
X7152Y16490D01*
X7915Y17076D01*
X8502Y17841D01*
X8870Y18730D01*
X8996Y19685D01*
X8870Y20640D01*
X8502Y21530D01*
X7915Y22294D01*
X7152Y22880D01*
X6262Y23248D01*
X5307Y23374D01*
X4352Y23248D01*
X3463Y22880D01*
X2698Y22294D01*
X2507Y22044D01*
X2007Y22214D01*
Y111644D01*
X2507Y111814D01*
X2698Y111565D01*
X3463Y110978D01*
X4352Y110610D01*
X5307Y110484D01*
X6262Y110610D01*
X7152Y110978D01*
X7915Y111565D01*
X8233Y111979D01*
X8808Y112019D01*
X9264Y111715D01*
X9801Y111608D01*
X10339Y111715D01*
X10795Y112019D01*
X11099Y112475D01*
X11206Y113013D01*
X11099Y113550D01*
X10795Y114006D01*
X10549Y114170D01*
Y124810D01*
X17308Y131569D01*
X98441D01*
X105585Y124426D01*
Y112795D01*
X105654Y112447D01*
X105852Y112151D01*
X111687Y106316D01*
Y90908D01*
X111187Y90701D01*
X100255Y101633D01*
X99803Y101820D01*
X88651D01*
X88168Y102303D01*
X88168Y102303D01*
X88166Y102313D01*
X88165Y102325D01*
X88165Y102342D01*
X88168Y102364D01*
X88178Y102409D01*
X88169Y102456D01*
X88188Y102501D01*
X88173Y102538D01*
X88216Y102756D01*
X88109Y103294D01*
X87805Y103749D01*
X87349Y104054D01*
X86811Y104161D01*
X86273Y104054D01*
X85818Y103749D01*
X85513Y103294D01*
X85406Y102756D01*
X85446Y102555D01*
X85134Y102119D01*
X84931Y102165D01*
X84824Y102703D01*
X84520Y103159D01*
X84064Y103463D01*
X83526Y103570D01*
X82989Y103463D01*
X82533Y103159D01*
X82228Y102703D01*
X82121Y102165D01*
X82228Y101628D01*
X82533Y101172D01*
X82989Y100867D01*
X83526Y100760D01*
X83744Y100804D01*
X83781Y100788D01*
X83826Y100807D01*
X83873Y100799D01*
X83919Y100809D01*
X83941Y100811D01*
X83957Y100812D01*
X83969Y100811D01*
X83979Y100809D01*
X83979Y100809D01*
X84255Y100532D01*
X84595Y100392D01*
X84605Y100364D01*
X84583Y100306D01*
X84224Y99945D01*
X83686Y100052D01*
X83148Y99945D01*
X82692Y99640D01*
X82227Y99844D01*
X81837Y100104D01*
X81299Y100211D01*
X80864Y100125D01*
X80364Y100394D01*
Y107412D01*
X82599Y109648D01*
X92570D01*
X93022Y109835D01*
X95531Y112343D01*
X95718Y112795D01*
Y115945D01*
X95531Y116397D01*
X88641Y123287D01*
X88189Y123474D01*
X61288D01*
X61082Y123680D01*
X60630Y123868D01*
X58668D01*
X58461Y124074D01*
X58009Y124261D01*
X38257D01*
X37774Y124744D01*
X37774Y124744D01*
X37772Y124754D01*
X37771Y124766D01*
X37771Y124783D01*
X37774Y124804D01*
X37784Y124850D01*
X37776Y124898D01*
X37794Y124942D01*
X37779Y124979D01*
X37822Y125197D01*
X37715Y125734D01*
X37411Y126190D01*
X36955Y126495D01*
X36417Y126602D01*
X35880Y126495D01*
X35424Y126190D01*
X35119Y125734D01*
X35012Y125197D01*
X35119Y124659D01*
X35424Y124203D01*
X35880Y123899D01*
X36417Y123792D01*
X36455Y123799D01*
X36477Y123777D01*
X36269Y123277D01*
X34320D01*
X32853Y124744D01*
X32853Y124744D01*
X32851Y124754D01*
X32850Y124766D01*
X32850Y124783D01*
X32853Y124804D01*
X32863Y124850D01*
X32854Y124898D01*
X32873Y124942D01*
X32858Y124979D01*
X32901Y125197D01*
X32794Y125734D01*
X32489Y126190D01*
X32034Y126495D01*
X31496Y126602D01*
X30958Y126495D01*
X30503Y126190D01*
X30198Y125734D01*
X30091Y125197D01*
X30198Y124659D01*
X30503Y124203D01*
X30958Y123899D01*
X31496Y123792D01*
X31714Y123835D01*
X31751Y123820D01*
X31795Y123838D01*
X31843Y123830D01*
X31888Y123840D01*
X31910Y123843D01*
X31927Y123843D01*
X31939Y123842D01*
X31949Y123840D01*
X31949Y123840D01*
X33034Y122755D01*
X32843Y122293D01*
X30186D01*
X27735Y124744D01*
X27735Y124744D01*
X27733Y124754D01*
X27731Y124766D01*
X27732Y124783D01*
X27735Y124804D01*
X27745Y124850D01*
X27736Y124898D01*
X27755Y124942D01*
X27740Y124979D01*
X27783Y125197D01*
X27676Y125734D01*
X27371Y126190D01*
X26916Y126495D01*
X26378Y126602D01*
X25840Y126495D01*
X25385Y126190D01*
X25080Y125734D01*
X24973Y125197D01*
X25080Y124659D01*
X25385Y124203D01*
X25840Y123899D01*
X26378Y123792D01*
X26596Y123835D01*
X26633Y123820D01*
X26677Y123838D01*
X26725Y123830D01*
X26770Y123840D01*
X26792Y123843D01*
X26808Y123843D01*
X26821Y123842D01*
X26831Y123840D01*
X26831Y123840D01*
X28703Y121967D01*
X28512Y121505D01*
X23148D01*
X18027Y126627D01*
X17575Y126814D01*
X15226D01*
X14774Y126627D01*
X14607Y126460D01*
X14580Y126471D01*
X14549Y126471D01*
X14514Y126495D01*
X13976Y126602D01*
X13439Y126495D01*
X12983Y126190D01*
X12678Y125734D01*
X12571Y125197D01*
X12678Y124659D01*
X12983Y124203D01*
X13439Y123899D01*
X13976Y123792D01*
X14514Y123899D01*
X14805Y124093D01*
X15124Y123705D01*
X13918Y122499D01*
X13731Y122047D01*
Y112666D01*
X5454Y104389D01*
X5266Y103937D01*
Y81367D01*
X4863Y80964D01*
X4676Y80512D01*
Y46457D01*
X4863Y46005D01*
X12747Y38121D01*
Y35433D01*
X12934Y34981D01*
X15011Y32904D01*
Y31397D01*
X15198Y30945D01*
X16280Y29863D01*
X16732Y29676D01*
X18436D01*
X28101Y20011D01*
Y17717D01*
X28288Y17265D01*
X30847Y14706D01*
X31299Y14518D01*
X36743D01*
X40690Y10572D01*
X41142Y10384D01*
X48837D01*
X48956Y9884D01*
X48613Y9655D01*
X48308Y9199D01*
X48201Y8661D01*
X48308Y8124D01*
X48613Y7668D01*
X49069Y7363D01*
X49606Y7256D01*
X49824Y7300D01*
X49861Y7285D01*
X49906Y7303D01*
X49953Y7295D01*
X49999Y7305D01*
X50020Y7307D01*
X50037Y7308D01*
X50049Y7307D01*
X50059Y7305D01*
X50059Y7305D01*
X53091Y4272D01*
X53543Y4085D01*
X81034D01*
X81438Y3682D01*
X81890Y3495D01*
X83403D01*
X83855Y3682D01*
X84652Y4479D01*
X95866D01*
X96318Y4666D01*
X108326Y16674D01*
X108513Y17126D01*
Y22176D01*
X113838Y27501D01*
X114025Y27953D01*
Y75197D01*
X113838Y75649D01*
X111860Y77627D01*
Y80044D01*
X112360Y80291D01*
X112617Y80119D01*
X113155Y80012D01*
X113692Y80119D01*
X114148Y80424D01*
X114453Y80879D01*
X114560Y81417D01*
X114453Y81955D01*
X114148Y82411D01*
X113692Y82715D01*
X113510Y82751D01*
Y106693D01*
X113440Y107042D01*
X113243Y107337D01*
X107407Y113173D01*
Y124803D01*
X107338Y125152D01*
X107140Y125447D01*
X99463Y133125D01*
X99168Y133322D01*
X98819Y133391D01*
X16931D01*
X16582Y133322D01*
X16286Y133125D01*
X8993Y125832D01*
X8796Y125536D01*
X8727Y125187D01*
Y116546D01*
X8227Y116376D01*
X7915Y116782D01*
X7152Y117368D01*
X6262Y117737D01*
X5307Y117862D01*
X4352Y117737D01*
X3463Y117368D01*
X2698Y116782D01*
X2507Y116532D01*
X2007Y116702D01*
Y135572D01*
X116103D01*
Y116702D01*
D02*
G37*
G36*
X89412Y88558D02*
X89362Y88519D01*
X89318Y88477D01*
X89280Y88431D01*
X89247Y88382D01*
X89220Y88330D01*
X89200Y88274D01*
X89185Y88215D01*
X89176Y88153D01*
X89173Y88088D01*
X88779Y88087D01*
X88777Y88153D01*
X88768Y88215D01*
X88753Y88274D01*
X88732Y88329D01*
X88706Y88381D01*
X88673Y88430D01*
X88635Y88476D01*
X88591Y88518D01*
X88540Y88557D01*
X88484Y88593D01*
X89468Y88594D01*
X89412Y88558D01*
D02*
G37*
G36*
X80386Y88271D02*
X80395Y88227D01*
X80410Y88185D01*
X80432Y88146D01*
X80460Y88109D01*
X80494Y88074D01*
X80534Y88042D01*
X80581Y88013D01*
X80634Y87986D01*
X80693Y87961D01*
X79722Y87800D01*
X79773Y87845D01*
X79818Y87891D01*
X79858Y87939D01*
X79893Y87988D01*
X79922Y88039D01*
X79946Y88092D01*
X79965Y88146D01*
X79978Y88202D01*
X79986Y88259D01*
X79989Y88318D01*
X80383D01*
X80386Y88271D01*
D02*
G37*
G36*
X106644Y87924D02*
Y82624D01*
X106640Y82620D01*
X106144Y82402D01*
X105853Y82597D01*
X105315Y82704D01*
X104777Y82597D01*
X104322Y82293D01*
X104017Y81837D01*
X103910Y81299D01*
X103953Y81081D01*
X103938Y81045D01*
X103957Y81000D01*
X103948Y80952D01*
X103958Y80907D01*
X103959Y80903D01*
X103822Y80773D01*
X103675Y80684D01*
X103215Y80905D01*
X103198Y80919D01*
Y90663D01*
X103698Y90870D01*
X106644Y87924D01*
D02*
G37*
G36*
X105060Y80348D02*
X104995Y80363D01*
X104932Y80371D01*
X104871Y80372D01*
X104812Y80367D01*
X104754Y80355D01*
X104698Y80337D01*
X104644Y80313D01*
X104592Y80282D01*
X104542Y80244D01*
X104494Y80200D01*
X104216Y80478D01*
X104260Y80526D01*
X104297Y80577D01*
X104328Y80629D01*
X104353Y80682D01*
X104371Y80738D01*
X104383Y80796D01*
X104388Y80855D01*
X104386Y80916D01*
X104379Y80980D01*
X104364Y81045D01*
X105060Y80348D01*
D02*
G37*
G36*
X106640Y79979D02*
X106644Y79975D01*
Y75787D01*
X106832Y75335D01*
X108810Y73357D01*
Y70700D01*
X108348Y70509D01*
X104154Y74703D01*
Y79234D01*
X104862Y79943D01*
X104862Y79943D01*
X104872Y79945D01*
X104885Y79946D01*
X104901Y79945D01*
X104923Y79943D01*
X104968Y79932D01*
X105016Y79941D01*
X105060Y79922D01*
X105097Y79938D01*
X105315Y79894D01*
X105853Y80001D01*
X106144Y80196D01*
X106640Y79979D01*
D02*
G37*
G36*
X18849Y100818D02*
Y97478D01*
Y79792D01*
X16849Y77793D01*
X16387Y77984D01*
Y99010D01*
X18387Y101009D01*
X18849Y100818D01*
D02*
G37*
G36*
X76197Y77128D02*
X76201Y77102D01*
X76210Y77073D01*
X76226Y77040D01*
X76248Y77004D01*
X76275Y76965D01*
X76309Y76922D01*
X76394Y76826D01*
X76446Y76773D01*
X75881Y76208D01*
X75828Y76259D01*
X75689Y76379D01*
X75650Y76406D01*
X75614Y76428D01*
X75581Y76443D01*
X75552Y76453D01*
X75526Y76456D01*
X75504Y76454D01*
X76200Y77150D01*
X76197Y77128D01*
D02*
G37*
G36*
X36231Y76268D02*
X36229Y76263D01*
X36227Y76250D01*
X36226Y76230D01*
X36221Y76012D01*
X36220Y75870D01*
X35236Y75984D01*
X35252Y76366D01*
X36231Y76268D01*
D02*
G37*
G36*
X90188Y75359D02*
X90234Y75313D01*
X90283Y75272D01*
X90334Y75237D01*
X90387Y75207D01*
X90443Y75183D01*
X90501Y75164D01*
X90561Y75150D01*
X90624Y75142D01*
X90689Y75139D01*
X90746Y74746D01*
X90681Y74742D01*
X90619Y74733D01*
X90562Y74718D01*
X90510Y74696D01*
X90461Y74668D01*
X90417Y74634D01*
X90377Y74594D01*
X90342Y74548D01*
X90311Y74495D01*
X90284Y74436D01*
X90144Y75411D01*
X90188Y75359D01*
D02*
G37*
G36*
X60672Y76764D02*
X60861Y76617D01*
X61045Y76503D01*
X61224Y76424D01*
X61396Y76379D01*
X61563Y76367D01*
X61725Y76390D01*
X61880Y76446D01*
X62030Y76537D01*
X62174Y76661D01*
X62882Y75954D01*
X62757Y75810D01*
X62667Y75660D01*
X62610Y75504D01*
X62588Y75343D01*
X62599Y75176D01*
X62644Y75003D01*
X62724Y74825D01*
X62837Y74641D01*
X62984Y74451D01*
X63165Y74256D01*
X60830Y74609D01*
X59839Y75600D01*
X60476Y76945D01*
X60672Y76764D01*
D02*
G37*
G36*
X39724Y74468D02*
X39733Y74406D01*
X39747Y74347D01*
X39768Y74291D01*
X39795Y74239D01*
X39827Y74190D01*
X39866Y74145D01*
X39910Y74102D01*
X39960Y74063D01*
X40016Y74028D01*
X39032D01*
X39088Y74063D01*
X39138Y74102D01*
X39182Y74145D01*
X39221Y74190D01*
X39253Y74239D01*
X39280Y74291D01*
X39301Y74347D01*
X39315Y74406D01*
X39324Y74468D01*
X39327Y74533D01*
X39721D01*
X39724Y74468D01*
D02*
G37*
G36*
X65121Y74919D02*
X65124Y74892D01*
X65134Y74862D01*
X65149Y74828D01*
X65170Y74791D01*
X65198Y74752D01*
X65231Y74708D01*
X65316Y74612D01*
X65368Y74559D01*
X64811Y74002D01*
X64758Y74054D01*
X64619Y74172D01*
X64579Y74200D01*
X64542Y74221D01*
X64509Y74237D01*
X64478Y74246D01*
X64452Y74249D01*
X64428Y74246D01*
X65124Y74942D01*
X65121Y74919D01*
D02*
G37*
G36*
X94942Y92955D02*
X94855Y92520D01*
X94962Y91982D01*
X95266Y91526D01*
X95722Y91222D01*
X96260Y91115D01*
X96798Y91222D01*
X97181Y91478D01*
X97199Y91481D01*
X97613Y91242D01*
X97635Y91225D01*
X98967Y89893D01*
Y72526D01*
X98733Y72360D01*
X98505Y72281D01*
X92568Y78218D01*
Y90158D01*
X92381Y90610D01*
X91321Y91669D01*
X91456Y92200D01*
X91478Y92220D01*
X91913Y92510D01*
X92218Y92966D01*
X92283Y93295D01*
X92309Y93325D01*
X92784Y93455D01*
X94672D01*
X94942Y92955D01*
D02*
G37*
G36*
X91860Y72877D02*
X91866Y72811D01*
X91877Y72747D01*
X91892Y72686D01*
X91912Y72627D01*
X91937Y72571D01*
X91967Y72516D01*
X92002Y72464D01*
X92041Y72414D01*
X92085Y72367D01*
X91878Y72017D01*
X91829Y72061D01*
X91780Y72098D01*
X91729Y72126D01*
X91678Y72146D01*
X91626Y72159D01*
X91573Y72163D01*
X91519Y72159D01*
X91464Y72148D01*
X91409Y72128D01*
X91352Y72101D01*
X91859Y72945D01*
X91860Y72877D01*
D02*
G37*
G36*
X83970Y71266D02*
X84019Y71226D01*
X84071Y71190D01*
X84125Y71159D01*
X84182Y71132D01*
X84240Y71110D01*
X84301Y71091D01*
X84364Y71077D01*
X84430Y71067D01*
X84497Y71062D01*
X83622Y70612D01*
X83652Y70666D01*
X83674Y70719D01*
X83688Y70771D01*
X83694Y70823D01*
X83691Y70874D01*
X83680Y70925D01*
X83660Y70975D01*
X83633Y71025D01*
X83597Y71074D01*
X83552Y71123D01*
X83922Y71310D01*
X83970Y71266D01*
D02*
G37*
G36*
X83231Y68028D02*
X83281Y67990D01*
X83333Y67957D01*
X83388Y67931D01*
X83444Y67910D01*
X83502Y67896D01*
X83563Y67887D01*
X83626Y67884D01*
X83690Y67886D01*
X83757Y67895D01*
X83000Y67266D01*
X83020Y67328D01*
X83033Y67389D01*
X83038Y67448D01*
X83037Y67506D01*
X83028Y67562D01*
X83012Y67617D01*
X82989Y67670D01*
X82959Y67721D01*
X82922Y67771D01*
X82878Y67820D01*
X83183Y68072D01*
X83231Y68028D01*
D02*
G37*
G36*
X91443Y67213D02*
X91445Y67149D01*
X91453Y67085D01*
X91465Y67024D01*
X91482Y66965D01*
X91505Y66906D01*
X91531Y66850D01*
X91563Y66796D01*
X91600Y66743D01*
X91642Y66692D01*
X91689Y66642D01*
X90737Y66891D01*
X90796Y66911D01*
X90849Y66936D01*
X90896Y66966D01*
X90937Y67001D01*
X90971Y67041D01*
X90999Y67086D01*
X91021Y67137D01*
X91037Y67192D01*
X91046Y67253D01*
X91049Y67319D01*
X91443Y67213D01*
D02*
G37*
G36*
X87011Y66444D02*
X87020Y66382D01*
X87034Y66324D01*
X87055Y66268D01*
X87082Y66216D01*
X87114Y66167D01*
X87152Y66121D01*
X87197Y66079D01*
X87247Y66040D01*
X87303Y66004D01*
X86319D01*
X86375Y66040D01*
X86425Y66079D01*
X86470Y66121D01*
X86508Y66167D01*
X86540Y66216D01*
X86567Y66268D01*
X86588Y66324D01*
X86602Y66382D01*
X86611Y66444D01*
X86614Y66510D01*
X87008D01*
X87011Y66444D01*
D02*
G37*
G36*
X89902Y64687D02*
X89911Y64626D01*
X89927Y64571D01*
X89949Y64521D01*
X89977Y64477D01*
X90011Y64437D01*
X90052Y64403D01*
X90099Y64375D01*
X90152Y64351D01*
X90211Y64333D01*
X89266Y64059D01*
X89311Y64110D01*
X89352Y64162D01*
X89388Y64216D01*
X89419Y64271D01*
X89445Y64328D01*
X89467Y64386D01*
X89484Y64446D01*
X89496Y64508D01*
X89503Y64571D01*
X89505Y64636D01*
X89899Y64753D01*
X89902Y64687D01*
D02*
G37*
G36*
X18796Y75786D02*
Y65369D01*
X16674Y63247D01*
X16570Y62995D01*
X16159Y62756D01*
X15987Y62736D01*
X15760Y62781D01*
X15730Y62806D01*
X15456Y63206D01*
Y73154D01*
X18296Y75993D01*
X18796Y75786D01*
D02*
G37*
G36*
X102313Y70601D02*
Y62236D01*
X101852Y62045D01*
X100442Y63454D01*
Y71765D01*
X100942Y71973D01*
X102313Y70601D01*
D02*
G37*
G36*
X15072Y62604D02*
X15122Y62564D01*
X15173Y62529D01*
X15228Y62498D01*
X15284Y62471D01*
X15343Y62448D01*
X15404Y62430D01*
X15467Y62416D01*
X15532Y62406D01*
X15600Y62400D01*
X14724Y61951D01*
X14755Y62004D01*
X14778Y62056D01*
X14793Y62107D01*
X14800Y62158D01*
X14799Y62207D01*
X14791Y62255D01*
X14774Y62303D01*
X14750Y62349D01*
X14718Y62394D01*
X14678Y62438D01*
X15025Y62648D01*
X15072Y62604D01*
D02*
G37*
G36*
X25178Y75732D02*
Y65887D01*
X25254Y65503D01*
X25471Y65178D01*
X27266Y63383D01*
Y61437D01*
X25576D01*
X25396Y61557D01*
X25012Y61633D01*
X22694D01*
X22340Y61870D01*
X22176Y62414D01*
X22893Y63131D01*
X23080Y63583D01*
Y74341D01*
X24678Y75939D01*
X25178Y75732D01*
D02*
G37*
G36*
X89369Y62033D02*
X89420Y61995D01*
X89472Y61964D01*
X89525Y61940D01*
X89581Y61922D01*
X89638Y61911D01*
X89697Y61907D01*
X89758Y61909D01*
X89821Y61918D01*
X89885Y61933D01*
X89202Y61225D01*
X89215Y61290D01*
X89222Y61354D01*
X89223Y61415D01*
X89217Y61475D01*
X89205Y61533D01*
X89186Y61589D01*
X89161Y61642D01*
X89130Y61695D01*
X89092Y61745D01*
X89048Y61793D01*
X89321Y62077D01*
X89369Y62033D01*
D02*
G37*
G36*
X15987Y60529D02*
X15937Y60490D01*
X15893Y60448D01*
X15854Y60402D01*
X15822Y60353D01*
X15795Y60301D01*
X15775Y60246D01*
X15760Y60187D01*
X15751Y60125D01*
X15748Y60059D01*
X15354D01*
X15351Y60125D01*
X15342Y60187D01*
X15328Y60246D01*
X15307Y60301D01*
X15281Y60353D01*
X15248Y60402D01*
X15210Y60448D01*
X15165Y60490D01*
X15115Y60529D01*
X15059Y60565D01*
X16043D01*
X15987Y60529D01*
D02*
G37*
G36*
X29737Y86818D02*
X29618Y86423D01*
X29539Y86310D01*
X29125Y86033D01*
X28820Y85577D01*
X28713Y85039D01*
X28820Y84502D01*
X29002Y84229D01*
Y78333D01*
X29087Y77906D01*
X29329Y77544D01*
X32546Y74328D01*
Y62120D01*
X32630Y61693D01*
X32872Y61331D01*
X33744Y60459D01*
Y60192D01*
X33563Y59992D01*
X33244Y59842D01*
X33103Y59897D01*
X33041Y60211D01*
X32736Y60667D01*
X32280Y60971D01*
X31743Y61078D01*
X31205Y60971D01*
X30749Y60667D01*
X30486Y60273D01*
X30057Y60093D01*
X29981Y60070D01*
X29273Y60778D01*
Y63799D01*
X29197Y64183D01*
X28979Y64508D01*
X27185Y66303D01*
Y76547D01*
X27108Y76931D01*
X26891Y77256D01*
X26791Y77356D01*
Y78325D01*
X27481Y79015D01*
X27699Y79340D01*
X27775Y79724D01*
Y85242D01*
X28070Y85683D01*
X28177Y86221D01*
X28079Y86709D01*
X28104Y86845D01*
X28299Y87209D01*
X29347D01*
X29737Y86818D01*
D02*
G37*
G36*
X94243Y69027D02*
Y58009D01*
X94430Y57557D01*
X95424Y56563D01*
Y51069D01*
X94924Y50862D01*
X94350Y51436D01*
X93898Y51623D01*
X83526D01*
X83334Y52085D01*
X84836Y53587D01*
X85452D01*
X85904Y53774D01*
X89035Y56905D01*
X89222Y57357D01*
Y59400D01*
X89722Y59669D01*
X90158Y59583D01*
X90695Y59689D01*
X91151Y59994D01*
X91456Y60450D01*
X91562Y60988D01*
X91456Y61525D01*
X91186Y61928D01*
X91150Y62005D01*
X91117Y62605D01*
X91274Y62840D01*
X91381Y63378D01*
X91274Y63915D01*
X91175Y64063D01*
X91405Y64619D01*
X91535Y64644D01*
X91990Y64949D01*
X92295Y65405D01*
X92402Y65942D01*
X92295Y66480D01*
X92060Y66831D01*
X92057Y66857D01*
X92042Y67251D01*
X92229Y67703D01*
Y70018D01*
X92042Y70470D01*
X91709Y70803D01*
X91854Y71366D01*
X91892Y71377D01*
X94243Y69027D01*
D02*
G37*
G36*
X83844Y59776D02*
X83890Y59741D01*
X83938Y59711D01*
X83990Y59686D01*
X84044Y59666D01*
X84101Y59651D01*
X84160Y59640D01*
X84222Y59635D01*
X84287Y59634D01*
X84355Y59638D01*
X83552Y59068D01*
X83577Y59127D01*
X83595Y59183D01*
X83607Y59237D01*
X83614Y59288D01*
X83614Y59336D01*
X83608Y59381D01*
X83595Y59424D01*
X83577Y59464D01*
X83553Y59502D01*
X83522Y59537D01*
X83801Y59815D01*
X83844Y59776D01*
D02*
G37*
G36*
X32729Y59626D02*
X32737Y59606D01*
X32750Y59582D01*
X32769Y59553D01*
X32794Y59521D01*
X32860Y59444D01*
X33000Y59297D01*
X32582Y58586D01*
X32529Y58637D01*
X32433Y58720D01*
X32390Y58752D01*
X32351Y58777D01*
X32315Y58796D01*
X32283Y58808D01*
X32254Y58814D01*
X32229Y58813D01*
X32207Y58805D01*
X32726Y59641D01*
X32729Y59626D01*
D02*
G37*
G36*
X87541Y58690D02*
X87529Y58674D01*
X87523Y58654D01*
X87521Y58631D01*
X87524Y58603D01*
X87533Y58571D01*
X87545Y58535D01*
X87563Y58496D01*
X87586Y58452D01*
X87645Y58353D01*
X86769Y58802D01*
X86836Y58807D01*
X86958Y58824D01*
X87014Y58837D01*
X87065Y58852D01*
X87112Y58870D01*
X87155Y58891D01*
X87195Y58914D01*
X87231Y58940D01*
X87262Y58968D01*
X87541Y58690D01*
D02*
G37*
G36*
X97156Y57962D02*
X97128Y57918D01*
X97107Y57874D01*
X97095Y57831D01*
X97090Y57789D01*
X97094Y57747D01*
X97105Y57706D01*
X97124Y57665D01*
X97151Y57625D01*
X97186Y57586D01*
X96906Y57310D01*
X96842Y57371D01*
X96713Y57479D01*
X96648Y57525D01*
X96584Y57567D01*
X96519Y57603D01*
X96454Y57634D01*
X96389Y57660D01*
X96323Y57681D01*
X96258Y57697D01*
X97192Y58007D01*
X97156Y57962D01*
D02*
G37*
G36*
X75063Y55998D02*
X75064Y55924D01*
X75078Y55741D01*
X75086Y55693D01*
X75096Y55652D01*
X75108Y55617D01*
X75122Y55589D01*
X75138Y55568D01*
X75155Y55552D01*
X74172Y55598D01*
X74192Y55612D01*
X74209Y55633D01*
X74225Y55660D01*
X74239Y55694D01*
X74250Y55735D01*
X74259Y55782D01*
X74267Y55836D01*
X74275Y55964D01*
X74276Y56038D01*
X75063Y55998D01*
D02*
G37*
G36*
X23197Y55874D02*
X23246Y55838D01*
X23296Y55810D01*
X23346Y55791D01*
X23397Y55780D01*
X23448Y55777D01*
X23500Y55782D01*
X23553Y55796D01*
X23606Y55818D01*
X23659Y55849D01*
X23209Y54973D01*
X23204Y55041D01*
X23194Y55106D01*
X23180Y55169D01*
X23162Y55230D01*
X23139Y55289D01*
X23112Y55345D01*
X23081Y55399D01*
X23045Y55451D01*
X23006Y55501D01*
X22962Y55548D01*
X23148Y55918D01*
X23197Y55874D01*
D02*
G37*
G36*
X82457Y54121D02*
X82411Y54071D01*
X82370Y54020D01*
X82336Y53969D01*
X82309Y53918D01*
X82288Y53866D01*
X82273Y53814D01*
X82265Y53761D01*
X82264Y53708D01*
X82269Y53655D01*
X82280Y53601D01*
X81584Y54297D01*
X81638Y54286D01*
X81691Y54281D01*
X81744Y54283D01*
X81797Y54291D01*
X81849Y54305D01*
X81901Y54326D01*
X81952Y54354D01*
X82003Y54388D01*
X82054Y54428D01*
X82104Y54475D01*
X82457Y54121D01*
D02*
G37*
G36*
X18957Y54030D02*
X18997Y54026D01*
X19097Y54011D01*
X19156Y53999D01*
X18219Y53698D01*
X18263Y53746D01*
X18448Y53981D01*
X18451Y53990D01*
X18844D01*
X18847Y54004D01*
X18857Y54015D01*
X18872Y54023D01*
X18894Y54028D01*
X18922Y54031D01*
X18957Y54030D01*
D02*
G37*
G36*
X71283Y61834D02*
X71283Y61834D01*
X71543Y61660D01*
X71850Y61599D01*
X75401D01*
X75969Y61031D01*
Y58600D01*
X74102Y56733D01*
X73928Y56473D01*
X73867Y56166D01*
Y56094D01*
X73850Y56059D01*
X73853Y56051D01*
X73850Y56044D01*
X73849Y55981D01*
X73842Y55879D01*
X73839Y55856D01*
X73631Y55717D01*
X73326Y55261D01*
X73219Y54724D01*
X73326Y54186D01*
X73566Y53828D01*
X73450Y53477D01*
X73344Y53328D01*
X70943D01*
X70932Y53337D01*
X70698Y53828D01*
X70814Y54002D01*
X70899Y54429D01*
Y55782D01*
X71082Y56055D01*
X71188Y56593D01*
X71082Y57130D01*
X70777Y57586D01*
X70321Y57890D01*
X69784Y57998D01*
X69246Y57890D01*
X68790Y57586D01*
X68485Y57130D01*
X68379Y56593D01*
X68485Y56055D01*
X68668Y55782D01*
Y54891D01*
X67845Y54069D01*
X66076D01*
Y66379D01*
X66498Y66536D01*
X66576Y66540D01*
X71283Y61834D01*
D02*
G37*
G36*
X16103Y55631D02*
X17840Y53894D01*
X17840Y53892D01*
X17837Y53853D01*
X17651Y53575D01*
X17630Y53470D01*
X17087Y53305D01*
X16401Y53991D01*
X15949Y54178D01*
X14639D01*
X13828Y54989D01*
Y57252D01*
X14290Y57444D01*
X16103Y55631D01*
D02*
G37*
G36*
X30665Y55045D02*
X30501Y54502D01*
X30362Y54475D01*
X29906Y54170D01*
X29602Y53715D01*
X29495Y53177D01*
X29582Y52737D01*
X29287Y52496D01*
X29170Y52443D01*
X27714Y53899D01*
X27262Y54086D01*
X25780D01*
X25511Y54586D01*
X25597Y55022D01*
X25490Y55559D01*
X25186Y56015D01*
X24730Y56320D01*
X24192Y56427D01*
X23655Y56320D01*
X23554Y56252D01*
X23528Y56254D01*
X23493Y56225D01*
X23470Y56222D01*
X23399Y56293D01*
X22947Y56480D01*
X22771D01*
X21296Y57954D01*
X21488Y58416D01*
X27294D01*
X30665Y55045D01*
D02*
G37*
G36*
X82428Y51805D02*
X82384Y51757D01*
X82347Y51707D01*
X82316Y51655D01*
X82291Y51601D01*
X82273Y51545D01*
X82261Y51488D01*
X82256Y51428D01*
X82257Y51369D01*
X82298Y51326D01*
X82344Y51287D01*
X82393Y51255D01*
X82445Y51228D01*
X82501Y51208D01*
X82560Y51193D01*
X82622Y51184D01*
X82687Y51181D01*
Y50787D01*
X82622Y50784D01*
X82560Y50776D01*
X82501Y50761D01*
X82445Y50740D01*
X82393Y50714D01*
X82344Y50681D01*
X82298Y50643D01*
X82256Y50598D01*
X82217Y50548D01*
X82181Y50492D01*
Y51337D01*
X81584Y51935D01*
X81649Y51921D01*
X81712Y51913D01*
X81773Y51911D01*
X81832Y51916D01*
X81890Y51928D01*
X81946Y51946D01*
X82000Y51971D01*
X82052Y52002D01*
X82102Y52040D01*
X82150Y52084D01*
X82428Y51805D01*
D02*
G37*
G36*
X19769Y52483D02*
X19748Y52429D01*
X19736Y52375D01*
X19732Y52322D01*
X19735Y52269D01*
X19747Y52218D01*
X19767Y52167D01*
X19795Y52116D01*
X19831Y52067D01*
X19876Y52018D01*
X19519Y51818D01*
X19471Y51863D01*
X19421Y51902D01*
X19369Y51937D01*
X19315Y51967D01*
X19259Y51993D01*
X19200Y52014D01*
X19139Y52030D01*
X19075Y52042D01*
X19010Y52050D01*
X18942Y52053D01*
X19797Y52539D01*
X19769Y52483D01*
D02*
G37*
G36*
X13744Y50969D02*
X13679Y51281D01*
Y51675D01*
X13703Y51677D01*
X13729Y51684D01*
X13759Y51696D01*
X13791Y51712D01*
X13826Y51733D01*
X13864Y51758D01*
X13949Y51823D01*
X14045Y51906D01*
X13744Y50969D01*
D02*
G37*
G36*
X15993Y49640D02*
X15949Y49592D01*
X15911Y49542D01*
X15880Y49490D01*
X15856Y49436D01*
X15837Y49380D01*
X15826Y49322D01*
X15821Y49263D01*
X15822Y49202D01*
X15830Y49139D01*
X15844Y49074D01*
X15148Y49770D01*
X15213Y49755D01*
X15277Y49747D01*
X15338Y49746D01*
X15397Y49751D01*
X15455Y49763D01*
X15510Y49781D01*
X15564Y49805D01*
X15616Y49837D01*
X15666Y49874D01*
X15715Y49918D01*
X15993Y49640D01*
D02*
G37*
G36*
X17326Y50129D02*
X17335Y50068D01*
X17351Y50010D01*
X17372Y49957D01*
X17400Y49909D01*
X17434Y49864D01*
X17474Y49824D01*
X17520Y49788D01*
X17573Y49756D01*
X17631Y49729D01*
X16656Y49599D01*
X16708Y49642D01*
X16754Y49688D01*
X16795Y49736D01*
X16831Y49787D01*
X16861Y49840D01*
X16885Y49895D01*
X16905Y49953D01*
X16918Y50013D01*
X16926Y50076D01*
X16929Y50141D01*
X17323Y50195D01*
X17326Y50129D01*
D02*
G37*
G36*
X19249Y49864D02*
X19203Y49819D01*
X19162Y49771D01*
X19126Y49720D01*
X19096Y49667D01*
X19071Y49611D01*
X19052Y49554D01*
X19038Y49493D01*
X19030Y49431D01*
X19028Y49366D01*
X18634Y49312D01*
X18631Y49378D01*
X18621Y49439D01*
X18606Y49496D01*
X18585Y49549D01*
X18557Y49598D01*
X18523Y49642D01*
X18483Y49682D01*
X18437Y49718D01*
X18384Y49750D01*
X18326Y49778D01*
X19301Y49908D01*
X19249Y49864D01*
D02*
G37*
G36*
X22465Y48236D02*
X22399Y48226D01*
X22334Y48212D01*
X22272Y48194D01*
X22212Y48172D01*
X22154Y48147D01*
X22099Y48117D01*
X22045Y48085D01*
X21994Y48048D01*
X21945Y48008D01*
X21898Y47964D01*
X21514Y48137D01*
X21556Y48183D01*
X21590Y48230D01*
X21615Y48277D01*
X21632Y48325D01*
X21641Y48373D01*
X21641Y48421D01*
X21633Y48469D01*
X21616Y48518D01*
X21591Y48567D01*
X21557Y48616D01*
X22465Y48236D01*
D02*
G37*
G36*
X26226Y48617D02*
X26218Y48554D01*
X26216Y48493D01*
X26221Y48433D01*
X26233Y48376D01*
X26251Y48320D01*
X26276Y48266D01*
X26307Y48214D01*
X26345Y48164D01*
X26389Y48116D01*
X26111Y47837D01*
X26062Y47881D01*
X26012Y47919D01*
X25960Y47950D01*
X25906Y47975D01*
X25850Y47993D01*
X25793Y48005D01*
X25733Y48010D01*
X25672Y48008D01*
X25609Y48000D01*
X25544Y47986D01*
X26240Y48682D01*
X26226Y48617D01*
D02*
G37*
G36*
X32008Y46765D02*
X32017Y46703D01*
X32031Y46644D01*
X32052Y46589D01*
X32078Y46536D01*
X32111Y46488D01*
X32149Y46442D01*
X32194Y46400D01*
X32244Y46361D01*
X32300Y46325D01*
X31316D01*
X31372Y46361D01*
X31422Y46400D01*
X31466Y46442D01*
X31505Y46488D01*
X31537Y46536D01*
X31564Y46589D01*
X31584Y46644D01*
X31599Y46703D01*
X31608Y46765D01*
X31611Y46830D01*
X32005D01*
X32008Y46765D01*
D02*
G37*
G36*
X19545Y46220D02*
X19492Y46251D01*
X19439Y46273D01*
X19387Y46287D01*
X19335Y46292D01*
X19283Y46289D01*
X19233Y46278D01*
X19182Y46259D01*
X19132Y46231D01*
X19083Y46195D01*
X19034Y46151D01*
X18848Y46521D01*
X18892Y46568D01*
X18932Y46618D01*
X18967Y46670D01*
X18998Y46724D01*
X19025Y46780D01*
X19048Y46839D01*
X19066Y46900D01*
X19080Y46963D01*
X19090Y47028D01*
X19096Y47096D01*
X19545Y46220D01*
D02*
G37*
G36*
X24550Y45246D02*
X24500Y45289D01*
X24304Y45436D01*
X24276Y45452D01*
X24251Y45463D01*
X24230Y45470D01*
X24213Y45472D01*
Y45866D01*
X24205Y45869D01*
X24200Y45879D01*
X24196Y45894D01*
X24195Y45916D01*
X24196Y45944D01*
X24199Y45978D01*
X24211Y46066D01*
X24231Y46178D01*
X24550Y45246D01*
D02*
G37*
G36*
X69577Y51772D02*
X69872Y51575D01*
X70221Y51505D01*
X73514D01*
X74096Y50923D01*
Y49774D01*
X73840Y49723D01*
X73385Y49418D01*
X73080Y48963D01*
X72973Y48425D01*
X73080Y47887D01*
X73385Y47431D01*
X73302Y46885D01*
X73111Y46601D01*
X73005Y46063D01*
X73111Y45525D01*
X73416Y45070D01*
X73872Y44765D01*
X74410Y44658D01*
X76378D01*
X76916Y44765D01*
X77371Y45070D01*
X77621Y45444D01*
X78163Y45609D01*
X81277Y42495D01*
X81277Y42495D01*
X81539Y42320D01*
X81849Y42258D01*
X82028D01*
X82045Y42248D01*
X82079Y42256D01*
X82112Y42242D01*
X82174Y42241D01*
X82261Y42235D01*
X82471Y41920D01*
X82927Y41615D01*
X83465Y41508D01*
X83971Y41609D01*
X84002Y41587D01*
X84177Y41108D01*
X82078Y39009D01*
X75201D01*
X75086Y38961D01*
X75077Y38959D01*
X75061Y38963D01*
X74606Y38872D01*
X74152Y38963D01*
X74136Y38959D01*
X74132Y38960D01*
X72306Y40786D01*
X71883Y41069D01*
X71384Y41168D01*
X70390D01*
X69358Y42201D01*
X69179Y42468D01*
X68723Y42772D01*
X68186Y42879D01*
X67648Y42772D01*
X67192Y42468D01*
X66888Y42012D01*
X66781Y41475D01*
X66888Y40937D01*
X67192Y40481D01*
X67648Y40176D01*
X67703Y40166D01*
X68927Y38941D01*
X69350Y38659D01*
X69849Y38559D01*
X70843D01*
X72802Y36600D01*
Y35649D01*
X68898D01*
X68514Y35573D01*
X68188Y35355D01*
X67104Y34271D01*
X66192D01*
X66092Y34371D01*
X65766Y34589D01*
X65382Y34665D01*
X62863D01*
X62712Y35165D01*
X62805Y35227D01*
X64379Y36802D01*
X64684Y37258D01*
X64791Y37795D01*
X64684Y38333D01*
X64379Y38789D01*
X63924Y39093D01*
X63386Y39200D01*
X62848Y39093D01*
X62392Y38789D01*
X61229Y37625D01*
X61221D01*
X60683Y37519D01*
X60279Y37249D01*
X57895D01*
X57260Y37884D01*
X56898Y38126D01*
X56471Y38210D01*
X49011D01*
X48550Y38671D01*
X48188Y38913D01*
X47761Y38998D01*
X41976D01*
X41969Y39008D01*
X41767Y39143D01*
X41645Y39167D01*
X41530Y39215D01*
X41067D01*
X40717Y39360D01*
X40449Y39627D01*
X40304Y39977D01*
Y40356D01*
X40449Y40706D01*
X40717Y40973D01*
X41067Y41118D01*
X41530D01*
X41557Y41129D01*
X41981D01*
X42180Y40931D01*
X42206Y40801D01*
X42510Y40345D01*
X42966Y40040D01*
X43504Y39934D01*
X44041Y40040D01*
X44497Y40345D01*
X44802Y40801D01*
X44830Y40944D01*
X45991Y42105D01*
X55020D01*
X55442Y42189D01*
X55602Y42296D01*
X55963Y41935D01*
X55923Y41875D01*
X55816Y41337D01*
X55923Y40800D01*
X56227Y40344D01*
X56683Y40039D01*
X57221Y39932D01*
X57758Y40039D01*
X58214Y40344D01*
X58518Y40800D01*
X58625Y41337D01*
X58518Y41875D01*
X58214Y42331D01*
X58155Y42972D01*
X58282Y43162D01*
X58389Y43699D01*
X58303Y44127D01*
X58486Y44359D01*
X58517Y44387D01*
X58700Y44504D01*
X59152Y44414D01*
X59689Y44521D01*
X60145Y44826D01*
X60450Y45281D01*
X60557Y45819D01*
X60450Y46356D01*
X60410Y46416D01*
X60677Y46916D01*
X61417D01*
X61844Y47001D01*
X62206Y47242D01*
X65750Y50786D01*
X65992Y51148D01*
X66076Y51575D01*
Y51837D01*
X68307D01*
X68734Y51922D01*
X69096Y52164D01*
X69141Y52208D01*
X69577Y51772D01*
D02*
G37*
G36*
X80130Y47912D02*
X80456Y47695D01*
X80840Y47618D01*
X81671D01*
X84644Y44646D01*
X84652Y44614D01*
X84608Y44402D01*
X84054Y44177D01*
X84002Y44211D01*
X83465Y44318D01*
X82927Y44211D01*
X82471Y43907D01*
X82024Y44035D01*
X78786Y47274D01*
Y48604D01*
X79247Y48795D01*
X80130Y47912D01*
D02*
G37*
G36*
X82546Y42561D02*
X82534Y42581D01*
X82515Y42599D01*
X82490Y42615D01*
X82458Y42629D01*
X82418Y42641D01*
X82372Y42650D01*
X82319Y42658D01*
X82192Y42667D01*
X82118Y42668D01*
X82257Y43467D01*
X82332Y43468D01*
X82562Y43483D01*
X82603Y43491D01*
X82637Y43499D01*
X82665Y43509D01*
X82686Y43520D01*
X82700Y43533D01*
X82546Y42561D01*
D02*
G37*
G36*
X18419Y42919D02*
X18468Y42879D01*
X18520Y42844D01*
X18574Y42813D01*
X18630Y42786D01*
X18689Y42763D01*
X18750Y42745D01*
X18813Y42731D01*
X18879Y42721D01*
X18946Y42715D01*
X18071Y42266D01*
X18101Y42319D01*
X18123Y42372D01*
X18137Y42424D01*
X18143Y42476D01*
X18140Y42528D01*
X18129Y42579D01*
X18109Y42629D01*
X18081Y42679D01*
X18045Y42728D01*
X18001Y42777D01*
X18371Y42963D01*
X18419Y42919D01*
D02*
G37*
G36*
X41732Y41680D02*
X41530Y41544D01*
X40982D01*
X40475Y41335D01*
X40088Y40947D01*
X39878Y40441D01*
Y39893D01*
X40088Y39386D01*
X40475Y38998D01*
X40982Y38789D01*
X41530D01*
X41732Y38653D01*
Y37205D01*
X39383D01*
X35933Y40655D01*
Y41977D01*
X36433Y42264D01*
X36711Y42149D01*
X37259D01*
X37766Y42358D01*
X38153Y42746D01*
X38363Y43252D01*
Y43801D01*
X38153Y44307D01*
X37766Y44695D01*
X37259Y44904D01*
X36991D01*
X36816Y45209D01*
X36767Y45404D01*
X36951Y45679D01*
X37027Y46063D01*
Y47441D01*
X41732D01*
Y41680D01*
D02*
G37*
G36*
X15486Y41634D02*
X15450Y41690D01*
X15411Y41740D01*
X15369Y41784D01*
X15324Y41823D01*
X15274Y41855D01*
X15222Y41882D01*
X15167Y41903D01*
X15108Y41917D01*
X15046Y41926D01*
X14980Y41929D01*
Y42323D01*
X15046Y42326D01*
X15108Y42335D01*
X15167Y42349D01*
X15222Y42370D01*
X15274Y42397D01*
X15324Y42429D01*
X15369Y42467D01*
X15411Y42512D01*
X15450Y42562D01*
X15486Y42618D01*
Y41634D01*
D02*
G37*
G36*
X25436Y41623D02*
X25386Y41584D01*
X25341Y41542D01*
X25303Y41496D01*
X25271Y41447D01*
X25244Y41395D01*
X25223Y41339D01*
X25209Y41280D01*
X25200Y41218D01*
X25197Y41153D01*
X24803D01*
X24800Y41218D01*
X24791Y41280D01*
X24777Y41339D01*
X24756Y41395D01*
X24729Y41447D01*
X24697Y41496D01*
X24658Y41542D01*
X24614Y41584D01*
X24564Y41623D01*
X24508Y41659D01*
X25492D01*
X25436Y41623D01*
D02*
G37*
G36*
X16775Y41238D02*
X16724Y41199D01*
X16680Y41157D01*
X16642Y41111D01*
X16609Y41062D01*
X16583Y41010D01*
X16562Y40954D01*
X16547Y40895D01*
X16538Y40833D01*
X16535Y40768D01*
X16142D01*
X16139Y40833D01*
X16130Y40895D01*
X16115Y40954D01*
X16094Y41010D01*
X16068Y41062D01*
X16035Y41111D01*
X15997Y41157D01*
X15953Y41199D01*
X15903Y41238D01*
X15846Y41274D01*
X16831D01*
X16775Y41238D01*
D02*
G37*
G36*
X108604Y39263D02*
X108591Y39246D01*
X108583Y39225D01*
X108581Y39201D01*
X108583Y39172D01*
X108590Y39140D01*
X108602Y39103D01*
X108620Y39063D01*
X108642Y39019D01*
X108701Y38919D01*
X107826Y39369D01*
X107892Y39374D01*
X108015Y39392D01*
X108071Y39405D01*
X108123Y39421D01*
X108171Y39439D01*
X108215Y39461D01*
X108256Y39485D01*
X108292Y39512D01*
X108325Y39542D01*
X108604Y39263D01*
D02*
G37*
G36*
X82284Y33465D02*
X78301D01*
X77990Y33672D01*
X77453Y33779D01*
X76915Y33672D01*
X76605Y33465D01*
X75606D01*
X75600Y33474D01*
X75144Y33778D01*
X74606Y33885D01*
X74069Y33778D01*
X73622Y33480D01*
X73228Y33743D01*
Y38583D01*
X74011D01*
X74069Y38544D01*
X74606Y38438D01*
X75144Y38544D01*
X75201Y38583D01*
X82284D01*
Y33465D01*
D02*
G37*
G36*
X15538Y37236D02*
X15585Y37202D01*
X15633Y37175D01*
X15684Y37155D01*
X15736Y37141D01*
X15791Y37135D01*
X15847Y37134D01*
X15905Y37141D01*
X15965Y37154D01*
X16027Y37174D01*
X15399Y36417D01*
X15408Y36483D01*
X15411Y36548D01*
X15407Y36611D01*
X15399Y36672D01*
X15384Y36730D01*
X15363Y36786D01*
X15337Y36841D01*
X15304Y36893D01*
X15266Y36943D01*
X15222Y36991D01*
X15494Y37276D01*
X15538Y37236D01*
D02*
G37*
G36*
X28356Y44464D02*
X28485Y44430D01*
X30660Y42255D01*
Y36109D01*
X30160Y35901D01*
X27214Y38848D01*
Y43761D01*
X27926Y44473D01*
X28356Y44464D01*
D02*
G37*
G36*
X17055Y35542D02*
X16870Y35307D01*
X16868Y35298D01*
X16474D01*
X16471Y35284D01*
X16461Y35273D01*
X16446Y35265D01*
X16424Y35260D01*
X16396Y35258D01*
X16362Y35258D01*
X16321Y35262D01*
X16221Y35277D01*
X16162Y35289D01*
X17099Y35590D01*
X17055Y35542D01*
D02*
G37*
G36*
X47759Y36305D02*
X48121Y36064D01*
X48548Y35979D01*
X56009D01*
X56644Y35344D01*
X56911Y35165D01*
X56837Y34686D01*
X56828Y34665D01*
X41923D01*
X40292Y36296D01*
X40406Y36606D01*
X40529Y36766D01*
X47299D01*
X47759Y36305D01*
D02*
G37*
G36*
X94243Y49735D02*
Y35895D01*
X92264Y33917D01*
X92077Y33465D01*
Y28808D01*
X87137Y23868D01*
X64635D01*
X62854Y25649D01*
X62808Y25880D01*
X66614Y29686D01*
X66631Y29693D01*
X66650Y29698D01*
X66672Y29702D01*
X66697Y29704D01*
X66727D01*
X66777Y29700D01*
X66824Y29716D01*
X66872Y29703D01*
X66879Y29708D01*
X66929Y29697D01*
X67467Y29804D01*
X67923Y30109D01*
X68227Y30565D01*
X68334Y31102D01*
X68227Y31640D01*
X68060Y31890D01*
X67965Y32166D01*
X68180Y32525D01*
X68229Y32558D01*
X69313Y33642D01*
X72822D01*
X72879Y33557D01*
X72927Y33442D01*
X72967Y33425D01*
X72992Y33389D01*
X73385Y33126D01*
X73468Y33109D01*
X73539Y33062D01*
X73622Y33079D01*
X73705Y33062D01*
X73776Y33109D01*
X73859Y33126D01*
X74235Y33377D01*
X74606Y33451D01*
X74978Y33377D01*
X75363Y33119D01*
X75435Y33105D01*
X75523Y33047D01*
X75566Y33055D01*
X75606Y33038D01*
X76605D01*
X76719Y33086D01*
X76841Y33110D01*
X77081Y33271D01*
X77453Y33345D01*
X77824Y33271D01*
X78064Y33110D01*
X78186Y33086D01*
X78301Y33038D01*
X82284D01*
X82585Y33163D01*
X82710Y33465D01*
Y36802D01*
X86536Y40629D01*
X86754Y40955D01*
X86830Y41339D01*
Y44882D01*
X86754Y45266D01*
X86536Y45592D01*
X82796Y49332D01*
X82560Y49489D01*
X82465Y50000D01*
X82757Y50345D01*
X93633D01*
X94243Y49735D01*
D02*
G37*
G36*
X16803Y33264D02*
X16811Y33206D01*
X16824Y33155D01*
X16843Y33112D01*
X16867Y33077D01*
X16896Y33050D01*
X16931Y33031D01*
X16971Y33020D01*
X17017Y33017D01*
X17068Y33021D01*
X16305Y32400D01*
X16324Y32454D01*
X16356Y32565D01*
X16370Y32622D01*
X16390Y32740D01*
X16397Y32801D01*
X16406Y32990D01*
X16800Y33331D01*
X16803Y33264D01*
D02*
G37*
G36*
X96460Y32395D02*
X96469Y32333D01*
X96483Y32274D01*
X96504Y32219D01*
X96530Y32166D01*
X96563Y32118D01*
X96601Y32072D01*
X96646Y32030D01*
X96696Y31991D01*
X96752Y31955D01*
X95768D01*
X95824Y31991D01*
X95874Y32030D01*
X95918Y32072D01*
X95957Y32118D01*
X95989Y32166D01*
X96016Y32219D01*
X96036Y32274D01*
X96051Y32333D01*
X96060Y32395D01*
X96063Y32460D01*
X96457D01*
X96460Y32395D01*
D02*
G37*
G36*
X18124Y32461D02*
X18161Y32410D01*
X18202Y32365D01*
X18245Y32326D01*
X18291Y32293D01*
X18340Y32266D01*
X18393Y32245D01*
X18448Y32230D01*
X18507Y32221D01*
X18569Y32219D01*
Y31825D01*
X18505Y31822D01*
X18444Y31813D01*
X18386Y31799D01*
X18331Y31778D01*
X18279Y31752D01*
X18230Y31720D01*
X18184Y31682D01*
X18140Y31638D01*
X18100Y31589D01*
X18063Y31534D01*
X18091Y32517D01*
X18124Y32461D01*
D02*
G37*
G36*
X26396Y32021D02*
X26405Y31960D01*
X26421Y31903D01*
X26442Y31852D01*
X26470Y31804D01*
X26505Y31762D01*
X26545Y31724D01*
X26592Y31690D01*
X26645Y31662D01*
X26704Y31637D01*
X25736Y31455D01*
X25786Y31501D01*
X25831Y31550D01*
X25870Y31600D01*
X25904Y31652D01*
X25933Y31707D01*
X25957Y31763D01*
X25975Y31822D01*
X25988Y31883D01*
X25996Y31946D01*
X25999Y32011D01*
X26393Y32087D01*
X26396Y32021D01*
D02*
G37*
G36*
X101938Y31887D02*
X101941Y31822D01*
X101950Y31759D01*
X101964Y31699D01*
X101984Y31643D01*
X102009Y31589D01*
X102041Y31538D01*
X102077Y31489D01*
X102120Y31444D01*
X102169Y31401D01*
X102223Y31361D01*
X101241Y31431D01*
X101299Y31462D01*
X101350Y31497D01*
X101396Y31536D01*
X101435Y31579D01*
X101469Y31626D01*
X101496Y31676D01*
X101517Y31730D01*
X101532Y31788D01*
X101541Y31850D01*
X101544Y31916D01*
X101938Y31887D01*
D02*
G37*
G36*
X44737Y31942D02*
X44798Y31891D01*
X44859Y31846D01*
X44921Y31807D01*
X44984Y31773D01*
X45048Y31745D01*
X45114Y31722D01*
X45180Y31705D01*
X45247Y31693D01*
X45316Y31687D01*
X44440Y31238D01*
X44470Y31291D01*
X44493Y31344D01*
X44506Y31396D01*
X44512Y31448D01*
X44509Y31499D01*
X44498Y31550D01*
X44479Y31601D01*
X44451Y31651D01*
X44415Y31700D01*
X44370Y31749D01*
X44678Y31997D01*
X44737Y31942D01*
D02*
G37*
G36*
X41837Y31640D02*
X41885Y31605D01*
X41933Y31578D01*
X41981Y31560D01*
X42028Y31551D01*
X42075Y31552D01*
X42122Y31561D01*
X42168Y31578D01*
X42214Y31605D01*
X42259Y31641D01*
X41949Y30707D01*
X41933Y30772D01*
X41912Y30838D01*
X41886Y30903D01*
X41855Y30968D01*
X41819Y31032D01*
X41777Y31097D01*
X41731Y31162D01*
X41623Y31290D01*
X41562Y31355D01*
X41788Y31685D01*
X41837Y31640D01*
D02*
G37*
G36*
X66811Y30125D02*
X66744Y30131D01*
X66679D01*
X66615Y30125D01*
X66554Y30114D01*
X66496Y30098D01*
X66439Y30075D01*
X66385Y30048D01*
X66332Y30015D01*
X66282Y29976D01*
X66234Y29932D01*
X65915Y30170D01*
X65959Y30218D01*
X65996Y30268D01*
X66026Y30320D01*
X66048Y30372D01*
X66062Y30426D01*
X66069Y30481D01*
X66069Y30538D01*
X66062Y30596D01*
X66047Y30655D01*
X66024Y30716D01*
X66811Y30125D01*
D02*
G37*
G36*
X107825Y69223D02*
Y40250D01*
X107695Y39775D01*
X107665Y39749D01*
X107336Y39684D01*
X106881Y39379D01*
X106576Y38923D01*
X106469Y38386D01*
X106576Y37848D01*
X106881Y37392D01*
X107336Y37088D01*
X107874Y36981D01*
X108310Y37067D01*
X108810Y36798D01*
Y29792D01*
X108385Y29367D01*
X107923Y29559D01*
Y33661D01*
X107735Y34113D01*
X105561Y36288D01*
Y70835D01*
X106022Y71026D01*
X107825Y69223D01*
D02*
G37*
G36*
X100881Y32270D02*
X100922Y32147D01*
X100932Y32054D01*
X100849Y31654D01*
X100678Y31539D01*
X100373Y31083D01*
X100266Y30546D01*
X100373Y30008D01*
X100591Y29682D01*
X100425Y29250D01*
X100369Y29182D01*
X98704D01*
X98474Y29528D01*
Y32412D01*
X99468Y33406D01*
X99699Y33452D01*
X100881Y32270D01*
D02*
G37*
G36*
X38328Y31831D02*
X38780Y31644D01*
X39364D01*
X39909Y31099D01*
X40361Y30912D01*
X41379D01*
X41404Y30887D01*
X41425Y30858D01*
X41453Y30814D01*
X41477Y30771D01*
X41496Y30731D01*
X41511Y30693D01*
X41523Y30656D01*
X41535Y30605D01*
X41565Y30565D01*
X41568Y30516D01*
X41590Y30497D01*
X41615Y30368D01*
X41920Y29912D01*
X42376Y29607D01*
X42913Y29501D01*
X43451Y29607D01*
X43652Y29741D01*
X44274Y29711D01*
X44729Y29406D01*
X45267Y29299D01*
X45805Y29406D01*
X46260Y29711D01*
X46565Y30167D01*
X46672Y30704D01*
X46565Y31242D01*
X46260Y31698D01*
X45805Y32002D01*
X45571Y32049D01*
X45485Y32158D01*
X45729Y32658D01*
X64967D01*
X65066Y32558D01*
X65392Y32341D01*
X65486Y32322D01*
X65727Y31783D01*
X65631Y31640D01*
X65524Y31102D01*
X65608Y30680D01*
X65602Y30656D01*
X65619Y30628D01*
X65625Y30593D01*
X65624Y30568D01*
X65639Y30528D01*
X65641Y30521D01*
X61940Y26820D01*
X52165D01*
X51713Y26633D01*
X48160Y23080D01*
X43313D01*
X36072Y30321D01*
Y31041D01*
X35885Y31493D01*
X31938Y35439D01*
Y35827D01*
X31938Y35827D01*
Y37567D01*
X32400Y37759D01*
X38328Y31831D01*
D02*
G37*
G36*
X49188Y21389D02*
X49190Y21324D01*
X49197Y21261D01*
X49209Y21199D01*
X49225Y21139D01*
X49246Y21080D01*
X49271Y21023D01*
X49301Y20967D01*
X49336Y20912D01*
X49375Y20859D01*
X49419Y20807D01*
X48482Y21108D01*
X48541Y21125D01*
X48594Y21146D01*
X48641Y21174D01*
X48682Y21206D01*
X48716Y21245D01*
X48744Y21288D01*
X48766Y21338D01*
X48782Y21393D01*
X48791Y21453D01*
X48794Y21519D01*
X49188Y21389D01*
D02*
G37*
G36*
X87995Y21175D02*
X88004Y21113D01*
X88019Y21054D01*
X88039Y20998D01*
X88066Y20946D01*
X88098Y20897D01*
X88137Y20851D01*
X88181Y20809D01*
X88231Y20770D01*
X88287Y20734D01*
X87303D01*
X87359Y20770D01*
X87410Y20809D01*
X87454Y20851D01*
X87492Y20897D01*
X87525Y20946D01*
X87551Y20998D01*
X87572Y21054D01*
X87587Y21113D01*
X87595Y21175D01*
X87598Y21240D01*
X87992D01*
X87995Y21175D01*
D02*
G37*
G36*
X72667Y20617D02*
X72623Y20569D01*
X72587Y20519D01*
X72557Y20468D01*
X72535Y20415D01*
X72521Y20361D01*
X72513Y20306D01*
X72514Y20249D01*
X72521Y20191D01*
X72536Y20132D01*
X72559Y20072D01*
X71771Y20662D01*
X71839Y20657D01*
X71904D01*
X71967Y20662D01*
X72028Y20673D01*
X72087Y20690D01*
X72144Y20712D01*
X72198Y20739D01*
X72250Y20773D01*
X72300Y20811D01*
X72348Y20855D01*
X72667Y20617D01*
D02*
G37*
G36*
X99721Y20506D02*
X99677Y20458D01*
X99640Y20408D01*
X99609Y20356D01*
X99584Y20302D01*
X99566Y20246D01*
X99554Y20188D01*
X99549Y20129D01*
X99550Y20068D01*
X99558Y20005D01*
X99573Y19940D01*
X98877Y20636D01*
X98942Y20621D01*
X99005Y20614D01*
X99066Y20612D01*
X99125Y20617D01*
X99183Y20629D01*
X99239Y20647D01*
X99293Y20672D01*
X99345Y20703D01*
X99395Y20740D01*
X99443Y20785D01*
X99721Y20506D01*
D02*
G37*
G36*
X77674D02*
X77630Y20458D01*
X77592Y20408D01*
X77561Y20356D01*
X77537Y20302D01*
X77519Y20246D01*
X77507Y20188D01*
X77502Y20129D01*
X77503Y20068D01*
X77511Y20005D01*
X77526Y19940D01*
X76829Y20636D01*
X76894Y20621D01*
X76958Y20614D01*
X77019Y20612D01*
X77078Y20617D01*
X77136Y20629D01*
X77192Y20647D01*
X77245Y20672D01*
X77297Y20703D01*
X77348Y20740D01*
X77396Y20785D01*
X77674Y20506D01*
D02*
G37*
G36*
X91960Y21164D02*
X91962Y21099D01*
X91970Y21036D01*
X91983Y20975D01*
X92000Y20915D01*
X92023Y20858D01*
X92050Y20802D01*
X92083Y20748D01*
X92121Y20696D01*
X92164Y20646D01*
X92211Y20597D01*
X91254Y20825D01*
X91313Y20846D01*
X91366Y20872D01*
X91413Y20903D01*
X91454Y20939D01*
X91488Y20980D01*
X91516Y21026D01*
X91538Y21077D01*
X91554Y21133D01*
X91563Y21194D01*
X91566Y21259D01*
X91960Y21164D01*
D02*
G37*
G36*
X36223Y20978D02*
X36232Y20916D01*
X36247Y20857D01*
X36268Y20801D01*
X36294Y20749D01*
X36327Y20700D01*
X36365Y20654D01*
X36409Y20612D01*
X36460Y20573D01*
X36516Y20537D01*
X35531D01*
X35588Y20573D01*
X35638Y20612D01*
X35682Y20654D01*
X35721Y20700D01*
X35753Y20749D01*
X35780Y20801D01*
X35800Y20857D01*
X35815Y20916D01*
X35824Y20978D01*
X35827Y21043D01*
X36220D01*
X36223Y20978D01*
D02*
G37*
G36*
X65763Y20740D02*
X65813Y20703D01*
X65865Y20672D01*
X65919Y20647D01*
X65974Y20629D01*
X66032Y20617D01*
X66091Y20612D01*
X66153Y20614D01*
X66216Y20621D01*
X66281Y20636D01*
X65585Y19940D01*
X65599Y20005D01*
X65607Y20068D01*
X65608Y20129D01*
X65603Y20188D01*
X65592Y20246D01*
X65574Y20302D01*
X65549Y20356D01*
X65518Y20408D01*
X65480Y20458D01*
X65436Y20506D01*
X65714Y20785D01*
X65763Y20740D01*
D02*
G37*
G36*
X44578Y19674D02*
X44562Y19734D01*
X44540Y19787D01*
X44513Y19834D01*
X44480Y19874D01*
X44442Y19908D01*
X44398Y19936D01*
X44349Y19958D01*
X44294Y19974D01*
X44233Y19983D01*
X44168Y19986D01*
X44297Y20380D01*
X44362Y20382D01*
X44425Y20389D01*
X44487Y20401D01*
X44547Y20417D01*
X44606Y20438D01*
X44664Y20463D01*
X44720Y20493D01*
X44774Y20528D01*
X44827Y20567D01*
X44879Y20611D01*
X44578Y19674D01*
D02*
G37*
G36*
X62517Y20448D02*
X62568Y20410D01*
X62620Y20379D01*
X62674Y20355D01*
X62729Y20336D01*
X62787Y20325D01*
X62846Y20320D01*
X62907Y20321D01*
X62971Y20329D01*
X63036Y20343D01*
X62340Y19647D01*
X62354Y19712D01*
X62362Y19775D01*
X62363Y19837D01*
X62358Y19896D01*
X62347Y19954D01*
X62328Y20009D01*
X62304Y20063D01*
X62273Y20115D01*
X62235Y20165D01*
X62191Y20214D01*
X62469Y20492D01*
X62517Y20448D01*
D02*
G37*
G36*
X54921Y19079D02*
X54877Y19131D01*
X54832Y19178D01*
X54784Y19218D01*
X54734Y19254D01*
X54683Y19284D01*
X54629Y19309D01*
X54573Y19328D01*
X54514Y19341D01*
X54454Y19350D01*
X54392Y19352D01*
Y19746D01*
X54444Y19749D01*
X54494Y19758D01*
X54541Y19774D01*
X54585Y19795D01*
X54626Y19823D01*
X54664Y19857D01*
X54699Y19897D01*
X54732Y19943D01*
X54761Y19996D01*
X54788Y20055D01*
X54921Y19079D01*
D02*
G37*
G36*
X80124Y20121D02*
X80036Y19679D01*
X80121Y19250D01*
X79849Y18749D01*
X78162D01*
X77893Y19250D01*
X77980Y19685D01*
X77936Y19903D01*
X77952Y19940D01*
X77933Y19984D01*
X77942Y20032D01*
X77931Y20077D01*
X77929Y20099D01*
X77928Y20116D01*
X77930Y20128D01*
X77931Y20138D01*
X77931Y20138D01*
X78414Y20621D01*
X79857D01*
X80124Y20121D01*
D02*
G37*
G36*
X17850Y40820D02*
X17904Y40739D01*
X18360Y40434D01*
X18898Y40327D01*
X19435Y40434D01*
X19530Y40498D01*
X20030Y40230D01*
Y37660D01*
X20217Y37208D01*
X25226Y32200D01*
X25273Y32107D01*
X25385Y31702D01*
X25080Y31246D01*
X24973Y30709D01*
X25080Y30171D01*
X25385Y29715D01*
X25840Y29411D01*
X26378Y29304D01*
X26916Y29411D01*
X27371Y29715D01*
X27676Y30171D01*
X27707Y30327D01*
X28250Y30492D01*
X29873Y28869D01*
Y28150D01*
X30060Y27698D01*
X35384Y22373D01*
Y20964D01*
X35384Y20964D01*
X35379Y20956D01*
X35371Y20947D01*
X35359Y20935D01*
X35342Y20922D01*
X35303Y20897D01*
X35275Y20857D01*
X35230Y20839D01*
X35215Y20802D01*
X35030Y20678D01*
X34726Y20223D01*
X34619Y19685D01*
X34705Y19250D01*
X34436Y18749D01*
X32942D01*
X32265Y19427D01*
Y21721D01*
X32077Y22173D01*
X22247Y32003D01*
X18584Y35667D01*
Y36904D01*
X18553Y36978D01*
Y37008D01*
X18365Y37460D01*
X16978Y38847D01*
Y40595D01*
X17319Y40900D01*
X17850Y40820D01*
D02*
G37*
G36*
X59001Y19377D02*
X58994Y19313D01*
X58993Y19252D01*
X58999Y19192D01*
X59011Y19135D01*
X59029Y19079D01*
X59054Y19025D01*
X59086Y18973D01*
X59123Y18923D01*
X59167Y18874D01*
X58893Y18592D01*
X58844Y18636D01*
X58794Y18674D01*
X58742Y18705D01*
X58688Y18729D01*
X58633Y18747D01*
X58575Y18758D01*
X58516Y18763D01*
X58455Y18761D01*
X58392Y18753D01*
X58328Y18737D01*
X59015Y19442D01*
X59001Y19377D01*
D02*
G37*
G36*
X70154Y19201D02*
X70137Y19143D01*
X70128Y19086D01*
X70126Y19031D01*
X70132Y18977D01*
X70146Y18923D01*
X70167Y18871D01*
X70196Y18820D01*
X70233Y18771D01*
X70277Y18722D01*
X69945Y18497D01*
X69897Y18541D01*
X69847Y18580D01*
X69795Y18613D01*
X69741Y18642D01*
X69684Y18665D01*
X69625Y18683D01*
X69564Y18696D01*
X69500Y18704D01*
X69435Y18706D01*
X69367Y18704D01*
X70179Y19260D01*
X70154Y19201D01*
D02*
G37*
G36*
X82276Y19148D02*
X82256Y19092D01*
X82245Y19037D01*
X82241Y18983D01*
X82246Y18930D01*
X82258Y18878D01*
X82279Y18827D01*
X82307Y18776D01*
X82344Y18727D01*
X82388Y18678D01*
X82039Y18470D01*
X81992Y18514D01*
X81942Y18553D01*
X81890Y18587D01*
X81835Y18617D01*
X81779Y18642D01*
X81720Y18662D01*
X81659Y18677D01*
X81595Y18688D01*
X81529Y18694D01*
X81461Y18695D01*
X82303Y19205D01*
X82276Y19148D01*
D02*
G37*
G36*
X100697Y18341D02*
X100631Y18355D01*
X100568Y18363D01*
X100507Y18364D01*
X100448Y18359D01*
X100390Y18348D01*
X100335Y18329D01*
X100281Y18305D01*
X100229Y18274D01*
X100178Y18236D01*
X100130Y18192D01*
X99852Y18470D01*
X99896Y18519D01*
X99933Y18569D01*
X99965Y18621D01*
X99989Y18675D01*
X100007Y18730D01*
X100019Y18788D01*
X100024Y18847D01*
X100023Y18909D01*
X100015Y18972D01*
X100001Y19037D01*
X100697Y18341D01*
D02*
G37*
G36*
X66971Y18797D02*
X66921Y18758D01*
X66877Y18715D01*
X66839Y18670D01*
X66806Y18621D01*
X66780Y18569D01*
X66759Y18513D01*
X66744Y18454D01*
X66735Y18392D01*
X66732Y18327D01*
X66339D01*
X66336Y18392D01*
X66327Y18454D01*
X66312Y18513D01*
X66291Y18569D01*
X66265Y18621D01*
X66232Y18670D01*
X66194Y18715D01*
X66150Y18758D01*
X66099Y18797D01*
X66043Y18833D01*
X67027D01*
X66971Y18797D01*
D02*
G37*
G36*
X57524Y18387D02*
X58061Y18280D01*
X58295Y18327D01*
X58333Y18311D01*
X58377Y18330D01*
X58425Y18323D01*
X58469Y18333D01*
X58491Y18336D01*
X58506Y18336D01*
X58517Y18336D01*
X58525Y18334D01*
X60778Y16081D01*
Y10692D01*
X60946Y10286D01*
X60948Y10186D01*
X60793Y9705D01*
X60424Y9458D01*
X60119Y9002D01*
X60012Y8465D01*
X60056Y8247D01*
X60040Y8210D01*
X60059Y8165D01*
X60051Y8118D01*
X60061Y8072D01*
X60063Y8050D01*
X60064Y8034D01*
X60063Y8022D01*
X60061Y8012D01*
X60061Y8012D01*
X59578Y7529D01*
X58084D01*
X57814Y8029D01*
X57901Y8465D01*
X57794Y9002D01*
X57490Y9458D01*
X57034Y9763D01*
X56496Y9870D01*
X55958Y9763D01*
X55503Y9458D01*
X55077Y9627D01*
X55028Y9656D01*
X51239Y13444D01*
X50787Y13631D01*
X50031D01*
X49840Y14093D01*
X54233Y18486D01*
X54283Y18516D01*
X54706Y18688D01*
X55161Y18383D01*
X55699Y18277D01*
X56237Y18383D01*
X56692Y18688D01*
X56695Y18692D01*
X57068D01*
X57524Y18387D01*
D02*
G37*
G36*
X107235Y21622D02*
Y17391D01*
X105864Y16020D01*
X105364Y16227D01*
Y20404D01*
X106773Y21814D01*
X107235Y21622D01*
D02*
G37*
G36*
X68298Y18692D02*
X68754Y18387D01*
X69291Y18280D01*
X69348Y18291D01*
X69384Y18278D01*
X69435Y18280D01*
X69467Y18279D01*
X69494Y18275D01*
X69518Y18270D01*
X69540Y18264D01*
X69561Y18255D01*
X69562Y18255D01*
X70158Y17658D01*
X70610Y17471D01*
X81034D01*
X83034Y15471D01*
X82843Y15009D01*
X82284D01*
X81832Y14822D01*
X77027Y10018D01*
X77027Y10018D01*
X77018Y10016D01*
X77005Y10015D01*
X76989Y10015D01*
X76967Y10018D01*
X76922Y10028D01*
X76874Y10020D01*
X76829Y10038D01*
X76793Y10023D01*
X76575Y10066D01*
X76037Y9959D01*
X75581Y9655D01*
X75277Y9199D01*
X75170Y8661D01*
X75277Y8124D01*
X75581Y7668D01*
X76037Y7363D01*
X76575Y7256D01*
X77113Y7363D01*
X77568Y7668D01*
X77873Y8124D01*
X77980Y8661D01*
X77936Y8879D01*
X77952Y8916D01*
X77933Y8961D01*
X77942Y9008D01*
X77931Y9054D01*
X77929Y9076D01*
X77928Y9092D01*
X77930Y9104D01*
X77931Y9114D01*
X77931Y9114D01*
X82548Y13731D01*
X92520D01*
X92972Y13918D01*
X96515Y17461D01*
X96659Y17810D01*
X97164Y18012D01*
X97518Y17658D01*
X97970Y17471D01*
X99770D01*
X100222Y17658D01*
X100498Y17935D01*
X100499Y17935D01*
X100508Y17937D01*
X100521Y17938D01*
X100537Y17937D01*
X100559Y17935D01*
X100604Y17925D01*
X100652Y17933D01*
X100697Y17914D01*
X100733Y17930D01*
X100951Y17886D01*
X101489Y17993D01*
X101617Y18079D01*
X102117Y17811D01*
Y16997D01*
X95293Y10173D01*
X94864Y9927D01*
X94835Y9931D01*
X94497Y10156D01*
X93959Y10263D01*
X93422Y10156D01*
X92966Y9852D01*
X92661Y9396D01*
X92653Y9352D01*
X92456Y9252D01*
X92102Y9147D01*
X91732Y9301D01*
X82775D01*
X82775Y9301D01*
X82767Y9306D01*
X82758Y9314D01*
X82746Y9326D01*
X82733Y9343D01*
X82708Y9382D01*
X82668Y9410D01*
X82650Y9455D01*
X82613Y9470D01*
X82490Y9655D01*
X82034Y9959D01*
X81496Y10066D01*
X80958Y9959D01*
X80503Y9655D01*
X80198Y9199D01*
X80091Y8661D01*
X80198Y8124D01*
X80503Y7668D01*
X80958Y7363D01*
X81496Y7256D01*
X81502Y7258D01*
X81735Y6794D01*
X81523Y6502D01*
X81505Y6458D01*
X81465Y6430D01*
X81440Y6391D01*
X81427Y6373D01*
X81416Y6361D01*
X81406Y6353D01*
X81398Y6348D01*
X81398Y6348D01*
X69556D01*
X68946Y6958D01*
Y8920D01*
X68759Y9372D01*
X67640Y10491D01*
X67640Y10491D01*
X67175Y10956D01*
Y18406D01*
X67175Y18406D01*
X67180Y18414D01*
X67188Y18424D01*
X67200Y18435D01*
X67217Y18448D01*
X67256Y18473D01*
X67284Y18513D01*
X67329Y18531D01*
X67344Y18568D01*
X67529Y18692D01*
X67613Y18817D01*
X68214D01*
X68298Y18692D01*
D02*
G37*
G36*
X77674Y9482D02*
X77630Y9434D01*
X77592Y9384D01*
X77561Y9332D01*
X77537Y9278D01*
X77519Y9222D01*
X77507Y9165D01*
X77502Y9105D01*
X77503Y9044D01*
X77511Y8981D01*
X77526Y8916D01*
X76829Y9612D01*
X76894Y9598D01*
X76958Y9590D01*
X77019Y9589D01*
X77078Y9594D01*
X77136Y9605D01*
X77192Y9623D01*
X77245Y9648D01*
X77297Y9679D01*
X77348Y9717D01*
X77396Y9761D01*
X77674Y9482D01*
D02*
G37*
G36*
X65763Y9520D02*
X65813Y9482D01*
X65865Y9451D01*
X65919Y9426D01*
X65974Y9408D01*
X66032Y9397D01*
X66091Y9392D01*
X66153Y9393D01*
X66216Y9401D01*
X66281Y9415D01*
X65585Y8719D01*
X65599Y8784D01*
X65607Y8847D01*
X65608Y8909D01*
X65603Y8968D01*
X65592Y9026D01*
X65574Y9081D01*
X65549Y9135D01*
X65518Y9187D01*
X65480Y9237D01*
X65436Y9286D01*
X65714Y9564D01*
X65763Y9520D01*
D02*
G37*
G36*
X94702Y9511D02*
X94751Y9470D01*
X94800Y9433D01*
X94848Y9401D01*
X94897Y9375D01*
X94946Y9353D01*
X94995Y9336D01*
X95043Y9323D01*
X95092Y9316D01*
X95140Y9314D01*
Y8920D01*
X95112Y8917D01*
X95084Y8907D01*
X95058Y8892D01*
X95033Y8870D01*
X95010Y8842D01*
X94987Y8807D01*
X94966Y8767D01*
X94947Y8720D01*
X94928Y8667D01*
X94911Y8607D01*
X94652Y9557D01*
X94702Y9511D01*
D02*
G37*
G36*
X82384Y9097D02*
X82423Y9047D01*
X82466Y9003D01*
X82511Y8965D01*
X82560Y8932D01*
X82612Y8906D01*
X82668Y8885D01*
X82727Y8870D01*
X82789Y8861D01*
X82854Y8858D01*
Y8465D01*
X82789Y8462D01*
X82727Y8453D01*
X82668Y8438D01*
X82612Y8417D01*
X82560Y8391D01*
X82511Y8358D01*
X82466Y8320D01*
X82423Y8276D01*
X82384Y8225D01*
X82349Y8169D01*
Y9154D01*
X82384Y9097D01*
D02*
G37*
G36*
X55586Y8089D02*
X55559Y8147D01*
X55530Y8200D01*
X55497Y8246D01*
X55461Y8286D01*
X55423Y8320D01*
X55381Y8348D01*
X55336Y8369D01*
X55289Y8385D01*
X55239Y8394D01*
X55186Y8397D01*
Y8791D01*
X55248Y8794D01*
X55309Y8802D01*
X55368Y8815D01*
X55424Y8834D01*
X55478Y8859D01*
X55530Y8889D01*
X55580Y8925D01*
X55627Y8966D01*
X55673Y9012D01*
X55716Y9064D01*
X55586Y8089D01*
D02*
G37*
G36*
X50543Y8342D02*
X50535Y8279D01*
X50533Y8217D01*
X50538Y8158D01*
X50550Y8100D01*
X50568Y8045D01*
X50593Y7991D01*
X50624Y7939D01*
X50662Y7889D01*
X50706Y7840D01*
X50427Y7562D01*
X50379Y7606D01*
X50329Y7644D01*
X50277Y7675D01*
X50223Y7700D01*
X50167Y7718D01*
X50110Y7729D01*
X50050Y7734D01*
X49989Y7733D01*
X49926Y7725D01*
X49861Y7711D01*
X50557Y8407D01*
X50543Y8342D01*
D02*
G37*
G36*
X61163Y7514D02*
X61098Y7528D01*
X61035Y7536D01*
X60973Y7537D01*
X60914Y7532D01*
X60856Y7521D01*
X60801Y7503D01*
X60747Y7478D01*
X60695Y7447D01*
X60645Y7409D01*
X60596Y7365D01*
X60318Y7643D01*
X60362Y7692D01*
X60400Y7742D01*
X60431Y7794D01*
X60455Y7848D01*
X60474Y7904D01*
X60485Y7961D01*
X60490Y8021D01*
X60489Y8082D01*
X60481Y8145D01*
X60467Y8210D01*
X61163Y7514D01*
D02*
G37*
G36*
X91726Y6828D02*
X91775Y6662D01*
X91794Y6615D01*
X91814Y6571D01*
X91835Y6532D01*
X91857Y6497D01*
X91881Y6466D01*
X91905Y6438D01*
X91627Y6160D01*
X91625Y6158D01*
X91618Y6151D01*
X91402Y5957D01*
X91712Y6892D01*
X91726Y6828D01*
D02*
G37*
G36*
X61934Y19845D02*
X61934Y19845D01*
X61936Y19836D01*
X61937Y19823D01*
X61936Y19807D01*
X61934Y19785D01*
X61923Y19740D01*
X61932Y19692D01*
X61914Y19647D01*
X61929Y19611D01*
X61885Y19393D01*
X61992Y18855D01*
X62297Y18399D01*
X62753Y18095D01*
X63290Y17988D01*
X63828Y18095D01*
X64321Y17823D01*
Y10039D01*
X64509Y9587D01*
X65179Y8917D01*
X65179Y8917D01*
X65181Y8907D01*
X65182Y8895D01*
X65181Y8879D01*
X65179Y8857D01*
X65169Y8811D01*
X65177Y8764D01*
X65159Y8719D01*
X65174Y8682D01*
X65131Y8465D01*
X65237Y7927D01*
X65542Y7471D01*
X65998Y7167D01*
X66535Y7060D01*
X67073Y7167D01*
X67168Y7230D01*
X67668Y6963D01*
Y6693D01*
X67855Y6241D01*
X68270Y5826D01*
X68079Y5364D01*
X62290D01*
X62083Y5864D01*
X63444Y7225D01*
X63631Y7677D01*
Y8661D01*
X63631Y8661D01*
Y9117D01*
X63444Y9569D01*
X62056Y10956D01*
Y16346D01*
X61869Y16798D01*
X59424Y19243D01*
X59423Y19245D01*
X59421Y19256D01*
X59420Y19269D01*
X59420Y19286D01*
X59422Y19309D01*
X59432Y19355D01*
X59423Y19402D01*
X59441Y19447D01*
X59426Y19482D01*
X59466Y19685D01*
X59359Y20223D01*
X59055Y20678D01*
X58599Y20983D01*
X58061Y21090D01*
X57524Y20983D01*
X57068Y20678D01*
X57065Y20675D01*
X56692D01*
X56237Y20979D01*
X55699Y21087D01*
X55161Y20979D01*
X54706Y20675D01*
X54473Y20326D01*
X54449Y20313D01*
X54440Y20277D01*
X54423Y20253D01*
X54400Y20231D01*
X54381Y20189D01*
X54378Y20182D01*
X53940Y20001D01*
X53463Y19525D01*
X53001Y19716D01*
Y20995D01*
X53611Y21605D01*
X60174D01*
X61934Y19845D01*
D02*
G37*
G36*
X81825Y5217D02*
X81789Y5273D01*
X81750Y5323D01*
X81708Y5367D01*
X81662Y5406D01*
X81613Y5438D01*
X81561Y5465D01*
X81505Y5485D01*
X81447Y5500D01*
X81384Y5509D01*
X81319Y5512D01*
Y5906D01*
X81384Y5909D01*
X81447Y5917D01*
X81505Y5932D01*
X81561Y5953D01*
X81613Y5979D01*
X81662Y6012D01*
X81708Y6050D01*
X81750Y6095D01*
X81789Y6145D01*
X81825Y6201D01*
Y5217D01*
D02*
G37*
D61*
X35728Y66696D02*
Y77067D01*
X35827Y77165D01*
X36811Y65158D02*
Y65614D01*
X35728Y66696D02*
X36811Y65614D01*
D72*
X42491Y86188D02*
X43413Y87111D01*
X42487Y86188D02*
X42491D01*
X42028Y85728D02*
X42487Y86188D01*
X43413Y87111D02*
Y88415D01*
X42028Y83661D02*
Y85728D01*
X43406Y88423D02*
Y88976D01*
Y88423D02*
X43413Y88415D01*
X42913Y89468D02*
X43406Y88976D01*
X42913Y89468D02*
Y92323D01*
X37205Y98032D02*
X42913Y92323D01*
X36774Y97047D02*
X41839Y91983D01*
Y87763D02*
Y91983D01*
X82284Y14370D02*
X92520D01*
X96063Y17913D02*
Y22244D01*
X92520Y14370D02*
X96063Y17913D01*
X84055Y15354D02*
X92126D01*
X95079Y18307D02*
Y22638D01*
X92126Y15354D02*
X95079Y18307D01*
X84449Y16339D02*
X91732D01*
X94095Y18701D02*
Y23031D01*
X91732Y16339D02*
X94095Y18701D01*
X86024Y17323D02*
X91339D01*
X93110Y19094D02*
Y23425D01*
X91339Y17323D02*
X93110Y19094D01*
X52165Y26181D02*
X62205D01*
X48425Y22441D02*
X52165Y26181D01*
X43049Y22441D02*
X48425D01*
X35433Y30056D02*
X43049Y22441D01*
X14894Y48819D02*
X16339Y50264D01*
Y51772D01*
X62205Y26181D02*
X66929Y30906D01*
X42717Y21457D02*
X46192D01*
X34449Y29724D02*
X42717Y21457D01*
X34449Y29724D02*
Y30709D01*
X26575Y38583D02*
X33606Y31551D01*
X26575Y38583D02*
Y44025D01*
X30512Y28150D02*
Y29134D01*
Y28150D02*
X36024Y22638D01*
Y19685D02*
Y22638D01*
X31496Y28543D02*
Y29528D01*
X38780Y18898D02*
Y21260D01*
X31496Y28543D02*
X38780Y21260D01*
X32480Y28937D02*
Y29921D01*
X39764Y19291D02*
Y21654D01*
X32480Y28937D02*
X39764Y21654D01*
X42612Y20183D02*
X45239D01*
X33465Y29331D02*
Y30315D01*
Y29331D02*
X42612Y20183D01*
X26196Y31551D02*
Y32134D01*
X20669Y37660D02*
Y42520D01*
Y37660D02*
X26196Y32134D01*
Y30891D02*
X26378Y30709D01*
X26196Y30891D02*
Y31551D01*
X28095D02*
X30512Y29134D01*
X21654Y37992D02*
X28095Y31551D01*
X21654Y37992D02*
Y47998D01*
X17944Y35402D02*
Y36904D01*
Y35402D02*
X21795Y31551D01*
X17913Y36935D02*
X17944Y36904D01*
X16555Y38366D02*
X17913Y37008D01*
X16339Y38583D02*
X16555Y38366D01*
X17913Y36935D02*
Y37008D01*
X29473Y31551D02*
X31496Y29528D01*
X22638Y38386D02*
X29473Y31551D01*
X22638Y38386D02*
Y44094D01*
X23425Y38976D02*
X30850Y31551D01*
X32480Y29921D01*
X23425Y38976D02*
Y43504D01*
X25000Y38780D02*
X32228Y31551D01*
X33465Y30315D01*
X25000Y38780D02*
Y42511D01*
X21795Y31551D02*
X31625Y21721D01*
Y19162D02*
Y21721D01*
X16671Y35298D02*
Y35950D01*
Y35298D02*
X20417Y31551D01*
X30709Y21260D01*
X16555Y36066D02*
X16671Y35950D01*
X16369Y36251D02*
X16555Y36066D01*
X30709Y18701D02*
Y21260D01*
X17253Y32022D02*
X18569D01*
X19039Y31551D01*
X29724Y20866D01*
Y18307D02*
Y20866D01*
X17225Y32050D02*
X17253Y32022D01*
X28740Y17717D02*
Y20276D01*
X16732Y30315D02*
X18701D01*
X28740Y20276D01*
X33606Y31551D02*
X34449Y30709D01*
X31299Y35175D02*
X35433Y31041D01*
X31299Y35175D02*
Y35827D01*
X31299Y35827D02*
X31299Y35827D01*
X35433Y30056D02*
Y31041D01*
X31299Y35827D02*
Y42520D01*
X28937Y44882D02*
X31299Y42520D01*
X40361Y31551D02*
X41643D01*
X41988Y31207D01*
X42612D01*
X42913Y30906D01*
X33268Y39173D02*
X39370Y33071D01*
X39955D01*
X40545Y32480D02*
X43917D01*
X33268Y39173D02*
Y44882D01*
X39955Y33071D02*
X40545Y32480D01*
X32283Y38780D02*
Y42717D01*
Y38780D02*
X38780Y32283D01*
X39629D01*
X40361Y31551D01*
X23425Y43504D02*
X24334Y44413D01*
X25849D01*
X26772Y45336D01*
X66929Y30906D02*
Y31102D01*
X43917Y32480D02*
X44846Y31551D01*
X45267Y31130D01*
Y30704D02*
Y31130D01*
X46101Y103839D02*
X52831D01*
X52832Y103839D01*
X55708Y115749D02*
X58071Y113386D01*
X43836Y101575D02*
X46101Y103839D01*
X48376Y115749D02*
X55708D01*
X48375Y115748D02*
X48376Y115749D01*
X42520Y115748D02*
X48375D01*
X24606Y98032D02*
X37205D01*
X22441Y95866D02*
X24606Y98032D01*
X25000Y97047D02*
X36774D01*
X29611Y87848D02*
X31837Y85623D01*
X26097Y87848D02*
X29611D01*
X81496Y8661D02*
X91732D01*
X93110Y7283D01*
X68307Y6693D02*
X69291Y5709D01*
X67188Y10039D02*
X68307Y8920D01*
Y6693D02*
Y8920D01*
X52559Y25197D02*
X62402D01*
X48991Y21629D02*
X52559Y25197D01*
X48991Y20448D02*
Y21629D01*
X50787Y20017D02*
Y22115D01*
X52885Y24213D01*
X62008D01*
X31299Y15157D02*
X37008D01*
X28740Y17717D02*
X31299Y15157D01*
X31890Y16142D02*
X37402D01*
X29724Y18307D02*
X31890Y16142D01*
X30709Y18701D02*
X32283Y17126D01*
X37795D01*
X37008Y15157D02*
X41142Y11024D01*
X37402Y16142D02*
X41535Y12008D01*
X37795Y17126D02*
X41929Y12992D01*
X54392Y19549D02*
X55567D01*
X42323Y13976D02*
X48819D01*
X55567Y19549D02*
X55699Y19681D01*
X48819Y13976D02*
X54392Y19549D01*
X33268Y44882D02*
X33661Y45276D01*
X31693Y54921D02*
X33661Y52953D01*
Y45276D02*
Y52953D01*
X107874Y38386D02*
Y38812D01*
X108465Y39402D02*
Y69488D01*
X107874Y38812D02*
X108465Y39402D01*
X101378Y22835D02*
X107283Y28740D01*
X104921Y36024D02*
X107283Y33661D01*
Y28740D02*
Y33661D01*
X106299Y29134D02*
Y33268D01*
X100787Y23622D02*
X106299Y29134D01*
X103937Y35630D02*
X106299Y33268D01*
X100394Y24606D02*
X105315Y29528D01*
X102953Y35236D02*
X105315Y32874D01*
Y29528D02*
Y32874D01*
X14370Y122047D02*
X16923Y124600D01*
X14370Y112402D02*
Y122047D01*
X5906Y103937D02*
X14370Y112402D01*
X5906Y81102D02*
Y103937D01*
X6890Y80709D02*
Y103347D01*
X15354Y111811D02*
Y116929D01*
X6890Y103347D02*
X15354Y111811D01*
X16339Y111221D02*
Y116535D01*
X7874Y80315D02*
Y102756D01*
X16339Y111221D01*
X8858Y102165D02*
X17323Y110630D01*
X8858Y79921D02*
Y102165D01*
X17323Y110630D02*
Y116142D01*
X26969Y113189D02*
X29528Y110630D01*
X66142D01*
X33071Y111614D02*
X66536D01*
X31496Y113189D02*
X33071Y111614D01*
X75787Y97478D02*
Y105905D01*
Y92716D02*
Y97478D01*
X67323Y114370D02*
X75787Y105905D01*
X58071Y113386D02*
X59842D01*
X62402Y115945D02*
X69685D01*
X59842Y113386D02*
X62402Y115945D01*
X10827Y101181D02*
X21457Y111811D01*
Y114764D01*
X23228Y116535D01*
X11811Y100787D02*
X22441Y111417D01*
Y113976D01*
X24213Y115748D01*
X12795Y100394D02*
X23425Y111024D01*
Y113189D01*
X25000Y114764D01*
X20079Y117323D02*
X42520D01*
X18307Y110039D02*
Y115551D01*
X20079Y117323D01*
X9843Y101575D02*
X18307Y110039D01*
X19488Y118307D02*
X43307D01*
X17323Y116142D02*
X19488Y118307D01*
X16339Y116535D02*
X19094Y119291D01*
X43701D01*
X22558Y120079D02*
X44291D01*
X22361Y120276D02*
X22558Y120079D01*
X18701Y120276D02*
X22361D01*
X15354Y116929D02*
X18701Y120276D01*
X9843Y79528D02*
Y101575D01*
X10827Y79134D02*
Y101181D01*
X11811Y78740D02*
Y100787D01*
X12795Y78347D02*
Y100394D01*
X13780Y100000D02*
X23425Y109646D01*
X58272D01*
X13780Y77953D02*
Y100000D01*
X14764Y99606D02*
X23819Y108661D01*
X14764Y77559D02*
Y99606D01*
X23819Y108661D02*
X57029D01*
X21457Y78347D02*
Y100787D01*
X25000Y104331D02*
X36220D01*
X21457Y100787D02*
X25000Y104331D01*
X24803Y105512D02*
X37795D01*
X20472Y101181D02*
X24803Y105512D01*
X19488Y97478D02*
Y101575D01*
X24606Y106693D02*
X39173D01*
X19488Y101575D02*
X24606Y106693D01*
X20472Y79074D02*
Y101181D01*
X19488Y79528D02*
Y97478D01*
X38976Y101575D02*
X43836D01*
X36220Y104331D02*
X38976Y101575D01*
X58078Y19685D02*
X61417Y16346D01*
X58061Y19685D02*
X58078D01*
X61417Y10692D02*
Y16346D01*
X81441Y19347D02*
X84449Y16339D01*
X81441Y19347D02*
Y19679D01*
X15949Y53539D02*
X17126Y52362D01*
Y48949D02*
Y52362D01*
X14374Y53539D02*
X15949D01*
X13976Y58661D02*
X16555Y56083D01*
X18647Y53990D01*
X13976Y58661D02*
Y74016D01*
X18647Y53338D02*
X18949Y53037D01*
X18647Y53338D02*
Y53990D01*
X11614Y53543D02*
X13679Y51478D01*
X11614Y53543D02*
Y75787D01*
X14405Y51478D02*
X14706Y51177D01*
X13679Y51478D02*
X14405D01*
X12402Y54134D02*
X13784Y52752D01*
X15359D01*
X12402Y54134D02*
Y75197D01*
X13189Y54724D02*
Y74606D01*
Y54724D02*
X14374Y53539D01*
X15359Y52752D02*
X16339Y51772D01*
X17126Y48949D02*
X17256Y48819D01*
X18814Y52802D02*
X20828Y50787D01*
X18814Y52802D02*
Y52902D01*
X20828Y50787D02*
X25787D01*
X53543Y4724D02*
X81299D01*
X81890Y4134D02*
X83403D01*
X81299Y4724D02*
X81890Y4134D01*
X66535Y10692D02*
X67188Y10039D01*
X66535Y10692D02*
Y19685D01*
X67188Y10039D02*
X67188D01*
X69291Y5709D02*
X82677D01*
X62008Y24213D02*
X66535Y19685D01*
X104921Y36024D02*
Y71653D01*
X103937Y35630D02*
Y71260D01*
X102953Y35236D02*
Y70866D01*
X101969Y34843D02*
Y61024D01*
X104331Y29792D02*
Y32480D01*
X101969Y34843D02*
X104331Y32480D01*
X101741Y30616D02*
Y32314D01*
X100000Y34055D02*
Y60101D01*
Y34055D02*
X101741Y32314D01*
X101671Y30546D02*
X101741Y30616D01*
X92716Y28543D02*
Y33465D01*
X94882Y35630D02*
Y50000D01*
X92716Y33465D02*
X94882Y35630D01*
X96063Y35236D02*
Y56828D01*
X93701Y32874D02*
X96063Y35236D01*
X93701Y28150D02*
Y32874D01*
X94685Y27756D02*
Y32283D01*
X97047Y34646D01*
Y57447D01*
X87402Y23228D02*
X92716Y28543D01*
X87795Y22244D02*
X93701Y28150D01*
X64370Y23228D02*
X87402D01*
X87795Y19882D02*
Y22244D01*
X89961Y19820D02*
Y23031D01*
X94685Y27756D01*
X91763Y19913D02*
Y23456D01*
X97835Y29528D01*
Y32677D01*
X98228Y28543D02*
X101969D01*
X93110Y23425D02*
X98228Y28543D01*
X98622Y27559D02*
X102098D01*
X94095Y23031D02*
X98622Y27559D01*
X82087Y94291D02*
X82480D01*
X83071Y94882D01*
X88386D01*
X88583Y95079D01*
X97441D01*
X82874Y95866D02*
X87992D01*
X88386Y96260D01*
X82597Y96143D02*
X82874Y95866D01*
X81600Y96143D02*
X82597D01*
X81299Y96444D02*
X81600Y96143D01*
X88386Y96260D02*
X97638D01*
X102559Y91339D01*
X96487Y92292D02*
X97472D01*
X99606Y90158D01*
Y72441D02*
Y90158D01*
X96260Y92520D02*
X96487Y92292D01*
X99803Y63189D02*
Y72244D01*
X99606Y72441D02*
X99803Y72244D01*
X97047Y94095D02*
X100591Y90551D01*
X90920Y93504D02*
X91346D01*
X91937Y94095D01*
X97047D01*
X89434Y92126D02*
X89961D01*
X88842Y92595D02*
X89287Y92150D01*
X89410D02*
X89434Y92126D01*
X91929Y77953D02*
Y90158D01*
X89287Y92150D02*
X89410D01*
X88416Y92595D02*
X88842D01*
X89961Y92126D02*
X91929Y90158D01*
X89688Y91021D02*
X90945Y89764D01*
X88265Y91021D02*
X89688D01*
X90945Y77683D02*
Y89764D01*
X97441Y95079D02*
X101575Y90945D01*
X102098Y27559D02*
X104331Y29792D01*
X97047Y24606D02*
X100394D01*
X95079Y22638D02*
X97047Y24606D01*
X97441Y23622D02*
X100787D01*
X96850Y23031D02*
X97441Y23622D01*
X97047Y20337D02*
X99545Y22835D01*
X101378D01*
X97047Y19033D02*
Y20337D01*
Y19033D02*
X97970Y18110D01*
X99770D01*
X100951Y19291D01*
X100984D01*
X99803Y101181D02*
X111221Y89764D01*
X99410Y100197D02*
X110236Y89370D01*
X98622Y98228D02*
X108268Y88583D01*
X99016Y99213D02*
X109252Y88976D01*
X87098Y99213D02*
X99016D01*
X87402Y96850D02*
X87795Y97244D01*
X88386Y101181D02*
X99803D01*
X88257Y100197D02*
X99410D01*
X86873Y97835D02*
X87266Y98228D01*
X98622D01*
X86811Y102756D02*
X88386Y101181D01*
X87795Y97244D02*
X98228D01*
X107283Y88189D01*
X87469Y100984D02*
X88257Y100197D01*
X83255Y96850D02*
X87402D01*
X82671Y97435D02*
X83255Y96850D01*
X98622Y19685D02*
X100787Y21850D01*
X101772D01*
X98622Y19685D02*
Y19685D01*
X90748Y6693D02*
X91049Y6392D01*
X84387Y5118D02*
X95866D01*
X107874Y17126D02*
Y22441D01*
X91049Y6392D02*
X91674D01*
X91766Y6299D01*
X95866Y5118D02*
X107874Y17126D01*
X91766Y6299D02*
X95472D01*
X84924Y97835D02*
X86873D01*
X83661Y98622D02*
X84137D01*
X84924Y97835D01*
X102756Y16732D02*
Y21457D01*
X110433Y29134D01*
X103740Y21063D02*
X111417Y28740D01*
X103740Y16142D02*
Y21063D01*
X112402Y28346D02*
Y74803D01*
Y28346D02*
Y28346D01*
X104724Y15551D02*
Y20669D01*
X112402Y28346D01*
X84707Y100984D02*
X87469D01*
X83526Y102165D02*
X84707Y100984D01*
X107874Y22441D02*
X113386Y27953D01*
X79663Y116929D02*
X81957Y114635D01*
X58661Y116929D02*
X79663D01*
X81332Y117913D02*
X84646Y114599D01*
Y114173D02*
Y114599D01*
X88976Y85630D02*
X89961Y84646D01*
X88976Y85630D02*
Y89445D01*
X88975Y89446D02*
X88976Y89445D01*
X81299Y98806D02*
X82627Y97478D01*
X82627D01*
X103347Y29921D02*
Y32087D01*
X101969Y28543D02*
X103347Y29921D01*
X100984Y34449D02*
X103347Y32087D01*
X100984Y34449D02*
Y60630D01*
X94882Y58009D02*
X96063Y56828D01*
X96758Y57736D02*
X97047Y57447D01*
X98032Y34252D02*
Y59314D01*
X96260Y32480D02*
X98032Y34252D01*
X96850Y61873D02*
X99016Y59707D01*
X97835Y32677D02*
X99016Y33858D01*
Y59707D01*
X97835Y62266D02*
X100000Y60101D01*
X98819Y62795D02*
X100984Y60630D01*
X99803Y63189D02*
X101969Y61024D01*
X93898Y50984D02*
X94882Y50000D01*
X97835Y59511D02*
Y59511D01*
Y59511D02*
X98032Y59314D01*
X96758Y57736D02*
Y58360D01*
X95866Y61479D02*
X97835Y59511D01*
X96457Y58661D02*
X96758Y58360D01*
X102559Y74016D02*
X104921Y71653D01*
X101575Y73622D02*
X103937Y71260D01*
X100591Y73228D02*
X102953Y70866D01*
X90748Y67975D02*
Y69747D01*
X89370Y66597D02*
X90748Y67975D01*
X89825Y70669D02*
X90748Y69747D01*
X95866Y61479D02*
Y70534D01*
X96850Y61873D02*
Y70663D01*
X98819Y62795D02*
Y71063D01*
X90945Y77683D02*
X97835Y70793D01*
X91458Y74942D02*
X95866Y70534D01*
X89961Y77553D02*
X96850Y70663D01*
X91929Y77953D02*
X98819Y71063D01*
X97835Y62266D02*
Y70793D01*
X94882Y58009D02*
Y69291D01*
X91212Y72961D02*
X94882Y69291D01*
X95472Y6299D02*
X104724Y15551D01*
X94218Y9117D02*
X95140D01*
X93959Y8858D02*
X94218Y9117D01*
X95140D02*
X102756Y16732D01*
X94882Y7283D02*
X103740Y16142D01*
X93110Y7283D02*
X94882D01*
X83403Y4134D02*
X84387Y5118D01*
X113386Y27953D02*
Y75197D01*
X111417Y28740D02*
Y74410D01*
X110433Y29134D02*
Y74016D01*
X101772Y21850D02*
X109449Y29528D01*
Y73622D01*
X100808Y19291D02*
X100951D01*
X96063Y22244D02*
X96881Y23062D01*
X49606Y8661D02*
X53543Y4724D01*
X37795Y105512D02*
X40157Y103150D01*
X39173Y106693D02*
X42717Y103150D01*
X39524Y73175D02*
Y75770D01*
X36501Y78793D02*
X39524Y75770D01*
X45239Y20183D02*
X45540Y19882D01*
X46192Y21457D02*
X47115Y20534D01*
Y19494D02*
Y20534D01*
X48037Y18572D02*
X49342D01*
X47115Y19494D02*
X48037Y18572D01*
X49342D02*
X50787Y20017D01*
X61417Y10692D02*
X62992Y9117D01*
X62992Y7677D02*
Y8661D01*
X62992Y8661D02*
X62992Y8661D01*
X62992Y8661D02*
Y9117D01*
X15551Y58661D02*
X22638Y51575D01*
X15551Y58661D02*
Y61417D01*
X22638Y51575D02*
X26378D01*
X23031Y52559D02*
X26772D01*
X17126Y58465D02*
X23031Y52559D01*
X17126Y58465D02*
Y62795D01*
X18110Y58858D02*
Y62340D01*
X23522Y53447D02*
X27262D01*
X18110Y58858D02*
X23522Y53447D01*
X22506Y55841D02*
X22947D01*
X19094Y59252D02*
X22506Y55841D01*
X23766Y55022D02*
X24192D01*
X22947Y55841D02*
X23766Y55022D01*
X31808Y45554D02*
Y48901D01*
X27262Y53447D02*
X31808Y48901D01*
X28937Y44882D02*
Y49016D01*
X26378Y51575D02*
X28937Y49016D01*
X27559Y45009D02*
Y49016D01*
X25787Y50787D02*
X27559Y49016D01*
X41142Y11024D02*
X49803D01*
X41535Y12008D02*
X50394D01*
X41929Y12992D02*
X50787D01*
X32677Y18110D02*
X38189D01*
X42323Y13976D01*
X31625Y19162D02*
X32677Y18110D01*
X16339Y38583D02*
Y42126D01*
X38780Y18898D02*
X42717Y14961D01*
X39764Y19291D02*
X43110Y15945D01*
X42717Y14961D02*
X48425D01*
X43110Y15945D02*
X48031D01*
X48425Y14961D02*
X52362Y18898D01*
X48031Y15945D02*
X51575Y19488D01*
X50787Y12992D02*
X55186Y8594D01*
X49803Y11024D02*
X54921Y5906D01*
X50394Y12008D02*
X55512Y6890D01*
X26575Y44025D02*
X27559Y45009D01*
X26772Y45336D02*
Y47455D01*
X25289Y48937D02*
X26772Y47455D01*
X22638Y44094D02*
X24213Y45669D01*
X26772Y52559D02*
X29921Y49409D01*
X24452Y45669D02*
X24771Y45988D01*
X24213Y45669D02*
X24452D01*
X24771Y45988D02*
X25197D01*
X19094Y59252D02*
Y61879D01*
X29921Y45079D02*
Y49409D01*
X70610Y18110D02*
X81299D01*
X84055Y15354D01*
X69291Y19429D02*
Y19685D01*
Y19429D02*
X70610Y18110D01*
X64961Y10039D02*
X66535Y8465D01*
X64961Y10039D02*
Y19949D01*
X61682Y23228D02*
X64961Y19949D01*
X71653Y19882D02*
X74016Y22244D01*
X71653Y19685D02*
Y19882D01*
X29921Y45079D02*
X32283Y42717D01*
X27559Y59055D02*
X31693Y54921D01*
X20737Y59055D02*
X27559D01*
X31808Y45554D02*
X31890Y45472D01*
X14817Y62578D02*
X15551Y61844D01*
X14817Y62578D02*
Y73418D01*
X15551Y61417D02*
Y61844D01*
X17126Y62795D02*
X19435Y65104D01*
X18110Y62340D02*
X20472Y64702D01*
X19094Y61879D02*
X21457Y64241D01*
X20141Y61282D02*
X22441Y63583D01*
X20141Y59651D02*
X20737Y59055D01*
X20141Y59651D02*
Y61282D01*
X13976Y74016D02*
X19488Y79528D01*
X14817Y73418D02*
X20472Y79074D01*
X19435Y76325D02*
X21457Y78347D01*
X23425Y95472D02*
X25000Y97047D01*
X23425Y77165D02*
Y95472D01*
X22441Y77756D02*
Y95866D01*
X20472Y75787D02*
X22441Y77756D01*
X24409Y76575D02*
Y86160D01*
X26097Y87848D01*
X31837Y81019D02*
X34062Y78793D01*
X31837Y81019D02*
Y85623D01*
X34062Y78793D02*
X36501D01*
X22441Y63583D02*
Y74606D01*
X24409Y76575D01*
X22039Y48383D02*
Y48911D01*
X22341Y49213D01*
X21654Y47998D02*
X22039Y48383D01*
X12992Y44291D02*
X16555D01*
X16765D01*
X18898Y42158D01*
Y41732D02*
Y42158D01*
X13780Y42126D02*
X16339D01*
X13386Y45276D02*
X17913D01*
X20669Y42520D01*
X62402Y25197D02*
X64370Y23228D01*
X60439Y22244D02*
X63290Y19393D01*
X53150Y23228D02*
X61682D01*
X53347Y22244D02*
X60439D01*
X52362Y18898D02*
Y21260D01*
X51575Y19488D02*
Y21654D01*
X48690Y20146D02*
X48991Y20448D01*
X51575Y21654D02*
X53150Y23228D01*
X52362Y21260D02*
X53347Y22244D01*
X54921Y5906D02*
X61221D01*
X62992Y7677D01*
X59842Y6890D02*
X61417Y8465D01*
X55512Y6890D02*
X59842D01*
X76968Y9055D02*
X82284Y14370D01*
X76575Y9055D02*
X76968D01*
X13780Y46260D02*
X18865D01*
X19653Y47047D02*
X20079D01*
X18865Y46260D02*
X19653Y47047D01*
X83661Y71292D02*
Y77024D01*
X84449Y70079D02*
Y70505D01*
X83661Y71292D02*
X84449Y70505D01*
X90874Y72961D02*
X91212D01*
X87795Y73813D02*
X91590Y70018D01*
X89509Y74942D02*
X91458D01*
X87795Y75590D02*
X88976Y76772D01*
X89370Y74803D02*
X89509Y74942D01*
X87795Y73813D02*
Y75590D01*
X86024Y73228D02*
Y76046D01*
X82874Y68102D02*
Y77362D01*
X86811Y73554D02*
Y75720D01*
X87992Y76968D02*
Y84055D01*
X84055Y77418D02*
Y82413D01*
X84449Y76698D02*
X85039Y77289D01*
X83071Y77559D02*
Y82087D01*
X57677Y122441D02*
X57677Y122441D01*
X86024Y76046D02*
X87008Y77030D01*
X86811Y75720D02*
X87992Y76901D01*
X86024Y77165D02*
Y83268D01*
X82874Y77362D02*
X83071Y77559D01*
X87008Y77030D02*
Y83661D01*
X83661Y77024D02*
X84055Y77418D01*
X85236Y76372D02*
X86024Y77160D01*
X88976Y76772D02*
Y84252D01*
X85236Y72835D02*
Y76372D01*
X85039Y77362D02*
Y82874D01*
X84449Y72441D02*
Y76698D01*
Y72441D02*
X86024Y70866D01*
Y66671D02*
Y70866D01*
X85236Y72835D02*
X86811Y71260D01*
Y65152D02*
Y71260D01*
X87598Y67323D02*
Y71654D01*
X86811Y73554D02*
X89696Y70669D01*
X86024Y73228D02*
X87598Y71654D01*
X89696Y70669D02*
X89825D01*
X89961Y77553D02*
Y84646D01*
X81299Y66149D02*
Y81102D01*
Y66149D02*
X83661Y63787D01*
X82874Y68102D02*
X83924Y67052D01*
X82087Y66535D02*
Y81693D01*
X79921Y82480D02*
X81299Y81102D01*
X80315Y83465D02*
X82087Y81693D01*
X80709Y84449D02*
X83071Y82087D01*
X82087Y66535D02*
X87402Y61221D01*
X83924Y66925D02*
Y67052D01*
X89702Y63652D02*
Y64961D01*
Y63652D02*
X89976Y63378D01*
X90997Y65942D02*
X91246Y66192D01*
Y67360D01*
X84946Y65593D02*
X86024Y66671D01*
X91590Y67703D02*
Y70018D01*
X84946Y64789D02*
X88583Y61153D01*
X87402Y90158D02*
X88265Y91021D01*
X87402Y90099D02*
Y90158D01*
X87400Y85828D02*
X88976Y84252D01*
X87400Y90098D02*
X87402Y90099D01*
X87400Y85828D02*
Y90098D01*
X66732Y103740D02*
X66952Y103959D01*
X68307D01*
X68678Y104331D01*
X71063D01*
X71850Y103543D01*
X61024Y101373D02*
X61244Y101153D01*
X63948D01*
X58009Y123622D02*
X58403Y123228D01*
X37992Y123622D02*
X58009D01*
X57480Y122638D02*
X57677Y122441D01*
X34055Y122638D02*
X57480D01*
X31496Y125197D02*
X34055Y122638D01*
X57677Y122441D02*
X60039D01*
X26378Y125197D02*
X29921Y121653D01*
X59449D01*
X58403Y123228D02*
X60630D01*
X59449Y121653D02*
X60236Y120866D01*
X36614Y125000D02*
X37992Y123622D01*
X59055Y120669D02*
X59842Y119882D01*
X44882Y120866D02*
X45079Y120669D01*
X22884Y120866D02*
X44882D01*
X45079Y120669D02*
X59055D01*
X44291Y120079D02*
X44685Y119685D01*
X58661D01*
X43701Y119291D02*
X44291Y118701D01*
X58268D01*
X58661Y119685D02*
X59449Y118898D01*
X43898Y117717D02*
X57874D01*
X43307Y118307D02*
X43898Y117717D01*
X58268Y118701D02*
X59055Y117913D01*
X88189Y122835D02*
X95079Y115945D01*
X61024Y122835D02*
X88189D01*
X95079Y112795D02*
Y115945D01*
X94095Y113189D02*
Y115551D01*
X87795Y121850D02*
X94095Y115551D01*
X60630Y121850D02*
X87795D01*
X60630Y123228D02*
X61024Y122835D01*
X60039Y122441D02*
X60630Y121850D01*
X60236Y120866D02*
X87205D01*
X93110Y114961D01*
X59842Y119882D02*
X85827D01*
X91535Y114173D01*
X59449Y118898D02*
X82874D01*
X59055Y117913D02*
X81332D01*
X82874Y118898D02*
X86977Y114795D01*
X57874Y117717D02*
X58661Y116929D01*
X43110Y116732D02*
X57480D01*
X59055Y115157D01*
X69685Y115945D02*
X71850Y113779D01*
X42520Y117323D02*
X43110Y116732D01*
X41732Y116535D02*
X42520Y115748D01*
X23228Y116535D02*
X41732D01*
X17575Y126175D02*
X22884Y120866D01*
X24213Y115748D02*
X40748D01*
X42323Y114173D01*
X25000Y114764D02*
X37598D01*
X37888Y114474D01*
X39069D02*
X39370Y114173D01*
X37888Y114474D02*
X39069D01*
X19435Y65104D02*
Y76325D01*
X20472Y64702D02*
Y75787D01*
X57029Y108661D02*
X62964Y102727D01*
X92323Y111417D02*
X94095Y113189D01*
X82334Y110287D02*
X92570D01*
X95079Y112795D01*
X82087Y111417D02*
X92323D01*
X78740Y108071D02*
X82087Y111417D01*
X79724Y107677D02*
X82334Y110287D01*
X79724Y94027D02*
Y107677D01*
X78740Y93898D02*
Y108071D01*
X93110Y113521D02*
Y114961D01*
X86977Y114795D02*
X87141D01*
X87566Y114370D02*
X87992D01*
X87141Y114795D02*
X87566Y114370D01*
X5315Y80512D02*
X5906Y81102D01*
X5315Y46457D02*
Y80512D01*
X6102Y47047D02*
Y79921D01*
X6890Y80709D01*
Y79331D02*
X7874Y80315D01*
X6890Y47638D02*
Y79331D01*
X7677Y78740D02*
X8858Y79921D01*
X7677Y48228D02*
Y78740D01*
X8465Y48819D02*
Y78150D01*
X9843Y79528D01*
X9252Y49409D02*
Y77559D01*
X10827Y79134D01*
X10039Y76968D02*
X11811Y78740D01*
X10039Y50000D02*
Y76968D01*
X10827Y50659D02*
Y76378D01*
X12795Y78347D01*
X11614Y75787D02*
X13780Y77953D01*
X12402Y75197D02*
X14764Y77559D01*
X13189Y74606D02*
X15748Y77165D01*
Y99274D01*
X81329Y50984D02*
X93898D01*
X84571Y54226D02*
X85452D01*
X85039Y87008D02*
X87992Y84055D01*
X85039Y87008D02*
Y88712D01*
X103515Y74438D02*
Y79499D01*
Y74438D02*
X108465Y69488D01*
X102559Y74016D02*
Y91339D01*
X101575Y73622D02*
Y90945D01*
X100591Y73228D02*
Y90551D01*
X96260Y31102D02*
Y32480D01*
X91732Y19882D02*
X91763Y19913D01*
X111221Y77362D02*
Y89764D01*
X110236Y76968D02*
Y89370D01*
X109252Y76575D02*
Y88976D01*
X108268Y76181D02*
Y88583D01*
X107283Y75787D02*
Y88189D01*
X82087Y21260D02*
X86024Y17323D01*
X111221Y77362D02*
X113386Y75197D01*
X110236Y76968D02*
X112402Y74803D01*
X109252Y76575D02*
X111417Y74410D01*
X108268Y76181D02*
X110433Y74016D01*
X107283Y75787D02*
X109449Y73622D01*
X103515Y79499D02*
X105315Y81299D01*
X82874Y22244D02*
X86811Y18307D01*
X74016Y22244D02*
X82874D01*
X86811Y18307D02*
X88448D01*
X78150Y21260D02*
X82087D01*
X5315Y46457D02*
X13386Y38386D01*
X8465Y48819D02*
X12992Y44291D01*
X10039Y50000D02*
X13780Y46260D01*
X10827Y50659D02*
X14241Y47244D01*
X6890Y47638D02*
X15354Y39173D01*
X7677Y48228D02*
X13780Y42126D01*
X9252Y49409D02*
X13386Y45276D01*
X6102Y47047D02*
X14370Y38780D01*
X36253Y113189D02*
X36843Y112598D01*
X37205D01*
X35827Y113189D02*
X36253D01*
X37205Y112598D02*
X66929D01*
X84055Y86614D02*
X87008Y83661D01*
X84055Y86614D02*
Y88583D01*
X83071Y86221D02*
X86024Y83268D01*
X83071Y86221D02*
Y88189D01*
X82087Y85827D02*
Y87531D01*
Y85827D02*
X85039Y82874D01*
X79724Y94027D02*
X85039Y88712D01*
X78740Y93898D02*
X84055Y88583D01*
X77756Y93504D02*
X83071Y88189D01*
X81232Y85236D02*
X84055Y82413D01*
X79595Y84449D02*
X80709D01*
X79921Y85236D02*
X81232D01*
X79466Y83465D02*
X80315D01*
X76772Y92846D02*
Y112205D01*
Y92846D02*
X82087Y87531D01*
X75787Y92716D02*
X80186Y88318D01*
Y87201D02*
Y88318D01*
Y87201D02*
X80347Y87040D01*
X78740Y86417D02*
X79921Y85236D01*
X87598Y67323D02*
X88386Y66535D01*
X79337Y82480D02*
X79921D01*
X75787Y86029D02*
X79337Y82480D01*
X87402Y58829D02*
Y61221D01*
X84946Y64789D02*
Y65593D01*
X88583Y57357D02*
Y61153D01*
X66929Y112598D02*
X74803Y104724D01*
Y92323D02*
Y104724D01*
X66536Y111614D02*
X73819Y104331D01*
X66142Y110630D02*
X72835Y103937D01*
X71850Y97478D02*
Y103543D01*
X63948Y101153D02*
X64764Y101969D01*
X58272Y109646D02*
X64764Y103154D01*
Y101969D02*
Y103154D01*
X54724Y107677D02*
X58335Y104066D01*
Y102885D02*
X58465Y102756D01*
X58335Y102885D02*
Y104066D01*
X15650Y31397D02*
X16732Y30315D01*
Y31693D02*
X17079D01*
Y31904D01*
X16603Y31822D02*
X16732Y31693D01*
X16603Y31822D02*
Y33791D01*
X17079Y31904D02*
X17225Y32050D01*
X13386Y35433D02*
Y38386D01*
X14370Y36024D02*
X16603Y33791D01*
X14370Y36024D02*
Y38780D01*
X13386Y35433D02*
X15650Y33169D01*
Y31397D02*
Y33169D01*
X56367Y8594D02*
X56496Y8465D01*
X55186Y8594D02*
X56367D01*
X15354Y37137D02*
X16271Y36220D01*
X15354Y37137D02*
Y39173D01*
X16271Y36220D02*
X16400D01*
X18831Y48167D02*
Y50558D01*
X18701Y50688D02*
X18831Y50558D01*
X14241Y47244D02*
X17908D01*
X77756Y86288D02*
X79595Y84449D01*
X75787Y86029D02*
Y87205D01*
X71850Y91142D02*
X75787Y87205D01*
X76772Y86159D02*
Y87598D01*
X72835Y91535D02*
X76772Y87598D01*
Y86159D02*
X79466Y83465D01*
X77756Y86288D02*
Y87992D01*
X73819Y91929D02*
X77756Y87992D01*
X71850Y91142D02*
Y97441D01*
X72835Y91535D02*
Y103937D01*
X73819Y91929D02*
Y104331D01*
X78740Y86417D02*
Y88386D01*
X74803Y92323D02*
X78740Y88386D01*
X77756Y93504D02*
Y108465D01*
X81693Y112402D01*
X76772Y112205D02*
X79134Y114567D01*
X83661Y59676D02*
Y63787D01*
Y59676D02*
X84447Y58891D01*
Y58658D02*
Y58891D01*
X90132Y60988D02*
X90158D01*
X88386Y62734D02*
X90132Y60988D01*
X86818Y58245D02*
X87402Y58829D01*
X86818Y57819D02*
Y58245D01*
X91246Y67360D02*
X91590Y67703D01*
X89370Y65293D02*
Y66597D01*
X85452Y54226D02*
X88583Y57357D01*
X88386Y62734D02*
Y66535D01*
X81329Y50984D02*
X84571Y54226D01*
X81693Y112402D02*
X91991D01*
X21457Y75197D02*
X23425Y77165D01*
X21457Y64241D02*
Y75197D01*
X31693Y54921D02*
X31693D01*
X89370Y65293D02*
X89702Y64961D01*
X36417Y125000D02*
X36614D01*
X15748Y99274D02*
X24151Y107677D01*
X14051Y125000D02*
X15226Y126175D01*
X17575D01*
X24151Y107677D02*
X54724D01*
X76772Y19882D02*
X78150Y21260D01*
X76575Y19882D02*
X76772D01*
X91991Y112402D02*
X93110Y113521D01*
X79134Y114567D02*
Y114764D01*
X88448Y18307D02*
X89961Y19820D01*
X17908Y47244D02*
X18831Y48167D01*
D73*
X9638Y125187D02*
X16931Y132480D01*
X98819D01*
X106496Y124803D01*
X112598Y82235D02*
Y106693D01*
X106496Y112795D02*
X112598Y106693D01*
X106496Y112795D02*
Y124803D01*
X112598Y82235D02*
X113155Y81679D01*
Y81417D02*
Y81679D01*
X9638Y113176D02*
X9801Y113013D01*
X9638Y113176D02*
Y125187D01*
X67198Y80978D02*
Y83937D01*
X61325Y75105D02*
X67198Y80978D01*
Y83937D02*
X67223Y83962D01*
X70221Y52417D02*
X73892D01*
X69095Y53543D02*
X70221Y52417D01*
X69685Y54527D02*
X69784Y54429D01*
X69685Y54527D02*
Y54528D01*
X73892Y52417D02*
X75007Y51301D01*
Y49316D02*
Y51301D01*
X74410Y48719D02*
X75007Y49316D01*
X74410Y48425D02*
Y48719D01*
D74*
X85748Y44961D02*
X85827Y44882D01*
X82087Y48622D02*
X85748Y44961D01*
X80840Y48622D02*
X82087D01*
X85827Y41339D02*
Y44882D01*
X79361Y50101D02*
X80840Y48622D01*
X79361Y50101D02*
Y54348D01*
X41508Y33661D02*
X65382D01*
X34929Y40240D02*
X41508Y33661D01*
X67520Y33268D02*
X68898Y34646D01*
X65382Y33661D02*
X65776Y33268D01*
X67520D01*
X34929Y40240D02*
Y44969D01*
X68898Y34646D02*
X74893D01*
X75090Y34449D02*
X81102D01*
X74893Y34646D02*
X75090Y34449D01*
X36024Y46063D02*
Y53543D01*
X34929Y44969D02*
X36024Y46063D01*
X28166Y60466D02*
X29774Y58858D01*
X28270Y60679D02*
Y63799D01*
X31862Y57705D02*
X36024Y53543D01*
X30927Y57705D02*
X31862D01*
X29774Y58858D02*
X30927Y57705D01*
X81299Y36811D02*
X85827Y41339D01*
X78740Y65258D02*
Y79299D01*
X65913Y92126D02*
X78740Y79299D01*
Y65258D02*
X80917Y63081D01*
X70370Y76657D02*
Y80171D01*
Y76657D02*
X75394Y71633D01*
X60465Y93312D02*
X61651Y92126D01*
X65913D01*
X60369Y93312D02*
X60465D01*
X76378Y46276D02*
X76593Y46491D01*
Y56120D01*
X76378Y46063D02*
Y46276D01*
X25012Y60630D02*
X25209Y60433D01*
X28150D01*
X21715Y60630D02*
X25012D01*
X75394Y64690D02*
X78150Y61935D01*
X80917Y55905D02*
Y63081D01*
X78150Y57677D02*
Y61935D01*
X25787Y76941D02*
Y78740D01*
Y76941D02*
X26181Y76547D01*
X25787Y78740D02*
X26772Y79724D01*
Y86221D01*
X26181Y65887D02*
Y76547D01*
Y65887D02*
X28270Y63799D01*
X75394Y64690D02*
Y68417D01*
Y71633D01*
X79361Y54348D02*
X80917Y55905D01*
X76593Y56120D02*
X78150Y57677D01*
D76*
X67126Y67126D02*
X71850Y62402D01*
X67126Y67126D02*
Y72244D01*
X64173Y75197D02*
X67126Y72244D01*
X71850Y62402D02*
X75734D01*
X76772Y61364D01*
Y58268D02*
Y61364D01*
X74624Y54724D02*
X74670Y54769D01*
Y56166D02*
X76772Y58268D01*
X74670Y54769D02*
Y56166D01*
D77*
X77171Y64870D02*
Y75483D01*
X75292Y77362D02*
X77171Y75483D01*
X75197Y77362D02*
X75292D01*
X77977Y46939D02*
X81849Y43067D01*
X83311D02*
X83465Y42913D01*
X81849Y43067D02*
X83311D01*
X77977Y46939D02*
Y54921D01*
X79533Y56478D02*
Y62508D01*
X77171Y64870D02*
X79533Y62508D01*
X31743Y59673D02*
X32059D01*
X33071Y58661D01*
X34252D01*
X77977Y54921D02*
X79533Y56478D01*
D78*
X37008Y40945D02*
X38976D01*
X61811Y36220D02*
X63386Y37795D01*
X61221Y36220D02*
X61811D01*
X74410Y46063D02*
X76378D01*
X81299Y34449D02*
Y36319D01*
D80*
X41665Y97247D02*
X59052D01*
X41539D02*
X41665D01*
X59052D02*
X62152Y94148D01*
X41535Y97244D02*
X41539Y97247D01*
X81329Y53347D02*
X82480Y54498D01*
Y63779D01*
X80315Y65945D02*
X82480Y63779D01*
X80315Y65945D02*
Y80313D01*
X66480Y94148D02*
X80315Y80313D01*
X62152Y94148D02*
X66480D01*
D90*
X41839Y87763D02*
D03*
X66535Y101181D02*
D03*
X81496Y46260D02*
D03*
X45079Y82902D02*
D03*
X50947Y83585D02*
D03*
X47640Y91835D02*
D03*
X45276Y86516D02*
D03*
X44974Y77182D02*
D03*
X45079Y79921D02*
D03*
X51933Y40870D02*
D03*
X68186Y41475D02*
D03*
X26378Y30709D02*
D03*
X32874Y35827D02*
D03*
X42529Y35803D02*
D03*
X47047Y35630D02*
D03*
X61024Y31496D02*
D03*
X38976Y40945D02*
D03*
X43504Y41339D02*
D03*
X47297Y40230D02*
D03*
X49409Y39173D02*
D03*
X59685Y39156D02*
D03*
X66929Y31102D02*
D03*
X61221Y36220D02*
D03*
X63386Y37795D02*
D03*
X69882Y32677D02*
D03*
X69880Y37600D02*
D03*
X66267Y40097D02*
D03*
X41256Y40167D02*
D03*
X38976Y30709D02*
D03*
X37008D02*
D03*
Y40945D02*
D03*
X45267Y30704D02*
D03*
X42913Y30906D02*
D03*
X63779Y40157D02*
D03*
X56984Y43699D02*
D03*
X74606Y39843D02*
D03*
X42520Y135039D02*
D03*
X64567D02*
D03*
X55905D02*
D03*
X43802Y85220D02*
D03*
X42028Y83661D02*
D03*
X34252Y130512D02*
D03*
X39173Y126575D02*
D03*
X53150Y130512D02*
D03*
X59252Y130118D02*
D03*
X76378Y130512D02*
D03*
Y125197D02*
D03*
X52832Y103839D02*
D03*
X52953Y125394D02*
D03*
X52658Y114174D02*
D03*
X57874Y100197D02*
D03*
X46457Y101969D02*
D03*
X53051Y99606D02*
D03*
X47146D02*
D03*
X49803Y87008D02*
D03*
X26575Y102362D02*
D03*
X30315Y94291D02*
D03*
X25787Y95276D02*
D03*
X36811Y100000D02*
D03*
X41665Y97247D02*
D03*
X45276Y92224D02*
D03*
X39370D02*
D03*
X50495Y92721D02*
D03*
X33661Y92323D02*
D03*
X37795Y85138D02*
D03*
X107874Y38386D02*
D03*
X44094Y9252D02*
D03*
X24016Y8858D02*
D03*
X11417Y135039D02*
D03*
X26969Y113189D02*
D03*
X31496D02*
D03*
X64263Y114302D02*
D03*
X67323Y114370D02*
D03*
X19882D02*
D03*
X34055Y9252D02*
D03*
X58061Y19685D02*
D03*
X60630D02*
D03*
X55699Y19681D02*
D03*
X81441Y19679D02*
D03*
X78937Y19685D02*
D03*
X28150Y43307D02*
D03*
X14961Y55315D02*
D03*
X18949Y53037D02*
D03*
X23228Y99410D02*
D03*
X17717Y89764D02*
D03*
X17520Y98622D02*
D03*
Y79921D02*
D03*
X79134Y7480D02*
D03*
X70079Y8465D02*
D03*
X64567Y6299D02*
D03*
X107874Y35433D02*
D03*
X106693Y45669D02*
D03*
X93110Y91929D02*
D03*
X101378Y69882D02*
D03*
X96260Y92520D02*
D03*
X90920Y93504D02*
D03*
X90748Y6693D02*
D03*
X106299Y18504D02*
D03*
X106496Y9252D02*
D03*
X87795Y19882D02*
D03*
X86811Y102756D02*
D03*
X83526Y102165D02*
D03*
X81957Y114635D02*
D03*
X84646Y114173D02*
D03*
X88975Y89446D02*
D03*
X86221Y99409D02*
D03*
X83686Y98647D02*
D03*
X82117Y94228D02*
D03*
X101378Y63841D02*
D03*
X101671Y30546D02*
D03*
X93959Y8858D02*
D03*
X100951Y19291D02*
D03*
X98622Y19685D02*
D03*
X49606Y8661D02*
D03*
X40157Y103150D02*
D03*
X42717D02*
D03*
X39524Y73175D02*
D03*
X45540Y19882D02*
D03*
X24192Y55022D02*
D03*
X25000Y42511D02*
D03*
X25289Y48937D02*
D03*
X25197Y45988D02*
D03*
X66535Y19685D02*
D03*
X69291D02*
D03*
X71653D02*
D03*
X31808Y45472D02*
D03*
X15551Y61417D02*
D03*
X30118Y85039D02*
D03*
X109646Y117913D02*
D03*
X5906Y35039D02*
D03*
X14173Y30709D02*
D03*
X24213Y73622D02*
D03*
X53937Y85433D02*
D03*
X17717Y66929D02*
D03*
X33465Y81693D02*
D03*
X30238Y61494D02*
D03*
X51968Y90354D02*
D03*
X72638Y32480D02*
D03*
X74606D02*
D03*
X77453Y32374D02*
D03*
X28740Y54764D02*
D03*
X72244Y47244D02*
D03*
X72264Y54825D02*
D03*
X68307Y79020D02*
D03*
X30709Y74803D02*
D03*
X27756Y77756D02*
D03*
X31102Y71382D02*
D03*
X30906Y67126D02*
D03*
X31102Y63717D02*
D03*
X73129Y50523D02*
D03*
X73622Y57778D02*
D03*
X74704Y75106D02*
D03*
X73032Y68417D02*
D03*
X74999Y60596D02*
D03*
X69685Y82480D02*
D03*
X67323Y76772D02*
D03*
X22341Y49213D02*
D03*
X16339Y42126D02*
D03*
X18898Y41732D02*
D03*
X66535Y8465D02*
D03*
X63290Y19393D02*
D03*
X48690Y20146D02*
D03*
X61417Y8465D02*
D03*
X76575Y8661D02*
D03*
X81496D02*
D03*
X20079Y47047D02*
D03*
X19685Y36417D02*
D03*
X14894Y48819D02*
D03*
X84449Y70079D02*
D03*
X75249Y77405D02*
D03*
X90874Y72961D02*
D03*
X89370Y74803D02*
D03*
X83924Y66925D02*
D03*
X89976Y63378D02*
D03*
X86811Y65152D02*
D03*
X90997Y65942D02*
D03*
X75394Y68417D02*
D03*
X88416Y92595D02*
D03*
X81299Y98806D02*
D03*
X69784Y56593D02*
D03*
X70370Y80171D02*
D03*
X72244Y82874D02*
D03*
X60369Y93312D02*
D03*
X61024Y101373D02*
D03*
X39370Y114173D02*
D03*
X42323D02*
D03*
X16445Y64418D02*
D03*
X62964Y102727D02*
D03*
X64567Y97835D02*
D03*
X91535Y114173D02*
D03*
X90748Y45472D02*
D03*
X80512Y128740D02*
D03*
X28937Y126772D02*
D03*
X10630Y129921D02*
D03*
X46850Y130315D02*
D03*
X84646Y125591D02*
D03*
X98228Y129724D02*
D03*
X109843Y124606D02*
D03*
X106102Y130709D02*
D03*
X102559Y101181D02*
D03*
X97638Y84055D02*
D03*
X24409Y19685D02*
D03*
X19291D02*
D03*
X34941Y95374D02*
D03*
X26772Y89567D02*
D03*
X31496Y102362D02*
D03*
X110236Y106299D02*
D03*
X96063Y102756D02*
D03*
X110039Y93898D02*
D03*
X99606Y31693D02*
D03*
X87402Y37992D02*
D03*
X87068Y31136D02*
D03*
X91294Y58878D02*
D03*
X93307Y68504D02*
D03*
X96653Y76378D02*
D03*
X109843Y6299D02*
D03*
X96260Y31102D02*
D03*
X106890Y54921D02*
D03*
X104724Y85630D02*
D03*
X96457Y58661D02*
D03*
X105315Y81299D02*
D03*
X113155Y81417D02*
D03*
X76378Y46063D02*
D03*
X35827Y113189D02*
D03*
X85827Y90158D02*
D03*
X87795Y53543D02*
D03*
X81299Y96444D02*
D03*
X58465Y102756D02*
D03*
X17225Y32050D02*
D03*
X33200Y19814D02*
D03*
X36024Y19685D02*
D03*
X58858Y9055D02*
D03*
X56496Y8465D02*
D03*
X16369Y36251D02*
D03*
X24016Y31693D02*
D03*
X18701Y50688D02*
D03*
X14706Y51177D02*
D03*
X21715Y60630D02*
D03*
X64567Y31693D02*
D03*
X47835D02*
D03*
X80347Y87040D02*
D03*
X84447Y58658D02*
D03*
X90158Y60988D02*
D03*
X86818Y57819D02*
D03*
X36417Y125197D02*
D03*
X31496D02*
D03*
X9801Y113013D02*
D03*
X16923Y124600D02*
D03*
X13976Y125197D02*
D03*
X11516Y9350D02*
D03*
Y18406D02*
D03*
X101575Y124311D02*
D03*
X101673Y115256D02*
D03*
X11516Y124409D02*
D03*
Y115256D02*
D03*
X16732Y73032D02*
D03*
X35827Y77165D02*
D03*
X59055Y124803D02*
D03*
X76378Y114370D02*
D03*
X71850Y113779D02*
D03*
X41732Y125197D02*
D03*
X60236Y135039D02*
D03*
X34646D02*
D03*
X46850D02*
D03*
X38583D02*
D03*
X30709D02*
D03*
X27165D02*
D03*
X15551D02*
D03*
X7480D02*
D03*
X17256Y48819D02*
D03*
X59055Y115157D02*
D03*
X66732Y103740D02*
D03*
X87992Y114370D02*
D03*
X79331Y114764D02*
D03*
X91535Y19882D02*
D03*
X105089Y78716D02*
D03*
X106496Y60827D02*
D03*
X82677Y5709D02*
D03*
X55801Y93504D02*
D03*
X42126Y99803D02*
D03*
X81329Y50984D02*
D03*
Y53347D02*
D03*
X26378Y125197D02*
D03*
X40551Y3150D02*
D03*
X51575Y2953D02*
D03*
X46063D02*
D03*
X57087D02*
D03*
X76575Y19685D02*
D03*
X3150Y95669D02*
D03*
Y90158D02*
D03*
Y101181D02*
D03*
X37795Y87795D02*
D03*
X33465Y88779D02*
D03*
X3150Y68110D02*
D03*
Y84646D02*
D03*
Y79134D02*
D03*
Y62598D02*
D03*
Y73622D02*
D03*
X44291Y68898D02*
D03*
X26772Y86221D02*
D03*
X3150Y57087D02*
D03*
X31743Y59673D02*
D03*
X73622Y3150D02*
D03*
X79134D02*
D03*
X44291Y53150D02*
D03*
X54134Y87992D02*
D03*
X37598Y75000D02*
D03*
X37795Y82283D02*
D03*
X67223Y83962D02*
D03*
X3150Y24016D02*
D03*
Y29528D02*
D03*
Y35039D02*
D03*
Y40551D02*
D03*
Y46063D02*
D03*
Y51575D02*
D03*
Y105905D02*
D03*
Y109843D02*
D03*
Y118504D02*
D03*
Y124016D02*
D03*
Y129528D02*
D03*
Y135039D02*
D03*
X74803D02*
D03*
X79921D02*
D03*
X85039D02*
D03*
X105512D02*
D03*
X96850D02*
D03*
X101181D02*
D03*
X110236D02*
D03*
X114961D02*
D03*
Y129528D02*
D03*
Y124016D02*
D03*
Y118504D02*
D03*
Y109843D02*
D03*
Y105905D02*
D03*
Y101181D02*
D03*
Y95669D02*
D03*
Y90158D02*
D03*
Y84646D02*
D03*
Y79134D02*
D03*
Y73622D02*
D03*
Y68110D02*
D03*
Y62598D02*
D03*
Y57087D02*
D03*
Y51575D02*
D03*
Y46063D02*
D03*
Y40551D02*
D03*
Y35039D02*
D03*
Y29528D02*
D03*
Y24016D02*
D03*
Y15354D02*
D03*
Y10630D02*
D03*
Y5906D02*
D03*
X112205Y3150D02*
D03*
X106693D02*
D03*
X101181D02*
D03*
X95669D02*
D03*
X90158D02*
D03*
X84646D02*
D03*
X68110D02*
D03*
X62598D02*
D03*
X35039D02*
D03*
X29528D02*
D03*
X24016D02*
D03*
X18504D02*
D03*
X12992D02*
D03*
X7480D02*
D03*
X3063Y8858D02*
D03*
Y14764D02*
D03*
X3543Y3937D02*
D03*
X83465Y42913D02*
D03*
X81299Y36417D02*
D03*
X56102Y61024D02*
D03*
X74624Y54724D02*
D03*
X28150Y67126D02*
D03*
X36934Y65224D02*
D03*
X28346Y71260D02*
D03*
X74378Y48425D02*
D03*
X74410Y46063D02*
D03*
X44882Y114173D02*
D03*
X37795Y90354D02*
D03*
X44291Y64961D02*
D03*
X48228D02*
D03*
Y68898D02*
D03*
X60039Y61024D02*
D03*
X56102Y53150D02*
D03*
X60039D02*
D03*
Y57087D02*
D03*
X56102D02*
D03*
X48228D02*
D03*
X44291D02*
D03*
X48228Y61024D02*
D03*
X44291D02*
D03*
X52165Y64961D02*
D03*
Y61024D02*
D03*
Y57087D02*
D03*
Y68898D02*
D03*
X48228Y53150D02*
D03*
X52165D02*
D03*
X64173Y75197D02*
D03*
X74606Y43701D02*
D03*
Y41732D02*
D03*
X81299Y34449D02*
D03*
X33465Y85236D02*
D03*
D91*
X45534Y43209D02*
X55020D01*
X55467Y43657D02*
X56941D01*
X55020Y43209D02*
X55467Y43657D01*
X56941D02*
X56984Y43699D01*
X43664Y41339D02*
X45534Y43209D01*
X43504Y41339D02*
X43664D01*
D92*
X68186Y41475D02*
X68239D01*
X71384Y39864D02*
X73846Y37402D01*
X69849Y39864D02*
X71384D01*
X68239Y41475D02*
X69849Y39864D01*
X81261Y36455D02*
X81299Y36417D01*
X81261Y36455D02*
Y37045D01*
X80905Y37402D02*
X81261Y37045D01*
X73846Y37402D02*
X80905D01*
D93*
X40465Y37882D02*
X47761D01*
X48548Y37095D01*
X56471D01*
X39840Y41962D02*
Y42245D01*
X39085Y39262D02*
Y40836D01*
X38976Y41098D02*
X39840Y41962D01*
X38976Y40945D02*
X39085Y40836D01*
X38976Y40945D02*
Y41098D01*
X39085Y39262D02*
X40465Y37882D01*
X39840Y42245D02*
X42444D01*
X61133Y36133D02*
X61221Y36220D01*
X57433Y36133D02*
X61133D01*
X56471Y37095D02*
X57433Y36133D01*
X42444Y42245D02*
X43350Y41339D01*
X43504D01*
X68307Y52953D02*
X69784Y54429D01*
X40185Y42701D02*
Y45106D01*
X39567D02*
Y53954D01*
X34860Y58661D02*
X39567Y53954D01*
X40185Y45106D02*
X43110Y48031D01*
X61417D01*
X64961Y51575D01*
X30118Y78333D02*
X33661Y74790D01*
X30118Y78333D02*
Y85039D01*
X69784Y54429D02*
Y56593D01*
X33661Y62120D02*
X34860Y60921D01*
X33661Y62120D02*
Y74790D01*
X34860Y58661D02*
Y60921D01*
X62685Y73745D02*
X64961Y71470D01*
Y52953D02*
Y71470D01*
X62685Y73745D02*
X62685D01*
X61325Y75105D02*
X62685Y73745D01*
X54242Y87884D02*
X54426D01*
X59530Y76901D02*
Y82780D01*
X54134Y87992D02*
X54242Y87884D01*
X54426D02*
X59530Y82780D01*
X64961Y51575D02*
Y52953D01*
X68307D01*
X59530Y76901D02*
X61325Y75105D01*
M02*
