G04*
G04 #@! TF.GenerationSoftware,Altium Limited,Altium NEXUS,5.1.2 (10)*
G04*
G04 Layer_Color=8388736*
%FSLAX25Y25*%
%MOIN*%
G70*
G04*
G04 #@! TF.SameCoordinates,614915EC-EFCC-4F07-BEE6-519DBFB5DABB*
G04*
G04*
G04 #@! TF.FilePolarity,Negative*
G04*
G01*
G75*
%ADD33C,0.02362*%
G04:AMPARAMS|DCode=34|XSize=39.43mil|YSize=35.5mil|CornerRadius=5.15mil|HoleSize=0mil|Usage=FLASHONLY|Rotation=270.000|XOffset=0mil|YOffset=0mil|HoleType=Round|Shape=RoundedRectangle|*
%AMROUNDEDRECTD34*
21,1,0.03943,0.02520,0,0,270.0*
21,1,0.02913,0.03550,0,0,270.0*
1,1,0.01030,-0.01260,-0.01457*
1,1,0.01030,-0.01260,0.01457*
1,1,0.01030,0.01260,0.01457*
1,1,0.01030,0.01260,-0.01457*
%
%ADD34ROUNDEDRECTD34*%
G04:AMPARAMS|DCode=35|XSize=35.5mil|YSize=63.06mil|CornerRadius=5.15mil|HoleSize=0mil|Usage=FLASHONLY|Rotation=0.000|XOffset=0mil|YOffset=0mil|HoleType=Round|Shape=RoundedRectangle|*
%AMROUNDEDRECTD35*
21,1,0.03550,0.05276,0,0,0.0*
21,1,0.02520,0.06306,0,0,0.0*
1,1,0.01030,0.01260,-0.02638*
1,1,0.01030,-0.01260,-0.02638*
1,1,0.01030,-0.01260,0.02638*
1,1,0.01030,0.01260,0.02638*
%
%ADD35ROUNDEDRECTD35*%
%ADD36C,0.00500*%
%ADD37R,0.04337X0.10636*%
%ADD38R,0.10636X0.04337*%
G04:AMPARAMS|DCode=39|XSize=17.78mil|YSize=11.87mil|CornerRadius=2.98mil|HoleSize=0mil|Usage=FLASHONLY|Rotation=270.000|XOffset=0mil|YOffset=0mil|HoleType=Round|Shape=RoundedRectangle|*
%AMROUNDEDRECTD39*
21,1,0.01778,0.00591,0,0,270.0*
21,1,0.01181,0.01187,0,0,270.0*
1,1,0.00597,-0.00295,-0.00591*
1,1,0.00597,-0.00295,0.00591*
1,1,0.00597,0.00295,0.00591*
1,1,0.00597,0.00295,-0.00591*
%
%ADD39ROUNDEDRECTD39*%
%ADD40R,0.05124X0.03156*%
G04:AMPARAMS|DCode=41|XSize=45.34mil|YSize=29.59mil|CornerRadius=4.56mil|HoleSize=0mil|Usage=FLASHONLY|Rotation=0.000|XOffset=0mil|YOffset=0mil|HoleType=Round|Shape=RoundedRectangle|*
%AMROUNDEDRECTD41*
21,1,0.04534,0.02047,0,0,0.0*
21,1,0.03622,0.02959,0,0,0.0*
1,1,0.00912,0.01811,-0.01024*
1,1,0.00912,-0.01811,-0.01024*
1,1,0.00912,-0.01811,0.01024*
1,1,0.00912,0.01811,0.01024*
%
%ADD41ROUNDEDRECTD41*%
G04:AMPARAMS|DCode=42|XSize=27.62mil|YSize=27.62mil|CornerRadius=4.36mil|HoleSize=0mil|Usage=FLASHONLY|Rotation=90.000|XOffset=0mil|YOffset=0mil|HoleType=Round|Shape=RoundedRectangle|*
%AMROUNDEDRECTD42*
21,1,0.02762,0.01890,0,0,90.0*
21,1,0.01890,0.02762,0,0,90.0*
1,1,0.00872,0.00945,0.00945*
1,1,0.00872,0.00945,-0.00945*
1,1,0.00872,-0.00945,-0.00945*
1,1,0.00872,-0.00945,0.00945*
%
%ADD42ROUNDEDRECTD42*%
%ADD43R,0.01975X0.01384*%
%ADD44R,0.01384X0.01975*%
%ADD45R,0.18510X0.18510*%
G04:AMPARAMS|DCode=46|XSize=45.34mil|YSize=43.37mil|CornerRadius=5.94mil|HoleSize=0mil|Usage=FLASHONLY|Rotation=180.000|XOffset=0mil|YOffset=0mil|HoleType=Round|Shape=RoundedRectangle|*
%AMROUNDEDRECTD46*
21,1,0.04534,0.03150,0,0,180.0*
21,1,0.03347,0.04337,0,0,180.0*
1,1,0.01187,-0.01673,0.01575*
1,1,0.01187,0.01673,0.01575*
1,1,0.01187,0.01673,-0.01575*
1,1,0.01187,-0.01673,-0.01575*
%
%ADD46ROUNDEDRECTD46*%
G04:AMPARAMS|DCode=47|XSize=90.61mil|YSize=45.34mil|CornerRadius=6.13mil|HoleSize=0mil|Usage=FLASHONLY|Rotation=180.000|XOffset=0mil|YOffset=0mil|HoleType=Round|Shape=RoundedRectangle|*
%AMROUNDEDRECTD47*
21,1,0.09061,0.03307,0,0,180.0*
21,1,0.07835,0.04534,0,0,180.0*
1,1,0.01227,-0.03917,0.01654*
1,1,0.01227,0.03917,0.01654*
1,1,0.01227,0.03917,-0.01654*
1,1,0.01227,-0.03917,-0.01654*
%
%ADD47ROUNDEDRECTD47*%
G04:AMPARAMS|DCode=48|XSize=35.5mil|YSize=59.12mil|CornerRadius=5.15mil|HoleSize=0mil|Usage=FLASHONLY|Rotation=0.000|XOffset=0mil|YOffset=0mil|HoleType=Round|Shape=RoundedRectangle|*
%AMROUNDEDRECTD48*
21,1,0.03550,0.04882,0,0,0.0*
21,1,0.02520,0.05912,0,0,0.0*
1,1,0.01030,0.01260,-0.02441*
1,1,0.01030,-0.01260,-0.02441*
1,1,0.01030,-0.01260,0.02441*
1,1,0.01030,0.01260,0.02441*
%
%ADD48ROUNDEDRECTD48*%
G04:AMPARAMS|DCode=49|XSize=16.6mil|YSize=18.57mil|CornerRadius=2.63mil|HoleSize=0mil|Usage=FLASHONLY|Rotation=90.000|XOffset=0mil|YOffset=0mil|HoleType=Round|Shape=RoundedRectangle|*
%AMROUNDEDRECTD49*
21,1,0.01660,0.01331,0,0,90.0*
21,1,0.01134,0.01857,0,0,90.0*
1,1,0.00526,0.00665,0.00567*
1,1,0.00526,0.00665,-0.00567*
1,1,0.00526,-0.00665,-0.00567*
1,1,0.00526,-0.00665,0.00567*
%
%ADD49ROUNDEDRECTD49*%
G04:AMPARAMS|DCode=50|XSize=23.68mil|YSize=23.68mil|CornerRadius=3.97mil|HoleSize=0mil|Usage=FLASHONLY|Rotation=270.000|XOffset=0mil|YOffset=0mil|HoleType=Round|Shape=RoundedRectangle|*
%AMROUNDEDRECTD50*
21,1,0.02368,0.01575,0,0,270.0*
21,1,0.01575,0.02368,0,0,270.0*
1,1,0.00794,-0.00787,-0.00787*
1,1,0.00794,-0.00787,0.00787*
1,1,0.00794,0.00787,0.00787*
1,1,0.00794,0.00787,-0.00787*
%
%ADD50ROUNDEDRECTD50*%
G04:AMPARAMS|DCode=51|XSize=16.6mil|YSize=18.17mil|CornerRadius=3.58mil|HoleSize=0mil|Usage=FLASHONLY|Rotation=270.000|XOffset=0mil|YOffset=0mil|HoleType=Round|Shape=RoundedRectangle|*
%AMROUNDEDRECTD51*
21,1,0.01660,0.01102,0,0,270.0*
21,1,0.00945,0.01817,0,0,270.0*
1,1,0.00715,-0.00551,-0.00472*
1,1,0.00715,-0.00551,0.00472*
1,1,0.00715,0.00551,0.00472*
1,1,0.00715,0.00551,-0.00472*
%
%ADD51ROUNDEDRECTD51*%
G04:AMPARAMS|DCode=52|XSize=19.75mil|YSize=11.87mil|CornerRadius=2.98mil|HoleSize=0mil|Usage=FLASHONLY|Rotation=90.000|XOffset=0mil|YOffset=0mil|HoleType=Round|Shape=RoundedRectangle|*
%AMROUNDEDRECTD52*
21,1,0.01975,0.00591,0,0,90.0*
21,1,0.01378,0.01187,0,0,90.0*
1,1,0.00597,0.00295,0.00689*
1,1,0.00597,0.00295,-0.00689*
1,1,0.00597,-0.00295,-0.00689*
1,1,0.00597,-0.00295,0.00689*
%
%ADD52ROUNDEDRECTD52*%
G04:AMPARAMS|DCode=53|XSize=23.68mil|YSize=13.84mil|CornerRadius=3.97mil|HoleSize=0mil|Usage=FLASHONLY|Rotation=180.000|XOffset=0mil|YOffset=0mil|HoleType=Round|Shape=RoundedRectangle|*
%AMROUNDEDRECTD53*
21,1,0.02368,0.00591,0,0,180.0*
21,1,0.01575,0.01384,0,0,180.0*
1,1,0.00794,-0.00787,0.00295*
1,1,0.00794,0.00787,0.00295*
1,1,0.00794,0.00787,-0.00295*
1,1,0.00794,-0.00787,-0.00295*
%
%ADD53ROUNDEDRECTD53*%
G04:AMPARAMS|DCode=54|XSize=37.47mil|YSize=35.5mil|CornerRadius=5.94mil|HoleSize=0mil|Usage=FLASHONLY|Rotation=270.000|XOffset=0mil|YOffset=0mil|HoleType=Round|Shape=RoundedRectangle|*
%AMROUNDEDRECTD54*
21,1,0.03747,0.02362,0,0,270.0*
21,1,0.02559,0.03550,0,0,270.0*
1,1,0.01187,-0.01181,-0.01280*
1,1,0.01187,-0.01181,0.01280*
1,1,0.01187,0.01181,0.01280*
1,1,0.01187,0.01181,-0.01280*
%
%ADD54ROUNDEDRECTD54*%
G04:AMPARAMS|DCode=55|XSize=16.6mil|YSize=18.17mil|CornerRadius=3.58mil|HoleSize=0mil|Usage=FLASHONLY|Rotation=180.000|XOffset=0mil|YOffset=0mil|HoleType=Round|Shape=RoundedRectangle|*
%AMROUNDEDRECTD55*
21,1,0.01660,0.01102,0,0,180.0*
21,1,0.00945,0.01817,0,0,180.0*
1,1,0.00715,-0.00472,0.00551*
1,1,0.00715,0.00472,0.00551*
1,1,0.00715,0.00472,-0.00551*
1,1,0.00715,-0.00472,-0.00551*
%
%ADD55ROUNDEDRECTD55*%
G04:AMPARAMS|DCode=56|XSize=16.6mil|YSize=18.57mil|CornerRadius=2.63mil|HoleSize=0mil|Usage=FLASHONLY|Rotation=180.000|XOffset=0mil|YOffset=0mil|HoleType=Round|Shape=RoundedRectangle|*
%AMROUNDEDRECTD56*
21,1,0.01660,0.01331,0,0,180.0*
21,1,0.01134,0.01857,0,0,180.0*
1,1,0.00526,-0.00567,0.00665*
1,1,0.00526,0.00567,0.00665*
1,1,0.00526,0.00567,-0.00665*
1,1,0.00526,-0.00567,-0.00665*
%
%ADD56ROUNDEDRECTD56*%
G04:AMPARAMS|DCode=57|XSize=16.6mil|YSize=17.39mil|CornerRadius=3.58mil|HoleSize=0mil|Usage=FLASHONLY|Rotation=90.000|XOffset=0mil|YOffset=0mil|HoleType=Round|Shape=RoundedRectangle|*
%AMROUNDEDRECTD57*
21,1,0.01660,0.01024,0,0,90.0*
21,1,0.00945,0.01739,0,0,90.0*
1,1,0.00715,0.00512,0.00472*
1,1,0.00715,0.00512,-0.00472*
1,1,0.00715,-0.00512,-0.00472*
1,1,0.00715,-0.00512,0.00472*
%
%ADD57ROUNDEDRECTD57*%
G04:AMPARAMS|DCode=58|XSize=16.6mil|YSize=17.39mil|CornerRadius=3.58mil|HoleSize=0mil|Usage=FLASHONLY|Rotation=180.000|XOffset=0mil|YOffset=0mil|HoleType=Round|Shape=RoundedRectangle|*
%AMROUNDEDRECTD58*
21,1,0.01660,0.01024,0,0,180.0*
21,1,0.00945,0.01739,0,0,180.0*
1,1,0.00715,-0.00472,0.00512*
1,1,0.00715,0.00472,0.00512*
1,1,0.00715,0.00472,-0.00512*
1,1,0.00715,-0.00472,-0.00512*
%
%ADD58ROUNDEDRECTD58*%
G04:AMPARAMS|DCode=59|XSize=27.62mil|YSize=27.62mil|CornerRadius=4.36mil|HoleSize=0mil|Usage=FLASHONLY|Rotation=0.000|XOffset=0mil|YOffset=0mil|HoleType=Round|Shape=RoundedRectangle|*
%AMROUNDEDRECTD59*
21,1,0.02762,0.01890,0,0,0.0*
21,1,0.01890,0.02762,0,0,0.0*
1,1,0.00872,0.00945,-0.00945*
1,1,0.00872,-0.00945,-0.00945*
1,1,0.00872,-0.00945,0.00945*
1,1,0.00872,0.00945,0.00945*
%
%ADD59ROUNDEDRECTD59*%
G04:AMPARAMS|DCode=60|XSize=23.68mil|YSize=23.68mil|CornerRadius=3.97mil|HoleSize=0mil|Usage=FLASHONLY|Rotation=180.000|XOffset=0mil|YOffset=0mil|HoleType=Round|Shape=RoundedRectangle|*
%AMROUNDEDRECTD60*
21,1,0.02368,0.01575,0,0,180.0*
21,1,0.01575,0.02368,0,0,180.0*
1,1,0.00794,-0.00787,0.00787*
1,1,0.00794,0.00787,0.00787*
1,1,0.00794,0.00787,-0.00787*
1,1,0.00794,-0.00787,-0.00787*
%
%ADD60ROUNDEDRECTD60*%
G36*
X50777Y114635D02*
X50875Y114536D01*
X50928Y114408D01*
Y114338D01*
Y111056D01*
Y110986D01*
X50875Y110857D01*
X50777Y110759D01*
X50648Y110705D01*
X49549D01*
X49420Y110759D01*
X49322Y110857D01*
X49268Y110986D01*
Y111056D01*
Y114338D01*
Y114408D01*
X49322Y114536D01*
X49420Y114635D01*
X49549Y114688D01*
X50648D01*
X50777Y114635D01*
D02*
G37*
G36*
X51196Y101544D02*
X51252Y101488D01*
X51283Y101415D01*
Y101375D01*
Y99806D01*
Y99766D01*
X51252Y99693D01*
X51196Y99637D01*
X51122Y99606D01*
X51196Y99576D01*
X51252Y99520D01*
X51283Y99446D01*
Y99406D01*
Y97838D01*
Y97798D01*
X51252Y97724D01*
X51196Y97668D01*
X51122Y97638D01*
X50649D01*
X50576Y97668D01*
X50519Y97724D01*
X50489Y97798D01*
Y97838D01*
Y99406D01*
Y99446D01*
X50519Y99520D01*
X50576Y99576D01*
X50649Y99606D01*
X50576Y99637D01*
X50519Y99693D01*
X50489Y99766D01*
Y99806D01*
Y101375D01*
Y101415D01*
X50519Y101488D01*
X50576Y101544D01*
X50649Y101575D01*
X51122D01*
X51196Y101544D01*
D02*
G37*
G36*
X49621D02*
X49677Y101488D01*
X49708Y101415D01*
Y101375D01*
Y99806D01*
Y99766D01*
X49677Y99693D01*
X49621Y99637D01*
X49548Y99606D01*
X49621Y99576D01*
X49677Y99520D01*
X49708Y99446D01*
Y99406D01*
Y97838D01*
Y97798D01*
X49677Y97724D01*
X49621Y97668D01*
X49548Y97638D01*
X49074D01*
X49001Y97668D01*
X48945Y97724D01*
X48914Y97798D01*
Y97838D01*
Y99406D01*
Y99446D01*
X48945Y99520D01*
X49001Y99576D01*
X49074Y99606D01*
X49001Y99637D01*
X48945Y99693D01*
X48914Y99766D01*
Y99806D01*
Y101375D01*
Y101415D01*
X48945Y101488D01*
X49001Y101544D01*
X49074Y101575D01*
X49548D01*
X49621Y101544D01*
D02*
G37*
G36*
X93556Y109649D02*
X93608Y109639D01*
X93657Y109622D01*
X93704Y109599D01*
X93748Y109570D01*
X93787Y109535D01*
X93822Y109496D01*
X93851Y109452D01*
X93874Y109405D01*
X93891Y109356D01*
X93901Y109304D01*
X93905Y109252D01*
Y96260D01*
X93901Y96207D01*
X93891Y96156D01*
X93874Y96106D01*
X93851Y96059D01*
X93822Y96016D01*
X93787Y95976D01*
X93748Y95942D01*
X93704Y95913D01*
X93657Y95890D01*
X93608Y95873D01*
X93556Y95862D01*
X93504Y95859D01*
X89567D01*
X89515Y95862D01*
X89463Y95873D01*
X89413Y95890D01*
X89367Y95913D01*
X89323Y95942D01*
X89284Y95976D01*
X89249Y96016D01*
X89220Y96059D01*
X89197Y96106D01*
X89180Y96156D01*
X89170Y96207D01*
X89166Y96260D01*
Y104914D01*
X80512D01*
X80459Y104918D01*
X80408Y104928D01*
X80358Y104945D01*
X80311Y104968D01*
X80268Y104997D01*
X80228Y105032D01*
X80194Y105071D01*
X80165Y105114D01*
X80141Y105162D01*
X80125Y105211D01*
X80114Y105263D01*
X80111Y105315D01*
Y109252D01*
X80114Y109304D01*
X80125Y109356D01*
X80141Y109405D01*
X80165Y109452D01*
X80194Y109496D01*
X80228Y109535D01*
X80268Y109570D01*
X80311Y109599D01*
X80358Y109622D01*
X80408Y109639D01*
X80459Y109649D01*
X80512Y109653D01*
X93504D01*
X93556Y109649D01*
D02*
G37*
G36*
X21903D02*
X21954Y109639D01*
X22004Y109622D01*
X22051Y109599D01*
X22094Y109570D01*
X22134Y109535D01*
X22168Y109496D01*
X22198Y109452D01*
X22221Y109405D01*
X22238Y109356D01*
X22248Y109304D01*
X22251Y109252D01*
Y105315D01*
X22248Y105263D01*
X22238Y105211D01*
X22221Y105162D01*
X22198Y105114D01*
X22168Y105071D01*
X22134Y105032D01*
X22094Y104997D01*
X22051Y104968D01*
X22004Y104945D01*
X21954Y104928D01*
X21903Y104918D01*
X21850Y104914D01*
X13196D01*
Y96260D01*
X13193Y96207D01*
X13183Y96156D01*
X13166Y96106D01*
X13142Y96059D01*
X13113Y96016D01*
X13079Y95976D01*
X13039Y95942D01*
X12996Y95913D01*
X12949Y95890D01*
X12899Y95873D01*
X12848Y95862D01*
X12795Y95859D01*
X8858D01*
X8806Y95862D01*
X8755Y95873D01*
X8705Y95890D01*
X8658Y95913D01*
X8614Y95942D01*
X8575Y95976D01*
X8540Y96016D01*
X8511Y96059D01*
X8488Y96106D01*
X8471Y96156D01*
X8461Y96207D01*
X8457Y96260D01*
Y109252D01*
X8461Y109304D01*
X8471Y109356D01*
X8488Y109405D01*
X8511Y109452D01*
X8540Y109496D01*
X8575Y109535D01*
X8614Y109570D01*
X8658Y109599D01*
X8705Y109622D01*
X8755Y109639D01*
X8806Y109649D01*
X8858Y109653D01*
X21850D01*
X21903Y109649D01*
D02*
G37*
G36*
X50855Y95855D02*
X50954Y95757D01*
X51007Y95628D01*
Y95559D01*
Y94599D01*
Y94529D01*
X50954Y94401D01*
X50855Y94302D01*
X50727Y94249D01*
X47305D01*
X47176Y94302D01*
X47078Y94401D01*
X47024Y94529D01*
Y94599D01*
Y95559D01*
Y95628D01*
X47078Y95757D01*
X47176Y95855D01*
X47305Y95909D01*
X50727D01*
X50855Y95855D01*
D02*
G37*
G36*
X45149Y95922D02*
X45233Y95838D01*
X45279Y95727D01*
Y95668D01*
Y88781D01*
Y88721D01*
X45233Y88611D01*
X45149Y88527D01*
X45038Y88481D01*
X39607D01*
X39497Y88527D01*
X39413Y88611D01*
X39367Y88721D01*
Y88781D01*
Y95668D01*
Y95727D01*
X39413Y95838D01*
X39497Y95922D01*
X39607Y95968D01*
X45038D01*
X45149Y95922D01*
D02*
G37*
G36*
X48316Y90422D02*
X48414Y90324D01*
X48468Y90195D01*
Y90126D01*
Y86843D01*
Y86773D01*
X48414Y86645D01*
X48316Y86546D01*
X48187Y86493D01*
X47088D01*
X46960Y86546D01*
X46861Y86645D01*
X46808Y86773D01*
Y86843D01*
Y90126D01*
Y90195D01*
X46861Y90324D01*
X46960Y90422D01*
X47088Y90476D01*
X48187D01*
X48316Y90422D01*
D02*
G37*
G36*
X52647Y89733D02*
X52745Y89635D01*
X52798Y89506D01*
Y89437D01*
Y86154D01*
Y86084D01*
X52745Y85956D01*
X52647Y85857D01*
X52518Y85804D01*
X51419D01*
X51290Y85857D01*
X51192Y85956D01*
X51139Y86084D01*
Y86154D01*
Y89437D01*
Y89506D01*
X51192Y89635D01*
X51290Y89733D01*
X51419Y89787D01*
X52518D01*
X52647Y89733D01*
D02*
G37*
G36*
X48296Y85816D02*
X48395Y85717D01*
X48448Y85589D01*
Y85519D01*
Y84560D01*
Y84490D01*
X48395Y84361D01*
X48296Y84263D01*
X48168Y84210D01*
X44746D01*
X44617Y84263D01*
X44519Y84361D01*
X44465Y84490D01*
Y84560D01*
Y85519D01*
Y85589D01*
X44519Y85717D01*
X44617Y85816D01*
X44746Y85869D01*
X48168D01*
X48296Y85816D01*
D02*
G37*
G36*
X40639Y85599D02*
X40737Y85501D01*
X40791Y85372D01*
Y85303D01*
Y82020D01*
Y81950D01*
X40737Y81822D01*
X40639Y81723D01*
X40510Y81670D01*
X39411D01*
X39283Y81723D01*
X39184Y81822D01*
X39131Y81950D01*
Y82020D01*
Y85303D01*
Y85372D01*
X39184Y85501D01*
X39283Y85599D01*
X39411Y85653D01*
X40510D01*
X40639Y85599D01*
D02*
G37*
G36*
X68966Y82863D02*
X69064Y82765D01*
X69117Y82636D01*
Y82566D01*
Y81607D01*
Y81537D01*
X69064Y81409D01*
X68966Y81310D01*
X68837Y81257D01*
X65415D01*
X65286Y81310D01*
X65188Y81409D01*
X65135Y81537D01*
Y81607D01*
Y82566D01*
Y82636D01*
X65188Y82765D01*
X65286Y82863D01*
X65415Y82916D01*
X68837D01*
X68966Y82863D01*
D02*
G37*
G36*
X54812Y85009D02*
X54910Y84911D01*
X54964Y84782D01*
Y84712D01*
Y81429D01*
Y81360D01*
X54910Y81231D01*
X54812Y81133D01*
X54683Y81080D01*
X53584D01*
X53456Y81133D01*
X53357Y81231D01*
X53304Y81360D01*
Y81429D01*
Y84712D01*
Y84782D01*
X53357Y84911D01*
X53456Y85009D01*
X53584Y85062D01*
X54683D01*
X54812Y85009D01*
D02*
G37*
G36*
X45540Y82273D02*
X45639Y82174D01*
X45692Y82046D01*
Y81976D01*
Y81016D01*
Y80946D01*
X45639Y80818D01*
X45540Y80719D01*
X45412Y80666D01*
X41990D01*
X41861Y80719D01*
X41763Y80818D01*
X41709Y80946D01*
Y81016D01*
Y81976D01*
Y82046D01*
X41763Y82174D01*
X41861Y82273D01*
X41990Y82326D01*
X45412D01*
X45540Y82273D01*
D02*
G37*
G36*
X48355Y83743D02*
X48428Y83670D01*
X48468Y83574D01*
Y83523D01*
Y80060D01*
Y80008D01*
X48428Y79913D01*
X48355Y79840D01*
X48259Y79800D01*
X47016D01*
X46921Y79840D01*
X46848Y79913D01*
X46808Y80008D01*
Y80060D01*
Y83523D01*
Y83574D01*
X46848Y83670D01*
X46921Y83743D01*
X47016Y83783D01*
X48259D01*
X48355Y83743D01*
D02*
G37*
G36*
X51564Y83040D02*
X51662Y82942D01*
X51716Y82813D01*
Y82744D01*
Y79461D01*
Y79391D01*
X51662Y79263D01*
X51564Y79164D01*
X51435Y79111D01*
X50336D01*
X50208Y79164D01*
X50109Y79263D01*
X50056Y79391D01*
Y79461D01*
Y82744D01*
Y82813D01*
X50109Y82942D01*
X50208Y83040D01*
X50336Y83094D01*
X51435D01*
X51564Y83040D01*
D02*
G37*
G36*
X40225Y80107D02*
X40324Y80009D01*
X40377Y79880D01*
Y79811D01*
Y78851D01*
Y78781D01*
X40324Y78653D01*
X40225Y78554D01*
X40097Y78501D01*
X36675D01*
X36546Y78554D01*
X36448Y78653D01*
X36395Y78781D01*
Y78851D01*
Y79811D01*
Y79880D01*
X36448Y80009D01*
X36546Y80107D01*
X36675Y80161D01*
X40097D01*
X40225Y80107D01*
D02*
G37*
G36*
X67391Y80107D02*
X67489Y80009D01*
X67542Y79880D01*
Y79811D01*
Y78851D01*
Y78781D01*
X67489Y78653D01*
X67391Y78554D01*
X67262Y78501D01*
X63840D01*
X63712Y78554D01*
X63613Y78653D01*
X63560Y78781D01*
Y78851D01*
Y79811D01*
Y79880D01*
X63613Y80009D01*
X63712Y80107D01*
X63840Y80161D01*
X67262D01*
X67391Y80107D01*
D02*
G37*
G36*
X48296Y79320D02*
X48395Y79221D01*
X48448Y79093D01*
Y79023D01*
Y78063D01*
Y77994D01*
X48395Y77865D01*
X48296Y77767D01*
X48168Y77713D01*
X44746D01*
X44617Y77767D01*
X44519Y77865D01*
X44465Y77994D01*
Y78063D01*
Y79023D01*
Y79093D01*
X44519Y79221D01*
X44617Y79320D01*
X44746Y79373D01*
X48168D01*
X48296Y79320D01*
D02*
G37*
G36*
X34143Y80678D02*
X34241Y80580D01*
X34295Y80451D01*
Y80382D01*
Y77099D01*
Y77029D01*
X34241Y76901D01*
X34143Y76802D01*
X34014Y76749D01*
X32915D01*
X32786Y76802D01*
X32688Y76901D01*
X32635Y77029D01*
Y77099D01*
Y80382D01*
Y80451D01*
X32688Y80580D01*
X32786Y80678D01*
X32915Y80731D01*
X34014D01*
X34143Y80678D01*
D02*
G37*
G36*
X40855Y77956D02*
X40928Y77882D01*
X40968Y77787D01*
Y77735D01*
Y76595D01*
Y76544D01*
X40928Y76448D01*
X40855Y76375D01*
X40759Y76336D01*
X37193D01*
X37098Y76375D01*
X37025Y76448D01*
X36985Y76544D01*
Y76595D01*
Y77735D01*
Y77787D01*
X37025Y77882D01*
X37098Y77956D01*
X37193Y77995D01*
X40759D01*
X40855Y77956D01*
D02*
G37*
G36*
X43237Y80101D02*
X43310Y80028D01*
X43350Y79933D01*
Y79881D01*
Y76418D01*
Y76367D01*
X43310Y76271D01*
X43237Y76198D01*
X43141Y76158D01*
X41898D01*
X41802Y76198D01*
X41729Y76271D01*
X41690Y76367D01*
Y76418D01*
Y79881D01*
Y79933D01*
X41729Y80028D01*
X41802Y80101D01*
X41898Y80141D01*
X43141D01*
X43237Y80101D01*
D02*
G37*
G36*
X66407Y77745D02*
X66505Y77647D01*
X66558Y77518D01*
Y77448D01*
Y76489D01*
Y76419D01*
X66505Y76290D01*
X66407Y76192D01*
X66278Y76139D01*
X62856D01*
X62727Y76192D01*
X62629Y76290D01*
X62576Y76419D01*
Y76489D01*
Y77448D01*
Y77518D01*
X62629Y77647D01*
X62727Y77745D01*
X62856Y77798D01*
X66278D01*
X66407Y77745D01*
D02*
G37*
G36*
X31466Y77548D02*
X31564Y77450D01*
X31617Y77321D01*
Y77251D01*
Y76292D01*
Y76222D01*
X31564Y76094D01*
X31466Y75995D01*
X31337Y75942D01*
X27915D01*
X27786Y75995D01*
X27688Y76094D01*
X27635Y76222D01*
Y76292D01*
Y77251D01*
Y77321D01*
X27688Y77450D01*
X27786Y77548D01*
X27915Y77601D01*
X31337D01*
X31466Y77548D01*
D02*
G37*
G36*
X73690Y75580D02*
X73788Y75481D01*
X73842Y75353D01*
Y75283D01*
Y74323D01*
Y74254D01*
X73788Y74125D01*
X73690Y74027D01*
X73561Y73973D01*
X70139D01*
X70011Y74027D01*
X69912Y74125D01*
X69859Y74254D01*
Y74323D01*
Y75283D01*
Y75353D01*
X69912Y75481D01*
X70011Y75580D01*
X70139Y75633D01*
X73561D01*
X73690Y75580D01*
D02*
G37*
G36*
X35698Y75383D02*
X35796Y75284D01*
X35850Y75156D01*
Y75086D01*
Y74126D01*
Y74057D01*
X35796Y73928D01*
X35698Y73830D01*
X35569Y73776D01*
X32147D01*
X32019Y73830D01*
X31920Y73928D01*
X31867Y74057D01*
Y74126D01*
Y75086D01*
Y75156D01*
X31920Y75284D01*
X32019Y75383D01*
X32147Y75436D01*
X35569D01*
X35698Y75383D01*
D02*
G37*
G36*
Y72627D02*
X35796Y72528D01*
X35850Y72400D01*
Y72330D01*
Y71371D01*
Y71301D01*
X35796Y71172D01*
X35698Y71074D01*
X35569Y71021D01*
X32147D01*
X32019Y71074D01*
X31920Y71172D01*
X31867Y71301D01*
Y71371D01*
Y72330D01*
Y72400D01*
X31920Y72528D01*
X32019Y72627D01*
X32147Y72680D01*
X35569D01*
X35698Y72627D01*
D02*
G37*
G36*
X72312Y68887D02*
X72411Y68788D01*
X72464Y68660D01*
Y68590D01*
Y67630D01*
Y67561D01*
X72411Y67432D01*
X72312Y67334D01*
X72183Y67280D01*
X68761D01*
X68633Y67334D01*
X68534Y67432D01*
X68481Y67561D01*
Y67630D01*
Y68590D01*
Y68660D01*
X68534Y68788D01*
X68633Y68887D01*
X68761Y68940D01*
X72183D01*
X72312Y68887D01*
D02*
G37*
G36*
X35698Y68099D02*
X35796Y68001D01*
X35850Y67872D01*
Y67803D01*
Y66843D01*
Y66773D01*
X35796Y66645D01*
X35698Y66546D01*
X35569Y66493D01*
X32147D01*
X32019Y66546D01*
X31920Y66645D01*
X31867Y66773D01*
Y66843D01*
Y67803D01*
Y67872D01*
X31920Y68001D01*
X32019Y68099D01*
X32147Y68153D01*
X35569D01*
X35698Y68099D01*
D02*
G37*
G36*
Y64753D02*
X35796Y64654D01*
X35850Y64526D01*
Y64456D01*
Y63497D01*
Y63427D01*
X35796Y63298D01*
X35698Y63200D01*
X35569Y63147D01*
X32147D01*
X32019Y63200D01*
X31920Y63298D01*
X31867Y63427D01*
Y63497D01*
Y64456D01*
Y64526D01*
X31920Y64654D01*
X32019Y64753D01*
X32147Y64806D01*
X35569D01*
X35698Y64753D01*
D02*
G37*
G36*
X34615Y62391D02*
X34714Y62292D01*
X34767Y62164D01*
Y62094D01*
Y61134D01*
Y61065D01*
X34714Y60936D01*
X34615Y60838D01*
X34486Y60784D01*
X31065D01*
X30936Y60838D01*
X30838Y60936D01*
X30784Y61065D01*
Y61134D01*
Y62094D01*
Y62164D01*
X30838Y62292D01*
X30936Y62391D01*
X31065Y62444D01*
X34486D01*
X34615Y62391D01*
D02*
G37*
G36*
X73099Y61210D02*
X73198Y61111D01*
X73251Y60983D01*
Y60913D01*
Y59953D01*
Y59884D01*
X73198Y59755D01*
X73099Y59656D01*
X72971Y59603D01*
X69549D01*
X69420Y59656D01*
X69322Y59755D01*
X69269Y59884D01*
Y59953D01*
Y60913D01*
Y60983D01*
X69322Y61111D01*
X69420Y61210D01*
X69549Y61263D01*
X72971D01*
X73099Y61210D01*
D02*
G37*
G36*
X72706Y58651D02*
X72804Y58552D01*
X72857Y58424D01*
Y58354D01*
Y57394D01*
Y57324D01*
X72804Y57196D01*
X72706Y57097D01*
X72577Y57044D01*
X69155D01*
X69026Y57097D01*
X68928Y57196D01*
X68875Y57324D01*
Y57394D01*
Y58354D01*
Y58424D01*
X68928Y58552D01*
X69026Y58651D01*
X69155Y58704D01*
X72577D01*
X72706Y58651D01*
D02*
G37*
G36*
X33336Y55895D02*
X33434Y55796D01*
X33487Y55668D01*
Y55598D01*
Y54638D01*
Y54569D01*
X33434Y54440D01*
X33336Y54342D01*
X33207Y54288D01*
X29785D01*
X29656Y54342D01*
X29558Y54440D01*
X29505Y54569D01*
Y54638D01*
Y55598D01*
Y55668D01*
X29558Y55796D01*
X29656Y55895D01*
X29785Y55948D01*
X33207D01*
X33336Y55895D01*
D02*
G37*
G36*
X71722Y54714D02*
X71820Y54615D01*
X71873Y54487D01*
Y54417D01*
Y53457D01*
Y53387D01*
X71820Y53259D01*
X71722Y53160D01*
X71593Y53107D01*
X68171D01*
X68042Y53160D01*
X67944Y53259D01*
X67891Y53387D01*
Y53457D01*
Y54417D01*
Y54487D01*
X67944Y54615D01*
X68042Y54714D01*
X68171Y54767D01*
X71593D01*
X71722Y54714D01*
D02*
G37*
G36*
Y51170D02*
X71820Y51072D01*
X71873Y50943D01*
Y50874D01*
Y49914D01*
Y49844D01*
X71820Y49716D01*
X71722Y49617D01*
X71593Y49564D01*
X68171D01*
X68042Y49617D01*
X67944Y49716D01*
X67891Y49844D01*
Y49914D01*
Y50874D01*
Y50943D01*
X67944Y51072D01*
X68042Y51170D01*
X68171Y51224D01*
X71593D01*
X71722Y51170D01*
D02*
G37*
G36*
Y48217D02*
X71820Y48119D01*
X71873Y47990D01*
Y47921D01*
Y46961D01*
Y46891D01*
X71820Y46763D01*
X71722Y46664D01*
X71593Y46611D01*
X68171D01*
X68042Y46664D01*
X67944Y46763D01*
X67891Y46891D01*
Y46961D01*
Y47921D01*
Y47990D01*
X67944Y48119D01*
X68042Y48217D01*
X68171Y48271D01*
X71593D01*
X71722Y48217D01*
D02*
G37*
G36*
X41820Y44851D02*
X41918Y44753D01*
X41972Y44624D01*
Y44555D01*
Y41272D01*
Y41202D01*
X41918Y41074D01*
X41820Y40975D01*
X41691Y40922D01*
X40592D01*
X40464Y40975D01*
X40365Y41074D01*
X40312Y41202D01*
Y41272D01*
Y44555D01*
Y44624D01*
X40365Y44753D01*
X40464Y44851D01*
X40592Y44905D01*
X41691D01*
X41820Y44851D01*
D02*
G37*
G36*
X60324Y44655D02*
X60422Y44556D01*
X60476Y44427D01*
Y44358D01*
Y41075D01*
Y41006D01*
X60422Y40877D01*
X60324Y40778D01*
X60195Y40725D01*
X59096D01*
X58968Y40778D01*
X58869Y40877D01*
X58816Y41006D01*
Y41075D01*
Y44358D01*
Y44427D01*
X58869Y44556D01*
X58968Y44655D01*
X59096Y44708D01*
X60195D01*
X60324Y44655D01*
D02*
G37*
G36*
X53631D02*
X53729Y44556D01*
X53783Y44427D01*
Y44358D01*
Y41075D01*
Y41006D01*
X53729Y40877D01*
X53631Y40778D01*
X53502Y40725D01*
X52403D01*
X52275Y40778D01*
X52176Y40877D01*
X52123Y41006D01*
Y41075D01*
Y44358D01*
Y44427D01*
X52176Y44556D01*
X52275Y44655D01*
X52403Y44708D01*
X53502D01*
X53631Y44655D01*
D02*
G37*
G36*
X66426Y44458D02*
X66525Y44359D01*
X66578Y44231D01*
Y44161D01*
Y40878D01*
Y40809D01*
X66525Y40680D01*
X66426Y40582D01*
X66298Y40528D01*
X65198D01*
X65070Y40582D01*
X64971Y40680D01*
X64918Y40809D01*
Y40878D01*
Y44161D01*
Y44231D01*
X64971Y44359D01*
X65070Y44458D01*
X65198Y44511D01*
X66298D01*
X66426Y44458D01*
D02*
G37*
G36*
X64064D02*
X64162Y44359D01*
X64216Y44231D01*
Y44161D01*
Y40878D01*
Y40809D01*
X64162Y40680D01*
X64064Y40582D01*
X63935Y40528D01*
X62836D01*
X62708Y40582D01*
X62609Y40680D01*
X62556Y40809D01*
Y40878D01*
Y44161D01*
Y44231D01*
X62609Y44359D01*
X62708Y44458D01*
X62836Y44511D01*
X63935D01*
X64064Y44458D01*
D02*
G37*
G36*
X48710D02*
X48808Y44359D01*
X48861Y44231D01*
Y44161D01*
Y40878D01*
Y40809D01*
X48808Y40680D01*
X48710Y40582D01*
X48581Y40528D01*
X47482D01*
X47353Y40582D01*
X47255Y40680D01*
X47202Y40809D01*
Y40878D01*
Y44161D01*
Y44231D01*
X47255Y44359D01*
X47353Y44458D01*
X47482Y44511D01*
X48581D01*
X48710Y44458D01*
D02*
G37*
G36*
X59123Y39753D02*
X59222Y39654D01*
X59275Y39526D01*
Y39456D01*
Y38497D01*
Y38427D01*
X59222Y38298D01*
X59123Y38200D01*
X58994Y38146D01*
X55572D01*
X55444Y38200D01*
X55345Y38298D01*
X55292Y38427D01*
Y38497D01*
Y39456D01*
Y39526D01*
X55345Y39654D01*
X55444Y39753D01*
X55572Y39806D01*
X58994D01*
X59123Y39753D01*
D02*
G37*
G36*
X53611D02*
X53710Y39654D01*
X53763Y39526D01*
Y39456D01*
Y38497D01*
Y38427D01*
X53710Y38298D01*
X53611Y38200D01*
X53483Y38146D01*
X50061D01*
X49932Y38200D01*
X49834Y38298D01*
X49780Y38427D01*
Y38497D01*
Y39456D01*
Y39526D01*
X49834Y39654D01*
X49932Y39753D01*
X50061Y39806D01*
X53483D01*
X53611Y39753D01*
D02*
G37*
G36*
X43985Y40521D02*
X44084Y40422D01*
X44137Y40294D01*
Y40224D01*
Y36941D01*
Y36872D01*
X44084Y36743D01*
X43985Y36645D01*
X43857Y36591D01*
X42758D01*
X42629Y36645D01*
X42531Y36743D01*
X42477Y36872D01*
Y36941D01*
Y40224D01*
Y40294D01*
X42531Y40422D01*
X42629Y40521D01*
X42758Y40574D01*
X43857D01*
X43985Y40521D01*
D02*
G37*
G36*
X82155Y33060D02*
X82253Y32962D01*
X82306Y32833D01*
Y32763D01*
Y31804D01*
Y31734D01*
X82253Y31605D01*
X82155Y31507D01*
X82026Y31454D01*
X78604D01*
X78475Y31507D01*
X78377Y31605D01*
X78324Y31734D01*
Y31804D01*
Y32763D01*
Y32833D01*
X78377Y32962D01*
X78475Y33060D01*
X78604Y33113D01*
X82026D01*
X82155Y33060D01*
D02*
G37*
G36*
X93556Y37996D02*
X93608Y37986D01*
X93657Y37969D01*
X93704Y37946D01*
X93748Y37916D01*
X93787Y37882D01*
X93822Y37843D01*
X93851Y37799D01*
X93874Y37752D01*
X93891Y37702D01*
X93901Y37651D01*
X93905Y37598D01*
Y24606D01*
X93901Y24554D01*
X93891Y24502D01*
X93874Y24453D01*
X93851Y24406D01*
X93822Y24362D01*
X93787Y24323D01*
X93748Y24288D01*
X93704Y24259D01*
X93657Y24236D01*
X93608Y24219D01*
X93556Y24209D01*
X93504Y24205D01*
X80512D01*
X80459Y24209D01*
X80408Y24219D01*
X80358Y24236D01*
X80311Y24259D01*
X80268Y24288D01*
X80228Y24323D01*
X80194Y24362D01*
X80165Y24406D01*
X80141Y24453D01*
X80125Y24502D01*
X80114Y24554D01*
X80111Y24606D01*
Y28543D01*
X80114Y28596D01*
X80125Y28647D01*
X80141Y28697D01*
X80165Y28744D01*
X80194Y28787D01*
X80228Y28827D01*
X80268Y28861D01*
X80311Y28890D01*
X80358Y28914D01*
X80408Y28931D01*
X80459Y28941D01*
X80512Y28944D01*
X89166D01*
Y37598D01*
X89170Y37651D01*
X89180Y37702D01*
X89197Y37752D01*
X89220Y37799D01*
X89249Y37843D01*
X89284Y37882D01*
X89323Y37916D01*
X89367Y37946D01*
X89413Y37969D01*
X89463Y37986D01*
X89515Y37996D01*
X89567Y37999D01*
X93504D01*
X93556Y37996D01*
D02*
G37*
G36*
X12848D02*
X12899Y37986D01*
X12949Y37969D01*
X12996Y37946D01*
X13039Y37916D01*
X13079Y37882D01*
X13113Y37843D01*
X13142Y37799D01*
X13166Y37752D01*
X13183Y37702D01*
X13193Y37651D01*
X13196Y37598D01*
Y28944D01*
X21850D01*
X21903Y28941D01*
X21954Y28931D01*
X22004Y28914D01*
X22051Y28890D01*
X22094Y28861D01*
X22134Y28827D01*
X22168Y28787D01*
X22198Y28744D01*
X22221Y28697D01*
X22238Y28647D01*
X22248Y28596D01*
X22251Y28543D01*
Y24606D01*
X22248Y24554D01*
X22238Y24502D01*
X22221Y24453D01*
X22198Y24406D01*
X22168Y24362D01*
X22134Y24323D01*
X22094Y24288D01*
X22051Y24259D01*
X22004Y24236D01*
X21954Y24219D01*
X21903Y24209D01*
X21850Y24205D01*
X8858D01*
X8806Y24209D01*
X8755Y24219D01*
X8705Y24236D01*
X8658Y24259D01*
X8614Y24288D01*
X8575Y24323D01*
X8540Y24362D01*
X8511Y24406D01*
X8488Y24453D01*
X8471Y24502D01*
X8461Y24554D01*
X8457Y24606D01*
Y37598D01*
X8461Y37651D01*
X8471Y37702D01*
X8488Y37752D01*
X8511Y37799D01*
X8540Y37843D01*
X8575Y37882D01*
X8614Y37916D01*
X8658Y37946D01*
X8705Y37969D01*
X8755Y37986D01*
X8806Y37996D01*
X8858Y37999D01*
X12795D01*
X12848Y37996D01*
D02*
G37*
D33*
X4724Y177165D02*
G03*
X0Y172441I0J-4724D01*
G01*
Y4724D02*
G03*
X4724Y0I4724J0D01*
G01*
X118110Y172441D02*
G03*
X113386Y177165I-4724J0D01*
G01*
Y0D02*
G03*
X118110Y4724I0J4724D01*
G01*
X0D02*
Y172441D01*
X4724Y177165D02*
X113386D01*
X4724Y0D02*
X113386D01*
X118110Y4724D02*
Y172441D01*
D34*
X24606Y71260D02*
D03*
Y65748D02*
D03*
X20276D02*
D03*
Y71260D02*
D03*
D35*
X57480Y34055D02*
D03*
X51575D02*
D03*
D36*
X91535Y102756D02*
D03*
X10827D02*
D03*
Y31102D02*
D03*
X91535D02*
D03*
D37*
X10827Y81693D02*
D03*
Y52165D02*
D03*
X91535D02*
D03*
Y81693D02*
D03*
D38*
X36417Y26575D02*
D03*
X65945D02*
D03*
Y107283D02*
D03*
X36417D02*
D03*
D39*
X43110Y95079D02*
D03*
X44685Y89370D02*
D03*
X39961D02*
D03*
Y95079D02*
D03*
X41535Y89370D02*
D03*
X43110D02*
D03*
X41535Y95079D02*
D03*
X44685D02*
D03*
D40*
X42323Y92224D02*
D03*
D41*
X86319Y16043D02*
D03*
Y7579D02*
D03*
X102657D02*
D03*
Y16043D02*
D03*
D42*
X53642Y117913D02*
D03*
X50098D02*
D03*
X23425Y60827D02*
D03*
X26969D02*
D03*
D43*
X63287Y69882D02*
D03*
Y67913D02*
D03*
Y65945D02*
D03*
Y63976D02*
D03*
Y62008D02*
D03*
Y60039D02*
D03*
Y58071D02*
D03*
Y56102D02*
D03*
Y54134D02*
D03*
Y52165D02*
D03*
X41043D02*
D03*
Y54134D02*
D03*
Y56102D02*
D03*
Y58071D02*
D03*
Y60039D02*
D03*
Y62008D02*
D03*
Y63976D02*
D03*
Y65945D02*
D03*
Y67913D02*
D03*
Y69882D02*
D03*
X65256Y70866D02*
D03*
Y68898D02*
D03*
Y66929D02*
D03*
Y64961D02*
D03*
Y62992D02*
D03*
Y61024D02*
D03*
Y59055D02*
D03*
Y57087D02*
D03*
Y55118D02*
D03*
Y53150D02*
D03*
Y51181D02*
D03*
X39075D02*
D03*
Y53150D02*
D03*
Y55118D02*
D03*
Y57087D02*
D03*
Y59055D02*
D03*
Y61024D02*
D03*
Y62992D02*
D03*
Y64961D02*
D03*
Y66929D02*
D03*
Y68898D02*
D03*
Y70866D02*
D03*
D44*
X61023Y49902D02*
D03*
X59055D02*
D03*
X57086D02*
D03*
X55118D02*
D03*
X53149D02*
D03*
X51181D02*
D03*
X49213D02*
D03*
X47244D02*
D03*
X45276D02*
D03*
X43307D02*
D03*
Y72146D02*
D03*
X45276D02*
D03*
X47244D02*
D03*
X49213D02*
D03*
X51181D02*
D03*
X53149D02*
D03*
X55118D02*
D03*
X57086D02*
D03*
X59055D02*
D03*
X61023D02*
D03*
X42323Y74114D02*
D03*
X44291D02*
D03*
X46260D02*
D03*
X48228D02*
D03*
X50197D02*
D03*
X52165D02*
D03*
X54134D02*
D03*
X56102D02*
D03*
X58071D02*
D03*
X60039D02*
D03*
X62008D02*
D03*
Y47933D02*
D03*
X60039D02*
D03*
X58071D02*
D03*
X56102D02*
D03*
X54134D02*
D03*
X52165D02*
D03*
X50197D02*
D03*
X48228D02*
D03*
X46260D02*
D03*
X44291D02*
D03*
X42323D02*
D03*
D45*
X52165Y61024D02*
D03*
D46*
X63779Y128248D02*
D03*
D47*
X69784Y134055D02*
D03*
Y122441D02*
D03*
D48*
X77756Y41929D02*
D03*
X71457D02*
D03*
D49*
X40039Y77165D02*
D03*
X37913D02*
D03*
D50*
X50098Y135039D02*
D03*
X54035D02*
D03*
X50098Y125000D02*
D03*
X46161D02*
D03*
D51*
X37303Y79331D02*
D03*
X39469D02*
D03*
X69784Y57874D02*
D03*
X71949D02*
D03*
X66043Y82087D02*
D03*
X68209D02*
D03*
X68799Y53937D02*
D03*
X70965D02*
D03*
X68799Y47441D02*
D03*
X70965D02*
D03*
X64468Y79331D02*
D03*
X66634D02*
D03*
X69390Y68110D02*
D03*
X71555D02*
D03*
X30413Y55118D02*
D03*
X32579D02*
D03*
X70768Y74803D02*
D03*
X72933D02*
D03*
X63484Y76968D02*
D03*
X65650D02*
D03*
X68799Y50394D02*
D03*
X70965D02*
D03*
X70177Y60433D02*
D03*
X72342D02*
D03*
X31693Y61614D02*
D03*
X33858D02*
D03*
X45374Y78543D02*
D03*
X47539D02*
D03*
X30709Y76772D02*
D03*
X28543D02*
D03*
X32776Y74606D02*
D03*
X34941D02*
D03*
X47933Y95079D02*
D03*
X50098D02*
D03*
X32776Y63976D02*
D03*
X34941D02*
D03*
Y67323D02*
D03*
X32776D02*
D03*
X34941Y71850D02*
D03*
X32776D02*
D03*
X42618Y81496D02*
D03*
X44783D02*
D03*
X56201Y38976D02*
D03*
X58366D02*
D03*
X50689D02*
D03*
X52854D02*
D03*
X79232Y32283D02*
D03*
X81398D02*
D03*
X47539Y85039D02*
D03*
X45374D02*
D03*
D52*
X51083Y99606D02*
D03*
X49114D02*
D03*
D53*
X50098Y101575D02*
D03*
Y97638D02*
D03*
D54*
X68898Y35433D02*
D03*
X63386D02*
D03*
X78740Y35630D02*
D03*
X73228D02*
D03*
D55*
X63386Y43602D02*
D03*
Y41437D02*
D03*
X65748D02*
D03*
Y43602D02*
D03*
X43307Y39665D02*
D03*
Y37500D02*
D03*
X41142Y43996D02*
D03*
Y41831D02*
D03*
X52953Y43799D02*
D03*
Y41634D02*
D03*
X59646D02*
D03*
Y43799D02*
D03*
X47638Y87402D02*
D03*
Y89567D02*
D03*
X39961Y84744D02*
D03*
Y82579D02*
D03*
X50098Y111614D02*
D03*
Y113779D02*
D03*
X51968Y86713D02*
D03*
Y88878D02*
D03*
X50886Y82185D02*
D03*
Y80020D02*
D03*
X54134Y81988D02*
D03*
Y84153D02*
D03*
X48031Y43602D02*
D03*
Y41437D02*
D03*
X33465Y77658D02*
D03*
Y79823D02*
D03*
D56*
X47638Y80728D02*
D03*
Y82854D02*
D03*
X42520Y77087D02*
D03*
Y79213D02*
D03*
D57*
X81299Y77953D02*
D03*
X83661D02*
D03*
D58*
X50000Y43898D02*
D03*
Y41535D02*
D03*
X80118Y15945D02*
D03*
Y13583D02*
D03*
D59*
X58661Y93504D02*
D03*
Y89961D02*
D03*
X30315Y83268D02*
D03*
Y79724D02*
D03*
X26772Y84449D02*
D03*
Y80905D02*
D03*
X50098Y121457D02*
D03*
Y117913D02*
D03*
D60*
Y132087D02*
D03*
Y128150D02*
D03*
M02*
