G04*
G04 #@! TF.GenerationSoftware,Altium Limited,Altium NEXUS,5.1.2 (10)*
G04*
G04 Layer_Physical_Order=2*
G04 Layer_Color=36540*
%FSLAX25Y25*%
%MOIN*%
G70*
G04*
G04 #@! TF.SameCoordinates,614915EC-EFCC-4F07-BEE6-519DBFB5DABB*
G04*
G04*
G04 #@! TF.FilePolarity,Positive*
G04*
G01*
G75*
%ADD78C,0.01968*%
%ADD90C,0.01968*%
G36*
X116103Y116702D02*
X115603Y116532D01*
X115412Y116782D01*
X114648Y117368D01*
X113758Y117737D01*
X112803Y117862D01*
X111848Y117737D01*
X110959Y117368D01*
X110195Y116782D01*
X109608Y116018D01*
X109240Y115128D01*
X109114Y114173D01*
X109240Y113218D01*
X109608Y112329D01*
X110195Y111565D01*
X110959Y110978D01*
X111848Y110610D01*
X112803Y110484D01*
X113758Y110610D01*
X114648Y110978D01*
X115412Y111565D01*
X115603Y111814D01*
X116103Y111645D01*
Y22214D01*
X115603Y22044D01*
X115412Y22294D01*
X114648Y22880D01*
X113758Y23248D01*
X112803Y23374D01*
X111848Y23248D01*
X110959Y22880D01*
X110195Y22294D01*
X109608Y21530D01*
X109240Y20640D01*
X109114Y19685D01*
X109240Y18730D01*
X109608Y17841D01*
X110195Y17076D01*
X110959Y16490D01*
X111848Y16122D01*
X112803Y15996D01*
X113758Y16122D01*
X114648Y16490D01*
X115412Y17076D01*
X115603Y17326D01*
X116103Y17156D01*
Y4724D01*
X116103Y4724D01*
X116103Y4724D01*
X116103Y4457D01*
X115999Y3932D01*
X115794Y3437D01*
X115497Y2992D01*
X115118Y2614D01*
X114673Y2316D01*
X114179Y2111D01*
X113654Y2007D01*
X113386Y2007D01*
X113386Y2007D01*
X113386Y2007D01*
X4724D01*
X4724Y2007D01*
X4724Y2007D01*
X4457Y2007D01*
X3932Y2111D01*
X3437Y2316D01*
X2992Y2614D01*
X2614Y2992D01*
X2316Y3437D01*
X2111Y3932D01*
X2007Y4457D01*
X2007Y4724D01*
Y17156D01*
X2507Y17326D01*
X2698Y17076D01*
X3463Y16490D01*
X4352Y16122D01*
X5307Y15996D01*
X6262Y16122D01*
X7152Y16490D01*
X7915Y17076D01*
X8502Y17841D01*
X8870Y18730D01*
X8996Y19685D01*
X8870Y20640D01*
X8502Y21530D01*
X7915Y22294D01*
X7152Y22880D01*
X6262Y23248D01*
X5307Y23374D01*
X4352Y23248D01*
X3463Y22880D01*
X2698Y22294D01*
X2507Y22044D01*
X2007Y22214D01*
Y111644D01*
X2507Y111814D01*
X2698Y111565D01*
X3463Y110978D01*
X4352Y110610D01*
X5307Y110484D01*
X6262Y110610D01*
X7152Y110978D01*
X7915Y111565D01*
X8233Y111979D01*
X8808Y112019D01*
X9264Y111715D01*
X9801Y111608D01*
X10339Y111715D01*
X10795Y112019D01*
X11099Y112475D01*
X11206Y113013D01*
X11099Y113550D01*
X10795Y114006D01*
X10339Y114311D01*
X9801Y114418D01*
X9477Y114353D01*
X8995Y114613D01*
X8928Y114688D01*
X8870Y115128D01*
X8502Y116018D01*
X7915Y116782D01*
X7152Y117368D01*
X6262Y117737D01*
X5307Y117862D01*
X4352Y117737D01*
X3463Y117368D01*
X2698Y116782D01*
X2507Y116532D01*
X2007Y116702D01*
Y136221D01*
X116103D01*
Y116702D01*
D02*
G37*
%LPC*%
G36*
X74902Y131299D02*
X66437D01*
Y130413D01*
X61516D01*
Y126083D01*
X66437D01*
Y125197D01*
X74902D01*
Y131299D01*
D02*
G37*
G36*
X36417Y126602D02*
X35880Y126495D01*
X35424Y126190D01*
X35119Y125734D01*
X35012Y125197D01*
X35119Y124659D01*
X35424Y124203D01*
X35880Y123899D01*
X36417Y123792D01*
X36955Y123899D01*
X37411Y124203D01*
X37715Y124659D01*
X37822Y125197D01*
X37715Y125734D01*
X37411Y126190D01*
X36955Y126495D01*
X36417Y126602D01*
D02*
G37*
G36*
X31496D02*
X30958Y126495D01*
X30503Y126190D01*
X30198Y125734D01*
X30091Y125197D01*
X30198Y124659D01*
X30503Y124203D01*
X30958Y123899D01*
X31496Y123792D01*
X32034Y123899D01*
X32489Y124203D01*
X32794Y124659D01*
X32901Y125197D01*
X32794Y125734D01*
X32489Y126190D01*
X32034Y126495D01*
X31496Y126602D01*
D02*
G37*
G36*
X26378D02*
X25840Y126495D01*
X25385Y126190D01*
X25080Y125734D01*
X24973Y125197D01*
X25080Y124659D01*
X25385Y124203D01*
X25840Y123899D01*
X26378Y123792D01*
X26916Y123899D01*
X27371Y124203D01*
X27676Y124659D01*
X27783Y125197D01*
X27676Y125734D01*
X27371Y126190D01*
X26916Y126495D01*
X26378Y126602D01*
D02*
G37*
G36*
X13976D02*
X13439Y126495D01*
X12983Y126190D01*
X12678Y125734D01*
X12571Y125197D01*
X12678Y124659D01*
X12983Y124203D01*
X13439Y123899D01*
X13976Y123792D01*
X14514Y123899D01*
X14970Y124203D01*
X15060Y124338D01*
X15591Y124233D01*
X15625Y124062D01*
X15929Y123607D01*
X16385Y123302D01*
X16923Y123195D01*
X17460Y123302D01*
X17916Y123607D01*
X18221Y124062D01*
X18328Y124600D01*
X18221Y125138D01*
X17916Y125593D01*
X17460Y125898D01*
X16923Y126005D01*
X16385Y125898D01*
X15929Y125593D01*
X15839Y125458D01*
X15308Y125564D01*
X15274Y125734D01*
X14970Y126190D01*
X14514Y126495D01*
X13976Y126602D01*
D02*
G37*
G36*
X42323Y115578D02*
X41785Y115471D01*
X41329Y115167D01*
X41124Y114860D01*
X41072Y114843D01*
X40621D01*
X40569Y114860D01*
X40363Y115167D01*
X39908Y115471D01*
X39370Y115578D01*
X38832Y115471D01*
X38377Y115167D01*
X38072Y114711D01*
X37965Y114173D01*
X38072Y113636D01*
X38377Y113180D01*
X38832Y112875D01*
X39370Y112768D01*
X39908Y112875D01*
X40363Y113180D01*
X40569Y113487D01*
X40621Y113504D01*
X41072D01*
X41124Y113487D01*
X41329Y113180D01*
X41785Y112875D01*
X42323Y112768D01*
X42860Y112875D01*
X43316Y113180D01*
X43621Y113636D01*
X43728Y114173D01*
X43621Y114711D01*
X43316Y115167D01*
X42860Y115471D01*
X42323Y115578D01*
D02*
G37*
G36*
X59055Y116562D02*
X58517Y116455D01*
X58062Y116151D01*
X57757Y115695D01*
X57650Y115157D01*
X57757Y114620D01*
X58062Y114164D01*
X58517Y113859D01*
X59055Y113752D01*
X59593Y113859D01*
X60049Y114164D01*
X60353Y114620D01*
X60460Y115157D01*
X60353Y115695D01*
X60049Y116151D01*
X59593Y116455D01*
X59055Y116562D01*
D02*
G37*
G36*
X87992Y115775D02*
X87454Y115668D01*
X86999Y115364D01*
X86694Y114908D01*
X86587Y114370D01*
X86694Y113832D01*
X86999Y113377D01*
X87454Y113072D01*
X87992Y112965D01*
X88530Y113072D01*
X88986Y113377D01*
X89290Y113832D01*
X89397Y114370D01*
X89290Y114908D01*
X88986Y115364D01*
X88530Y115668D01*
X87992Y115775D01*
D02*
G37*
G36*
X67323D02*
X66785Y115668D01*
X66329Y115364D01*
X66025Y114908D01*
X65918Y114370D01*
X66025Y113832D01*
X66329Y113377D01*
X66785Y113072D01*
X67323Y112965D01*
X67861Y113072D01*
X68316Y113377D01*
X68621Y113832D01*
X68728Y114370D01*
X68621Y114908D01*
X68316Y115364D01*
X67861Y115668D01*
X67323Y115775D01*
D02*
G37*
G36*
X91535Y115578D02*
X90998Y115471D01*
X90542Y115167D01*
X90237Y114711D01*
X90131Y114173D01*
X90237Y113636D01*
X90542Y113180D01*
X90998Y112875D01*
X91535Y112768D01*
X92073Y112875D01*
X92529Y113180D01*
X92833Y113636D01*
X92940Y114173D01*
X92833Y114711D01*
X92529Y115167D01*
X92073Y115471D01*
X91535Y115578D01*
D02*
G37*
G36*
X79331Y116169D02*
X78793Y116062D01*
X78337Y115757D01*
X78033Y115301D01*
X77926Y114764D01*
X78033Y114226D01*
X78337Y113770D01*
X78793Y113466D01*
X79331Y113359D01*
X79868Y113466D01*
X80324Y113770D01*
X80901Y113734D01*
X80964Y113641D01*
X81420Y113337D01*
X81957Y113230D01*
X82495Y113337D01*
X82850Y113574D01*
X83076Y113602D01*
X83448Y113485D01*
X83652Y113180D01*
X84108Y112875D01*
X84646Y112768D01*
X85183Y112875D01*
X85639Y113180D01*
X85944Y113636D01*
X86051Y114173D01*
X85944Y114711D01*
X85639Y115167D01*
X85183Y115471D01*
X84646Y115578D01*
X84108Y115471D01*
X83753Y115234D01*
X83527Y115206D01*
X83155Y115322D01*
X82951Y115628D01*
X82495Y115933D01*
X81957Y116039D01*
X81420Y115933D01*
X80964Y115628D01*
X80387Y115664D01*
X80324Y115757D01*
X79868Y116062D01*
X79331Y116169D01*
D02*
G37*
G36*
X71850Y115184D02*
X71313Y115077D01*
X70857Y114773D01*
X70552Y114317D01*
X70445Y113779D01*
X70552Y113242D01*
X70857Y112786D01*
X71313Y112481D01*
X71850Y112375D01*
X72388Y112481D01*
X72844Y112786D01*
X73148Y113242D01*
X73255Y113779D01*
X73148Y114317D01*
X72844Y114773D01*
X72388Y115077D01*
X71850Y115184D01*
D02*
G37*
G36*
X35827Y114594D02*
X35289Y114487D01*
X34833Y114182D01*
X34529Y113727D01*
X34422Y113189D01*
X34529Y112651D01*
X34833Y112196D01*
X35289Y111891D01*
X35827Y111784D01*
X36364Y111891D01*
X36820Y112196D01*
X37125Y112651D01*
X37232Y113189D01*
X37125Y113727D01*
X36820Y114182D01*
X36364Y114487D01*
X35827Y114594D01*
D02*
G37*
G36*
X31496D02*
X30958Y114487D01*
X30503Y114182D01*
X30198Y113727D01*
X30091Y113189D01*
X30198Y112651D01*
X30503Y112196D01*
X30958Y111891D01*
X31496Y111784D01*
X32034Y111891D01*
X32489Y112196D01*
X32794Y112651D01*
X32901Y113189D01*
X32794Y113727D01*
X32489Y114182D01*
X32034Y114487D01*
X31496Y114594D01*
D02*
G37*
G36*
X26969D02*
X26431Y114487D01*
X25975Y114182D01*
X25670Y113727D01*
X25564Y113189D01*
X25670Y112651D01*
X25975Y112196D01*
X26431Y111891D01*
X26969Y111784D01*
X27506Y111891D01*
X27962Y112196D01*
X28267Y112651D01*
X28374Y113189D01*
X28267Y113727D01*
X27962Y114182D01*
X27506Y114487D01*
X26969Y114594D01*
D02*
G37*
G36*
X42717Y104555D02*
X42179Y104448D01*
X41723Y104143D01*
X41687Y104089D01*
X41187D01*
X41151Y104143D01*
X40695Y104448D01*
X40157Y104555D01*
X39620Y104448D01*
X39164Y104143D01*
X38860Y103687D01*
X38752Y103150D01*
X38860Y102612D01*
X39164Y102156D01*
X39620Y101852D01*
X40157Y101745D01*
X40695Y101852D01*
X41151Y102156D01*
X41187Y102210D01*
X41687D01*
X41723Y102156D01*
X42179Y101852D01*
X42717Y101745D01*
X43254Y101852D01*
X43710Y102156D01*
X44014Y102612D01*
X44122Y103150D01*
X44014Y103687D01*
X43710Y104143D01*
X43254Y104448D01*
X42717Y104555D01*
D02*
G37*
G36*
X52832Y105244D02*
X52294Y105137D01*
X51838Y104832D01*
X51534Y104376D01*
X51427Y103839D01*
X51534Y103301D01*
X51838Y102845D01*
X52294Y102541D01*
X52832Y102434D01*
X53369Y102541D01*
X53825Y102845D01*
X54130Y103301D01*
X54237Y103839D01*
X54130Y104376D01*
X53825Y104832D01*
X53369Y105137D01*
X52832Y105244D01*
D02*
G37*
G36*
X66732Y105145D02*
X66195Y105038D01*
X65739Y104734D01*
X65434Y104278D01*
X65327Y103740D01*
X65434Y103202D01*
X65739Y102747D01*
X66195Y102442D01*
X66732Y102335D01*
X67270Y102442D01*
X67726Y102747D01*
X68030Y103202D01*
X68137Y103740D01*
X68030Y104278D01*
X67726Y104734D01*
X67270Y105038D01*
X66732Y105145D01*
D02*
G37*
G36*
X86811Y104161D02*
X86273Y104054D01*
X85818Y103749D01*
X85513Y103294D01*
X85406Y102756D01*
X85513Y102218D01*
X85818Y101762D01*
X86273Y101458D01*
X86811Y101351D01*
X87349Y101458D01*
X87805Y101762D01*
X88109Y102218D01*
X88216Y102756D01*
X88109Y103294D01*
X87805Y103749D01*
X87349Y104054D01*
X86811Y104161D01*
D02*
G37*
G36*
X70261D02*
X69723Y104054D01*
X69267Y103749D01*
X68963Y103294D01*
X68856Y102756D01*
X68963Y102218D01*
X69267Y101762D01*
X69723Y101458D01*
X70261Y101351D01*
X70798Y101458D01*
X71254Y101762D01*
X71559Y102218D01*
X71666Y102756D01*
X71559Y103294D01*
X71254Y103749D01*
X70798Y104054D01*
X70261Y104161D01*
D02*
G37*
G36*
X58465D02*
X57927Y104054D01*
X57471Y103749D01*
X57167Y103294D01*
X57060Y102756D01*
X57167Y102218D01*
X57471Y101762D01*
X57927Y101458D01*
X58465Y101351D01*
X59002Y101458D01*
X59145Y101553D01*
X59348Y101476D01*
X59637Y101281D01*
X59726Y100836D01*
X60030Y100380D01*
X60486Y100075D01*
X61024Y99968D01*
X61561Y100075D01*
X62017Y100380D01*
X62322Y100836D01*
X62429Y101373D01*
X62892Y101337D01*
X62964Y101322D01*
X63501Y101429D01*
X63957Y101734D01*
X64262Y102190D01*
X64368Y102727D01*
X64262Y103265D01*
X63957Y103721D01*
X63501Y104025D01*
X62964Y104132D01*
X62426Y104025D01*
X61970Y103721D01*
X61666Y103265D01*
X61559Y102727D01*
X61095Y102764D01*
X61024Y102778D01*
X60486Y102671D01*
X60344Y102576D01*
X60141Y102653D01*
X59851Y102849D01*
X59763Y103294D01*
X59458Y103749D01*
X59002Y104054D01*
X58465Y104161D01*
D02*
G37*
G36*
X83526Y103570D02*
X82989Y103463D01*
X82533Y103159D01*
X82228Y102703D01*
X82121Y102165D01*
X82228Y101628D01*
X82533Y101172D01*
X82989Y100867D01*
X83526Y100760D01*
X84064Y100867D01*
X84520Y101172D01*
X84824Y101628D01*
X84931Y102165D01*
X84824Y102703D01*
X84520Y103159D01*
X84064Y103463D01*
X83526Y103570D01*
D02*
G37*
G36*
X86221Y100814D02*
X85683Y100707D01*
X85227Y100403D01*
X84962Y100007D01*
X84915Y99945D01*
X84390Y99833D01*
X84224Y99945D01*
X83686Y100052D01*
X83148Y99945D01*
X82692Y99640D01*
X82227Y99844D01*
X81837Y100104D01*
X81299Y100211D01*
X80762Y100104D01*
X80306Y99800D01*
X80001Y99344D01*
X79894Y98806D01*
X80001Y98269D01*
X80306Y97813D01*
Y97438D01*
X80001Y96982D01*
X79894Y96444D01*
X80001Y95906D01*
X80306Y95451D01*
X80561Y95280D01*
X80779Y94845D01*
X80792Y94630D01*
X80712Y94228D01*
X80819Y93690D01*
X81124Y93234D01*
X81579Y92930D01*
X82117Y92823D01*
X82631Y92925D01*
X82704Y92871D01*
X82978Y92545D01*
X82858Y92365D01*
X82752Y91828D01*
X82858Y91290D01*
X83163Y90834D01*
X83619Y90530D01*
X84156Y90423D01*
X84694Y90530D01*
X85150Y90834D01*
X85454Y91290D01*
X85475Y91396D01*
X85576Y91826D01*
X86019Y91759D01*
X86118Y91739D01*
X86656Y91846D01*
X86685Y91865D01*
X87351Y91709D01*
X87422Y91602D01*
X87878Y91297D01*
X88307Y91212D01*
X88381Y90947D01*
X88395Y90715D01*
X87982Y90439D01*
X87677Y89983D01*
X87570Y89446D01*
X87677Y88908D01*
X87982Y88452D01*
X88438Y88148D01*
X88975Y88041D01*
X89513Y88148D01*
X89969Y88452D01*
X90273Y88908D01*
X90380Y89446D01*
X90273Y89983D01*
X89969Y90439D01*
X89513Y90744D01*
X89084Y90829D01*
X89010Y91094D01*
X88996Y91326D01*
X89409Y91602D01*
X89714Y92058D01*
X90268Y92282D01*
X90382Y92206D01*
X90920Y92099D01*
X91457Y92206D01*
X91913Y92510D01*
X92218Y92966D01*
X92325Y93504D01*
X92218Y94042D01*
X91913Y94497D01*
X91457Y94802D01*
X90920Y94909D01*
X90382Y94802D01*
X89926Y94497D01*
X89622Y94042D01*
X89067Y93817D01*
X88953Y93893D01*
X88416Y94000D01*
X87878Y93893D01*
X87849Y93874D01*
X87183Y94030D01*
X87112Y94137D01*
X86656Y94442D01*
X86118Y94549D01*
X85580Y94442D01*
X85125Y94137D01*
X84820Y93681D01*
X84799Y93576D01*
X84699Y93146D01*
X84256Y93213D01*
X84156Y93233D01*
X83642Y93130D01*
X83570Y93184D01*
X83295Y93511D01*
X83415Y93690D01*
X83522Y94228D01*
X83415Y94766D01*
X83110Y95221D01*
X82855Y95392D01*
X82637Y95827D01*
X82624Y96042D01*
X82704Y96444D01*
X82597Y96982D01*
X82436Y97223D01*
X82796Y97584D01*
X83148Y97349D01*
X83686Y97242D01*
X84224Y97349D01*
X84679Y97653D01*
X84944Y98049D01*
X84991Y98111D01*
X85516Y98223D01*
X85683Y98111D01*
X86221Y98005D01*
X86758Y98111D01*
X87214Y98416D01*
X87519Y98872D01*
X87625Y99409D01*
X87519Y99947D01*
X87214Y100403D01*
X86758Y100707D01*
X86221Y100814D01*
D02*
G37*
G36*
X41665Y98652D02*
X41127Y98545D01*
X40671Y98241D01*
X40367Y97785D01*
X40260Y97247D01*
X40367Y96710D01*
X40671Y96254D01*
X41127Y95949D01*
X41665Y95842D01*
X42202Y95949D01*
X42658Y96254D01*
X42963Y96710D01*
X43070Y97247D01*
X42963Y97785D01*
X42658Y98241D01*
X42202Y98545D01*
X41665Y98652D01*
D02*
G37*
G36*
X60369Y94717D02*
X59831Y94610D01*
X59375Y94305D01*
X59070Y93850D01*
X58964Y93312D01*
X59070Y92774D01*
X59375Y92318D01*
X59831Y92014D01*
X60369Y91907D01*
X60906Y92014D01*
X61362Y92318D01*
X61667Y92774D01*
X61773Y93312D01*
X61667Y93850D01*
X61362Y94305D01*
X60906Y94610D01*
X60369Y94717D01*
D02*
G37*
G36*
X96260Y93925D02*
X95722Y93818D01*
X95266Y93513D01*
X94962Y93057D01*
X94855Y92520D01*
X94962Y91982D01*
X95266Y91526D01*
X95722Y91222D01*
X96260Y91115D01*
X96798Y91222D01*
X97253Y91526D01*
X97558Y91982D01*
X97665Y92520D01*
X97558Y93057D01*
X97253Y93513D01*
X96798Y93818D01*
X96260Y93925D01*
D02*
G37*
G36*
X54134Y89397D02*
X53596Y89290D01*
X53140Y88986D01*
X52836Y88530D01*
X52729Y87992D01*
X52836Y87454D01*
X53140Y86999D01*
X53596Y86694D01*
X54134Y86587D01*
X54672Y86694D01*
X55127Y86999D01*
X55432Y87454D01*
X55539Y87992D01*
X55432Y88530D01*
X55127Y88986D01*
X54672Y89290D01*
X54134Y89397D01*
D02*
G37*
G36*
X41839Y89168D02*
X41301Y89061D01*
X40845Y88757D01*
X40541Y88301D01*
X40434Y87763D01*
X40541Y87225D01*
X40845Y86770D01*
X41301Y86465D01*
X41839Y86358D01*
X42376Y86465D01*
X42832Y86770D01*
X43137Y87225D01*
X43244Y87763D01*
X43137Y88301D01*
X42832Y88757D01*
X42376Y89061D01*
X41839Y89168D01*
D02*
G37*
G36*
X80347Y88445D02*
X79809Y88338D01*
X79353Y88033D01*
X79049Y87577D01*
X78942Y87040D01*
X79049Y86502D01*
X79353Y86046D01*
X79809Y85742D01*
X80347Y85635D01*
X80884Y85742D01*
X81340Y86046D01*
X81645Y86502D01*
X81752Y87040D01*
X81645Y87577D01*
X81340Y88033D01*
X80884Y88338D01*
X80347Y88445D01*
D02*
G37*
G36*
X26772Y87625D02*
X26234Y87519D01*
X25778Y87214D01*
X25474Y86758D01*
X25367Y86221D01*
X25474Y85683D01*
X25778Y85227D01*
X26234Y84922D01*
X26772Y84816D01*
X27309Y84922D01*
X27765Y85227D01*
X28070Y85683D01*
X28177Y86221D01*
X28070Y86758D01*
X27765Y87214D01*
X27309Y87519D01*
X26772Y87625D01*
D02*
G37*
G36*
X30118Y86444D02*
X29581Y86337D01*
X29125Y86033D01*
X28820Y85577D01*
X28713Y85039D01*
X28820Y84502D01*
X29125Y84046D01*
X29581Y83741D01*
X30118Y83634D01*
X30656Y83741D01*
X31112Y84046D01*
X31416Y84502D01*
X31523Y85039D01*
X31416Y85577D01*
X31112Y86033D01*
X30656Y86337D01*
X30118Y86444D01*
D02*
G37*
G36*
X67223Y85367D02*
X66686Y85260D01*
X66230Y84955D01*
X65925Y84500D01*
X65818Y83962D01*
X65925Y83424D01*
X66230Y82968D01*
X66686Y82664D01*
X67223Y82557D01*
X67761Y82664D01*
X68217Y82968D01*
X68521Y83424D01*
X68628Y83962D01*
X68521Y84500D01*
X68217Y84955D01*
X67761Y85260D01*
X67223Y85367D01*
D02*
G37*
G36*
X42028Y85066D02*
X41490Y84959D01*
X41034Y84655D01*
X40730Y84199D01*
X40623Y83661D01*
X40730Y83124D01*
X41034Y82668D01*
X41490Y82363D01*
X42028Y82257D01*
X42565Y82363D01*
X43021Y82668D01*
X43326Y83124D01*
X43433Y83661D01*
X43326Y84199D01*
X43021Y84655D01*
X42565Y84959D01*
X42028Y85066D01*
D02*
G37*
G36*
X113155Y82822D02*
X112617Y82715D01*
X112161Y82411D01*
X111857Y81955D01*
X111750Y81417D01*
X111857Y80879D01*
X112161Y80424D01*
X112617Y80119D01*
X113155Y80012D01*
X113692Y80119D01*
X114148Y80424D01*
X114453Y80879D01*
X114560Y81417D01*
X114453Y81955D01*
X114148Y82411D01*
X113692Y82715D01*
X113155Y82822D01*
D02*
G37*
G36*
X105315Y82704D02*
X104777Y82597D01*
X104322Y82293D01*
X104017Y81837D01*
X103910Y81299D01*
X104017Y80762D01*
X104322Y80306D01*
X104777Y80001D01*
X105315Y79894D01*
X105853Y80001D01*
X106308Y80306D01*
X106613Y80762D01*
X106720Y81299D01*
X106613Y81837D01*
X106308Y82293D01*
X105853Y82597D01*
X105315Y82704D01*
D02*
G37*
G36*
X70370Y81576D02*
X69832Y81469D01*
X69376Y81164D01*
X69072Y80708D01*
X68965Y80171D01*
X69072Y79633D01*
X69376Y79177D01*
X69832Y78873D01*
X70370Y78766D01*
X70907Y78873D01*
X71363Y79177D01*
X71668Y79633D01*
X71775Y80171D01*
X71668Y80708D01*
X71363Y81164D01*
X70907Y81469D01*
X70370Y81576D01*
D02*
G37*
G36*
X75249Y78810D02*
X74712Y78703D01*
X74256Y78398D01*
X73951Y77942D01*
X73844Y77405D01*
X73951Y76867D01*
X74256Y76411D01*
X74712Y76107D01*
X75249Y76000D01*
X75787Y76107D01*
X76243Y76411D01*
X76547Y76867D01*
X76654Y77405D01*
X76547Y77942D01*
X76243Y78398D01*
X75787Y78703D01*
X75249Y78810D01*
D02*
G37*
G36*
X35827Y78570D02*
X35289Y78463D01*
X34833Y78159D01*
X34529Y77703D01*
X34422Y77165D01*
X34529Y76628D01*
X34833Y76172D01*
X35289Y75867D01*
X35827Y75760D01*
X36364Y75867D01*
X36820Y76172D01*
X37125Y76628D01*
X37232Y77165D01*
X37125Y77703D01*
X36820Y78159D01*
X36364Y78463D01*
X35827Y78570D01*
D02*
G37*
G36*
X64173Y76602D02*
X63636Y76495D01*
X63180Y76190D01*
X62875Y75735D01*
X62768Y75197D01*
X62875Y74659D01*
X63180Y74203D01*
X63636Y73899D01*
X64173Y73792D01*
X64711Y73899D01*
X65167Y74203D01*
X65471Y74659D01*
X65578Y75197D01*
X65471Y75735D01*
X65167Y76190D01*
X64711Y76495D01*
X64173Y76602D01*
D02*
G37*
G36*
X39524Y74580D02*
X38986Y74473D01*
X38531Y74169D01*
X38226Y73713D01*
X38119Y73175D01*
X38226Y72638D01*
X38531Y72182D01*
X38986Y71877D01*
X39524Y71770D01*
X40062Y71877D01*
X40518Y72182D01*
X40822Y72638D01*
X40929Y73175D01*
X40822Y73713D01*
X40518Y74169D01*
X40062Y74473D01*
X39524Y74580D01*
D02*
G37*
G36*
X89370Y76208D02*
X88832Y76101D01*
X88377Y75797D01*
X88072Y75341D01*
X87965Y74803D01*
X88072Y74265D01*
X88377Y73810D01*
X88832Y73505D01*
X89059Y73460D01*
X89468Y72963D01*
X89480Y72910D01*
X89576Y72423D01*
X89881Y71968D01*
X90337Y71663D01*
X90874Y71556D01*
X91412Y71663D01*
X91868Y71968D01*
X92172Y72423D01*
X92279Y72961D01*
X92172Y73499D01*
X91868Y73954D01*
X91412Y74259D01*
X91186Y74304D01*
X90777Y74801D01*
X90765Y74854D01*
X90668Y75341D01*
X90364Y75797D01*
X89908Y76101D01*
X89370Y76208D01*
D02*
G37*
G36*
X89173Y70491D02*
X88635Y70385D01*
X88180Y70080D01*
X87875Y69624D01*
X87768Y69087D01*
X87875Y68549D01*
X88180Y68093D01*
X88635Y67789D01*
X89173Y67682D01*
X89711Y67789D01*
X90167Y68093D01*
X90471Y68549D01*
X90578Y69087D01*
X90471Y69624D01*
X90167Y70080D01*
X89711Y70385D01*
X89173Y70491D01*
D02*
G37*
G36*
X75394Y69822D02*
X74856Y69715D01*
X74400Y69411D01*
X74096Y68955D01*
X73989Y68417D01*
X74096Y67880D01*
X74400Y67424D01*
X74856Y67119D01*
X75394Y67012D01*
X75931Y67119D01*
X76387Y67424D01*
X76692Y67880D01*
X76799Y68417D01*
X76692Y68955D01*
X76387Y69411D01*
X75931Y69715D01*
X75394Y69822D01*
D02*
G37*
G36*
X84449Y71484D02*
X83911Y71377D01*
X83455Y71072D01*
X83151Y70616D01*
X83044Y70079D01*
X83151Y69541D01*
X83455Y69085D01*
X83862Y68813D01*
X83864Y68591D01*
X83793Y68304D01*
X83386Y68223D01*
X82930Y67919D01*
X82626Y67463D01*
X82519Y66925D01*
X82626Y66387D01*
X82930Y65932D01*
X83386Y65627D01*
X83924Y65520D01*
X84462Y65627D01*
X84917Y65932D01*
X85222Y66387D01*
X85329Y66925D01*
X85222Y67463D01*
X84917Y67919D01*
X84510Y68190D01*
X84509Y68413D01*
X84580Y68700D01*
X84987Y68781D01*
X85442Y69085D01*
X85747Y69541D01*
X85854Y70079D01*
X85747Y70616D01*
X85442Y71072D01*
X84987Y71377D01*
X84449Y71484D01*
D02*
G37*
G36*
X36934Y66629D02*
X36396Y66522D01*
X35941Y66218D01*
X35636Y65762D01*
X35529Y65224D01*
X35636Y64687D01*
X35941Y64231D01*
X36396Y63926D01*
X36934Y63819D01*
X37472Y63926D01*
X37927Y64231D01*
X38232Y64687D01*
X38339Y65224D01*
X38232Y65762D01*
X37927Y66218D01*
X37472Y66522D01*
X36934Y66629D01*
D02*
G37*
G36*
X86811Y66557D02*
X86273Y66450D01*
X85818Y66145D01*
X85513Y65689D01*
X85406Y65152D01*
X85513Y64614D01*
X85818Y64158D01*
X86273Y63854D01*
X86811Y63747D01*
X87349Y63854D01*
X87805Y64158D01*
X88109Y64614D01*
X88216Y65152D01*
X88109Y65689D01*
X87805Y66145D01*
X87349Y66450D01*
X86811Y66557D01*
D02*
G37*
G36*
X15551Y62822D02*
X15013Y62715D01*
X14558Y62411D01*
X14253Y61955D01*
X14146Y61417D01*
X14253Y60880D01*
X14558Y60424D01*
X15013Y60119D01*
X15551Y60012D01*
X16089Y60119D01*
X16545Y60424D01*
X16849Y60880D01*
X16956Y61417D01*
X16849Y61955D01*
X16545Y62411D01*
X16089Y62715D01*
X15551Y62822D01*
D02*
G37*
G36*
X90997Y67347D02*
X90459Y67240D01*
X90003Y66936D01*
X89699Y66480D01*
X89592Y65942D01*
X89699Y65405D01*
X89798Y65257D01*
X89567Y64701D01*
X89438Y64676D01*
X88983Y64371D01*
X88678Y63915D01*
X88571Y63378D01*
X88678Y62840D01*
X88947Y62437D01*
X88984Y62360D01*
X89016Y61760D01*
X88859Y61525D01*
X88753Y60988D01*
X88859Y60450D01*
X89164Y59994D01*
X89620Y59689D01*
X90158Y59583D01*
X90695Y59689D01*
X91151Y59994D01*
X91456Y60450D01*
X91562Y60988D01*
X91456Y61525D01*
X91186Y61928D01*
X91150Y62005D01*
X91117Y62605D01*
X91274Y62840D01*
X91381Y63378D01*
X91274Y63915D01*
X91175Y64063D01*
X91405Y64619D01*
X91535Y64644D01*
X91990Y64949D01*
X92295Y65405D01*
X92402Y65942D01*
X92295Y66480D01*
X91990Y66936D01*
X91535Y67240D01*
X90997Y67347D01*
D02*
G37*
G36*
X21715Y62035D02*
X21178Y61928D01*
X20722Y61623D01*
X20417Y61168D01*
X20310Y60630D01*
X20417Y60092D01*
X20722Y59636D01*
X21178Y59332D01*
X21715Y59225D01*
X22253Y59332D01*
X22709Y59636D01*
X23013Y60092D01*
X23120Y60630D01*
X23013Y61168D01*
X22709Y61623D01*
X22253Y61928D01*
X21715Y62035D01*
D02*
G37*
G36*
X31743Y61078D02*
X31205Y60971D01*
X30749Y60667D01*
X30445Y60211D01*
X30338Y59673D01*
X30445Y59136D01*
X30749Y58680D01*
X31205Y58375D01*
X31743Y58268D01*
X32280Y58375D01*
X32736Y58680D01*
X33041Y59136D01*
X33148Y59673D01*
X33041Y60211D01*
X32736Y60667D01*
X32280Y60971D01*
X31743Y61078D01*
D02*
G37*
G36*
X96457Y60066D02*
X95919Y59959D01*
X95463Y59655D01*
X95159Y59199D01*
X95052Y58661D01*
X95159Y58124D01*
X95463Y57668D01*
X95919Y57363D01*
X96457Y57257D01*
X96994Y57363D01*
X97450Y57668D01*
X97755Y58124D01*
X97862Y58661D01*
X97755Y59199D01*
X97450Y59655D01*
X96994Y59959D01*
X96457Y60066D01*
D02*
G37*
G36*
X85676Y62081D02*
X85138Y61974D01*
X84682Y61669D01*
X84377Y61213D01*
X84271Y60676D01*
X84297Y60543D01*
X83939Y59962D01*
X83909Y59956D01*
X83453Y59651D01*
X83149Y59196D01*
X83042Y58658D01*
X83149Y58120D01*
X83453Y57665D01*
X83909Y57360D01*
X84447Y57253D01*
X84984Y57360D01*
X84993Y57366D01*
X85520Y57282D01*
X85575Y57199D01*
X85825Y56826D01*
X86280Y56521D01*
X86818Y56414D01*
X87356Y56521D01*
X87811Y56826D01*
X88116Y57282D01*
X88223Y57819D01*
X88116Y58357D01*
X87811Y58813D01*
X87356Y59117D01*
X86869Y59214D01*
X86764Y59411D01*
X86686Y59708D01*
X86974Y60138D01*
X87081Y60676D01*
X86974Y61213D01*
X86669Y61669D01*
X86213Y61974D01*
X85676Y62081D01*
D02*
G37*
G36*
X69784Y57998D02*
X69246Y57890D01*
X68790Y57586D01*
X68485Y57130D01*
X68379Y56593D01*
X68485Y56055D01*
X68790Y55599D01*
X69246Y55295D01*
X69784Y55188D01*
X70321Y55295D01*
X70777Y55599D01*
X71082Y56055D01*
X71188Y56593D01*
X71082Y57130D01*
X70777Y57586D01*
X70321Y57890D01*
X69784Y57998D01*
D02*
G37*
G36*
X24192Y56427D02*
X23655Y56320D01*
X23199Y56015D01*
X22895Y55559D01*
X22787Y55022D01*
X22895Y54484D01*
X23199Y54028D01*
X23655Y53724D01*
X24192Y53617D01*
X24730Y53724D01*
X25186Y54028D01*
X25490Y54484D01*
X25597Y55022D01*
X25490Y55559D01*
X25186Y56015D01*
X24730Y56320D01*
X24192Y56427D01*
D02*
G37*
G36*
X74624Y56129D02*
X74087Y56022D01*
X73631Y55717D01*
X73326Y55261D01*
X73219Y54724D01*
X73326Y54186D01*
X73631Y53730D01*
X74087Y53426D01*
X74624Y53319D01*
X75162Y53426D01*
X75618Y53730D01*
X75922Y54186D01*
X76029Y54724D01*
X75922Y55261D01*
X75618Y55717D01*
X75162Y56022D01*
X74624Y56129D01*
D02*
G37*
G36*
X30900Y54582D02*
X30362Y54475D01*
X29906Y54170D01*
X29602Y53715D01*
X29495Y53177D01*
X29602Y52639D01*
X29906Y52184D01*
X30362Y51879D01*
X30900Y51772D01*
X31438Y51879D01*
X31893Y52184D01*
X32198Y52639D01*
X32305Y53177D01*
X32198Y53715D01*
X31893Y54170D01*
X31438Y54475D01*
X30900Y54582D01*
D02*
G37*
G36*
X18949Y54442D02*
X18411Y54335D01*
X17955Y54030D01*
X17651Y53575D01*
X17544Y53037D01*
X17651Y52499D01*
X17768Y52323D01*
X17707Y51681D01*
X17403Y51225D01*
X17296Y50688D01*
X17296Y50688D01*
Y50687D01*
X16893Y50152D01*
X16718Y50117D01*
X16385Y49894D01*
X16061Y50005D01*
X15934Y50534D01*
X16004Y50639D01*
X16111Y51177D01*
X16004Y51714D01*
X15700Y52170D01*
X15244Y52475D01*
X14706Y52582D01*
X14169Y52475D01*
X13713Y52170D01*
X13408Y51714D01*
X13301Y51177D01*
X13408Y50639D01*
X13713Y50183D01*
X13736Y49567D01*
X13596Y49356D01*
X13489Y48819D01*
X13596Y48281D01*
X13900Y47825D01*
X14356Y47521D01*
X14894Y47414D01*
X15431Y47521D01*
X15887Y47825D01*
X16262D01*
X16718Y47521D01*
X17256Y47414D01*
X17794Y47521D01*
X18249Y47825D01*
X18554Y48281D01*
X18661Y48819D01*
X18661Y48819D01*
Y48820D01*
X19064Y49355D01*
X19238Y49390D01*
X19694Y49694D01*
X19999Y50150D01*
X20106Y50688D01*
X19999Y51225D01*
X19881Y51401D01*
X19942Y52043D01*
X20247Y52499D01*
X20354Y53037D01*
X20247Y53575D01*
X19942Y54030D01*
X19486Y54335D01*
X18949Y54442D01*
D02*
G37*
G36*
X81329Y54751D02*
X80791Y54645D01*
X80336Y54340D01*
X80031Y53884D01*
X79924Y53347D01*
X80031Y52809D01*
X80336Y52353D01*
Y51978D01*
X80031Y51522D01*
X79924Y50984D01*
X80031Y50447D01*
X80336Y49991D01*
X80791Y49686D01*
X81329Y49579D01*
X81867Y49686D01*
X82323Y49991D01*
X82627Y50447D01*
X82734Y50984D01*
X82627Y51522D01*
X82323Y51978D01*
Y52353D01*
X82627Y52809D01*
X82734Y53347D01*
X82627Y53884D01*
X82323Y54340D01*
X81867Y54645D01*
X81329Y54751D01*
D02*
G37*
G36*
X22341Y50617D02*
X21803Y50511D01*
X21347Y50206D01*
X21043Y49750D01*
X20936Y49213D01*
X21043Y48675D01*
X21058Y48651D01*
X20698Y48291D01*
X20616Y48345D01*
X20079Y48452D01*
X19541Y48345D01*
X19085Y48041D01*
X18781Y47585D01*
X18674Y47047D01*
X18781Y46510D01*
X19085Y46054D01*
X19541Y45749D01*
X20079Y45642D01*
X20616Y45749D01*
X21072Y46054D01*
X21377Y46510D01*
X21484Y47047D01*
X21377Y47585D01*
X21361Y47609D01*
X21721Y47969D01*
X21803Y47915D01*
X22341Y47808D01*
X22878Y47915D01*
X23334Y48219D01*
X23475Y48431D01*
X23766Y48413D01*
X24024Y48351D01*
X24296Y47943D01*
X24554Y47771D01*
X24584Y47633D01*
X24544Y47209D01*
X24203Y46981D01*
X23899Y46526D01*
X23792Y45988D01*
X23899Y45450D01*
X24203Y44995D01*
X24659Y44690D01*
X25197Y44583D01*
X25734Y44690D01*
X26190Y44995D01*
X26495Y45450D01*
X26602Y45988D01*
X26495Y46526D01*
X26190Y46981D01*
X25932Y47154D01*
X25902Y47292D01*
X25942Y47716D01*
X26283Y47943D01*
X26587Y48399D01*
X26694Y48937D01*
X26587Y49474D01*
X26283Y49930D01*
X25827Y50235D01*
X25289Y50342D01*
X24752Y50235D01*
X24296Y49930D01*
X24155Y49719D01*
X23864Y49736D01*
X23606Y49798D01*
X23334Y50206D01*
X22878Y50511D01*
X22341Y50617D01*
D02*
G37*
G36*
X59152Y47224D02*
X58614Y47117D01*
X58158Y46812D01*
X57854Y46356D01*
X57747Y45819D01*
X57832Y45391D01*
X57649Y45160D01*
X57618Y45131D01*
X57436Y45015D01*
X56984Y45105D01*
X56446Y44998D01*
X55990Y44693D01*
X55686Y44237D01*
X55579Y43699D01*
X55686Y43162D01*
X55990Y42706D01*
X56050Y42065D01*
X55923Y41875D01*
X55816Y41337D01*
X55923Y40800D01*
X56227Y40344D01*
X56683Y40039D01*
X57221Y39932D01*
X57758Y40039D01*
X58214Y40344D01*
X58518Y40800D01*
X58625Y41337D01*
X58518Y41875D01*
X58214Y42331D01*
X58155Y42972D01*
X58282Y43162D01*
X58389Y43699D01*
X58303Y44127D01*
X58486Y44359D01*
X58517Y44387D01*
X58700Y44504D01*
X59152Y44414D01*
X59689Y44521D01*
X60145Y44826D01*
X60450Y45281D01*
X60557Y45819D01*
X60450Y46356D01*
X60145Y46812D01*
X59689Y47117D01*
X59152Y47224D01*
D02*
G37*
G36*
X74378Y49830D02*
X73840Y49723D01*
X73385Y49418D01*
X73080Y48963D01*
X72973Y48425D01*
X73080Y47887D01*
X73329Y47515D01*
X73416Y47056D01*
X73111Y46601D01*
X73005Y46063D01*
X73111Y45525D01*
X73416Y45070D01*
X73872Y44765D01*
X74410Y44658D01*
X76378D01*
X76916Y44765D01*
X77371Y45070D01*
X77676Y45525D01*
X77783Y46063D01*
X77676Y46601D01*
X77371Y47056D01*
X76916Y47361D01*
X76378Y47468D01*
X75936D01*
X75692Y47968D01*
X75783Y48425D01*
X75676Y48963D01*
X75371Y49418D01*
X74916Y49723D01*
X74378Y49830D01*
D02*
G37*
G36*
X31808Y46877D02*
X31270Y46770D01*
X30814Y46466D01*
X30510Y46010D01*
X30403Y45472D01*
X30510Y44935D01*
X30814Y44479D01*
X31270Y44174D01*
X31808Y44067D01*
X32346Y44174D01*
X32801Y44479D01*
X33106Y44935D01*
X33213Y45472D01*
X33106Y46010D01*
X32801Y46466D01*
X32346Y46770D01*
X31808Y46877D01*
D02*
G37*
G36*
X52655Y46681D02*
X52118Y46574D01*
X51662Y46269D01*
X51357Y45813D01*
X51250Y45276D01*
X51357Y44738D01*
X51662Y44282D01*
X52118Y43978D01*
X52655Y43871D01*
X53193Y43978D01*
X53649Y44282D01*
X53953Y44738D01*
X54060Y45276D01*
X53953Y45813D01*
X53649Y46269D01*
X53193Y46574D01*
X52655Y46681D01*
D02*
G37*
G36*
X83465Y44318D02*
X82927Y44211D01*
X82471Y43907D01*
X82167Y43451D01*
X82060Y42913D01*
X82167Y42376D01*
X82471Y41920D01*
X82927Y41615D01*
X83465Y41508D01*
X84002Y41615D01*
X84458Y41920D01*
X84763Y42376D01*
X84869Y42913D01*
X84763Y43451D01*
X84458Y43907D01*
X84002Y44211D01*
X83465Y44318D01*
D02*
G37*
G36*
X25000Y43916D02*
X24462Y43809D01*
X24006Y43505D01*
X23702Y43049D01*
X23595Y42511D01*
X23702Y41973D01*
X24006Y41518D01*
X24462Y41213D01*
X25000Y41106D01*
X25538Y41213D01*
X25993Y41518D01*
X26298Y41973D01*
X26405Y42511D01*
X26298Y43049D01*
X25993Y43505D01*
X25538Y43809D01*
X25000Y43916D01*
D02*
G37*
G36*
X16339Y43531D02*
X15801Y43424D01*
X15345Y43119D01*
X15041Y42664D01*
X14934Y42126D01*
X15041Y41588D01*
X15345Y41133D01*
X15801Y40828D01*
X16339Y40721D01*
X16876Y40828D01*
X17162Y41019D01*
X17383Y41108D01*
X17787Y40914D01*
X17904Y40739D01*
X18360Y40434D01*
X18898Y40327D01*
X19435Y40434D01*
X19891Y40739D01*
X20196Y41195D01*
X20303Y41732D01*
X20196Y42270D01*
X19891Y42726D01*
X19435Y43030D01*
X18898Y43137D01*
X18360Y43030D01*
X18075Y42840D01*
X17853Y42750D01*
X17449Y42944D01*
X17332Y43119D01*
X16876Y43424D01*
X16339Y43531D01*
D02*
G37*
G36*
X68186Y42879D02*
X67648Y42772D01*
X67192Y42468D01*
X66888Y42012D01*
X66781Y41475D01*
X66888Y40937D01*
X67192Y40481D01*
X67648Y40176D01*
X68186Y40069D01*
X68723Y40176D01*
X69179Y40481D01*
X69484Y40937D01*
X69591Y41475D01*
X69484Y42012D01*
X69179Y42468D01*
X68723Y42772D01*
X68186Y42879D01*
D02*
G37*
G36*
X43504Y42744D02*
X42966Y42636D01*
X42510Y42332D01*
X42206Y41876D01*
X42099Y41339D01*
X42206Y40801D01*
X42510Y40345D01*
X42966Y40040D01*
X43504Y39934D01*
X44041Y40040D01*
X44497Y40345D01*
X44802Y40801D01*
X44909Y41339D01*
X44802Y41876D01*
X44497Y42332D01*
X44041Y42636D01*
X43504Y42744D01*
D02*
G37*
G36*
X36985Y44931D02*
X36448Y44824D01*
X35992Y44520D01*
X35687Y44064D01*
X35580Y43527D01*
X35687Y42989D01*
X35992Y42533D01*
X35998Y42529D01*
X36014Y41938D01*
X35710Y41482D01*
X35603Y40945D01*
X35710Y40407D01*
X36014Y39951D01*
X36470Y39647D01*
X37008Y39540D01*
X38976D01*
X39514Y39647D01*
X39970Y39951D01*
X40274Y40407D01*
X40381Y40945D01*
X40274Y41482D01*
X39970Y41938D01*
X39514Y42243D01*
X38976Y42350D01*
X38458D01*
X38190Y42850D01*
X38283Y42989D01*
X38390Y43527D01*
X38283Y44064D01*
X37979Y44520D01*
X37523Y44824D01*
X36985Y44931D01*
D02*
G37*
G36*
X107874Y39791D02*
X107336Y39684D01*
X106881Y39379D01*
X106576Y38923D01*
X106469Y38386D01*
X106576Y37848D01*
X106881Y37392D01*
X107336Y37088D01*
X107874Y36981D01*
X108412Y37088D01*
X108868Y37392D01*
X109172Y37848D01*
X109279Y38386D01*
X109172Y38923D01*
X108868Y39379D01*
X108412Y39684D01*
X107874Y39791D01*
D02*
G37*
G36*
X16369Y37656D02*
X15832Y37549D01*
X15376Y37245D01*
X15071Y36789D01*
X14965Y36251D01*
X15071Y35714D01*
X15376Y35258D01*
X15832Y34953D01*
X16369Y34846D01*
X16907Y34953D01*
X17363Y35258D01*
X17667Y35714D01*
X17774Y36251D01*
X17667Y36789D01*
X17363Y37245D01*
X16907Y37549D01*
X16369Y37656D01*
D02*
G37*
G36*
X63386Y39200D02*
X62848Y39093D01*
X62392Y38789D01*
X61229Y37625D01*
X61221D01*
X60683Y37519D01*
X60227Y37214D01*
X59922Y36758D01*
X59816Y36220D01*
X59922Y35683D01*
X60227Y35227D01*
X60683Y34923D01*
X61221Y34815D01*
X61811D01*
X62349Y34923D01*
X62805Y35227D01*
X64379Y36802D01*
X64684Y37258D01*
X64791Y37795D01*
X64684Y38333D01*
X64379Y38789D01*
X63924Y39093D01*
X63386Y39200D01*
D02*
G37*
G36*
X81299Y37822D02*
X80762Y37715D01*
X80306Y37411D01*
X80001Y36955D01*
X79894Y36417D01*
X80001Y35880D01*
X80300Y35433D01*
X80001Y34986D01*
X79894Y34449D01*
X80001Y33911D01*
X80306Y33455D01*
X80762Y33151D01*
X81299Y33044D01*
X81837Y33151D01*
X82293Y33455D01*
X82597Y33911D01*
X82704Y34449D01*
X82597Y34986D01*
X82299Y35433D01*
X82597Y35880D01*
X82704Y36417D01*
X82597Y36955D01*
X82293Y37411D01*
X81837Y37715D01*
X81299Y37822D01*
D02*
G37*
G36*
X17225Y33455D02*
X16687Y33348D01*
X16231Y33043D01*
X15927Y32587D01*
X15820Y32050D01*
X15927Y31512D01*
X16231Y31056D01*
X16687Y30752D01*
X17225Y30645D01*
X17762Y30752D01*
X18218Y31056D01*
X18523Y31512D01*
X18630Y32050D01*
X18523Y32587D01*
X18218Y33043D01*
X17762Y33348D01*
X17225Y33455D01*
D02*
G37*
G36*
X96260Y32507D02*
X95722Y32400D01*
X95266Y32096D01*
X94962Y31640D01*
X94855Y31102D01*
X94962Y30565D01*
X95266Y30109D01*
X95722Y29804D01*
X96260Y29697D01*
X96798Y29804D01*
X97253Y30109D01*
X97558Y30565D01*
X97665Y31102D01*
X97558Y31640D01*
X97253Y32096D01*
X96798Y32400D01*
X96260Y32507D01*
D02*
G37*
G36*
X66929D02*
X66391Y32400D01*
X65936Y32096D01*
X65631Y31640D01*
X65524Y31102D01*
X65631Y30565D01*
X65936Y30109D01*
X66391Y29804D01*
X66929Y29697D01*
X67467Y29804D01*
X67923Y30109D01*
X68227Y30565D01*
X68334Y31102D01*
X68227Y31640D01*
X67923Y32096D01*
X67467Y32400D01*
X66929Y32507D01*
D02*
G37*
G36*
X26378Y32114D02*
X25840Y32007D01*
X25385Y31702D01*
X25080Y31246D01*
X24973Y30709D01*
X25080Y30171D01*
X25385Y29715D01*
X25840Y29411D01*
X26378Y29304D01*
X26916Y29411D01*
X27371Y29715D01*
X27676Y30171D01*
X27783Y30709D01*
X27676Y31246D01*
X27371Y31702D01*
X26916Y32007D01*
X26378Y32114D01*
D02*
G37*
G36*
X42913Y32311D02*
X42376Y32204D01*
X41920Y31899D01*
X41615Y31443D01*
X41508Y30906D01*
X41615Y30368D01*
X41920Y29912D01*
X42376Y29607D01*
X42913Y29501D01*
X43451Y29607D01*
X43652Y29741D01*
X44274Y29711D01*
X44729Y29406D01*
X45267Y29299D01*
X45805Y29406D01*
X46260Y29711D01*
X46565Y30167D01*
X46672Y30704D01*
X46565Y31242D01*
X46260Y31698D01*
X45805Y32002D01*
X45267Y32109D01*
X44729Y32002D01*
X44529Y31868D01*
X43907Y31899D01*
X43451Y32204D01*
X42913Y32311D01*
D02*
G37*
G36*
X101671Y31951D02*
X101134Y31844D01*
X100678Y31539D01*
X100373Y31083D01*
X100266Y30546D01*
X100373Y30008D01*
X100678Y29552D01*
X101134Y29248D01*
X101671Y29141D01*
X102209Y29248D01*
X102665Y29552D01*
X102969Y30008D01*
X103076Y30546D01*
X102969Y31083D01*
X102665Y31539D01*
X102209Y31844D01*
X101671Y31951D01*
D02*
G37*
G36*
X71653Y21090D02*
X71116Y20983D01*
X70660Y20678D01*
X70285D01*
X69829Y20983D01*
X69291Y21090D01*
X68754Y20983D01*
X68298Y20678D01*
X68214Y20553D01*
X67613D01*
X67529Y20678D01*
X67073Y20983D01*
X66535Y21090D01*
X65998Y20983D01*
X65542Y20678D01*
X65237Y20223D01*
X65179Y19929D01*
X65131Y19685D01*
X64648Y19629D01*
X64588Y19930D01*
X64284Y20386D01*
X63828Y20691D01*
X63290Y20798D01*
X62753Y20691D01*
X62297Y20386D01*
X61992Y19930D01*
X61885Y19393D01*
X61992Y18855D01*
X62297Y18399D01*
X62753Y18095D01*
X63290Y17988D01*
X63828Y18095D01*
X64284Y18399D01*
X64588Y18855D01*
X64647Y19149D01*
X64695Y19393D01*
X65177Y19449D01*
X65237Y19147D01*
X65542Y18692D01*
X65998Y18387D01*
X66535Y18280D01*
X67073Y18387D01*
X67529Y18692D01*
X67613Y18817D01*
X68214D01*
X68298Y18692D01*
X68754Y18387D01*
X69291Y18280D01*
X69829Y18387D01*
X70285Y18692D01*
X70660D01*
X71116Y18387D01*
X71653Y18280D01*
X72191Y18387D01*
X72647Y18692D01*
X72952Y19147D01*
X73058Y19685D01*
X72952Y20223D01*
X72647Y20678D01*
X72191Y20983D01*
X71653Y21090D01*
D02*
G37*
G36*
X58061D02*
X57524Y20983D01*
X57068Y20678D01*
X57065Y20675D01*
X56692D01*
X56237Y20979D01*
X55699Y21087D01*
X55161Y20979D01*
X54706Y20675D01*
X54401Y20219D01*
X54294Y19681D01*
X54401Y19144D01*
X54706Y18688D01*
X55161Y18383D01*
X55699Y18277D01*
X56237Y18383D01*
X56692Y18688D01*
X56695Y18692D01*
X57068D01*
X57524Y18387D01*
X58061Y18280D01*
X58599Y18387D01*
X59055Y18692D01*
X59359Y19147D01*
X59466Y19685D01*
X59359Y20223D01*
X59055Y20678D01*
X58599Y20983D01*
X58061Y21090D01*
D02*
G37*
G36*
X48690Y21551D02*
X48152Y21444D01*
X47696Y21140D01*
X47392Y20684D01*
X47343Y20442D01*
X46879Y20421D01*
X46831Y20430D01*
X46533Y20875D01*
X46078Y21180D01*
X45540Y21287D01*
X45002Y21180D01*
X44547Y20875D01*
X44242Y20419D01*
X44135Y19882D01*
X44242Y19344D01*
X44547Y18888D01*
X45002Y18584D01*
X45540Y18477D01*
X46078Y18584D01*
X46533Y18888D01*
X46838Y19344D01*
X46886Y19587D01*
X47350Y19607D01*
X47398Y19599D01*
X47696Y19153D01*
X48152Y18848D01*
X48690Y18741D01*
X49227Y18848D01*
X49683Y19153D01*
X49988Y19609D01*
X50094Y20146D01*
X49988Y20684D01*
X49683Y21140D01*
X49227Y21444D01*
X48690Y21551D01*
D02*
G37*
G36*
X91535Y21287D02*
X90998Y21180D01*
X90542Y20875D01*
X90237Y20419D01*
X90131Y19882D01*
X90237Y19344D01*
X90542Y18888D01*
X90998Y18584D01*
X91535Y18477D01*
X92073Y18584D01*
X92529Y18888D01*
X92833Y19344D01*
X92940Y19882D01*
X92833Y20419D01*
X92529Y20875D01*
X92073Y21180D01*
X91535Y21287D01*
D02*
G37*
G36*
X87795D02*
X87258Y21180D01*
X86802Y20875D01*
X86497Y20419D01*
X86390Y19882D01*
X86497Y19344D01*
X86802Y18888D01*
X87258Y18584D01*
X87795Y18477D01*
X88333Y18584D01*
X88789Y18888D01*
X89093Y19344D01*
X89200Y19882D01*
X89093Y20419D01*
X88789Y20875D01*
X88333Y21180D01*
X87795Y21287D01*
D02*
G37*
G36*
X76575Y21090D02*
X76037Y20983D01*
X75581Y20678D01*
X75277Y20223D01*
X75170Y19685D01*
X75277Y19147D01*
X75581Y18692D01*
X76037Y18387D01*
X76575Y18280D01*
X77113Y18387D01*
X77568Y18692D01*
X77873Y19147D01*
X77980Y19685D01*
X77873Y20223D01*
X77568Y20678D01*
X77113Y20983D01*
X76575Y21090D01*
D02*
G37*
G36*
X36024D02*
X35486Y20983D01*
X35030Y20678D01*
X34726Y20223D01*
X34619Y19685D01*
X34726Y19147D01*
X35030Y18692D01*
X35486Y18387D01*
X36024Y18280D01*
X36561Y18387D01*
X37017Y18692D01*
X37322Y19147D01*
X37429Y19685D01*
X37322Y20223D01*
X37017Y20678D01*
X36561Y20983D01*
X36024Y21090D01*
D02*
G37*
G36*
X81441Y21084D02*
X80903Y20977D01*
X80447Y20672D01*
X80143Y20216D01*
X80036Y19679D01*
X80143Y19141D01*
X80447Y18685D01*
X80903Y18381D01*
X81441Y18274D01*
X81978Y18381D01*
X82434Y18685D01*
X82739Y19141D01*
X82846Y19679D01*
X82739Y20216D01*
X82434Y20672D01*
X81978Y20977D01*
X81441Y21084D01*
D02*
G37*
G36*
X98622Y21090D02*
X98084Y20983D01*
X97629Y20678D01*
X97324Y20223D01*
X97217Y19685D01*
X97324Y19147D01*
X97629Y18692D01*
X98084Y18387D01*
X98622Y18280D01*
X99160Y18387D01*
X99270Y18461D01*
X99933Y18335D01*
X99958Y18298D01*
X100414Y17993D01*
X100951Y17886D01*
X101489Y17993D01*
X101945Y18298D01*
X102249Y18754D01*
X102356Y19291D01*
X102249Y19829D01*
X101945Y20285D01*
X101489Y20589D01*
X100951Y20696D01*
X100414Y20589D01*
X100304Y20516D01*
X99640Y20641D01*
X99616Y20678D01*
X99160Y20983D01*
X98622Y21090D01*
D02*
G37*
G36*
X93959Y10263D02*
X93422Y10156D01*
X92966Y9852D01*
X92661Y9396D01*
X92554Y8858D01*
X92661Y8321D01*
X92966Y7865D01*
X93422Y7560D01*
X93959Y7453D01*
X94497Y7560D01*
X94953Y7865D01*
X95257Y8321D01*
X95364Y8858D01*
X95257Y9396D01*
X94953Y9852D01*
X94497Y10156D01*
X93959Y10263D01*
D02*
G37*
G36*
X76575Y10066D02*
X76037Y9959D01*
X75581Y9655D01*
X75277Y9199D01*
X75170Y8661D01*
X75277Y8124D01*
X75581Y7668D01*
X76037Y7363D01*
X76575Y7256D01*
X77113Y7363D01*
X77568Y7668D01*
X77873Y8124D01*
X77980Y8661D01*
X77873Y9199D01*
X77568Y9655D01*
X77113Y9959D01*
X76575Y10066D01*
D02*
G37*
G36*
X49606D02*
X49069Y9959D01*
X48613Y9655D01*
X48308Y9199D01*
X48201Y8661D01*
X48308Y8124D01*
X48613Y7668D01*
X49069Y7363D01*
X49606Y7256D01*
X50144Y7363D01*
X50600Y7668D01*
X50904Y8124D01*
X51011Y8661D01*
X50904Y9199D01*
X50600Y9655D01*
X50144Y9959D01*
X49606Y10066D01*
D02*
G37*
G36*
X66535Y9870D02*
X65998Y9763D01*
X65542Y9458D01*
X65237Y9002D01*
X65131Y8465D01*
X65237Y7927D01*
X65542Y7471D01*
X65998Y7167D01*
X66535Y7060D01*
X67073Y7167D01*
X67529Y7471D01*
X67833Y7927D01*
X67940Y8465D01*
X67833Y9002D01*
X67529Y9458D01*
X67073Y9763D01*
X66535Y9870D01*
D02*
G37*
G36*
X61417D02*
X60880Y9763D01*
X60424Y9458D01*
X60119Y9002D01*
X60012Y8465D01*
X60119Y7927D01*
X60424Y7471D01*
X60880Y7167D01*
X61417Y7060D01*
X61955Y7167D01*
X62411Y7471D01*
X62715Y7927D01*
X62822Y8465D01*
X62715Y9002D01*
X62411Y9458D01*
X61955Y9763D01*
X61417Y9870D01*
D02*
G37*
G36*
X56496D02*
X55958Y9763D01*
X55503Y9458D01*
X55198Y9002D01*
X55091Y8465D01*
X55198Y7927D01*
X55503Y7471D01*
X55958Y7167D01*
X56496Y7060D01*
X57034Y7167D01*
X57490Y7471D01*
X57794Y7927D01*
X57901Y8465D01*
X57794Y9002D01*
X57490Y9458D01*
X57034Y9763D01*
X56496Y9870D01*
D02*
G37*
G36*
X90748Y8098D02*
X90210Y7991D01*
X89755Y7686D01*
X89450Y7231D01*
X89343Y6693D01*
X89450Y6155D01*
X89755Y5700D01*
X90210Y5395D01*
X90748Y5288D01*
X91286Y5395D01*
X91742Y5700D01*
X92046Y6155D01*
X92153Y6693D01*
X92046Y7231D01*
X91742Y7686D01*
X91286Y7991D01*
X90748Y8098D01*
D02*
G37*
G36*
X81496Y10066D02*
X80958Y9959D01*
X80503Y9655D01*
X80198Y9199D01*
X80091Y8661D01*
X80198Y8124D01*
X80503Y7668D01*
X80958Y7363D01*
X81496Y7256D01*
X81663Y7290D01*
X81858Y6819D01*
X81684Y6702D01*
X81379Y6246D01*
X81272Y5709D01*
X81379Y5171D01*
X81684Y4715D01*
X82139Y4411D01*
X82677Y4304D01*
X83215Y4411D01*
X83671Y4715D01*
X83975Y5171D01*
X84082Y5709D01*
X83975Y6246D01*
X83671Y6702D01*
X83215Y7007D01*
X82677Y7114D01*
X82510Y7080D01*
X82315Y7551D01*
X82490Y7668D01*
X82794Y8124D01*
X82901Y8661D01*
X82794Y9199D01*
X82490Y9655D01*
X82034Y9959D01*
X81496Y10066D01*
D02*
G37*
%LPD*%
D78*
X37008Y40945D02*
X38976D01*
X61811Y36220D02*
X63386Y37795D01*
X61221Y36220D02*
X61811D01*
X74410Y46063D02*
X76378D01*
D90*
X66535Y101181D02*
D03*
X81496Y46260D02*
D03*
X45079Y82902D02*
D03*
X50947Y83585D02*
D03*
X47640Y91835D02*
D03*
X45276Y86516D02*
D03*
X44974Y77182D02*
D03*
X45079Y79921D02*
D03*
X51933Y40870D02*
D03*
X32874Y35827D02*
D03*
X42529Y35803D02*
D03*
X47047Y35630D02*
D03*
X61024Y31496D02*
D03*
X38976Y40945D02*
D03*
X47297Y40230D02*
D03*
X49409Y39173D02*
D03*
X59685Y39156D02*
D03*
X61221Y36220D02*
D03*
X63386Y37795D02*
D03*
X69882Y32677D02*
D03*
X69880Y37600D02*
D03*
X66267Y40097D02*
D03*
X41256Y40167D02*
D03*
X38976Y30709D02*
D03*
X37008D02*
D03*
Y40945D02*
D03*
X63779Y40157D02*
D03*
X74606Y39843D02*
D03*
X42520Y135039D02*
D03*
X64567D02*
D03*
X55905D02*
D03*
X43802Y85220D02*
D03*
X34252Y130512D02*
D03*
X39173Y126575D02*
D03*
X53150Y130512D02*
D03*
X59252Y130118D02*
D03*
X76378Y130512D02*
D03*
Y125197D02*
D03*
X52953Y125394D02*
D03*
X52658Y114174D02*
D03*
X57874Y100197D02*
D03*
X46457Y101969D02*
D03*
X53051Y99606D02*
D03*
X47146D02*
D03*
X49803Y87008D02*
D03*
X26575Y102362D02*
D03*
X30315Y94291D02*
D03*
X25787Y95276D02*
D03*
X36811Y100000D02*
D03*
X45276Y92224D02*
D03*
X39370D02*
D03*
X50495Y92721D02*
D03*
X33661Y92323D02*
D03*
X37795Y85138D02*
D03*
X44094Y9252D02*
D03*
X24016Y8858D02*
D03*
X11417Y135039D02*
D03*
X64263Y114302D02*
D03*
X19882Y114370D02*
D03*
X34055Y9252D02*
D03*
X60630Y19685D02*
D03*
X78937D02*
D03*
X28150Y43307D02*
D03*
X14961Y55315D02*
D03*
X23228Y99410D02*
D03*
X17717Y89764D02*
D03*
X17520Y98622D02*
D03*
Y79921D02*
D03*
X79134Y7480D02*
D03*
X70079Y8465D02*
D03*
X64567Y6299D02*
D03*
X107874Y35433D02*
D03*
X106693Y45669D02*
D03*
X93110Y91929D02*
D03*
X101378Y69882D02*
D03*
X106299Y18504D02*
D03*
X106496Y9252D02*
D03*
X101378Y63841D02*
D03*
X109646Y117913D02*
D03*
X5906Y35039D02*
D03*
X14173Y30709D02*
D03*
X24213Y73622D02*
D03*
X53937Y85433D02*
D03*
X17717Y66929D02*
D03*
X33465Y81693D02*
D03*
X30238Y61494D02*
D03*
X51968Y90354D02*
D03*
X72638Y32480D02*
D03*
X74606D02*
D03*
X77453Y32374D02*
D03*
X28740Y54764D02*
D03*
X72244Y47244D02*
D03*
X72264Y54825D02*
D03*
X68307Y79020D02*
D03*
X30709Y74803D02*
D03*
X27756Y77756D02*
D03*
X31102Y71382D02*
D03*
X30906Y67126D02*
D03*
X31102Y63717D02*
D03*
X73129Y50523D02*
D03*
X73622Y57778D02*
D03*
X74704Y75106D02*
D03*
X73032Y68417D02*
D03*
X74999Y60596D02*
D03*
X69685Y82480D02*
D03*
X67323Y76772D02*
D03*
X19685Y36417D02*
D03*
X72244Y82874D02*
D03*
X16445Y64418D02*
D03*
X64567Y97835D02*
D03*
X90748Y45472D02*
D03*
X80512Y128740D02*
D03*
X28937Y126772D02*
D03*
X10630Y129921D02*
D03*
X46850Y130315D02*
D03*
X84646Y125591D02*
D03*
X98228Y129724D02*
D03*
X109843Y124606D02*
D03*
X106102Y130709D02*
D03*
X102559Y101181D02*
D03*
X97638Y84055D02*
D03*
X24409Y19685D02*
D03*
X19291D02*
D03*
X34941Y95374D02*
D03*
X26772Y89567D02*
D03*
X31496Y102362D02*
D03*
X110236Y106299D02*
D03*
X96063Y102756D02*
D03*
X110039Y93898D02*
D03*
X99606Y31693D02*
D03*
X87402Y37992D02*
D03*
X87068Y31136D02*
D03*
X91294Y58878D02*
D03*
X93307Y68504D02*
D03*
X96653Y76378D02*
D03*
X109843Y6299D02*
D03*
X106890Y54921D02*
D03*
X104724Y85630D02*
D03*
X76378Y46063D02*
D03*
X85827Y90158D02*
D03*
X87795Y53543D02*
D03*
X33200Y19814D02*
D03*
X58858Y9055D02*
D03*
X24016Y31693D02*
D03*
X64567D02*
D03*
X47835D02*
D03*
X11516Y9350D02*
D03*
Y18406D02*
D03*
X101575Y124311D02*
D03*
X101673Y115256D02*
D03*
X11516Y124409D02*
D03*
Y115256D02*
D03*
X16732Y73032D02*
D03*
X59055Y124803D02*
D03*
X76378Y114370D02*
D03*
X41732Y125197D02*
D03*
X60236Y135039D02*
D03*
X34646D02*
D03*
X46850D02*
D03*
X38583D02*
D03*
X30709D02*
D03*
X27165D02*
D03*
X15551D02*
D03*
X7480D02*
D03*
X105089Y78716D02*
D03*
X106496Y60827D02*
D03*
X55801Y93504D02*
D03*
X42126Y99803D02*
D03*
X40551Y3150D02*
D03*
X51575Y2953D02*
D03*
X46063D02*
D03*
X57087D02*
D03*
X3150Y95669D02*
D03*
Y90158D02*
D03*
Y101181D02*
D03*
X37795Y87795D02*
D03*
X33465Y88779D02*
D03*
X3150Y68110D02*
D03*
Y84646D02*
D03*
Y79134D02*
D03*
Y62598D02*
D03*
Y73622D02*
D03*
X44291Y68898D02*
D03*
X3150Y57087D02*
D03*
X73622Y3150D02*
D03*
X79134D02*
D03*
X44291Y53150D02*
D03*
X37598Y75000D02*
D03*
X37795Y82283D02*
D03*
X3150Y24016D02*
D03*
Y29528D02*
D03*
Y35039D02*
D03*
Y40551D02*
D03*
Y46063D02*
D03*
Y51575D02*
D03*
Y105905D02*
D03*
Y109843D02*
D03*
Y118504D02*
D03*
Y124016D02*
D03*
Y129528D02*
D03*
Y135039D02*
D03*
X74803D02*
D03*
X79921D02*
D03*
X85039D02*
D03*
X105512D02*
D03*
X96850D02*
D03*
X101181D02*
D03*
X110236D02*
D03*
X114961D02*
D03*
Y129528D02*
D03*
Y124016D02*
D03*
Y118504D02*
D03*
Y109843D02*
D03*
Y105905D02*
D03*
Y101181D02*
D03*
Y95669D02*
D03*
Y90158D02*
D03*
Y84646D02*
D03*
Y79134D02*
D03*
Y73622D02*
D03*
Y68110D02*
D03*
Y62598D02*
D03*
Y57087D02*
D03*
Y51575D02*
D03*
Y46063D02*
D03*
Y40551D02*
D03*
Y35039D02*
D03*
Y29528D02*
D03*
Y24016D02*
D03*
Y15354D02*
D03*
Y10630D02*
D03*
Y5906D02*
D03*
X112205Y3150D02*
D03*
X106693D02*
D03*
X101181D02*
D03*
X95669D02*
D03*
X90158D02*
D03*
X84646D02*
D03*
X68110D02*
D03*
X62598D02*
D03*
X35039D02*
D03*
X29528D02*
D03*
X24016D02*
D03*
X18504D02*
D03*
X12992D02*
D03*
X7480D02*
D03*
X3063Y8858D02*
D03*
Y14764D02*
D03*
X3543Y3937D02*
D03*
X56102Y61024D02*
D03*
X28150Y67126D02*
D03*
X28346Y71260D02*
D03*
X74410Y46063D02*
D03*
X44882Y114173D02*
D03*
X37795Y90354D02*
D03*
X44291Y64961D02*
D03*
X48228D02*
D03*
Y68898D02*
D03*
X60039Y61024D02*
D03*
X56102Y53150D02*
D03*
X60039D02*
D03*
Y57087D02*
D03*
X56102D02*
D03*
X48228D02*
D03*
X44291D02*
D03*
X48228Y61024D02*
D03*
X44291D02*
D03*
X52165Y64961D02*
D03*
Y61024D02*
D03*
Y57087D02*
D03*
Y68898D02*
D03*
X48228Y53150D02*
D03*
X52165D02*
D03*
X74606Y43701D02*
D03*
Y41732D02*
D03*
X33465Y85236D02*
D03*
M02*
