M48
;Layer_Color=9474304
;FILE_FORMAT=2:5
INCH,LZ
;TYPE=PLATED
T1F00S00C0.00984
T2F00S00C0.05906
T3F00S00C0.06299
;TYPE=NON_PLATED
T4F00S00C0.05315
%
T01
X0003929Y0004331
X0007669Y0004134
X0003929Y0009843
Y0014961
X0008858Y0014961
Y0012598
X0017087Y0019601
X0024731Y001951
X0027619Y0019601
X0030858Y0019736
X0034055Y0020472
X0036614Y0019685
X0039224Y002031
X0043752Y0019244
X0044244Y0008614
X0044087Y0004134
X004074
X0037394
X003385
X0030307
X0026567
X0022827
X0019087
X0028681Y0008319
X0036567Y0008319
X0038976Y0008858
X004763Y0004134
X0051173
X0054716
X0058063
X0061606
X0064953
X0068299
X0071646
X0074992
X0078535
X0081882
X0085425
X0088968
X0092512
X0096055
X0091437Y0019685
X0082138Y0019638
X0071555Y0019587
X0068799Y001939
X0058329Y0019601
X0055858Y0019441
X0056306Y003545
X0052953Y0035433
X0050495Y0035632
X0048031Y0035827
X0043211Y0035829
X0039559Y0034449
X0037197
X003563Y0041142
X0036606Y0044488
Y0047441
X0040196Y0050416
X0042028Y0042126
X0045238Y0042142
X0048614Y0042126
X0051173Y0044882
X005137Y0048228
X0054716Y0047378
X0057238Y0047878
X0059638Y0048031
X0059403Y0053171
X0061803Y0052559
X0057302Y0051878
X0054527Y0044291
X0056093Y0041719
X0059441Y0036417
X0064669Y0038486
X0065653Y0035238
X0069784Y0038287
X0070866Y0041732
X0074213Y0041831
X0080905Y0043996
X0081693Y0039075
X0081496Y0035827
X0080315Y0032283
X0090551Y0039764
X0087598Y0043504
X0094488Y0043307
X0094099Y0049904
X0088976Y0050197
X0068861Y0047949
X0067716Y0054724
X0065161Y0054433
X0071252Y0054921
X0031193Y0053642
X0020872Y0048819
X0021654Y004685
X002185Y0043898
X0019587Y0043996
X002185Y0040256
X0022638Y0037303
X0019291Y003435
Y0031398
X0003929Y0030906
Y0036614
Y0042913
Y0048228
Y0053347
X0016339
Y0055709
X0007874Y0040354
X0003929Y0024606
X0065354Y0008465
X0099402Y0004134
X0102945
X0106685
X0110228
X0113969
Y0009252
Y0014173
X0109449Y001437
Y0011811
X0104035Y0019783
X0099016
X0105315Y003248
Y0038386
Y0043307
Y0048228
Y005315
X009941Y0055118
Y0048228
Y0043307
Y0038386
X0110214Y0041339
X0113969Y0042913
Y0038976
Y0034843
Y0030315
Y0025197
Y0047441
Y0051772
Y0056102
Y0060039
Y006437
Y0068504
Y0072638
Y0076968
Y0081102
Y0085433
Y0089764
Y0094291
Y0098622
Y010315
Y0108465
X0109449Y011063
X0106496Y0114173
X0101575Y011437
X0101673Y0127242
X0101279Y0131102
X0104724
X0108268
X0111417
X0114173
Y0127362
Y0123622
Y0119685
X0110236Y0122047
X0107283Y0127144
X0106496Y0134843
X0109646
X0112795
X0102953
X0101378Y0095472
X0101035Y0087551
X0099212Y0079921
X0101378Y0074803
X0105315
Y0068898
Y0062992
X0101083Y0064075
X0101279Y0058071
X0099114Y0070768
X0089961Y0071063
X00889Y0064037
X0092743Y00624
X00862Y00612
X0088287Y0058563
X0079562Y0057978
X0072834Y005748
X0069265Y0056612
X00685Y00632
X0066142Y0063189
X0063683Y0064564
X0076083Y0064173
X0078051Y0065748
X0076378Y0068898
X008248Y0067618
X00721Y00745
X0070866Y0076772
X00688Y0083469
X0064808Y0083268
X0064665Y009134
X00643Y00985
X0066047Y0101285
X0069291Y0101181
X00695Y00948
X0074953Y0089815
X0075787Y0083268
X0081205Y0086717
X0084055Y0090748
X008952Y0089028
X0092323Y0088976
X0097441Y0089567
Y0095472
X009252Y009685
X0089173Y0094291
X0086555Y009685
X0085433Y0099311
X0086122Y0102663
X0081097
X00811Y00988
X00808Y00964
X0076185Y0102663
X0076122Y0114075
X00716Y01141
X00674Y0114075
X0063987Y01148
X0059055Y0114961
X00498Y01142
X0044071Y0113431
X0041636Y011408
X0039126Y0114126
X0035827Y0114173
X0026772
X0021358Y0114075
X0018701Y0114961
X0015945Y0114075
X0011614Y0113779
X0008461Y0110232
X0003929Y0108268
Y0102953
Y0098425
Y0093701
Y0088779
X0007856Y0088484
X00119Y0089
X0016043Y0088976
X001998Y0088287
X0024409Y0088386
Y0086221
X0027954Y0083469
X0030368Y0083018
X0032777Y0083961
X0031496Y0079678
X002874Y0079134
X0028732Y0076575
X0023228Y0076279
Y0073622
X0020276Y0071457
X0018996Y0077264
X0017815Y0083661
X0012303Y0083071
X0011811Y0080118
Y0075394
X001437Y0074016
X0003929Y0073622
Y0068701
Y0063583
Y0058465
X0007856Y0064961
X0014665Y0061122
Y0059055
X0017618Y0059744
X0028339Y0061614
Y0064173
Y0066732
X0025787Y0068504
X0038772Y0066929
X0041724
X0044677
X004763
X0050583
X0050583Y0070275
X004763
X0044677
X0041724
X0038772
Y0073622
X0041724
X0044677
X004763
X0050583
Y0063583
X004763
X0044677
X0041724
X0038772
X003878Y0060433
X0041732
X0044685
X0047638
X0050591
X00536Y0083
X0056Y00829
X0058566Y0079827
X00583Y00896
X00557Y00897
X00501Y00908
X00478Y00897
X00457Y00937
X00431Y0092224
Y00879
X00447Y00832
X00353Y00886
Y00907
X00348Y00933
X00366Y00951
X0031594Y0093799
X00305Y00964
X0029921Y0099213
X0026181
X0022441Y0098228
X0016437Y0095276
X0011713Y0094685
X00277Y00944
X0033858Y0099213
X00319Y01012
X00403Y01021
X00429Y0103
X0042955Y009765
X00475Y00965
X0049Y010291
X00571Y0103
X00613Y0101181
X0056405Y00969
X0057784Y0095
X0054921Y0127165
X0054429Y0130905
X0050197Y0130905
X0045472
X0041142
Y0127165
X0036713Y0130905
X0032283
Y0127165
X0027953Y0130905
X0029921Y0134777
X0025787
X003435
X0038681
X0043209
X0047835
X0051968
X0056595
X006063
X006437
X0068405
X0072736
X0076673
X008061
X0084252Y0134744
X0087992
X0086417Y0131004
X0082776Y0130905
X0078937Y0130905
X0075
X0070669
X0066732
X00625
X0058858
X0076283Y0127368
X0083327Y0127185
X0093878Y0130453
X0090945Y0114173
X00866Y01142
X00815Y0114274
X0097244Y0114173
X0097441Y0102362
X0092421Y0102663
X0015945Y0127144
X0017913Y0130905
X0012795
X0007874Y0130905
X0007856Y0127144
X0003937Y0126969
Y0123622
Y0119882
Y0130709
X0004331Y0134843
X0007874Y0134843
X0011122Y0134777
X0015354
X0003929Y0083858
Y0078937
T02
X0100787Y0151969
T03
X0110787Y0141969
Y0161969
X0090787
Y0141969
T04
X0005307Y0019685
X0112803
Y0114173
X0005307
M30
