G04*
G04 #@! TF.GenerationSoftware,Altium Limited,Altium Designer,19.0.15 (446)*
G04*
G04 Layer_Physical_Order=4*
G04 Layer_Color=16711680*
%FSLAX25Y25*%
%MOIN*%
G70*
G01*
G75*
G04:AMPARAMS|DCode=20|XSize=23.62mil|YSize=23.62mil|CornerRadius=2.36mil|HoleSize=0mil|Usage=FLASHONLY|Rotation=180.000|XOffset=0mil|YOffset=0mil|HoleType=Round|Shape=RoundedRectangle|*
%AMROUNDEDRECTD20*
21,1,0.02362,0.01890,0,0,180.0*
21,1,0.01890,0.02362,0,0,180.0*
1,1,0.00472,-0.00945,0.00945*
1,1,0.00472,0.00945,0.00945*
1,1,0.00472,0.00945,-0.00945*
1,1,0.00472,-0.00945,-0.00945*
%
%ADD20ROUNDEDRECTD20*%
G04:AMPARAMS|DCode=41|XSize=19.68mil|YSize=23.62mil|CornerRadius=1.97mil|HoleSize=0mil|Usage=FLASHONLY|Rotation=0.000|XOffset=0mil|YOffset=0mil|HoleType=Round|Shape=RoundedRectangle|*
%AMROUNDEDRECTD41*
21,1,0.01968,0.01968,0,0,0.0*
21,1,0.01575,0.02362,0,0,0.0*
1,1,0.00394,0.00787,-0.00984*
1,1,0.00394,-0.00787,-0.00984*
1,1,0.00394,-0.00787,0.00984*
1,1,0.00394,0.00787,0.00984*
%
%ADD41ROUNDEDRECTD41*%
G04:AMPARAMS|DCode=42|XSize=19.68mil|YSize=23.62mil|CornerRadius=1.97mil|HoleSize=0mil|Usage=FLASHONLY|Rotation=270.000|XOffset=0mil|YOffset=0mil|HoleType=Round|Shape=RoundedRectangle|*
%AMROUNDEDRECTD42*
21,1,0.01968,0.01968,0,0,270.0*
21,1,0.01575,0.02362,0,0,270.0*
1,1,0.00394,-0.00984,-0.00787*
1,1,0.00394,-0.00984,0.00787*
1,1,0.00394,0.00984,0.00787*
1,1,0.00394,0.00984,-0.00787*
%
%ADD42ROUNDEDRECTD42*%
G04:AMPARAMS|DCode=43|XSize=23.62mil|YSize=23.62mil|CornerRadius=2.36mil|HoleSize=0mil|Usage=FLASHONLY|Rotation=270.000|XOffset=0mil|YOffset=0mil|HoleType=Round|Shape=RoundedRectangle|*
%AMROUNDEDRECTD43*
21,1,0.02362,0.01890,0,0,270.0*
21,1,0.01890,0.02362,0,0,270.0*
1,1,0.00472,-0.00945,-0.00945*
1,1,0.00472,-0.00945,0.00945*
1,1,0.00472,0.00945,0.00945*
1,1,0.00472,0.00945,-0.00945*
%
%ADD43ROUNDEDRECTD43*%
%ADD80C,0.02000*%
%ADD91C,0.00400*%
%ADD92C,0.00500*%
%ADD94C,0.01200*%
%ADD95C,0.01000*%
%ADD96C,0.02000*%
%ADD97C,0.02500*%
%ADD98C,0.05315*%
%ADD99C,0.09000*%
%ADD100C,0.10000*%
%ADD101C,0.01968*%
%ADD102C,0.01300*%
%ADD103C,0.02756*%
%ADD104C,0.03937*%
G04:AMPARAMS|DCode=105|XSize=53.15mil|YSize=37.4mil|CornerRadius=4.68mil|HoleSize=0mil|Usage=FLASHONLY|Rotation=270.000|XOffset=0mil|YOffset=0mil|HoleType=Round|Shape=RoundedRectangle|*
%AMROUNDEDRECTD105*
21,1,0.05315,0.02805,0,0,270.0*
21,1,0.04380,0.03740,0,0,270.0*
1,1,0.00935,-0.01403,-0.02190*
1,1,0.00935,-0.01403,0.02190*
1,1,0.00935,0.01403,0.02190*
1,1,0.00935,0.01403,-0.02190*
%
%ADD105ROUNDEDRECTD105*%
G04:AMPARAMS|DCode=106|XSize=78.74mil|YSize=29.13mil|CornerRadius=2.91mil|HoleSize=0mil|Usage=FLASHONLY|Rotation=270.000|XOffset=0mil|YOffset=0mil|HoleType=Round|Shape=RoundedRectangle|*
%AMROUNDEDRECTD106*
21,1,0.07874,0.02331,0,0,270.0*
21,1,0.07291,0.02913,0,0,270.0*
1,1,0.00583,-0.01165,-0.03646*
1,1,0.00583,-0.01165,0.03646*
1,1,0.00583,0.01165,0.03646*
1,1,0.00583,0.01165,-0.03646*
%
%ADD106ROUNDEDRECTD106*%
%ADD107R,0.05512X0.05906*%
G04:AMPARAMS|DCode=108|XSize=11.81mil|YSize=29.53mil|CornerRadius=1.18mil|HoleSize=0mil|Usage=FLASHONLY|Rotation=180.000|XOffset=0mil|YOffset=0mil|HoleType=Round|Shape=RoundedRectangle|*
%AMROUNDEDRECTD108*
21,1,0.01181,0.02717,0,0,180.0*
21,1,0.00945,0.02953,0,0,180.0*
1,1,0.00236,-0.00472,0.01358*
1,1,0.00236,0.00472,0.01358*
1,1,0.00236,0.00472,-0.01358*
1,1,0.00236,-0.00472,-0.01358*
%
%ADD108ROUNDEDRECTD108*%
G04:AMPARAMS|DCode=109|XSize=15.75mil|YSize=19.68mil|CornerRadius=1.58mil|HoleSize=0mil|Usage=FLASHONLY|Rotation=270.000|XOffset=0mil|YOffset=0mil|HoleType=Round|Shape=RoundedRectangle|*
%AMROUNDEDRECTD109*
21,1,0.01575,0.01654,0,0,270.0*
21,1,0.01260,0.01968,0,0,270.0*
1,1,0.00315,-0.00827,-0.00630*
1,1,0.00315,-0.00827,0.00630*
1,1,0.00315,0.00827,0.00630*
1,1,0.00315,0.00827,-0.00630*
%
%ADD109ROUNDEDRECTD109*%
G04:AMPARAMS|DCode=110|XSize=11.81mil|YSize=19.68mil|CornerRadius=1.18mil|HoleSize=0mil|Usage=FLASHONLY|Rotation=270.000|XOffset=0mil|YOffset=0mil|HoleType=Round|Shape=RoundedRectangle|*
%AMROUNDEDRECTD110*
21,1,0.01181,0.01732,0,0,270.0*
21,1,0.00945,0.01968,0,0,270.0*
1,1,0.00236,-0.00866,-0.00472*
1,1,0.00236,-0.00866,0.00472*
1,1,0.00236,0.00866,0.00472*
1,1,0.00236,0.00866,-0.00472*
%
%ADD110ROUNDEDRECTD110*%
%ADD111C,0.03150*%
G36*
X107247Y166815D02*
X107417Y166315D01*
X106865Y165891D01*
X105983Y164742D01*
X105429Y163404D01*
X105319Y162568D01*
X110787D01*
Y161969D01*
X111387D01*
Y156500D01*
X112223Y156610D01*
X113561Y157164D01*
X114710Y158046D01*
X115097Y158550D01*
X115597Y158380D01*
X115596Y145558D01*
X115096Y145388D01*
X114710Y145891D01*
X113561Y146773D01*
X112223Y147327D01*
X111387Y147437D01*
Y141969D01*
Y136500D01*
X112223Y136610D01*
X113561Y137164D01*
X114710Y138046D01*
X115096Y138549D01*
X115596Y138379D01*
X115595Y117272D01*
X115095Y117025D01*
X114648Y117368D01*
X113758Y117737D01*
X112803Y117862D01*
X111848Y117737D01*
X110959Y117368D01*
X110195Y116782D01*
X109608Y116018D01*
X109240Y115128D01*
X109114Y114173D01*
X109240Y113218D01*
X109608Y112329D01*
X110195Y111565D01*
X110959Y110978D01*
X111848Y110610D01*
X112803Y110484D01*
X113758Y110610D01*
X114648Y110978D01*
X115094Y111321D01*
X115594Y111075D01*
X115590Y22787D01*
X115090Y22540D01*
X114648Y22880D01*
X113758Y23248D01*
X112803Y23374D01*
X111848Y23248D01*
X110959Y22880D01*
X110195Y22294D01*
X109608Y21530D01*
X109240Y20640D01*
X109114Y19685D01*
X109240Y18730D01*
X109608Y17841D01*
X110195Y17076D01*
X110959Y16490D01*
X111848Y16122D01*
X112803Y15996D01*
X113758Y16122D01*
X114648Y16490D01*
X115090Y16829D01*
X115590Y16583D01*
X115589Y4670D01*
Y4227D01*
X115250Y3410D01*
X114624Y2784D01*
X113806Y2445D01*
X113364Y2445D01*
X4959Y2466D01*
X4707Y2466D01*
X4213Y2564D01*
X3747Y2757D01*
X3328Y3037D01*
X2971Y3394D01*
X2691Y3813D01*
X2498Y4279D01*
X2400Y4773D01*
Y16675D01*
X2900Y16922D01*
X3463Y16490D01*
X4352Y16122D01*
X5307Y15996D01*
X6262Y16122D01*
X7152Y16490D01*
X7916Y17076D01*
X8502Y17841D01*
X8870Y18730D01*
X8996Y19685D01*
X8940Y20115D01*
X9413Y20349D01*
X10635Y19127D01*
X11094Y18937D01*
X13314D01*
X14685Y17566D01*
Y10331D01*
X14739Y10061D01*
X14891Y9832D01*
X15120Y9680D01*
X15390Y9626D01*
X17720D01*
X17990Y9680D01*
X18219Y9832D01*
X18349Y10027D01*
X18385Y10032D01*
X18849Y9765D01*
X19039Y9305D01*
X22085Y6260D01*
X22544Y6069D01*
X61122D01*
X61581Y6260D01*
X63478Y8157D01*
X64021Y7992D01*
X64035Y7918D01*
X64345Y7455D01*
X64808Y7146D01*
X65354Y7037D01*
X65900Y7146D01*
X66364Y7455D01*
X66673Y7918D01*
X66782Y8465D01*
X66673Y9011D01*
X66596Y9126D01*
X66863Y9626D01*
X67721D01*
X67990Y9680D01*
X68219Y9832D01*
X68372Y10061D01*
X68425Y10331D01*
Y17622D01*
X68372Y17892D01*
X68219Y18121D01*
X67990Y18273D01*
X67721Y18327D01*
X65390D01*
X65148Y18526D01*
Y20845D01*
X65390Y21043D01*
X67721D01*
X67990Y21097D01*
X68219Y21250D01*
X68372Y21478D01*
X68425Y21748D01*
Y29039D01*
X68372Y29309D01*
X68219Y29538D01*
X67990Y29691D01*
X67721Y29744D01*
X65390D01*
X65148Y29943D01*
Y30568D01*
X67472Y32892D01*
X68116Y32829D01*
X68174Y32741D01*
X68958Y32218D01*
X69882Y32034D01*
X70806Y32218D01*
X71589Y32741D01*
X72113Y33525D01*
X72168Y33799D01*
X74244D01*
X77810Y30233D01*
X77778Y30060D01*
X77592Y29744D01*
X75390D01*
X75120Y29691D01*
X74891Y29538D01*
X74739Y29309D01*
X74685Y29039D01*
Y21748D01*
X74739Y21478D01*
X74891Y21250D01*
X75120Y21097D01*
X75390Y21043D01*
X77720D01*
X77990Y21097D01*
X78484Y20826D01*
Y19094D01*
X78675Y18635D01*
X79685Y17624D01*
X79685Y17622D01*
Y10331D01*
X79711Y10197D01*
X79411Y9753D01*
X79393Y9735D01*
X79022Y9696D01*
X78419Y10299D01*
X78425Y10331D01*
Y17622D01*
X78372Y17892D01*
X78219Y18121D01*
X77990Y18273D01*
X77720Y18327D01*
X75390D01*
X75120Y18273D01*
X74891Y18121D01*
X74739Y17892D01*
X74685Y17622D01*
Y10331D01*
X74739Y10061D01*
X74891Y9832D01*
X75120Y9680D01*
X75390Y9626D01*
X77246D01*
X77254Y9622D01*
X77272Y9608D01*
X78431Y8450D01*
X78890Y8260D01*
X87813D01*
X88272Y8450D01*
X89158Y9336D01*
X89335Y9765D01*
X89479Y9822D01*
X89848Y9897D01*
X89891Y9832D01*
X90120Y9680D01*
X90390Y9626D01*
X92721D01*
X92990Y9680D01*
X93219Y9832D01*
X93372Y10061D01*
X93425Y10331D01*
Y17622D01*
X93372Y17892D01*
X93219Y18121D01*
X92990Y18273D01*
X92721Y18327D01*
X90390D01*
X90120Y18273D01*
X89891Y18121D01*
X89848Y18055D01*
X89348Y18207D01*
Y21163D01*
X89848Y21315D01*
X89891Y21250D01*
X90120Y21097D01*
X90390Y21043D01*
X92721D01*
X92743Y21048D01*
X93208Y20733D01*
X93243Y20676D01*
Y19498D01*
X93433Y19039D01*
X94712Y17759D01*
X94685Y17622D01*
Y10331D01*
X94739Y10061D01*
X94891Y9832D01*
X95120Y9680D01*
X95390Y9626D01*
X97720D01*
X97990Y9680D01*
X98219Y9832D01*
X98372Y10061D01*
X98425Y10331D01*
Y17622D01*
X98372Y17892D01*
X98219Y18121D01*
X97990Y18273D01*
X97720Y18327D01*
X96001D01*
X95995Y18330D01*
X95969Y18345D01*
X95952Y18356D01*
X94542Y19767D01*
Y20928D01*
X94569Y20953D01*
X95042Y21149D01*
X95120Y21097D01*
X95390Y21043D01*
X97720D01*
X97990Y21097D01*
X98219Y21250D01*
X98372Y21478D01*
X98425Y21748D01*
Y29039D01*
X98372Y29309D01*
X98219Y29538D01*
X97990Y29691D01*
X97720Y29744D01*
X96035D01*
X95790Y30038D01*
X95991Y30504D01*
X98306D01*
X99699Y29111D01*
X99685Y29039D01*
Y21748D01*
X99739Y21478D01*
X99891Y21250D01*
X100120Y21097D01*
X100390Y21043D01*
X102720D01*
X102990Y21097D01*
X103219Y21250D01*
X103372Y21478D01*
X103425Y21748D01*
Y29039D01*
X103372Y29309D01*
X103219Y29538D01*
X102990Y29691D01*
X102720Y29744D01*
X100915D01*
X100899Y29754D01*
X100880Y29766D01*
X99034Y31613D01*
X98575Y31803D01*
X96676D01*
X96524Y32303D01*
X97180Y32741D01*
X97703Y33525D01*
X97887Y34449D01*
X97703Y35373D01*
X97180Y36156D01*
X96397Y36680D01*
X95472Y36864D01*
X94548Y36680D01*
X94492Y36642D01*
X92923Y38211D01*
Y50764D01*
X93874Y51716D01*
X94417Y51551D01*
X94525Y51005D01*
X94684Y50768D01*
X94700Y50771D01*
X94747Y50790D01*
X94768Y50802D01*
X94798Y50844D01*
X94866Y50956D01*
X94917Y51062D01*
X94952Y51162D01*
X94971Y51255D01*
X94973Y51342D01*
X94959Y51422D01*
X96304Y50077D01*
X96224Y50091D01*
X96137Y50089D01*
X96044Y50070D01*
X95944Y50035D01*
X95838Y49984D01*
X95726Y49916D01*
X95606Y49831D01*
X95606Y49831D01*
X95887Y49643D01*
X96850Y49452D01*
X97813Y49643D01*
X98630Y50189D01*
X99176Y51005D01*
X99367Y51968D01*
X99176Y52932D01*
X98630Y53748D01*
X97813Y54294D01*
X96850Y54485D01*
X96636Y54443D01*
X96249Y54760D01*
Y67100D01*
X96059Y67559D01*
X95633Y67985D01*
X95840Y68485D01*
X97117D01*
X97365Y68535D01*
X97400Y68558D01*
X97850Y68258D01*
X97782Y67913D01*
X97966Y66989D01*
X98489Y66206D01*
X99273Y65682D01*
X100197Y65499D01*
X101121Y65682D01*
X101904Y66206D01*
X102428Y66989D01*
X102612Y67913D01*
X102428Y68837D01*
X101904Y69621D01*
X101121Y70144D01*
X100791Y70210D01*
X100513Y70626D01*
X100542Y70768D01*
X100433Y71314D01*
X100124Y71777D01*
X99660Y72087D01*
X99114Y72195D01*
X98568Y72087D01*
X98174Y71823D01*
X97813Y71801D01*
X97711Y71801D01*
X97425Y72186D01*
X97400Y72269D01*
X102583Y77452D01*
X102816Y77297D01*
X103740Y77113D01*
X104664Y77297D01*
X105448Y77820D01*
X105971Y78603D01*
X106155Y79528D01*
X105971Y80452D01*
X105816Y80685D01*
X106955Y81824D01*
X107146Y82283D01*
Y104114D01*
X107720D01*
X107990Y104168D01*
X108219Y104321D01*
X108372Y104549D01*
X108425Y104819D01*
Y112110D01*
X108372Y112380D01*
X108219Y112609D01*
X107990Y112761D01*
X107720Y112815D01*
X105390D01*
X105185Y112774D01*
X105029Y112827D01*
X104685Y113072D01*
Y114199D01*
X105984Y115499D01*
X106001Y115510D01*
X106027Y115525D01*
X106040Y115531D01*
X107720D01*
X107990Y115585D01*
X108219Y115738D01*
X108372Y115966D01*
X108425Y116236D01*
Y123528D01*
X108372Y123797D01*
X108219Y124026D01*
X107990Y124179D01*
X107720Y124232D01*
X105390D01*
X105120Y124179D01*
X104891Y124026D01*
X104739Y123797D01*
X104685Y123528D01*
Y116236D01*
X104718Y116070D01*
X103576Y114928D01*
X103386Y114469D01*
Y113098D01*
X103238Y112973D01*
X102886Y112782D01*
X102720Y112815D01*
X100390D01*
X100120Y112761D01*
X99891Y112609D01*
X99739Y112380D01*
X99685Y112110D01*
Y104819D01*
X99739Y104549D01*
X99891Y104321D01*
X99955Y104278D01*
X99956Y104277D01*
X99959Y104276D01*
X100120Y104168D01*
X100304Y104131D01*
X100321Y104112D01*
X100353Y104057D01*
X100389Y103964D01*
X100423Y103834D01*
X100449Y103667D01*
X100466Y103467D01*
X100472Y103223D01*
X100485Y103196D01*
Y103046D01*
X100472Y103018D01*
X100468Y102815D01*
X100457Y102635D01*
X100409Y102277D01*
X100375Y102120D01*
X100334Y101965D01*
X100285Y101818D01*
X100230Y101679D01*
X100168Y101546D01*
X100092Y101408D01*
X100091Y101400D01*
X100085Y101395D01*
X100081Y101340D01*
X99934Y101121D01*
X99750Y100197D01*
X99934Y99273D01*
X100458Y98489D01*
X101241Y97966D01*
X102165Y97782D01*
X102591Y97867D01*
X103091Y97456D01*
Y92049D01*
X102816Y91995D01*
X102033Y91471D01*
X101509Y90688D01*
X101325Y89764D01*
X101509Y88840D01*
X102033Y88056D01*
X102816Y87533D01*
X103091Y87478D01*
Y84619D01*
X100752Y82281D01*
X100252Y82488D01*
Y83465D01*
X100063Y83921D01*
X100036Y83933D01*
X100019Y83981D01*
X100022Y84479D01*
X100109Y84537D01*
X100263Y84768D01*
X100317Y85039D01*
Y86005D01*
X100265Y85945D01*
X100125Y85757D01*
X100010Y85584D01*
X99921Y85426D01*
X99857Y85282D01*
X99819Y85153D01*
X99806Y85039D01*
X98897Y87196D01*
X98958Y87098D01*
X99041Y87039D01*
X99146Y87019D01*
X99274Y87038D01*
X99425Y87097D01*
X99598Y87194D01*
X99793Y87331D01*
X99969Y87473D01*
X99996Y87513D01*
X100018Y87552D01*
X100024Y87567D01*
X99878Y87664D01*
X99606Y87718D01*
X98032D01*
X97760Y87664D01*
X97529Y87510D01*
X97375Y87280D01*
X97321Y87008D01*
Y86705D01*
X97332Y86708D01*
X97466Y86755D01*
X97584Y86813D01*
X97685Y86881D01*
X97770Y86960D01*
X97838Y87050D01*
X97890Y87149D01*
Y84898D01*
X97838Y84998D01*
X97770Y85087D01*
X97685Y85166D01*
X97584Y85234D01*
X97466Y85292D01*
X97332Y85339D01*
X97321Y85342D01*
Y85039D01*
X97375Y84768D01*
X97529Y84537D01*
X97615Y84479D01*
X97619Y83981D01*
X97602Y83933D01*
X97575Y83921D01*
X97386Y83465D01*
Y81496D01*
X97575Y81039D01*
X97653Y81007D01*
X97894Y80467D01*
X97785Y79921D01*
X97894Y79375D01*
X98203Y78912D01*
X98666Y78602D01*
X99212Y78494D01*
X99457Y78032D01*
X98601Y77177D01*
X96213D01*
X95979Y77080D01*
X95488Y77360D01*
X95479Y77373D01*
X95479Y83618D01*
X95636Y83862D01*
X95782Y84042D01*
X95989Y84083D01*
X96194Y84220D01*
X96330Y84424D01*
X96378Y84665D01*
Y85352D01*
X96287Y85328D01*
X96154Y85274D01*
X96045Y85208D01*
X95960Y85130D01*
X95899Y85040D01*
X95863Y84938D01*
X95851Y84824D01*
Y87224D01*
X95863Y87110D01*
X95899Y87008D01*
X95960Y86918D01*
X96045Y86840D01*
X96154Y86774D01*
X96287Y86720D01*
X96378Y86695D01*
Y87382D01*
X96330Y87623D01*
X96194Y87827D01*
X95989Y87964D01*
X95748Y88012D01*
X94803D01*
X94562Y87964D01*
X94291Y87854D01*
X94021Y87964D01*
X93779Y88012D01*
X92835D01*
X92593Y87964D01*
X92323Y87854D01*
X92052Y87964D01*
X91811Y88012D01*
X91126D01*
X90838Y88481D01*
X90947Y89028D01*
X90838Y89574D01*
X90529Y90037D01*
X90066Y90346D01*
X89933Y90373D01*
X89768Y90915D01*
X91258Y92406D01*
X91449Y92865D01*
Y95281D01*
X91687Y95480D01*
X91906Y95577D01*
X91973Y95532D01*
X92520Y95423D01*
X93066Y95532D01*
X93529Y95841D01*
X93838Y96304D01*
X93942Y96824D01*
X93952Y96847D01*
X93960Y97094D01*
X93969Y97184D01*
X93983Y97268D01*
X93999Y97339D01*
X94017Y97398D01*
X94036Y97444D01*
X94041Y97453D01*
X94481Y97893D01*
X94671Y98352D01*
Y103867D01*
X95078Y104139D01*
X95171Y104158D01*
X95390Y104114D01*
X97720D01*
X97990Y104168D01*
X98219Y104321D01*
X98372Y104549D01*
X98425Y104819D01*
Y112110D01*
X98372Y112380D01*
X98219Y112609D01*
X97990Y112761D01*
X97720Y112815D01*
X95390D01*
X95171Y112771D01*
X95078Y112790D01*
X94671Y113063D01*
Y114743D01*
X94481Y115202D01*
X93440Y116242D01*
X93443Y116246D01*
X93425Y116329D01*
Y123528D01*
X93372Y123797D01*
X93219Y124026D01*
X93208Y124047D01*
X93399Y124507D01*
X93547Y124478D01*
X93878Y124412D01*
X94457Y124527D01*
X94948Y124855D01*
X95276Y125346D01*
X95391Y125925D01*
X95276Y126504D01*
X94970Y126962D01*
X94954Y127028D01*
X95049Y127529D01*
X95370Y127662D01*
X95886Y128006D01*
X96324Y128445D01*
X96669Y128961D01*
X96907Y129534D01*
X97028Y130143D01*
Y130763D01*
X96907Y131371D01*
X96669Y131945D01*
X96324Y132460D01*
X95886Y132899D01*
X95370Y133244D01*
X94797Y133481D01*
X94188Y133602D01*
X93568D01*
X92959Y133481D01*
X92386Y133244D01*
X91870Y132899D01*
X91431Y132460D01*
X91087Y131945D01*
X90849Y131371D01*
X90728Y130763D01*
Y130143D01*
X90849Y129534D01*
X91087Y128961D01*
X91431Y128445D01*
X91870Y128006D01*
X92386Y127662D01*
X92707Y127529D01*
X92802Y127028D01*
X92786Y126962D01*
X92480Y126504D01*
X92365Y125925D01*
X92480Y125346D01*
X92808Y124855D01*
X92979Y124741D01*
X93085Y124670D01*
X92890Y124199D01*
X92721Y124232D01*
X90390D01*
X90120Y124179D01*
X89891Y124026D01*
X89739Y123797D01*
X89685Y123528D01*
Y116236D01*
X89739Y115966D01*
X89891Y115738D01*
X90120Y115585D01*
X90390Y115531D01*
X92107D01*
X92110Y115529D01*
X92147Y115531D01*
X92293D01*
X92299Y115528D01*
X92302Y115528D01*
X92321Y115518D01*
X92340Y115505D01*
X93372Y114474D01*
Y113108D01*
X93242Y112990D01*
X92872Y112785D01*
X92721Y112815D01*
X90390D01*
X90323Y112802D01*
X89886Y113078D01*
X89823Y113164D01*
Y114473D01*
X89632Y114932D01*
X88409Y116155D01*
X88425Y116236D01*
Y123528D01*
X88372Y123797D01*
X88219Y124026D01*
X87990Y124179D01*
X87721Y124232D01*
X85390D01*
X85120Y124179D01*
X84958Y124228D01*
X84958Y124229D01*
X83825Y125361D01*
X83366Y125551D01*
X80485D01*
X80162Y125875D01*
X79702Y126065D01*
X75640D01*
X74573Y127132D01*
X74114Y127323D01*
X60532D01*
X60072Y127132D01*
X57198Y124258D01*
X57180Y124246D01*
X57157Y124232D01*
X55390D01*
X55120Y124179D01*
X54891Y124026D01*
X54738Y123797D01*
X54685Y123528D01*
Y116236D01*
X54738Y115966D01*
X54891Y115738D01*
X55120Y115585D01*
X55390Y115531D01*
X57721D01*
X57990Y115585D01*
X58219Y115738D01*
X58372Y115966D01*
X58425Y116236D01*
Y123528D01*
X58405Y123628D01*
X60800Y126024D01*
X63330D01*
X63521Y125562D01*
X62216Y124256D01*
X62198Y124244D01*
X62178Y124232D01*
X60390D01*
X60120Y124179D01*
X59891Y124026D01*
X59738Y123797D01*
X59685Y123528D01*
Y116236D01*
X59738Y115966D01*
X59891Y115738D01*
X60120Y115585D01*
X60390Y115531D01*
X62721D01*
X62990Y115585D01*
X63219Y115738D01*
X63372Y115966D01*
X63425Y116236D01*
Y123528D01*
X63408Y123612D01*
X65020Y125224D01*
X67550D01*
X67741Y124762D01*
X67234Y124254D01*
X67215Y124242D01*
X67199Y124232D01*
X65390D01*
X65120Y124179D01*
X64891Y124026D01*
X64739Y123797D01*
X64685Y123528D01*
Y116236D01*
X64739Y115966D01*
X64891Y115738D01*
X65120Y115585D01*
X65390Y115531D01*
X67721D01*
X67990Y115585D01*
X68219Y115738D01*
X68372Y115966D01*
X68425Y116236D01*
Y123528D01*
X68412Y123596D01*
X69148Y124332D01*
X69569Y124309D01*
X69767Y123840D01*
X69739Y123797D01*
X69685Y123528D01*
Y116236D01*
X69739Y115966D01*
X69891Y115738D01*
X70120Y115585D01*
X70390Y115531D01*
X72134D01*
X72142Y115525D01*
X72207Y115531D01*
X72318D01*
X72321Y115530D01*
X72321Y115530D01*
X72338Y115521D01*
X72358Y115507D01*
X72998Y114867D01*
Y113270D01*
X72720Y112815D01*
X70390D01*
X70120Y112761D01*
X69891Y112609D01*
X69739Y112380D01*
X69685Y112110D01*
Y104819D01*
X69687Y104811D01*
X69362Y104333D01*
X69316Y104306D01*
X69061Y104299D01*
X68425Y104934D01*
Y104996D01*
X68426Y104998D01*
X68425Y105000D01*
Y112110D01*
X68372Y112380D01*
X68219Y112609D01*
X67990Y112761D01*
X67721Y112815D01*
X65390D01*
X65120Y112761D01*
X65107Y112753D01*
X64849Y112625D01*
X64413Y112793D01*
X63549Y113658D01*
X63090Y113848D01*
X53750D01*
X53290Y113658D01*
X52448Y112815D01*
X50390D01*
X50120Y112761D01*
X49891Y112609D01*
X49738Y112380D01*
X49685Y112110D01*
Y104819D01*
X49738Y104549D01*
X49891Y104321D01*
X50120Y104168D01*
X50390Y104114D01*
X52720D01*
X52990Y104168D01*
X53219Y104321D01*
X53372Y104549D01*
X53425Y104819D01*
Y111861D01*
X53425Y111862D01*
X53425Y111862D01*
Y111956D01*
X53861Y112392D01*
X54448Y112378D01*
X54685Y112110D01*
Y104819D01*
X54738Y104549D01*
X54891Y104321D01*
X55120Y104168D01*
X55390Y104114D01*
X57367D01*
X57374Y104109D01*
X58442Y103041D01*
X58902Y102851D01*
X61294D01*
X63838Y100306D01*
X63673Y99765D01*
X63291Y99509D01*
X62981Y99046D01*
X62878Y98527D01*
X62856Y98499D01*
X62361Y98282D01*
X62360Y98282D01*
X62341Y98294D01*
X61417Y98478D01*
X60493Y98294D01*
X59710Y97771D01*
X59186Y96987D01*
X59002Y96063D01*
X59186Y95139D01*
X59710Y94355D01*
X60493Y93832D01*
X61417Y93648D01*
X62341Y93832D01*
X63125Y94355D01*
X63648Y95139D01*
X63832Y96063D01*
X63726Y96599D01*
X63784Y96711D01*
X64131Y97063D01*
X64173Y97066D01*
X64294Y97067D01*
X64313Y97075D01*
X64750Y97162D01*
X65251Y96896D01*
Y92870D01*
X65243Y92866D01*
X65196Y92846D01*
X65136Y92827D01*
X65063Y92810D01*
X64984Y92796D01*
X64768Y92776D01*
X64646Y92773D01*
X64609Y92756D01*
X64119Y92659D01*
X63656Y92349D01*
X63347Y91886D01*
X63243Y91367D01*
X63233Y91343D01*
X63225Y91096D01*
X63216Y91006D01*
X63202Y90922D01*
X63186Y90851D01*
X63168Y90792D01*
X63149Y90746D01*
X63144Y90737D01*
X61893Y89487D01*
X61703Y89028D01*
Y85668D01*
X61893Y85209D01*
X62551Y84552D01*
Y80120D01*
X62388Y79988D01*
X62050Y79809D01*
X61221Y79974D01*
X60465Y79824D01*
X60260Y79825D01*
X59930Y80146D01*
X59885Y80373D01*
X59575Y80836D01*
X59112Y81146D01*
X58566Y81254D01*
X58020Y81146D01*
X57556Y80836D01*
X57247Y80373D01*
X57138Y79827D01*
X57247Y79281D01*
X57541Y78840D01*
X57550Y78816D01*
X57720Y78636D01*
X57777Y78565D01*
X57827Y78497D01*
X57865Y78435D01*
X57894Y78380D01*
X57914Y78334D01*
X57916Y78325D01*
Y74899D01*
X58107Y74440D01*
X59492Y73054D01*
Y71555D01*
X59681Y71098D01*
X60138Y70909D01*
X60473D01*
Y69589D01*
X60296Y69554D01*
X59513Y69030D01*
X58989Y68247D01*
X58806Y67323D01*
X58989Y66399D01*
X59513Y65615D01*
X60296Y65092D01*
X61221Y64908D01*
X62145Y65092D01*
X62928Y65615D01*
X63451Y66399D01*
X63635Y67323D01*
X63451Y68247D01*
X62928Y69030D01*
X62145Y69554D01*
X61772Y69628D01*
Y70909D01*
X62106D01*
X62563Y71098D01*
X62574Y71126D01*
X62623Y71143D01*
X63121Y71139D01*
X63179Y71053D01*
X63409Y70899D01*
X63681Y70845D01*
X65650D01*
X65921Y70899D01*
X66152Y71053D01*
X66306Y71283D01*
X66360Y71555D01*
Y73130D01*
X66306Y73402D01*
X66152Y73632D01*
X65921Y73786D01*
X65650Y73840D01*
X64389D01*
X64197Y74302D01*
X67055Y77161D01*
X67246Y77620D01*
Y84297D01*
X68106Y85157D01*
X68296Y85617D01*
Y93319D01*
X68796Y93587D01*
X68954Y93481D01*
X69384Y93396D01*
X69441Y93368D01*
X69566Y93362D01*
X69785Y93336D01*
X69867Y93320D01*
X69942Y93301D01*
X70003Y93281D01*
X70052Y93260D01*
X70062Y93255D01*
X70064Y93253D01*
Y81255D01*
X70254Y80796D01*
X72925Y78126D01*
X72769Y77893D01*
X72585Y76968D01*
X72769Y76044D01*
X73292Y75261D01*
X74076Y74737D01*
X74351Y74683D01*
Y74161D01*
X69645Y69455D01*
X69454Y68996D01*
Y64802D01*
X68954Y64537D01*
X68500Y64627D01*
X67954Y64519D01*
X67667Y64327D01*
X67332Y64244D01*
X66965Y64323D01*
X66688Y64508D01*
X66142Y64616D01*
X65596Y64508D01*
X65132Y64198D01*
X64823Y63735D01*
X64714Y63189D01*
X64823Y62643D01*
X65132Y62180D01*
X65596Y61870D01*
X66142Y61761D01*
X66688Y61870D01*
X66975Y62062D01*
X67309Y62146D01*
X67677Y62066D01*
X67954Y61881D01*
X68500Y61773D01*
X68954Y61863D01*
X69454Y61598D01*
Y58196D01*
X69265Y58040D01*
X68718Y57931D01*
X68255Y57622D01*
X67946Y57159D01*
X67842Y56637D01*
X67838Y56615D01*
X67836Y56609D01*
X67589Y56306D01*
X67071Y56288D01*
X66404Y56955D01*
X66404Y56955D01*
X66194Y57165D01*
X65735Y57355D01*
X36427D01*
X35012Y58770D01*
Y74793D01*
X38366Y78146D01*
X38556Y78606D01*
Y92608D01*
X39627Y93679D01*
X43028D01*
X43487Y93870D01*
X45713Y96096D01*
X45927Y96031D01*
X46220Y95896D01*
X46491Y95491D01*
X46954Y95181D01*
X47500Y95073D01*
X48046Y95181D01*
X48509Y95491D01*
X48819Y95954D01*
X48927Y96500D01*
X48819Y97046D01*
X48509Y97509D01*
X48046Y97819D01*
X47711Y97885D01*
X47500Y97927D01*
X47249Y98387D01*
Y104114D01*
X47721D01*
X47990Y104168D01*
X48219Y104321D01*
X48372Y104549D01*
X48425Y104819D01*
Y112110D01*
X48372Y112380D01*
X48219Y112609D01*
X47990Y112761D01*
X47721Y112815D01*
X45390D01*
X45120Y112761D01*
X44891Y112609D01*
X44739Y112380D01*
X44685Y112110D01*
Y105341D01*
X44185Y105133D01*
X43476Y105842D01*
X43468Y105855D01*
X43451Y105883D01*
X43440Y105907D01*
X43433Y105927D01*
X43429Y105941D01*
X43427Y105952D01*
X43426Y105984D01*
X43425Y105984D01*
Y112110D01*
X43372Y112380D01*
X43219Y112609D01*
X43002Y112754D01*
X42988Y112768D01*
X42799Y113302D01*
X42955Y113534D01*
X43063Y114080D01*
X43057Y114112D01*
X43374Y114499D01*
X44479D01*
X44938Y114689D01*
X45771Y115522D01*
X45785Y115531D01*
X47721D01*
X47990Y115585D01*
X48219Y115738D01*
X48372Y115966D01*
X48425Y116236D01*
Y123528D01*
X48760Y123946D01*
X49090Y124008D01*
X49685Y123412D01*
Y123351D01*
X49684Y123348D01*
X49685Y123346D01*
Y116236D01*
X49738Y115966D01*
X49891Y115738D01*
X50120Y115585D01*
X50390Y115531D01*
X52720D01*
X52990Y115585D01*
X53219Y115738D01*
X53372Y115966D01*
X53425Y116236D01*
Y123528D01*
X53372Y123797D01*
X53219Y124026D01*
X52990Y124179D01*
X52720Y124232D01*
X50702D01*
X50701Y124233D01*
X49672Y125262D01*
X49213Y125453D01*
X14764D01*
X14305Y125262D01*
X13517Y124475D01*
X13029Y124273D01*
X12910Y124297D01*
X12950Y123711D01*
X12984Y123637D01*
X10127D01*
X10161Y123711D01*
X10191Y123828D01*
X10218Y123988D01*
X10248Y124306D01*
X10081Y124273D01*
X9819Y124098D01*
X9644Y123836D01*
X9583Y123528D01*
Y116236D01*
X9644Y115928D01*
X9819Y115666D01*
X10081Y115491D01*
X10390Y115429D01*
X10663D01*
X10815Y114929D01*
X10605Y114789D01*
X10295Y114326D01*
X10187Y113779D01*
X10295Y113233D01*
X10183Y112932D01*
X10044Y112710D01*
X9891Y112609D01*
X9738Y112380D01*
X9685Y112110D01*
Y104819D01*
X9738Y104549D01*
X9891Y104321D01*
X10120Y104168D01*
X10390Y104114D01*
X12720D01*
X12827Y104135D01*
X13239Y103889D01*
X13327Y103791D01*
Y97047D01*
X13517Y96588D01*
X13746Y96359D01*
Y94452D01*
X13721Y94391D01*
Y75517D01*
X13718Y75508D01*
X13698Y75462D01*
X13670Y75407D01*
X13631Y75346D01*
X13585Y75282D01*
X13446Y75120D01*
X13361Y75033D01*
X13353Y75014D01*
X13051Y74562D01*
X12943Y74016D01*
X13051Y73470D01*
X13361Y73006D01*
X13824Y72697D01*
X14370Y72588D01*
X14916Y72697D01*
X15379Y73006D01*
X15689Y73470D01*
X15798Y74016D01*
X15689Y74562D01*
X15395Y75002D01*
X15385Y75026D01*
X15216Y75207D01*
X15159Y75277D01*
X15109Y75346D01*
X15071Y75407D01*
X15042Y75462D01*
X15022Y75508D01*
X15020Y75517D01*
Y94355D01*
X15045Y94416D01*
Y96628D01*
X14854Y97088D01*
X14626Y97316D01*
Y103896D01*
X15120Y104168D01*
X15390Y104114D01*
X17720D01*
X17990Y104168D01*
X18219Y104321D01*
X18372Y104549D01*
X18425Y104819D01*
Y112110D01*
X18372Y112380D01*
X18219Y112609D01*
X17990Y112761D01*
X17720Y112815D01*
X15390D01*
X15120Y112761D01*
X14626Y113033D01*
Y115314D01*
X15120Y115585D01*
X15390Y115531D01*
X17194D01*
X17203Y115508D01*
X17221Y115450D01*
X17238Y115378D01*
X17250Y115300D01*
X17267Y115087D01*
X17268Y114966D01*
X17276Y114947D01*
X17382Y114414D01*
X17691Y113951D01*
X18155Y113642D01*
X18701Y113533D01*
X19247Y113642D01*
X19710Y113951D01*
X20020Y114414D01*
X20128Y114961D01*
X20105Y115078D01*
X20230Y115277D01*
X20525Y115531D01*
X22720D01*
X22990Y115585D01*
X23219Y115738D01*
X23372Y115966D01*
X23425Y116236D01*
Y123528D01*
X23400Y123654D01*
X23629Y124050D01*
X23735Y124154D01*
X24375D01*
X24481Y124050D01*
X24710Y123654D01*
X24685Y123528D01*
Y116236D01*
X24739Y115966D01*
X24891Y115738D01*
X25120Y115585D01*
X25390Y115531D01*
X27720D01*
X27990Y115585D01*
X28219Y115738D01*
X28372Y115966D01*
X28425Y116236D01*
Y123528D01*
X28400Y123654D01*
X28629Y124050D01*
X28735Y124154D01*
X29375D01*
X29481Y124050D01*
X29710Y123654D01*
X29685Y123528D01*
Y116236D01*
X29739Y115966D01*
X29891Y115738D01*
X30120Y115585D01*
X30390Y115531D01*
X32721D01*
X32990Y115585D01*
X33219Y115738D01*
X33372Y115966D01*
X33425Y116236D01*
Y123528D01*
X33400Y123654D01*
X33629Y124050D01*
X33735Y124154D01*
X34375D01*
X34481Y124050D01*
X34710Y123654D01*
X34685Y123528D01*
Y116236D01*
X34738Y115966D01*
X34891Y115738D01*
X35120Y115585D01*
X35390Y115531D01*
X37721D01*
X37847Y115557D01*
X38045Y115248D01*
X38091Y115097D01*
X37807Y114672D01*
X37699Y114126D01*
X37807Y113580D01*
X38017Y113266D01*
X37743Y112811D01*
X37721Y112815D01*
X35390D01*
X35120Y112761D01*
X34891Y112609D01*
X34738Y112380D01*
X34685Y112110D01*
Y104819D01*
X34738Y104549D01*
X34891Y104321D01*
X35120Y104168D01*
X35390Y104114D01*
X37721D01*
X37990Y104168D01*
X38219Y104321D01*
X38372Y104549D01*
X38425Y104819D01*
Y112110D01*
X38372Y112378D01*
X38410Y112457D01*
X38704Y112783D01*
X39126Y112699D01*
X39384Y112750D01*
X39560Y112566D01*
X39724Y112308D01*
X39685Y112110D01*
Y104819D01*
X39739Y104549D01*
X39891Y104321D01*
X40120Y104168D01*
X40390Y104114D01*
X41359D01*
X41627Y103614D01*
X41581Y103546D01*
X41473Y103000D01*
X41581Y102454D01*
X41891Y101991D01*
X42354Y101681D01*
X42900Y101573D01*
X43446Y101681D01*
X43909Y101991D01*
X44051Y102202D01*
X44551Y102050D01*
Y97902D01*
X43348Y96700D01*
X39948D01*
X39489Y96509D01*
X36647Y93668D01*
X36457Y93209D01*
Y79206D01*
X33104Y75853D01*
X32914Y75394D01*
Y73965D01*
X32452Y73774D01*
X30253Y75972D01*
X30249Y75981D01*
X30230Y76027D01*
X30212Y76086D01*
X30195Y76157D01*
X30183Y76235D01*
X30166Y76448D01*
X30165Y76569D01*
X30157Y76588D01*
X30051Y77121D01*
X29772Y77538D01*
X29715Y77705D01*
Y78102D01*
X29750Y78124D01*
X29999Y78498D01*
X30284Y78598D01*
X30573Y78611D01*
X30950Y78359D01*
X31496Y78251D01*
X32042Y78359D01*
X32505Y78669D01*
X32815Y79132D01*
X32923Y79678D01*
X32815Y80224D01*
X32505Y80687D01*
X32042Y80997D01*
X31496Y81106D01*
X31365Y81079D01*
X31324Y81096D01*
X31170Y81188D01*
X31083Y81274D01*
X31097Y81684D01*
X31162Y81865D01*
X31377Y82009D01*
X31687Y82472D01*
X31693Y82502D01*
X32155Y82693D01*
X32231Y82642D01*
X32777Y82533D01*
X33323Y82642D01*
X33786Y82951D01*
X34096Y83415D01*
X34205Y83961D01*
X34096Y84507D01*
X33786Y84970D01*
X33323Y85280D01*
X32777Y85388D01*
X32231Y85280D01*
X31768Y84970D01*
X31458Y84507D01*
X31452Y84477D01*
X30990Y84286D01*
X30914Y84337D01*
X30368Y84445D01*
X29822Y84337D01*
X29359Y84027D01*
X29049Y83564D01*
X28940Y83018D01*
X29049Y82472D01*
X29359Y82009D01*
X29546Y81883D01*
X29395Y81383D01*
X23276D01*
X22956Y81703D01*
X22952Y81709D01*
Y81724D01*
X22967Y81760D01*
X22952Y81795D01*
X22961Y81831D01*
X22952Y81846D01*
Y83327D01*
X22902Y83575D01*
X22762Y83785D01*
X22615Y83884D01*
X22580Y84153D01*
X22615Y84423D01*
X22762Y84522D01*
X22902Y84732D01*
X22952Y84980D01*
Y84982D01*
X23216Y85117D01*
X23452Y85176D01*
X23863Y84902D01*
X24409Y84793D01*
X24956Y84902D01*
X25419Y85211D01*
X25728Y85674D01*
X25837Y86221D01*
X25728Y86767D01*
X25419Y87230D01*
Y87376D01*
X25728Y87840D01*
X25837Y88386D01*
X25728Y88932D01*
X25419Y89395D01*
X24956Y89705D01*
X24409Y89813D01*
X23863Y89705D01*
X23400Y89395D01*
X23091Y88932D01*
X22982Y88386D01*
X23091Y87840D01*
X23181Y87704D01*
X23137Y87634D01*
X23110Y87612D01*
X22551Y87469D01*
X22303Y87519D01*
X21706D01*
X21354Y88019D01*
X21408Y88287D01*
X21299Y88834D01*
X20990Y89297D01*
X20527Y89606D01*
X19980Y89715D01*
X19434Y89606D01*
X18971Y89297D01*
X18662Y88834D01*
X18553Y88287D01*
X18606Y88019D01*
X18266Y87535D01*
X18235Y87519D01*
X16870D01*
X16622Y87469D01*
X16411Y87329D01*
X16271Y87118D01*
X16221Y86870D01*
Y84980D01*
X16271Y84732D01*
X16411Y84522D01*
X16496Y84208D01*
X16387Y83661D01*
X16496Y83115D01*
X16806Y82652D01*
X17269Y82343D01*
X17815Y82234D01*
X18361Y82343D01*
X18824Y82652D01*
X19134Y83115D01*
X19242Y83661D01*
X19134Y84208D01*
X19218Y84522D01*
X19317Y84669D01*
X19587Y84703D01*
X19856Y84669D01*
X19955Y84522D01*
X20102Y84423D01*
X20136Y84153D01*
X20102Y83884D01*
X19955Y83785D01*
X19814Y83575D01*
X19765Y83327D01*
Y81437D01*
X19814Y81189D01*
X19955Y80978D01*
X20165Y80838D01*
X20413Y80788D01*
X21894D01*
X21909Y80779D01*
X21945Y80788D01*
X21980Y80773D01*
X22016Y80788D01*
X22032D01*
X22038Y80784D01*
X22547Y80274D01*
X23007Y80084D01*
X27136D01*
X27402Y79584D01*
X27318Y79161D01*
X27307Y79137D01*
X27300Y78890D01*
X27290Y78799D01*
X27277Y78716D01*
X27261Y78645D01*
X27242Y78586D01*
X27224Y78540D01*
X27219Y78531D01*
X26673Y77985D01*
X26483Y77526D01*
Y75721D01*
X26673Y75262D01*
X30945Y70990D01*
Y65705D01*
X30483Y65514D01*
X30406Y65591D01*
X30392Y65597D01*
X29860Y66129D01*
X29855Y66138D01*
X29836Y66185D01*
X29818Y66243D01*
X29802Y66315D01*
X29789Y66392D01*
X29773Y66605D01*
X29771Y66726D01*
X29763Y66745D01*
X29657Y67278D01*
X29348Y67742D01*
X28885Y68051D01*
X28339Y68160D01*
X27792Y68051D01*
X27329Y67742D01*
X27020Y67278D01*
X26911Y66732D01*
X27020Y66186D01*
X27329Y65723D01*
X27359Y65703D01*
Y65203D01*
X27329Y65183D01*
X27020Y64719D01*
X26911Y64173D01*
X27020Y63627D01*
X27329Y63164D01*
X27359Y63144D01*
Y62644D01*
X27329Y62623D01*
X27020Y62160D01*
X26917Y61641D01*
X26906Y61617D01*
X26898Y61370D01*
X26889Y61280D01*
X26875Y61197D01*
X26859Y61125D01*
X26841Y61066D01*
X26826Y61031D01*
X26478Y60710D01*
X26043Y60890D01*
Y66635D01*
X25853Y67094D01*
X24837Y68110D01*
Y68898D01*
X25681Y69742D01*
X25871Y70201D01*
Y74088D01*
X25681Y74547D01*
X24666Y75563D01*
X24664Y75566D01*
X24651Y75603D01*
X24639Y75652D01*
X24630Y75712D01*
X24625Y75783D01*
X24625Y75866D01*
X24632Y75960D01*
X24647Y76075D01*
X24628Y76142D01*
X24656Y76279D01*
X24547Y76826D01*
X24238Y77289D01*
X23775Y77598D01*
X23228Y77707D01*
X22682Y77598D01*
X22219Y77289D01*
X21910Y76826D01*
X21801Y76279D01*
X21910Y75733D01*
X22219Y75270D01*
X22247Y75252D01*
Y74650D01*
X22219Y74631D01*
X21910Y74168D01*
X21801Y73622D01*
X21910Y73076D01*
X22219Y72613D01*
X22306Y72554D01*
X22333Y72503D01*
X22413Y72436D01*
X22474Y72379D01*
X22524Y72325D01*
X22564Y72274D01*
X22595Y72227D01*
X22618Y72183D01*
X22635Y72143D01*
X22646Y72105D01*
X22652Y72069D01*
X22655Y72008D01*
X22661Y71996D01*
X22657Y71983D01*
X22675Y71952D01*
Y67214D01*
X22725Y66960D01*
X22869Y66745D01*
X23747Y65867D01*
Y47348D01*
X23247Y47299D01*
X23208Y47494D01*
X22843Y48040D01*
X22473Y48410D01*
X22478Y48434D01*
X22550Y48689D01*
X22542Y48754D01*
X22555Y48819D01*
Y50689D01*
X22552Y50702D01*
X22555Y50716D01*
X22548Y51110D01*
X22460Y51520D01*
Y52028D01*
X22410Y52276D01*
X22270Y52486D01*
X22059Y52627D01*
X21811Y52676D01*
X21325D01*
X20839Y52765D01*
X20428Y52676D01*
X19921D01*
X19673Y52627D01*
X19463Y52486D01*
X19364Y52339D01*
X19094Y52305D01*
X18825Y52339D01*
X18726Y52486D01*
X18516Y52627D01*
X18268Y52676D01*
X18108D01*
X18021Y52764D01*
Y55709D01*
X17893Y56353D01*
X17528Y56898D01*
X16982Y57263D01*
X16339Y57391D01*
X15695Y57263D01*
X15149Y56898D01*
X14784Y56353D01*
X14656Y55709D01*
Y52067D01*
X14784Y51423D01*
X15149Y50877D01*
X15729Y50297D01*
Y50138D01*
X15779Y49890D01*
X15919Y49679D01*
X16066Y49581D01*
X16101Y49311D01*
X16066Y49041D01*
X15919Y48943D01*
X15779Y48733D01*
X15729Y48484D01*
Y47986D01*
X15641Y47539D01*
Y45715D01*
X15596Y45676D01*
X15141Y45494D01*
X15071Y45540D01*
X14823Y45590D01*
X14324D01*
X13878Y45678D01*
X13432Y45590D01*
X12933D01*
X12685Y45540D01*
X12474Y45400D01*
X12334Y45189D01*
X12284Y44941D01*
Y44442D01*
X12200Y44018D01*
X12195Y44007D01*
X12183Y43531D01*
X12149Y43127D01*
X12095Y42787D01*
X12023Y42514D01*
X11939Y42310D01*
X11853Y42175D01*
X11775Y42098D01*
X11702Y42059D01*
X11663Y42051D01*
X11443D01*
X11440Y42051D01*
X11440Y42051D01*
X10802D01*
X10464Y41984D01*
X10177Y41792D01*
X9985Y41505D01*
X9918Y41166D01*
Y36786D01*
X9985Y36448D01*
X10177Y36161D01*
X10464Y35969D01*
X10802Y35902D01*
X11366D01*
X11435Y35878D01*
X11554Y35884D01*
X11589Y35875D01*
X11623Y35853D01*
X11677Y35791D01*
X11745Y35668D01*
X11812Y35479D01*
X11869Y35232D01*
X11942Y34529D01*
X11951Y34097D01*
X11952Y34096D01*
Y31972D01*
X11868Y31844D01*
X10747Y30553D01*
X10421Y30222D01*
X10420Y30220D01*
X10366Y30166D01*
X10228Y29960D01*
X10098Y29816D01*
X10093Y29804D01*
X10081Y29797D01*
X9977Y29668D01*
X9969Y29640D01*
X9946Y29624D01*
X9900Y29549D01*
X9899Y29543D01*
X9891Y29538D01*
X9738Y29309D01*
X9685Y29039D01*
Y22567D01*
X9223Y22376D01*
X6457Y25142D01*
Y52664D01*
X10794Y57001D01*
X10984Y57460D01*
Y64692D01*
X19455Y73163D01*
X19646Y73622D01*
Y75762D01*
X19648Y75771D01*
X19668Y75817D01*
X19696Y75872D01*
X19735Y75934D01*
X19782Y75998D01*
X19920Y76160D01*
X20005Y76247D01*
X20013Y76266D01*
X20315Y76718D01*
X20424Y77264D01*
X20315Y77810D01*
X20005Y78273D01*
X19542Y78583D01*
X18996Y78691D01*
X18450Y78583D01*
X17987Y78273D01*
X17677Y77810D01*
X17569Y77264D01*
X17677Y76718D01*
X17971Y76277D01*
X17981Y76253D01*
X18150Y76073D01*
X18207Y76002D01*
X18257Y75934D01*
X18296Y75872D01*
X18324Y75818D01*
X18344Y75771D01*
X18347Y75762D01*
Y73891D01*
X9875Y65420D01*
X9685Y64961D01*
Y57729D01*
X5348Y53392D01*
X5158Y52933D01*
Y24873D01*
X5348Y24414D01*
X5971Y23791D01*
X5737Y23317D01*
X5307Y23374D01*
X4352Y23248D01*
X3463Y22880D01*
X2900Y22448D01*
X2400Y22695D01*
X2400Y111163D01*
X2900Y111410D01*
X3463Y110978D01*
X4352Y110610D01*
X5307Y110484D01*
X6262Y110610D01*
X7152Y110978D01*
X7916Y111565D01*
X8502Y112329D01*
X8870Y113218D01*
X8996Y114173D01*
X8870Y115128D01*
X8502Y116018D01*
X7916Y116782D01*
X7152Y117368D01*
X6262Y117737D01*
X5307Y117862D01*
X4352Y117737D01*
X3463Y117368D01*
X2900Y116936D01*
X2400Y117183D01*
Y136500D01*
X82655Y136500D01*
X82990Y136516D01*
X83646Y136647D01*
X84265Y136903D01*
X84821Y137275D01*
X85294Y137748D01*
X85666Y138305D01*
X85796Y138618D01*
X86368Y138693D01*
X86865Y138046D01*
X88014Y137164D01*
X89352Y136610D01*
X90187Y136500D01*
Y141969D01*
Y147437D01*
X89352Y147327D01*
X88014Y146773D01*
X86865Y145891D01*
X86543Y145472D01*
X86069Y145632D01*
X86069Y158305D01*
X86543Y158465D01*
X86865Y158046D01*
X88014Y157164D01*
X89352Y156610D01*
X90187Y156500D01*
Y161969D01*
X90787D01*
Y162568D01*
X96256D01*
X96146Y163404D01*
X95592Y164742D01*
X94710Y165891D01*
X94158Y166315D01*
X94327Y166815D01*
X107247Y166815D01*
D02*
G37*
G36*
X58174Y124032D02*
X58099Y123955D01*
X57986Y123820D01*
X57949Y123764D01*
X57924Y123714D01*
X57911Y123671D01*
X57911Y123635D01*
X57923Y123607D01*
X57947Y123585D01*
X57985Y123570D01*
X57105Y123800D01*
X57149Y123793D01*
X57196Y123794D01*
X57246Y123803D01*
X57298Y123821D01*
X57354Y123846D01*
X57412Y123880D01*
X57472Y123921D01*
X57536Y123971D01*
X57602Y124029D01*
X57671Y124095D01*
X58174Y124032D01*
D02*
G37*
G36*
X63186Y124025D02*
X63110Y123946D01*
X62995Y123810D01*
X62957Y123752D01*
X62931Y123702D01*
X62917Y123658D01*
X62916Y123622D01*
X62928Y123592D01*
X62952Y123569D01*
X62988Y123554D01*
X62125Y123800D01*
X62168Y123793D01*
X62215Y123793D01*
X62264Y123802D01*
X62316Y123819D01*
X62371Y123844D01*
X62429Y123878D01*
X62490Y123920D01*
X62554Y123970D01*
X62621Y124028D01*
X62690Y124095D01*
X63186Y124025D01*
D02*
G37*
G36*
X68197Y124017D02*
X68120Y123937D01*
X68005Y123799D01*
X67965Y123741D01*
X67938Y123689D01*
X67924Y123645D01*
X67922Y123608D01*
X67933Y123577D01*
X67956Y123554D01*
X67991Y123537D01*
X67144Y123800D01*
X67187Y123792D01*
X67233Y123792D01*
X67282Y123800D01*
X67334Y123817D01*
X67389Y123842D01*
X67447Y123876D01*
X67508Y123918D01*
X67572Y123969D01*
X67640Y124028D01*
X67710Y124095D01*
X68197Y124017D01*
D02*
G37*
G36*
X50282Y124019D02*
X50425Y123898D01*
X50489Y123853D01*
X50548Y123818D01*
X50602Y123794D01*
X50651Y123780D01*
X50695Y123776D01*
X50735Y123783D01*
X50769Y123800D01*
X50117Y123345D01*
X50143Y123371D01*
X50157Y123403D01*
X50159Y123441D01*
X50149Y123486D01*
X50127Y123538D01*
X50093Y123596D01*
X50048Y123661D01*
X49990Y123732D01*
X49839Y123894D01*
X50203Y124095D01*
X50282Y124019D01*
D02*
G37*
G36*
X17956Y116210D02*
X17933Y116187D01*
X17922Y116156D01*
X17924Y116119D01*
X17937Y116079D01*
X18007Y116050D01*
X18099Y116022D01*
X18200Y115999D01*
X18310Y115981D01*
X18428Y115969D01*
X18691Y115961D01*
X17701Y114971D01*
X17699Y115106D01*
X17681Y115352D01*
X17663Y115461D01*
X17640Y115562D01*
X17611Y115654D01*
X17577Y115738D01*
X17538Y115813D01*
X17524Y115833D01*
X17508Y115846D01*
X17447Y115888D01*
X17389Y115922D01*
X17334Y115947D01*
X17282Y115964D01*
X17233Y115972D01*
X17187Y115972D01*
X17144Y115963D01*
X17616Y116110D01*
X17725Y116219D01*
X17783Y116169D01*
X17790Y116164D01*
X17991Y116226D01*
X17956Y116210D01*
D02*
G37*
G36*
X106084Y115963D02*
X106037Y115968D01*
X105988Y115965D01*
X105937Y115954D01*
X105883Y115936D01*
X105828Y115910D01*
X105770Y115877D01*
X105710Y115836D01*
X105648Y115788D01*
X105584Y115732D01*
X105518Y115669D01*
X104984Y115700D01*
X105056Y115774D01*
X105162Y115903D01*
X105196Y115956D01*
X105218Y116003D01*
X105227Y116043D01*
X105223Y116076D01*
X105207Y116102D01*
X105178Y116121D01*
X105137Y116133D01*
X106084Y115963D01*
D02*
G37*
G36*
X45848D02*
X45810Y115977D01*
X45768Y115981D01*
X45722Y115976D01*
X45671Y115960D01*
X45617Y115936D01*
X45558Y115902D01*
X45496Y115858D01*
X45428Y115804D01*
X45282Y115669D01*
X44863Y115815D01*
X44944Y115899D01*
X45068Y116044D01*
X45111Y116107D01*
X45143Y116163D01*
X45162Y116212D01*
X45169Y116254D01*
X45164Y116289D01*
X45147Y116318D01*
X45117Y116340D01*
X45848Y115963D01*
D02*
G37*
G36*
X41025D02*
X40980Y115970D01*
X40932Y115968D01*
X40882Y115959D01*
X40830Y115941D01*
X40774Y115916D01*
X40716Y115882D01*
X40656Y115841D01*
X40593Y115791D01*
X40527Y115734D01*
X40459Y115669D01*
X39948Y115723D01*
X40022Y115800D01*
X40133Y115933D01*
X40170Y115989D01*
X40194Y116037D01*
X40206Y116079D01*
X40205Y116114D01*
X40192Y116142D01*
X40167Y116163D01*
X40129Y116177D01*
X41025Y115963D01*
D02*
G37*
G36*
X77978Y116619D02*
X77973Y116578D01*
X77977Y116533D01*
X77992Y116483D01*
X78016Y116429D01*
X78051Y116370D01*
X78095Y116307D01*
X78149Y116239D01*
X78288Y116089D01*
X78118Y115694D01*
X78033Y115776D01*
X77885Y115902D01*
X77821Y115948D01*
X77763Y115981D01*
X77713Y116001D01*
X77669Y116010D01*
X77632Y116007D01*
X77601Y115991D01*
X77577Y115963D01*
X77993Y116655D01*
X77978Y116619D01*
D02*
G37*
G36*
X92984Y116301D02*
X92963Y116272D01*
X92955Y116236D01*
X92959Y116194D01*
X92975Y116146D01*
X93003Y116091D01*
X93044Y116029D01*
X93097Y115961D01*
X93163Y115887D01*
X93241Y115806D01*
X92812Y115669D01*
X92740Y115738D01*
X92607Y115848D01*
X92545Y115889D01*
X92487Y115921D01*
X92432Y115943D01*
X92380Y115956D01*
X92332Y115960D01*
X92288Y115954D01*
X92247Y115939D01*
X93017Y116324D01*
X92984Y116301D01*
D02*
G37*
G36*
X87952Y116198D02*
X87929Y116175D01*
X87918Y116145D01*
X87919Y116108D01*
X87932Y116065D01*
X87959Y116014D01*
X87997Y115956D01*
X88048Y115891D01*
X88112Y115820D01*
X88188Y115741D01*
X87694Y115669D01*
X87625Y115736D01*
X87494Y115845D01*
X87433Y115887D01*
X87375Y115920D01*
X87320Y115945D01*
X87268Y115963D01*
X87218Y115971D01*
X87172Y115971D01*
X87129Y115963D01*
X87989Y116214D01*
X87952Y116198D01*
D02*
G37*
G36*
X82967Y116381D02*
X82952Y116349D01*
X82950Y116311D01*
X82959Y116266D01*
X82981Y116215D01*
X83015Y116157D01*
X83060Y116092D01*
X83118Y116021D01*
X83269Y115859D01*
X82894Y115669D01*
X82816Y115744D01*
X82674Y115864D01*
X82610Y115909D01*
X82551Y115944D01*
X82497Y115968D01*
X82447Y115982D01*
X82403Y115986D01*
X82363Y115980D01*
X82328Y115963D01*
X82993Y116406D01*
X82967Y116381D01*
D02*
G37*
G36*
X72985Y116320D02*
X72965Y116290D01*
X72958Y116253D01*
X72962Y116210D01*
X72979Y116161D01*
X73009Y116105D01*
X73050Y116043D01*
X73104Y115974D01*
X73170Y115899D01*
X73249Y115818D01*
X72832Y115669D01*
X72759Y115739D01*
X72624Y115850D01*
X72562Y115892D01*
X72504Y115923D01*
X72449Y115946D01*
X72398Y115958D01*
X72350Y115962D01*
X72307Y115955D01*
X72266Y115939D01*
X73017Y116344D01*
X72985Y116320D01*
D02*
G37*
G36*
X42652Y115007D02*
X42607Y114959D01*
X42570Y114910D01*
X42540Y114862D01*
X42518Y114814D01*
X42502Y114766D01*
X42494Y114718D01*
X42492Y114669D01*
X42498Y114621D01*
X42512Y114573D01*
X42532Y114524D01*
X41820Y115063D01*
X41875Y115056D01*
X41929Y115056D01*
X41984Y115062D01*
X42038Y115075D01*
X42093Y115094D01*
X42148Y115120D01*
X42203Y115153D01*
X42258Y115192D01*
X42314Y115237D01*
X42369Y115289D01*
X42652Y115007D01*
D02*
G37*
G36*
X40145Y115354D02*
X40090Y115291D01*
X40045Y115223D01*
X40010Y115149D01*
X39986Y115070D01*
X39972Y114985D01*
X39969Y114896D01*
X39976Y114801D01*
X39994Y114700D01*
X40022Y114594D01*
X40060Y114483D01*
X38787Y115067D01*
X38939Y115123D01*
X39514Y115369D01*
X39592Y115413D01*
X39712Y115492D01*
X39754Y115529D01*
X40145Y115354D01*
D02*
G37*
G36*
X12060Y113203D02*
X12075Y113037D01*
X12271Y113025D01*
X12230Y112984D01*
X12193Y112935D01*
X12161Y112880D01*
X12133Y112816D01*
X12124Y112790D01*
X12135Y112747D01*
X12180Y112636D01*
X12235Y112545D01*
X12300Y112474D01*
X12375Y112424D01*
X12460Y112393D01*
X12555Y112383D01*
X12059D01*
X12055Y112282D01*
X11055Y112350D01*
X11055Y112383D01*
X10555D01*
X10650Y112393D01*
X10735Y112424D01*
X10810Y112474D01*
X10875Y112545D01*
X10930Y112636D01*
X10975Y112747D01*
X11002Y112847D01*
X10990Y112890D01*
X10966Y112955D01*
X10939Y113013D01*
X10908Y113064D01*
X10873Y113108D01*
X11041Y113098D01*
X11050Y113203D01*
X11055Y113395D01*
X12055D01*
X12060Y113203D01*
D02*
G37*
G36*
X53278Y112444D02*
X53197Y112360D01*
X53070Y112211D01*
X53024Y112146D01*
X52990Y112088D01*
X52967Y112035D01*
X52956Y111989D01*
X52957Y111949D01*
X52969Y111916D01*
X52993Y111888D01*
X52381Y112383D01*
X52413Y112364D01*
X52451Y112356D01*
X52494Y112359D01*
X52543Y112372D01*
X52597Y112396D01*
X52656Y112431D01*
X52721Y112477D01*
X52790Y112533D01*
X52946Y112678D01*
X53278Y112444D01*
D02*
G37*
G36*
X42996Y105906D02*
X43005Y105851D01*
X43020Y105796D01*
X43040Y105740D01*
X43067Y105684D01*
X43099Y105627D01*
X43138Y105570D01*
X43182Y105512D01*
X43232Y105453D01*
X43288Y105395D01*
Y104829D01*
X43232Y104882D01*
X43182Y104923D01*
X43138Y104953D01*
X43099Y104971D01*
X43067Y104976D01*
X43040Y104971D01*
X43020Y104953D01*
X43005Y104923D01*
X42996Y104882D01*
X42993Y104829D01*
Y105960D01*
X42996Y105906D01*
D02*
G37*
G36*
X90828Y104546D02*
X90791Y104561D01*
X90750Y104565D01*
X90704Y104560D01*
X90654Y104545D01*
X90600Y104521D01*
X90541Y104487D01*
X90478Y104442D01*
X90410Y104388D01*
X90262Y104251D01*
X89855Y104410D01*
X89936Y104493D01*
X90062Y104641D01*
X90106Y104704D01*
X90139Y104761D01*
X90159Y104811D01*
X90166Y104854D01*
X90162Y104890D01*
X90146Y104920D01*
X90117Y104942D01*
X90828Y104546D01*
D02*
G37*
G36*
X62980Y105239D02*
X62976Y105197D01*
X62981Y105151D01*
X62996Y105101D01*
X63021Y105046D01*
X63055Y104988D01*
X63099Y104925D01*
X63152Y104858D01*
X63288Y104711D01*
X63141Y104292D01*
X63058Y104373D01*
X62912Y104497D01*
X62850Y104541D01*
X62794Y104572D01*
X62745Y104591D01*
X62703Y104598D01*
X62667Y104593D01*
X62639Y104576D01*
X62617Y104546D01*
X62993Y105277D01*
X62980Y105239D01*
D02*
G37*
G36*
X67967Y104976D02*
X67953Y104944D01*
X67951Y104905D01*
X67961Y104860D01*
X67983Y104808D01*
X68017Y104750D01*
X68063Y104686D01*
X68120Y104614D01*
X68271Y104452D01*
X67907Y104251D01*
X67828Y104327D01*
X67685Y104448D01*
X67621Y104493D01*
X67562Y104528D01*
X67508Y104552D01*
X67459Y104566D01*
X67415Y104570D01*
X67375Y104563D01*
X67341Y104546D01*
X67993Y105001D01*
X67967Y104976D01*
D02*
G37*
G36*
X57965Y104938D02*
X57950Y104908D01*
X57946Y104871D01*
X57955Y104827D01*
X57976Y104776D01*
X58009Y104719D01*
X58054Y104655D01*
X58112Y104584D01*
X58263Y104422D01*
X57867Y104251D01*
X57790Y104326D01*
X57650Y104444D01*
X57587Y104489D01*
X57528Y104523D01*
X57473Y104548D01*
X57424Y104562D01*
X57379Y104567D01*
X57338Y104561D01*
X57302Y104546D01*
X57993Y104962D01*
X57965Y104938D01*
D02*
G37*
G36*
X106858Y104542D02*
X106824Y104530D01*
X106794Y104509D01*
X106768Y104480D01*
X106746Y104443D01*
X106728Y104398D01*
X106714Y104344D01*
X106704Y104282D01*
X106698Y104212D01*
X106696Y104134D01*
X106296D01*
X106294Y104212D01*
X106288Y104282D01*
X106278Y104344D01*
X106264Y104398D01*
X106246Y104443D01*
X106224Y104480D01*
X106198Y104509D01*
X106168Y104530D01*
X106134Y104542D01*
X106096Y104546D01*
X106896D01*
X106858Y104542D01*
D02*
G37*
G36*
X77994Y104701D02*
X77998Y104677D01*
X78002Y104641D01*
X78009Y104454D01*
X78012Y104152D01*
X77612Y104134D01*
X77610Y104220D01*
X77604Y104295D01*
X77594Y104360D01*
X77580Y104414D01*
X77562Y104458D01*
X77540Y104491D01*
X77514Y104515D01*
X77484Y104528D01*
X77450Y104530D01*
X77412Y104522D01*
X77984Y104710D01*
X77989Y104712D01*
X77994Y104701D01*
D02*
G37*
G36*
X72994D02*
X72998Y104677D01*
X73002Y104641D01*
X73009Y104454D01*
X73012Y104152D01*
X72612Y104134D01*
X72610Y104220D01*
X72604Y104295D01*
X72594Y104360D01*
X72580Y104414D01*
X72562Y104458D01*
X72540Y104491D01*
X72514Y104515D01*
X72484Y104528D01*
X72450Y104530D01*
X72412Y104522D01*
X72984Y104710D01*
X72989Y104712D01*
X72994Y104701D01*
D02*
G37*
G36*
X46962Y104542D02*
X46928Y104530D01*
X46898Y104509D01*
X46872Y104480D01*
X46850Y104443D01*
X46832Y104398D01*
X46818Y104344D01*
X46808Y104282D01*
X46802Y104212D01*
X46800Y104134D01*
X46400D01*
X46398Y104212D01*
X46392Y104282D01*
X46382Y104344D01*
X46368Y104398D01*
X46350Y104443D01*
X46328Y104480D01*
X46302Y104509D01*
X46272Y104530D01*
X46238Y104542D01*
X46200Y104546D01*
X47000D01*
X46962Y104542D01*
D02*
G37*
G36*
X87997Y104702D02*
X88003Y104674D01*
X88008Y104631D01*
X88016Y104498D01*
X88022Y104044D01*
X87522Y104034D01*
X87520Y104139D01*
X87512Y104231D01*
X87499Y104311D01*
X87482Y104378D01*
X87460Y104433D01*
X87432Y104476D01*
X87400Y104506D01*
X87362Y104524D01*
X87320Y104529D01*
X87272Y104522D01*
X87984Y104710D01*
X87991Y104714D01*
X87997Y104702D01*
D02*
G37*
G36*
X65380Y102625D02*
X65439Y102583D01*
X65508Y102541D01*
X65589Y102500D01*
X65784Y102417D01*
X65899Y102375D01*
X66309Y102249D01*
X65087Y101567D01*
X65118Y101684D01*
X65139Y101795D01*
X65151Y101901D01*
X65153Y102000D01*
X65146Y102093D01*
X65130Y102179D01*
X65103Y102260D01*
X65068Y102335D01*
X65023Y102403D01*
X64968Y102465D01*
X65333Y102666D01*
X65380Y102625D01*
D02*
G37*
G36*
X102726Y104569D02*
X102617Y104529D01*
X102520Y104462D01*
X102437Y104367D01*
X102366Y104246D01*
X102308Y104097D01*
X102263Y103922D01*
X102231Y103720D01*
X102211Y103490D01*
X102208Y103366D01*
X102213Y103245D01*
X102235Y103041D01*
X102271Y102854D01*
X102323Y102683D01*
X102390Y102529D01*
X102471Y102391D01*
X102567Y102270D01*
X102677Y102165D01*
X102803Y102077D01*
X102943Y102005D01*
X100471Y101199D01*
X100554Y101349D01*
X100627Y101506D01*
X100692Y101670D01*
X100749Y101841D01*
X100797Y102018D01*
X100836Y102203D01*
X100888Y102592D01*
X100901Y102797D01*
X100905Y103009D01*
X101547Y103234D01*
X100905D01*
X100899Y103490D01*
X100879Y103720D01*
X100847Y103922D01*
X100802Y104097D01*
X100744Y104246D01*
X100673Y104367D01*
X100590Y104462D01*
X100493Y104529D01*
X100384Y104569D01*
X100262Y104583D01*
X102848D01*
X102726Y104569D01*
D02*
G37*
G36*
X69575Y100219D02*
X69557Y100205D01*
X69542Y100187D01*
X69529Y100163D01*
X69517Y100135D01*
X69508Y100102D01*
X69501Y100064D01*
X69495Y100021D01*
X69492Y99974D01*
X69491Y99921D01*
X69091D01*
X69090Y99974D01*
X69082Y100064D01*
X69075Y100102D01*
X69065Y100135D01*
X69054Y100163D01*
X69041Y100187D01*
X69025Y100205D01*
X69008Y100219D01*
X68988Y100228D01*
X69595D01*
X69575Y100219D01*
D02*
G37*
G36*
X67003Y100962D02*
X66920Y100367D01*
X66911Y100254D01*
X66900Y99928D01*
X66500Y99793D01*
X66495Y99881D01*
X66479Y99960D01*
X66453Y100031D01*
X66417Y100093D01*
X66371Y100147D01*
X66314Y100192D01*
X66247Y100228D01*
X66169Y100256D01*
X66082Y100276D01*
X65983Y100286D01*
X67027Y101087D01*
X67003Y100962D01*
D02*
G37*
G36*
X84675Y100255D02*
X84740Y100201D01*
X84769Y100182D01*
X84797Y100167D01*
X84823Y100156D01*
X84847Y100151D01*
X84869Y100150D01*
X84889Y100153D01*
X84908Y100162D01*
X84518Y99713D01*
X84523Y99733D01*
X84524Y99754D01*
X84520Y99778D01*
X84511Y99804D01*
X84498Y99832D01*
X84479Y99863D01*
X84456Y99895D01*
X84428Y99930D01*
X84357Y100006D01*
X84640Y100289D01*
X84675Y100255D01*
D02*
G37*
G36*
X69788Y99711D02*
X69840Y99667D01*
X69889Y99631D01*
X69937Y99603D01*
X69983Y99583D01*
X70026Y99571D01*
X70068Y99566D01*
X70107Y99569D01*
X70145Y99580D01*
X70180Y99598D01*
X69614Y99033D01*
X69633Y99068D01*
X69643Y99105D01*
X69647Y99145D01*
X69642Y99186D01*
X69629Y99230D01*
X69609Y99275D01*
X69581Y99323D01*
X69546Y99373D01*
X69502Y99425D01*
X69451Y99479D01*
X69734Y99762D01*
X69788Y99711D01*
D02*
G37*
G36*
X64290Y97500D02*
X64154Y97499D01*
X63909Y97480D01*
X63799Y97462D01*
X63699Y97439D01*
X63606Y97410D01*
X63523Y97376D01*
X63448Y97337D01*
X63382Y97292D01*
X63352Y97266D01*
X63312Y97219D01*
X63275Y97168D01*
X63245Y97119D01*
X63222Y97072D01*
X63206Y97027D01*
X63198Y96984D01*
X63196Y96943D01*
X63202Y96903D01*
X63215Y96866D01*
X62747Y97515D01*
X62778Y97492D01*
X62811Y97477D01*
X62848Y97470D01*
X62886Y97471D01*
X62927Y97481D01*
X62971Y97499D01*
X63017Y97526D01*
X63066Y97560D01*
X63092Y97582D01*
X63137Y97648D01*
X63176Y97723D01*
X63210Y97806D01*
X63239Y97899D01*
X63262Y97999D01*
X63280Y98109D01*
X63292Y98227D01*
X63300Y98490D01*
X64290Y97500D01*
D02*
G37*
G36*
X87841Y97782D02*
X87785Y97721D01*
X87736Y97652D01*
X87692Y97577D01*
X87655Y97495D01*
X87623Y97406D01*
X87598Y97310D01*
X87578Y97208D01*
X87564Y97099D01*
X87557Y96983D01*
X87555Y96860D01*
X86565Y97850D01*
X86688Y97852D01*
X86913Y97873D01*
X87015Y97893D01*
X87111Y97919D01*
X87199Y97950D01*
X87282Y97988D01*
X87357Y98031D01*
X87426Y98081D01*
X87487Y98136D01*
X87841Y97782D01*
D02*
G37*
G36*
X93778Y97826D02*
X93728Y97769D01*
X93683Y97702D01*
X93643Y97628D01*
X93609Y97544D01*
X93581Y97452D01*
X93558Y97351D01*
X93540Y97241D01*
X93528Y97123D01*
X93520Y96860D01*
X92530Y97850D01*
X92665Y97852D01*
X92911Y97871D01*
X93020Y97888D01*
X93121Y97911D01*
X93213Y97940D01*
X93297Y97974D01*
X93372Y98014D01*
X93438Y98058D01*
X93495Y98109D01*
X93778Y97826D01*
D02*
G37*
G36*
X79882Y97608D02*
X79948Y97563D01*
X80023Y97524D01*
X80106Y97490D01*
X80199Y97461D01*
X80299Y97438D01*
X80409Y97420D01*
X80527Y97408D01*
X80790Y97400D01*
X79800Y96410D01*
X79799Y96546D01*
X79780Y96791D01*
X79762Y96901D01*
X79739Y97001D01*
X79710Y97094D01*
X79676Y97177D01*
X79637Y97252D01*
X79592Y97318D01*
X79541Y97376D01*
X79824Y97658D01*
X79882Y97608D01*
D02*
G37*
G36*
X71933Y96099D02*
X71901Y96074D01*
X71872Y96044D01*
X71848Y96008D01*
X71827Y95964D01*
X71810Y95915D01*
X71797Y95859D01*
X71788Y95797D01*
X71782Y95729D01*
X71780Y95654D01*
X71380Y95588D01*
X71378Y95662D01*
X71372Y95729D01*
X71362Y95787D01*
X71348Y95839D01*
X71330Y95882D01*
X71308Y95918D01*
X71282Y95947D01*
X71251Y95967D01*
X71217Y95980D01*
X71179Y95986D01*
X71968Y96116D01*
X71933Y96099D01*
D02*
G37*
G36*
X89378Y95795D02*
X89393Y95716D01*
X89418Y95635D01*
X89453Y95552D01*
X89498Y95467D01*
X89553Y95379D01*
X89618Y95289D01*
X89693Y95197D01*
X89873Y95005D01*
X88473D01*
X88568Y95102D01*
X88728Y95289D01*
X88793Y95379D01*
X88848Y95467D01*
X88893Y95552D01*
X88928Y95635D01*
X88953Y95716D01*
X88968Y95795D01*
X88973Y95871D01*
X89373D01*
X89378Y95795D01*
D02*
G37*
G36*
X70494Y94611D02*
X70503Y94370D01*
X70517Y94262D01*
X70538Y94162D01*
X70564Y94070D01*
X70597Y93987D01*
X70636Y93912D01*
X70681Y93845D01*
X70732Y93786D01*
X70436Y93517D01*
X70380Y93566D01*
X70314Y93611D01*
X70240Y93651D01*
X70157Y93686D01*
X70064Y93717D01*
X69962Y93743D01*
X69851Y93764D01*
X69603Y93793D01*
X69464Y93801D01*
X70499Y94744D01*
X70494Y94611D01*
D02*
G37*
G36*
X103942Y92048D02*
X103948Y91980D01*
X103958Y91920D01*
X103972Y91866D01*
X103990Y91820D01*
X104012Y91780D01*
X104038Y91747D01*
X104068Y91722D01*
X104102Y91703D01*
X104140Y91691D01*
X103340D01*
X103378Y91703D01*
X103412Y91722D01*
X103442Y91747D01*
X103468Y91780D01*
X103490Y91820D01*
X103508Y91866D01*
X103522Y91920D01*
X103532Y91980D01*
X103538Y92048D01*
X103540Y92122D01*
X103940D01*
X103942Y92048D01*
D02*
G37*
G36*
X84260Y92252D02*
X84275Y92173D01*
X84300Y92092D01*
X84335Y92009D01*
X84380Y91924D01*
X84435Y91836D01*
X84500Y91746D01*
X84575Y91654D01*
X84755Y91462D01*
X83355D01*
X83450Y91559D01*
X83610Y91746D01*
X83675Y91836D01*
X83730Y91924D01*
X83775Y92009D01*
X83810Y92092D01*
X83835Y92173D01*
X83850Y92252D01*
X83855Y92328D01*
X84255D01*
X84260Y92252D01*
D02*
G37*
G36*
X65914Y92331D02*
X65863Y92273D01*
X65818Y92207D01*
X65779Y92132D01*
X65745Y92048D01*
X65718Y91956D01*
X65696Y91856D01*
X65679Y91746D01*
X65669Y91629D01*
X65665Y91368D01*
X64657Y92340D01*
X64794Y92344D01*
X65041Y92367D01*
X65151Y92386D01*
X65252Y92410D01*
X65345Y92439D01*
X65428Y92474D01*
X65503Y92514D01*
X65569Y92558D01*
X65626Y92608D01*
X65914Y92331D01*
D02*
G37*
G36*
X64655Y90340D02*
X64520Y90339D01*
X64274Y90320D01*
X64165Y90302D01*
X64064Y90279D01*
X63972Y90250D01*
X63888Y90216D01*
X63813Y90177D01*
X63747Y90132D01*
X63690Y90082D01*
X63407Y90364D01*
X63457Y90422D01*
X63502Y90488D01*
X63542Y90563D01*
X63576Y90646D01*
X63604Y90739D01*
X63627Y90839D01*
X63645Y90949D01*
X63657Y91067D01*
X63665Y91330D01*
X64655Y90340D01*
D02*
G37*
G36*
X66707Y88286D02*
X66656Y88232D01*
X66613Y88180D01*
X66577Y88130D01*
X66549Y88083D01*
X66530Y88038D01*
X66517Y87994D01*
X66513Y87953D01*
X66517Y87914D01*
X66528Y87877D01*
X66547Y87842D01*
X65971Y88397D01*
X66007Y88380D01*
X66044Y88369D01*
X66084Y88367D01*
X66126Y88372D01*
X66170Y88384D01*
X66215Y88405D01*
X66263Y88433D01*
X66313Y88469D01*
X66365Y88513D01*
X66419Y88564D01*
X66707Y88286D01*
D02*
G37*
G36*
X75153Y89240D02*
X75155Y89165D01*
X75160Y89101D01*
X75653D01*
X75558Y89004D01*
X75398Y88817D01*
X75333Y88727D01*
X75278Y88639D01*
X75233Y88554D01*
X75198Y88471D01*
X75173Y88390D01*
X75158Y88311D01*
X75153Y88235D01*
X74753D01*
X74748Y88311D01*
X74733Y88390D01*
X74708Y88471D01*
X74673Y88554D01*
X74628Y88639D01*
X74573Y88727D01*
X74508Y88817D01*
X74433Y88909D01*
X74253Y89101D01*
X74743D01*
X74745Y89113D01*
X74751Y89180D01*
X74753Y89254D01*
X75153Y89240D01*
D02*
G37*
G36*
X90105Y88217D02*
X90079Y88192D01*
X90056Y88158D01*
X90036Y88115D01*
X90019Y88061D01*
X90004Y87998D01*
X89992Y87924D01*
X89975Y87749D01*
X89971Y87647D01*
X89970Y87535D01*
X88770Y87766D01*
X88770Y87880D01*
X88739Y88379D01*
X88730Y88408D01*
X88721Y88426D01*
X90105Y88217D01*
D02*
G37*
G36*
X104102Y87825D02*
X104068Y87806D01*
X104038Y87780D01*
X104012Y87748D01*
X103990Y87708D01*
X103972Y87661D01*
X103958Y87608D01*
X103948Y87547D01*
X103942Y87480D01*
X103940Y87406D01*
X103540D01*
X103538Y87480D01*
X103532Y87547D01*
X103522Y87608D01*
X103508Y87661D01*
X103490Y87708D01*
X103468Y87748D01*
X103442Y87780D01*
X103412Y87806D01*
X103378Y87825D01*
X103340Y87836D01*
X104140D01*
X104102Y87825D01*
D02*
G37*
G36*
X20628Y87513D02*
X20578Y87443D01*
X20541Y87373D01*
X20518Y87303D01*
X20509Y87234D01*
X20514Y87166D01*
X20530Y87106D01*
X20555Y87093D01*
X20599Y87079D01*
X20636Y87076D01*
X20668Y87083D01*
X20694Y87101D01*
X20694Y87101D01*
X20694Y87101D01*
X20588Y86995D01*
X20609Y86964D01*
X20668Y86898D01*
X20345Y86752D01*
X20183Y86590D01*
X20183Y86590D01*
X20183Y86590D01*
X20200Y86616D01*
X20207Y86647D01*
X20204Y86685D01*
X20190Y86728D01*
X20166Y86778D01*
X20131Y86833D01*
X20110Y86862D01*
X20086Y86894D01*
X20065Y86919D01*
X19668Y87270D01*
X19578Y87340D01*
X19397Y87475D01*
X20691Y87584D01*
X20628Y87513D01*
D02*
G37*
G36*
X82206Y86571D02*
X82225Y86326D01*
X82243Y86216D01*
X82266Y86115D01*
X82294Y86023D01*
X82328Y85940D01*
X82368Y85865D01*
X82413Y85799D01*
X82463Y85741D01*
X82180Y85458D01*
X82123Y85509D01*
X82057Y85554D01*
X81982Y85593D01*
X81898Y85627D01*
X81806Y85656D01*
X81705Y85679D01*
X81596Y85697D01*
X81477Y85709D01*
X81215Y85717D01*
X82205Y86707D01*
X82206Y86571D01*
D02*
G37*
G36*
X76401Y85632D02*
X76388Y85596D01*
X76383Y85559D01*
X76386Y85519D01*
X76397Y85476D01*
X76415Y85432D01*
X76442Y85385D01*
X76477Y85335D01*
X76521Y85284D01*
X76572Y85230D01*
X76263Y84973D01*
X76209Y85024D01*
X76157Y85068D01*
X76106Y85105D01*
X76058Y85134D01*
X76011Y85156D01*
X75967Y85170D01*
X75924Y85177D01*
X75884Y85176D01*
X75845Y85168D01*
X75808Y85153D01*
X76423Y85665D01*
X76401Y85632D01*
D02*
G37*
G36*
X18416Y84949D02*
X18426Y84803D01*
X18887D01*
X18797Y84792D01*
X18717Y84757D01*
X18646Y84700D01*
X18585Y84620D01*
X18533Y84518D01*
X18494Y84404D01*
X18496Y84400D01*
X18515Y84376D01*
X18487D01*
X18457Y84244D01*
X18434Y84072D01*
X18420Y83878D01*
X18415Y83661D01*
X17215D01*
X17210Y83878D01*
X17173Y84244D01*
X17143Y84376D01*
X17115D01*
X17134Y84400D01*
X17136Y84404D01*
X17097Y84518D01*
X17045Y84620D01*
X16984Y84700D01*
X16913Y84757D01*
X16833Y84792D01*
X16743Y84803D01*
X17208D01*
X17214Y84949D01*
X17215Y85061D01*
X18415D01*
X18416Y84949D01*
D02*
G37*
G36*
X76789Y83122D02*
X76808Y82877D01*
X76825Y82767D01*
X76849Y82666D01*
X76877Y82574D01*
X76911Y82490D01*
X76951Y82416D01*
X76995Y82349D01*
X77046Y82292D01*
X76763Y82009D01*
X76706Y82060D01*
X76639Y82104D01*
X76565Y82144D01*
X76481Y82178D01*
X76389Y82207D01*
X76288Y82230D01*
X76178Y82247D01*
X76060Y82260D01*
X75797Y82268D01*
X76787Y83258D01*
X76789Y83122D01*
D02*
G37*
G36*
X105549Y81054D02*
X105498Y81000D01*
X105455Y80948D01*
X105419Y80898D01*
X105391Y80850D01*
X105371Y80805D01*
X105358Y80761D01*
X105353Y80720D01*
X105357Y80680D01*
X105367Y80643D01*
X105386Y80608D01*
X104820Y81173D01*
X104855Y81155D01*
X104893Y81144D01*
X104932Y81141D01*
X104974Y81146D01*
X105017Y81158D01*
X105063Y81178D01*
X105111Y81206D01*
X105160Y81242D01*
X105212Y81285D01*
X105266Y81337D01*
X105549Y81054D01*
D02*
G37*
G36*
X22512Y81730D02*
X22502Y81694D01*
X22503Y81652D01*
X22516Y81604D01*
X22540Y81551D01*
X22575Y81491D01*
X22621Y81426D01*
X22679Y81355D01*
X22829Y81194D01*
X22546Y80911D01*
X22463Y80992D01*
X22314Y81119D01*
X22249Y81165D01*
X22189Y81200D01*
X22136Y81224D01*
X22088Y81237D01*
X22046Y81238D01*
X22010Y81228D01*
X21980Y81206D01*
X22534Y81760D01*
X22512Y81730D01*
D02*
G37*
G36*
X99760Y81347D02*
X99768Y81321D01*
X99813D01*
X99814Y81208D01*
X99838Y80856D01*
X99849Y80792D01*
X99862Y80738D01*
X99877Y80694D01*
X99894Y80660D01*
X99913Y80635D01*
X99808D01*
X99813Y80096D01*
X98613D01*
X98607Y80330D01*
X98589Y80539D01*
X98573Y80635D01*
X98513D01*
X98532Y80660D01*
X98549Y80694D01*
X98559Y80724D01*
X98517Y80883D01*
X98464Y81017D01*
X98398Y81126D01*
X98321Y81211D01*
X98232Y81270D01*
X98130Y81305D01*
X98017Y81315D01*
X99748Y81355D01*
X99760Y81347D01*
D02*
G37*
G36*
X30642Y80821D02*
X30705Y80774D01*
X30771Y80734D01*
X30840Y80702D01*
X30913Y80677D01*
X30989Y80659D01*
X31068Y80649D01*
X31150Y80647D01*
X31236Y80651D01*
X31324Y80663D01*
X30511Y79850D01*
X30523Y79939D01*
X30528Y80024D01*
X30525Y80106D01*
X30515Y80186D01*
X30497Y80261D01*
X30472Y80334D01*
X30440Y80403D01*
X30400Y80470D01*
X30354Y80532D01*
X30299Y80592D01*
X30582Y80875D01*
X30642Y80821D01*
D02*
G37*
G36*
X63029Y79085D02*
X62978Y79031D01*
X62935Y78979D01*
X62899Y78929D01*
X62871Y78882D01*
X62851Y78836D01*
X62839Y78793D01*
X62834Y78751D01*
X62837Y78712D01*
X62848Y78674D01*
X62866Y78639D01*
X62300Y79205D01*
X62336Y79186D01*
X62373Y79176D01*
X62412Y79172D01*
X62454Y79177D01*
X62497Y79190D01*
X62543Y79210D01*
X62591Y79238D01*
X62641Y79273D01*
X62693Y79317D01*
X62747Y79368D01*
X63029Y79085D01*
D02*
G37*
G36*
X59171Y79016D02*
X59011Y78829D01*
X58946Y78739D01*
X58891Y78651D01*
X58846Y78566D01*
X58811Y78483D01*
X58786Y78402D01*
X58771Y78323D01*
X58766Y78247D01*
X58366D01*
X58361Y78323D01*
X58346Y78402D01*
X58321Y78483D01*
X58286Y78566D01*
X58241Y78651D01*
X58186Y78739D01*
X58121Y78829D01*
X58046Y78921D01*
X57866Y79113D01*
X59266D01*
X59171Y79016D01*
D02*
G37*
G36*
X73528Y78726D02*
X73580Y78683D01*
X73630Y78647D01*
X73677Y78619D01*
X73723Y78599D01*
X73767Y78587D01*
X73808Y78582D01*
X73847Y78585D01*
X73885Y78596D01*
X73920Y78614D01*
X73354Y78049D01*
X73373Y78084D01*
X73384Y78121D01*
X73387Y78160D01*
X73382Y78202D01*
X73369Y78246D01*
X73349Y78291D01*
X73321Y78339D01*
X73286Y78389D01*
X73242Y78441D01*
X73191Y78495D01*
X73474Y78777D01*
X73528Y78726D01*
D02*
G37*
G36*
X102660Y77882D02*
X102625Y77900D01*
X102588Y77911D01*
X102548Y77914D01*
X102507Y77909D01*
X102463Y77897D01*
X102418Y77877D01*
X102370Y77849D01*
X102320Y77813D01*
X102268Y77770D01*
X102214Y77719D01*
X101931Y78001D01*
X101982Y78055D01*
X102026Y78107D01*
X102061Y78157D01*
X102089Y78205D01*
X102110Y78251D01*
X102122Y78294D01*
X102127Y78336D01*
X102124Y78375D01*
X102113Y78412D01*
X102094Y78448D01*
X102660Y77882D01*
D02*
G37*
G36*
X28730Y78134D02*
X28594Y78132D01*
X28349Y78113D01*
X28240Y78096D01*
X28139Y78073D01*
X28046Y78044D01*
X27963Y78010D01*
X27888Y77970D01*
X27822Y77926D01*
X27764Y77875D01*
X27482Y78158D01*
X27532Y78215D01*
X27577Y78282D01*
X27616Y78356D01*
X27650Y78440D01*
X27679Y78532D01*
X27702Y78633D01*
X27720Y78743D01*
X27732Y78861D01*
X27740Y79124D01*
X28730Y78134D01*
D02*
G37*
G36*
X96146Y76178D02*
X96061Y76090D01*
X95928Y75936D01*
X95880Y75869D01*
X95845Y75809D01*
X95821Y75756D01*
X95810Y75710D01*
X95812Y75670D01*
X95825Y75638D01*
X95851Y75612D01*
X95199Y76067D01*
X95233Y76050D01*
X95272Y76043D01*
X95317Y76047D01*
X95366Y76061D01*
X95420Y76085D01*
X95479Y76120D01*
X95543Y76165D01*
X95612Y76220D01*
X95764Y76362D01*
X96146Y76178D01*
D02*
G37*
G36*
X19601Y76453D02*
X19441Y76266D01*
X19376Y76176D01*
X19321Y76088D01*
X19276Y76003D01*
X19241Y75920D01*
X19216Y75839D01*
X19201Y75760D01*
X19196Y75684D01*
X18796D01*
X18791Y75760D01*
X18776Y75839D01*
X18751Y75920D01*
X18716Y76003D01*
X18671Y76088D01*
X18616Y76176D01*
X18551Y76266D01*
X18476Y76358D01*
X18296Y76550D01*
X19696D01*
X19601Y76453D01*
D02*
G37*
G36*
X29734Y76429D02*
X29753Y76184D01*
X29770Y76074D01*
X29793Y75973D01*
X29822Y75881D01*
X29856Y75798D01*
X29895Y75723D01*
X29940Y75657D01*
X29991Y75599D01*
X29708Y75316D01*
X29651Y75367D01*
X29584Y75412D01*
X29509Y75451D01*
X29426Y75485D01*
X29334Y75514D01*
X29233Y75537D01*
X29123Y75555D01*
X29005Y75567D01*
X28742Y75575D01*
X29732Y76565D01*
X29734Y76429D01*
D02*
G37*
G36*
X24201Y76002D02*
X24193Y75883D01*
X24192Y75770D01*
X24199Y75665D01*
X24213Y75568D01*
X24236Y75478D01*
X24265Y75395D01*
X24303Y75320D01*
X24348Y75252D01*
X24401Y75192D01*
X24077Y74950D01*
X24024Y74997D01*
X23961Y75041D01*
X23888Y75082D01*
X23805Y75120D01*
X23712Y75155D01*
X23609Y75187D01*
X23373Y75244D01*
X23241Y75267D01*
X23098Y75288D01*
X24217Y76130D01*
X24201Y76002D01*
D02*
G37*
G36*
X14575Y75519D02*
X14590Y75441D01*
X14615Y75360D01*
X14650Y75277D01*
X14695Y75191D01*
X14750Y75104D01*
X14815Y75014D01*
X14890Y74921D01*
X15070Y74730D01*
X13670D01*
X13765Y74827D01*
X13925Y75014D01*
X13990Y75104D01*
X14045Y75191D01*
X14090Y75277D01*
X14125Y75360D01*
X14150Y75441D01*
X14165Y75519D01*
X14170Y75596D01*
X14570D01*
X14575Y75519D01*
D02*
G37*
G36*
X75362Y75029D02*
X75328Y75011D01*
X75298Y74985D01*
X75272Y74952D01*
X75250Y74913D01*
X75232Y74866D01*
X75218Y74813D01*
X75208Y74752D01*
X75202Y74685D01*
X75200Y74610D01*
X74800D01*
X74798Y74685D01*
X74792Y74752D01*
X74782Y74813D01*
X74768Y74866D01*
X74750Y74913D01*
X74728Y74952D01*
X74702Y74985D01*
X74672Y75011D01*
X74638Y75029D01*
X74600Y75041D01*
X75400D01*
X75362Y75029D01*
D02*
G37*
G36*
X62589Y73330D02*
X62509Y73247D01*
X62382Y73098D01*
X62335Y73033D01*
X62300Y72974D01*
X62277Y72920D01*
X62264Y72872D01*
X62263Y72830D01*
X62273Y72794D01*
X62294Y72764D01*
X61741Y73318D01*
X61771Y73297D01*
X61807Y73286D01*
X61848Y73288D01*
X61896Y73300D01*
X61950Y73324D01*
X62009Y73359D01*
X62075Y73406D01*
X62146Y73463D01*
X62306Y73613D01*
X62589Y73330D01*
D02*
G37*
G36*
X60209Y73541D02*
X60346Y73426D01*
X60409Y73382D01*
X60467Y73348D01*
X60522Y73323D01*
X60572Y73308D01*
X60619Y73302D01*
X60662Y73305D01*
X60700Y73318D01*
X59950Y72961D01*
X59980Y72982D01*
X59998Y73010D01*
X60003Y73046D01*
X59996Y73088D01*
X59976Y73138D01*
X59944Y73195D01*
X59899Y73259D01*
X59841Y73330D01*
X59688Y73493D01*
X60135Y73613D01*
X60209Y73541D01*
D02*
G37*
G36*
X93852Y73485D02*
X93835Y73456D01*
X93831Y73419D01*
X93841Y73374D01*
X93863Y73322D01*
X93898Y73263D01*
X93947Y73195D01*
X94008Y73120D01*
X94170Y72948D01*
X93702Y72850D01*
X93627Y72922D01*
X93490Y73038D01*
X93427Y73081D01*
X93369Y73116D01*
X93314Y73140D01*
X93264Y73156D01*
X93217Y73162D01*
X93174Y73158D01*
X93136Y73145D01*
X93882Y73506D01*
X93852Y73485D01*
D02*
G37*
G36*
X91678Y73141D02*
X91648Y73130D01*
X91623Y73111D01*
X91600Y73084D01*
X91581Y73049D01*
X91566Y73007D01*
X91554Y72957D01*
X91545Y72900D01*
X91540Y72834D01*
X91539Y72761D01*
X91138D01*
X91137Y72834D01*
X91132Y72900D01*
X91123Y72957D01*
X91111Y73007D01*
X91096Y73049D01*
X91077Y73084D01*
X91054Y73111D01*
X91029Y73130D01*
X91000Y73141D01*
X90967Y73145D01*
X91710D01*
X91678Y73141D01*
D02*
G37*
G36*
X23923Y72888D02*
X23791Y72695D01*
X23737Y72601D01*
X23691Y72510D01*
X23654Y72421D01*
X23625Y72335D01*
X23604Y72251D01*
X23592Y72168D01*
X23587Y72089D01*
X23087Y72032D01*
X23083Y72117D01*
X23068Y72201D01*
X23044Y72285D01*
X23011Y72366D01*
X22968Y72447D01*
X22916Y72527D01*
X22854Y72606D01*
X22782Y72684D01*
X22701Y72760D01*
X22610Y72836D01*
X24002Y72988D01*
X23923Y72888D01*
D02*
G37*
G36*
X89971Y72550D02*
X89991Y72282D01*
X90004Y72215D01*
X90018Y72160D01*
X90036Y72116D01*
X90056Y72083D01*
X90078Y72062D01*
X90104Y72053D01*
X88991Y71309D01*
X88770Y72470D01*
X89970Y72663D01*
X89971Y72550D01*
D02*
G37*
G36*
X91802Y71573D02*
X91818Y71421D01*
X91832Y71363D01*
X91850Y71316D01*
X91872Y71281D01*
X91898Y71257D01*
X91928Y71244D01*
X91962Y71244D01*
X92000Y71254D01*
X91441Y71024D01*
X91433Y71012D01*
X91426Y71016D01*
X91420Y71037D01*
X91415Y71074D01*
X91410Y71126D01*
X91400Y71499D01*
X91400Y71632D01*
X91800Y71666D01*
X91802Y71573D01*
D02*
G37*
G36*
X61484Y71363D02*
X61450Y71351D01*
X61420Y71330D01*
X61394Y71301D01*
X61372Y71264D01*
X61354Y71219D01*
X61340Y71165D01*
X61330Y71103D01*
X61324Y71033D01*
X61322Y70955D01*
X60922D01*
X60920Y71033D01*
X60914Y71103D01*
X60904Y71165D01*
X60890Y71219D01*
X60872Y71264D01*
X60850Y71301D01*
X60824Y71330D01*
X60794Y71351D01*
X60760Y71363D01*
X60722Y71367D01*
X61522D01*
X61484Y71363D01*
D02*
G37*
G36*
X98372Y70097D02*
X98354Y70110D01*
X98326Y70122D01*
X98286Y70133D01*
X98236Y70142D01*
X98176Y70150D01*
X98023Y70161D01*
X97714Y70168D01*
Y71368D01*
X97828Y71368D01*
X98236Y71393D01*
X98286Y71402D01*
X98326Y71413D01*
X98354Y71425D01*
X98372Y71438D01*
Y70097D01*
D02*
G37*
G36*
X61324Y69614D02*
X61330Y69547D01*
X61340Y69487D01*
X61354Y69434D01*
X61372Y69389D01*
X61395Y69350D01*
X61421Y69319D01*
X61451Y69295D01*
X61485Y69278D01*
X61524Y69268D01*
X60725Y69228D01*
X60762Y69241D01*
X60796Y69262D01*
X60825Y69289D01*
X60851Y69323D01*
X60873Y69364D01*
X60891Y69411D01*
X60904Y69465D01*
X60914Y69526D01*
X60920Y69594D01*
X60922Y69669D01*
X61322Y69689D01*
X61324Y69614D01*
D02*
G37*
G36*
X77528Y70010D02*
X77475Y69949D01*
X77430Y69881D01*
X77393Y69806D01*
X77364Y69723D01*
X77343Y69634D01*
X77330Y69538D01*
X77326Y69434D01*
X77330Y69323D01*
X77341Y69205D01*
X77361Y69080D01*
X76215Y69884D01*
X76359Y69910D01*
X76730Y70001D01*
X76833Y70035D01*
X76925Y70072D01*
X77008Y70111D01*
X77081Y70152D01*
X77143Y70196D01*
X77195Y70242D01*
X77528Y70010D01*
D02*
G37*
G36*
X99914Y70440D02*
X99923Y70324D01*
X99938Y70221D01*
X99959Y70131D01*
X99986Y70055D01*
X100020Y69993D01*
X100059Y69945D01*
X100104Y69910D01*
X100155Y69889D01*
X100212Y69882D01*
X99914Y69731D01*
X99911Y69564D01*
X99231Y69387D01*
X98606Y69072D01*
X98626Y69112D01*
X98644Y69172D01*
X98659Y69253D01*
X98673Y69355D01*
X98692Y69593D01*
X98688Y69641D01*
X98675Y69714D01*
X98660Y69777D01*
X98641Y69830D01*
X98620Y69873D01*
X98595Y69906D01*
X98568Y69930D01*
X98701Y69956D01*
X98711Y70405D01*
X99911Y70571D01*
X99914Y70440D01*
D02*
G37*
G36*
X93782Y69420D02*
X93772Y69384D01*
X93773Y69343D01*
X93785Y69295D01*
X93809Y69241D01*
X93844Y69182D01*
X93891Y69116D01*
X93949Y69045D01*
X94099Y68884D01*
X93809Y68608D01*
X93726Y68688D01*
X93578Y68815D01*
X93513Y68861D01*
X93453Y68896D01*
X93400Y68920D01*
X93352Y68933D01*
X93310Y68934D01*
X93274Y68924D01*
X93243Y68903D01*
X93804Y69450D01*
X93782Y69420D01*
D02*
G37*
G36*
X78254Y67101D02*
X78263Y67030D01*
X78278Y66962D01*
X78299Y66900D01*
X78326Y66841D01*
X78359Y66787D01*
X78398Y66737D01*
X78443Y66692D01*
X78494Y66651D01*
X78551Y66614D01*
X77551D01*
X77608Y66651D01*
X77659Y66692D01*
X77704Y66737D01*
X77743Y66787D01*
X77776Y66841D01*
X77803Y66900D01*
X77824Y66962D01*
X77839Y67030D01*
X77848Y67101D01*
X77851Y67177D01*
X78251D01*
X78254Y67101D01*
D02*
G37*
G36*
X83085Y66807D02*
X82925Y66620D01*
X82860Y66530D01*
X82805Y66443D01*
X82760Y66357D01*
X82725Y66274D01*
X82700Y66193D01*
X82685Y66115D01*
X82680Y66038D01*
X82280D01*
X82275Y66115D01*
X82260Y66193D01*
X82235Y66274D01*
X82200Y66357D01*
X82155Y66443D01*
X82100Y66530D01*
X82035Y66620D01*
X81960Y66712D01*
X81780Y66904D01*
X83180D01*
X83085Y66807D01*
D02*
G37*
G36*
X29340Y66587D02*
X29359Y66341D01*
X29377Y66232D01*
X29400Y66131D01*
X29428Y66039D01*
X29462Y65955D01*
X29502Y65880D01*
X29547Y65814D01*
X29597Y65756D01*
X29314Y65474D01*
X29257Y65524D01*
X29191Y65569D01*
X29116Y65609D01*
X29032Y65642D01*
X28940Y65671D01*
X28839Y65694D01*
X28730Y65712D01*
X28611Y65724D01*
X28348Y65732D01*
X29338Y66722D01*
X29340Y66587D01*
D02*
G37*
G36*
X76578Y65642D02*
X76582Y65581D01*
X76593Y65512D01*
X76612Y65434D01*
X76639Y65348D01*
X76716Y65149D01*
X76824Y64916D01*
X76962Y64649D01*
X75625Y65062D01*
X75730Y65121D01*
X75824Y65182D01*
X75907Y65245D01*
X75979Y65312D01*
X76039Y65381D01*
X76089Y65453D01*
X76128Y65528D01*
X76156Y65606D01*
X76172Y65686D01*
X76178Y65769D01*
X76578Y65642D01*
D02*
G37*
G36*
X78656Y64937D02*
X78496Y64750D01*
X78431Y64660D01*
X78376Y64572D01*
X78331Y64487D01*
X78296Y64404D01*
X78271Y64323D01*
X78256Y64245D01*
X78251Y64168D01*
X77851D01*
X77846Y64245D01*
X77831Y64323D01*
X77806Y64404D01*
X77771Y64487D01*
X77726Y64572D01*
X77671Y64660D01*
X77606Y64750D01*
X77531Y64842D01*
X77351Y65034D01*
X78751D01*
X78656Y64937D01*
D02*
G37*
G36*
X29351Y64177D02*
X29436Y63808D01*
X29470Y63705D01*
X29506Y63612D01*
X29545Y63529D01*
X29586Y63456D01*
X29629Y63393D01*
X29676Y63341D01*
X29439Y63012D01*
X29378Y63065D01*
X29310Y63110D01*
X29235Y63147D01*
X29153Y63177D01*
X29063Y63198D01*
X28966Y63212D01*
X28862Y63218D01*
X28750Y63215D01*
X28632Y63205D01*
X28506Y63187D01*
X29328Y64320D01*
X29351Y64177D01*
D02*
G37*
G36*
X76679Y63370D02*
X76578Y63291D01*
X76487Y63212D01*
X76407Y63133D01*
X76338Y63053D01*
X76280Y62974D01*
X76232Y62894D01*
X76194Y62815D01*
X76168Y62735D01*
X76152Y62655D01*
X76147Y62575D01*
X75747Y62631D01*
X75742Y62702D01*
X75728Y62778D01*
X75706Y62859D01*
X75674Y62945D01*
X75633Y63035D01*
X75583Y63130D01*
X75456Y63336D01*
X75378Y63446D01*
X75292Y63561D01*
X76679Y63370D01*
D02*
G37*
G36*
X28328Y60614D02*
X28193Y60613D01*
X27948Y60594D01*
X27838Y60576D01*
X27737Y60553D01*
X27645Y60524D01*
X27561Y60490D01*
X27487Y60451D01*
X27420Y60406D01*
X27363Y60356D01*
X27080Y60638D01*
X27130Y60696D01*
X27175Y60762D01*
X27215Y60837D01*
X27249Y60920D01*
X27277Y61013D01*
X27301Y61114D01*
X27318Y61223D01*
X27330Y61341D01*
X27339Y61604D01*
X28328Y60614D01*
D02*
G37*
G36*
X79928Y59508D02*
X79933Y59439D01*
X79946Y59364D01*
X79968Y59283D01*
X79999Y59197D01*
X80039Y59106D01*
X80088Y59009D01*
X80212Y58798D01*
X80287Y58685D01*
X80371Y58566D01*
X78991Y58798D01*
X79093Y58873D01*
X79184Y58949D01*
X79265Y59026D01*
X79335Y59103D01*
X79394Y59180D01*
X79442Y59259D01*
X79480Y59337D01*
X79507Y59417D01*
X79523Y59497D01*
X79528Y59577D01*
X79928Y59508D01*
D02*
G37*
G36*
X73040Y58984D02*
X73054Y58905D01*
X73080Y58824D01*
X73115Y58741D01*
X73159Y58656D01*
X73215Y58568D01*
X73280Y58478D01*
X73355Y58386D01*
X73535Y58194D01*
X72135D01*
X72229Y58291D01*
X72390Y58478D01*
X72455Y58568D01*
X72509Y58656D01*
X72554Y58741D01*
X72589Y58824D01*
X72615Y58905D01*
X72629Y58984D01*
X72635Y59060D01*
X73035D01*
X73040Y58984D01*
D02*
G37*
G36*
X70245Y57310D02*
X70218Y57283D01*
X70117Y57169D01*
X70111Y57160D01*
X70108Y57152D01*
X70109Y57148D01*
X69800Y57457D01*
X69805Y57456D01*
X69812Y57459D01*
X69821Y57465D01*
X69834Y57474D01*
X69866Y57501D01*
X69934Y57566D01*
X69963Y57593D01*
X70245Y57310D01*
D02*
G37*
G36*
X84282Y57806D02*
X84288Y57735D01*
X84298Y57672D01*
X84312Y57617D01*
X84330Y57572D01*
X84352Y57535D01*
X84378Y57507D01*
X84408Y57487D01*
X84442Y57477D01*
X84480Y57475D01*
X83685Y57426D01*
X83722Y57433D01*
X83755Y57449D01*
X83785Y57473D01*
X83810Y57506D01*
X83832Y57547D01*
X83849Y57598D01*
X83863Y57657D01*
X83872Y57725D01*
X83878Y57801D01*
X83880Y57887D01*
X84280D01*
X84282Y57806D01*
D02*
G37*
G36*
X88892Y58346D02*
X88930Y57981D01*
X88959Y57849D01*
X88987D01*
X88968Y57824D01*
X88967Y57821D01*
X89005Y57707D01*
X89057Y57604D01*
X89118Y57524D01*
X89189Y57467D01*
X89269Y57433D01*
X89359Y57421D01*
X88894D01*
X88888Y57276D01*
X88887Y57163D01*
X87687D01*
X87686Y57276D01*
X87677Y57421D01*
X87216D01*
X87305Y57433D01*
X87386Y57467D01*
X87456Y57524D01*
X87518Y57604D01*
X87569Y57707D01*
X87608Y57821D01*
X87606Y57824D01*
X87587Y57849D01*
X87616D01*
X87645Y57981D01*
X87669Y58152D01*
X87683Y58346D01*
X87687Y58563D01*
X88887D01*
X88892Y58346D01*
D02*
G37*
G36*
X80504Y57611D02*
X80486Y57497D01*
X80477Y57390D01*
X80477Y57289D01*
X80487Y57195D01*
X80505Y57107D01*
X80532Y57026D01*
X80568Y56951D01*
X80613Y56883D01*
X80667Y56821D01*
X80313Y56608D01*
X80264Y56652D01*
X80205Y56694D01*
X80134Y56736D01*
X80052Y56776D01*
X79960Y56816D01*
X79742Y56894D01*
X79482Y56968D01*
X79335Y57004D01*
X80531Y57731D01*
X80504Y57611D01*
D02*
G37*
G36*
X73613Y56836D02*
X73570Y56749D01*
X73540Y56664D01*
X73523Y56581D01*
X73518Y56502D01*
X73525Y56425D01*
X73545Y56352D01*
X73577Y56281D01*
X73622Y56213D01*
X73679Y56148D01*
X73204Y56057D01*
X73164Y56095D01*
X73114Y56136D01*
X72984Y56230D01*
X72814Y56339D01*
X72354Y56603D01*
X73668Y56927D01*
X73613Y56836D01*
D02*
G37*
G36*
X71439Y56428D02*
X71455Y56349D01*
X71480Y56268D01*
X71515Y56185D01*
X71561Y56101D01*
X71616Y56014D01*
X71682Y55925D01*
X71758Y55835D01*
X71939Y55647D01*
X70540Y55623D01*
X70634Y55722D01*
X70792Y55913D01*
X70856Y56004D01*
X70911Y56093D01*
X70955Y56179D01*
X70990Y56262D01*
X71015Y56343D01*
X71030Y56422D01*
X71034Y56497D01*
X71434Y56504D01*
X71439Y56428D01*
D02*
G37*
G36*
X70123Y56072D02*
X69882Y55390D01*
X69865Y55316D01*
X69855Y55254D01*
X69852Y55203D01*
X69452Y55030D01*
X69446Y55115D01*
X69430Y55195D01*
X69402Y55270D01*
X69363Y55342D01*
X69313Y55409D01*
X69252Y55473D01*
X69179Y55532D01*
X69096Y55586D01*
X69001Y55637D01*
X68896Y55683D01*
X70187Y56225D01*
X70123Y56072D01*
D02*
G37*
G36*
X66798Y55932D02*
X66864Y55888D01*
X66939Y55848D01*
X67023Y55814D01*
X67115Y55785D01*
X67216Y55762D01*
X67326Y55745D01*
X67444Y55732D01*
X67706Y55724D01*
X66716Y54734D01*
X66715Y54870D01*
X66696Y55115D01*
X66678Y55225D01*
X66655Y55326D01*
X66627Y55418D01*
X66593Y55502D01*
X66553Y55576D01*
X66508Y55642D01*
X66458Y55700D01*
X66741Y55983D01*
X66798Y55932D01*
D02*
G37*
G36*
X64183Y55595D02*
X64250Y55550D01*
X64325Y55512D01*
X64408Y55480D01*
X64500Y55455D01*
X64599Y55436D01*
X64706Y55425D01*
X64822Y55420D01*
X64945Y55421D01*
X65076Y55429D01*
X64164Y54368D01*
X64152Y54507D01*
X64117Y54758D01*
X64093Y54870D01*
X64065Y54972D01*
X64033Y55065D01*
X63996Y55148D01*
X63956Y55222D01*
X63911Y55287D01*
X63863Y55343D01*
X64124Y55647D01*
X64183Y55595D01*
D02*
G37*
G36*
X84903Y97737D02*
X85236Y97397D01*
X85128Y96850D01*
X85236Y96304D01*
X85546Y95841D01*
X86009Y95532D01*
X86555Y95423D01*
X87101Y95532D01*
X87564Y95841D01*
X87874Y96304D01*
X87968Y96779D01*
X88026Y96885D01*
X88524Y96644D01*
Y95793D01*
X88521Y95784D01*
X88502Y95738D01*
X88473Y95683D01*
X88434Y95621D01*
X88388Y95557D01*
X88249Y95395D01*
X88164Y95309D01*
X88156Y95289D01*
X87854Y94837D01*
X87746Y94291D01*
X87854Y93745D01*
X88164Y93282D01*
X88627Y92972D01*
X89173Y92864D01*
X89419Y92403D01*
X87461Y90445D01*
X87270Y89986D01*
Y70742D01*
X87461Y70283D01*
X93951Y63792D01*
Y55048D01*
X92711Y53809D01*
X92249Y54001D01*
Y60226D01*
X92059Y60685D01*
X91349Y61395D01*
Y64920D01*
X91159Y65379D01*
X86587Y69951D01*
Y86603D01*
X86397Y87062D01*
X84517Y88942D01*
X84683Y89483D01*
X85065Y89739D01*
X85374Y90202D01*
X85483Y90748D01*
X85374Y91294D01*
X85080Y91735D01*
X85071Y91759D01*
X84901Y91939D01*
X84844Y92009D01*
X84794Y92078D01*
X84756Y92140D01*
X84727Y92194D01*
X84707Y92241D01*
X84705Y92250D01*
Y95914D01*
X84514Y96373D01*
X84349Y96539D01*
Y97424D01*
X84846Y97758D01*
X84903Y97737D01*
D02*
G37*
G36*
X72253Y54776D02*
X72272Y54530D01*
X72290Y54421D01*
X72313Y54320D01*
X72342Y54228D01*
X72376Y54144D01*
X72415Y54069D01*
X72460Y54003D01*
X72510Y53945D01*
X72228Y53663D01*
X72170Y53713D01*
X72104Y53758D01*
X72029Y53798D01*
X71946Y53831D01*
X71853Y53860D01*
X71752Y53883D01*
X71643Y53901D01*
X71525Y53913D01*
X71262Y53921D01*
X72252Y54911D01*
X72253Y54776D01*
D02*
G37*
G36*
X83640Y54146D02*
X83788Y54019D01*
X83854Y53973D01*
X83913Y53938D01*
X83967Y53914D01*
X84014Y53901D01*
X84056Y53900D01*
X84092Y53910D01*
X84122Y53931D01*
X83569Y53378D01*
X83590Y53408D01*
X83600Y53444D01*
X83599Y53486D01*
X83586Y53533D01*
X83562Y53587D01*
X83527Y53646D01*
X83481Y53712D01*
X83423Y53783D01*
X83274Y53944D01*
X83556Y54226D01*
X83640Y54146D01*
D02*
G37*
G36*
X68577Y54194D02*
X68543Y54094D01*
X68521Y53998D01*
X68510Y53907D01*
X68510Y53821D01*
X68521Y53739D01*
X68543Y53662D01*
X68577Y53589D01*
X68622Y53520D01*
X68678Y53456D01*
X68261Y53307D01*
X68223Y53341D01*
X68172Y53378D01*
X68109Y53419D01*
X67946Y53512D01*
X67607Y53678D01*
X67318Y53807D01*
X68621Y54298D01*
X68577Y54194D01*
D02*
G37*
G36*
X66071Y53993D02*
X66046Y53885D01*
X66031Y53782D01*
X66026Y53686D01*
X66031Y53594D01*
X66045Y53509D01*
X66070Y53429D01*
X66105Y53355D01*
X66150Y53287D01*
X66205Y53224D01*
X65825Y53038D01*
X65781Y53077D01*
X65725Y53117D01*
X65658Y53158D01*
X65578Y53201D01*
X65384Y53290D01*
X65142Y53383D01*
X64854Y53482D01*
X66107Y54107D01*
X66071Y53993D01*
D02*
G37*
G36*
X58417Y53002D02*
X58395Y53104D01*
X58366Y53196D01*
X58330Y53276D01*
X58286Y53346D01*
X58236Y53406D01*
X58178Y53454D01*
X58113Y53492D01*
X58040Y53519D01*
X57961Y53535D01*
X57874Y53540D01*
X58165Y53940D01*
X58221Y53942D01*
X58286Y53948D01*
X58444Y53971D01*
X58751Y54036D01*
X59141Y54136D01*
X58417Y53002D01*
D02*
G37*
G36*
X61304Y53943D02*
X61355Y53906D01*
X61418Y53865D01*
X61581Y53772D01*
X61919Y53604D01*
X62206Y53474D01*
X60901Y52991D01*
X60947Y53095D01*
X60981Y53195D01*
X61003Y53290D01*
X61015Y53380D01*
X61015Y53466D01*
X61004Y53548D01*
X60982Y53625D01*
X60948Y53698D01*
X60903Y53767D01*
X60847Y53830D01*
X61266Y53977D01*
X61304Y53943D01*
D02*
G37*
G36*
X85846Y51630D02*
X85834Y51612D01*
X85822Y51587D01*
X85812Y51556D01*
X85804Y51516D01*
X85797Y51469D01*
X85788Y51354D01*
X85785Y51208D01*
X85385Y51168D01*
X85383Y51250D01*
X85377Y51322D01*
X85367Y51386D01*
X85353Y51440D01*
X85335Y51486D01*
X85313Y51523D01*
X85287Y51551D01*
X85257Y51569D01*
X85223Y51579D01*
X85185Y51580D01*
X85861Y51639D01*
X85846Y51630D01*
D02*
G37*
G36*
X90050Y51381D02*
X89996Y51319D01*
X89951Y51251D01*
X89915Y51176D01*
X89889Y51096D01*
X89873Y51009D01*
X89866Y50916D01*
X89869Y50818D01*
X89881Y50713D01*
X89903Y50602D01*
X89934Y50485D01*
X88708Y51160D01*
X88856Y51203D01*
X89337Y51373D01*
X89429Y51415D01*
X89579Y51498D01*
X89637Y51539D01*
X89683Y51580D01*
X90050Y51381D01*
D02*
G37*
G36*
X68851Y46949D02*
X68716Y46948D01*
X68470Y46929D01*
X68361Y46911D01*
X68260Y46888D01*
X68168Y46859D01*
X68084Y46825D01*
X68009Y46786D01*
X67943Y46741D01*
X67886Y46690D01*
X67603Y46973D01*
X67653Y47031D01*
X67698Y47097D01*
X67738Y47172D01*
X67772Y47255D01*
X67800Y47348D01*
X67823Y47449D01*
X67841Y47558D01*
X67853Y47676D01*
X67861Y47939D01*
X68851Y46949D01*
D02*
G37*
G36*
X58240Y47745D02*
X58261Y47520D01*
X58280Y47418D01*
X58306Y47322D01*
X58338Y47234D01*
X58375Y47151D01*
X58419Y47076D01*
X58468Y47008D01*
X58523Y46946D01*
X58170Y46592D01*
X58108Y46648D01*
X58040Y46697D01*
X57964Y46741D01*
X57882Y46778D01*
X57793Y46810D01*
X57698Y46835D01*
X57595Y46855D01*
X57486Y46869D01*
X57371Y46876D01*
X57248Y46878D01*
X58238Y47868D01*
X58240Y47745D01*
D02*
G37*
G36*
X60579Y47681D02*
X60576Y47635D01*
X60579Y47588D01*
X60589Y47539D01*
X60607Y47490D01*
X60631Y47439D01*
X60663Y47387D01*
X60701Y47334D01*
X60731Y47297D01*
X60823Y47300D01*
X60912Y47307D01*
X60990Y47319D01*
X61058Y47337D01*
X61116Y47359D01*
X61163Y47386D01*
X61199Y47418D01*
X61225Y47454D01*
X61241Y47496D01*
X61246Y47543D01*
Y46552D01*
X61241Y46598D01*
X61225Y46640D01*
X61199Y46677D01*
X61163Y46709D01*
X61116Y46736D01*
X61058Y46758D01*
X60990Y46775D01*
X60912Y46787D01*
X60823Y46795D01*
X60724Y46797D01*
Y47149D01*
X60445Y46870D01*
X60390Y46923D01*
X60336Y46968D01*
X60282Y47007D01*
X60231Y47038D01*
X60180Y47063D01*
X60130Y47080D01*
X60082Y47090D01*
X60034Y47094D01*
X59988Y47090D01*
X59943Y47079D01*
X60590Y47726D01*
X60579Y47681D01*
D02*
G37*
G36*
X65341Y46472D02*
X65310Y46493D01*
X65274Y46503D01*
X65232Y46501D01*
X65184Y46489D01*
X65131Y46465D01*
X65071Y46430D01*
X65006Y46384D01*
X64935Y46326D01*
X64775Y46177D01*
X64484Y46452D01*
X64565Y46535D01*
X64692Y46684D01*
X64739Y46750D01*
X64774Y46809D01*
X64798Y46863D01*
X64810Y46911D01*
X64811Y46952D01*
X64801Y46988D01*
X64779Y47017D01*
X65341Y46472D01*
D02*
G37*
G36*
X67012Y45674D02*
X66931Y45591D01*
X66804Y45442D01*
X66757Y45376D01*
X66722Y45316D01*
X66698Y45263D01*
X66686Y45215D01*
X66685Y45174D01*
X66695Y45138D01*
X66717Y45108D01*
X66155Y45654D01*
X66186Y45633D01*
X66222Y45623D01*
X66264Y45625D01*
X66312Y45637D01*
X66365Y45661D01*
X66425Y45696D01*
X66490Y45742D01*
X66561Y45800D01*
X66721Y45949D01*
X67012Y45674D01*
D02*
G37*
G36*
X80587Y45486D02*
X80831Y45274D01*
X81016Y45131D01*
X81441Y44841D01*
X80132Y44630D01*
X80193Y44711D01*
X80240Y44790D01*
X80274Y44867D01*
X80295Y44943D01*
X80302Y45017D01*
X80297Y45089D01*
X80278Y45160D01*
X80246Y45229D01*
X80201Y45296D01*
X80143Y45361D01*
X80514Y45556D01*
X80587Y45486D01*
D02*
G37*
G36*
X61246Y44583D02*
X61241Y44630D01*
X61225Y44672D01*
X61199Y44708D01*
X61163Y44740D01*
X61116Y44767D01*
X61058Y44789D01*
X60990Y44807D01*
X60912Y44819D01*
X60823Y44826D01*
X60724Y44829D01*
Y45329D01*
X60823Y45331D01*
X60912Y45338D01*
X60990Y45351D01*
X61058Y45368D01*
X61116Y45390D01*
X61163Y45417D01*
X61199Y45449D01*
X61225Y45486D01*
X61241Y45527D01*
X61246Y45574D01*
Y44583D01*
D02*
G37*
G36*
X87411Y45001D02*
X87428Y44921D01*
X87455Y44845D01*
X87494Y44774D01*
X87544Y44706D01*
X87605Y44644D01*
X87678Y44585D01*
X87761Y44531D01*
X87856Y44481D01*
X87961Y44436D01*
X86674Y43886D01*
X86737Y44040D01*
X86992Y44797D01*
X87002Y44859D01*
X87005Y44909D01*
X87405Y45085D01*
X87411Y45001D01*
D02*
G37*
G36*
X55318Y43675D02*
X55314Y43659D01*
X55315Y43640D01*
X55319Y43620D01*
X55328Y43598D01*
X55341Y43575D01*
X55359Y43549D01*
X55380Y43521D01*
X55406Y43492D01*
X55436Y43461D01*
X55154Y43178D01*
X55114Y43216D01*
X55011Y43304D01*
X54982Y43324D01*
X54956Y43339D01*
X54932Y43350D01*
X54910Y43356D01*
X54892Y43357D01*
X54876Y43354D01*
X55326Y43689D01*
X55318Y43675D01*
D02*
G37*
G36*
X61232Y42919D02*
X61228Y42957D01*
X61216Y42991D01*
X61195Y43021D01*
X61167Y43047D01*
X61129Y43069D01*
X61084Y43087D01*
X61031Y43101D01*
X60969Y43111D01*
X60899Y43117D01*
X60820Y43119D01*
Y43519D01*
X60899Y43521D01*
X60969Y43527D01*
X61031Y43537D01*
X61084Y43551D01*
X61129Y43569D01*
X61167Y43591D01*
X61195Y43617D01*
X61216Y43647D01*
X61228Y43681D01*
X61232Y43719D01*
Y42919D01*
D02*
G37*
G36*
X74418Y43334D02*
X74433Y43256D01*
X74458Y43175D01*
X74493Y43092D01*
X74538Y43006D01*
X74593Y42919D01*
X74658Y42829D01*
X74733Y42736D01*
X74913Y42545D01*
X73513D01*
X73608Y42642D01*
X73768Y42829D01*
X73833Y42919D01*
X73888Y43006D01*
X73933Y43092D01*
X73968Y43175D01*
X73993Y43256D01*
X74008Y43334D01*
X74013Y43411D01*
X74413D01*
X74418Y43334D01*
D02*
G37*
G36*
X66690Y42671D02*
X66672Y42642D01*
X66668Y42606D01*
X66676Y42563D01*
X66697Y42512D01*
X66731Y42454D01*
X66777Y42388D01*
X66837Y42315D01*
X66994Y42147D01*
X66535Y42040D01*
X66461Y42112D01*
X66324Y42227D01*
X66262Y42270D01*
X66203Y42305D01*
X66148Y42329D01*
X66098Y42345D01*
X66051Y42351D01*
X66008Y42348D01*
X65970Y42335D01*
X66720Y42692D01*
X66690Y42671D01*
D02*
G37*
G36*
X69948Y42940D02*
X70014Y42895D01*
X70089Y42856D01*
X70173Y42822D01*
X70265Y42793D01*
X70366Y42770D01*
X70475Y42753D01*
X70594Y42740D01*
X70856Y42732D01*
X70527Y42403D01*
X70555Y42326D01*
X70427Y42303D01*
X69866Y41742D01*
X69865Y41878D01*
X69846Y42123D01*
X69828Y42233D01*
X69805Y42334D01*
X69776Y42426D01*
X69749Y42493D01*
X69748Y42494D01*
X69711Y42508D01*
X69677Y42517D01*
X69645Y42520D01*
X69729Y42536D01*
X69703Y42584D01*
X69658Y42650D01*
X69608Y42708D01*
X69890Y42991D01*
X69948Y42940D01*
D02*
G37*
G36*
X15117Y42502D02*
X14864Y39219D01*
X14748Y39070D01*
X14610Y39191D01*
X14452Y39580D01*
X14272Y40239D01*
X14072Y41166D01*
X11415Y41619D01*
X11646Y41605D01*
X11852Y41648D01*
X12034Y41746D01*
X12191Y41900D01*
X12325Y42110D01*
X12434Y42375D01*
X12519Y42697D01*
X12579Y43074D01*
X12616Y43507D01*
X12628Y43996D01*
X15128D01*
X15117Y42502D01*
D02*
G37*
G36*
X55797Y40764D02*
X55680Y40796D01*
X55570Y40819D01*
X55466Y40832D01*
X55367Y40835D01*
X55275Y40828D01*
X55189Y40812D01*
X55108Y40786D01*
X55034Y40751D01*
X54965Y40706D01*
X54903Y40652D01*
X54707Y41021D01*
X54747Y41067D01*
X54789Y41125D01*
X54830Y41194D01*
X54872Y41274D01*
X54957Y41469D01*
X55044Y41710D01*
X55132Y41996D01*
X55797Y40764D01*
D02*
G37*
G36*
X90756Y41267D02*
X90771Y41189D01*
X90796Y41108D01*
X90831Y41025D01*
X90876Y40939D01*
X90931Y40852D01*
X90996Y40762D01*
X91071Y40669D01*
X91251Y40478D01*
X89851D01*
X89946Y40575D01*
X90106Y40762D01*
X90171Y40852D01*
X90226Y40939D01*
X90271Y41025D01*
X90306Y41108D01*
X90331Y41189D01*
X90346Y41267D01*
X90351Y41344D01*
X90751D01*
X90756Y41267D01*
D02*
G37*
G36*
X60774Y42480D02*
X60951Y42054D01*
X61378Y41877D01*
X63031D01*
X63452Y42051D01*
X63517Y41895D01*
X65068Y40344D01*
X64822Y39883D01*
X64669Y39914D01*
X64122Y39805D01*
X63659Y39496D01*
X63350Y39032D01*
X63241Y38486D01*
X63350Y37940D01*
X63659Y37477D01*
X63704Y37378D01*
X63719Y36882D01*
X63222Y36384D01*
X63032Y35925D01*
Y30192D01*
X62721Y29744D01*
X60390D01*
X60120Y29691D01*
X59891Y29538D01*
X59738Y29309D01*
X59685Y29039D01*
Y21748D01*
X59738Y21478D01*
X59891Y21250D01*
X60120Y21097D01*
X60390Y21043D01*
X62721D01*
X63032Y20595D01*
Y19068D01*
X62304Y18341D01*
X62284Y18327D01*
X60390D01*
X60120Y18273D01*
X59891Y18121D01*
X59738Y17892D01*
X59685Y17622D01*
Y10331D01*
X59738Y10061D01*
X59891Y9832D01*
X60120Y9680D01*
X60390Y9626D01*
X62403D01*
X62611Y9126D01*
X60853Y7368D01*
X45697D01*
X45430Y7868D01*
X45563Y8068D01*
X45671Y8614D01*
X45570Y9126D01*
X45572Y9175D01*
X45853Y9626D01*
X47721D01*
X47990Y9680D01*
X48219Y9832D01*
X48372Y10061D01*
X48425Y10331D01*
Y17622D01*
X48399Y17756D01*
X49071Y18428D01*
X49261Y18887D01*
Y21153D01*
X49725Y21449D01*
X49761Y21444D01*
X49891Y21250D01*
X50120Y21097D01*
X50390Y21043D01*
X52720D01*
X52788Y21057D01*
X53224Y20780D01*
X53288Y20694D01*
Y19167D01*
X52448Y18327D01*
X50390D01*
X50120Y18273D01*
X49891Y18121D01*
X49738Y17892D01*
X49685Y17622D01*
Y10331D01*
X49738Y10061D01*
X49891Y9832D01*
X50120Y9680D01*
X50390Y9626D01*
X52720D01*
X52990Y9680D01*
X53219Y9832D01*
X53372Y10061D01*
X53425Y10331D01*
Y17373D01*
X53425Y17373D01*
X53425Y17373D01*
Y17468D01*
X54190Y18232D01*
X54595Y18119D01*
X54726Y17999D01*
X54738Y17892D01*
X54685Y17622D01*
Y10331D01*
X54738Y10061D01*
X54891Y9832D01*
X55120Y9680D01*
X55390Y9626D01*
X57721D01*
X57990Y9680D01*
X58219Y9832D01*
X58372Y10061D01*
X58425Y10331D01*
Y17622D01*
X58372Y17892D01*
X58219Y18121D01*
X57990Y18273D01*
X57721Y18327D01*
X57399D01*
X57132Y18827D01*
X57177Y18895D01*
X57286Y19441D01*
X57177Y19987D01*
X56868Y20450D01*
X56729Y20543D01*
X56880Y21043D01*
X57721D01*
X57990Y21097D01*
X58219Y21250D01*
X58372Y21478D01*
X58425Y21748D01*
Y29039D01*
X58372Y29309D01*
X58219Y29538D01*
X57990Y29691D01*
X57721Y29744D01*
X55390D01*
X55120Y29691D01*
X55086Y29668D01*
X54586Y29913D01*
Y33392D01*
X55063Y33869D01*
X55253Y34328D01*
Y39950D01*
X55278Y40013D01*
X55308Y40064D01*
X55351Y40113D01*
X55681Y40347D01*
X55765Y40357D01*
X56093Y40292D01*
X56639Y40400D01*
X57102Y40710D01*
X57411Y41173D01*
X57520Y41719D01*
X57431Y42170D01*
X57697Y42670D01*
X60774D01*
Y42480D01*
D02*
G37*
G36*
X74818Y41020D02*
X74658Y40833D01*
X74593Y40743D01*
X74538Y40655D01*
X74493Y40570D01*
X74458Y40487D01*
X74433Y40406D01*
X74418Y40327D01*
X74413Y40251D01*
X74013D01*
X74008Y40327D01*
X73993Y40406D01*
X73968Y40487D01*
X73933Y40570D01*
X73888Y40655D01*
X73833Y40743D01*
X73768Y40833D01*
X73693Y40925D01*
X73513Y41117D01*
X74913D01*
X74818Y41020D01*
D02*
G37*
G36*
X80775Y40283D02*
X80841Y40238D01*
X80916Y40198D01*
X80999Y40165D01*
X81091Y40136D01*
X81192Y40113D01*
X81302Y40095D01*
X81420Y40083D01*
X81683Y40075D01*
X80693Y39085D01*
X80692Y39220D01*
X80673Y39466D01*
X80655Y39575D01*
X80632Y39676D01*
X80603Y39768D01*
X80569Y39852D01*
X80530Y39927D01*
X80485Y39993D01*
X80434Y40051D01*
X80717Y40333D01*
X80775Y40283D01*
D02*
G37*
G36*
X21850Y39006D02*
X21565Y39004D01*
X20727Y38949D01*
X20593Y38923D01*
X20489Y38893D01*
X20415Y38859D01*
X20372Y38820D01*
X20359Y38776D01*
X20235Y41495D01*
X20250Y41497D01*
X20297Y41499D01*
X21850Y41506D01*
Y39006D01*
D02*
G37*
G36*
X24015Y38031D02*
X23964Y37975D01*
X23915Y37910D01*
X23869Y37838D01*
X23826Y37757D01*
X23785Y37669D01*
X23746Y37572D01*
X23677Y37354D01*
X23646Y37233D01*
X23618Y37104D01*
X22856Y38279D01*
X22968Y38258D01*
X23074Y38245D01*
X23176Y38242D01*
X23272Y38247D01*
X23363Y38261D01*
X23448Y38284D01*
X23529Y38315D01*
X23604Y38356D01*
X23674Y38405D01*
X23739Y38463D01*
X24015Y38031D01*
D02*
G37*
G36*
X32914Y58853D02*
Y58169D01*
X33104Y57710D01*
X35368Y55446D01*
X35827Y55256D01*
X53389D01*
X53580Y54794D01*
X43179Y44392D01*
X42989Y43933D01*
Y41205D01*
X43179Y40745D01*
X44182Y39742D01*
Y37378D01*
X43682Y37162D01*
X43211Y37256D01*
X42665Y37147D01*
X42201Y36838D01*
X41892Y36375D01*
X41783Y35829D01*
X41892Y35282D01*
X42201Y34819D01*
X42665Y34510D01*
X43211Y34401D01*
X43682Y34495D01*
X44182Y34279D01*
Y31007D01*
X43293Y30117D01*
X43284Y30096D01*
X42990Y29691D01*
X42720Y29744D01*
X40974D01*
X40974Y29745D01*
X40948Y29760D01*
X40931Y29772D01*
X39928Y30774D01*
X39469Y30964D01*
X35504D01*
X32270Y34198D01*
X32435Y34741D01*
X33011Y34855D01*
X33794Y35379D01*
X34318Y36162D01*
X34501Y37087D01*
X34318Y38011D01*
X33794Y38794D01*
X33011Y39318D01*
X32087Y39502D01*
X31163Y39318D01*
X30604Y38944D01*
X30104Y39212D01*
Y56697D01*
X32452Y59045D01*
X32914Y58853D01*
D02*
G37*
G36*
X65249Y37659D02*
X65169Y37575D01*
X65098Y37491D01*
X65037Y37407D01*
X64986Y37324D01*
X64944Y37241D01*
X64911Y37159D01*
X64887Y37076D01*
X64873Y36994D01*
X64868Y36913D01*
X64468D01*
X64464Y36994D01*
X64450Y37076D01*
X64426Y37159D01*
X64393Y37241D01*
X64351Y37324D01*
X64300Y37407D01*
X64239Y37491D01*
X64168Y37575D01*
X64088Y37659D01*
X63999Y37743D01*
X65338D01*
X65249Y37659D01*
D02*
G37*
G36*
X53981Y42972D02*
X54527Y42864D01*
X54821Y42480D01*
X54815Y42327D01*
X54774Y42265D01*
X54755Y42167D01*
X54718Y42124D01*
X54633Y41847D01*
X54554Y41629D01*
X54481Y41461D01*
X54452Y41406D01*
X54447Y41397D01*
X54144Y41094D01*
X53954Y40635D01*
Y36978D01*
X53581Y36779D01*
X53454Y36761D01*
X52953Y36860D01*
X52406Y36752D01*
X52147Y36579D01*
X51512Y36629D01*
X51504Y36641D01*
X51041Y36950D01*
X50495Y37059D01*
X49948Y36950D01*
X49485Y36641D01*
X49176Y36178D01*
X49067Y35632D01*
X49176Y35085D01*
X49485Y34622D01*
X49948Y34313D01*
X50495Y34204D01*
X51041Y34313D01*
X51300Y34486D01*
X51935Y34436D01*
X51943Y34424D01*
X52406Y34114D01*
X52894Y34017D01*
X53016Y33922D01*
X53288Y33562D01*
Y30093D01*
X53224Y30007D01*
X52788Y29731D01*
X52720Y29744D01*
X50390D01*
X50120Y29691D01*
X49891Y29538D01*
X49761Y29343D01*
X49725Y29338D01*
X49261Y29635D01*
Y29833D01*
X49071Y30292D01*
X47081Y32282D01*
Y37107D01*
X53053Y43079D01*
X53518Y43282D01*
X53981Y42972D01*
D02*
G37*
G36*
X71691Y35975D02*
X71640Y35921D01*
X71596Y35869D01*
X71561Y35819D01*
X71533Y35771D01*
X71512Y35726D01*
X71500Y35682D01*
X71495Y35641D01*
X71498Y35601D01*
X71509Y35564D01*
X71528Y35529D01*
X70962Y36095D01*
X70997Y36076D01*
X71034Y36065D01*
X71074Y36062D01*
X71115Y36067D01*
X71159Y36079D01*
X71205Y36099D01*
X71252Y36127D01*
X71302Y36163D01*
X71354Y36207D01*
X71408Y36258D01*
X71691Y35975D01*
D02*
G37*
G36*
X65857Y36733D02*
X65872Y36650D01*
X65895Y36568D01*
X65928Y36485D01*
X65971Y36402D01*
X66023Y36318D01*
X66084Y36234D01*
X66155Y36149D01*
X66235Y36064D01*
X66325Y35978D01*
X64981D01*
X65070Y36064D01*
X65150Y36149D01*
X65221Y36234D01*
X65283Y36318D01*
X65335Y36402D01*
X65377Y36485D01*
X65410Y36568D01*
X65434Y36650D01*
X65448Y36733D01*
X65453Y36814D01*
X65853D01*
X65857Y36733D01*
D02*
G37*
G36*
X94170Y36331D02*
X94223Y36287D01*
X94273Y36250D01*
X94322Y36221D01*
X94368Y36199D01*
X94413Y36184D01*
X94455Y36177D01*
X94496Y36177D01*
X94535Y36185D01*
X94572Y36200D01*
X93950Y35697D01*
X93972Y35729D01*
X93985Y35764D01*
X93991Y35802D01*
X93988Y35841D01*
X93978Y35883D01*
X93959Y35928D01*
X93932Y35975D01*
X93897Y36024D01*
X93854Y36075D01*
X93803Y36129D01*
X94116Y36382D01*
X94170Y36331D01*
D02*
G37*
G36*
X80292Y36731D02*
X80360Y36687D01*
X80433Y36653D01*
X80510Y36631D01*
X80592Y36619D01*
X80679Y36619D01*
X80769Y36630D01*
X80865Y36653D01*
X80965Y36686D01*
X81069Y36731D01*
X80579Y35428D01*
X80513Y35578D01*
X80150Y36282D01*
X80113Y36332D01*
X80079Y36371D01*
X80228Y36787D01*
X80292Y36731D01*
D02*
G37*
G36*
X14755Y38430D02*
X14837Y38054D01*
X14900Y37444D01*
X14973Y35519D01*
X14982Y34205D01*
X14883D01*
X14884Y34106D01*
X12384D01*
X12374Y34556D01*
X12297Y35303D01*
X12229Y35600D01*
X12141Y35846D01*
X12034Y36041D01*
X11908Y36185D01*
X11762Y36277D01*
X11626Y36312D01*
X11590Y36310D01*
X11615Y36315D01*
X11597Y36319D01*
X11413Y36310D01*
X14072Y36786D01*
X14245Y37585D01*
X14400Y38148D01*
X14536Y38477D01*
X14654Y38571D01*
X14755Y38430D01*
D02*
G37*
G36*
X71821Y34811D02*
X71840Y34777D01*
X71865Y34747D01*
X71898Y34721D01*
X71938Y34699D01*
X71984Y34681D01*
X72038Y34667D01*
X72098Y34657D01*
X72166Y34651D01*
X72240Y34649D01*
Y34249D01*
X72166Y34247D01*
X72098Y34241D01*
X72038Y34231D01*
X71984Y34217D01*
X71938Y34199D01*
X71898Y34177D01*
X71865Y34151D01*
X71840Y34121D01*
X71821Y34087D01*
X71809Y34049D01*
Y34849D01*
X71821Y34811D01*
D02*
G37*
G36*
X18368Y35157D02*
X18396Y35092D01*
X18442Y35036D01*
X18502Y34991D01*
X18534Y35012D01*
X18577Y35050D01*
Y34952D01*
X18591Y34945D01*
X18694Y34911D01*
X18815Y34884D01*
X18955Y34865D01*
X19114Y34854D01*
X19291Y34850D01*
Y33850D01*
X19114Y33847D01*
X18815Y33816D01*
X18694Y33790D01*
X18591Y33756D01*
X18577Y33749D01*
Y33650D01*
X18534Y33688D01*
X18502Y33710D01*
X18442Y33665D01*
X18396Y33608D01*
X18368Y33544D01*
X18358Y33472D01*
Y33780D01*
X18291Y33800D01*
X18212Y33818D01*
X18126Y33832D01*
X18033Y33842D01*
X17825Y33850D01*
Y34850D01*
X17933Y34852D01*
X18126Y34868D01*
X18212Y34882D01*
X18291Y34900D01*
X18358Y34921D01*
Y35228D01*
X18368Y35157D01*
D02*
G37*
G36*
X79397Y33492D02*
X79463Y33447D01*
X79538Y33407D01*
X79621Y33373D01*
X79713Y33345D01*
X79814Y33321D01*
X79924Y33304D01*
X80042Y33291D01*
X80305Y33283D01*
X79315Y32293D01*
X79313Y32429D01*
X79295Y32674D01*
X79277Y32784D01*
X79254Y32885D01*
X79225Y32977D01*
X79191Y33061D01*
X79152Y33136D01*
X79107Y33202D01*
X79056Y33259D01*
X79339Y33542D01*
X79397Y33492D01*
D02*
G37*
G36*
X18368Y32204D02*
X18396Y32140D01*
X18442Y32083D01*
X18502Y32038D01*
X18534Y32060D01*
X18577Y32098D01*
Y31999D01*
X18591Y31992D01*
X18694Y31958D01*
X18815Y31932D01*
X18955Y31913D01*
X19114Y31901D01*
X19291Y31898D01*
Y30898D01*
X19114Y30894D01*
X18815Y30864D01*
X18694Y30837D01*
X18591Y30803D01*
X18577Y30796D01*
Y30698D01*
X18534Y30736D01*
X18502Y30757D01*
X18442Y30712D01*
X18396Y30656D01*
X18368Y30591D01*
X18358Y30520D01*
Y30827D01*
X18291Y30848D01*
X18212Y30866D01*
X18126Y30880D01*
X18033Y30890D01*
X17825Y30898D01*
Y31898D01*
X17933Y31900D01*
X18126Y31916D01*
X18212Y31930D01*
X18291Y31948D01*
X18358Y31968D01*
Y32276D01*
X18368Y32204D01*
D02*
G37*
G36*
X45834Y29643D02*
X45840Y29572D01*
X45849Y29509D01*
X45864Y29454D01*
X45882Y29409D01*
X45904Y29372D01*
X45930Y29344D01*
X45959Y29324D01*
X45994Y29314D01*
X46031Y29312D01*
X45238Y29260D01*
X45275Y29267D01*
X45308Y29282D01*
X45337Y29307D01*
X45362Y29340D01*
X45383Y29382D01*
X45401Y29433D01*
X45414Y29493D01*
X45424Y29561D01*
X45430Y29638D01*
X45432Y29724D01*
X45832D01*
X45834Y29643D01*
D02*
G37*
G36*
X95546Y29542D02*
X95674Y29436D01*
X95734Y29395D01*
X95792Y29362D01*
X95847Y29336D01*
X95900Y29318D01*
X95951Y29309D01*
X95999Y29307D01*
X96045Y29312D01*
X95132Y29115D01*
X95171Y29128D01*
X95197Y29148D01*
X95211Y29175D01*
X95213Y29209D01*
X95202Y29250D01*
X95178Y29298D01*
X95142Y29353D01*
X95094Y29415D01*
X95033Y29484D01*
X94960Y29560D01*
X95479Y29607D01*
X95546Y29542D01*
D02*
G37*
G36*
X40527Y29542D02*
X40656Y29435D01*
X40716Y29393D01*
X40774Y29360D01*
X40830Y29334D01*
X40882Y29317D01*
X40932Y29307D01*
X40980Y29306D01*
X41025Y29312D01*
X40129Y29098D01*
X40167Y29112D01*
X40192Y29133D01*
X40205Y29161D01*
X40206Y29196D01*
X40194Y29238D01*
X40170Y29287D01*
X40133Y29343D01*
X40084Y29406D01*
X40022Y29476D01*
X39948Y29552D01*
X40459Y29607D01*
X40527Y29542D01*
D02*
G37*
G36*
X100474Y29540D02*
X100606Y29430D01*
X100667Y29388D01*
X100725Y29354D01*
X100780Y29329D01*
X100832Y29312D01*
X100881Y29304D01*
X100927Y29304D01*
X100970Y29312D01*
X100120Y29052D01*
X100155Y29069D01*
X100179Y29092D01*
X100189Y29122D01*
X100188Y29160D01*
X100173Y29204D01*
X100147Y29255D01*
X100108Y29313D01*
X100056Y29379D01*
X99992Y29451D01*
X99915Y29530D01*
X100404Y29607D01*
X100474Y29540D01*
D02*
G37*
G36*
X90433Y29538D02*
X90566Y29426D01*
X90628Y29383D01*
X90686Y29349D01*
X90741Y29324D01*
X90793Y29308D01*
X90841Y29301D01*
X90885Y29302D01*
X90926Y29312D01*
X90117Y29014D01*
X90150Y29032D01*
X90171Y29057D01*
X90180Y29089D01*
X90176Y29128D01*
X90160Y29174D01*
X90132Y29227D01*
X90091Y29287D01*
X90038Y29353D01*
X89973Y29427D01*
X89895Y29507D01*
X90361Y29607D01*
X90433Y29538D01*
D02*
G37*
G36*
X35180Y29524D02*
X35328Y29398D01*
X35394Y29351D01*
X35453Y29316D01*
X35506Y29293D01*
X35554Y29281D01*
X35595Y29280D01*
X35631Y29290D01*
X35660Y29312D01*
X35117Y28748D01*
X35138Y28779D01*
X35148Y28815D01*
X35146Y28857D01*
X35134Y28905D01*
X35110Y28958D01*
X35075Y29018D01*
X35028Y29083D01*
X34971Y29154D01*
X34822Y29314D01*
X35097Y29605D01*
X35180Y29524D01*
D02*
G37*
G36*
X12783Y31972D02*
X12787Y31976D01*
X12820Y31945D01*
X14807Y30469D01*
X14612Y30273D01*
X14616Y30270D01*
X14141Y29776D01*
X13398Y28894D01*
X13131Y28504D01*
X12934Y28149D01*
X12807Y27828D01*
X12749Y27542D01*
X12761Y27291D01*
X12842Y27074D01*
X12993Y26891D01*
X10281Y29302D01*
X10268Y29322D01*
X10314Y29396D01*
X10419Y29526D01*
X10752Y29894D01*
X10729Y29918D01*
X11065Y30259D01*
X12214Y31583D01*
X12338Y31771D01*
X12426Y31935D01*
X12479Y32072D01*
X12497Y32185D01*
X12783Y31972D01*
D02*
G37*
G36*
X21143Y21475D02*
X21094Y21478D01*
X21044Y21474D01*
X20992Y21462D01*
X20938Y21444D01*
X20883Y21418D01*
X20825Y21385D01*
X20766Y21344D01*
X20705Y21297D01*
X20642Y21242D01*
X20577Y21180D01*
X20028Y21196D01*
X20097Y21269D01*
X20199Y21393D01*
X20231Y21444D01*
X20251Y21489D01*
X20258Y21527D01*
X20252Y21558D01*
X20234Y21582D01*
X20204Y21599D01*
X20161Y21609D01*
X21143Y21475D01*
D02*
G37*
G36*
X34354Y22027D02*
X34358Y21954D01*
X34372Y21877D01*
X34396Y21797D01*
X34429Y21711D01*
X34471Y21622D01*
X34522Y21529D01*
X34583Y21431D01*
X34733Y21224D01*
X34822Y21114D01*
X33429Y21252D01*
X33529Y21336D01*
X33696Y21502D01*
X33765Y21585D01*
X33822Y21667D01*
X33870Y21748D01*
X33906Y21828D01*
X33933Y21909D01*
X33948Y21988D01*
X33953Y22067D01*
X34354Y22027D01*
D02*
G37*
G36*
X26917Y21471D02*
X26883Y21459D01*
X26853Y21438D01*
X26827Y21409D01*
X26805Y21372D01*
X26787Y21327D01*
X26773Y21273D01*
X26763Y21212D01*
X26757Y21141D01*
X26755Y21063D01*
X26355D01*
X26353Y21141D01*
X26347Y21212D01*
X26337Y21273D01*
X26323Y21327D01*
X26305Y21372D01*
X26283Y21409D01*
X26257Y21438D01*
X26227Y21459D01*
X26193Y21471D01*
X26155Y21475D01*
X26955D01*
X26917Y21471D01*
D02*
G37*
G36*
X24704Y21028D02*
X24720Y20948D01*
X24748Y20869D01*
X24786Y20793D01*
X24835Y20717D01*
X24895Y20644D01*
X24967Y20572D01*
X25049Y20502D01*
X25142Y20434D01*
X25246Y20367D01*
X23884Y20042D01*
X23963Y20171D01*
X24149Y20514D01*
X24195Y20615D01*
X24261Y20794D01*
X24282Y20874D01*
X24294Y20946D01*
X24298Y21012D01*
X24698Y21110D01*
X24704Y21028D01*
D02*
G37*
G36*
X43957Y20748D02*
X43972Y20669D01*
X43997Y20588D01*
X44032Y20505D01*
X44077Y20420D01*
X44132Y20332D01*
X44197Y20242D01*
X44272Y20150D01*
X44452Y19958D01*
X43052D01*
X43147Y20055D01*
X43307Y20242D01*
X43372Y20332D01*
X43427Y20420D01*
X43472Y20505D01*
X43507Y20588D01*
X43532Y20669D01*
X43547Y20748D01*
X43552Y20824D01*
X43952D01*
X43957Y20748D01*
D02*
G37*
G36*
X31917Y21471D02*
X31883Y21459D01*
X31853Y21438D01*
X31827Y21409D01*
X31805Y21372D01*
X31787Y21327D01*
X31773Y21273D01*
X31763Y21212D01*
X31757Y21141D01*
X31755Y21063D01*
X31729D01*
X31755Y21054D01*
X31756Y20933D01*
X31799Y20233D01*
X31813Y20120D01*
X31845Y19897D01*
X30854Y20736D01*
X30949Y20741D01*
X31034Y20756D01*
X31109Y20779D01*
X31175Y20812D01*
X31230Y20854D01*
X31275Y20906D01*
X31310Y20966D01*
X31335Y21036D01*
X31350Y21116D01*
X31352Y21152D01*
X31347Y21212D01*
X31337Y21273D01*
X31323Y21327D01*
X31305Y21372D01*
X31283Y21409D01*
X31257Y21438D01*
X31227Y21459D01*
X31193Y21471D01*
X31155Y21475D01*
X31955D01*
X31917Y21471D01*
D02*
G37*
G36*
X16917D02*
X16883Y21459D01*
X16853Y21438D01*
X16827Y21409D01*
X16805Y21372D01*
X16787Y21327D01*
X16773Y21273D01*
X16763Y21212D01*
X16757Y21141D01*
X16757Y21121D01*
X16761Y21058D01*
X16777Y20979D01*
X16804Y20906D01*
X16842Y20839D01*
X16891Y20779D01*
X16951Y20726D01*
X17022Y20679D01*
X17104Y20639D01*
X17196Y20605D01*
X17300Y20578D01*
X16130Y19891D01*
X16173Y20035D01*
X16346Y20764D01*
X16353Y20828D01*
X16355Y20883D01*
X16631Y21063D01*
X16355D01*
X16353Y21141D01*
X16347Y21212D01*
X16337Y21273D01*
X16323Y21327D01*
X16305Y21372D01*
X16283Y21409D01*
X16257Y21438D01*
X16227Y21459D01*
X16193Y21471D01*
X16155Y21475D01*
X16955D01*
X16917Y21471D01*
D02*
G37*
G36*
X26757Y20752D02*
X26821Y20704D01*
X26888Y20664D01*
X26959Y20631D01*
X27034Y20606D01*
X27113Y20588D01*
X27195Y20577D01*
X27281Y20574D01*
X27371Y20578D01*
X27464Y20589D01*
X26631Y19757D01*
X26643Y19850D01*
X26646Y19939D01*
X26643Y20025D01*
X26632Y20107D01*
X26614Y20186D01*
X26589Y20261D01*
X26556Y20332D01*
X26516Y20400D01*
X26469Y20463D01*
X26414Y20524D01*
X26697Y20807D01*
X26757Y20752D01*
D02*
G37*
G36*
X36326Y18727D02*
X36209Y18759D01*
X36098Y18780D01*
X35993Y18793D01*
X35895Y18795D01*
X35802Y18789D01*
X35715Y18772D01*
X35635Y18746D01*
X35560Y18711D01*
X35492Y18666D01*
X35429Y18611D01*
X35231Y18978D01*
X35272Y19025D01*
X35313Y19083D01*
X35355Y19152D01*
X35396Y19233D01*
X35480Y19428D01*
X35523Y19542D01*
X35651Y19954D01*
X36326Y18727D01*
D02*
G37*
G36*
X86757Y18229D02*
X86763Y18158D01*
X86773Y18097D01*
X86787Y18043D01*
X86805Y17998D01*
X86827Y17961D01*
X86853Y17932D01*
X86883Y17911D01*
X86917Y17899D01*
X86955Y17895D01*
X86155D01*
X86193Y17899D01*
X86227Y17911D01*
X86257Y17932D01*
X86283Y17961D01*
X86305Y17998D01*
X86323Y18043D01*
X86337Y18097D01*
X86347Y18158D01*
X86353Y18229D01*
X86355Y18307D01*
X86755D01*
X86757Y18229D01*
D02*
G37*
G36*
X21757D02*
X21763Y18158D01*
X21773Y18097D01*
X21787Y18043D01*
X21805Y17998D01*
X21827Y17961D01*
X21853Y17932D01*
X21883Y17911D01*
X21917Y17899D01*
X21955Y17895D01*
X21155D01*
X21193Y17899D01*
X21227Y17911D01*
X21257Y17932D01*
X21283Y17961D01*
X21305Y17998D01*
X21323Y18043D01*
X21337Y18097D01*
X21347Y18158D01*
X21353Y18229D01*
X21355Y18307D01*
X21755D01*
X21757Y18229D01*
D02*
G37*
G36*
X48150Y18143D02*
X48077Y18067D01*
X47968Y17936D01*
X47932Y17881D01*
X47909Y17833D01*
X47898Y17792D01*
X47899Y17758D01*
X47913Y17731D01*
X47939Y17711D01*
X47978Y17697D01*
X47066Y17895D01*
X47111Y17889D01*
X47159Y17891D01*
X47210Y17901D01*
X47263Y17919D01*
X47318Y17944D01*
X47376Y17978D01*
X47436Y18019D01*
X47499Y18068D01*
X47564Y18125D01*
X47631Y18190D01*
X48150Y18143D01*
D02*
G37*
G36*
X63231Y18067D02*
X63152Y17985D01*
X63031Y17842D01*
X62989Y17781D01*
X62959Y17726D01*
X62941Y17679D01*
X62936Y17638D01*
X62942Y17604D01*
X62962Y17578D01*
X62993Y17558D01*
X62223Y17895D01*
X62263Y17883D01*
X62306Y17880D01*
X62353Y17887D01*
X62404Y17902D01*
X62459Y17927D01*
X62517Y17961D01*
X62579Y18005D01*
X62645Y18057D01*
X62789Y18190D01*
X63231Y18067D01*
D02*
G37*
G36*
X33269Y18000D02*
X33187Y17916D01*
X33060Y17767D01*
X33014Y17702D01*
X32981Y17644D01*
X32959Y17593D01*
X32950Y17548D01*
X32952Y17510D01*
X32967Y17479D01*
X32993Y17454D01*
X32327Y17895D01*
X32362Y17878D01*
X32402Y17872D01*
X32446Y17876D01*
X32496Y17890D01*
X32550Y17915D01*
X32609Y17949D01*
X32673Y17994D01*
X32741Y18049D01*
X32893Y18190D01*
X33269Y18000D01*
D02*
G37*
G36*
X53278Y17956D02*
X53197Y17872D01*
X53070Y17723D01*
X53024Y17658D01*
X52990Y17600D01*
X52967Y17547D01*
X52956Y17501D01*
X52957Y17461D01*
X52969Y17428D01*
X52993Y17400D01*
X52381Y17895D01*
X52413Y17876D01*
X52451Y17868D01*
X52494Y17871D01*
X52543Y17884D01*
X52597Y17908D01*
X52656Y17943D01*
X52721Y17988D01*
X52790Y18045D01*
X52946Y18190D01*
X53278Y17956D01*
D02*
G37*
G36*
X56463Y18630D02*
X56303Y18443D01*
X56238Y18353D01*
X56183Y18265D01*
X56138Y18180D01*
X56103Y18097D01*
X56089Y18049D01*
X56090Y18043D01*
X56108Y17998D01*
X56130Y17961D01*
X56156Y17932D01*
X56186Y17911D01*
X56220Y17899D01*
X56258Y17895D01*
X56060D01*
X56058Y17861D01*
X55658D01*
X55656Y17895D01*
X55458D01*
X55496Y17899D01*
X55530Y17911D01*
X55560Y17932D01*
X55586Y17961D01*
X55608Y17998D01*
X55626Y18043D01*
X55628Y18049D01*
X55613Y18097D01*
X55578Y18180D01*
X55533Y18265D01*
X55478Y18353D01*
X55413Y18443D01*
X55338Y18535D01*
X55158Y18727D01*
X56558D01*
X56463Y18630D01*
D02*
G37*
G36*
X95550Y18125D02*
X95678Y18019D01*
X95738Y17978D01*
X95796Y17945D01*
X95851Y17919D01*
X95904Y17901D01*
X95955Y17891D01*
X96003Y17889D01*
X96049Y17895D01*
X95133Y17701D01*
X95172Y17714D01*
X95198Y17734D01*
X95212Y17761D01*
X95214Y17795D01*
X95203Y17836D01*
X95180Y17883D01*
X95144Y17938D01*
X95096Y18000D01*
X95035Y18069D01*
X94963Y18144D01*
X95483Y18190D01*
X95550Y18125D01*
D02*
G37*
G36*
X80395Y18119D02*
X80531Y18005D01*
X80593Y17961D01*
X80651Y17927D01*
X80706Y17902D01*
X80757Y17887D01*
X80804Y17880D01*
X80848Y17883D01*
X80887Y17895D01*
X80117Y17558D01*
X80149Y17578D01*
X80168Y17604D01*
X80175Y17638D01*
X80169Y17679D01*
X80152Y17726D01*
X80122Y17780D01*
X80079Y17842D01*
X80025Y17910D01*
X79958Y17985D01*
X79879Y18067D01*
X80321Y18190D01*
X80395Y18119D01*
D02*
G37*
G36*
X15339Y18116D02*
X15478Y17999D01*
X15541Y17955D01*
X15600Y17920D01*
X15654Y17896D01*
X15704Y17881D01*
X15750Y17876D01*
X15791Y17880D01*
X15828Y17895D01*
X15117Y17499D01*
X15146Y17521D01*
X15162Y17551D01*
X15167Y17587D01*
X15159Y17630D01*
X15138Y17680D01*
X15106Y17737D01*
X15062Y17800D01*
X15005Y17870D01*
X14855Y18031D01*
X15262Y18190D01*
X15339Y18116D01*
D02*
G37*
G36*
X39708Y29157D02*
X39685Y29039D01*
Y21748D01*
X39739Y21478D01*
X39891Y21250D01*
X40120Y21097D01*
X40390Y21043D01*
X42720D01*
X42829Y20958D01*
X42904Y20437D01*
X42828Y20348D01*
X42743Y20261D01*
X42735Y20242D01*
X42433Y19790D01*
X42325Y19244D01*
X42408Y18827D01*
X42125Y18327D01*
X40390D01*
X40120Y18273D01*
X39891Y18121D01*
X39739Y17892D01*
X39685Y17622D01*
Y10624D01*
X39240Y10250D01*
X39196Y10242D01*
X39003Y10280D01*
X38980Y10291D01*
X38733Y10299D01*
X38642Y10308D01*
X38559Y10321D01*
X38487Y10338D01*
X38430Y10356D01*
X38425Y10382D01*
Y17622D01*
X38372Y17892D01*
X38219Y18121D01*
X37990Y18273D01*
X37920Y18287D01*
X37857Y18369D01*
X37723Y18738D01*
X37724Y18826D01*
X37933Y19139D01*
X38041Y19685D01*
X37933Y20231D01*
X37724Y20544D01*
X37723Y20632D01*
X37857Y21001D01*
X37920Y21083D01*
X37990Y21097D01*
X38219Y21250D01*
X38372Y21478D01*
X38425Y21748D01*
Y29039D01*
X38400Y29166D01*
X38629Y29562D01*
X38735Y29665D01*
X39200D01*
X39708Y29157D01*
D02*
G37*
G36*
X65754Y10058D02*
X65716Y10063D01*
X65682Y10058D01*
X65652Y10043D01*
X65626Y10017D01*
X65604Y9981D01*
X65586Y9935D01*
X65575Y9888D01*
X65599Y9809D01*
X65634Y9726D01*
X65679Y9640D01*
X65734Y9552D01*
X65799Y9462D01*
X65874Y9370D01*
X66054Y9179D01*
X64654D01*
X64749Y9276D01*
X64909Y9462D01*
X64974Y9552D01*
X65029Y9640D01*
X65074Y9726D01*
X65109Y9809D01*
X65134Y9889D01*
X65148Y9959D01*
X65132Y10210D01*
X65127Y10222D01*
X65754Y10058D01*
D02*
G37*
G36*
X77960Y10341D02*
X77939Y10316D01*
X77931Y10284D01*
X77934Y10245D01*
X77951Y10199D01*
X77979Y10146D01*
X78020Y10086D01*
X78074Y10019D01*
X78139Y9946D01*
X78217Y9865D01*
X77753Y9763D01*
X77681Y9832D01*
X77548Y9944D01*
X77486Y9987D01*
X77428Y10021D01*
X77373Y10046D01*
X77321Y10062D01*
X77273Y10070D01*
X77229Y10068D01*
X77188Y10058D01*
X77993Y10360D01*
X77960Y10341D01*
D02*
G37*
G36*
X42972Y10575D02*
X42961Y10539D01*
X42962Y10498D01*
X42974Y10450D01*
X42998Y10397D01*
X43033Y10337D01*
X43079Y10272D01*
X43137Y10201D01*
X43287Y10040D01*
X42998Y9763D01*
X42915Y9843D01*
X42767Y9970D01*
X42702Y10016D01*
X42643Y10051D01*
X42589Y10075D01*
X42541Y10087D01*
X42499Y10089D01*
X42463Y10079D01*
X42432Y10058D01*
X42993Y10605D01*
X42972Y10575D01*
D02*
G37*
G36*
X27915Y10193D02*
X27885Y10175D01*
X27868Y10150D01*
X27863Y10119D01*
X27871Y10080D01*
X27892Y10034D01*
X27925Y9982D01*
X27970Y9922D01*
X28028Y9856D01*
X28099Y9782D01*
X27553Y9763D01*
X27487Y9825D01*
X27363Y9928D01*
X27303Y9969D01*
X27246Y10002D01*
X27190Y10028D01*
X27137Y10046D01*
X27085Y10057D01*
X27035Y10061D01*
X26987Y10058D01*
X27957Y10204D01*
X27915Y10193D01*
D02*
G37*
G36*
X37983Y10373D02*
X37961Y10345D01*
X37951Y10311D01*
X37954Y10269D01*
X37969Y10222D01*
X37997Y10168D01*
X38037Y10107D01*
X38081Y10051D01*
X38124Y10022D01*
X38199Y9982D01*
X38283Y9948D01*
X38375Y9919D01*
X38476Y9896D01*
X38585Y9878D01*
X38704Y9866D01*
X38966Y9858D01*
X37976Y8868D01*
X37975Y9004D01*
X37956Y9249D01*
X37938Y9359D01*
X37915Y9460D01*
X37887Y9552D01*
X37853Y9635D01*
X37813Y9710D01*
X37768Y9776D01*
X37734Y9815D01*
X37718Y9831D01*
X37585Y9940D01*
X37524Y9981D01*
X37466Y10012D01*
X37411Y10035D01*
X37359Y10048D01*
X37311Y10053D01*
X37265Y10048D01*
X37223Y10034D01*
X38017Y10395D01*
X37983Y10373D01*
D02*
G37*
G36*
X43440Y9893D02*
X43504Y9849D01*
X43577Y9808D01*
X43660Y9770D01*
X43753Y9735D01*
X43856Y9703D01*
X44091Y9649D01*
X44223Y9626D01*
X44366Y9607D01*
X43254Y8755D01*
X43269Y8883D01*
X43277Y9003D01*
X43277Y9116D01*
X43269Y9222D01*
X43254Y9319D01*
X43231Y9410D01*
X43201Y9492D01*
X43164Y9567D01*
X43119Y9635D01*
X43066Y9695D01*
X43387Y9940D01*
X43440Y9893D01*
D02*
G37*
G36*
X28183Y9703D02*
X28233Y9666D01*
X28296Y9624D01*
X28459Y9531D01*
X28797Y9364D01*
X29084Y9234D01*
X27779Y8751D01*
X27825Y8855D01*
X27859Y8954D01*
X27881Y9049D01*
X27893Y9140D01*
X27893Y9226D01*
X27882Y9308D01*
X27860Y9385D01*
X27826Y9458D01*
X27782Y9526D01*
X27725Y9590D01*
X28144Y9737D01*
X28183Y9703D01*
D02*
G37*
G36*
X35853Y7619D02*
X35756Y7714D01*
X35569Y7874D01*
X35479Y7939D01*
X35391Y7994D01*
X35306Y8039D01*
X35223Y8074D01*
X35142Y8099D01*
X35063Y8114D01*
X34987Y8119D01*
Y8519D01*
X35063Y8524D01*
X35142Y8539D01*
X35223Y8564D01*
X35306Y8599D01*
X35391Y8644D01*
X35479Y8699D01*
X35569Y8764D01*
X35661Y8839D01*
X35853Y9019D01*
Y7619D01*
D02*
G37*
%LPC*%
G36*
X110187Y161369D02*
X105319D01*
X105429Y160533D01*
X105983Y159195D01*
X106865Y158046D01*
X108014Y157164D01*
X109352Y156610D01*
X110187Y156500D01*
Y161369D01*
D02*
G37*
G36*
X96256D02*
X91387D01*
Y156500D01*
X92223Y156610D01*
X93561Y157164D01*
X94710Y158046D01*
X95592Y159195D01*
X96146Y160533D01*
X96256Y161369D01*
D02*
G37*
G36*
X100787Y157500D02*
X99356Y157311D01*
X98022Y156759D01*
X96876Y155880D01*
X95997Y154734D01*
X95444Y153400D01*
X95256Y151969D01*
X95444Y150537D01*
X95997Y149203D01*
X96876Y148057D01*
X98022Y147178D01*
X99356Y146625D01*
X100787Y146437D01*
X102219Y146625D01*
X103553Y147178D01*
X104699Y148057D01*
X105578Y149203D01*
X106130Y150537D01*
X106319Y151969D01*
X106130Y153400D01*
X105578Y154734D01*
X104699Y155880D01*
X103553Y156759D01*
X102219Y157311D01*
X100787Y157500D01*
D02*
G37*
G36*
X110187Y147437D02*
X109352Y147327D01*
X108014Y146773D01*
X106865Y145891D01*
X105983Y144742D01*
X105429Y143404D01*
X105319Y142569D01*
X110187D01*
Y147437D01*
D02*
G37*
G36*
X91387D02*
Y142569D01*
X96256D01*
X96146Y143404D01*
X95592Y144742D01*
X94710Y145891D01*
X93561Y146773D01*
X92223Y147327D01*
X91387Y147437D01*
D02*
G37*
G36*
X110187Y141368D02*
X105319D01*
X105429Y140533D01*
X105983Y139195D01*
X106865Y138046D01*
X108014Y137164D01*
X109352Y136610D01*
X110187Y136500D01*
Y141368D01*
D02*
G37*
G36*
X96256D02*
X91387D01*
Y136500D01*
X92223Y136610D01*
X93561Y137164D01*
X94710Y138046D01*
X95592Y139195D01*
X96146Y140533D01*
X96256Y141368D01*
D02*
G37*
G36*
X97720Y124232D02*
X95390D01*
X95120Y124179D01*
X94891Y124026D01*
X94739Y123797D01*
X94685Y123528D01*
Y116236D01*
X94739Y115966D01*
X94891Y115738D01*
X95120Y115585D01*
X95390Y115531D01*
X97720D01*
X97990Y115585D01*
X98219Y115738D01*
X98372Y115966D01*
X98425Y116236D01*
Y123528D01*
X98372Y123797D01*
X98219Y124026D01*
X97990Y124179D01*
X97720Y124232D01*
D02*
G37*
G36*
X100248Y124306D02*
X100081Y124273D01*
X99819Y124098D01*
X99644Y123836D01*
X99583Y123528D01*
Y116236D01*
X99644Y115928D01*
X99819Y115666D01*
X100081Y115491D01*
X100270Y115453D01*
X100238Y115939D01*
X100214Y116002D01*
X100188Y116035D01*
X102922D01*
X102903Y116007D01*
X102887Y115947D01*
X102872Y115858D01*
X102860Y115737D01*
X102846Y115454D01*
X103029Y115491D01*
X103291Y115666D01*
X103466Y115928D01*
X103527Y116236D01*
Y123528D01*
X103466Y123836D01*
X103291Y124098D01*
X103029Y124273D01*
X102910Y124297D01*
X102950Y123711D01*
X102984Y123637D01*
X100127D01*
X100161Y123711D01*
X100191Y123828D01*
X100218Y123988D01*
X100248Y124306D01*
D02*
G37*
G36*
X32721Y112815D02*
X30390D01*
X30120Y112761D01*
X29891Y112609D01*
X29739Y112380D01*
X29685Y112110D01*
Y104819D01*
X29739Y104549D01*
X29891Y104321D01*
X30120Y104168D01*
X30390Y104114D01*
X32721D01*
X32990Y104168D01*
X33219Y104321D01*
X33372Y104549D01*
X33425Y104819D01*
Y112110D01*
X33372Y112380D01*
X33219Y112609D01*
X32990Y112761D01*
X32721Y112815D01*
D02*
G37*
G36*
X27720D02*
X25390D01*
X25120Y112761D01*
X24891Y112609D01*
X24739Y112380D01*
X24685Y112110D01*
Y104819D01*
X24739Y104549D01*
X24891Y104321D01*
X25120Y104168D01*
X25390Y104114D01*
X27720D01*
X27990Y104168D01*
X28219Y104321D01*
X28372Y104549D01*
X28425Y104819D01*
Y112110D01*
X28372Y112380D01*
X28219Y112609D01*
X27990Y112761D01*
X27720Y112815D01*
D02*
G37*
G36*
X22720D02*
X20390D01*
X20120Y112761D01*
X19891Y112609D01*
X19739Y112380D01*
X19685Y112110D01*
Y104819D01*
X19739Y104549D01*
X19891Y104321D01*
X20120Y104168D01*
X20390Y104114D01*
X22720D01*
X22990Y104168D01*
X23219Y104321D01*
X23372Y104549D01*
X23425Y104819D01*
Y112110D01*
X23372Y112380D01*
X23219Y112609D01*
X22990Y112761D01*
X22720Y112815D01*
D02*
G37*
G36*
X31594Y95227D02*
X31048Y95118D01*
X30585Y94809D01*
X30276Y94345D01*
X30167Y93799D01*
X30276Y93253D01*
X30585Y92790D01*
X31048Y92480D01*
X31594Y92372D01*
X32141Y92480D01*
X32604Y92790D01*
X32913Y93253D01*
X33022Y93799D01*
X32913Y94345D01*
X32604Y94809D01*
X32141Y95118D01*
X31594Y95227D01*
D02*
G37*
G36*
X50100Y92211D02*
X49560Y92104D01*
X49102Y91798D01*
X48796Y91340D01*
X48789Y91305D01*
X48340Y91004D01*
X48261Y91020D01*
X47800Y91111D01*
X47260Y91004D01*
X46802Y90698D01*
X46496Y90240D01*
X46389Y89700D01*
X46496Y89160D01*
X46802Y88702D01*
X47260Y88396D01*
X47800Y88289D01*
X48340Y88396D01*
X48798Y88702D01*
X49104Y89160D01*
X49111Y89195D01*
X49560Y89496D01*
X49639Y89480D01*
X50100Y89389D01*
X50640Y89496D01*
X51098Y89802D01*
X51404Y90260D01*
X51511Y90800D01*
X51404Y91340D01*
X51098Y91798D01*
X50640Y92104D01*
X50100Y92211D01*
D02*
G37*
G36*
X55700Y91127D02*
X55154Y91019D01*
X54691Y90709D01*
X54381Y90246D01*
X54273Y89700D01*
X54381Y89154D01*
X54691Y88691D01*
X55154Y88381D01*
X55700Y88273D01*
X56246Y88381D01*
X56709Y88691D01*
X57019Y89154D01*
X57127Y89700D01*
X57019Y90246D01*
X56709Y90709D01*
X56246Y91019D01*
X55700Y91127D01*
D02*
G37*
G36*
X53600Y84427D02*
X53054Y84319D01*
X52591Y84009D01*
X52281Y83546D01*
X52173Y83000D01*
X52281Y82454D01*
X52591Y81991D01*
X53054Y81681D01*
X53600Y81573D01*
X54146Y81681D01*
X54411Y81858D01*
X54991Y81891D01*
X55454Y81581D01*
X56000Y81473D01*
X56546Y81581D01*
X57009Y81891D01*
X57319Y82354D01*
X57427Y82900D01*
X57319Y83446D01*
X57009Y83909D01*
X56546Y84219D01*
X56000Y84327D01*
X55454Y84219D01*
X55189Y84042D01*
X54609Y84009D01*
X54146Y84319D01*
X53600Y84427D01*
D02*
G37*
G36*
X104724Y60486D02*
X103800Y60302D01*
X103017Y59778D01*
X102892Y59591D01*
X102858Y59577D01*
X102851Y59561D01*
X102836Y59553D01*
X102754Y59458D01*
X102679Y59389D01*
X102595Y59327D01*
X102501Y59272D01*
X102395Y59224D01*
X102275Y59183D01*
X102173Y59157D01*
X101826Y59390D01*
X101279Y59498D01*
X100733Y59390D01*
X100270Y59080D01*
X99961Y58617D01*
X99852Y58071D01*
X99961Y57525D01*
X100270Y57061D01*
X100733Y56752D01*
X101279Y56643D01*
X101826Y56752D01*
X102173Y56984D01*
X102275Y56959D01*
X102395Y56918D01*
X102501Y56870D01*
X102595Y56815D01*
X102679Y56753D01*
X102754Y56684D01*
X102836Y56588D01*
X102851Y56581D01*
X102858Y56565D01*
X102892Y56551D01*
X103017Y56363D01*
X103800Y55840D01*
X104724Y55656D01*
X105649Y55840D01*
X106432Y56363D01*
X106956Y57147D01*
X107139Y58071D01*
X106956Y58995D01*
X106432Y59778D01*
X105649Y60302D01*
X104724Y60486D01*
D02*
G37*
G36*
X14665Y62550D02*
X14119Y62441D01*
X13656Y62131D01*
X13347Y61668D01*
X13238Y61122D01*
X13347Y60576D01*
X13656Y60113D01*
Y60065D01*
X13347Y59601D01*
X13238Y59055D01*
X13347Y58509D01*
X13656Y58046D01*
X14119Y57736D01*
X14665Y57628D01*
X15212Y57736D01*
X15675Y58046D01*
X15984Y58509D01*
X16093Y59055D01*
X15984Y59601D01*
X15675Y60065D01*
Y60113D01*
X15984Y60576D01*
X16093Y61122D01*
X15984Y61668D01*
X15675Y62131D01*
X15212Y62441D01*
X14665Y62550D01*
D02*
G37*
G36*
X109646Y51627D02*
X108721Y51444D01*
X107938Y50920D01*
X107415Y50137D01*
X107231Y49213D01*
X107415Y48289D01*
X107938Y47505D01*
X108721Y46981D01*
X109646Y46798D01*
X110570Y46981D01*
X111353Y47505D01*
X111877Y48289D01*
X112061Y49213D01*
X111877Y50137D01*
X111353Y50920D01*
X110570Y51444D01*
X109646Y51627D01*
D02*
G37*
G36*
X107720Y29744D02*
X105390D01*
X105120Y29691D01*
X104891Y29538D01*
X104739Y29309D01*
X104685Y29039D01*
Y21748D01*
X104739Y21478D01*
X104891Y21250D01*
X105120Y21097D01*
X105390Y21043D01*
X107720D01*
X107990Y21097D01*
X108219Y21250D01*
X108372Y21478D01*
X108425Y21748D01*
Y29039D01*
X108372Y29309D01*
X108219Y29538D01*
X107990Y29691D01*
X107720Y29744D01*
D02*
G37*
G36*
Y18429D02*
X105390D01*
X105081Y18368D01*
X104819Y18193D01*
X104644Y17931D01*
X104583Y17622D01*
Y10331D01*
X104644Y10022D01*
X104819Y9760D01*
X105081Y9585D01*
X105390Y9524D01*
X107720D01*
X108029Y9585D01*
X108291Y9760D01*
X108466Y10022D01*
X108527Y10331D01*
Y10513D01*
X108226Y10491D01*
X108124Y10466D01*
X108052Y10437D01*
X108008Y10404D01*
X107993Y10368D01*
Y12926D01*
Y15813D01*
X108008Y15777D01*
X108052Y15744D01*
X108124Y15715D01*
X108226Y15690D01*
X108357Y15668D01*
X108517Y15651D01*
X108527Y15651D01*
Y17622D01*
X108466Y17931D01*
X108291Y18193D01*
X108029Y18368D01*
X107720Y18429D01*
D02*
G37*
G36*
X102720Y18327D02*
X100390D01*
X100120Y18273D01*
X99891Y18121D01*
X99739Y17892D01*
X99685Y17622D01*
Y10331D01*
X99739Y10061D01*
X99891Y9832D01*
X100120Y9680D01*
X100390Y9626D01*
X102720D01*
X102990Y9680D01*
X103219Y9832D01*
X103372Y10061D01*
X103425Y10331D01*
Y17622D01*
X103372Y17892D01*
X103219Y18121D01*
X102990Y18273D01*
X102720Y18327D01*
D02*
G37*
G36*
X72720Y29744D02*
X70390D01*
X70120Y29691D01*
X69891Y29538D01*
X69739Y29309D01*
X69685Y29039D01*
Y21748D01*
X69739Y21478D01*
X69891Y21250D01*
X70120Y21097D01*
X70332Y21055D01*
X70436Y20851D01*
X70511Y20543D01*
X70236Y20133D01*
X70128Y19587D01*
X70236Y19040D01*
X70381Y18823D01*
X70382Y18757D01*
X70178Y18297D01*
X70157Y18281D01*
X70120Y18273D01*
X69891Y18121D01*
X69739Y17892D01*
X69685Y17622D01*
Y10331D01*
X69739Y10061D01*
X69891Y9832D01*
X70120Y9680D01*
X70390Y9626D01*
X72720D01*
X72990Y9680D01*
X73219Y9832D01*
X73372Y10061D01*
X73425Y10331D01*
Y17622D01*
X73372Y17892D01*
X73219Y18121D01*
X72990Y18273D01*
X72947Y18282D01*
X72945Y18283D01*
X72728Y18758D01*
X72729Y18823D01*
X72874Y19040D01*
X72983Y19587D01*
X72874Y20133D01*
X72600Y20543D01*
X72674Y20851D01*
X72778Y21055D01*
X72990Y21097D01*
X73219Y21250D01*
X73372Y21478D01*
X73425Y21748D01*
Y29039D01*
X73372Y29309D01*
X73219Y29538D01*
X72990Y29691D01*
X72720Y29744D01*
D02*
G37*
G36*
X12720Y18429D02*
X10390D01*
X10081Y18368D01*
X9819Y18193D01*
X9644Y17931D01*
X9583Y17622D01*
Y10331D01*
X9644Y10022D01*
X9819Y9760D01*
X10081Y9585D01*
X10390Y9524D01*
X12720D01*
X13029Y9585D01*
X13291Y9760D01*
X13466Y10022D01*
X13527Y10331D01*
Y17622D01*
X13466Y17931D01*
X13291Y18193D01*
X13029Y18368D01*
X12720Y18429D01*
D02*
G37*
G36*
X13150Y8124D02*
X12225Y7940D01*
X11442Y7416D01*
X10919Y6633D01*
X10735Y5709D01*
X10919Y4784D01*
X11442Y4001D01*
X12225Y3478D01*
X13150Y3294D01*
X14074Y3478D01*
X14857Y4001D01*
X15381Y4784D01*
X15564Y5709D01*
X15381Y6633D01*
X14857Y7416D01*
X14074Y7940D01*
X13150Y8124D01*
D02*
G37*
%LPD*%
G36*
X103164Y56871D02*
X103066Y56985D01*
X102956Y57087D01*
X102834Y57177D01*
X102700Y57255D01*
X102555Y57321D01*
X102397Y57375D01*
X102228Y57417D01*
X102138Y57432D01*
X102097Y57422D01*
X102052Y57407D01*
X102018Y57390D01*
X101994Y57371D01*
Y57452D01*
X101854Y57465D01*
X101650Y57471D01*
Y58671D01*
X101854Y58677D01*
X101994Y58690D01*
Y58771D01*
X102018Y58752D01*
X102052Y58735D01*
X102097Y58720D01*
X102138Y58710D01*
X102228Y58725D01*
X102397Y58767D01*
X102555Y58821D01*
X102700Y58887D01*
X102834Y58965D01*
X102956Y59055D01*
X103066Y59157D01*
X103164Y59271D01*
Y56871D01*
D02*
G37*
G36*
X72160Y18776D02*
X72000Y18589D01*
X71935Y18499D01*
X71880Y18411D01*
X71835Y18326D01*
X71800Y18243D01*
X71775Y18162D01*
X71768Y18126D01*
X71773Y18097D01*
X71787Y18043D01*
X71805Y17998D01*
X71827Y17961D01*
X71853Y17932D01*
X71883Y17911D01*
X71917Y17899D01*
X71955Y17895D01*
X71155D01*
X71193Y17899D01*
X71227Y17911D01*
X71257Y17932D01*
X71283Y17961D01*
X71305Y17998D01*
X71323Y18043D01*
X71337Y18097D01*
X71342Y18126D01*
X71335Y18162D01*
X71310Y18243D01*
X71275Y18326D01*
X71230Y18411D01*
X71175Y18499D01*
X71110Y18589D01*
X71035Y18681D01*
X70855Y18872D01*
X72255Y18872D01*
X72160Y18776D01*
D02*
G37*
%LPC*%
G36*
X59441Y37845D02*
X58895Y37736D01*
X58432Y37427D01*
X58122Y36964D01*
X58013Y36417D01*
X58122Y35871D01*
X58432Y35408D01*
X58895Y35099D01*
X59441Y34990D01*
X59987Y35099D01*
X60450Y35408D01*
X60760Y35871D01*
X60868Y36417D01*
X60760Y36964D01*
X60450Y37427D01*
X59987Y37736D01*
X59441Y37845D01*
D02*
G37*
G36*
X40196Y51843D02*
X39650Y51735D01*
X39187Y51425D01*
X38878Y50962D01*
X38769Y50416D01*
X38878Y49869D01*
X39187Y49406D01*
X39650Y49097D01*
X40196Y48988D01*
X40743Y49097D01*
X41206Y49406D01*
X41515Y49869D01*
X41624Y50416D01*
X41515Y50962D01*
X41206Y51425D01*
X40743Y51735D01*
X40196Y51843D01*
D02*
G37*
G36*
X36606Y48868D02*
X36060Y48760D01*
X35597Y48450D01*
X35287Y47987D01*
X35179Y47441D01*
X35287Y46895D01*
X35597Y46432D01*
X36060Y46122D01*
X36606Y46014D01*
X37153Y46122D01*
X37616Y46432D01*
X37925Y46895D01*
X38034Y47441D01*
X37925Y47987D01*
X37616Y48450D01*
X37153Y48760D01*
X36606Y48868D01*
D02*
G37*
G36*
X39559Y35876D02*
X39013Y35768D01*
X38550Y35458D01*
X38206D01*
X37743Y35768D01*
X37197Y35876D01*
X36651Y35768D01*
X36187Y35458D01*
X35878Y34995D01*
X35769Y34449D01*
X35878Y33903D01*
X36187Y33439D01*
X36651Y33130D01*
X37197Y33021D01*
X37743Y33130D01*
X38028Y33320D01*
X38378Y33400D01*
X38728Y33320D01*
X39013Y33130D01*
X39559Y33021D01*
X40105Y33130D01*
X40568Y33439D01*
X40878Y33903D01*
X40986Y34449D01*
X40878Y34995D01*
X40568Y35458D01*
X40105Y35768D01*
X39559Y35876D01*
D02*
G37*
%LPD*%
D20*
X17323Y51083D02*
D03*
Y47539D02*
D03*
X84744Y56299D02*
D03*
Y52756D02*
D03*
X21358Y85925D02*
D03*
Y82382D02*
D03*
D41*
X98819Y82480D02*
D03*
Y86024D02*
D03*
D42*
X64665Y72342D02*
D03*
X61122D02*
D03*
X13681Y34350D02*
D03*
X17224D02*
D03*
Y31398D02*
D03*
X13681D02*
D03*
D43*
X84744Y56299D02*
D03*
X88287D02*
D03*
X17815Y85925D02*
D03*
X21358D02*
D03*
X20866Y51083D02*
D03*
X17323D02*
D03*
X13878Y43996D02*
D03*
X17421D02*
D03*
X96172Y70079D02*
D03*
X92628D02*
D03*
D80*
X92743Y62400D02*
D03*
X81500Y114274D02*
D03*
X63987Y114800D02*
D03*
X67400Y114075D02*
D03*
X56000Y82900D02*
D03*
X53600Y83000D02*
D03*
X69500Y94800D02*
D03*
X68800Y83469D02*
D03*
X80800Y96400D02*
D03*
X64665Y91340D02*
D03*
X42955Y97650D02*
D03*
X43100Y92224D02*
D03*
X64300Y98500D02*
D03*
X64808Y83268D02*
D03*
X49000Y102910D02*
D03*
X57784Y95000D02*
D03*
X57100Y103000D02*
D03*
X55700Y89700D02*
D03*
X58300Y89600D02*
D03*
X49800Y114200D02*
D03*
X44071Y113431D02*
D03*
X70866Y76772D02*
D03*
X63683Y64564D02*
D03*
X68500Y63200D02*
D03*
X66142Y63189D02*
D03*
X72100Y74500D02*
D03*
X42900Y103000D02*
D03*
X58566Y79827D02*
D03*
X45700Y93700D02*
D03*
X81100Y98800D02*
D03*
X84055Y90748D02*
D03*
X85433Y99311D02*
D03*
X86122Y102663D02*
D03*
X35300Y90700D02*
D03*
Y88600D02*
D03*
X34800Y93300D02*
D03*
X47500Y96500D02*
D03*
X56405Y96900D02*
D03*
X11900Y89000D02*
D03*
X86200Y61200D02*
D03*
X31900Y101200D02*
D03*
X30500Y96400D02*
D03*
X27700Y94400D02*
D03*
X43100Y87900D02*
D03*
X40300Y102100D02*
D03*
X54921Y127165D02*
D03*
X44700Y83200D02*
D03*
X36600Y95100D02*
D03*
X86600Y114200D02*
D03*
X86417Y131004D02*
D03*
X90945Y114173D02*
D03*
X109449Y110630D02*
D03*
X113969Y108465D02*
D03*
X61300Y101181D02*
D03*
X41636Y114080D02*
D03*
X104035Y19783D02*
D03*
X99016D02*
D03*
X91437Y19685D02*
D03*
X31193Y53642D02*
D03*
X38772Y66929D02*
D03*
X44685Y60433D02*
D03*
X41724Y63583D02*
D03*
X38772D02*
D03*
X38780Y60433D02*
D03*
X44677Y70275D02*
D03*
Y73622D02*
D03*
X47630Y70275D02*
D03*
X50583Y73622D02*
D03*
Y70275D02*
D03*
X67716Y54724D02*
D03*
X31594Y93799D02*
D03*
X29921Y99213D02*
D03*
X26181D02*
D03*
X87598Y43504D02*
D03*
X74213Y41831D02*
D03*
X70866Y41732D02*
D03*
X92421Y102663D02*
D03*
X86555Y96850D02*
D03*
X81097Y102663D02*
D03*
X76185D02*
D03*
X81693Y39075D02*
D03*
X81496Y35827D02*
D03*
X80315Y32283D02*
D03*
X81205Y86717D02*
D03*
X75787Y83268D02*
D03*
X76283Y127368D02*
D03*
X50197Y130905D02*
D03*
X33858Y99213D02*
D03*
X16339Y53347D02*
D03*
Y55709D02*
D03*
X20872Y48819D02*
D03*
X21654Y46850D02*
D03*
X17815Y83661D02*
D03*
X19980Y88287D02*
D03*
X105315Y62992D02*
D03*
Y68898D02*
D03*
Y74803D02*
D03*
X97441Y89567D02*
D03*
Y95472D02*
D03*
X101378D02*
D03*
X97441Y102362D02*
D03*
X97244Y114173D02*
D03*
X106496D02*
D03*
X101378Y74803D02*
D03*
X105315Y53150D02*
D03*
Y48228D02*
D03*
Y43307D02*
D03*
Y38386D02*
D03*
Y32480D02*
D03*
X16043Y88976D02*
D03*
X30368Y83018D02*
D03*
X32777Y83961D02*
D03*
X31496Y79678D02*
D03*
X101279Y58071D02*
D03*
X18701Y114961D02*
D03*
X21358Y114075D02*
D03*
X15945D02*
D03*
X17618Y59744D02*
D03*
X24409Y86221D02*
D03*
X23228Y76279D02*
D03*
Y73622D02*
D03*
X20276Y71457D02*
D03*
X18996Y77264D02*
D03*
X19587Y43996D02*
D03*
X41724Y73622D02*
D03*
X38772Y70275D02*
D03*
X14665Y59055D02*
D03*
Y61122D02*
D03*
X82776Y130905D02*
D03*
X54429D02*
D03*
X12795D02*
D03*
X17913D02*
D03*
X101279Y131102D02*
D03*
X78937Y130905D02*
D03*
X70669D02*
D03*
X62500D02*
D03*
X58858D02*
D03*
X45472D02*
D03*
X36713D02*
D03*
X41142Y127165D02*
D03*
X32283D02*
D03*
X41724Y66929D02*
D03*
X44677D02*
D03*
X47630D02*
D03*
X38772Y73622D02*
D03*
X41724Y70275D02*
D03*
X47630Y73622D02*
D03*
X50583Y66929D02*
D03*
X8858Y12598D02*
D03*
X3929Y14961D02*
D03*
Y9843D02*
D03*
Y4331D02*
D03*
X19087Y4134D02*
D03*
X44087D02*
D03*
X37394D02*
D03*
X30307D02*
D03*
X26567D02*
D03*
X22827D02*
D03*
X54716D02*
D03*
X58063D02*
D03*
X51173D02*
D03*
X64953D02*
D03*
X68299D02*
D03*
X71646D02*
D03*
X74992D02*
D03*
X78535D02*
D03*
X81882D02*
D03*
X92512D02*
D03*
X96055D02*
D03*
X106685D02*
D03*
X102945D02*
D03*
X110228D02*
D03*
X113969D02*
D03*
Y9252D02*
D03*
Y14173D02*
D03*
X109449Y11811D02*
D03*
X113969Y25197D02*
D03*
Y34843D02*
D03*
Y30315D02*
D03*
Y42913D02*
D03*
Y38976D02*
D03*
Y47441D02*
D03*
Y51772D02*
D03*
Y56102D02*
D03*
Y60039D02*
D03*
Y64370D02*
D03*
Y68504D02*
D03*
Y76968D02*
D03*
Y81102D02*
D03*
Y85433D02*
D03*
Y89764D02*
D03*
Y94291D02*
D03*
Y98622D02*
D03*
Y103150D02*
D03*
Y72638D02*
D03*
X99402Y4134D02*
D03*
X85425D02*
D03*
X88968D02*
D03*
X61606D02*
D03*
X33850D02*
D03*
X47630D02*
D03*
X40740D02*
D03*
X7669D02*
D03*
X92520Y96850D02*
D03*
X11614Y113779D02*
D03*
X76378Y68898D02*
D03*
X25787Y68504D02*
D03*
X28740Y79134D02*
D03*
X39224Y20310D02*
D03*
X58329Y19601D02*
D03*
X89520Y89028D02*
D03*
X92323Y88976D02*
D03*
X68861Y47949D02*
D03*
X43752Y19244D02*
D03*
X36567Y8319D02*
D03*
X44244Y8614D02*
D03*
X101035Y87551D02*
D03*
X74953Y89815D02*
D03*
X101673Y127242D02*
D03*
X36606Y47441D02*
D03*
X48614Y42126D02*
D03*
X61803Y52559D02*
D03*
X28732Y76575D02*
D03*
X44677Y63583D02*
D03*
X8461Y110232D02*
D03*
X50583Y63583D02*
D03*
X47630D02*
D03*
X41732Y60433D02*
D03*
X47638D02*
D03*
X50591D02*
D03*
X3929Y24606D02*
D03*
Y30906D02*
D03*
Y36614D02*
D03*
Y42913D02*
D03*
Y48228D02*
D03*
Y53347D02*
D03*
Y58465D02*
D03*
Y63583D02*
D03*
Y68701D02*
D03*
Y73622D02*
D03*
Y78937D02*
D03*
Y83858D02*
D03*
Y88779D02*
D03*
Y93701D02*
D03*
Y98425D02*
D03*
Y102953D02*
D03*
Y108268D02*
D03*
X65161Y54433D02*
D03*
X8858Y14961D02*
D03*
X28339Y66732D02*
D03*
X89961Y71063D02*
D03*
X109449Y14370D02*
D03*
X28339Y64173D02*
D03*
Y61614D02*
D03*
X89173Y94291D02*
D03*
X7856Y127144D02*
D03*
X15945D02*
D03*
X99212Y79921D02*
D03*
X110236Y122047D02*
D03*
X107283Y127144D02*
D03*
X83327Y127185D02*
D03*
X7874Y134843D02*
D03*
X32283Y130905D02*
D03*
X41142D02*
D03*
X66732D02*
D03*
X75000D02*
D03*
X7874D02*
D03*
X7856Y64961D02*
D03*
Y88484D02*
D03*
X27953Y130905D02*
D03*
X110214Y41339D02*
D03*
X94099Y49904D02*
D03*
X54527Y44291D02*
D03*
X39559Y34449D02*
D03*
X30858Y19736D02*
D03*
X55858Y19441D02*
D03*
X27619Y19601D02*
D03*
X24731Y19510D02*
D03*
X17087Y19601D02*
D03*
X45238Y42142D02*
D03*
X39126Y114126D02*
D03*
X82138Y19638D02*
D03*
X22441Y98228D02*
D03*
X7874Y40354D02*
D03*
X29921Y134777D02*
D03*
X11122D02*
D03*
X15354D02*
D03*
X25787D02*
D03*
X34350D02*
D03*
X38681D02*
D03*
X43209D02*
D03*
X47835D02*
D03*
X51968D02*
D03*
X56595D02*
D03*
X60630D02*
D03*
X64370D02*
D03*
X68405D02*
D03*
X72736D02*
D03*
X76673D02*
D03*
X80610D02*
D03*
X87992Y134744D02*
D03*
X84252D02*
D03*
X36606Y44488D02*
D03*
X4331Y134843D02*
D03*
X12303Y83071D02*
D03*
X11713Y94685D02*
D03*
X3937Y119882D02*
D03*
Y130709D02*
D03*
Y126969D02*
D03*
Y123622D02*
D03*
X114173Y119685D02*
D03*
X104724Y131102D02*
D03*
X108268D02*
D03*
X111417D02*
D03*
X114173D02*
D03*
Y123622D02*
D03*
Y127362D02*
D03*
X102953Y134843D02*
D03*
X106496D02*
D03*
X109646D02*
D03*
X112795D02*
D03*
X99410Y55118D02*
D03*
Y48228D02*
D03*
Y38386D02*
D03*
Y43307D02*
D03*
X94488D02*
D03*
X101575Y114370D02*
D03*
X65354Y8465D02*
D03*
X71555Y19587D02*
D03*
X34055Y20472D02*
D03*
X36614Y19685D02*
D03*
X38976Y8858D02*
D03*
X28681Y8319D02*
D03*
X90551Y39764D02*
D03*
X11811Y75394D02*
D03*
Y80118D02*
D03*
X14370Y74016D02*
D03*
X48031Y35827D02*
D03*
X59441Y36417D02*
D03*
X24409Y88386D02*
D03*
X99114Y70768D02*
D03*
X101083Y64075D02*
D03*
X88287Y58563D02*
D03*
X82480Y67618D02*
D03*
X88976Y50197D02*
D03*
X42028Y42126D02*
D03*
X40196Y50416D02*
D03*
X35827Y114173D02*
D03*
X26772D02*
D03*
X37197Y34449D02*
D03*
X35630Y41142D02*
D03*
X21850Y40256D02*
D03*
Y43898D02*
D03*
X19291Y31398D02*
D03*
Y34350D02*
D03*
X22638Y37303D02*
D03*
X65653Y35238D02*
D03*
X64669Y38486D02*
D03*
X80905Y43996D02*
D03*
X69784Y38287D02*
D03*
X52953Y35433D02*
D03*
X43211Y35829D02*
D03*
X56306Y35450D02*
D03*
X56093Y41719D02*
D03*
X50495Y35632D02*
D03*
X68799Y19390D02*
D03*
X71252Y54921D02*
D03*
X72834Y57480D02*
D03*
X69265Y56612D02*
D03*
X59638Y48031D02*
D03*
X51173Y44882D02*
D03*
X54716Y47378D02*
D03*
X51370Y48228D02*
D03*
X57238Y47878D02*
D03*
X57302Y51878D02*
D03*
X59403Y53171D02*
D03*
X88900Y64037D02*
D03*
X16437Y95276D02*
D03*
X27954Y83469D02*
D03*
X79562Y57978D02*
D03*
X76083Y64173D02*
D03*
X78051Y65748D02*
D03*
X59055Y114961D02*
D03*
X69291Y101181D02*
D03*
X76122Y114075D02*
D03*
X71600Y114100D02*
D03*
X66047Y101285D02*
D03*
D91*
X90576Y50756D02*
X94600Y54779D01*
X90576Y49534D02*
Y50756D01*
X90551Y49509D02*
X90576Y49534D01*
X90551Y39764D02*
Y49509D01*
X87920Y89986D02*
X90799Y92865D01*
X87920Y70742D02*
Y89986D01*
Y70742D02*
X94600Y64061D01*
X82401Y90140D02*
X85938Y86603D01*
Y69682D02*
Y86603D01*
Y69682D02*
X90700Y64920D01*
X91600Y53214D02*
Y60226D01*
X90700Y61126D02*
X91600Y60226D01*
X90700Y61126D02*
Y64920D01*
X94600Y54779D02*
Y64061D01*
X91600Y71100D02*
X95600Y67100D01*
X92273Y51033D02*
X95600Y54360D01*
X92273Y37942D02*
Y51033D01*
X95600Y54360D02*
Y67100D01*
X90650Y54133D02*
Y59436D01*
X85138Y64948D02*
X90650Y59436D01*
X85138Y64948D02*
Y86271D01*
X88976Y50591D02*
X91600Y53214D01*
X82468Y71838D02*
Y82640D01*
X79168Y85939D02*
X82468Y82640D01*
X79168Y85939D02*
Y90319D01*
X76228Y93259D02*
X79168Y90319D01*
X75428Y92927D02*
X78369Y89987D01*
Y85533D02*
Y89987D01*
Y85533D02*
X81668Y82234D01*
X63583Y55905D02*
X65158Y54331D01*
X83698Y99816D02*
Y115147D01*
X81555Y117290D02*
X83698Y115147D01*
X81555Y117290D02*
Y119882D01*
X62353Y89028D02*
X64665Y91340D01*
X62353Y85668D02*
Y89028D01*
Y85668D02*
X63200Y84821D01*
Y79539D02*
Y84821D01*
X61221Y77559D02*
X63200Y79539D01*
X66751Y103500D02*
X67646Y102604D01*
X65398Y103500D02*
X66751D01*
X64211Y104687D02*
X65398Y103500D01*
X67646Y85617D02*
Y102604D01*
X66596Y84566D02*
X67646Y85617D01*
X66596Y77620D02*
Y84566D01*
X69500Y94735D02*
X70713Y93522D01*
X69500Y94735D02*
Y94800D01*
X71580Y93485D02*
Y97632D01*
X71513Y84148D02*
Y93418D01*
X71580Y93485D01*
X72313Y84479D02*
Y92853D01*
X73828Y94368D01*
Y99017D01*
X71260Y97953D02*
X71580Y97632D01*
X70713Y81255D02*
Y93522D01*
X74953Y86890D02*
Y89815D01*
X84498Y100147D02*
X85433Y99213D01*
X77569Y75197D02*
Y78032D01*
X71235Y68863D02*
X77569Y75197D01*
X71235Y54939D02*
Y68863D01*
X61319Y72342D02*
X66596Y77620D01*
X79412Y97788D02*
X80800Y96400D01*
X79412Y97788D02*
Y123738D01*
X82899Y92723D02*
Y99484D01*
X83699Y96270D02*
Y99815D01*
Y96270D02*
X84055Y95914D01*
Y90748D02*
Y95914D01*
X82898Y99484D02*
X82899Y99484D01*
X82401Y92224D02*
X82899Y92723D01*
X82898Y99484D02*
Y104503D01*
X83698Y99816D02*
X83699Y99815D01*
X61122Y72342D02*
X61319D01*
X64665Y91340D02*
Y91365D01*
X65900Y92600D01*
Y99163D01*
X72852Y56693D02*
Y57480D01*
X72313Y84479D02*
X78369Y78424D01*
X71513Y84148D02*
X71580Y84081D01*
Y84021D02*
Y84081D01*
Y84021D02*
X77569Y78032D01*
X37106Y93209D02*
X39948Y96050D01*
X43617D02*
X45200Y97633D01*
X39948Y96050D02*
X43617D01*
X65735Y56705D02*
X65945Y56496D01*
X67716Y54724D01*
X45200Y97633D02*
Y103200D01*
X46600Y97901D02*
Y108420D01*
X43028Y94329D02*
X46600Y97901D01*
X39358Y94329D02*
X43028D01*
X37906Y92877D02*
X39358Y94329D01*
X37906Y78606D02*
Y92877D01*
X37106Y78937D02*
Y93209D01*
X61836Y96036D02*
X64300Y98500D01*
X61836Y95645D02*
Y96036D01*
X61417Y96063D02*
X61836Y95645D01*
X58902Y103500D02*
X61563D01*
X65900Y99163D01*
X66700Y88562D02*
Y100631D01*
X65748Y87610D02*
X66700Y88562D01*
X66047Y101285D02*
X66700Y100631D01*
X56555Y105847D02*
X58902Y103500D01*
X65748Y87610D02*
X65773Y87584D01*
X58566Y74899D02*
Y79827D01*
X54425Y44189D02*
X55295Y43319D01*
X81601Y89808D02*
X85138Y86271D01*
X82401Y90140D02*
Y92224D01*
X81601Y89808D02*
Y92710D01*
X76555Y117347D02*
Y117539D01*
X34363Y75062D02*
X37906Y78606D01*
X33563Y75394D02*
X37106Y78937D01*
X41555Y106845D02*
X45200Y103200D01*
X41555Y106845D02*
Y108465D01*
X46555D02*
X46600Y108420D01*
X79268Y74213D02*
Y79787D01*
X78213Y40242D02*
X81027Y37427D01*
X82258D01*
X91555Y28130D01*
X75787Y83268D02*
X79268Y79787D01*
X91555Y25394D02*
Y28130D01*
X74114Y69059D02*
X79268Y74213D01*
X74114Y58475D02*
Y69059D01*
X78213Y40242D02*
Y54376D01*
X74114Y58475D02*
X78213Y54376D01*
X81413Y52988D02*
X84646Y49755D01*
Y40157D02*
Y49755D01*
Y40157D02*
X96555Y28248D01*
X80610Y68518D02*
X83268Y71176D01*
Y84654D01*
X81205Y86717D02*
X83268Y84654D01*
X96555Y25394D02*
Y28248D01*
X80610Y60827D02*
Y68518D01*
Y60827D02*
X81413Y60024D01*
Y52988D02*
Y60024D01*
X45632Y28728D02*
X47760Y26599D01*
X84498Y100147D02*
Y123769D01*
X70713Y81255D02*
X75000Y76968D01*
X41636Y114080D02*
Y114274D01*
X42510Y115148D01*
X44479D01*
X39126Y114618D02*
X41555Y117047D01*
X39126Y114126D02*
Y114618D01*
X36158Y56705D02*
X65735D01*
X34363Y58501D02*
X36158Y56705D01*
X34363Y58501D02*
Y75062D01*
X65150Y53997D02*
Y54331D01*
X35827Y55905D02*
X63583D01*
X33563Y58169D02*
X35827Y55905D01*
X33563Y58169D02*
Y75394D01*
X76378Y66635D02*
X78128Y68385D01*
X72834Y69269D02*
X78369Y74803D01*
X70104Y68996D02*
X75000Y73892D01*
Y76968D01*
X78369Y74803D02*
Y78424D01*
X70104Y57452D02*
Y68996D01*
X72852Y56693D02*
X77413Y52132D01*
X67716Y54135D02*
X74213Y47639D01*
X69652Y53740D02*
Y56225D01*
X67716Y54135D02*
Y54724D01*
X78051Y67177D02*
X78928Y68054D01*
X78128Y68385D02*
Y69761D01*
X78928Y68054D02*
Y69430D01*
X79728Y69098D02*
X82468Y71838D01*
X78928Y69430D02*
X81668Y72169D01*
X78128Y69761D02*
X80868Y72500D01*
X46555Y16831D02*
X48612Y18887D01*
X82480Y55020D02*
X84744Y52756D01*
X87205Y50688D02*
X90650Y54133D01*
X79813Y45975D02*
Y55129D01*
X83650Y39567D02*
Y49029D01*
X87205Y43897D02*
X87598Y43504D01*
X79013Y41755D02*
X81693Y39075D01*
X74213Y41831D02*
Y47639D01*
Y36123D02*
Y41831D01*
X72466Y37033D02*
Y46680D01*
X69685Y42913D02*
X70866Y41732D01*
X69652Y53740D02*
X75813Y47579D01*
X69882Y34449D02*
X72466Y37033D01*
X65150Y53997D02*
X72466Y46680D01*
X80613Y52067D02*
Y56592D01*
X83650Y39567D02*
X93892Y29325D01*
X80613Y52067D02*
X83650Y49029D01*
X85585Y40703D02*
X95135Y31154D01*
X84744Y52756D02*
X85585Y51915D01*
Y40703D02*
Y51915D01*
X91555Y117209D02*
X94021Y114743D01*
X92520Y96850D02*
X94021Y98352D01*
Y114743D01*
X89973Y96200D02*
X90799Y95374D01*
Y92865D02*
Y95374D01*
X89973Y96200D02*
Y104245D01*
X91555Y105827D01*
X77812Y95368D02*
X80709Y92471D01*
X77461Y85309D02*
Y87598D01*
X77450Y87609D02*
Y89580D01*
X74628Y92402D02*
X77450Y89580D01*
Y87609D02*
X77461Y87598D01*
X80709Y89476D02*
X84068Y86117D01*
X80709Y89476D02*
Y92471D01*
X84080Y56963D02*
Y68504D01*
Y56963D02*
X84744Y56299D01*
X75946Y57864D02*
X79013Y54798D01*
X76613Y38348D02*
X82874Y32087D01*
X75813Y36786D02*
X80315Y32283D01*
X74213Y36123D02*
X80208Y30128D01*
X79134Y19094D02*
Y29828D01*
X81668Y72169D02*
Y82234D01*
X76378Y69142D02*
X80068Y72832D01*
X76378Y68898D02*
Y69142D01*
X80068Y72832D02*
Y81451D01*
X80868Y72500D02*
Y81902D01*
X84068Y68516D02*
Y86117D01*
Y68516D02*
X84080Y68504D01*
X87205Y43897D02*
Y50688D01*
X77461Y85309D02*
X80868Y81902D01*
X74882Y86637D02*
X80068Y81451D01*
X74882Y86637D02*
Y86890D01*
X80216Y124902D02*
X83366D01*
X79702Y125416D02*
X80216Y124902D01*
X75371Y125416D02*
X79702D01*
X74114Y126673D02*
X75371Y125416D01*
X60532Y126673D02*
X74114D01*
X74221Y124616D02*
X78534D01*
X72632Y125073D02*
X74498Y123207D01*
X68971Y125073D02*
X72632D01*
X72964Y125873D02*
X74221Y124616D01*
X64751Y125873D02*
X72964D01*
X78534Y124616D02*
X79412Y123738D01*
X66555Y122658D02*
X68971Y125073D01*
X61555Y122677D02*
X64751Y125873D01*
X56555Y122697D02*
X60532Y126673D01*
X53750Y113198D02*
X63090D01*
X25222Y70201D02*
Y74088D01*
X19980Y87303D02*
Y88287D01*
X23007Y80734D02*
X30440D01*
X21358Y82382D02*
X23007Y80734D01*
X30440D02*
X31496Y79678D01*
X61122Y67421D02*
Y72342D01*
Y67421D02*
X61221Y67323D01*
X58566Y74899D02*
X61122Y72342D01*
X18996Y73622D02*
Y77264D01*
X10335Y57460D02*
Y64961D01*
X18996Y73622D01*
X16555Y117106D02*
X18701Y114961D01*
X23524Y75786D02*
X25222Y74088D01*
X27132Y75721D02*
Y77526D01*
X64921Y86732D02*
X65773Y87584D01*
X27132Y77526D02*
X28740Y79134D01*
X49213Y124803D02*
X51555Y122461D01*
Y119882D02*
Y122461D01*
X93892Y19498D02*
Y29325D01*
Y19498D02*
X96016Y17374D01*
X88698Y9795D02*
Y29519D01*
X87813Y8909D02*
X88698Y9795D01*
X78890Y8909D02*
X87813D01*
X76555Y11244D02*
X78890Y8909D01*
X76555Y11244D02*
Y13976D01*
Y14311D02*
Y16752D01*
X86555Y14311D02*
Y18603D01*
X84498Y20660D02*
X86555Y18603D01*
X84498Y20660D02*
Y28719D01*
X98575Y31154D02*
X101555Y28173D01*
Y25394D02*
Y28173D01*
X104035Y114469D02*
X106555Y116988D01*
X103740Y98139D02*
X104734Y99133D01*
X103740Y89764D02*
Y98139D01*
Y84350D02*
Y89764D01*
X100937Y81547D02*
X103740Y84350D01*
X100937Y78594D02*
Y81547D01*
X98870Y76528D02*
X100937Y78594D01*
X96213Y76528D02*
X98870D01*
X95275Y75590D02*
X96213Y76528D01*
X95275Y74606D02*
Y75590D01*
X93307Y73528D02*
Y74606D01*
Y73528D02*
X94305Y72530D01*
X96742D01*
X67468Y46556D02*
X68861Y47949D01*
X67468Y46413D02*
Y46556D01*
X66134Y45079D02*
X67468Y46413D01*
X43752Y19426D02*
Y29658D01*
X19498Y9765D02*
X22544Y6719D01*
X30944Y8319D02*
X36567D01*
X44244Y8614D02*
Y8800D01*
X41555Y11489D02*
X44244Y8800D01*
X41555Y11489D02*
Y13976D01*
X103740Y79528D02*
X106496Y82283D01*
X96742Y72530D02*
X103740Y79528D01*
X106496Y108405D02*
X106555Y108465D01*
X63976Y45661D02*
X65362Y47047D01*
X61803Y52559D02*
Y53157D01*
X65362Y47047D02*
X65748D01*
X51555Y14311D02*
Y16516D01*
X53937Y18898D01*
X46555Y14311D02*
Y16831D01*
X81555Y14311D02*
Y16673D01*
X79134Y19094D02*
X81555Y16673D01*
X65748Y45079D02*
X66134D01*
X31555Y20433D02*
Y25394D01*
X30858Y19736D02*
X31555Y20433D01*
X55858Y16594D02*
Y19441D01*
Y16594D02*
X56555Y15898D01*
X26555Y20665D02*
Y25394D01*
Y20665D02*
X27619Y19601D01*
X21555Y19113D02*
X23612Y21170D01*
X21555Y13976D02*
Y19113D01*
X16555Y20133D02*
X17087Y19601D01*
X16555Y20133D02*
Y25394D01*
X19498Y9765D02*
Y20384D01*
X21555Y22441D01*
Y25394D01*
X83090Y30128D02*
X84498Y28719D01*
X53917Y25366D02*
X53937Y25346D01*
X44479Y115148D02*
X46555Y117225D01*
X5807Y52933D02*
X10335Y57460D01*
X104035Y103299D02*
Y114469D01*
Y103299D02*
X104734Y102601D01*
Y99133D02*
Y102601D01*
X71555Y13976D02*
Y19587D01*
X14370Y94391D02*
X14395Y94416D01*
Y96628D01*
X13976Y97047D02*
X14395Y96628D01*
X13976Y97047D02*
Y124016D01*
X14764Y124803D01*
X49213D01*
X31555Y13976D02*
Y16569D01*
X65354Y8465D02*
Y12776D01*
X66555Y13976D01*
X71555Y19587D02*
X71555D01*
X61555Y13976D02*
Y16673D01*
X31555Y16569D02*
X33696Y18710D01*
X35246D01*
X36220Y19685D01*
X36614D01*
X36555Y11280D02*
Y13976D01*
Y11280D02*
X38976Y8858D01*
X26555Y11043D02*
X28681Y8917D01*
Y8319D02*
Y8917D01*
X26555Y11043D02*
Y13976D01*
X80208Y30128D02*
X83090D01*
X95472Y34449D02*
Y34743D01*
X92273Y37942D02*
X95472Y34743D01*
X86131Y32087D02*
X88698Y29519D01*
X95135Y31154D02*
X98575D01*
X82874Y32087D02*
X86131D01*
X14370Y74016D02*
Y94391D01*
X53937Y18898D02*
Y25346D01*
X13583Y19587D02*
X16555Y16614D01*
Y13976D02*
Y16614D01*
X11094Y19587D02*
X13583D01*
X5807Y24873D02*
X11094Y19587D01*
X5807Y24873D02*
Y52933D01*
X51555Y108465D02*
Y111004D01*
X53750Y113198D01*
X71555Y107283D02*
X72812Y106027D01*
X69685Y42913D02*
Y44488D01*
X82480Y55020D02*
Y67618D01*
X27730Y30487D02*
Y30487D01*
X23622Y28740D02*
Y29595D01*
X23090Y30128D02*
X23622Y29595D01*
X23612Y21170D02*
Y28740D01*
X21054Y31407D02*
X22333Y30128D01*
X23090D01*
X24187Y67841D02*
Y69167D01*
X25222Y70201D01*
X24187Y67841D02*
X25394Y66635D01*
X28339Y66732D02*
X29939Y65132D01*
X27132Y75721D02*
X31594Y71259D01*
X28732Y76575D02*
X32480Y72827D01*
X26229Y59505D02*
X28339Y61614D01*
X29939Y65132D02*
X29947D01*
X30738Y64340D01*
X28543Y64173D02*
X28561D01*
X29939Y62795D01*
X28339Y64173D02*
X28441Y64071D01*
X29100Y60005D02*
X29939Y60844D01*
Y62795D01*
X27029Y57935D02*
X29100Y60005D01*
Y60005D01*
X30738Y60513D02*
Y64340D01*
X31594Y60237D02*
Y71259D01*
X32480Y59992D02*
Y72827D01*
X27042Y31176D02*
X27730Y30487D01*
X24498Y20024D02*
Y29715D01*
X25585Y30801D01*
Y30801D01*
X26239Y31456D01*
X22558Y35639D02*
X23828D01*
X21054Y31407D02*
Y34135D01*
X22558Y35639D01*
X26239Y31456D02*
Y34097D01*
X27042Y31176D02*
Y34426D01*
X26229Y34108D02*
X26239Y34097D01*
X27029Y34439D02*
X27042Y34426D01*
X23828Y35639D02*
X25394Y37205D01*
Y66635D01*
X26229Y34108D02*
Y59505D01*
X27029Y34439D02*
Y57935D01*
X27854Y57629D02*
X30738Y60513D01*
X28654Y57297D02*
X31594Y60237D01*
X29454Y56966D02*
X32480Y59992D01*
X27854Y35424D02*
Y57629D01*
X39469Y30315D02*
X40945Y28839D01*
X34055Y20472D02*
X34154Y20571D01*
X28654Y35755D02*
X30691Y33718D01*
X28654Y35755D02*
Y57297D01*
X29454Y36086D02*
Y56966D01*
X36555Y25394D02*
Y27913D01*
X27854Y35424D02*
X30360Y32918D01*
X30369D01*
X34154Y29134D01*
Y20571D02*
Y29134D01*
X29454Y36086D02*
X31023Y34518D01*
X30691Y33718D02*
X30701D01*
X31023Y34518D02*
X31032D01*
X35235Y30315D01*
X39469D01*
X35925Y28346D02*
Y28494D01*
X30701Y33718D02*
X35925Y28494D01*
X77413Y39320D02*
X80905Y35827D01*
X81496D01*
X88976Y50197D02*
Y50591D01*
X19980Y87303D02*
X21358Y85925D01*
X63976Y42354D02*
Y45661D01*
Y42354D02*
X66268Y40062D01*
X65748Y43110D02*
X67313Y41545D01*
X65653Y35238D02*
Y36814D01*
X66268Y37430D01*
Y40062D01*
X75813Y36786D02*
Y47579D01*
X76613Y38348D02*
Y49560D01*
X77413Y39320D02*
Y52132D01*
X79013Y41755D02*
Y54798D01*
X79813Y45975D02*
X80905Y44882D01*
Y43996D02*
Y44882D01*
X64669Y36913D02*
Y38486D01*
X61555Y16673D02*
X63681Y18799D01*
Y35925D01*
X64669Y36913D01*
X61122Y6719D02*
X64498Y10095D01*
X22544Y6719D02*
X61122D01*
X64498Y10095D02*
Y30837D01*
X67313Y33652D01*
Y41545D01*
X69882Y34449D02*
X74513D01*
X79134Y29828D01*
X53937Y25346D02*
Y33661D01*
X54603Y34328D01*
Y40635D01*
X43752Y29658D02*
X44831Y30738D01*
X46431Y32013D02*
X48612Y29833D01*
Y18887D02*
Y29833D01*
X54603Y40635D02*
X55688Y41719D01*
X61996Y43319D02*
X62205Y43110D01*
X55295Y43319D02*
X61996D01*
X55688Y41719D02*
X56093D01*
X54619Y53740D02*
X58834D01*
X46431Y32013D02*
Y37376D01*
X52928Y43872D01*
X45632Y28728D02*
Y39824D01*
X46850Y41043D01*
Y45971D01*
X43638Y41205D02*
Y43933D01*
Y41205D02*
X44831Y40011D01*
Y30738D02*
Y40011D01*
X71235Y54939D02*
X71252Y54921D01*
X76613Y49560D01*
X72834Y57480D02*
Y69269D01*
X69265Y56612D02*
X69652Y56225D01*
X69265Y56612D02*
X70104Y57452D01*
X43638Y43933D02*
X54626Y54921D01*
X46850Y45971D02*
X54619Y53740D01*
X52928Y43872D02*
Y47523D01*
X52970Y47565D01*
Y48639D01*
X56209Y51878D01*
X57302D01*
X54626Y54921D02*
X60039D01*
X61803Y53157D01*
X58834Y53740D02*
X59403Y53171D01*
X27730Y30487D02*
X29219Y28998D01*
Y10044D02*
Y28998D01*
Y10044D02*
X30944Y8319D01*
X75946Y57864D02*
Y64037D01*
X76378Y64468D02*
Y66635D01*
X79562Y57643D02*
X80613Y56592D01*
X79562Y57643D02*
Y57978D01*
X79728Y58144D01*
X77461Y57481D02*
X79813Y55129D01*
X77461Y57481D02*
Y58661D01*
X78051Y59252D01*
X79728Y58144D02*
Y69098D01*
X78051Y59252D02*
Y65748D01*
Y67177D01*
X75946Y64037D02*
X76083Y64173D01*
X76378Y64468D01*
X61417Y96063D02*
Y97244D01*
X69291Y99921D02*
Y101181D01*
Y99921D02*
X71260Y97953D01*
X63090Y113198D02*
X64211Y112077D01*
Y104687D02*
Y112077D01*
X61555Y105768D02*
Y106161D01*
X74628Y92402D02*
Y99387D01*
X75428Y92927D02*
Y99719D01*
X76228Y93259D02*
Y100050D01*
X74498Y101780D02*
X76228Y100050D01*
X72812Y101204D02*
Y106027D01*
Y101204D02*
X74628Y99387D01*
X66555Y105886D02*
X69019Y103422D01*
X69423D01*
X73828Y99017D01*
X71555Y117228D02*
X73647Y115136D01*
X74498Y101780D02*
Y123207D01*
X73647Y101500D02*
X75428Y99719D01*
X73647Y101500D02*
Y115136D01*
X77812Y95368D02*
Y107208D01*
X76555Y108465D02*
X77812Y107208D01*
X106496Y82283D02*
Y108405D01*
X46555Y117225D02*
Y119882D01*
X91555Y105827D02*
Y108465D01*
X76555Y117539D02*
Y119882D01*
X66555Y105886D02*
Y108465D01*
X61555Y106161D02*
Y108465D01*
X106555Y116988D02*
Y119882D01*
X61555D02*
Y122677D01*
Y117185D02*
Y119882D01*
X16555Y117106D02*
Y119882D01*
X66555D02*
Y122658D01*
Y117209D02*
Y119882D01*
X41555Y117047D02*
Y119882D01*
X86555Y117091D02*
Y119882D01*
X71555Y117228D02*
Y119882D01*
X56555Y105847D02*
Y108465D01*
X91555Y117209D02*
Y119882D01*
X56555D02*
Y122697D01*
Y117071D02*
Y119882D01*
X83366Y124902D02*
X84498Y123769D01*
X76555Y117539D02*
X78612Y115483D01*
X86555Y117091D02*
X89173Y114473D01*
Y94291D02*
Y114473D01*
X78612Y95699D02*
X81601Y92710D01*
X78612Y95699D02*
Y115483D01*
X82284Y105118D02*
X82898Y104503D01*
X66047Y101285D02*
Y101670D01*
X61555Y106161D02*
X66047Y101670D01*
X91338Y72761D02*
Y74606D01*
X91600Y71100D02*
Y72500D01*
X91338Y72761D02*
X91600Y72500D01*
D92*
X86555Y108465D02*
X87772Y107248D01*
X86555Y96850D02*
X87772Y98067D01*
Y107248D01*
X22785Y37156D02*
X24409Y38780D01*
X22736Y37106D02*
X22785Y37156D01*
X23228Y73531D02*
Y73622D01*
Y73531D02*
X23330Y73429D01*
X23337Y73436D01*
X60622Y47047D02*
X62205D01*
X60037Y45079D02*
X62205D01*
X23337Y67214D02*
Y73436D01*
Y67214D02*
X24409Y66142D01*
Y38780D02*
Y66142D01*
X59638Y48031D02*
X60622Y47047D01*
X57238Y47878D02*
X60037Y45079D01*
D94*
X99213Y79921D02*
Y82480D01*
X98405Y130453D02*
X99055Y131102D01*
X95275Y86024D02*
X99212D01*
X101279Y58071D02*
X104724D01*
X99055Y131102D02*
X101279D01*
X89370Y88878D02*
X89520Y89028D01*
X89370Y86024D02*
Y88878D01*
X91338Y87992D02*
X92323Y88976D01*
X91338Y86024D02*
Y87992D01*
X92323Y88976D02*
X93307Y87992D01*
X100937Y87551D02*
X101035D01*
X99409Y86024D02*
X100937Y87551D01*
X89370Y71653D02*
Y74606D01*
Y71653D02*
X89961Y71063D01*
X93307Y86024D02*
Y87992D01*
X99212Y86024D02*
X99213Y86024D01*
X99409D01*
X99212Y79921D02*
X99213Y79921D01*
X94099Y49904D02*
X94786D01*
X96850Y51968D01*
X97539Y70768D02*
X99114D01*
X96850Y70079D02*
X97539Y70768D01*
X99114D02*
X99311Y70571D01*
Y68799D02*
Y70571D01*
Y68799D02*
X100197Y67913D01*
X88287Y56299D02*
Y58563D01*
X17815Y83661D02*
Y85925D01*
D95*
X19587Y31201D02*
Y31398D01*
X17276Y37059D02*
X19342D01*
X17177Y34106D02*
X17421Y34350D01*
X11555Y108465D02*
Y113721D01*
X11614Y113779D01*
X19342Y37059D02*
X19441Y37157D01*
X19539Y31154D02*
X19587Y31201D01*
X17421Y34350D02*
X19291D01*
X17224Y31398D02*
X19291D01*
X19587D01*
D96*
X70276Y72342D02*
X71857Y73924D01*
X64665Y72342D02*
X70276D01*
D97*
X20472Y48031D02*
X20872Y48819D01*
X20472Y48031D02*
X21654Y46850D01*
X18504Y40256D02*
X21850D01*
X8858Y12598D02*
X11614D01*
X8858D02*
Y14961D01*
X19587Y43950D02*
Y43996D01*
Y43950D02*
X21798D01*
X16339Y53347D02*
Y55709D01*
Y52067D02*
Y53347D01*
X20872Y48819D02*
Y50689D01*
X20866Y51083D02*
X20872Y50689D01*
X16339Y52067D02*
X17323Y51083D01*
Y44094D02*
X17421Y43996D01*
X17323Y44094D02*
Y47539D01*
X19587Y43996D02*
X19973D01*
X17421D02*
X19587D01*
X11555Y129665D02*
X12795Y130905D01*
X11417Y12795D02*
X11614Y12598D01*
X106949Y14370D02*
X109449D01*
X109055Y13976D02*
X109449Y14370D01*
X106555Y13976D02*
X109055D01*
X106555D02*
X106949Y14370D01*
X106555Y11949D02*
Y13976D01*
Y11949D02*
X106890Y11614D01*
X107087Y11811D01*
X11555Y28976D02*
X13732Y31154D01*
X11555Y25394D02*
Y28976D01*
X13634Y31252D02*
X13732Y31154D01*
X13634Y34106D02*
X13732Y34205D01*
Y40307D02*
X13780Y40354D01*
X10571Y14961D02*
X11555Y13976D01*
X8858Y14961D02*
X10571D01*
X107087Y11811D02*
X109449D01*
Y14370D01*
X11555Y119882D02*
Y129665D01*
X12205Y38878D02*
X13634Y37449D01*
X12205Y38878D02*
X13878Y40551D01*
Y43996D01*
X101555Y119882D02*
Y127124D01*
X101673Y127242D01*
X101555Y119882D02*
X101575Y119862D01*
X21798Y43950D02*
X21850Y43898D01*
X101575Y114370D02*
Y119862D01*
X13732Y31154D02*
Y32579D01*
X13634Y31252D02*
Y34106D01*
Y37449D01*
X13732Y34205D02*
Y40307D01*
D98*
X5307Y19685D02*
D03*
X112803D02*
D03*
X5307Y114173D02*
D03*
X112803D02*
D03*
D99*
X100787Y151969D02*
D03*
D100*
X90787Y141969D02*
D03*
X110787D02*
D03*
X90787Y161969D02*
D03*
X110787D02*
D03*
D101*
X93878Y125925D02*
D03*
X47800Y89700D02*
D03*
X50100Y90800D02*
D03*
D102*
X101555Y100807D02*
X102165Y100197D01*
X101555Y100807D02*
Y108465D01*
D103*
X93878Y125925D02*
G03*
X98405Y130453I0J4528D01*
G01*
D02*
G03*
X93878Y125925I-4528J0D01*
G01*
D104*
X32087Y37087D02*
D03*
X69882Y34449D02*
D03*
X13150Y5709D02*
D03*
X23622Y33071D02*
D03*
X61221Y67323D02*
D03*
X95472Y34449D02*
D03*
X103740Y89764D02*
D03*
Y79528D02*
D03*
X96850Y51968D02*
D03*
X102165Y100197D02*
D03*
X104724Y58071D02*
D03*
X100197Y67913D02*
D03*
X109646Y49213D02*
D03*
X61417Y96063D02*
D03*
X64921Y86732D02*
D03*
X74882Y86890D02*
D03*
X61221Y77559D02*
D03*
X75000Y76968D02*
D03*
X69685Y44488D02*
D03*
X71260Y97953D02*
D03*
D105*
X12205Y38976D02*
D03*
X18504D02*
D03*
D106*
X11555Y13976D02*
D03*
Y25394D02*
D03*
X16555Y13976D02*
D03*
Y25394D02*
D03*
X21555Y13976D02*
D03*
Y25394D02*
D03*
X26555Y13976D02*
D03*
Y25394D02*
D03*
X31555Y13976D02*
D03*
Y25394D02*
D03*
X36555Y13976D02*
D03*
Y25394D02*
D03*
X41555Y13976D02*
D03*
Y25394D02*
D03*
X46555Y13976D02*
D03*
Y25394D02*
D03*
X51555Y13976D02*
D03*
Y25394D02*
D03*
X56555Y13976D02*
D03*
Y25394D02*
D03*
X61555Y13976D02*
D03*
Y25394D02*
D03*
X66555Y13976D02*
D03*
Y25394D02*
D03*
X71555Y13976D02*
D03*
Y25394D02*
D03*
X76555Y13976D02*
D03*
Y25394D02*
D03*
X81555Y13976D02*
D03*
Y25394D02*
D03*
X86555Y13976D02*
D03*
Y25394D02*
D03*
X91555Y13976D02*
D03*
Y25394D02*
D03*
X96555Y13976D02*
D03*
Y25394D02*
D03*
X101555Y13976D02*
D03*
Y25394D02*
D03*
X106555Y13976D02*
D03*
Y25394D02*
D03*
X11555Y108465D02*
D03*
Y119882D02*
D03*
X16555Y108465D02*
D03*
Y119882D02*
D03*
X21555Y108465D02*
D03*
Y119882D02*
D03*
X26555Y108465D02*
D03*
Y119882D02*
D03*
X31555Y108465D02*
D03*
Y119882D02*
D03*
X36555Y108465D02*
D03*
Y119882D02*
D03*
X41555Y108465D02*
D03*
Y119882D02*
D03*
X46555Y108465D02*
D03*
Y119882D02*
D03*
X51555Y108465D02*
D03*
Y119882D02*
D03*
X56555Y108465D02*
D03*
Y119882D02*
D03*
X61555Y108465D02*
D03*
Y119882D02*
D03*
X66555Y108465D02*
D03*
Y119882D02*
D03*
X71555Y108465D02*
D03*
Y119882D02*
D03*
X76555Y108465D02*
D03*
Y119882D02*
D03*
X81555Y108465D02*
D03*
Y119882D02*
D03*
X86555Y108465D02*
D03*
Y119882D02*
D03*
X91555Y108465D02*
D03*
Y119882D02*
D03*
X96555Y108465D02*
D03*
Y119882D02*
D03*
X101555Y108465D02*
D03*
Y119882D02*
D03*
X106555Y108465D02*
D03*
Y119882D02*
D03*
D107*
X92323Y80315D02*
D03*
D108*
X89370Y74606D02*
D03*
X91338D02*
D03*
X93307D02*
D03*
X95275D02*
D03*
Y86024D02*
D03*
X93307D02*
D03*
X91338D02*
D03*
X89370D02*
D03*
D109*
X65748Y43110D02*
D03*
Y49016D02*
D03*
X62205Y43110D02*
D03*
Y49016D02*
D03*
D110*
X65748Y45079D02*
D03*
Y47047D02*
D03*
X62205Y45079D02*
D03*
Y47047D02*
D03*
D111*
X93878Y130453D02*
D03*
M02*
