G04*
G04 #@! TF.GenerationSoftware,Altium Limited,Altium Designer,19.0.15 (446)*
G04*
G04 Layer_Color=0*
%FSLAX25Y25*%
%MOIN*%
G70*
G01*
G75*
%ADD95C,0.01000*%
%ADD121C,0.00591*%
D95*
X359866Y3041530D02*
Y3032478D01*
X365901D01*
X368918D02*
X371936D01*
X370427D01*
Y3041530D01*
X368918Y3040022D01*
X385514Y3035496D02*
X391549D01*
X385514Y3038513D02*
X391549D01*
X394566Y3035496D02*
X400601D01*
X394566Y3038513D02*
X400601D01*
X403618Y3035496D02*
X409653D01*
X403618Y3038513D02*
X409653D01*
X412671Y3035496D02*
X418705D01*
X412671Y3038513D02*
X418705D01*
X421723Y3035496D02*
X427758D01*
X421723Y3038513D02*
X427758D01*
X359866Y3073026D02*
X365901D01*
X362883D01*
Y3063974D01*
X373444Y3073026D02*
X370427D01*
X368918Y3071518D01*
Y3065483D01*
X370427Y3063974D01*
X373444D01*
X374953Y3065483D01*
Y3071518D01*
X373444Y3073026D01*
X377971Y3063974D02*
Y3073026D01*
X382497D01*
X384005Y3071518D01*
Y3068500D01*
X382497Y3066992D01*
X377971D01*
X396075D02*
X402110D01*
X396075Y3070009D02*
X402110D01*
X405127Y3066992D02*
X411162D01*
X405127Y3070009D02*
X411162D01*
X414179Y3066992D02*
X420214D01*
X414179Y3070009D02*
X420214D01*
X423231Y3066992D02*
X429266D01*
X423231Y3070009D02*
X429266D01*
X430732Y3057278D02*
Y3048226D01*
X444311Y3057278D02*
Y3048226D01*
X448837D02*
X454871Y3054261D01*
X457889Y3048226D02*
X463924Y3054261D01*
X475993Y3048226D02*
Y3057278D01*
X480519D01*
X482028Y3055770D01*
Y3052752D01*
X480519Y3051244D01*
X475993D01*
X485045Y3048226D02*
Y3057278D01*
X489572D01*
X491080Y3055770D01*
Y3052752D01*
X489572Y3051244D01*
X485045D01*
X488063D02*
X491080Y3048226D01*
X500132Y3057278D02*
X494098D01*
Y3048226D01*
X500132D01*
X494098Y3052752D02*
X497115D01*
X503150Y3048226D02*
Y3057278D01*
X507676D01*
X509185Y3055770D01*
Y3052752D01*
X507676Y3051244D01*
X503150D01*
X512202Y3048226D02*
Y3057278D01*
X516728D01*
X518237Y3055770D01*
Y3052752D01*
X516728Y3051244D01*
X512202D01*
X515219D02*
X518237Y3048226D01*
X527289Y3057278D02*
X521254D01*
Y3048226D01*
X527289D01*
X521254Y3052752D02*
X524271D01*
X536341Y3055770D02*
X534832Y3057278D01*
X531815D01*
X530306Y3055770D01*
Y3049735D01*
X531815Y3048226D01*
X534832D01*
X536341Y3049735D01*
Y3052752D01*
X533324D01*
X549919Y3048226D02*
X552937D01*
X554446Y3049735D01*
Y3052752D01*
X552937Y3054261D01*
X549919D01*
X548411Y3052752D01*
Y3049735D01*
X549919Y3048226D01*
X557463Y3054261D02*
Y3048226D01*
Y3051244D01*
X558972Y3052752D01*
X560480Y3054261D01*
X561989D01*
X581602Y3055770D02*
X580093Y3057278D01*
X577076D01*
X575567Y3055770D01*
Y3049735D01*
X577076Y3048226D01*
X580093D01*
X581602Y3049735D01*
X589146Y3057278D02*
X586128D01*
X584620Y3055770D01*
Y3049735D01*
X586128Y3048226D01*
X589146D01*
X590654Y3049735D01*
Y3055770D01*
X589146Y3057278D01*
X593672Y3048226D02*
Y3057278D01*
X598198D01*
X599707Y3055770D01*
Y3052752D01*
X598198Y3051244D01*
X593672D01*
X596689D02*
X599707Y3048226D01*
X608759Y3057278D02*
X602724D01*
Y3048226D01*
X608759D01*
X602724Y3052752D02*
X605741D01*
X620828Y3048226D02*
X626863Y3054261D01*
X629880Y3048226D02*
X635915Y3054261D01*
X638933Y3048226D02*
X644967Y3054261D01*
X647985Y3048226D02*
X654020Y3054261D01*
X657037Y3048226D02*
X663072Y3054261D01*
X666089Y3048226D02*
X672124Y3054261D01*
X684194Y3055770D02*
X685702Y3057278D01*
X688720D01*
X690228Y3055770D01*
Y3054261D01*
X688720Y3052752D01*
X687211D01*
X688720D01*
X690228Y3051244D01*
Y3049735D01*
X688720Y3048226D01*
X685702D01*
X684194Y3049735D01*
X693246Y3055770D02*
X694754Y3057278D01*
X697772D01*
X699281Y3055770D01*
Y3049735D01*
X697772Y3048226D01*
X694754D01*
X693246Y3049735D01*
Y3055770D01*
X702298D02*
X703807Y3057278D01*
X706824D01*
X708333Y3055770D01*
Y3049735D01*
X706824Y3048226D01*
X703807D01*
X702298Y3049735D01*
Y3055770D01*
X711350Y3054261D02*
Y3049735D01*
X712859Y3048226D01*
X717385D01*
Y3054261D01*
X720402Y3048226D02*
Y3054261D01*
X721911D01*
X723420Y3052752D01*
Y3048226D01*
Y3052752D01*
X724928Y3054261D01*
X726437Y3052752D01*
Y3048226D01*
X430732Y3073026D02*
Y3063974D01*
X444311Y3073026D02*
Y3063974D01*
X448837Y3066992D02*
X454871D01*
X448837Y3070009D02*
X454871D01*
X457889Y3066992D02*
X463924D01*
X457889Y3070009D02*
X463924D01*
X466941Y3066992D02*
X472976D01*
X466941Y3070009D02*
X472976D01*
X475993Y3066992D02*
X482028D01*
X475993Y3070009D02*
X482028D01*
X485045Y3066992D02*
X491080D01*
X485045Y3070009D02*
X491080D01*
X494098Y3066992D02*
X500132D01*
X494098Y3070009D02*
X500132D01*
X503150Y3066992D02*
X509185D01*
X503150Y3070009D02*
X509185D01*
X512202Y3066992D02*
X518237D01*
X512202Y3070009D02*
X518237D01*
X521254Y3066992D02*
X527289D01*
X521254Y3070009D02*
X527289D01*
X530306Y3066992D02*
X536341D01*
X530306Y3070009D02*
X536341D01*
X539359Y3066992D02*
X545393D01*
X539359Y3070009D02*
X545393D01*
X548411Y3066992D02*
X554446D01*
X548411Y3070009D02*
X554446D01*
X557463Y3066992D02*
X563498D01*
X557463Y3070009D02*
X563498D01*
X566515Y3066992D02*
X572550D01*
X566515Y3070009D02*
X572550D01*
X575567Y3066992D02*
X581602D01*
X575567Y3070009D02*
X581602D01*
X584620Y3066992D02*
X590654D01*
X584620Y3070009D02*
X590654D01*
X593672Y3066992D02*
X599707D01*
X593672Y3070009D02*
X599707D01*
X602724Y3066992D02*
X608759D01*
X602724Y3070009D02*
X608759D01*
X611776Y3066992D02*
X617811D01*
X611776Y3070009D02*
X617811D01*
X620828Y3066992D02*
X626863D01*
X620828Y3070009D02*
X626863D01*
X629880Y3066992D02*
X635915D01*
X629880Y3070009D02*
X635915D01*
X638933Y3066992D02*
X644967D01*
X638933Y3070009D02*
X644967D01*
X647985Y3066992D02*
X654020D01*
X647985Y3070009D02*
X654020D01*
X657037Y3066992D02*
X663072D01*
X657037Y3070009D02*
X663072D01*
X666089Y3066992D02*
X672124D01*
X666089Y3070009D02*
X672124D01*
X684194Y3071518D02*
X685702Y3073026D01*
X688720D01*
X690228Y3071518D01*
Y3070009D01*
X688720Y3068500D01*
X687211D01*
X688720D01*
X690228Y3066992D01*
Y3065483D01*
X688720Y3063974D01*
X685702D01*
X684194Y3065483D01*
X693246Y3071518D02*
X694754Y3073026D01*
X697772D01*
X699281Y3071518D01*
Y3070009D01*
X697772Y3068500D01*
X699281Y3066992D01*
Y3065483D01*
X697772Y3063974D01*
X694754D01*
X693246Y3065483D01*
Y3066992D01*
X694754Y3068500D01*
X693246Y3070009D01*
Y3071518D01*
X694754Y3068500D02*
X697772D01*
X711350Y3070009D02*
Y3065483D01*
X712859Y3063974D01*
X717385D01*
Y3070009D01*
X720402Y3063974D02*
Y3070009D01*
X721911D01*
X723420Y3068500D01*
Y3063974D01*
Y3068500D01*
X724928Y3070009D01*
X726437Y3068500D01*
Y3063974D01*
X744542Y3071518D02*
X743033Y3073026D01*
X740015D01*
X738507Y3071518D01*
Y3065483D01*
X740015Y3063974D01*
X743033D01*
X744542Y3065483D01*
X747559Y3070009D02*
Y3065483D01*
X749068Y3063974D01*
X753594D01*
Y3070009D01*
X768681Y3063974D02*
X765663Y3066992D01*
Y3070009D01*
X768681Y3073026D01*
X779242Y3070009D02*
X774716D01*
X773207Y3068500D01*
Y3065483D01*
X774716Y3063974D01*
X779242D01*
X783768Y3070009D02*
X786785D01*
X788294Y3068500D01*
Y3063974D01*
X783768D01*
X782259Y3065483D01*
X783768Y3066992D01*
X788294D01*
X791311Y3063974D02*
X794328Y3066992D01*
Y3070009D01*
X791311Y3073026D01*
X807907Y3063974D02*
Y3070009D01*
X810924Y3073026D01*
X813942Y3070009D01*
Y3063974D01*
Y3068500D01*
X807907D01*
X818468Y3063974D02*
Y3071518D01*
Y3068500D01*
X816959D01*
X819976D01*
X818468D01*
Y3071518D01*
X819976Y3073026D01*
X826011Y3071518D02*
Y3070009D01*
X824502D01*
X827520D01*
X826011D01*
Y3065483D01*
X827520Y3063974D01*
X836572D02*
X833555D01*
X832046Y3065483D01*
Y3068500D01*
X833555Y3070009D01*
X836572D01*
X838081Y3068500D01*
Y3066992D01*
X832046D01*
X841098Y3070009D02*
Y3063974D01*
Y3066992D01*
X842607Y3068500D01*
X844116Y3070009D01*
X845624D01*
X859203Y3060957D02*
Y3070009D01*
X863729D01*
X865237Y3068500D01*
Y3065483D01*
X863729Y3063974D01*
X859203D01*
X868255D02*
X871272D01*
X869763D01*
Y3073026D01*
X868255D01*
X877307Y3070009D02*
X880324D01*
X881833Y3068500D01*
Y3063974D01*
X877307D01*
X875798Y3065483D01*
X877307Y3066992D01*
X881833D01*
X886359Y3071518D02*
Y3070009D01*
X884850D01*
X887868D01*
X886359D01*
Y3065483D01*
X887868Y3063974D01*
X892394D02*
X895411D01*
X893903D01*
Y3070009D01*
X892394D01*
X899937Y3063974D02*
Y3070009D01*
X904463D01*
X905972Y3068500D01*
Y3063974D01*
X912007Y3060957D02*
X913516D01*
X915024Y3062466D01*
Y3070009D01*
X910498D01*
X908990Y3068500D01*
Y3065483D01*
X910498Y3063974D01*
X915024D01*
X387023Y3048226D02*
X393057Y3054261D01*
X396075Y3048226D02*
X402110Y3054261D01*
X405127Y3048226D02*
X411162Y3054261D01*
X414179Y3048226D02*
X420214Y3054261D01*
X423231Y3048226D02*
X429266Y3054261D01*
X430732Y3041530D02*
Y3032478D01*
X444311Y3041530D02*
Y3032478D01*
X448837Y3035496D02*
X454871D01*
X448837Y3038513D02*
X454871D01*
X457889Y3035496D02*
X463924D01*
X457889Y3038513D02*
X463924D01*
X466941Y3035496D02*
X472976D01*
X466941Y3038513D02*
X472976D01*
X475993Y3035496D02*
X482028D01*
X475993Y3038513D02*
X482028D01*
X485045Y3035496D02*
X491080D01*
X485045Y3038513D02*
X491080D01*
X494098Y3035496D02*
X500132D01*
X494098Y3038513D02*
X500132D01*
X503150Y3035496D02*
X509185D01*
X503150Y3038513D02*
X509185D01*
X512202Y3035496D02*
X518237D01*
X512202Y3038513D02*
X518237D01*
X521254Y3035496D02*
X527289D01*
X521254Y3038513D02*
X527289D01*
X530306Y3035496D02*
X536341D01*
X530306Y3038513D02*
X536341D01*
X539359Y3035496D02*
X545393D01*
X539359Y3038513D02*
X545393D01*
X548411Y3035496D02*
X554446D01*
X548411Y3038513D02*
X554446D01*
X557463Y3035496D02*
X563498D01*
X557463Y3038513D02*
X563498D01*
X566515Y3035496D02*
X572550D01*
X566515Y3038513D02*
X572550D01*
X575567Y3035496D02*
X581602D01*
X575567Y3038513D02*
X581602D01*
X584620Y3035496D02*
X590654D01*
X584620Y3038513D02*
X590654D01*
X593672Y3035496D02*
X599707D01*
X593672Y3038513D02*
X599707D01*
X602724Y3035496D02*
X608759D01*
X602724Y3038513D02*
X608759D01*
X611776Y3035496D02*
X617811D01*
X611776Y3038513D02*
X617811D01*
X620828Y3035496D02*
X626863D01*
X620828Y3038513D02*
X626863D01*
X629880Y3035496D02*
X635915D01*
X629880Y3038513D02*
X635915D01*
X638933Y3035496D02*
X644967D01*
X638933Y3038513D02*
X644967D01*
X647985Y3035496D02*
X654020D01*
X647985Y3038513D02*
X654020D01*
X657037Y3035496D02*
X663072D01*
X657037Y3038513D02*
X663072D01*
X666089Y3035496D02*
X672124D01*
X666089Y3038513D02*
X672124D01*
X684194Y3032478D02*
X687211D01*
X685702D01*
Y3041530D01*
X684194Y3040022D01*
X691737D02*
X693246Y3041530D01*
X696263D01*
X697772Y3040022D01*
Y3038513D01*
X696263Y3037004D01*
X697772Y3035496D01*
Y3033987D01*
X696263Y3032478D01*
X693246D01*
X691737Y3033987D01*
Y3035496D01*
X693246Y3037004D01*
X691737Y3038513D01*
Y3040022D01*
X693246Y3037004D02*
X696263D01*
X709841Y3038513D02*
Y3033987D01*
X711350Y3032478D01*
X715876D01*
Y3038513D01*
X718894Y3032478D02*
Y3038513D01*
X720402D01*
X721911Y3037004D01*
Y3032478D01*
Y3037004D01*
X723420Y3038513D01*
X724928Y3037004D01*
Y3032478D01*
X743033Y3040022D02*
X741524Y3041530D01*
X738507D01*
X736998Y3040022D01*
Y3033987D01*
X738507Y3032478D01*
X741524D01*
X743033Y3033987D01*
X746050Y3038513D02*
Y3033987D01*
X747559Y3032478D01*
X752085D01*
Y3038513D01*
X767172Y3032478D02*
X764155Y3035496D01*
Y3038513D01*
X767172Y3041530D01*
X771698Y3040022D02*
X773207Y3041530D01*
X776224D01*
X777733Y3040022D01*
Y3033987D01*
X776224Y3032478D01*
X773207D01*
X771698Y3033987D01*
Y3040022D01*
X780750Y3032478D02*
Y3033987D01*
X782259D01*
Y3032478D01*
X780750D01*
X794328Y3041530D02*
X788294D01*
Y3037004D01*
X791311Y3038513D01*
X792820D01*
X794328Y3037004D01*
Y3033987D01*
X792820Y3032478D01*
X789802D01*
X788294Y3033987D01*
X810924Y3041530D02*
X807907D01*
X806398Y3040022D01*
Y3033987D01*
X807907Y3032478D01*
X810924D01*
X812433Y3033987D01*
Y3040022D01*
X810924Y3041530D01*
X815450Y3038513D02*
X821485D01*
X815450Y3032478D01*
X821485D01*
X824502D02*
X827520Y3035496D01*
Y3038513D01*
X824502Y3041530D01*
X430732Y3025782D02*
Y3016730D01*
X444311Y3025782D02*
Y3016730D01*
X448837D02*
X454871Y3022765D01*
X457889Y3016730D02*
X463924Y3022765D01*
X475993Y3016730D02*
Y3025782D01*
X480519D01*
X482028Y3024274D01*
Y3021256D01*
X480519Y3019748D01*
X475993D01*
X485045Y3016730D02*
Y3025782D01*
X489572D01*
X491080Y3024274D01*
Y3021256D01*
X489572Y3019748D01*
X485045D01*
X488063D02*
X491080Y3016730D01*
X500132Y3025782D02*
X494098D01*
Y3016730D01*
X500132D01*
X494098Y3021256D02*
X497115D01*
X503150Y3016730D02*
Y3025782D01*
X507676D01*
X509185Y3024274D01*
Y3021256D01*
X507676Y3019748D01*
X503150D01*
X512202Y3016730D02*
Y3025782D01*
X516728D01*
X518237Y3024274D01*
Y3021256D01*
X516728Y3019748D01*
X512202D01*
X515219D02*
X518237Y3016730D01*
X527289Y3025782D02*
X521254D01*
Y3016730D01*
X527289D01*
X521254Y3021256D02*
X524271D01*
X536341Y3024274D02*
X534832Y3025782D01*
X531815D01*
X530306Y3024274D01*
Y3018239D01*
X531815Y3016730D01*
X534832D01*
X536341Y3018239D01*
Y3021256D01*
X533324D01*
X549919Y3016730D02*
X552937D01*
X554446Y3018239D01*
Y3021256D01*
X552937Y3022765D01*
X549919D01*
X548411Y3021256D01*
Y3018239D01*
X549919Y3016730D01*
X557463Y3022765D02*
Y3016730D01*
Y3019748D01*
X558972Y3021256D01*
X560480Y3022765D01*
X561989D01*
X581602Y3024274D02*
X580093Y3025782D01*
X577076D01*
X575567Y3024274D01*
Y3018239D01*
X577076Y3016730D01*
X580093D01*
X581602Y3018239D01*
X589146Y3025782D02*
X586128D01*
X584620Y3024274D01*
Y3018239D01*
X586128Y3016730D01*
X589146D01*
X590654Y3018239D01*
Y3024274D01*
X589146Y3025782D01*
X593672Y3016730D02*
Y3025782D01*
X598198D01*
X599707Y3024274D01*
Y3021256D01*
X598198Y3019748D01*
X593672D01*
X596689D02*
X599707Y3016730D01*
X608759Y3025782D02*
X602724D01*
Y3016730D01*
X608759D01*
X602724Y3021256D02*
X605741D01*
X620828Y3016730D02*
X626863Y3022765D01*
X629880Y3016730D02*
X635915Y3022765D01*
X638933Y3016730D02*
X644967Y3022765D01*
X647985Y3016730D02*
X654020Y3022765D01*
X657037Y3016730D02*
X663072Y3022765D01*
X666089Y3016730D02*
X672124Y3022765D01*
X430732Y3010034D02*
Y3000982D01*
X444311Y3010034D02*
Y3000982D01*
X448837Y3004000D02*
X454871D01*
X448837Y3007017D02*
X454871D01*
X457889Y3004000D02*
X463924D01*
X457889Y3007017D02*
X463924D01*
X466941Y3004000D02*
X472976D01*
X466941Y3007017D02*
X472976D01*
X475993Y3004000D02*
X482028D01*
X475993Y3007017D02*
X482028D01*
X485045Y3004000D02*
X491080D01*
X485045Y3007017D02*
X491080D01*
X494098Y3004000D02*
X500132D01*
X494098Y3007017D02*
X500132D01*
X503150Y3004000D02*
X509185D01*
X503150Y3007017D02*
X509185D01*
X512202Y3004000D02*
X518237D01*
X512202Y3007017D02*
X518237D01*
X521254Y3004000D02*
X527289D01*
X521254Y3007017D02*
X527289D01*
X530306Y3004000D02*
X536341D01*
X530306Y3007017D02*
X536341D01*
X539359Y3004000D02*
X545393D01*
X539359Y3007017D02*
X545393D01*
X548411Y3004000D02*
X554446D01*
X548411Y3007017D02*
X554446D01*
X557463Y3004000D02*
X563498D01*
X557463Y3007017D02*
X563498D01*
X566515Y3004000D02*
X572550D01*
X566515Y3007017D02*
X572550D01*
X575567Y3004000D02*
X581602D01*
X575567Y3007017D02*
X581602D01*
X584620Y3004000D02*
X590654D01*
X584620Y3007017D02*
X590654D01*
X593672Y3004000D02*
X599707D01*
X593672Y3007017D02*
X599707D01*
X602724Y3004000D02*
X608759D01*
X602724Y3007017D02*
X608759D01*
X611776Y3004000D02*
X617811D01*
X611776Y3007017D02*
X617811D01*
X620828Y3004000D02*
X626863D01*
X620828Y3007017D02*
X626863D01*
X629880Y3004000D02*
X635915D01*
X629880Y3007017D02*
X635915D01*
X638933Y3004000D02*
X644967D01*
X638933Y3007017D02*
X644967D01*
X647985Y3004000D02*
X654020D01*
X647985Y3007017D02*
X654020D01*
X657037Y3004000D02*
X663072D01*
X657037Y3007017D02*
X663072D01*
X666089Y3004000D02*
X672124D01*
X666089Y3007017D02*
X672124D01*
X684194Y3000982D02*
X687211D01*
X685702D01*
Y3010034D01*
X684194Y3008526D01*
X691737D02*
X693246Y3010034D01*
X696263D01*
X697772Y3008526D01*
Y3007017D01*
X696263Y3005508D01*
X697772Y3004000D01*
Y3002491D01*
X696263Y3000982D01*
X693246D01*
X691737Y3002491D01*
Y3004000D01*
X693246Y3005508D01*
X691737Y3007017D01*
Y3008526D01*
X693246Y3005508D02*
X696263D01*
X709841Y3007017D02*
Y3002491D01*
X711350Y3000982D01*
X715876D01*
Y3007017D01*
X718894Y3000982D02*
Y3007017D01*
X720402D01*
X721911Y3005508D01*
Y3000982D01*
Y3005508D01*
X723420Y3007017D01*
X724928Y3005508D01*
Y3000982D01*
X743033Y3008526D02*
X741524Y3010034D01*
X738507D01*
X736998Y3008526D01*
Y3002491D01*
X738507Y3000982D01*
X741524D01*
X743033Y3002491D01*
X746050Y3007017D02*
Y3002491D01*
X747559Y3000982D01*
X752085D01*
Y3007017D01*
X767172Y3000982D02*
X764155Y3004000D01*
Y3007017D01*
X767172Y3010034D01*
X771698Y3008526D02*
X773207Y3010034D01*
X776224D01*
X777733Y3008526D01*
Y3002491D01*
X776224Y3000982D01*
X773207D01*
X771698Y3002491D01*
Y3008526D01*
X780750Y3000982D02*
Y3002491D01*
X782259D01*
Y3000982D01*
X780750D01*
X794328Y3010034D02*
X788294D01*
Y3005508D01*
X791311Y3007017D01*
X792820D01*
X794328Y3005508D01*
Y3002491D01*
X792820Y3000982D01*
X789802D01*
X788294Y3002491D01*
X810924Y3010034D02*
X807907D01*
X806398Y3008526D01*
Y3002491D01*
X807907Y3000982D01*
X810924D01*
X812433Y3002491D01*
Y3008526D01*
X810924Y3010034D01*
X815450Y3007017D02*
X821485D01*
X815450Y3000982D01*
X821485D01*
X824502D02*
X827520Y3004000D01*
Y3007017D01*
X824502Y3010034D01*
X430732Y2994286D02*
Y2985234D01*
X444311Y2994286D02*
Y2985234D01*
X448837D02*
X454871Y2991269D01*
X457889Y2985234D02*
X463924Y2991269D01*
X475993Y2985234D02*
Y2994286D01*
X480519D01*
X482028Y2992778D01*
Y2989760D01*
X480519Y2988251D01*
X475993D01*
X485045Y2985234D02*
Y2994286D01*
X489572D01*
X491080Y2992778D01*
Y2989760D01*
X489572Y2988251D01*
X485045D01*
X488063D02*
X491080Y2985234D01*
X500132Y2994286D02*
X494098D01*
Y2985234D01*
X500132D01*
X494098Y2989760D02*
X497115D01*
X503150Y2985234D02*
Y2994286D01*
X507676D01*
X509185Y2992778D01*
Y2989760D01*
X507676Y2988251D01*
X503150D01*
X512202Y2985234D02*
Y2994286D01*
X516728D01*
X518237Y2992778D01*
Y2989760D01*
X516728Y2988251D01*
X512202D01*
X515219D02*
X518237Y2985234D01*
X527289Y2994286D02*
X521254D01*
Y2985234D01*
X527289D01*
X521254Y2989760D02*
X524271D01*
X536341Y2992778D02*
X534832Y2994286D01*
X531815D01*
X530306Y2992778D01*
Y2986743D01*
X531815Y2985234D01*
X534832D01*
X536341Y2986743D01*
Y2989760D01*
X533324D01*
X549919Y2985234D02*
X552937D01*
X554446Y2986743D01*
Y2989760D01*
X552937Y2991269D01*
X549919D01*
X548411Y2989760D01*
Y2986743D01*
X549919Y2985234D01*
X557463Y2991269D02*
Y2985234D01*
Y2988251D01*
X558972Y2989760D01*
X560480Y2991269D01*
X561989D01*
X581602Y2992778D02*
X580093Y2994286D01*
X577076D01*
X575567Y2992778D01*
Y2986743D01*
X577076Y2985234D01*
X580093D01*
X581602Y2986743D01*
X589146Y2994286D02*
X586128D01*
X584620Y2992778D01*
Y2986743D01*
X586128Y2985234D01*
X589146D01*
X590654Y2986743D01*
Y2992778D01*
X589146Y2994286D01*
X593672Y2985234D02*
Y2994286D01*
X598198D01*
X599707Y2992778D01*
Y2989760D01*
X598198Y2988251D01*
X593672D01*
X596689D02*
X599707Y2985234D01*
X608759Y2994286D02*
X602724D01*
Y2985234D01*
X608759D01*
X602724Y2989760D02*
X605741D01*
X620828Y2985234D02*
X626863Y2991269D01*
X629880Y2985234D02*
X635915Y2991269D01*
X638933Y2985234D02*
X644967Y2991269D01*
X647985Y2985234D02*
X654020Y2991269D01*
X657037Y2985234D02*
X663072Y2991269D01*
X666089Y2985234D02*
X672124Y2991269D01*
X684194Y2992778D02*
X685702Y2994286D01*
X688720D01*
X690228Y2992778D01*
Y2991269D01*
X688720Y2989760D01*
X687211D01*
X688720D01*
X690228Y2988251D01*
Y2986743D01*
X688720Y2985234D01*
X685702D01*
X684194Y2986743D01*
X693246Y2992778D02*
X694754Y2994286D01*
X697772D01*
X699281Y2992778D01*
Y2986743D01*
X697772Y2985234D01*
X694754D01*
X693246Y2986743D01*
Y2992778D01*
X702298D02*
X703807Y2994286D01*
X706824D01*
X708333Y2992778D01*
Y2986743D01*
X706824Y2985234D01*
X703807D01*
X702298Y2986743D01*
Y2992778D01*
X711350Y2991269D02*
Y2986743D01*
X712859Y2985234D01*
X717385D01*
Y2991269D01*
X720402Y2985234D02*
Y2991269D01*
X721911D01*
X723420Y2989760D01*
Y2985234D01*
Y2989760D01*
X724928Y2991269D01*
X726437Y2989760D01*
Y2985234D01*
X430732Y2978538D02*
Y2969486D01*
X444311Y2978538D02*
Y2969486D01*
X448837Y2972503D02*
X454871D01*
X448837Y2975521D02*
X454871D01*
X457889Y2972503D02*
X463924D01*
X457889Y2975521D02*
X463924D01*
X466941Y2972503D02*
X472976D01*
X466941Y2975521D02*
X472976D01*
X475993Y2972503D02*
X482028D01*
X475993Y2975521D02*
X482028D01*
X485045Y2972503D02*
X491080D01*
X485045Y2975521D02*
X491080D01*
X494098Y2972503D02*
X500132D01*
X494098Y2975521D02*
X500132D01*
X503150Y2972503D02*
X509185D01*
X503150Y2975521D02*
X509185D01*
X512202Y2972503D02*
X518237D01*
X512202Y2975521D02*
X518237D01*
X521254Y2972503D02*
X527289D01*
X521254Y2975521D02*
X527289D01*
X530306Y2972503D02*
X536341D01*
X530306Y2975521D02*
X536341D01*
X539359Y2972503D02*
X545393D01*
X539359Y2975521D02*
X545393D01*
X548411Y2972503D02*
X554446D01*
X548411Y2975521D02*
X554446D01*
X557463Y2972503D02*
X563498D01*
X557463Y2975521D02*
X563498D01*
X566515Y2972503D02*
X572550D01*
X566515Y2975521D02*
X572550D01*
X575567Y2972503D02*
X581602D01*
X575567Y2975521D02*
X581602D01*
X584620Y2972503D02*
X590654D01*
X584620Y2975521D02*
X590654D01*
X593672Y2972503D02*
X599707D01*
X593672Y2975521D02*
X599707D01*
X602724Y2972503D02*
X608759D01*
X602724Y2975521D02*
X608759D01*
X611776Y2972503D02*
X617811D01*
X611776Y2975521D02*
X617811D01*
X620828Y2972503D02*
X626863D01*
X620828Y2975521D02*
X626863D01*
X629880Y2972503D02*
X635915D01*
X629880Y2975521D02*
X635915D01*
X638933Y2972503D02*
X644967D01*
X638933Y2975521D02*
X644967D01*
X647985Y2972503D02*
X654020D01*
X647985Y2975521D02*
X654020D01*
X657037Y2972503D02*
X663072D01*
X657037Y2975521D02*
X663072D01*
X666089Y2972503D02*
X672124D01*
X666089Y2975521D02*
X672124D01*
X684194Y2977030D02*
X685702Y2978538D01*
X688720D01*
X690228Y2977030D01*
Y2975521D01*
X688720Y2974012D01*
X687211D01*
X688720D01*
X690228Y2972503D01*
Y2970995D01*
X688720Y2969486D01*
X685702D01*
X684194Y2970995D01*
X693246Y2977030D02*
X694754Y2978538D01*
X697772D01*
X699281Y2977030D01*
Y2975521D01*
X697772Y2974012D01*
X699281Y2972503D01*
Y2970995D01*
X697772Y2969486D01*
X694754D01*
X693246Y2970995D01*
Y2972503D01*
X694754Y2974012D01*
X693246Y2975521D01*
Y2977030D01*
X694754Y2974012D02*
X697772D01*
X711350Y2975521D02*
Y2970995D01*
X712859Y2969486D01*
X717385D01*
Y2975521D01*
X720402Y2969486D02*
Y2975521D01*
X721911D01*
X723420Y2974012D01*
Y2969486D01*
Y2974012D01*
X724928Y2975521D01*
X726437Y2974012D01*
Y2969486D01*
X744542Y2977030D02*
X743033Y2978538D01*
X740015D01*
X738507Y2977030D01*
Y2970995D01*
X740015Y2969486D01*
X743033D01*
X744542Y2970995D01*
X747559Y2975521D02*
Y2970995D01*
X749068Y2969486D01*
X753594D01*
Y2975521D01*
X768681Y2969486D02*
X765663Y2972503D01*
Y2975521D01*
X768681Y2978538D01*
X779242Y2975521D02*
X774715D01*
X773207Y2974012D01*
Y2970995D01*
X774715Y2969486D01*
X779242D01*
X783768Y2975521D02*
X786785D01*
X788294Y2974012D01*
Y2969486D01*
X783768D01*
X782259Y2970995D01*
X783768Y2972503D01*
X788294D01*
X791311Y2969486D02*
X794328Y2972503D01*
Y2975521D01*
X791311Y2978538D01*
X807907Y2969486D02*
Y2975521D01*
X810924Y2978538D01*
X813942Y2975521D01*
Y2969486D01*
Y2974012D01*
X807907D01*
X818468Y2969486D02*
Y2977030D01*
Y2974012D01*
X816959D01*
X819976D01*
X818468D01*
Y2977030D01*
X819976Y2978538D01*
X826011Y2977030D02*
Y2975521D01*
X824502D01*
X827520D01*
X826011D01*
Y2970995D01*
X827520Y2969486D01*
X836572D02*
X833555D01*
X832046Y2970995D01*
Y2974012D01*
X833555Y2975521D01*
X836572D01*
X838081Y2974012D01*
Y2972503D01*
X832046D01*
X841098Y2975521D02*
Y2969486D01*
Y2972503D01*
X842607Y2974012D01*
X844116Y2975521D01*
X845624D01*
X859202Y2966469D02*
Y2975521D01*
X863729D01*
X865237Y2974012D01*
Y2970995D01*
X863729Y2969486D01*
X859202D01*
X868255D02*
X871272D01*
X869763D01*
Y2978538D01*
X868255D01*
X877307Y2975521D02*
X880324D01*
X881833Y2974012D01*
Y2969486D01*
X877307D01*
X875798Y2970995D01*
X877307Y2972503D01*
X881833D01*
X886359Y2977030D02*
Y2975521D01*
X884850D01*
X887868D01*
X886359D01*
Y2970995D01*
X887868Y2969486D01*
X892394D02*
X895411D01*
X893903D01*
Y2975521D01*
X892394D01*
X899937Y2969486D02*
Y2975521D01*
X904463D01*
X905972Y2974012D01*
Y2969486D01*
X912007Y2966469D02*
X913516D01*
X915024Y2967977D01*
Y2975521D01*
X910498D01*
X908990Y2974012D01*
Y2970995D01*
X910498Y2969486D01*
X915024D01*
X377123Y3137527D02*
Y3134510D01*
X375614Y3133001D01*
X381649Y3126966D02*
Y3128475D01*
X383158D01*
Y3126966D01*
X381649D01*
X389192Y3136019D02*
Y3126966D01*
X393719D01*
X395227Y3128475D01*
Y3129984D01*
X393719Y3131492D01*
X389192D01*
X393719D01*
X395227Y3133001D01*
Y3134510D01*
X393719Y3136019D01*
X389192D01*
X399753Y3126966D02*
X402771D01*
X404279Y3128475D01*
Y3131492D01*
X402771Y3133001D01*
X399753D01*
X398245Y3131492D01*
Y3128475D01*
X399753Y3126966D01*
X408806Y3133001D02*
X411823D01*
X413332Y3131492D01*
Y3126966D01*
X408806D01*
X407297Y3128475D01*
X408806Y3129984D01*
X413332D01*
X416349Y3133001D02*
Y3126966D01*
Y3129984D01*
X417858Y3131492D01*
X419366Y3133001D01*
X420875D01*
X431436Y3136019D02*
Y3126966D01*
X426910D01*
X425401Y3128475D01*
Y3131492D01*
X426910Y3133001D01*
X431436D01*
X434453Y3126966D02*
Y3136019D01*
X440488Y3126966D01*
Y3136019D01*
X445014Y3133001D02*
X448032D01*
X449540Y3131492D01*
Y3126966D01*
X445014D01*
X443505Y3128475D01*
X445014Y3129984D01*
X449540D01*
X452558Y3126966D02*
Y3133001D01*
X454066D01*
X455575Y3131492D01*
Y3126966D01*
Y3131492D01*
X457084Y3133001D01*
X458593Y3131492D01*
Y3126966D01*
X466136D02*
X463119D01*
X461610Y3128475D01*
Y3131492D01*
X463119Y3133001D01*
X466136D01*
X467645Y3131492D01*
Y3129984D01*
X461610D01*
X472171Y3137527D02*
Y3134510D01*
X470662Y3133001D01*
X476697Y3125458D02*
X482732D01*
X487258Y3137527D02*
Y3134510D01*
X485749Y3133001D01*
X491784Y3126966D02*
Y3128475D01*
X493293D01*
Y3126966D01*
X491784D01*
X499327Y3136019D02*
Y3126966D01*
X503854D01*
X505362Y3128475D01*
Y3129984D01*
X503854Y3131492D01*
X499327D01*
X503854D01*
X505362Y3133001D01*
Y3134510D01*
X503854Y3136019D01*
X499327D01*
X509888Y3126966D02*
X512906D01*
X514414Y3128475D01*
Y3131492D01*
X512906Y3133001D01*
X509888D01*
X508380Y3131492D01*
Y3128475D01*
X509888Y3126966D01*
X518940Y3133001D02*
X521958D01*
X523467Y3131492D01*
Y3126966D01*
X518940D01*
X517432Y3128475D01*
X518940Y3129984D01*
X523467D01*
X526484Y3133001D02*
Y3126966D01*
Y3129984D01*
X527993Y3131492D01*
X529501Y3133001D01*
X531010D01*
X541571Y3136019D02*
Y3126966D01*
X537045D01*
X535536Y3128475D01*
Y3131492D01*
X537045Y3133001D01*
X541571D01*
X544588Y3126966D02*
Y3136019D01*
X549114D01*
X550623Y3134510D01*
Y3131492D01*
X549114Y3129984D01*
X544588D01*
X547606D02*
X550623Y3126966D01*
X558167D02*
X555149D01*
X553641Y3128475D01*
Y3131492D01*
X555149Y3133001D01*
X558167D01*
X559675Y3131492D01*
Y3129984D01*
X553641D01*
X562693Y3133001D02*
X565710Y3126966D01*
X568727Y3133001D01*
X571745Y3126966D02*
X574762D01*
X573254D01*
Y3133001D01*
X571745D01*
X579288Y3126966D02*
X583814D01*
X585323Y3128475D01*
X583814Y3129984D01*
X580797D01*
X579288Y3131492D01*
X580797Y3133001D01*
X585323D01*
X588341Y3126966D02*
X591358D01*
X589849D01*
Y3133001D01*
X588341D01*
X597393Y3126966D02*
X600410D01*
X601919Y3128475D01*
Y3131492D01*
X600410Y3133001D01*
X597393D01*
X595884Y3131492D01*
Y3128475D01*
X597393Y3126966D01*
X604936D02*
Y3133001D01*
X609462D01*
X610971Y3131492D01*
Y3126966D01*
X615497Y3137527D02*
Y3134510D01*
X613988Y3133001D01*
X620023Y3125458D02*
X626058D01*
X629075Y3123949D02*
Y3133001D01*
X633602D01*
X635110Y3131492D01*
Y3128475D01*
X633602Y3126966D01*
X629075D01*
X644162Y3133001D02*
X639636D01*
X638128Y3131492D01*
Y3128475D01*
X639636Y3126966D01*
X644162D01*
X647180Y3136019D02*
Y3126966D01*
X651706D01*
X653215Y3128475D01*
Y3129984D01*
Y3131492D01*
X651706Y3133001D01*
X647180D01*
X656232Y3125458D02*
X662267D01*
X665284Y3126966D02*
X669810D01*
X671319Y3128475D01*
X669810Y3129984D01*
X666793D01*
X665284Y3131492D01*
X666793Y3133001D01*
X671319D01*
X674336Y3123949D02*
Y3133001D01*
X678862D01*
X680371Y3131492D01*
Y3128475D01*
X678862Y3126966D01*
X674336D01*
X687915D02*
X684897D01*
X683389Y3128475D01*
Y3131492D01*
X684897Y3133001D01*
X687915D01*
X689423Y3131492D01*
Y3129984D01*
X683389D01*
X698476Y3133001D02*
X693950D01*
X692441Y3131492D01*
Y3128475D01*
X693950Y3126966D01*
X698476D01*
X222660Y3111218D02*
X218134Y3115745D01*
X222660Y3120271D01*
X227186Y3115745D02*
X233221D01*
X236238D02*
X242273D01*
X245290D02*
X251325D01*
X254343D02*
X260377D01*
X263395D02*
X269430D01*
X272447D02*
X278482D01*
X281499D02*
X287534D01*
X290551D02*
X296586D01*
X299604D02*
X305638D01*
X308656D02*
X314690D01*
X317708D02*
X323743D01*
X326760D02*
X332795D01*
X335812D02*
X341847D01*
X344865D02*
X350899D01*
X353917D02*
X359951D01*
X362969D02*
X369004D01*
X372021D02*
X378056D01*
X381073D02*
X387108D01*
X390125D02*
X396160D01*
X399178D02*
X405212D01*
X408230D02*
X414265D01*
X417282D02*
X423317D01*
X426334D02*
X432369D01*
X435386D02*
X441421D01*
X444439D02*
X450473D01*
X453491D02*
X459525D01*
X462543D02*
X468578D01*
X471595D02*
X477630D01*
X480647D02*
X486682D01*
X489700D02*
X495734D01*
X498752D02*
X504786D01*
X507804D02*
X513839D01*
X516856D02*
X522891D01*
X525908D02*
X531943D01*
X534961D02*
X540995D01*
X544013D02*
X550047D01*
X553065D02*
X559100D01*
X562117D02*
X568152D01*
X571169D02*
X577204D01*
X580221D02*
X586256D01*
X589274D02*
X595308D01*
X598326D02*
X604361D01*
X607378D02*
X613413D01*
X616430D02*
X622465D01*
X625482D02*
X631517D01*
X634535D02*
X640569D01*
X643587D02*
X649621D01*
X652639D02*
X658674D01*
X661691D02*
X667726D01*
X670743D02*
X676778D01*
X679796D02*
X685830D01*
X688848D02*
X694882D01*
X697900D02*
X703935D01*
X706952D02*
X712987D01*
X716004D02*
X722039D01*
X725056D02*
X731091D01*
X734109D02*
X740143D01*
X743161D02*
X749196D01*
X752213D02*
X758248D01*
X761265D02*
X767300D01*
X770317D02*
X776352D01*
X779370D02*
X785404D01*
X788422D02*
X794457D01*
X797474D02*
X803509D01*
X806526D02*
X812561D01*
X815578D02*
X821613D01*
X824631D02*
X830665D01*
X833683D02*
X839717D01*
X842735D02*
X848770D01*
X851787D02*
X857822D01*
X860839D02*
X866874D01*
X869891D02*
X875926D01*
X894031Y3111218D02*
X887996D01*
X894031Y3117253D01*
Y3118762D01*
X892522Y3120271D01*
X889505D01*
X887996Y3118762D01*
X900066Y3111218D02*
X897048Y3114236D01*
Y3117253D01*
X900066Y3120271D01*
X910626Y3111218D02*
X904591D01*
X910626Y3117253D01*
Y3118762D01*
X909118Y3120271D01*
X906100D01*
X904591Y3118762D01*
X913644Y3111218D02*
X916661Y3114236D01*
Y3117253D01*
X913644Y3120271D01*
X387023Y3016730D02*
X393057Y3022765D01*
X396075Y3016730D02*
X402110Y3022765D01*
X405127Y3016730D02*
X411162Y3022765D01*
X414179Y3016730D02*
X420214Y3022765D01*
X423231Y3016730D02*
X429266Y3022765D01*
X359866Y3010034D02*
Y3000982D01*
X365901D01*
X374953D02*
X368918D01*
X374953Y3007017D01*
Y3008526D01*
X373444Y3010034D01*
X370427D01*
X368918Y3008526D01*
X387023Y3004000D02*
X393057D01*
X387023Y3007017D02*
X393057D01*
X396075Y3004000D02*
X402110D01*
X396075Y3007017D02*
X402110D01*
X405127Y3004000D02*
X411162D01*
X405127Y3007017D02*
X411162D01*
X414179Y3004000D02*
X420214D01*
X414179Y3007017D02*
X420214D01*
X423231Y3004000D02*
X429266D01*
X423231Y3007017D02*
X429266D01*
X387023Y2992778D02*
X388531Y2994286D01*
X391549D01*
X393057Y2992778D01*
Y2991269D01*
X390040Y2988251D01*
Y2986743D02*
Y2985234D01*
X405127Y2992778D02*
X406636Y2994286D01*
X409653D01*
X411162Y2992778D01*
Y2991269D01*
X408144Y2988251D01*
Y2986743D02*
Y2985234D01*
X423231Y2992778D02*
X424740Y2994286D01*
X427758D01*
X429266Y2992778D01*
Y2991269D01*
X426249Y2988251D01*
Y2986743D02*
Y2985234D01*
X359866Y2978538D02*
Y2969486D01*
X364392D01*
X365901Y2970995D01*
Y2972503D01*
X364392Y2974012D01*
X359866D01*
X364392D01*
X365901Y2975521D01*
Y2977030D01*
X364392Y2978538D01*
X359866D01*
X373444D02*
X370427D01*
X368918Y2977030D01*
Y2970995D01*
X370427Y2969486D01*
X373444D01*
X374953Y2970995D01*
Y2977030D01*
X373444Y2978538D01*
X377970D02*
X384005D01*
X380988D01*
Y2969486D01*
X396075Y2972503D02*
X402110D01*
X396075Y2975521D02*
X402110D01*
X405127Y2972503D02*
X411162D01*
X405127Y2975521D02*
X411162D01*
X414179Y2972503D02*
X420214D01*
X414179Y2975521D02*
X420214D01*
X423231Y2972503D02*
X429266D01*
X423231Y2975521D02*
X429266D01*
X359866Y2945534D02*
X365901Y2939499D01*
X359866D02*
X365901Y2945534D01*
X359866Y2942516D02*
X365901D01*
X362883Y2939499D02*
Y2945534D01*
X368918Y2937990D02*
X371936Y2941007D01*
Y2944025D01*
X368918Y2947042D01*
X359866Y2931294D02*
X365901D01*
X362883D01*
Y2922242D01*
X368918Y2931294D02*
Y2922242D01*
Y2926768D01*
X370427Y2928277D01*
X373444D01*
X374953Y2926768D01*
Y2922242D01*
X382497D02*
X379479D01*
X377970Y2923751D01*
Y2926768D01*
X379479Y2928277D01*
X382497D01*
X384005Y2926768D01*
Y2925259D01*
X377970D01*
X402110Y2931294D02*
Y2922242D01*
X397584D01*
X396075Y2923751D01*
Y2926768D01*
X397584Y2928277D01*
X402110D01*
X405127Y2922242D02*
X408144D01*
X406636D01*
Y2928277D01*
X405127D01*
X412671Y2922242D02*
X417197D01*
X418705Y2923751D01*
X417197Y2925259D01*
X414179D01*
X412671Y2926768D01*
X414179Y2928277D01*
X418705D01*
X423231Y2929786D02*
Y2928277D01*
X421723D01*
X424740D01*
X423231D01*
Y2923751D01*
X424740Y2922242D01*
X430775Y2928277D02*
X433792D01*
X435301Y2926768D01*
Y2922242D01*
X430775D01*
X429266Y2923751D01*
X430775Y2925259D01*
X435301D01*
X438318Y2922242D02*
Y2928277D01*
X442844D01*
X444353Y2926768D01*
Y2922242D01*
X453405Y2928277D02*
X448879D01*
X447371Y2926768D01*
Y2923751D01*
X448879Y2922242D01*
X453405D01*
X460949D02*
X457932D01*
X456423Y2923751D01*
Y2926768D01*
X457932Y2928277D01*
X460949D01*
X462458Y2926768D01*
Y2925259D01*
X456423D01*
X474527Y2931294D02*
Y2922242D01*
X479053D01*
X480562Y2923751D01*
Y2925259D01*
Y2926768D01*
X479053Y2928277D01*
X474527D01*
X488105Y2922242D02*
X485088D01*
X483579Y2923751D01*
Y2926768D01*
X485088Y2928277D01*
X488105D01*
X489614Y2926768D01*
Y2925259D01*
X483579D01*
X494140Y2929786D02*
Y2928277D01*
X492631D01*
X495649D01*
X494140D01*
Y2923751D01*
X495649Y2922242D01*
X500175Y2928277D02*
Y2923751D01*
X501684Y2922242D01*
X503192Y2923751D01*
X504701Y2922242D01*
X506210Y2923751D01*
Y2928277D01*
X513753Y2922242D02*
X510736D01*
X509227Y2923751D01*
Y2926768D01*
X510736Y2928277D01*
X513753D01*
X515262Y2926768D01*
Y2925259D01*
X509227D01*
X522806Y2922242D02*
X519788D01*
X518279Y2923751D01*
Y2926768D01*
X519788Y2928277D01*
X522806D01*
X524314Y2926768D01*
Y2925259D01*
X518279D01*
X527332Y2922242D02*
Y2928277D01*
X531858D01*
X533366Y2926768D01*
Y2922242D01*
X545436Y2931294D02*
X551471D01*
X548453D01*
Y2922242D01*
X555997D02*
X559014D01*
X560523Y2923751D01*
Y2926768D01*
X559014Y2928277D01*
X555997D01*
X554488Y2926768D01*
Y2923751D01*
X555997Y2922242D01*
X563540Y2919225D02*
Y2928277D01*
X568066D01*
X569575Y2926768D01*
Y2923751D01*
X568066Y2922242D01*
X563540D01*
X572592Y2926768D02*
X578627D01*
X581645Y2931294D02*
Y2922242D01*
X587679D01*
X590697D02*
X593714D01*
X592206D01*
Y2931294D01*
X590697Y2929786D01*
X608801Y2928277D02*
X611819D01*
X613327Y2926768D01*
Y2922242D01*
X608801D01*
X607293Y2923751D01*
X608801Y2925259D01*
X613327D01*
X616345Y2922242D02*
Y2928277D01*
X620871D01*
X622380Y2926768D01*
Y2922242D01*
X631432Y2931294D02*
Y2922242D01*
X626906D01*
X625397Y2923751D01*
Y2926768D01*
X626906Y2928277D01*
X631432D01*
X643501Y2931294D02*
Y2922242D01*
X648028D01*
X649536Y2923751D01*
Y2925259D01*
X648028Y2926768D01*
X643501D01*
X648028D01*
X649536Y2928277D01*
Y2929786D01*
X648028Y2931294D01*
X643501D01*
X654062Y2922242D02*
X657080D01*
X658588Y2923751D01*
Y2926768D01*
X657080Y2928277D01*
X654062D01*
X652554Y2926768D01*
Y2923751D01*
X654062Y2922242D01*
X663114Y2929786D02*
Y2928277D01*
X661606D01*
X664623D01*
X663114D01*
Y2923751D01*
X664623Y2922242D01*
X670658Y2929786D02*
Y2928277D01*
X669149D01*
X672167D01*
X670658D01*
Y2923751D01*
X672167Y2922242D01*
X678201D02*
X681219D01*
X682727Y2923751D01*
Y2926768D01*
X681219Y2928277D01*
X678201D01*
X676693Y2926768D01*
Y2923751D01*
X678201Y2922242D01*
X685745D02*
Y2928277D01*
X687254D01*
X688762Y2926768D01*
Y2922242D01*
Y2926768D01*
X690271Y2928277D01*
X691780Y2926768D01*
Y2922242D01*
X694797Y2926768D02*
X700832D01*
X703849Y2931294D02*
Y2922242D01*
X709884D01*
X718936D02*
X712901D01*
X718936Y2928277D01*
Y2929786D01*
X717428Y2931294D01*
X714410D01*
X712901Y2929786D01*
X731006Y2922242D02*
X735532D01*
X737041Y2923751D01*
X735532Y2925259D01*
X732514D01*
X731006Y2926768D01*
X732514Y2928277D01*
X737041D01*
X740058Y2931294D02*
Y2922242D01*
Y2926768D01*
X741567Y2928277D01*
X744584D01*
X746093Y2926768D01*
Y2922242D01*
X750619D02*
X753636D01*
X755145Y2923751D01*
Y2926768D01*
X753636Y2928277D01*
X750619D01*
X749110Y2926768D01*
Y2923751D01*
X750619Y2922242D01*
X758162Y2928277D02*
Y2923751D01*
X759671Y2922242D01*
X764197D01*
Y2928277D01*
X767215Y2922242D02*
X770232D01*
X768723D01*
Y2931294D01*
X767215D01*
X780793D02*
Y2922242D01*
X776267D01*
X774758Y2923751D01*
Y2926768D01*
X776267Y2928277D01*
X780793D01*
X792863Y2931294D02*
Y2922242D01*
X797389D01*
X798897Y2923751D01*
Y2925259D01*
Y2926768D01*
X797389Y2928277D01*
X792863D01*
X806441Y2922242D02*
X803423D01*
X801915Y2923751D01*
Y2926768D01*
X803423Y2928277D01*
X806441D01*
X807950Y2926768D01*
Y2925259D01*
X801915D01*
X361375Y2912529D02*
X364392D01*
X365901Y2911020D01*
Y2906494D01*
X361375D01*
X359866Y2908003D01*
X361375Y2909511D01*
X365901D01*
X368918Y2906494D02*
X373444D01*
X374953Y2908003D01*
X373444Y2909511D01*
X370427D01*
X368918Y2911020D01*
X370427Y2912529D01*
X374953D01*
X393057D02*
X388531D01*
X387023Y2911020D01*
Y2908003D01*
X388531Y2906494D01*
X393057D01*
X396075D02*
X399092D01*
X397584D01*
Y2915546D01*
X396075D01*
X405127Y2906494D02*
X408144D01*
X409653Y2908003D01*
Y2911020D01*
X408144Y2912529D01*
X405127D01*
X403618Y2911020D01*
Y2908003D01*
X405127Y2906494D01*
X412671D02*
X417197D01*
X418705Y2908003D01*
X417197Y2909511D01*
X414179D01*
X412671Y2911020D01*
X414179Y2912529D01*
X418705D01*
X426249Y2906494D02*
X423231D01*
X421723Y2908003D01*
Y2911020D01*
X423231Y2912529D01*
X426249D01*
X427758Y2911020D01*
Y2909511D01*
X421723D01*
X441336Y2914038D02*
Y2912529D01*
X439827D01*
X442844D01*
X441336D01*
Y2908003D01*
X442844Y2906494D01*
X448879D02*
X451897D01*
X453405Y2908003D01*
Y2911020D01*
X451897Y2912529D01*
X448879D01*
X447371Y2911020D01*
Y2908003D01*
X448879Y2906494D01*
X465475Y2914038D02*
X466984Y2915546D01*
X470001D01*
X471510Y2914038D01*
Y2912529D01*
X470001Y2911020D01*
X468492D01*
X470001D01*
X471510Y2909511D01*
Y2908003D01*
X470001Y2906494D01*
X466984D01*
X465475Y2908003D01*
X474527Y2914038D02*
X476036Y2915546D01*
X479053D01*
X480562Y2914038D01*
Y2908003D01*
X479053Y2906494D01*
X476036D01*
X474527Y2908003D01*
Y2914038D01*
X483579D02*
X485088Y2915546D01*
X488105D01*
X489614Y2914038D01*
Y2908003D01*
X488105Y2906494D01*
X485088D01*
X483579Y2908003D01*
Y2914038D01*
X501684Y2912529D02*
Y2908003D01*
X503192Y2906494D01*
X507719D01*
Y2912529D01*
X510736Y2906494D02*
Y2912529D01*
X512245D01*
X513753Y2911020D01*
Y2906494D01*
Y2911020D01*
X515262Y2912529D01*
X516771Y2911020D01*
Y2906494D01*
X530349Y2912529D02*
X533366D01*
X534875Y2911020D01*
Y2906494D01*
X530349D01*
X528840Y2908003D01*
X530349Y2909511D01*
X534875D01*
X537892Y2906494D02*
X542419D01*
X543927Y2908003D01*
X542419Y2909511D01*
X539401D01*
X537892Y2911020D01*
X539401Y2912529D01*
X543927D01*
X555997Y2903477D02*
Y2912529D01*
X560523D01*
X562032Y2911020D01*
Y2908003D01*
X560523Y2906494D01*
X555997D01*
X566558D02*
X569575D01*
X571084Y2908003D01*
Y2911020D01*
X569575Y2912529D01*
X566558D01*
X565049Y2911020D01*
Y2908003D01*
X566558Y2906494D01*
X574101D02*
X578627D01*
X580136Y2908003D01*
X578627Y2909511D01*
X575610D01*
X574101Y2911020D01*
X575610Y2912529D01*
X580136D01*
X583153Y2906494D02*
X587679D01*
X589188Y2908003D01*
X587679Y2909511D01*
X584662D01*
X583153Y2911020D01*
X584662Y2912529D01*
X589188D01*
X592206Y2906494D02*
X595223D01*
X593714D01*
Y2912529D01*
X592206D01*
X599749Y2915546D02*
Y2906494D01*
X604275D01*
X605784Y2908003D01*
Y2909511D01*
Y2911020D01*
X604275Y2912529D01*
X599749D01*
X608801Y2906494D02*
X611819D01*
X610310D01*
Y2915546D01*
X608801D01*
X620871Y2906494D02*
X617853D01*
X616345Y2908003D01*
Y2911020D01*
X617853Y2912529D01*
X620871D01*
X622380Y2911020D01*
Y2909511D01*
X616345D01*
X625397D02*
Y2917055D01*
Y2908003D02*
Y2906494D01*
X359866Y2882541D02*
X365901Y2876507D01*
X359866D02*
X365901Y2882541D01*
X359866Y2879524D02*
X365901D01*
X362883Y2876507D02*
Y2882541D01*
X368918D02*
X374953Y2876507D01*
X368918D02*
X374953Y2882541D01*
X368918Y2879524D02*
X374953D01*
X371936Y2876507D02*
Y2882541D01*
X377970Y2874998D02*
X380988Y2878015D01*
Y2881033D01*
X377970Y2884050D01*
X365901Y2866793D02*
X364392Y2868302D01*
X361375D01*
X359866Y2866793D01*
Y2865285D01*
X361375Y2863776D01*
X364392D01*
X365901Y2862267D01*
Y2860759D01*
X364392Y2859250D01*
X361375D01*
X359866Y2860759D01*
X373444Y2859250D02*
X370427D01*
X368918Y2860759D01*
Y2863776D01*
X370427Y2865285D01*
X373444D01*
X374953Y2863776D01*
Y2862267D01*
X368918D01*
X377970Y2859250D02*
X380988D01*
X379479D01*
Y2868302D01*
X377970D01*
X390040Y2859250D02*
X387023D01*
X385514Y2860759D01*
Y2863776D01*
X387023Y2865285D01*
X390040D01*
X391549Y2863776D01*
Y2862267D01*
X385514D01*
X400601Y2865285D02*
X396075D01*
X394566Y2863776D01*
Y2860759D01*
X396075Y2859250D01*
X400601D01*
X405127Y2866793D02*
Y2865285D01*
X403618D01*
X406636D01*
X405127D01*
Y2860759D01*
X406636Y2859250D01*
X426249Y2866793D02*
X424740Y2868302D01*
X421723D01*
X420214Y2866793D01*
Y2860759D01*
X421723Y2859250D01*
X424740D01*
X426249Y2860759D01*
X433792Y2859250D02*
X430775D01*
X429266Y2860759D01*
Y2863776D01*
X430775Y2865285D01*
X433792D01*
X435301Y2863776D01*
Y2862267D01*
X429266D01*
X438318Y2859250D02*
Y2865285D01*
X442844D01*
X444353Y2863776D01*
Y2859250D01*
X448879Y2866793D02*
Y2865285D01*
X447371D01*
X450388D01*
X448879D01*
Y2860759D01*
X450388Y2859250D01*
X459440D02*
X456423D01*
X454914Y2860759D01*
Y2863776D01*
X456423Y2865285D01*
X459440D01*
X460949Y2863776D01*
Y2862267D01*
X454914D01*
X463966Y2865285D02*
Y2859250D01*
Y2862267D01*
X465475Y2863776D01*
X466984Y2865285D01*
X468492D01*
X482071Y2859250D02*
Y2868302D01*
X486597D01*
X488105Y2866793D01*
Y2863776D01*
X486597Y2862267D01*
X482071D01*
X491123Y2865285D02*
Y2859250D01*
Y2862267D01*
X492631Y2863776D01*
X494140Y2865285D01*
X495649D01*
X504701Y2859250D02*
X501684D01*
X500175Y2860759D01*
Y2863776D01*
X501684Y2865285D01*
X504701D01*
X506210Y2863776D01*
Y2862267D01*
X500175D01*
X509227Y2856232D02*
Y2865285D01*
X513753D01*
X515262Y2863776D01*
Y2860759D01*
X513753Y2859250D01*
X509227D01*
X518279Y2865285D02*
Y2859250D01*
Y2862267D01*
X519788Y2863776D01*
X521297Y2865285D01*
X522806D01*
X531858Y2859250D02*
X528840D01*
X527332Y2860759D01*
Y2863776D01*
X528840Y2865285D01*
X531858D01*
X533366Y2863776D01*
Y2862267D01*
X527332D01*
X539401Y2856232D02*
X540910D01*
X542419Y2857741D01*
Y2865285D01*
X537892D01*
X536384Y2863776D01*
Y2860759D01*
X537892Y2859250D01*
X542419D01*
X555997Y2866793D02*
Y2865285D01*
X554488D01*
X557506D01*
X555997D01*
Y2860759D01*
X557506Y2859250D01*
X562032Y2868302D02*
Y2859250D01*
Y2863776D01*
X563540Y2865285D01*
X566558D01*
X568066Y2863776D01*
Y2859250D01*
X571084D02*
X574101D01*
X572592D01*
Y2865285D01*
X571084D01*
X584662D02*
X580136D01*
X578627Y2863776D01*
Y2860759D01*
X580136Y2859250D01*
X584662D01*
X587679D02*
Y2868302D01*
Y2862267D02*
X592206Y2865285D01*
X587679Y2862267D02*
X592206Y2859250D01*
X596732D02*
Y2865285D01*
X601258D01*
X602767Y2863776D01*
Y2859250D01*
X610310D02*
X607293D01*
X605784Y2860759D01*
Y2863776D01*
X607293Y2865285D01*
X610310D01*
X611819Y2863776D01*
Y2862267D01*
X605784D01*
X614836Y2859250D02*
X619362D01*
X620871Y2860759D01*
X619362Y2862267D01*
X616345D01*
X614836Y2863776D01*
X616345Y2865285D01*
X620871D01*
X623888Y2859250D02*
X628414D01*
X629923Y2860759D01*
X628414Y2862267D01*
X625397D01*
X623888Y2863776D01*
X625397Y2865285D01*
X629923D01*
X641993Y2859250D02*
X645010D01*
X643501D01*
Y2865285D01*
X641993D01*
X649536Y2859250D02*
Y2865285D01*
X654062D01*
X655571Y2863776D01*
Y2859250D01*
X669149D02*
X672167D01*
X673675Y2860759D01*
Y2863776D01*
X672167Y2865285D01*
X669149D01*
X667640Y2863776D01*
Y2860759D01*
X669149Y2859250D01*
X676693Y2865285D02*
Y2859250D01*
Y2862267D01*
X678201Y2863776D01*
X679710Y2865285D01*
X681219D01*
X691780Y2868302D02*
Y2859250D01*
X687254D01*
X685745Y2860759D01*
Y2863776D01*
X687254Y2865285D01*
X691780D01*
X699323Y2859250D02*
X696306D01*
X694797Y2860759D01*
Y2863776D01*
X696306Y2865285D01*
X699323D01*
X700832Y2863776D01*
Y2862267D01*
X694797D01*
X703849Y2865285D02*
Y2859250D01*
Y2862267D01*
X705358Y2863776D01*
X706867Y2865285D01*
X708375D01*
X723462Y2866793D02*
Y2865285D01*
X721954D01*
X724971D01*
X723462D01*
Y2860759D01*
X724971Y2859250D01*
X731006D02*
X734023D01*
X735532Y2860759D01*
Y2863776D01*
X734023Y2865285D01*
X731006D01*
X729497Y2863776D01*
Y2860759D01*
X731006Y2859250D01*
X747602Y2865285D02*
Y2859250D01*
Y2862267D01*
X749110Y2863776D01*
X750619Y2865285D01*
X752128D01*
X761180Y2859250D02*
X758162D01*
X756654Y2860759D01*
Y2863776D01*
X758162Y2865285D01*
X761180D01*
X762688Y2863776D01*
Y2862267D01*
X756654D01*
X767215Y2865285D02*
X770232D01*
X771741Y2863776D01*
Y2859250D01*
X767215D01*
X765706Y2860759D01*
X767215Y2862267D01*
X771741D01*
X780793Y2865285D02*
X776267D01*
X774758Y2863776D01*
Y2860759D01*
X776267Y2859250D01*
X780793D01*
X783810Y2868302D02*
Y2859250D01*
Y2863776D01*
X785319Y2865285D01*
X788336D01*
X789845Y2863776D01*
Y2859250D01*
X801915D02*
X806441D01*
X807950Y2860759D01*
X806441Y2862267D01*
X803423D01*
X801915Y2863776D01*
X803423Y2865285D01*
X807950D01*
X810967Y2856232D02*
Y2865285D01*
X815493D01*
X817002Y2863776D01*
Y2860759D01*
X815493Y2859250D01*
X810967D01*
X824545D02*
X821528D01*
X820019Y2860759D01*
Y2863776D01*
X821528Y2865285D01*
X824545D01*
X826054Y2863776D01*
Y2862267D01*
X820019D01*
X835106Y2865285D02*
X830580D01*
X829071Y2863776D01*
Y2860759D01*
X830580Y2859250D01*
X835106D01*
X838123D02*
X841141D01*
X839632D01*
Y2865285D01*
X838123D01*
X847176Y2859250D02*
Y2866793D01*
Y2863776D01*
X845667D01*
X848684D01*
X847176D01*
Y2866793D01*
X848684Y2868302D01*
X853210Y2859250D02*
X856228D01*
X854719D01*
Y2865285D01*
X853210D01*
X865280Y2859250D02*
X862263D01*
X860754Y2860759D01*
Y2863776D01*
X862263Y2865285D01*
X865280D01*
X866789Y2863776D01*
Y2862267D01*
X860754D01*
X875841Y2868302D02*
Y2859250D01*
X871315D01*
X869806Y2860759D01*
Y2863776D01*
X871315Y2865285D01*
X875841D01*
X359866Y2852554D02*
Y2843502D01*
X364392D01*
X365901Y2845011D01*
Y2846519D01*
Y2848028D01*
X364392Y2849537D01*
X359866D01*
X370427Y2843502D02*
X373444D01*
X374953Y2845011D01*
Y2848028D01*
X373444Y2849537D01*
X370427D01*
X368918Y2848028D01*
Y2845011D01*
X370427Y2843502D01*
X379479Y2849537D02*
X382497D01*
X384005Y2848028D01*
Y2843502D01*
X379479D01*
X377970Y2845011D01*
X379479Y2846519D01*
X384005D01*
X387023Y2849537D02*
Y2843502D01*
Y2846519D01*
X388531Y2848028D01*
X390040Y2849537D01*
X391549D01*
X402110Y2852554D02*
Y2843502D01*
X397584D01*
X396075Y2845011D01*
Y2848028D01*
X397584Y2849537D01*
X402110D01*
X415688Y2851045D02*
Y2849537D01*
X414179D01*
X417197D01*
X415688D01*
Y2845011D01*
X417197Y2843502D01*
X421723Y2852554D02*
Y2843502D01*
Y2848028D01*
X423231Y2849537D01*
X426249D01*
X427758Y2848028D01*
Y2843502D01*
X430775D02*
X433792D01*
X432284D01*
Y2849537D01*
X430775D01*
X444353D02*
X439827D01*
X438318Y2848028D01*
Y2845011D01*
X439827Y2843502D01*
X444353D01*
X447371D02*
Y2852554D01*
Y2846519D02*
X451897Y2849537D01*
X447371Y2846519D02*
X451897Y2843502D01*
X456423D02*
Y2849537D01*
X460949D01*
X462458Y2848028D01*
Y2843502D01*
X470001D02*
X466984D01*
X465475Y2845011D01*
Y2848028D01*
X466984Y2849537D01*
X470001D01*
X471510Y2848028D01*
Y2846519D01*
X465475D01*
X474527Y2843502D02*
X479053D01*
X480562Y2845011D01*
X479053Y2846519D01*
X476036D01*
X474527Y2848028D01*
X476036Y2849537D01*
X480562D01*
X483579Y2843502D02*
X488105D01*
X489614Y2845011D01*
X488105Y2846519D01*
X485088D01*
X483579Y2848028D01*
X485088Y2849537D01*
X489614D01*
X375614Y2796258D02*
X378631D01*
X377123D01*
Y2805310D01*
X375614Y2803801D01*
X383158D02*
X384666Y2805310D01*
X387684D01*
X389192Y2803801D01*
Y2797766D01*
X387684Y2796258D01*
X384666D01*
X383158Y2797766D01*
Y2803801D01*
X392210D02*
X393719Y2805310D01*
X396736D01*
X398245Y2803801D01*
Y2797766D01*
X396736Y2796258D01*
X393719D01*
X392210Y2797766D01*
Y2803801D01*
X401262Y2797766D02*
X408806Y2805310D01*
X401262D02*
Y2806819D01*
X402771D01*
Y2805310D01*
X401262D01*
X407297Y2796258D02*
Y2797766D01*
X408806D01*
Y2796258D01*
X407297D01*
X426910Y2805310D02*
X420875D01*
Y2796258D01*
X426910D01*
X420875Y2800784D02*
X423892D01*
X429927Y2796258D02*
X432945D01*
X431436D01*
Y2805310D01*
X429927D01*
X441997Y2796258D02*
X438979D01*
X437471Y2797766D01*
Y2800784D01*
X438979Y2802293D01*
X441997D01*
X443505Y2800784D01*
Y2799275D01*
X437471D01*
X452558Y2802293D02*
X448032D01*
X446523Y2800784D01*
Y2797766D01*
X448032Y2796258D01*
X452558D01*
X457084Y2803801D02*
Y2802293D01*
X455575D01*
X458593D01*
X457084D01*
Y2797766D01*
X458593Y2796258D01*
X463119Y2802293D02*
Y2796258D01*
Y2799275D01*
X464627Y2800784D01*
X466136Y2802293D01*
X467645D01*
X472171Y2796258D02*
X475188D01*
X473679D01*
Y2802293D01*
X472171D01*
X485749D02*
X481223D01*
X479714Y2800784D01*
Y2797766D01*
X481223Y2796258D01*
X485749D01*
X490275Y2802293D02*
X493293D01*
X494801Y2800784D01*
Y2796258D01*
X490275D01*
X488766Y2797766D01*
X490275Y2799275D01*
X494801D01*
X497819Y2796258D02*
X500836D01*
X499327D01*
Y2805310D01*
X497819D01*
X514414D02*
X520449D01*
X517432D01*
Y2796258D01*
X527993D02*
X524975D01*
X523466Y2797766D01*
Y2800784D01*
X524975Y2802293D01*
X527993D01*
X529501Y2800784D01*
Y2799275D01*
X523466D01*
X532519Y2796258D02*
X537045D01*
X538553Y2797766D01*
X537045Y2799275D01*
X534027D01*
X532519Y2800784D01*
X534027Y2802293D01*
X538553D01*
X543080Y2803801D02*
Y2802293D01*
X541571D01*
X544588D01*
X543080D01*
Y2797766D01*
X544588Y2796258D01*
X380140Y2789562D02*
X377123D01*
X375614Y2788053D01*
Y2782018D01*
X377123Y2780510D01*
X380140D01*
X381649Y2782018D01*
Y2788053D01*
X380140Y2789562D01*
X384666Y2777492D02*
Y2786544D01*
X389192D01*
X390701Y2785036D01*
Y2782018D01*
X389192Y2780510D01*
X384666D01*
X395227Y2788053D02*
Y2786544D01*
X393719D01*
X396736D01*
X395227D01*
Y2782018D01*
X396736Y2780510D01*
X401262D02*
X404279D01*
X402771D01*
Y2786544D01*
X401262D01*
X414840D02*
X410314D01*
X408806Y2785036D01*
Y2782018D01*
X410314Y2780510D01*
X414840D01*
X419366Y2786544D02*
X422384D01*
X423892Y2785036D01*
Y2780510D01*
X419366D01*
X417858Y2782018D01*
X419366Y2783527D01*
X423892D01*
X426910Y2780510D02*
X429927D01*
X428418D01*
Y2789562D01*
X426910D01*
X445014Y2788053D02*
Y2786544D01*
X443505D01*
X446523D01*
X445014D01*
Y2782018D01*
X446523Y2780510D01*
X455575D02*
X452558D01*
X451049Y2782018D01*
Y2785036D01*
X452558Y2786544D01*
X455575D01*
X457084Y2785036D01*
Y2783527D01*
X451049D01*
X460101Y2780510D02*
X464627D01*
X466136Y2782018D01*
X464627Y2783527D01*
X461610D01*
X460101Y2785036D01*
X461610Y2786544D01*
X466136D01*
X470662Y2788053D02*
Y2786544D01*
X469153D01*
X472171D01*
X470662D01*
Y2782018D01*
X472171Y2780510D01*
X478206Y2779001D02*
X479714Y2780510D01*
Y2782018D01*
X478206D01*
Y2780510D01*
X479714D01*
X478206Y2779001D01*
X476697Y2777492D01*
X494801Y2780510D02*
Y2786544D01*
X497819Y2789562D01*
X500836Y2786544D01*
Y2780510D01*
Y2785036D01*
X494801D01*
X508380Y2789562D02*
X505362D01*
X503854Y2788053D01*
Y2782018D01*
X505362Y2780510D01*
X508380D01*
X509888Y2782018D01*
Y2788053D01*
X508380Y2789562D01*
X512906D02*
X515923D01*
X514414D01*
Y2780510D01*
X512906D01*
X515923D01*
X532519D02*
X529501Y2783527D01*
Y2786544D01*
X532519Y2789562D01*
X537045Y2786544D02*
Y2782018D01*
X538553Y2780510D01*
X540062Y2782018D01*
X541571Y2780510D01*
X543080Y2782018D01*
Y2786544D01*
X546097Y2780510D02*
X549114D01*
X547606D01*
Y2786544D01*
X546097D01*
X555149Y2788053D02*
Y2786544D01*
X553641D01*
X556658D01*
X555149D01*
Y2782018D01*
X556658Y2780510D01*
X561184Y2789562D02*
Y2780510D01*
Y2785036D01*
X562693Y2786544D01*
X565710D01*
X567219Y2785036D01*
Y2780510D01*
X580797Y2786544D02*
X583814D01*
X585323Y2785036D01*
Y2780510D01*
X580797D01*
X579288Y2782018D01*
X580797Y2783527D01*
X585323D01*
X588341Y2786544D02*
Y2782018D01*
X589849Y2780510D01*
X594375D01*
Y2786544D01*
X598902Y2788053D02*
Y2786544D01*
X597393D01*
X600410D01*
X598902D01*
Y2782018D01*
X600410Y2780510D01*
X606445D02*
X609462D01*
X610971Y2782018D01*
Y2785036D01*
X609462Y2786544D01*
X606445D01*
X604936Y2785036D01*
Y2782018D01*
X606445Y2780510D01*
X613988D02*
Y2786544D01*
X615497D01*
X617006Y2785036D01*
Y2780510D01*
Y2785036D01*
X618514Y2786544D01*
X620023Y2785036D01*
Y2780510D01*
X624549Y2786544D02*
X627567D01*
X629075Y2785036D01*
Y2780510D01*
X624549D01*
X623041Y2782018D01*
X624549Y2783527D01*
X629075D01*
X633602Y2788053D02*
Y2786544D01*
X632093D01*
X635110D01*
X633602D01*
Y2782018D01*
X635110Y2780510D01*
X639636D02*
X642654D01*
X641145D01*
Y2786544D01*
X639636D01*
X653215D02*
X648689D01*
X647180Y2785036D01*
Y2782018D01*
X648689Y2780510D01*
X653215D01*
X665284D02*
X669810D01*
X671319Y2782018D01*
X669810Y2783527D01*
X666793D01*
X665284Y2785036D01*
X666793Y2786544D01*
X671319D01*
X680371D02*
X675845D01*
X674336Y2785036D01*
Y2782018D01*
X675845Y2780510D01*
X680371D01*
X684897Y2786544D02*
X687915D01*
X689423Y2785036D01*
Y2780510D01*
X684897D01*
X683389Y2782018D01*
X684897Y2783527D01*
X689423D01*
X692441Y2780510D02*
Y2786544D01*
X696967D01*
X698476Y2785036D01*
Y2780510D01*
X701493D02*
Y2786544D01*
X706019D01*
X707528Y2785036D01*
Y2780510D01*
X715071D02*
X712054D01*
X710545Y2782018D01*
Y2785036D01*
X712054Y2786544D01*
X715071D01*
X716580Y2785036D01*
Y2783527D01*
X710545D01*
X719597Y2786544D02*
Y2780510D01*
Y2783527D01*
X721106Y2785036D01*
X722615Y2786544D01*
X724123D01*
X728650Y2780510D02*
X731667Y2783527D01*
Y2786544D01*
X728650Y2789562D01*
X375614Y2773814D02*
Y2767779D01*
X378631Y2764762D01*
X381649Y2767779D01*
Y2773814D01*
X384666Y2764762D02*
X387684D01*
X386175D01*
Y2770797D01*
X384666D01*
X392210Y2764762D02*
X396736D01*
X398245Y2766270D01*
X396736Y2767779D01*
X393719D01*
X392210Y2769288D01*
X393719Y2770797D01*
X398245D01*
X401262D02*
Y2766270D01*
X402771Y2764762D01*
X407297D01*
Y2770797D01*
X411823D02*
X414840D01*
X416349Y2769288D01*
Y2764762D01*
X411823D01*
X410314Y2766270D01*
X411823Y2767779D01*
X416349D01*
X419366Y2764762D02*
X422384D01*
X420875D01*
Y2773814D01*
X419366D01*
X435962Y2764762D02*
X438979D01*
X437471D01*
Y2770797D01*
X435962D01*
X443505Y2764762D02*
Y2770797D01*
X448032D01*
X449540Y2769288D01*
Y2764762D01*
X452558D02*
X457084D01*
X458593Y2766270D01*
X457084Y2767779D01*
X454066D01*
X452558Y2769288D01*
X454066Y2770797D01*
X458593D01*
X461610Y2761744D02*
Y2770797D01*
X466136D01*
X467645Y2769288D01*
Y2766270D01*
X466136Y2764762D01*
X461610D01*
X475188D02*
X472171D01*
X470662Y2766270D01*
Y2769288D01*
X472171Y2770797D01*
X475188D01*
X476697Y2769288D01*
Y2767779D01*
X470662D01*
X485749Y2770797D02*
X481223D01*
X479714Y2769288D01*
Y2766270D01*
X481223Y2764762D01*
X485749D01*
X490275Y2772305D02*
Y2770797D01*
X488766D01*
X491784D01*
X490275D01*
Y2766270D01*
X491784Y2764762D01*
X496310D02*
X499327D01*
X497819D01*
Y2770797D01*
X496310D01*
X505362Y2764762D02*
X508380D01*
X509888Y2766270D01*
Y2769288D01*
X508380Y2770797D01*
X505362D01*
X503854Y2769288D01*
Y2766270D01*
X505362Y2764762D01*
X512906D02*
Y2770797D01*
X517432D01*
X518940Y2769288D01*
Y2764762D01*
X378631Y2749014D02*
X375614Y2752031D01*
Y2755048D01*
X378631Y2758066D01*
X389192Y2756557D02*
X387684Y2758066D01*
X384666D01*
X383158Y2756557D01*
Y2750522D01*
X384666Y2749014D01*
X387684D01*
X389192Y2750522D01*
Y2753540D01*
X386175D01*
X396736Y2749014D02*
X393719D01*
X392210Y2750522D01*
Y2753540D01*
X393719Y2755048D01*
X396736D01*
X398245Y2753540D01*
Y2752031D01*
X392210D01*
X401262Y2749014D02*
Y2755048D01*
X405788D01*
X407297Y2753540D01*
Y2749014D01*
X414840D02*
X411823D01*
X410314Y2750522D01*
Y2753540D01*
X411823Y2755048D01*
X414840D01*
X416349Y2753540D01*
Y2752031D01*
X410314D01*
X419366Y2755048D02*
Y2749014D01*
Y2752031D01*
X420875Y2753540D01*
X422384Y2755048D01*
X423892D01*
X429927D02*
X432945D01*
X434453Y2753540D01*
Y2749014D01*
X429927D01*
X428418Y2750522D01*
X429927Y2752031D01*
X434453D01*
X438979Y2756557D02*
Y2755048D01*
X437471D01*
X440488D01*
X438979D01*
Y2750522D01*
X440488Y2749014D01*
X449540D02*
X446523D01*
X445014Y2750522D01*
Y2753540D01*
X446523Y2755048D01*
X449540D01*
X451049Y2753540D01*
Y2752031D01*
X445014D01*
X463119Y2749014D02*
Y2755048D01*
X467645D01*
X469153Y2753540D01*
Y2749014D01*
X476697D02*
X473679D01*
X472171Y2750522D01*
Y2753540D01*
X473679Y2755048D01*
X476697D01*
X478206Y2753540D01*
Y2752031D01*
X472171D01*
X482732Y2756557D02*
Y2755048D01*
X481223D01*
X484240D01*
X482732D01*
Y2750522D01*
X484240Y2749014D01*
X488766D02*
X491784D01*
X490275D01*
Y2758066D01*
X488766D01*
X496310Y2749014D02*
X499327D01*
X497819D01*
Y2755048D01*
X496310D01*
X503854Y2749014D02*
X508380D01*
X509888Y2750522D01*
X508380Y2752031D01*
X505362D01*
X503854Y2753540D01*
X505362Y2755048D01*
X509888D01*
X514414Y2756557D02*
Y2755048D01*
X512906D01*
X515923D01*
X514414D01*
Y2750522D01*
X515923Y2749014D01*
X531010D02*
Y2756557D01*
Y2753540D01*
X529501D01*
X532519D01*
X531010D01*
Y2756557D01*
X532519Y2758066D01*
X537045Y2755048D02*
Y2749014D01*
Y2752031D01*
X538553Y2753540D01*
X540062Y2755048D01*
X541571D01*
X547606Y2749014D02*
X550623D01*
X552132Y2750522D01*
Y2753540D01*
X550623Y2755048D01*
X547606D01*
X546097Y2753540D01*
Y2750522D01*
X547606Y2749014D01*
X555149D02*
Y2755048D01*
X556658D01*
X558167Y2753540D01*
Y2749014D01*
Y2753540D01*
X559675Y2755048D01*
X561184Y2753540D01*
Y2749014D01*
X579288Y2756557D02*
X577780Y2758066D01*
X574762D01*
X573254Y2756557D01*
Y2750522D01*
X574762Y2749014D01*
X577780D01*
X579288Y2750522D01*
Y2753540D01*
X576271D01*
X586832Y2749014D02*
X583814D01*
X582306Y2750522D01*
Y2753540D01*
X583814Y2755048D01*
X586832D01*
X588341Y2753540D01*
Y2752031D01*
X582306D01*
X591358Y2755048D02*
Y2749014D01*
Y2752031D01*
X592867Y2753540D01*
X594375Y2755048D01*
X595884D01*
X600410Y2758066D02*
Y2749014D01*
X604936D01*
X606445Y2750522D01*
Y2752031D01*
Y2753540D01*
X604936Y2755048D01*
X600410D01*
X613988Y2749014D02*
X610971D01*
X609462Y2750522D01*
Y2753540D01*
X610971Y2755048D01*
X613988D01*
X615497Y2753540D01*
Y2752031D01*
X609462D01*
X618514Y2755048D02*
Y2749014D01*
Y2752031D01*
X620023Y2753540D01*
X621532Y2755048D01*
X623041D01*
X638128D02*
X641145D01*
X642654Y2753540D01*
Y2749014D01*
X638128D01*
X636619Y2750522D01*
X638128Y2752031D01*
X642654D01*
X645671Y2749014D02*
Y2755048D01*
X650197D01*
X651706Y2753540D01*
Y2749014D01*
X660758Y2758066D02*
Y2749014D01*
X656232D01*
X654723Y2750522D01*
Y2753540D01*
X656232Y2755048D01*
X660758D01*
X672828Y2758066D02*
Y2749014D01*
X677354D01*
X678862Y2750522D01*
Y2756557D01*
X677354Y2758066D01*
X672828D01*
X681880Y2755048D02*
Y2749014D01*
Y2752031D01*
X683389Y2753540D01*
X684897Y2755048D01*
X686406D01*
X690932Y2749014D02*
X693949D01*
X692441D01*
Y2755048D01*
X690932D01*
X698476Y2749014D02*
X701493D01*
X699984D01*
Y2758066D01*
X698476D01*
X706019Y2749014D02*
X709036D01*
X707528D01*
Y2758066D01*
X706019D01*
X724123Y2749014D02*
Y2756557D01*
Y2753540D01*
X722615D01*
X725632D01*
X724123D01*
Y2756557D01*
X725632Y2758066D01*
X730158Y2749014D02*
X733176D01*
X731667D01*
Y2755048D01*
X730158D01*
X737702Y2749014D02*
X740719D01*
X739210D01*
Y2758066D01*
X737702D01*
X749771Y2749014D02*
X746754D01*
X745245Y2750522D01*
Y2753540D01*
X746754Y2755048D01*
X749771D01*
X751280Y2753540D01*
Y2752031D01*
X745245D01*
X754297Y2749014D02*
X758823D01*
X760332Y2750522D01*
X758823Y2752031D01*
X755806D01*
X754297Y2753540D01*
X755806Y2755048D01*
X760332D01*
X763350Y2749014D02*
X766367Y2752031D01*
Y2755048D01*
X763350Y2758066D01*
X375614Y2717518D02*
Y2723552D01*
X378631Y2726570D01*
X381649Y2723552D01*
Y2717518D01*
Y2722044D01*
X375614D01*
X384666Y2723552D02*
X387684Y2717518D01*
X390701Y2723552D01*
X395227Y2717518D02*
X398245D01*
X399753Y2719026D01*
Y2722044D01*
X398245Y2723552D01*
X395227D01*
X393719Y2722044D01*
Y2719026D01*
X395227Y2717518D01*
X402771D02*
X405788D01*
X404279D01*
Y2723552D01*
X402771D01*
X416349Y2726570D02*
Y2717518D01*
X411823D01*
X410314Y2719026D01*
Y2722044D01*
X411823Y2723552D01*
X416349D01*
X428418D02*
Y2719026D01*
X429927Y2717518D01*
X434453D01*
Y2723552D01*
X437471Y2717518D02*
X441997D01*
X443505Y2719026D01*
X441997Y2720535D01*
X438979D01*
X437471Y2722044D01*
X438979Y2723552D01*
X443505D01*
X451049Y2717518D02*
X448032D01*
X446523Y2719026D01*
Y2722044D01*
X448032Y2723552D01*
X451049D01*
X452558Y2722044D01*
Y2720535D01*
X446523D01*
X466136Y2717518D02*
X469153D01*
X470662Y2719026D01*
Y2722044D01*
X469153Y2723552D01*
X466136D01*
X464627Y2722044D01*
Y2719026D01*
X466136Y2717518D01*
X475188D02*
Y2725061D01*
Y2722044D01*
X473679D01*
X476697D01*
X475188D01*
Y2725061D01*
X476697Y2726570D01*
X496310Y2717518D02*
X490275D01*
X496310Y2723552D01*
Y2725061D01*
X494801Y2726570D01*
X491784D01*
X490275Y2725061D01*
X499327Y2717518D02*
X502345D01*
X500836D01*
Y2726570D01*
X499327Y2725061D01*
X512906Y2717518D02*
X506871D01*
X512906Y2723552D01*
Y2725061D01*
X511397Y2726570D01*
X508380D01*
X506871Y2725061D01*
X521958Y2726570D02*
X515923D01*
Y2722044D01*
X518940Y2723552D01*
X520449D01*
X521958Y2722044D01*
Y2719026D01*
X520449Y2717518D01*
X517432D01*
X515923Y2719026D01*
X534027Y2717518D02*
Y2726570D01*
X538553D01*
X540062Y2725061D01*
Y2722044D01*
X538553Y2720535D01*
X534027D01*
X543080Y2723552D02*
Y2717518D01*
Y2720535D01*
X544588Y2722044D01*
X546097Y2723552D01*
X547606D01*
X556658Y2717518D02*
X553641D01*
X552132Y2719026D01*
Y2722044D01*
X553641Y2723552D01*
X556658D01*
X558167Y2722044D01*
Y2720535D01*
X552132D01*
X561184Y2714500D02*
Y2723552D01*
X565710D01*
X567219Y2722044D01*
Y2719026D01*
X565710Y2717518D01*
X561184D01*
X570236Y2723552D02*
Y2717518D01*
Y2720535D01*
X571745Y2722044D01*
X573254Y2723552D01*
X574762D01*
X583814Y2717518D02*
X580797D01*
X579288Y2719026D01*
Y2722044D01*
X580797Y2723552D01*
X583814D01*
X585323Y2722044D01*
Y2720535D01*
X579288D01*
X591358Y2714500D02*
X592867D01*
X594375Y2716009D01*
Y2723552D01*
X589849D01*
X588341Y2722044D01*
Y2719026D01*
X589849Y2717518D01*
X594375D01*
X375614Y2695074D02*
X378631D01*
X377123D01*
Y2686021D01*
X375614D01*
X378631D01*
X384666D02*
Y2693565D01*
Y2690548D01*
X383158D01*
X386175D01*
X384666D01*
Y2693565D01*
X386175Y2695074D01*
X399753Y2686021D02*
Y2695074D01*
X405788Y2686021D01*
Y2695074D01*
X408806D02*
Y2686021D01*
X413332D01*
X414840Y2687530D01*
Y2689039D01*
X413332Y2690548D01*
X408806D01*
X413332D01*
X414840Y2692056D01*
Y2693565D01*
X413332Y2695074D01*
X408806D01*
X417858Y2689039D02*
Y2696582D01*
Y2687530D02*
Y2686021D01*
X429927D02*
X432945D01*
X431436D01*
Y2692056D01*
X429927D01*
X437471Y2686021D02*
X441997D01*
X443505Y2687530D01*
X441997Y2689039D01*
X438979D01*
X437471Y2690548D01*
X438979Y2692056D01*
X443505D01*
X455575D02*
Y2687530D01*
X457084Y2686021D01*
X461610D01*
Y2692056D01*
X464627Y2686021D02*
X469153D01*
X470662Y2687530D01*
X469153Y2689039D01*
X466136D01*
X464627Y2690548D01*
X466136Y2692056D01*
X470662D01*
X478206Y2686021D02*
X475188D01*
X473679Y2687530D01*
Y2690548D01*
X475188Y2692056D01*
X478206D01*
X479714Y2690548D01*
Y2689039D01*
X473679D01*
X488766Y2695074D02*
Y2686021D01*
X484240D01*
X482732Y2687530D01*
Y2690548D01*
X484240Y2692056D01*
X488766D01*
X500836Y2686021D02*
X503854D01*
X502345D01*
Y2692056D01*
X500836D01*
X508380Y2686021D02*
Y2692056D01*
X512906D01*
X514414Y2690548D01*
Y2686021D01*
X527993Y2693565D02*
Y2692056D01*
X526484D01*
X529501D01*
X527993D01*
Y2687530D01*
X529501Y2686021D01*
X534027Y2695074D02*
Y2686021D01*
Y2690548D01*
X535536Y2692056D01*
X538553D01*
X540062Y2690548D01*
Y2686021D01*
X543080D02*
X546097D01*
X544588D01*
Y2692056D01*
X543080D01*
X550623Y2686021D02*
X555149D01*
X556658Y2687530D01*
X555149Y2689039D01*
X552132D01*
X550623Y2690548D01*
X552132Y2692056D01*
X556658D01*
X568727Y2686021D02*
X573254D01*
X574762Y2687530D01*
X573254Y2689039D01*
X570236D01*
X568727Y2690548D01*
X570236Y2692056D01*
X574762D01*
X577780Y2683004D02*
Y2692056D01*
X582306D01*
X583814Y2690548D01*
Y2687530D01*
X582306Y2686021D01*
X577780D01*
X591358D02*
X588341D01*
X586832Y2687530D01*
Y2690548D01*
X588341Y2692056D01*
X591358D01*
X592867Y2690548D01*
Y2689039D01*
X586832D01*
X601919Y2692056D02*
X597393D01*
X595884Y2690548D01*
Y2687530D01*
X597393Y2686021D01*
X601919D01*
X604936D02*
X607954D01*
X606445D01*
Y2692056D01*
X604936D01*
X613988Y2686021D02*
Y2693565D01*
Y2690548D01*
X612480D01*
X615497D01*
X613988D01*
Y2693565D01*
X615497Y2695074D01*
X620023Y2686021D02*
X623041D01*
X621532D01*
Y2692056D01*
X620023D01*
X633602D02*
X629075D01*
X627567Y2690548D01*
Y2687530D01*
X629075Y2686021D01*
X633602D01*
X638128Y2692056D02*
X641145D01*
X642654Y2690548D01*
Y2686021D01*
X638128D01*
X636619Y2687530D01*
X638128Y2689039D01*
X642654D01*
X647180Y2693565D02*
Y2692056D01*
X645671D01*
X648689D01*
X647180D01*
Y2687530D01*
X648689Y2686021D01*
X653215D02*
X656232D01*
X654723D01*
Y2692056D01*
X653215D01*
X662267Y2686021D02*
X665284D01*
X666793Y2687530D01*
Y2690548D01*
X665284Y2692056D01*
X662267D01*
X660758Y2690548D01*
Y2687530D01*
X662267Y2686021D01*
X669810D02*
Y2692056D01*
X674336D01*
X675845Y2690548D01*
Y2686021D01*
X680371Y2684513D02*
X681880Y2686021D01*
Y2687530D01*
X680371D01*
Y2686021D01*
X681880D01*
X680371Y2684513D01*
X678862Y2683004D01*
X696967Y2686021D02*
X699984D01*
X698476D01*
Y2692056D01*
X696967D01*
X706019Y2693565D02*
Y2692056D01*
X704510D01*
X707528D01*
X706019D01*
Y2687530D01*
X707528Y2686021D01*
X721106D02*
Y2692056D01*
X722615D01*
X724123Y2690548D01*
Y2686021D01*
Y2690548D01*
X725632Y2692056D01*
X727141Y2690548D01*
Y2686021D01*
X734684D02*
X731667D01*
X730158Y2687530D01*
Y2690548D01*
X731667Y2692056D01*
X734684D01*
X736193Y2690548D01*
Y2689039D01*
X730158D01*
X740719Y2692056D02*
X743737D01*
X745245Y2690548D01*
Y2686021D01*
X740719D01*
X739210Y2687530D01*
X740719Y2689039D01*
X745245D01*
X748263Y2686021D02*
Y2692056D01*
X752789D01*
X754297Y2690548D01*
Y2686021D01*
X757315D02*
X761841D01*
X763350Y2687530D01*
X761841Y2689039D01*
X758823D01*
X757315Y2690548D01*
X758823Y2692056D01*
X763350D01*
X766367D02*
X767876D01*
Y2690548D01*
X766367D01*
Y2692056D01*
Y2687530D02*
X767876D01*
Y2686021D01*
X766367D01*
Y2687530D01*
X377123Y2676308D02*
X380140D01*
X381649Y2674800D01*
Y2670274D01*
X377123D01*
X375614Y2671782D01*
X377123Y2673291D01*
X381649D01*
X384666Y2679326D02*
Y2670274D01*
X389192D01*
X390701Y2671782D01*
Y2673291D01*
Y2674800D01*
X389192Y2676308D01*
X384666D01*
X393719Y2679326D02*
Y2670274D01*
X398245D01*
X399753Y2671782D01*
Y2673291D01*
Y2674800D01*
X398245Y2676308D01*
X393719D01*
X402771D02*
Y2670274D01*
Y2673291D01*
X404279Y2674800D01*
X405788Y2676308D01*
X407297D01*
X416349Y2670274D02*
X413332D01*
X411823Y2671782D01*
Y2674800D01*
X413332Y2676308D01*
X416349D01*
X417858Y2674800D01*
Y2673291D01*
X411823D01*
X420875Y2676308D02*
X423892Y2670274D01*
X426910Y2676308D01*
X429927Y2670274D02*
X432945D01*
X431436D01*
Y2676308D01*
X429927D01*
X438979D02*
X441997D01*
X443505Y2674800D01*
Y2670274D01*
X438979D01*
X437471Y2671782D01*
X438979Y2673291D01*
X443505D01*
X448032Y2677817D02*
Y2676308D01*
X446523D01*
X449540D01*
X448032D01*
Y2671782D01*
X449540Y2670274D01*
X454066D02*
X457084D01*
X455575D01*
Y2676308D01*
X454066D01*
X463119Y2670274D02*
X466136D01*
X467645Y2671782D01*
Y2674800D01*
X466136Y2676308D01*
X463119D01*
X461610Y2674800D01*
Y2671782D01*
X463119Y2670274D01*
X470662D02*
Y2676308D01*
X475188D01*
X476697Y2674800D01*
Y2670274D01*
X490275D02*
Y2677817D01*
Y2674800D01*
X488766D01*
X491784D01*
X490275D01*
Y2677817D01*
X491784Y2679326D01*
X497819Y2670274D02*
X500836D01*
X502345Y2671782D01*
Y2674800D01*
X500836Y2676308D01*
X497819D01*
X496310Y2674800D01*
Y2671782D01*
X497819Y2670274D01*
X505362Y2676308D02*
Y2670274D01*
Y2673291D01*
X506871Y2674800D01*
X508380Y2676308D01*
X509888D01*
X523466Y2670274D02*
Y2676308D01*
X527993D01*
X529501Y2674800D01*
Y2670274D01*
X534027D02*
X537045D01*
X538553Y2671782D01*
Y2674800D01*
X537045Y2676308D01*
X534027D01*
X532519Y2674800D01*
Y2671782D01*
X534027Y2670274D01*
X543080Y2677817D02*
Y2676308D01*
X541571D01*
X544588D01*
X543080D01*
Y2671782D01*
X544588Y2670274D01*
X550623Y2676308D02*
X553641D01*
X555149Y2674800D01*
Y2670274D01*
X550623D01*
X549114Y2671782D01*
X550623Y2673291D01*
X555149D01*
X567219Y2679326D02*
Y2670274D01*
X571745D01*
X573254Y2671782D01*
Y2673291D01*
Y2674800D01*
X571745Y2676308D01*
X567219D01*
X580797Y2670274D02*
X577780D01*
X576271Y2671782D01*
Y2674800D01*
X577780Y2676308D01*
X580797D01*
X582306Y2674800D01*
Y2673291D01*
X576271D01*
X585323Y2670274D02*
Y2676308D01*
X589849D01*
X591358Y2674800D01*
Y2670274D01*
X598902D02*
X595884D01*
X594375Y2671782D01*
Y2674800D01*
X595884Y2676308D01*
X598902D01*
X600410Y2674800D01*
Y2673291D01*
X594375D01*
X603428D02*
Y2680834D01*
Y2671782D02*
Y2670274D01*
X607954Y2668765D02*
X609462Y2670274D01*
Y2671782D01*
X607954D01*
Y2670274D01*
X609462D01*
X607954Y2668765D01*
X606445Y2667256D01*
X626058Y2676308D02*
X629075D01*
X630584Y2674800D01*
Y2670274D01*
X626058D01*
X624549Y2671782D01*
X626058Y2673291D01*
X630584D01*
X642654Y2679326D02*
Y2670274D01*
X648689D01*
X653215Y2676308D02*
X656232D01*
X657741Y2674800D01*
Y2670274D01*
X653215D01*
X651706Y2671782D01*
X653215Y2673291D01*
X657741D01*
X662267Y2677817D02*
Y2676308D01*
X660758D01*
X663775D01*
X662267D01*
Y2671782D01*
X663775Y2670274D01*
X668302D02*
X671319D01*
X669810D01*
Y2676308D01*
X668302D01*
X675845Y2670274D02*
Y2676308D01*
X680371D01*
X681880Y2674800D01*
Y2670274D01*
X698476D02*
X695458D01*
X693949Y2671782D01*
Y2674800D01*
X695458Y2676308D01*
X698476D01*
X699984Y2674800D01*
Y2673291D01*
X693949D01*
X703002Y2676308D02*
X709036Y2670274D01*
X706019Y2673291D01*
X709036Y2676308D01*
X703002Y2670274D01*
X712054Y2667256D02*
Y2676308D01*
X716580D01*
X718089Y2674800D01*
Y2671782D01*
X716580Y2670274D01*
X712054D01*
X721106Y2676308D02*
Y2670274D01*
Y2673291D01*
X722615Y2674800D01*
X724123Y2676308D01*
X725632D01*
X734684Y2670274D02*
X731667D01*
X730158Y2671782D01*
Y2674800D01*
X731667Y2676308D01*
X734684D01*
X736193Y2674800D01*
Y2673291D01*
X730158D01*
X739210Y2670274D02*
X743737D01*
X745245Y2671782D01*
X743737Y2673291D01*
X740719D01*
X739210Y2674800D01*
X740719Y2676308D01*
X745245D01*
X748263Y2670274D02*
X752789D01*
X754297Y2671782D01*
X752789Y2673291D01*
X749771D01*
X748263Y2674800D01*
X749771Y2676308D01*
X754297D01*
X757315Y2670274D02*
X760332D01*
X758823D01*
Y2676308D01*
X757315D01*
X766367Y2670274D02*
X769384D01*
X770893Y2671782D01*
Y2674800D01*
X769384Y2676308D01*
X766367D01*
X764858Y2674800D01*
Y2671782D01*
X766367Y2670274D01*
X773911D02*
Y2676308D01*
X778437D01*
X779945Y2674800D01*
Y2670274D01*
X792015D02*
Y2676308D01*
X793524D01*
X795032Y2674800D01*
Y2670274D01*
Y2674800D01*
X796541Y2676308D01*
X798050Y2674800D01*
Y2670274D01*
X805593D02*
X802576D01*
X801067Y2671782D01*
Y2674800D01*
X802576Y2676308D01*
X805593D01*
X807102Y2674800D01*
Y2673291D01*
X801067D01*
X811628Y2676308D02*
X814645D01*
X816154Y2674800D01*
Y2670274D01*
X811628D01*
X810119Y2671782D01*
X811628Y2673291D01*
X816154D01*
X819171Y2670274D02*
Y2676308D01*
X823697D01*
X825206Y2674800D01*
Y2670274D01*
X828224D02*
X831241D01*
X829732D01*
Y2676308D01*
X828224D01*
X835767Y2670274D02*
Y2676308D01*
X840293D01*
X841802Y2674800D01*
Y2670274D01*
X847837Y2667256D02*
X849345D01*
X850854Y2668765D01*
Y2676308D01*
X846328D01*
X844819Y2674800D01*
Y2671782D01*
X846328Y2670274D01*
X850854D01*
X375614Y2654526D02*
Y2660560D01*
X380140D01*
X381649Y2659052D01*
Y2654526D01*
X386175D02*
X389192D01*
X390701Y2656034D01*
Y2659052D01*
X389192Y2660560D01*
X386175D01*
X384666Y2659052D01*
Y2656034D01*
X386175Y2654526D01*
X395227Y2662069D02*
Y2660560D01*
X393719D01*
X396736D01*
X395227D01*
Y2656034D01*
X396736Y2654526D01*
X405788D02*
X402771D01*
X401262Y2656034D01*
Y2659052D01*
X402771Y2660560D01*
X405788D01*
X407297Y2659052D01*
Y2657543D01*
X401262D01*
X419366Y2660560D02*
Y2656034D01*
X420875Y2654526D01*
X422384Y2656034D01*
X423892Y2654526D01*
X425401Y2656034D01*
Y2660560D01*
X432945Y2654526D02*
X429927D01*
X428418Y2656034D01*
Y2659052D01*
X429927Y2660560D01*
X432945D01*
X434453Y2659052D01*
Y2657543D01*
X428418D01*
X437471Y2654526D02*
X440488D01*
X438979D01*
Y2663578D01*
X437471D01*
X445014Y2654526D02*
X448032D01*
X446523D01*
Y2663578D01*
X445014D01*
X452558Y2657543D02*
Y2665086D01*
Y2656034D02*
Y2654526D01*
X218134Y2611807D02*
X224169D01*
X227186D02*
X233221D01*
X236238D02*
X242273D01*
X245290D02*
X251325D01*
X254343D02*
X260377D01*
X263395D02*
X269429D01*
X272447D02*
X278482D01*
X281499D02*
X287534D01*
X290551D02*
X296586D01*
X299604D02*
X305638D01*
X308656D02*
X314690D01*
X317708D02*
X323743D01*
X326760D02*
X332795D01*
X335812D02*
X341847D01*
X344864D02*
X350899D01*
X353917D02*
X359951D01*
X362969D02*
X369004D01*
X372021D02*
X378056D01*
X381073D02*
X387108D01*
X390125D02*
X396160D01*
X399178D02*
X405212D01*
X408230D02*
X414265D01*
X417282D02*
X423317D01*
X426334D02*
X432369D01*
X435386D02*
X441421D01*
X444439D02*
X450473D01*
X453491D02*
X459525D01*
X462543D02*
X468578D01*
X471595D02*
X477630D01*
X480647D02*
X486682D01*
X489700D02*
X495734D01*
X498752D02*
X504786D01*
X507804D02*
X513839D01*
X516856D02*
X522891D01*
X525908D02*
X531943D01*
X534960D02*
X540995D01*
X544013D02*
X550047D01*
X553065D02*
X559100D01*
X562117D02*
X568152D01*
X571169D02*
X577204D01*
X580221D02*
X586256D01*
X589274D02*
X595308D01*
X598326D02*
X604361D01*
X607378D02*
X613413D01*
X616430D02*
X622465D01*
X625482D02*
X631517D01*
X634535D02*
X640569D01*
X643587D02*
X649621D01*
X652639D02*
X658674D01*
X661691D02*
X667726D01*
X670743D02*
X676778D01*
X679796D02*
X685830D01*
X688848D02*
X694882D01*
X697900D02*
X703935D01*
X706952D02*
X712987D01*
X716004D02*
X722039D01*
X725056D02*
X731091D01*
X734109D02*
X740143D01*
X743161D02*
X749196D01*
X752213D02*
X758248D01*
X761265D02*
X767300D01*
X770317D02*
X776352D01*
X779370D02*
X785404D01*
X788422D02*
X794457D01*
X797474D02*
X803509D01*
X806526D02*
X812561D01*
X815578D02*
X821613D01*
X824631D02*
X830665D01*
X833683D02*
X839717D01*
X842735D02*
X848770D01*
X851787D02*
X857822D01*
X860839D02*
X866874D01*
X869891D02*
X875926D01*
X878944D02*
X884978D01*
X887996D02*
X894031D01*
X897048D02*
X903083D01*
X906100D02*
X912135D01*
X915152D02*
X921187D01*
X924205D02*
X930239D01*
X933257D02*
X939292D01*
X218134Y2593274D02*
Y2602326D01*
X224169Y2593274D01*
Y2602326D01*
X233221Y2600817D02*
X231712Y2602326D01*
X228695D01*
X227186Y2600817D01*
Y2594782D01*
X228695Y2593274D01*
X231712D01*
X233221Y2594782D01*
X245290Y2602326D02*
Y2593274D01*
X249816D01*
X251325Y2594782D01*
Y2600817D01*
X249816Y2602326D01*
X245290D01*
X254343Y2593274D02*
Y2602326D01*
X258869D01*
X260377Y2600817D01*
Y2597800D01*
X258869Y2596291D01*
X254343D01*
X257360D02*
X260377Y2593274D01*
X263395Y2602326D02*
X266412D01*
X264903D01*
Y2593274D01*
X263395D01*
X266412D01*
X270938Y2602326D02*
Y2593274D01*
X276973D01*
X279990Y2602326D02*
Y2593274D01*
X286025D01*
X298095Y2597800D02*
X304130D01*
X316199Y2602326D02*
Y2593274D01*
Y2597800D01*
X322234D01*
Y2602326D01*
Y2593274D01*
X329778Y2602326D02*
X326760D01*
X325251Y2600817D01*
Y2594782D01*
X326760Y2593274D01*
X329778D01*
X331286Y2594782D01*
Y2600817D01*
X329778Y2602326D01*
X334304D02*
Y2593274D01*
X340338D01*
X349391Y2602326D02*
X343356D01*
Y2593274D01*
X349391D01*
X343356Y2597800D02*
X346373D01*
X361460Y2602326D02*
X364477D01*
X362969D01*
Y2593274D01*
X361460D01*
X364477D01*
X369004D02*
Y2602326D01*
X375038Y2593274D01*
Y2602326D01*
X384091D02*
X378056D01*
Y2597800D01*
X381073D01*
X378056D01*
Y2593274D01*
X391634Y2602326D02*
X388617D01*
X387108Y2600817D01*
Y2594782D01*
X388617Y2593274D01*
X391634D01*
X393143Y2594782D01*
Y2600817D01*
X391634Y2602326D01*
X396160Y2593274D02*
Y2602326D01*
X400686D01*
X402195Y2600817D01*
Y2597800D01*
X400686Y2596291D01*
X396160D01*
X399178D02*
X402195Y2593274D01*
X405212D02*
Y2602326D01*
X408230Y2599308D01*
X411247Y2602326D01*
Y2593274D01*
X414265D02*
Y2599308D01*
X417282Y2602326D01*
X420299Y2599308D01*
Y2593274D01*
Y2597800D01*
X414265D01*
X423317Y2602326D02*
X429352D01*
X426334D01*
Y2593274D01*
X432369Y2602326D02*
X435386D01*
X433878D01*
Y2593274D01*
X432369D01*
X435386D01*
X444439Y2602326D02*
X441421D01*
X439912Y2600817D01*
Y2594782D01*
X441421Y2593274D01*
X444439D01*
X445947Y2594782D01*
Y2600817D01*
X444439Y2602326D01*
X448965Y2593274D02*
Y2602326D01*
X454999Y2593274D01*
Y2602326D01*
X458017Y2599308D02*
X459525D01*
Y2597800D01*
X458017D01*
Y2599308D01*
Y2594782D02*
X459525D01*
Y2593274D01*
X458017D01*
Y2594782D01*
X312622Y2584838D02*
Y2575785D01*
X317148D01*
X318657Y2577294D01*
Y2583329D01*
X317148Y2584838D01*
X312622D01*
X321674Y2581820D02*
Y2575785D01*
Y2578803D01*
X323183Y2580311D01*
X324692Y2581820D01*
X326200D01*
X330726Y2575785D02*
X333744D01*
X332235D01*
Y2581820D01*
X330726D01*
X338270Y2575785D02*
X341287D01*
X339779D01*
Y2584838D01*
X338270D01*
X345813Y2575785D02*
X348831D01*
X347322D01*
Y2584838D01*
X345813D01*
X368444D02*
Y2575785D01*
X363918D01*
X362409Y2577294D01*
Y2580311D01*
X363918Y2581820D01*
X368444D01*
X371461Y2575785D02*
X374479D01*
X372970D01*
Y2581820D01*
X371461D01*
X379005Y2575785D02*
Y2581820D01*
X380513D01*
X382022Y2580311D01*
Y2575785D01*
Y2580311D01*
X383531Y2581820D01*
X385039Y2580311D01*
Y2575785D01*
X392583D02*
X389566D01*
X388057Y2577294D01*
Y2580311D01*
X389566Y2581820D01*
X392583D01*
X394092Y2580311D01*
Y2578803D01*
X388057D01*
X397109Y2575785D02*
Y2581820D01*
X401635D01*
X403144Y2580311D01*
Y2575785D01*
X406161D02*
X410687D01*
X412196Y2577294D01*
X410687Y2578803D01*
X407670D01*
X406161Y2580311D01*
X407670Y2581820D01*
X412196D01*
X415213Y2575785D02*
X418231D01*
X416722D01*
Y2581820D01*
X415213D01*
X424266Y2575785D02*
X427283D01*
X428792Y2577294D01*
Y2580311D01*
X427283Y2581820D01*
X424266D01*
X422757Y2580311D01*
Y2577294D01*
X424266Y2575785D01*
X431809D02*
Y2581820D01*
X436335D01*
X437844Y2580311D01*
Y2575785D01*
X440861D02*
X445387D01*
X446896Y2577294D01*
X445387Y2578803D01*
X442370D01*
X440861Y2580311D01*
X442370Y2581820D01*
X446896D01*
X458966Y2575785D02*
Y2581820D01*
X460474D01*
X461983Y2580311D01*
Y2575785D01*
Y2580311D01*
X463492Y2581820D01*
X465000Y2580311D01*
Y2575785D01*
X468018Y2581820D02*
Y2577294D01*
X469527Y2575785D01*
X474053D01*
Y2581820D01*
X477070Y2575785D02*
X481596D01*
X483105Y2577294D01*
X481596Y2578803D01*
X478579D01*
X477070Y2580311D01*
X478579Y2581820D01*
X483105D01*
X487631Y2583329D02*
Y2581820D01*
X486122D01*
X489140D01*
X487631D01*
Y2577294D01*
X489140Y2575785D01*
X502718Y2584838D02*
Y2575785D01*
X507244D01*
X508753Y2577294D01*
Y2578803D01*
Y2580311D01*
X507244Y2581820D01*
X502718D01*
X516296Y2575785D02*
X513279D01*
X511770Y2577294D01*
Y2580311D01*
X513279Y2581820D01*
X516296D01*
X517805Y2580311D01*
Y2578803D01*
X511770D01*
X531383Y2583329D02*
Y2581820D01*
X529875D01*
X532892D01*
X531383D01*
Y2577294D01*
X532892Y2575785D01*
X538927Y2581820D02*
X541944D01*
X543453Y2580311D01*
Y2575785D01*
X538927D01*
X537418Y2577294D01*
X538927Y2578803D01*
X543453D01*
X546470Y2575785D02*
Y2584838D01*
Y2578803D02*
X550996Y2581820D01*
X546470Y2578803D02*
X550996Y2575785D01*
X560048D02*
X557031D01*
X555522Y2577294D01*
Y2580311D01*
X557031Y2581820D01*
X560048D01*
X561557Y2580311D01*
Y2578803D01*
X555522D01*
X564575Y2575785D02*
Y2581820D01*
X569101D01*
X570609Y2580311D01*
Y2575785D01*
X584188D02*
Y2583329D01*
Y2580311D01*
X582679D01*
X585696D01*
X584188D01*
Y2583329D01*
X585696Y2584838D01*
X590223Y2581820D02*
Y2575785D01*
Y2578803D01*
X591731Y2580311D01*
X593240Y2581820D01*
X594749D01*
X600783Y2575785D02*
X603801D01*
X605309Y2577294D01*
Y2580311D01*
X603801Y2581820D01*
X600783D01*
X599275Y2580311D01*
Y2577294D01*
X600783Y2575785D01*
X608327D02*
Y2581820D01*
X609835D01*
X611344Y2580311D01*
Y2575785D01*
Y2580311D01*
X612853Y2581820D01*
X614362Y2580311D01*
Y2575785D01*
X627940Y2583329D02*
Y2581820D01*
X626431D01*
X629449D01*
X627940D01*
Y2577294D01*
X629449Y2575785D01*
X633975Y2584838D02*
Y2575785D01*
Y2580311D01*
X635483Y2581820D01*
X638501D01*
X640009Y2580311D01*
Y2575785D01*
X647553D02*
X644536D01*
X643027Y2577294D01*
Y2580311D01*
X644536Y2581820D01*
X647553D01*
X649062Y2580311D01*
Y2578803D01*
X643027D01*
X667166Y2584838D02*
X661131D01*
Y2575785D01*
X667166D01*
X661131Y2580311D02*
X664149D01*
X670184Y2581820D02*
X676218Y2575785D01*
X673201Y2578803D01*
X676218Y2581820D01*
X670184Y2575785D01*
X685271Y2581820D02*
X680744D01*
X679236Y2580311D01*
Y2577294D01*
X680744Y2575785D01*
X685271D01*
X692814D02*
X689797D01*
X688288Y2577294D01*
Y2580311D01*
X689797Y2581820D01*
X692814D01*
X694323Y2580311D01*
Y2578803D01*
X688288D01*
X697340Y2575785D02*
X700357D01*
X698849D01*
Y2584838D01*
X697340D01*
X704883Y2575785D02*
X707901D01*
X706392D01*
Y2584838D01*
X704883D01*
X713936Y2575785D02*
X716953D01*
X718462Y2577294D01*
Y2580311D01*
X716953Y2581820D01*
X713936D01*
X712427Y2580311D01*
Y2577294D01*
X713936Y2575785D01*
X721479D02*
Y2581820D01*
X726005D01*
X727514Y2580311D01*
Y2575785D01*
X742601D02*
X739584Y2578803D01*
Y2581820D01*
X742601Y2584838D01*
X747127Y2575785D02*
Y2577294D01*
X748636D01*
Y2575785D01*
X747127D01*
X754671Y2584838D02*
Y2575785D01*
X759197D01*
X760705Y2577294D01*
Y2583329D01*
X759197Y2584838D01*
X754671D01*
X763723Y2575785D02*
Y2584838D01*
X768249D01*
X769758Y2583329D01*
Y2580311D01*
X768249Y2578803D01*
X763723D01*
X766740D02*
X769758Y2575785D01*
X772775Y2584838D02*
Y2575785D01*
X778810D01*
X781827D02*
X784844Y2578803D01*
Y2581820D01*
X781827Y2584838D01*
X799931Y2575785D02*
Y2583329D01*
Y2580311D01*
X798423D01*
X801440D01*
X799931D01*
Y2583329D01*
X801440Y2584838D01*
X805966Y2575785D02*
X808984D01*
X807475D01*
Y2581820D01*
X805966D01*
X813510Y2575785D02*
X816527D01*
X815018D01*
Y2584838D01*
X813510D01*
X825579Y2575785D02*
X822562D01*
X821053Y2577294D01*
Y2580311D01*
X822562Y2581820D01*
X825579D01*
X827088Y2580311D01*
Y2578803D01*
X821053D01*
X833123Y2575785D02*
X830105Y2578803D01*
Y2581820D01*
X833123Y2584838D01*
X837649Y2575785D02*
X842175D01*
X843684Y2577294D01*
X842175Y2578803D01*
X839158D01*
X837649Y2580311D01*
X839158Y2581820D01*
X843684D01*
X846701Y2575785D02*
X849719Y2578803D01*
Y2581820D01*
X846701Y2584838D01*
X855753Y2574277D02*
X857262Y2575785D01*
Y2577294D01*
X855753D01*
Y2575785D01*
X857262D01*
X855753Y2574277D01*
X854245Y2572768D01*
X873858Y2581820D02*
X876875D01*
X878384Y2580311D01*
Y2575785D01*
X873858D01*
X872349Y2577294D01*
X873858Y2578803D01*
X878384D01*
X881401Y2575785D02*
Y2581820D01*
X885927D01*
X887436Y2580311D01*
Y2575785D01*
X896488Y2584838D02*
Y2575785D01*
X891962D01*
X890453Y2577294D01*
Y2580311D01*
X891962Y2581820D01*
X896488D01*
X314131Y2567581D02*
Y2566072D01*
X312622D01*
X315639D01*
X314131D01*
Y2561546D01*
X315639Y2560037D01*
X320165Y2569090D02*
Y2560037D01*
Y2564563D01*
X321674Y2566072D01*
X324692D01*
X326200Y2564563D01*
Y2560037D01*
X333744D02*
X330726D01*
X329218Y2561546D01*
Y2564563D01*
X330726Y2566072D01*
X333744D01*
X335252Y2564563D01*
Y2563055D01*
X329218D01*
X353357Y2569090D02*
Y2560037D01*
X348831D01*
X347322Y2561546D01*
Y2564563D01*
X348831Y2566072D01*
X353357D01*
X356374D02*
Y2560037D01*
Y2563055D01*
X357883Y2564563D01*
X359392Y2566072D01*
X360900D01*
X365426Y2560037D02*
X368444D01*
X366935D01*
Y2566072D01*
X365426D01*
X372970Y2560037D02*
X375987D01*
X374479D01*
Y2569090D01*
X372970D01*
X380513Y2560037D02*
X383531D01*
X382022D01*
Y2569090D01*
X380513D01*
X397109Y2566072D02*
Y2560037D01*
Y2563055D01*
X398618Y2564563D01*
X400127Y2566072D01*
X401635D01*
X410687Y2560037D02*
X407670D01*
X406161Y2561546D01*
Y2564563D01*
X407670Y2566072D01*
X410687D01*
X412196Y2564563D01*
Y2563055D01*
X406161D01*
X415213Y2557020D02*
Y2566072D01*
X419740D01*
X421248Y2564563D01*
Y2561546D01*
X419740Y2560037D01*
X415213D01*
X425774D02*
X428792D01*
X430301Y2561546D01*
Y2564563D01*
X428792Y2566072D01*
X425774D01*
X424266Y2564563D01*
Y2561546D01*
X425774Y2560037D01*
X433318Y2566072D02*
Y2560037D01*
Y2563055D01*
X434827Y2564563D01*
X436335Y2566072D01*
X437844D01*
X443879Y2567581D02*
Y2566072D01*
X442370D01*
X445387D01*
X443879D01*
Y2561546D01*
X445387Y2560037D01*
X460474D02*
Y2567581D01*
Y2564563D01*
X458966D01*
X461983D01*
X460474D01*
Y2567581D01*
X461983Y2569090D01*
X466509Y2560037D02*
X469527D01*
X468018D01*
Y2566072D01*
X466509D01*
X474053Y2560037D02*
X477070D01*
X475561D01*
Y2569090D01*
X474053D01*
X486122Y2560037D02*
X483105D01*
X481596Y2561546D01*
Y2564563D01*
X483105Y2566072D01*
X486122D01*
X487631Y2564563D01*
Y2563055D01*
X481596D01*
X493666Y2560037D02*
X490648Y2563055D01*
Y2566072D01*
X493666Y2569090D01*
X498192Y2560037D02*
X502718D01*
X504227Y2561546D01*
X502718Y2563055D01*
X499701D01*
X498192Y2564563D01*
X499701Y2566072D01*
X504227D01*
X507244Y2560037D02*
X510261Y2563055D01*
Y2566072D01*
X507244Y2569090D01*
X526857Y2560037D02*
X523840Y2563055D01*
Y2566072D01*
X526857Y2569090D01*
X531383Y2560037D02*
Y2561546D01*
X532892D01*
Y2560037D01*
X531383D01*
X538927Y2569090D02*
Y2560037D01*
X543453D01*
X544962Y2561546D01*
Y2567581D01*
X543453Y2569090D01*
X538927D01*
X547979Y2560037D02*
Y2569090D01*
X552505D01*
X554014Y2567581D01*
Y2564563D01*
X552505Y2563055D01*
X547979D01*
X550996D02*
X554014Y2560037D01*
X557031D02*
Y2569090D01*
X561557D01*
X563066Y2567581D01*
Y2564563D01*
X561557Y2563055D01*
X557031D01*
X560048D02*
X563066Y2560037D01*
X566083D02*
X569101Y2563055D01*
Y2566072D01*
X566083Y2569090D01*
X573627Y2560037D02*
Y2561546D01*
X575136D01*
Y2560037D01*
X573627D01*
X312622Y2544289D02*
Y2553341D01*
X318657Y2544289D01*
Y2553341D01*
X326200D02*
X323183D01*
X321674Y2551833D01*
Y2545798D01*
X323183Y2544289D01*
X326200D01*
X327709Y2545798D01*
Y2551833D01*
X326200Y2553341D01*
X330726Y2544289D02*
Y2553341D01*
X336761Y2544289D01*
Y2553341D01*
X339778Y2548815D02*
X345813D01*
X348831Y2544289D02*
Y2553341D01*
X353357D01*
X354866Y2551833D01*
Y2548815D01*
X353357Y2547307D01*
X348831D01*
X357883Y2553341D02*
Y2544289D01*
X363918D01*
X366935D02*
Y2550324D01*
X369953Y2553341D01*
X372970Y2550324D01*
Y2544289D01*
Y2548815D01*
X366935D01*
X375987Y2553341D02*
X382022D01*
X379005D01*
Y2544289D01*
X391074Y2553341D02*
X385039D01*
Y2544289D01*
X391074D01*
X385039Y2548815D02*
X388057D01*
X394092Y2553341D02*
Y2544289D01*
X398618D01*
X400127Y2545798D01*
Y2551833D01*
X398618Y2553341D01*
X394092D01*
X412196D02*
Y2544289D01*
Y2548815D01*
X413705Y2550324D01*
X416722D01*
X418231Y2548815D01*
Y2544289D01*
X422757D02*
X425774D01*
X427283Y2545798D01*
Y2548815D01*
X425774Y2550324D01*
X422757D01*
X421248Y2548815D01*
Y2545798D01*
X422757Y2544289D01*
X430301D02*
X433318D01*
X431809D01*
Y2553341D01*
X430301D01*
X442370Y2544289D02*
X439353D01*
X437844Y2545798D01*
Y2548815D01*
X439353Y2550324D01*
X442370D01*
X443879Y2548815D01*
Y2547307D01*
X437844D01*
X446896Y2544289D02*
X451422D01*
X452931Y2545798D01*
X451422Y2547307D01*
X448405D01*
X446896Y2548815D01*
X448405Y2550324D01*
X452931D01*
X465000Y2544289D02*
Y2550324D01*
X466509D01*
X468018Y2548815D01*
Y2544289D01*
Y2548815D01*
X469527Y2550324D01*
X471035Y2548815D01*
Y2544289D01*
X475561Y2550324D02*
X478579D01*
X480088Y2548815D01*
Y2544289D01*
X475561D01*
X474053Y2545798D01*
X475561Y2547307D01*
X480088D01*
X483105Y2550324D02*
Y2545798D01*
X484614Y2544289D01*
X489140D01*
Y2542780D01*
X487631Y2541272D01*
X486122D01*
X489140Y2544289D02*
Y2550324D01*
X501209Y2553341D02*
Y2544289D01*
Y2548815D01*
X502718Y2550324D01*
X505735D01*
X507244Y2548815D01*
Y2544289D01*
X511770Y2550324D02*
X514788D01*
X516296Y2548815D01*
Y2544289D01*
X511770D01*
X510261Y2545798D01*
X511770Y2547307D01*
X516296D01*
X519314Y2550324D02*
X522331Y2544289D01*
X525348Y2550324D01*
X532892Y2544289D02*
X529875D01*
X528366Y2545798D01*
Y2548815D01*
X529875Y2550324D01*
X532892D01*
X534401Y2548815D01*
Y2547307D01*
X528366D01*
X547979Y2550324D02*
X550996D01*
X552505Y2548815D01*
Y2544289D01*
X547979D01*
X546470Y2545798D01*
X547979Y2547307D01*
X552505D01*
X564575Y2544289D02*
X569101D01*
X570609Y2545798D01*
X569101Y2547307D01*
X566083D01*
X564575Y2548815D01*
X566083Y2550324D01*
X570609D01*
X573627Y2544289D02*
Y2550324D01*
X575136D01*
X576644Y2548815D01*
Y2544289D01*
Y2548815D01*
X578153Y2550324D01*
X579662Y2548815D01*
Y2544289D01*
X584188Y2550324D02*
X587205D01*
X588714Y2548815D01*
Y2544289D01*
X584188D01*
X582679Y2545798D01*
X584188Y2547307D01*
X588714D01*
X591731Y2544289D02*
X594749D01*
X593240D01*
Y2553341D01*
X591731D01*
X599275Y2544289D02*
X602292D01*
X600783D01*
Y2553341D01*
X599275D01*
X621905Y2550324D02*
X617379D01*
X615870Y2548815D01*
Y2545798D01*
X617379Y2544289D01*
X621905D01*
X629449D02*
X626431D01*
X624923Y2545798D01*
Y2548815D01*
X626431Y2550324D01*
X629449D01*
X630957Y2548815D01*
Y2547307D01*
X624923D01*
X633975Y2544289D02*
Y2550324D01*
X638501D01*
X640009Y2548815D01*
Y2544289D01*
X644536Y2551833D02*
Y2550324D01*
X643027D01*
X646044D01*
X644536D01*
Y2545798D01*
X646044Y2544289D01*
X655096D02*
X652079D01*
X650570Y2545798D01*
Y2548815D01*
X652079Y2550324D01*
X655096D01*
X656605Y2548815D01*
Y2547307D01*
X650570D01*
X659623Y2550324D02*
Y2544289D01*
Y2547307D01*
X661131Y2548815D01*
X662640Y2550324D01*
X664149D01*
X677727Y2544289D02*
Y2550324D01*
X679236D01*
X680744Y2548815D01*
Y2544289D01*
Y2548815D01*
X682253Y2550324D01*
X683762Y2548815D01*
Y2544289D01*
X688288Y2550324D02*
X691305D01*
X692814Y2548815D01*
Y2544289D01*
X688288D01*
X686779Y2545798D01*
X688288Y2547307D01*
X692814D01*
X695831Y2550324D02*
Y2544289D01*
Y2547307D01*
X697340Y2548815D01*
X698849Y2550324D01*
X700357D01*
X704883Y2544289D02*
Y2553341D01*
Y2547307D02*
X709410Y2550324D01*
X704883Y2547307D02*
X709410Y2544289D01*
X718462D02*
X715444D01*
X713936Y2545798D01*
Y2548815D01*
X715444Y2550324D01*
X718462D01*
X719971Y2548815D01*
Y2547307D01*
X713936D01*
X722988Y2550324D02*
Y2544289D01*
Y2547307D01*
X724497Y2548815D01*
X726005Y2550324D01*
X727514D01*
X741092Y2544289D02*
X744110D01*
X742601D01*
Y2550324D01*
X741092D01*
X748636Y2544289D02*
Y2550324D01*
X753162D01*
X754671Y2548815D01*
Y2544289D01*
X768249Y2551833D02*
Y2550324D01*
X766740D01*
X769758D01*
X768249D01*
Y2545798D01*
X769758Y2544289D01*
X774284Y2553341D02*
Y2544289D01*
Y2548815D01*
X775792Y2550324D01*
X778810D01*
X780318Y2548815D01*
Y2544289D01*
X787862D02*
X784844D01*
X783336Y2545798D01*
Y2548815D01*
X784844Y2550324D01*
X787862D01*
X789371Y2548815D01*
Y2547307D01*
X783336D01*
X807475Y2551833D02*
X805966Y2553341D01*
X802949D01*
X801440Y2551833D01*
Y2545798D01*
X802949Y2544289D01*
X805966D01*
X807475Y2545798D01*
Y2548815D01*
X804458D01*
X815018Y2544289D02*
X812001D01*
X810492Y2545798D01*
Y2548815D01*
X812001Y2550324D01*
X815018D01*
X816527Y2548815D01*
Y2547307D01*
X810492D01*
X819545Y2550324D02*
Y2544289D01*
Y2547307D01*
X821053Y2548815D01*
X822562Y2550324D01*
X824071D01*
X828597Y2553341D02*
Y2544289D01*
X833123D01*
X834632Y2545798D01*
Y2547307D01*
Y2548815D01*
X833123Y2550324D01*
X828597D01*
X842175Y2544289D02*
X839158D01*
X837649Y2545798D01*
Y2548815D01*
X839158Y2550324D01*
X842175D01*
X843684Y2548815D01*
Y2547307D01*
X837649D01*
X846701Y2550324D02*
Y2544289D01*
Y2547307D01*
X848210Y2548815D01*
X849719Y2550324D01*
X851227D01*
X866314Y2544289D02*
Y2551833D01*
Y2548815D01*
X864806D01*
X867823D01*
X866314D01*
Y2551833D01*
X867823Y2553341D01*
X872349Y2544289D02*
X875366D01*
X873858D01*
Y2550324D01*
X872349D01*
X879893Y2544289D02*
X882910D01*
X881401D01*
Y2553341D01*
X879893D01*
X891962Y2544289D02*
X888945D01*
X887436Y2545798D01*
Y2548815D01*
X888945Y2550324D01*
X891962D01*
X893471Y2548815D01*
Y2547307D01*
X887436D01*
X896488Y2544289D02*
X901014D01*
X902523Y2545798D01*
X901014Y2547307D01*
X897997D01*
X896488Y2548815D01*
X897997Y2550324D01*
X902523D01*
X905540Y2544289D02*
Y2545798D01*
X907049D01*
Y2544289D01*
X905540D01*
X312622Y2537593D02*
Y2530050D01*
X314131Y2528541D01*
X317148D01*
X318657Y2530050D01*
Y2537593D01*
X321674Y2528541D02*
Y2534576D01*
X326200D01*
X327709Y2533067D01*
Y2528541D01*
X336761Y2537593D02*
Y2528541D01*
X332235D01*
X330726Y2530050D01*
Y2533067D01*
X332235Y2534576D01*
X336761D01*
X344305Y2528541D02*
X341287D01*
X339778Y2530050D01*
Y2533067D01*
X341287Y2534576D01*
X344305D01*
X345813Y2533067D01*
Y2531559D01*
X339778D01*
X348831Y2534576D02*
Y2528541D01*
Y2531559D01*
X350339Y2533067D01*
X351848Y2534576D01*
X353357D01*
X366935Y2528541D02*
Y2534576D01*
X371461D01*
X372970Y2533067D01*
Y2528541D01*
X377496D02*
X380513D01*
X382022Y2530050D01*
Y2533067D01*
X380513Y2534576D01*
X377496D01*
X375987Y2533067D01*
Y2530050D01*
X377496Y2528541D01*
X400127Y2534576D02*
X395600D01*
X394092Y2533067D01*
Y2530050D01*
X395600Y2528541D01*
X400127D01*
X403144D02*
X406161D01*
X404653D01*
Y2534576D01*
X403144D01*
X410687D02*
Y2528541D01*
Y2531559D01*
X412196Y2533067D01*
X413705Y2534576D01*
X415213D01*
X425774D02*
X421248D01*
X419740Y2533067D01*
Y2530050D01*
X421248Y2528541D01*
X425774D01*
X428792Y2534576D02*
Y2530050D01*
X430301Y2528541D01*
X434827D01*
Y2534576D01*
X437844Y2528541D02*
Y2534576D01*
X439353D01*
X440861Y2533067D01*
Y2528541D01*
Y2533067D01*
X442370Y2534576D01*
X443879Y2533067D01*
Y2528541D01*
X446896D02*
X451422D01*
X452931Y2530050D01*
X451422Y2531559D01*
X448405D01*
X446896Y2533067D01*
X448405Y2534576D01*
X452931D01*
X457457Y2536085D02*
Y2534576D01*
X455948D01*
X458966D01*
X457457D01*
Y2530050D01*
X458966Y2528541D01*
X465000Y2534576D02*
X468018D01*
X469527Y2533067D01*
Y2528541D01*
X465000D01*
X463492Y2530050D01*
X465000Y2531559D01*
X469527D01*
X472544Y2528541D02*
Y2534576D01*
X477070D01*
X478579Y2533067D01*
Y2528541D01*
X487631Y2534576D02*
X483105D01*
X481596Y2533067D01*
Y2530050D01*
X483105Y2528541D01*
X487631D01*
X495175D02*
X492157D01*
X490648Y2530050D01*
Y2533067D01*
X492157Y2534576D01*
X495175D01*
X496683Y2533067D01*
Y2531559D01*
X490648D01*
X508753Y2528541D02*
Y2534576D01*
X510261D01*
X511770Y2533067D01*
Y2528541D01*
Y2533067D01*
X513279Y2534576D01*
X514788Y2533067D01*
Y2528541D01*
X517805Y2534576D02*
Y2530050D01*
X519314Y2528541D01*
X523840D01*
Y2534576D01*
X526857Y2528541D02*
X531383D01*
X532892Y2530050D01*
X531383Y2531559D01*
X528366D01*
X526857Y2533067D01*
X528366Y2534576D01*
X532892D01*
X537418Y2536085D02*
Y2534576D01*
X535909D01*
X538927D01*
X537418D01*
Y2530050D01*
X538927Y2528541D01*
X554014Y2536085D02*
Y2534576D01*
X552505D01*
X555522D01*
X554014D01*
Y2530050D01*
X555522Y2528541D01*
X560048Y2537593D02*
Y2528541D01*
Y2533067D01*
X561557Y2534576D01*
X564575D01*
X566083Y2533067D01*
Y2528541D01*
X573627D02*
X570609D01*
X569101Y2530050D01*
Y2533067D01*
X570609Y2534576D01*
X573627D01*
X575136Y2533067D01*
Y2531559D01*
X569101D01*
X578153Y2528541D02*
X582679D01*
X584188Y2530050D01*
X582679Y2531559D01*
X579662D01*
X578153Y2533067D01*
X579662Y2534576D01*
X584188D01*
X591731Y2528541D02*
X588714D01*
X587205Y2530050D01*
Y2533067D01*
X588714Y2534576D01*
X591731D01*
X593240Y2533067D01*
Y2531559D01*
X587205D01*
X611344Y2536085D02*
X609835Y2537593D01*
X606818D01*
X605309Y2536085D01*
Y2530050D01*
X606818Y2528541D01*
X609835D01*
X611344Y2530050D01*
Y2533067D01*
X608327D01*
X618888Y2528541D02*
X615870D01*
X614362Y2530050D01*
Y2533067D01*
X615870Y2534576D01*
X618888D01*
X620396Y2533067D01*
Y2531559D01*
X614362D01*
X623414Y2534576D02*
Y2528541D01*
Y2531559D01*
X624923Y2533067D01*
X626431Y2534576D01*
X627940D01*
X632466Y2537593D02*
Y2528541D01*
X636992D01*
X638501Y2530050D01*
Y2531559D01*
Y2533067D01*
X636992Y2534576D01*
X632466D01*
X646044Y2528541D02*
X643027D01*
X641518Y2530050D01*
Y2533067D01*
X643027Y2534576D01*
X646044D01*
X647553Y2533067D01*
Y2531559D01*
X641518D01*
X650570Y2534576D02*
Y2528541D01*
Y2531559D01*
X652079Y2533067D01*
X653588Y2534576D01*
X655096D01*
X670184Y2528541D02*
Y2536085D01*
Y2533067D01*
X668675D01*
X671692D01*
X670184D01*
Y2536085D01*
X671692Y2537593D01*
X676218Y2528541D02*
X679236D01*
X677727D01*
Y2537593D01*
X676218D01*
X685271Y2534576D02*
X688288D01*
X689797Y2533067D01*
Y2528541D01*
X685271D01*
X683762Y2530050D01*
X685271Y2531559D01*
X689797D01*
X692814Y2528541D02*
X697340D01*
X698849Y2530050D01*
X697340Y2531559D01*
X694323D01*
X692814Y2533067D01*
X694323Y2534576D01*
X698849D01*
X701866Y2537593D02*
Y2528541D01*
Y2533067D01*
X703375Y2534576D01*
X706392D01*
X707901Y2533067D01*
Y2528541D01*
X715444D02*
X712427D01*
X710918Y2530050D01*
Y2533067D01*
X712427Y2534576D01*
X715444D01*
X716953Y2533067D01*
Y2531559D01*
X710918D01*
X719971Y2528541D02*
X724497D01*
X726005Y2530050D01*
X724497Y2531559D01*
X721479D01*
X719971Y2533067D01*
X721479Y2534576D01*
X726005D01*
X738075Y2537593D02*
Y2528541D01*
X742601D01*
X744110Y2530050D01*
Y2531559D01*
Y2533067D01*
X742601Y2534576D01*
X738075D01*
X751653Y2528541D02*
X748636D01*
X747127Y2530050D01*
Y2533067D01*
X748636Y2534576D01*
X751653D01*
X753162Y2533067D01*
Y2531559D01*
X747127D01*
X765232Y2528541D02*
Y2534576D01*
X766740D01*
X768249Y2533067D01*
Y2528541D01*
Y2533067D01*
X769758Y2534576D01*
X771266Y2533067D01*
Y2528541D01*
X774284D02*
X777301D01*
X775792D01*
Y2534576D01*
X774284D01*
X781827Y2528541D02*
X786353D01*
X787862Y2530050D01*
X786353Y2531559D01*
X783336D01*
X781827Y2533067D01*
X783336Y2534576D01*
X787862D01*
X792388Y2536085D02*
Y2534576D01*
X790879D01*
X793897D01*
X792388D01*
Y2530050D01*
X793897Y2528541D01*
X799931Y2534576D02*
X802949D01*
X804458Y2533067D01*
Y2528541D01*
X799931D01*
X798423Y2530050D01*
X799931Y2531559D01*
X804458D01*
X807475Y2528541D02*
Y2537593D01*
Y2531559D02*
X812001Y2534576D01*
X807475Y2531559D02*
X812001Y2528541D01*
X821053D02*
X818036D01*
X816527Y2530050D01*
Y2533067D01*
X818036Y2534576D01*
X821053D01*
X822562Y2533067D01*
Y2531559D01*
X816527D01*
X825579Y2528541D02*
Y2534576D01*
X830105D01*
X831614Y2533067D01*
Y2528541D01*
X845193D02*
Y2536085D01*
Y2533067D01*
X843684D01*
X846701D01*
X845193D01*
Y2536085D01*
X846701Y2537593D01*
X852736Y2528541D02*
X855753D01*
X857262Y2530050D01*
Y2533067D01*
X855753Y2534576D01*
X852736D01*
X851227Y2533067D01*
Y2530050D01*
X852736Y2528541D01*
X860279Y2534576D02*
Y2528541D01*
Y2531559D01*
X861788Y2533067D01*
X863297Y2534576D01*
X864806D01*
X879893Y2536085D02*
Y2534576D01*
X878384D01*
X881401D01*
X879893D01*
Y2530050D01*
X881401Y2528541D01*
X885927Y2537593D02*
Y2528541D01*
Y2533067D01*
X887436Y2534576D01*
X890453D01*
X891962Y2533067D01*
Y2528541D01*
X899506D02*
X896488D01*
X894979Y2530050D01*
Y2533067D01*
X896488Y2534576D01*
X899506D01*
X901014Y2533067D01*
Y2531559D01*
X894979D01*
X312622Y2521845D02*
Y2512793D01*
Y2517319D01*
X314131Y2518828D01*
X317148D01*
X318657Y2517319D01*
Y2512793D01*
X323183D02*
X326200D01*
X327709Y2514302D01*
Y2517319D01*
X326200Y2518828D01*
X323183D01*
X321674Y2517319D01*
Y2514302D01*
X323183Y2512793D01*
X330726D02*
X333744D01*
X332235D01*
Y2521845D01*
X330726D01*
X342796Y2512793D02*
X339778D01*
X338270Y2514302D01*
Y2517319D01*
X339778Y2518828D01*
X342796D01*
X344305Y2517319D01*
Y2515811D01*
X338270D01*
X362409Y2521845D02*
Y2512793D01*
X357883D01*
X356374Y2514302D01*
Y2517319D01*
X357883Y2518828D01*
X362409D01*
X365426D02*
Y2512793D01*
Y2515811D01*
X366935Y2517319D01*
X368444Y2518828D01*
X369953D01*
X374479Y2512793D02*
X377496D01*
X375987D01*
Y2518828D01*
X374479D01*
X382022Y2512793D02*
X385039D01*
X383531D01*
Y2521845D01*
X382022D01*
X389566Y2512793D02*
X392583D01*
X391074D01*
Y2521845D01*
X389566D01*
X412196D02*
Y2512793D01*
X407670D01*
X406161Y2514302D01*
Y2517319D01*
X407670Y2518828D01*
X412196D01*
X415213Y2512793D02*
X418231D01*
X416722D01*
Y2518828D01*
X415213D01*
X422757Y2512793D02*
Y2518828D01*
X424266D01*
X425774Y2517319D01*
Y2512793D01*
Y2517319D01*
X427283Y2518828D01*
X428792Y2517319D01*
Y2512793D01*
X436335D02*
X433318D01*
X431809Y2514302D01*
Y2517319D01*
X433318Y2518828D01*
X436335D01*
X437844Y2517319D01*
Y2515811D01*
X431809D01*
X440861Y2512793D02*
Y2518828D01*
X445387D01*
X446896Y2517319D01*
Y2512793D01*
X449914D02*
X454440D01*
X455948Y2514302D01*
X454440Y2515811D01*
X451422D01*
X449914Y2517319D01*
X451422Y2518828D01*
X455948D01*
X458966Y2512793D02*
X461983D01*
X460474D01*
Y2518828D01*
X458966D01*
X468018Y2512793D02*
X471035D01*
X472544Y2514302D01*
Y2517319D01*
X471035Y2518828D01*
X468018D01*
X466509Y2517319D01*
Y2514302D01*
X468018Y2512793D01*
X475561D02*
Y2518828D01*
X480088D01*
X481596Y2517319D01*
Y2512793D01*
X484614D02*
X489140D01*
X490648Y2514302D01*
X489140Y2515811D01*
X486122D01*
X484614Y2517319D01*
X486122Y2518828D01*
X490648D01*
X493666Y2515811D02*
Y2523354D01*
Y2514302D02*
Y2512793D01*
X218134Y2506097D02*
X224169D01*
X221151D01*
Y2497045D01*
X227186Y2506097D02*
Y2497045D01*
Y2501571D01*
X228695Y2503080D01*
X231712D01*
X233221Y2501571D01*
Y2497045D01*
X240764D02*
X237747D01*
X236238Y2498554D01*
Y2501571D01*
X237747Y2503080D01*
X240764D01*
X242273Y2501571D01*
Y2500063D01*
X236238D01*
X260377Y2506097D02*
Y2497045D01*
X255851D01*
X254343Y2498554D01*
Y2501571D01*
X255851Y2503080D01*
X260377D01*
X263395D02*
Y2497045D01*
Y2500063D01*
X264903Y2501571D01*
X266412Y2503080D01*
X267921D01*
X272447Y2497045D02*
X275464D01*
X273956D01*
Y2503080D01*
X272447D01*
X279990Y2497045D02*
X283008D01*
X281499D01*
Y2506097D01*
X279990D01*
X287534Y2497045D02*
X290551D01*
X289043D01*
Y2506097D01*
X287534D01*
X310164D02*
Y2497045D01*
X305638D01*
X304130Y2498554D01*
Y2501571D01*
X305638Y2503080D01*
X310164D01*
X314690D02*
X317708D01*
X319217Y2501571D01*
Y2497045D01*
X314690D01*
X313182Y2498554D01*
X314690Y2500063D01*
X319217D01*
X323743Y2504589D02*
Y2503080D01*
X322234D01*
X325251D01*
X323743D01*
Y2498554D01*
X325251Y2497045D01*
X331286Y2503080D02*
X334304D01*
X335812Y2501571D01*
Y2497045D01*
X331286D01*
X329778Y2498554D01*
X331286Y2500063D01*
X335812D01*
X347882Y2497045D02*
Y2503080D01*
X349391D01*
X350899Y2501571D01*
Y2497045D01*
Y2501571D01*
X352408Y2503080D01*
X353917Y2501571D01*
Y2497045D01*
X358443Y2503080D02*
X361460D01*
X362969Y2501571D01*
Y2497045D01*
X358443D01*
X356934Y2498554D01*
X358443Y2500063D01*
X362969D01*
X365986Y2503080D02*
Y2498554D01*
X367495Y2497045D01*
X372021D01*
Y2495536D01*
X370512Y2494028D01*
X369004D01*
X372021Y2497045D02*
Y2503080D01*
X390125D02*
X385599D01*
X384091Y2501571D01*
Y2498554D01*
X385599Y2497045D01*
X390125D01*
X394652D02*
X397669D01*
X399178Y2498554D01*
Y2501571D01*
X397669Y2503080D01*
X394652D01*
X393143Y2501571D01*
Y2498554D01*
X394652Y2497045D01*
X402195D02*
Y2503080D01*
X406721D01*
X408230Y2501571D01*
Y2497045D01*
X412756Y2504589D02*
Y2503080D01*
X411247D01*
X414265D01*
X412756D01*
Y2498554D01*
X414265Y2497045D01*
X420299Y2503080D02*
X423317D01*
X424825Y2501571D01*
Y2497045D01*
X420299D01*
X418791Y2498554D01*
X420299Y2500063D01*
X424825D01*
X427843Y2497045D02*
X430860D01*
X429352D01*
Y2503080D01*
X427843D01*
X435386Y2497045D02*
Y2503080D01*
X439912D01*
X441421Y2501571D01*
Y2497045D01*
X453491D02*
X458017D01*
X459525Y2498554D01*
X458017Y2500063D01*
X454999D01*
X453491Y2501571D01*
X454999Y2503080D01*
X459525D01*
X462543Y2497045D02*
X465560D01*
X464052D01*
Y2506097D01*
X462543D01*
X471595Y2497045D02*
X474613D01*
X476121Y2498554D01*
Y2501571D01*
X474613Y2503080D01*
X471595D01*
X470086Y2501571D01*
Y2498554D01*
X471595Y2497045D01*
X480647Y2504589D02*
Y2503080D01*
X479139D01*
X482156D01*
X480647D01*
Y2498554D01*
X482156Y2497045D01*
X486682D02*
X491208D01*
X492717Y2498554D01*
X491208Y2500063D01*
X488191D01*
X486682Y2501571D01*
X488191Y2503080D01*
X492717D01*
X507804Y2497045D02*
X504786Y2500063D01*
Y2503080D01*
X507804Y2506097D01*
X512330Y2497045D02*
X515347D01*
X513839D01*
Y2503080D01*
X512330D01*
X519873Y2497045D02*
Y2503080D01*
X524400D01*
X525908Y2501571D01*
Y2497045D01*
X539487Y2503080D02*
X542504D01*
X544013Y2501571D01*
Y2497045D01*
X539487D01*
X537978Y2498554D01*
X539487Y2500063D01*
X544013D01*
X556082Y2497045D02*
X560608D01*
X562117Y2498554D01*
X560608Y2500063D01*
X557591D01*
X556082Y2501571D01*
X557591Y2503080D01*
X562117D01*
X569661Y2497045D02*
X566643D01*
X565134Y2498554D01*
Y2501571D01*
X566643Y2503080D01*
X569661D01*
X571169Y2501571D01*
Y2500063D01*
X565134D01*
X574187Y2494028D02*
Y2503080D01*
X578713D01*
X580221Y2501571D01*
Y2498554D01*
X578713Y2497045D01*
X574187D01*
X584748Y2503080D02*
X587765D01*
X589274Y2501571D01*
Y2497045D01*
X584748D01*
X583239Y2498554D01*
X584748Y2500063D01*
X589274D01*
X592291Y2503080D02*
Y2497045D01*
Y2500063D01*
X593800Y2501571D01*
X595308Y2503080D01*
X596817D01*
X602852D02*
X605869D01*
X607378Y2501571D01*
Y2497045D01*
X602852D01*
X601343Y2498554D01*
X602852Y2500063D01*
X607378D01*
X611904Y2504589D02*
Y2503080D01*
X610395D01*
X613413D01*
X611904D01*
Y2498554D01*
X613413Y2497045D01*
X622465D02*
X619448D01*
X617939Y2498554D01*
Y2501571D01*
X619448Y2503080D01*
X622465D01*
X623974Y2501571D01*
Y2500063D01*
X617939D01*
X637552Y2497045D02*
Y2504589D01*
Y2501571D01*
X636043D01*
X639061D01*
X637552D01*
Y2504589D01*
X639061Y2506097D01*
X643587Y2497045D02*
X646604D01*
X645095D01*
Y2503080D01*
X643587D01*
X651130Y2497045D02*
X654148D01*
X652639D01*
Y2506097D01*
X651130D01*
X663200Y2497045D02*
X660182D01*
X658674Y2498554D01*
Y2501571D01*
X660182Y2503080D01*
X663200D01*
X664709Y2501571D01*
Y2500063D01*
X658674D01*
X667726Y2497045D02*
X670743Y2500063D01*
Y2503080D01*
X667726Y2506097D01*
X675269Y2497045D02*
Y2498554D01*
X676778D01*
Y2497045D01*
X675269D01*
X218134Y2490349D02*
Y2481297D01*
X222660D01*
X224169Y2482806D01*
Y2488841D01*
X222660Y2490349D01*
X218134D01*
X227186Y2481297D02*
X230203D01*
X228695D01*
Y2487332D01*
X227186D01*
X234730Y2481297D02*
Y2487332D01*
X236238D01*
X237747Y2485823D01*
Y2481297D01*
Y2485823D01*
X239256Y2487332D01*
X240764Y2485823D01*
Y2481297D01*
X248308D02*
X245290D01*
X243782Y2482806D01*
Y2485823D01*
X245290Y2487332D01*
X248308D01*
X249816Y2485823D01*
Y2484315D01*
X243782D01*
X252834Y2481297D02*
Y2487332D01*
X257360D01*
X258869Y2485823D01*
Y2481297D01*
X261886D02*
X266412D01*
X267921Y2482806D01*
X266412Y2484315D01*
X263395D01*
X261886Y2485823D01*
X263395Y2487332D01*
X267921D01*
X270938Y2481297D02*
X273956D01*
X272447D01*
Y2487332D01*
X270938D01*
X279990Y2481297D02*
X283008D01*
X284517Y2482806D01*
Y2485823D01*
X283008Y2487332D01*
X279990D01*
X278482Y2485823D01*
Y2482806D01*
X279990Y2481297D01*
X287534D02*
Y2487332D01*
X292060D01*
X293569Y2485823D01*
Y2481297D01*
X296586D02*
X301112D01*
X302621Y2482806D01*
X301112Y2484315D01*
X298095D01*
X296586Y2485823D01*
X298095Y2487332D01*
X302621D01*
X316199Y2481297D02*
Y2488841D01*
Y2485823D01*
X314690D01*
X317708D01*
X316199D01*
Y2488841D01*
X317708Y2490349D01*
X323743Y2481297D02*
X326760D01*
X328269Y2482806D01*
Y2485823D01*
X326760Y2487332D01*
X323743D01*
X322234Y2485823D01*
Y2482806D01*
X323743Y2481297D01*
X331286Y2487332D02*
Y2481297D01*
Y2484315D01*
X332795Y2485823D01*
X334304Y2487332D01*
X335812D01*
X350899Y2488841D02*
Y2487332D01*
X349391D01*
X352408D01*
X350899D01*
Y2482806D01*
X352408Y2481297D01*
X356934Y2490349D02*
Y2481297D01*
Y2485823D01*
X358443Y2487332D01*
X361460D01*
X362969Y2485823D01*
Y2481297D01*
X370512D02*
X367495D01*
X365986Y2482806D01*
Y2485823D01*
X367495Y2487332D01*
X370512D01*
X372021Y2485823D01*
Y2484315D01*
X365986D01*
X385599Y2481297D02*
Y2488841D01*
Y2485823D01*
X384091D01*
X387108D01*
X385599D01*
Y2488841D01*
X387108Y2490349D01*
X391634Y2481297D02*
X394652D01*
X393143D01*
Y2487332D01*
X391634D01*
X399178Y2481297D02*
Y2487332D01*
X403704D01*
X405212Y2485823D01*
Y2481297D01*
X408230D02*
X411247D01*
X409738D01*
Y2487332D01*
X408230D01*
X415773Y2481297D02*
X420299D01*
X421808Y2482806D01*
X420299Y2484315D01*
X417282D01*
X415773Y2485823D01*
X417282Y2487332D01*
X421808D01*
X424825Y2490349D02*
Y2481297D01*
Y2485823D01*
X426334Y2487332D01*
X429352D01*
X430860Y2485823D01*
Y2481297D01*
X438404D02*
X435386D01*
X433878Y2482806D01*
Y2485823D01*
X435386Y2487332D01*
X438404D01*
X439912Y2485823D01*
Y2484315D01*
X433878D01*
X448965Y2490349D02*
Y2481297D01*
X444439D01*
X442930Y2482806D01*
Y2485823D01*
X444439Y2487332D01*
X448965D01*
X461034Y2490349D02*
Y2481297D01*
X465560D01*
X467069Y2482806D01*
Y2484315D01*
Y2485823D01*
X465560Y2487332D01*
X461034D01*
X471595Y2481297D02*
X474613D01*
X476121Y2482806D01*
Y2485823D01*
X474613Y2487332D01*
X471595D01*
X470086Y2485823D01*
Y2482806D01*
X471595Y2481297D01*
X480647Y2487332D02*
X483665D01*
X485173Y2485823D01*
Y2481297D01*
X480647D01*
X479139Y2482806D01*
X480647Y2484315D01*
X485173D01*
X488191Y2487332D02*
Y2481297D01*
Y2484315D01*
X489700Y2485823D01*
X491208Y2487332D01*
X492717D01*
X503278Y2490349D02*
Y2481297D01*
X498752D01*
X497243Y2482806D01*
Y2485823D01*
X498752Y2487332D01*
X503278D01*
X518365Y2481297D02*
X515347Y2484315D01*
Y2487332D01*
X518365Y2490349D01*
X524400Y2487332D02*
X527417D01*
X528926Y2485823D01*
Y2481297D01*
X524400D01*
X522891Y2482806D01*
X524400Y2484315D01*
X528926D01*
X533452Y2481297D02*
Y2488841D01*
Y2485823D01*
X531943D01*
X534960D01*
X533452D01*
Y2488841D01*
X534960Y2490349D01*
X540995Y2488841D02*
Y2487332D01*
X539487D01*
X542504D01*
X540995D01*
Y2482806D01*
X542504Y2481297D01*
X551556D02*
X548539D01*
X547030Y2482806D01*
Y2485823D01*
X548539Y2487332D01*
X551556D01*
X553065Y2485823D01*
Y2484315D01*
X547030D01*
X556082Y2487332D02*
Y2481297D01*
Y2484315D01*
X557591Y2485823D01*
X559100Y2487332D01*
X560608D01*
X574187Y2478280D02*
Y2487332D01*
X578713D01*
X580221Y2485823D01*
Y2482806D01*
X578713Y2481297D01*
X574187D01*
X583239D02*
X586256D01*
X584748D01*
Y2490349D01*
X583239D01*
X592291Y2487332D02*
X595308D01*
X596817Y2485823D01*
Y2481297D01*
X592291D01*
X590782Y2482806D01*
X592291Y2484315D01*
X596817D01*
X601343Y2488841D02*
Y2487332D01*
X599834D01*
X602852D01*
X601343D01*
Y2482806D01*
X602852Y2481297D01*
X607378D02*
X610395D01*
X608887D01*
Y2487332D01*
X607378D01*
X614921Y2481297D02*
Y2487332D01*
X619448D01*
X620956Y2485823D01*
Y2481297D01*
X626991Y2478280D02*
X628500D01*
X630008Y2479788D01*
Y2487332D01*
X625482D01*
X623974Y2485823D01*
Y2482806D01*
X625482Y2481297D01*
X630008D01*
X633026D02*
X636043Y2484315D01*
Y2487332D01*
X633026Y2490349D01*
X640569Y2481297D02*
Y2482806D01*
X642078D01*
Y2481297D01*
X640569D01*
X218134Y2474601D02*
X224169D01*
X221151D01*
Y2465549D01*
X228695D02*
X231712D01*
X233221Y2467058D01*
Y2470075D01*
X231712Y2471584D01*
X228695D01*
X227186Y2470075D01*
Y2467058D01*
X228695Y2465549D01*
X236238D02*
X239256D01*
X237747D01*
Y2474601D01*
X236238D01*
X248308Y2465549D02*
X245290D01*
X243782Y2467058D01*
Y2470075D01*
X245290Y2471584D01*
X248308D01*
X249816Y2470075D01*
Y2468567D01*
X243782D01*
X252834Y2471584D02*
Y2465549D01*
Y2468567D01*
X254343Y2470075D01*
X255851Y2471584D01*
X257360D01*
X263395D02*
X266412D01*
X267921Y2470075D01*
Y2465549D01*
X263395D01*
X261886Y2467058D01*
X263395Y2468567D01*
X267921D01*
X270938Y2465549D02*
Y2471584D01*
X275464D01*
X276973Y2470075D01*
Y2465549D01*
X286025Y2471584D02*
X281499D01*
X279990Y2470075D01*
Y2467058D01*
X281499Y2465549D01*
X286025D01*
X293569D02*
X290551D01*
X289043Y2467058D01*
Y2470075D01*
X290551Y2471584D01*
X293569D01*
X295077Y2470075D01*
Y2468567D01*
X289043D01*
X298095Y2465549D02*
X302621D01*
X304130Y2467058D01*
X302621Y2468567D01*
X299604D01*
X298095Y2470075D01*
X299604Y2471584D01*
X304130D01*
X316199Y2470075D02*
X322234D01*
X319217Y2473093D02*
Y2467058D01*
X325251Y2465549D02*
X331286Y2471584D01*
X334304Y2470075D02*
X340338D01*
X352408Y2473093D02*
X353917Y2474601D01*
X356934D01*
X358443Y2473093D01*
Y2467058D01*
X356934Y2465549D01*
X353917D01*
X352408Y2467058D01*
Y2473093D01*
X361460Y2465549D02*
Y2467058D01*
X362969D01*
Y2465549D01*
X361460D01*
X369004D02*
X372021D01*
X370512D01*
Y2474601D01*
X369004Y2473093D01*
X385599Y2465549D02*
Y2471584D01*
X387108D01*
X388617Y2470075D01*
Y2465549D01*
Y2470075D01*
X390125Y2471584D01*
X391634Y2470075D01*
Y2465549D01*
X394652D02*
Y2471584D01*
X396160D01*
X397669Y2470075D01*
Y2465549D01*
Y2470075D01*
X399178Y2471584D01*
X400686Y2470075D01*
Y2465549D01*
X405212Y2464040D02*
X406721Y2465549D01*
Y2467058D01*
X405212D01*
Y2465549D01*
X406721D01*
X405212Y2464040D01*
X403704Y2462532D01*
X421808Y2471584D02*
Y2467058D01*
X423317Y2465549D01*
X427843D01*
Y2471584D01*
X430860Y2465549D02*
Y2471584D01*
X435386D01*
X436895Y2470075D01*
Y2465549D01*
X439912D02*
X442930D01*
X441421D01*
Y2474601D01*
X439912D01*
X451982Y2465549D02*
X448965D01*
X447456Y2467058D01*
Y2470075D01*
X448965Y2471584D01*
X451982D01*
X453491Y2470075D01*
Y2468567D01*
X447456D01*
X456508Y2465549D02*
X461034D01*
X462543Y2467058D01*
X461034Y2468567D01*
X458017D01*
X456508Y2470075D01*
X458017Y2471584D01*
X462543D01*
X465560Y2465549D02*
X470086D01*
X471595Y2467058D01*
X470086Y2468567D01*
X467069D01*
X465560Y2470075D01*
X467069Y2471584D01*
X471595D01*
X483665Y2465549D02*
X488191D01*
X489700Y2467058D01*
X488191Y2468567D01*
X485173D01*
X483665Y2470075D01*
X485173Y2471584D01*
X489700D01*
X492717Y2462532D02*
Y2471584D01*
X497243D01*
X498752Y2470075D01*
Y2467058D01*
X497243Y2465549D01*
X492717D01*
X506295D02*
X503278D01*
X501769Y2467058D01*
Y2470075D01*
X503278Y2471584D01*
X506295D01*
X507804Y2470075D01*
Y2468567D01*
X501769D01*
X516856Y2471584D02*
X512330D01*
X510821Y2470075D01*
Y2467058D01*
X512330Y2465549D01*
X516856D01*
X519873D02*
X522891D01*
X521382D01*
Y2471584D01*
X519873D01*
X528926Y2465549D02*
Y2473093D01*
Y2470075D01*
X527417D01*
X530434D01*
X528926D01*
Y2473093D01*
X530434Y2474601D01*
X534960Y2465549D02*
X537978D01*
X536469D01*
Y2471584D01*
X534960D01*
X547030Y2465549D02*
X544013D01*
X542504Y2467058D01*
Y2470075D01*
X544013Y2471584D01*
X547030D01*
X548539Y2470075D01*
Y2468567D01*
X542504D01*
X557591Y2474601D02*
Y2465549D01*
X553065D01*
X551556Y2467058D01*
Y2470075D01*
X553065Y2471584D01*
X557591D01*
X575695Y2474601D02*
Y2465549D01*
X571169D01*
X569661Y2467058D01*
Y2470075D01*
X571169Y2471584D01*
X575695D01*
X578713Y2465549D02*
X581730D01*
X580221D01*
Y2471584D01*
X578713D01*
X587765Y2465549D02*
Y2473093D01*
Y2470075D01*
X586256D01*
X589274D01*
X587765D01*
Y2473093D01*
X589274Y2474601D01*
X595308Y2465549D02*
Y2473093D01*
Y2470075D01*
X593800D01*
X596817D01*
X595308D01*
Y2473093D01*
X596817Y2474601D01*
X605869Y2465549D02*
X602852D01*
X601343Y2467058D01*
Y2470075D01*
X602852Y2471584D01*
X605869D01*
X607378Y2470075D01*
Y2468567D01*
X601343D01*
X610395Y2471584D02*
Y2465549D01*
Y2468567D01*
X611904Y2470075D01*
X613413Y2471584D01*
X614921D01*
X623974Y2465549D02*
X620956D01*
X619448Y2467058D01*
Y2470075D01*
X620956Y2471584D01*
X623974D01*
X625482Y2470075D01*
Y2468567D01*
X619448D01*
X628500Y2465549D02*
Y2471584D01*
X633026D01*
X634535Y2470075D01*
Y2465549D01*
X639061Y2473093D02*
Y2471584D01*
X637552D01*
X640569D01*
X639061D01*
Y2467058D01*
X640569Y2465549D01*
X645095D02*
X648113D01*
X646604D01*
Y2474601D01*
X645095D01*
X652639Y2471584D02*
Y2467058D01*
X654148Y2465549D01*
X658674D01*
Y2464040D01*
X657165Y2462532D01*
X655656D01*
X658674Y2465549D02*
Y2471584D01*
X661691Y2465549D02*
Y2467058D01*
X663200D01*
Y2465549D01*
X661691D01*
X218134Y2458853D02*
Y2452818D01*
X221151Y2449801D01*
X224169Y2452818D01*
Y2458853D01*
X227186Y2449801D02*
X230203D01*
X228695D01*
Y2455836D01*
X227186D01*
X236238D02*
X239256D01*
X240764Y2454327D01*
Y2449801D01*
X236238D01*
X234730Y2451310D01*
X236238Y2452818D01*
X240764D01*
X252834Y2458853D02*
Y2449801D01*
Y2454327D01*
X258869D01*
Y2458853D01*
Y2449801D01*
X263395D02*
X266412D01*
X267921Y2451310D01*
Y2454327D01*
X266412Y2455836D01*
X263395D01*
X261886Y2454327D01*
Y2451310D01*
X263395Y2449801D01*
X270938D02*
X273956D01*
X272447D01*
Y2458853D01*
X270938D01*
X283008Y2449801D02*
X279990D01*
X278482Y2451310D01*
Y2454327D01*
X279990Y2455836D01*
X283008D01*
X284517Y2454327D01*
Y2452818D01*
X278482D01*
X287534Y2449801D02*
X292060D01*
X293569Y2451310D01*
X292060Y2452818D01*
X289043D01*
X287534Y2454327D01*
X289043Y2455836D01*
X293569D01*
X305638Y2454327D02*
X311673D01*
X308656Y2457344D02*
Y2451310D01*
X314690Y2457344D02*
X316199Y2458853D01*
X319217D01*
X320725Y2457344D01*
Y2451310D01*
X319217Y2449801D01*
X316199D01*
X314690Y2451310D01*
Y2457344D01*
X323743Y2449801D02*
Y2451310D01*
X325251D01*
Y2449801D01*
X323743D01*
X331286Y2457344D02*
X332795Y2458853D01*
X335812D01*
X337321Y2457344D01*
Y2451310D01*
X335812Y2449801D01*
X332795D01*
X331286Y2451310D01*
Y2457344D01*
X346373Y2458853D02*
X340338D01*
Y2454327D01*
X343356Y2455836D01*
X344864D01*
X346373Y2454327D01*
Y2451310D01*
X344864Y2449801D01*
X341847D01*
X340338Y2451310D01*
X358443Y2449801D02*
Y2455836D01*
X359951D01*
X361460Y2454327D01*
Y2449801D01*
Y2454327D01*
X362969Y2455836D01*
X364477Y2454327D01*
Y2449801D01*
X367495D02*
Y2455836D01*
X369004D01*
X370512Y2454327D01*
Y2449801D01*
Y2454327D01*
X372021Y2455836D01*
X373530Y2454327D01*
Y2449801D01*
X376547D02*
X382582Y2455836D01*
X385599Y2454327D02*
X391634D01*
X394652Y2458853D02*
Y2452818D01*
X397669Y2449801D01*
X400686Y2452818D01*
Y2458853D01*
X403704Y2449801D02*
X406721D01*
X405212D01*
Y2455836D01*
X403704D01*
X412756D02*
X415773D01*
X417282Y2454327D01*
Y2449801D01*
X412756D01*
X411247Y2451310D01*
X412756Y2452818D01*
X417282D01*
X435386Y2457344D02*
X433878Y2458853D01*
X430860D01*
X429352Y2457344D01*
Y2455836D01*
X430860Y2454327D01*
X433878D01*
X435386Y2452818D01*
Y2451310D01*
X433878Y2449801D01*
X430860D01*
X429352Y2451310D01*
X438404Y2449801D02*
X441421D01*
X439912D01*
Y2455836D01*
X438404D01*
X445947D02*
X451982D01*
X445947Y2449801D01*
X451982D01*
X459525D02*
X456508D01*
X454999Y2451310D01*
Y2454327D01*
X456508Y2455836D01*
X459525D01*
X461034Y2454327D01*
Y2452818D01*
X454999D01*
X465560Y2448292D02*
X467069Y2449801D01*
Y2451310D01*
X465560D01*
Y2449801D01*
X467069D01*
X465560Y2448292D01*
X464052Y2446784D01*
X482156Y2455836D02*
Y2451310D01*
X483665Y2449801D01*
X488191D01*
Y2455836D01*
X491208Y2449801D02*
Y2455836D01*
X495734D01*
X497243Y2454327D01*
Y2449801D01*
X500260D02*
X503278D01*
X501769D01*
Y2458853D01*
X500260D01*
X512330Y2449801D02*
X509313D01*
X507804Y2451310D01*
Y2454327D01*
X509313Y2455836D01*
X512330D01*
X513839Y2454327D01*
Y2452818D01*
X507804D01*
X516856Y2449801D02*
X521382D01*
X522891Y2451310D01*
X521382Y2452818D01*
X518365D01*
X516856Y2454327D01*
X518365Y2455836D01*
X522891D01*
X525908Y2449801D02*
X530434D01*
X531943Y2451310D01*
X530434Y2452818D01*
X527417D01*
X525908Y2454327D01*
X527417Y2455836D01*
X531943D01*
X544013Y2449801D02*
X548539D01*
X550047Y2451310D01*
X548539Y2452818D01*
X545521D01*
X544013Y2454327D01*
X545521Y2455836D01*
X550047D01*
X553065Y2446784D02*
Y2455836D01*
X557591D01*
X559100Y2454327D01*
Y2451310D01*
X557591Y2449801D01*
X553065D01*
X566643D02*
X563626D01*
X562117Y2451310D01*
Y2454327D01*
X563626Y2455836D01*
X566643D01*
X568152Y2454327D01*
Y2452818D01*
X562117D01*
X577204Y2455836D02*
X572678D01*
X571169Y2454327D01*
Y2451310D01*
X572678Y2449801D01*
X577204D01*
X580221D02*
X583239D01*
X581730D01*
Y2455836D01*
X580221D01*
X589274Y2449801D02*
Y2457344D01*
Y2454327D01*
X587765D01*
X590782D01*
X589274D01*
Y2457344D01*
X590782Y2458853D01*
X595308Y2449801D02*
X598326D01*
X596817D01*
Y2455836D01*
X595308D01*
X607378Y2449801D02*
X604360D01*
X602852Y2451310D01*
Y2454327D01*
X604360Y2455836D01*
X607378D01*
X608887Y2454327D01*
Y2452818D01*
X602852D01*
X617939Y2458853D02*
Y2449801D01*
X613413D01*
X611904Y2451310D01*
Y2454327D01*
X613413Y2455836D01*
X617939D01*
X636043Y2458853D02*
Y2449801D01*
X631517D01*
X630008Y2451310D01*
Y2454327D01*
X631517Y2455836D01*
X636043D01*
X639061Y2449801D02*
X642078D01*
X640569D01*
Y2455836D01*
X639061D01*
X648113Y2449801D02*
Y2457344D01*
Y2454327D01*
X646604D01*
X649621D01*
X648113D01*
Y2457344D01*
X649621Y2458853D01*
X655656Y2449801D02*
Y2457344D01*
Y2454327D01*
X654148D01*
X657165D01*
X655656D01*
Y2457344D01*
X657165Y2458853D01*
X666217Y2449801D02*
X663200D01*
X661691Y2451310D01*
Y2454327D01*
X663200Y2455836D01*
X666217D01*
X667726Y2454327D01*
Y2452818D01*
X661691D01*
X670743Y2455836D02*
Y2449801D01*
Y2452818D01*
X672252Y2454327D01*
X673761Y2455836D01*
X675269D01*
X684322Y2449801D02*
X681304D01*
X679796Y2451310D01*
Y2454327D01*
X681304Y2455836D01*
X684322D01*
X685830Y2454327D01*
Y2452818D01*
X679796D01*
X688848Y2449801D02*
Y2455836D01*
X693374D01*
X694882Y2454327D01*
Y2449801D01*
X699408Y2457344D02*
Y2455836D01*
X697900D01*
X700917D01*
X699408D01*
Y2451310D01*
X700917Y2449801D01*
X705443D02*
X708461D01*
X706952D01*
Y2458853D01*
X705443D01*
X712987Y2455836D02*
Y2451310D01*
X714496Y2449801D01*
X719022D01*
Y2448292D01*
X717513Y2446784D01*
X716004D01*
X719022Y2449801D02*
Y2455836D01*
X722039Y2449801D02*
Y2451310D01*
X723548D01*
Y2449801D01*
X722039D01*
X218134Y2438579D02*
X224169D01*
X227186D02*
X233221D01*
X236238D02*
X242273D01*
X245290D02*
X251325D01*
X254343D02*
X260377D01*
X263395D02*
X269429D01*
X272447D02*
X278482D01*
X281499D02*
X287534D01*
X290551D02*
X296586D01*
X299604D02*
X305638D01*
X308656D02*
X314690D01*
X317708D02*
X323743D01*
X326760D02*
X332795D01*
X335812D02*
X341847D01*
X344864D02*
X350899D01*
X353917D02*
X359951D01*
X362969D02*
X369004D01*
X372021D02*
X378056D01*
X381073D02*
X387108D01*
X390125D02*
X396160D01*
X399178D02*
X405212D01*
X408230D02*
X414265D01*
X417282D02*
X423317D01*
X426334D02*
X432369D01*
X435386D02*
X441421D01*
X444439D02*
X450473D01*
X453491D02*
X459525D01*
X462543D02*
X468578D01*
X471595D02*
X477630D01*
X480647D02*
X486682D01*
X489700D02*
X495734D01*
X498752D02*
X504786D01*
X507804D02*
X513839D01*
X516856D02*
X522891D01*
X525908D02*
X531943D01*
X534960D02*
X540995D01*
X544013D02*
X550047D01*
X553065D02*
X559100D01*
X562117D02*
X568152D01*
X571169D02*
X577204D01*
X580221D02*
X586256D01*
X589274D02*
X595308D01*
X598326D02*
X604361D01*
X607378D02*
X613413D01*
X616430D02*
X622465D01*
X625482D02*
X631517D01*
X634535D02*
X640569D01*
X643587D02*
X649621D01*
X652639D02*
X658674D01*
X661691D02*
X667726D01*
X670743D02*
X676778D01*
X679796D02*
X685830D01*
X688848D02*
X694882D01*
X697900D02*
X703935D01*
X706952D02*
X712987D01*
X716004D02*
X722039D01*
X725056D02*
X731091D01*
X734109D02*
X740143D01*
X743161D02*
X749196D01*
X752213D02*
X758248D01*
X761265D02*
X767300D01*
X770317D02*
X776352D01*
X779370D02*
X785404D01*
X788422D02*
X794457D01*
X797474D02*
X803509D01*
X806526D02*
X812561D01*
X815578D02*
X821613D01*
X824631D02*
X830665D01*
X833683D02*
X839717D01*
X842735D02*
X848770D01*
X851787D02*
X857822D01*
X860839D02*
X866874D01*
X869891D02*
X875926D01*
X878944D02*
X884978D01*
X887996D02*
X894031D01*
X897048D02*
X903083D01*
X906100D02*
X912135D01*
X915152D02*
X921187D01*
X924205D02*
X930239D01*
X933257D02*
X939292D01*
X218134Y2422831D02*
X224169D01*
X227186D02*
X233221D01*
X236238D02*
X242273D01*
X245290D02*
X251325D01*
X254343D02*
X260377D01*
X263395D02*
X269429D01*
X272447D02*
X278482D01*
X281499D02*
X287534D01*
X290551D02*
X296586D01*
X299604D02*
X305638D01*
X308656D02*
X314690D01*
X317708D02*
X323743D01*
X326760D02*
X332795D01*
X335812D02*
X341847D01*
X344864D02*
X350899D01*
X353917D02*
X359951D01*
X362969D02*
X369004D01*
X372021D02*
X378056D01*
X381073D02*
X387108D01*
X390125D02*
X396160D01*
X399178D02*
X405212D01*
X408230D02*
X414265D01*
X417282D02*
X423317D01*
X426334D02*
X432369D01*
X435386D02*
X441421D01*
X444439D02*
X450473D01*
X453491D02*
X459525D01*
X462543D02*
X468578D01*
X471595D02*
X477630D01*
X480647D02*
X486682D01*
X489700D02*
X495734D01*
X498752D02*
X504786D01*
X507804D02*
X513839D01*
X516856D02*
X522891D01*
X525908D02*
X531943D01*
X534960D02*
X540995D01*
X544013D02*
X550047D01*
X553065D02*
X559100D01*
X562117D02*
X568152D01*
X571169D02*
X577204D01*
X580221D02*
X586256D01*
X589274D02*
X595308D01*
X598326D02*
X604361D01*
X607378D02*
X613413D01*
X616430D02*
X622465D01*
X625482D02*
X631517D01*
X634535D02*
X640569D01*
X643587D02*
X649621D01*
X652639D02*
X658674D01*
X661691D02*
X667726D01*
X670743D02*
X676778D01*
X679796D02*
X685830D01*
X688848D02*
X694882D01*
X697900D02*
X703935D01*
X706952D02*
X712987D01*
X716004D02*
X722039D01*
X725056D02*
X731091D01*
X734109D02*
X740143D01*
X743161D02*
X749196D01*
X752213D02*
X758248D01*
X761265D02*
X767300D01*
X770317D02*
X776352D01*
X779370D02*
X785404D01*
X788422D02*
X794457D01*
X797474D02*
X803509D01*
X806526D02*
X812561D01*
X815578D02*
X821613D01*
X824631D02*
X830665D01*
X833683D02*
X839717D01*
X842735D02*
X848770D01*
X851787D02*
X857822D01*
X860839D02*
X866874D01*
X869891D02*
X875926D01*
X878944D02*
X884978D01*
X887996D02*
X894031D01*
X897048D02*
X903083D01*
X906100D02*
X912135D01*
X915152D02*
X921187D01*
X924205D02*
X930239D01*
X933257D02*
X939292D01*
X218134Y3088774D02*
Y3079722D01*
X222660D01*
X224169Y3081231D01*
Y3082740D01*
X222660Y3084248D01*
X218134D01*
X222660D01*
X224169Y3085757D01*
Y3087266D01*
X222660Y3088774D01*
X218134D01*
X227186D02*
Y3081231D01*
X228695Y3079722D01*
X231712D01*
X233221Y3081231D01*
Y3088774D01*
X236238D02*
X239256D01*
X237747D01*
Y3079722D01*
X236238D01*
X239256D01*
X243782Y3088774D02*
Y3079722D01*
X249816D01*
X252834Y3088774D02*
Y3079722D01*
X257360D01*
X258869Y3081231D01*
Y3087266D01*
X257360Y3088774D01*
X252834D01*
X270938D02*
Y3081231D01*
X272447Y3079722D01*
X275464D01*
X276973Y3081231D01*
Y3088774D01*
X279990Y3079722D02*
Y3088774D01*
X284517D01*
X286025Y3087266D01*
Y3084248D01*
X284517Y3082740D01*
X279990D01*
X359866Y3085757D02*
X361375D01*
Y3084248D01*
X359866D01*
Y3085757D01*
Y3081231D02*
X361375D01*
Y3079722D01*
X359866D01*
Y3081231D01*
Y2802293D02*
X361375D01*
Y2800784D01*
X359866D01*
Y2802293D01*
Y2797766D02*
X361375D01*
Y2796258D01*
X359866D01*
Y2797766D01*
X218134Y2805310D02*
X224169D01*
X221151D01*
Y2796258D01*
X233221Y2805310D02*
X227186D01*
Y2796258D01*
X233221D01*
X227186Y2800784D02*
X230203D01*
X242273Y2803801D02*
X240764Y2805310D01*
X237747D01*
X236238Y2803801D01*
Y2802293D01*
X237747Y2800784D01*
X240764D01*
X242273Y2799275D01*
Y2797766D01*
X240764Y2796258D01*
X237747D01*
X236238Y2797766D01*
X245290Y2805310D02*
X251325D01*
X248308D01*
Y2796258D01*
X218134Y2584838D02*
Y2575785D01*
X221151Y2578803D01*
X224169Y2575785D01*
Y2584838D01*
X227186Y2575785D02*
Y2581820D01*
X230203Y2584838D01*
X233221Y2581820D01*
Y2575785D01*
Y2580311D01*
X227186D01*
X236238Y2575785D02*
Y2584838D01*
X240764D01*
X242273Y2583329D01*
Y2580311D01*
X240764Y2578803D01*
X236238D01*
X239256D02*
X242273Y2575785D01*
X245290D02*
Y2584838D01*
X251325Y2575785D01*
Y2584838D01*
X254343D02*
X257360D01*
X255851D01*
Y2575785D01*
X254343D01*
X257360D01*
X261886D02*
Y2584838D01*
X267921Y2575785D01*
Y2584838D01*
X276973Y2583329D02*
X275464Y2584838D01*
X272447D01*
X270938Y2583329D01*
Y2577294D01*
X272447Y2575785D01*
X275464D01*
X276973Y2577294D01*
Y2580311D01*
X273956D01*
X296874Y2581820D02*
X298383D01*
Y2580311D01*
X296874D01*
Y2581820D01*
Y2577294D02*
X298383D01*
Y2575785D01*
X296874D01*
Y2577294D01*
X548842Y2119092D02*
Y2128145D01*
X553369D01*
X554877Y2126636D01*
Y2123619D01*
X553369Y2122110D01*
X548842D01*
X559403Y2125127D02*
X562421D01*
X563929Y2123619D01*
Y2119092D01*
X559403D01*
X557895Y2120601D01*
X559403Y2122110D01*
X563929D01*
X569964Y2116075D02*
X571473D01*
X572982Y2117584D01*
Y2125127D01*
X568456D01*
X566947Y2123619D01*
Y2120601D01*
X568456Y2119092D01*
X572982D01*
X580525D02*
X577508D01*
X575999Y2120601D01*
Y2123619D01*
X577508Y2125127D01*
X580525D01*
X582034Y2123619D01*
Y2122110D01*
X575999D01*
X600138Y2119092D02*
X594103D01*
X600138Y2125127D01*
Y2126636D01*
X598630Y2128145D01*
X595612D01*
X594103Y2126636D01*
D121*
X966165Y3186021D02*
Y3193896D01*
X958291D02*
X966165D01*
X958291Y2024604D02*
X966165D01*
Y2032478D01*
X139394Y3186021D02*
Y3193896D01*
X147268D01*
X139394Y2024604D02*
X147268D01*
X139394D02*
Y2032478D01*
M02*
