G04*
G04 #@! TF.GenerationSoftware,Altium Limited,Altium Designer,19.0.15 (446)*
G04*
G04 Layer_Color=65535*
%FSLAX25Y25*%
%MOIN*%
G70*
G01*
G75*
G36*
X5898Y151368D02*
X5955Y151363D01*
X6012Y151358D01*
X6080Y151353D01*
X6225Y151332D01*
X6386Y151301D01*
X6547Y151254D01*
X6703Y151197D01*
X6708D01*
X6718Y151187D01*
X6744Y151181D01*
X6770Y151166D01*
X6801Y151145D01*
X6843Y151124D01*
X6931Y151072D01*
X7035Y151000D01*
X7139Y150911D01*
X7237Y150813D01*
X7325Y150694D01*
X7331Y150688D01*
X7336Y150678D01*
X7346Y150662D01*
X7362Y150636D01*
X7377Y150605D01*
X7398Y150569D01*
X7414Y150522D01*
X7440Y150476D01*
X7481Y150367D01*
X7517Y150237D01*
X7549Y150097D01*
X7564Y149941D01*
X6957Y149894D01*
Y149899D01*
X6952Y149915D01*
Y149936D01*
X6946Y149967D01*
X6936Y150008D01*
X6926Y150050D01*
X6895Y150149D01*
X6853Y150258D01*
X6791Y150372D01*
X6718Y150481D01*
X6672Y150527D01*
X6620Y150574D01*
X6614Y150579D01*
X6609Y150584D01*
X6588Y150595D01*
X6568Y150610D01*
X6537Y150626D01*
X6500Y150647D01*
X6459Y150668D01*
X6412Y150694D01*
X6355Y150714D01*
X6293Y150735D01*
X6225Y150756D01*
X6152Y150771D01*
X6069Y150787D01*
X5981Y150797D01*
X5888Y150808D01*
X5737D01*
X5696Y150803D01*
X5649D01*
X5597Y150797D01*
X5535Y150792D01*
X5473Y150782D01*
X5332Y150756D01*
X5198Y150719D01*
X5068Y150668D01*
X5006Y150631D01*
X4954Y150595D01*
X4948D01*
X4943Y150584D01*
X4912Y150559D01*
X4871Y150512D01*
X4824Y150450D01*
X4777Y150377D01*
X4736Y150289D01*
X4704Y150195D01*
X4699Y150143D01*
X4694Y150086D01*
Y150081D01*
Y150076D01*
X4699Y150045D01*
X4704Y149998D01*
X4715Y149941D01*
X4741Y149873D01*
X4772Y149801D01*
X4813Y149733D01*
X4876Y149666D01*
X4886Y149661D01*
X4896Y149650D01*
X4917Y149635D01*
X4943Y149619D01*
X4974Y149604D01*
X5016Y149583D01*
X5063Y149557D01*
X5120Y149531D01*
X5187Y149505D01*
X5265Y149479D01*
X5353Y149448D01*
X5457Y149417D01*
X5566Y149386D01*
X5691Y149349D01*
X5831Y149318D01*
X5841D01*
X5867Y149313D01*
X5903Y149303D01*
X5955Y149287D01*
X6018Y149277D01*
X6090Y149256D01*
X6168Y149240D01*
X6251Y149214D01*
X6427Y149168D01*
X6604Y149121D01*
X6687Y149095D01*
X6760Y149069D01*
X6832Y149043D01*
X6889Y149017D01*
X6895D01*
X6910Y149007D01*
X6931Y148996D01*
X6957Y148981D01*
X6993Y148965D01*
X7035Y148939D01*
X7123Y148882D01*
X7227Y148815D01*
X7325Y148732D01*
X7424Y148633D01*
X7465Y148581D01*
X7507Y148529D01*
Y148524D01*
X7517Y148514D01*
X7528Y148498D01*
X7538Y148477D01*
X7554Y148451D01*
X7569Y148415D01*
X7611Y148332D01*
X7647Y148233D01*
X7678Y148119D01*
X7699Y147989D01*
X7710Y147849D01*
Y147844D01*
Y147834D01*
Y147813D01*
X7704Y147787D01*
Y147751D01*
X7699Y147714D01*
X7683Y147616D01*
X7658Y147507D01*
X7616Y147388D01*
X7559Y147263D01*
X7528Y147195D01*
X7486Y147133D01*
Y147128D01*
X7476Y147118D01*
X7465Y147102D01*
X7445Y147076D01*
X7398Y147019D01*
X7325Y146941D01*
X7237Y146858D01*
X7128Y146770D01*
X7004Y146687D01*
X6858Y146609D01*
X6853D01*
X6837Y146599D01*
X6817Y146593D01*
X6786Y146578D01*
X6749Y146567D01*
X6703Y146552D01*
X6651Y146531D01*
X6588Y146516D01*
X6526Y146500D01*
X6453Y146479D01*
X6298Y146453D01*
X6126Y146432D01*
X5940Y146422D01*
X5877D01*
X5831Y146427D01*
X5774D01*
X5711Y146432D01*
X5639Y146438D01*
X5556Y146448D01*
X5384Y146469D01*
X5203Y146500D01*
X5021Y146547D01*
X4845Y146609D01*
X4839D01*
X4824Y146619D01*
X4803Y146630D01*
X4772Y146645D01*
X4736Y146666D01*
X4694Y146687D01*
X4595Y146749D01*
X4487Y146827D01*
X4372Y146926D01*
X4258Y147040D01*
X4160Y147175D01*
X4154Y147180D01*
X4149Y147190D01*
X4139Y147211D01*
X4123Y147242D01*
X4102Y147278D01*
X4082Y147320D01*
X4056Y147372D01*
X4035Y147429D01*
X4009Y147486D01*
X3988Y147554D01*
X3947Y147704D01*
X3916Y147865D01*
X3905Y147953D01*
X3900Y148041D01*
X4497Y148093D01*
Y148088D01*
Y148078D01*
X4502Y148057D01*
X4507Y148031D01*
X4512Y148000D01*
X4518Y147969D01*
X4538Y147880D01*
X4564Y147787D01*
X4595Y147688D01*
X4637Y147590D01*
X4689Y147496D01*
X4694Y147486D01*
X4720Y147460D01*
X4756Y147419D01*
X4808Y147367D01*
X4876Y147304D01*
X4959Y147247D01*
X5057Y147185D01*
X5172Y147128D01*
X5177D01*
X5187Y147123D01*
X5203Y147118D01*
X5229Y147107D01*
X5260Y147097D01*
X5296Y147081D01*
X5338Y147071D01*
X5384Y147061D01*
X5493Y147035D01*
X5623Y147009D01*
X5758Y146993D01*
X5909Y146988D01*
X5971D01*
X6002Y146993D01*
X6038D01*
X6121Y147003D01*
X6220Y147014D01*
X6329Y147029D01*
X6438Y147055D01*
X6542Y147092D01*
X6547D01*
X6552Y147097D01*
X6568Y147102D01*
X6588Y147112D01*
X6635Y147138D01*
X6697Y147169D01*
X6765Y147211D01*
X6837Y147263D01*
X6900Y147320D01*
X6957Y147388D01*
X6962Y147398D01*
X6978Y147419D01*
X7004Y147460D01*
X7030Y147512D01*
X7050Y147574D01*
X7076Y147642D01*
X7092Y147720D01*
X7097Y147798D01*
Y147803D01*
Y147808D01*
Y147834D01*
X7092Y147880D01*
X7081Y147932D01*
X7066Y147995D01*
X7040Y148062D01*
X7009Y148130D01*
X6962Y148192D01*
X6957Y148197D01*
X6936Y148218D01*
X6905Y148249D01*
X6858Y148291D01*
X6801Y148332D01*
X6723Y148379D01*
X6635Y148425D01*
X6531Y148472D01*
X6521Y148477D01*
X6511Y148483D01*
X6490Y148488D01*
X6469Y148493D01*
X6438Y148503D01*
X6396Y148519D01*
X6355Y148529D01*
X6298Y148545D01*
X6241Y148566D01*
X6168Y148581D01*
X6090Y148602D01*
X6002Y148628D01*
X5909Y148649D01*
X5799Y148680D01*
X5680Y148706D01*
X5675D01*
X5654Y148711D01*
X5618Y148721D01*
X5576Y148732D01*
X5519Y148747D01*
X5457Y148763D01*
X5395Y148784D01*
X5322Y148804D01*
X5166Y148851D01*
X5016Y148903D01*
X4943Y148929D01*
X4876Y148955D01*
X4813Y148981D01*
X4761Y149007D01*
X4756D01*
X4746Y149017D01*
X4730Y149028D01*
X4704Y149038D01*
X4642Y149074D01*
X4569Y149126D01*
X4481Y149194D01*
X4398Y149266D01*
X4315Y149355D01*
X4248Y149448D01*
Y149453D01*
X4242Y149458D01*
X4232Y149474D01*
X4222Y149495D01*
X4196Y149552D01*
X4165Y149624D01*
X4134Y149713D01*
X4108Y149816D01*
X4087Y149931D01*
X4082Y150050D01*
Y150055D01*
Y150066D01*
Y150086D01*
X4087Y150112D01*
Y150143D01*
X4092Y150180D01*
X4108Y150273D01*
X4134Y150377D01*
X4165Y150486D01*
X4217Y150605D01*
X4284Y150725D01*
Y150730D01*
X4294Y150740D01*
X4305Y150756D01*
X4320Y150777D01*
X4372Y150834D01*
X4440Y150906D01*
X4523Y150984D01*
X4627Y151062D01*
X4746Y151140D01*
X4886Y151207D01*
X4891D01*
X4902Y151213D01*
X4928Y151223D01*
X4954Y151233D01*
X4990Y151244D01*
X5037Y151259D01*
X5088Y151275D01*
X5146Y151290D01*
X5208Y151306D01*
X5275Y151321D01*
X5421Y151347D01*
X5587Y151368D01*
X5763Y151373D01*
X5851D01*
X5898Y151368D01*
D02*
G37*
G36*
X18385D02*
X18437Y151363D01*
X18494Y151358D01*
X18562Y151353D01*
X18707Y151332D01*
X18868Y151301D01*
X19029Y151259D01*
X19190Y151202D01*
X19195D01*
X19210Y151197D01*
X19231Y151187D01*
X19257Y151171D01*
X19294Y151155D01*
X19335Y151135D01*
X19429Y151083D01*
X19537Y151015D01*
X19647Y150937D01*
X19750Y150844D01*
X19849Y150735D01*
X19854Y150730D01*
X19859Y150719D01*
X19870Y150704D01*
X19890Y150683D01*
X19906Y150652D01*
X19932Y150616D01*
X19958Y150574D01*
X19984Y150522D01*
X20015Y150470D01*
X20041Y150413D01*
X20072Y150346D01*
X20103Y150278D01*
X20160Y150123D01*
X20212Y149951D01*
X19636Y149796D01*
Y149801D01*
X19631Y149811D01*
X19626Y149832D01*
X19615Y149858D01*
X19605Y149884D01*
X19595Y149920D01*
X19563Y150003D01*
X19522Y150097D01*
X19475Y150190D01*
X19423Y150284D01*
X19366Y150367D01*
X19361Y150377D01*
X19335Y150403D01*
X19299Y150439D01*
X19252Y150491D01*
X19184Y150543D01*
X19107Y150600D01*
X19013Y150652D01*
X18910Y150704D01*
X18904D01*
X18894Y150709D01*
X18878Y150714D01*
X18858Y150725D01*
X18832Y150735D01*
X18795Y150745D01*
X18717Y150771D01*
X18619Y150792D01*
X18510Y150813D01*
X18385Y150829D01*
X18256Y150834D01*
X18183D01*
X18146Y150829D01*
X18100D01*
X18053Y150823D01*
X17996Y150818D01*
X17882Y150803D01*
X17752Y150777D01*
X17627Y150745D01*
X17503Y150699D01*
X17498D01*
X17487Y150694D01*
X17472Y150683D01*
X17451Y150673D01*
X17394Y150647D01*
X17321Y150605D01*
X17238Y150553D01*
X17155Y150491D01*
X17067Y150424D01*
X16989Y150346D01*
X16979Y150335D01*
X16958Y150310D01*
X16922Y150263D01*
X16880Y150206D01*
X16834Y150138D01*
X16782Y150055D01*
X16735Y149967D01*
X16693Y149873D01*
Y149868D01*
X16688Y149853D01*
X16678Y149832D01*
X16667Y149796D01*
X16652Y149754D01*
X16636Y149707D01*
X16621Y149650D01*
X16605Y149588D01*
X16584Y149521D01*
X16569Y149443D01*
X16543Y149282D01*
X16522Y149100D01*
X16512Y148908D01*
Y148903D01*
Y148882D01*
Y148846D01*
X16517Y148804D01*
Y148747D01*
X16522Y148685D01*
X16533Y148612D01*
X16538Y148535D01*
X16564Y148363D01*
X16605Y148187D01*
X16657Y148005D01*
X16730Y147834D01*
X16735Y147829D01*
X16740Y147813D01*
X16750Y147792D01*
X16771Y147761D01*
X16792Y147730D01*
X16823Y147688D01*
X16891Y147595D01*
X16984Y147491D01*
X17093Y147382D01*
X17218Y147284D01*
X17290Y147237D01*
X17368Y147195D01*
X17373D01*
X17389Y147185D01*
X17410Y147175D01*
X17441Y147164D01*
X17482Y147149D01*
X17529Y147128D01*
X17581Y147112D01*
X17638Y147092D01*
X17700Y147071D01*
X17773Y147055D01*
X17923Y147019D01*
X18090Y146998D01*
X18266Y146988D01*
X18307D01*
X18339Y146993D01*
X18375D01*
X18416Y146998D01*
X18463Y147003D01*
X18520Y147009D01*
X18640Y147024D01*
X18775Y147055D01*
X18920Y147092D01*
X19065Y147144D01*
X19070D01*
X19081Y147149D01*
X19102Y147159D01*
X19133Y147169D01*
X19164Y147185D01*
X19200Y147206D01*
X19288Y147247D01*
X19387Y147299D01*
X19486Y147356D01*
X19579Y147413D01*
X19662Y147481D01*
Y148379D01*
X18256D01*
Y148944D01*
X20285D01*
Y147164D01*
X20280Y147159D01*
X20264Y147149D01*
X20238Y147128D01*
X20202Y147102D01*
X20160Y147071D01*
X20108Y147040D01*
X20051Y146998D01*
X19989Y146957D01*
X19921Y146915D01*
X19844Y146869D01*
X19683Y146775D01*
X19506Y146687D01*
X19320Y146609D01*
X19314D01*
X19299Y146599D01*
X19273Y146593D01*
X19231Y146578D01*
X19190Y146567D01*
X19133Y146552D01*
X19076Y146531D01*
X19008Y146516D01*
X18930Y146500D01*
X18852Y146479D01*
X18681Y146453D01*
X18494Y146432D01*
X18302Y146422D01*
X18235D01*
X18183Y146427D01*
X18121Y146432D01*
X18048Y146438D01*
X17965Y146448D01*
X17877Y146458D01*
X17783Y146474D01*
X17679Y146495D01*
X17576Y146521D01*
X17461Y146552D01*
X17353Y146583D01*
X17244Y146625D01*
X17129Y146671D01*
X17020Y146723D01*
X17015Y146728D01*
X16994Y146739D01*
X16963Y146754D01*
X16927Y146780D01*
X16880Y146811D01*
X16823Y146848D01*
X16761Y146894D01*
X16693Y146946D01*
X16626Y147003D01*
X16553Y147071D01*
X16481Y147138D01*
X16408Y147216D01*
X16340Y147304D01*
X16273Y147393D01*
X16206Y147491D01*
X16148Y147595D01*
X16143Y147600D01*
X16138Y147621D01*
X16123Y147652D01*
X16102Y147694D01*
X16081Y147751D01*
X16055Y147813D01*
X16029Y147886D01*
X16003Y147969D01*
X15977Y148057D01*
X15951Y148156D01*
X15925Y148265D01*
X15904Y148374D01*
X15884Y148493D01*
X15868Y148612D01*
X15863Y148742D01*
X15858Y148872D01*
Y148882D01*
Y148903D01*
Y148939D01*
X15863Y148991D01*
X15868Y149054D01*
X15873Y149126D01*
X15884Y149209D01*
X15894Y149297D01*
X15910Y149396D01*
X15930Y149500D01*
X15982Y149718D01*
X16014Y149832D01*
X16055Y149946D01*
X16096Y150060D01*
X16148Y150174D01*
X16154Y150180D01*
X16164Y150200D01*
X16180Y150232D01*
X16200Y150273D01*
X16231Y150325D01*
X16268Y150382D01*
X16315Y150444D01*
X16361Y150517D01*
X16418Y150590D01*
X16481Y150662D01*
X16548Y150735D01*
X16626Y150813D01*
X16704Y150885D01*
X16792Y150953D01*
X16885Y151021D01*
X16984Y151078D01*
X16989Y151083D01*
X17010Y151088D01*
X17041Y151103D01*
X17083Y151124D01*
X17134Y151145D01*
X17197Y151171D01*
X17269Y151197D01*
X17347Y151228D01*
X17436Y151254D01*
X17534Y151280D01*
X17638Y151306D01*
X17752Y151327D01*
X17866Y151347D01*
X17991Y151363D01*
X18121Y151368D01*
X18250Y151373D01*
X18339D01*
X18385Y151368D01*
D02*
G37*
G36*
X26715Y150045D02*
X26762Y150040D01*
X26809Y150034D01*
X26866Y150024D01*
X26928Y150014D01*
X27053Y149977D01*
X27187Y149925D01*
X27250Y149894D01*
X27312Y149858D01*
X27374Y149811D01*
X27426Y149759D01*
X27431Y149754D01*
X27437Y149744D01*
X27452Y149728D01*
X27468Y149707D01*
X27494Y149676D01*
X27514Y149640D01*
X27540Y149593D01*
X27566Y149541D01*
X27592Y149484D01*
X27618Y149422D01*
X27644Y149349D01*
X27665Y149272D01*
X27681Y149183D01*
X27696Y149090D01*
X27701Y148991D01*
X27707Y148882D01*
Y146500D01*
X27120D01*
Y148685D01*
Y148690D01*
Y148701D01*
Y148721D01*
Y148742D01*
X27115Y148804D01*
Y148882D01*
X27104Y148965D01*
X27094Y149048D01*
X27084Y149126D01*
X27063Y149194D01*
Y149199D01*
X27053Y149220D01*
X27037Y149246D01*
X27016Y149282D01*
X26985Y149323D01*
X26954Y149365D01*
X26907Y149406D01*
X26855Y149443D01*
X26850Y149448D01*
X26829Y149458D01*
X26798Y149474D01*
X26757Y149495D01*
X26705Y149510D01*
X26643Y149526D01*
X26575Y149536D01*
X26502Y149541D01*
X26466D01*
X26440Y149536D01*
X26409D01*
X26373Y149531D01*
X26290Y149510D01*
X26191Y149484D01*
X26087Y149437D01*
X25989Y149380D01*
X25937Y149339D01*
X25890Y149297D01*
Y149292D01*
X25880Y149287D01*
X25869Y149272D01*
X25854Y149251D01*
X25833Y149225D01*
X25812Y149194D01*
X25791Y149152D01*
X25771Y149111D01*
X25745Y149059D01*
X25724Y149002D01*
X25703Y148934D01*
X25682Y148867D01*
X25667Y148789D01*
X25657Y148701D01*
X25651Y148612D01*
X25646Y148514D01*
Y146500D01*
X25060D01*
Y148752D01*
Y148758D01*
Y148768D01*
Y148789D01*
Y148820D01*
X25054Y148851D01*
Y148887D01*
X25044Y148976D01*
X25023Y149069D01*
X24997Y149168D01*
X24961Y149261D01*
X24914Y149344D01*
X24909Y149355D01*
X24888Y149375D01*
X24852Y149406D01*
X24805Y149443D01*
X24738Y149479D01*
X24660Y149510D01*
X24561Y149531D01*
X24447Y149541D01*
X24406D01*
X24359Y149536D01*
X24297Y149526D01*
X24224Y149510D01*
X24146Y149484D01*
X24068Y149453D01*
X23985Y149406D01*
X23975Y149401D01*
X23949Y149380D01*
X23913Y149355D01*
X23871Y149308D01*
X23819Y149256D01*
X23767Y149188D01*
X23721Y149111D01*
X23679Y149022D01*
Y149017D01*
X23674Y149012D01*
X23669Y148996D01*
X23663Y148976D01*
X23658Y148950D01*
X23648Y148918D01*
X23643Y148882D01*
X23632Y148841D01*
X23622Y148789D01*
X23617Y148737D01*
X23606Y148680D01*
X23601Y148612D01*
X23596Y148545D01*
X23591Y148467D01*
X23586Y148389D01*
Y148301D01*
Y146500D01*
X22999D01*
Y149972D01*
X23523D01*
Y149489D01*
X23534Y149495D01*
X23554Y149526D01*
X23591Y149573D01*
X23643Y149630D01*
X23705Y149697D01*
X23778Y149765D01*
X23861Y149832D01*
X23959Y149894D01*
X23965D01*
X23970Y149899D01*
X23985Y149910D01*
X24006Y149920D01*
X24032Y149931D01*
X24063Y149946D01*
X24136Y149972D01*
X24229Y150003D01*
X24333Y150024D01*
X24452Y150045D01*
X24577Y150050D01*
X24639D01*
X24676Y150045D01*
X24712Y150040D01*
X24800Y150029D01*
X24899Y150008D01*
X25003Y149983D01*
X25106Y149941D01*
X25205Y149889D01*
X25210D01*
X25215Y149884D01*
X25247Y149858D01*
X25288Y149822D01*
X25345Y149775D01*
X25402Y149707D01*
X25459Y149635D01*
X25511Y149547D01*
X25558Y149443D01*
X25563Y149448D01*
X25579Y149469D01*
X25599Y149500D01*
X25636Y149536D01*
X25672Y149583D01*
X25724Y149635D01*
X25781Y149692D01*
X25848Y149749D01*
X25921Y149801D01*
X26004Y149858D01*
X26092Y149910D01*
X26186Y149957D01*
X26290Y149993D01*
X26399Y150024D01*
X26513Y150045D01*
X26632Y150050D01*
X26684D01*
X26715Y150045D01*
D02*
G37*
G36*
X68329Y151301D02*
X68365Y151296D01*
X68464Y151285D01*
X68573Y151264D01*
X68697Y151233D01*
X68822Y151192D01*
X68946Y151135D01*
X68951D01*
X68962Y151129D01*
X68977Y151119D01*
X69003Y151103D01*
X69060Y151067D01*
X69133Y151015D01*
X69216Y150948D01*
X69299Y150870D01*
X69382Y150782D01*
X69455Y150678D01*
Y150673D01*
X69460Y150668D01*
X69471Y150647D01*
X69481Y150626D01*
X69496Y150600D01*
X69512Y150569D01*
X69543Y150491D01*
X69574Y150398D01*
X69605Y150294D01*
X69626Y150180D01*
X69631Y150060D01*
Y150055D01*
Y150045D01*
Y150029D01*
Y150008D01*
X69621Y149946D01*
X69611Y149873D01*
X69590Y149785D01*
X69559Y149692D01*
X69517Y149593D01*
X69460Y149495D01*
Y149489D01*
X69455Y149484D01*
X69429Y149453D01*
X69393Y149406D01*
X69336Y149349D01*
X69268Y149282D01*
X69180Y149214D01*
X69081Y149152D01*
X68967Y149090D01*
X68972D01*
X68988Y149085D01*
X69009Y149079D01*
X69040Y149069D01*
X69071Y149059D01*
X69112Y149043D01*
X69211Y149002D01*
X69315Y148944D01*
X69424Y148877D01*
X69533Y148789D01*
X69626Y148680D01*
X69631Y148675D01*
X69636Y148664D01*
X69647Y148649D01*
X69662Y148623D01*
X69683Y148597D01*
X69704Y148560D01*
X69725Y148519D01*
X69745Y148467D01*
X69766Y148415D01*
X69787Y148358D01*
X69829Y148228D01*
X69854Y148078D01*
X69865Y147995D01*
Y147912D01*
Y147906D01*
Y147886D01*
X69860Y147849D01*
Y147808D01*
X69849Y147751D01*
X69839Y147688D01*
X69829Y147621D01*
X69808Y147543D01*
X69782Y147460D01*
X69751Y147377D01*
X69714Y147289D01*
X69668Y147201D01*
X69616Y147107D01*
X69554Y147019D01*
X69486Y146931D01*
X69403Y146848D01*
X69398Y146843D01*
X69382Y146827D01*
X69356Y146806D01*
X69320Y146780D01*
X69278Y146749D01*
X69221Y146713D01*
X69159Y146671D01*
X69086Y146635D01*
X69009Y146593D01*
X68920Y146552D01*
X68827Y146516D01*
X68723Y146484D01*
X68614Y146458D01*
X68500Y146438D01*
X68381Y146422D01*
X68251Y146417D01*
X68225D01*
X68189Y146422D01*
X68147D01*
X68090Y146427D01*
X68028Y146438D01*
X67960Y146448D01*
X67882Y146464D01*
X67799Y146484D01*
X67716Y146510D01*
X67628Y146536D01*
X67540Y146573D01*
X67452Y146619D01*
X67369Y146666D01*
X67280Y146723D01*
X67202Y146791D01*
X67197Y146796D01*
X67187Y146806D01*
X67166Y146827D01*
X67135Y146858D01*
X67104Y146894D01*
X67067Y146941D01*
X67031Y146993D01*
X66990Y147055D01*
X66948Y147118D01*
X66907Y147195D01*
X66865Y147273D01*
X66829Y147362D01*
X66798Y147455D01*
X66767Y147554D01*
X66746Y147657D01*
X66730Y147766D01*
X67317Y147844D01*
Y147839D01*
X67322Y147824D01*
X67327Y147798D01*
X67337Y147761D01*
X67348Y147720D01*
X67358Y147673D01*
X67395Y147564D01*
X67441Y147445D01*
X67498Y147325D01*
X67571Y147216D01*
X67612Y147169D01*
X67654Y147123D01*
X67659D01*
X67664Y147112D01*
X67680Y147102D01*
X67695Y147087D01*
X67747Y147055D01*
X67820Y147014D01*
X67908Y146972D01*
X68007Y146941D01*
X68126Y146915D01*
X68251Y146905D01*
X68292D01*
X68323Y146910D01*
X68355Y146915D01*
X68401Y146920D01*
X68495Y146941D01*
X68609Y146972D01*
X68728Y147024D01*
X68785Y147061D01*
X68843Y147097D01*
X68900Y147138D01*
X68957Y147190D01*
X68962Y147195D01*
X68967Y147206D01*
X68983Y147221D01*
X69003Y147242D01*
X69024Y147268D01*
X69045Y147304D01*
X69071Y147341D01*
X69102Y147388D01*
X69154Y147491D01*
X69195Y147611D01*
X69232Y147751D01*
X69237Y147824D01*
X69242Y147901D01*
Y147906D01*
Y147917D01*
Y147943D01*
X69237Y147969D01*
X69232Y148005D01*
X69226Y148041D01*
X69211Y148135D01*
X69175Y148244D01*
X69128Y148353D01*
X69097Y148410D01*
X69060Y148462D01*
X69019Y148514D01*
X68972Y148566D01*
X68967Y148571D01*
X68962Y148576D01*
X68946Y148592D01*
X68925Y148607D01*
X68900Y148628D01*
X68868Y148649D01*
X68791Y148701D01*
X68692Y148747D01*
X68578Y148789D01*
X68448Y148820D01*
X68375Y148825D01*
X68303Y148830D01*
X68272D01*
X68235Y148825D01*
X68189D01*
X68126Y148815D01*
X68059Y148804D01*
X67976Y148789D01*
X67888Y148768D01*
X67950Y149282D01*
X67960D01*
X67986Y149277D01*
X68017Y149272D01*
X68085D01*
X68111Y149277D01*
X68147D01*
X68183Y149282D01*
X68272Y149297D01*
X68375Y149318D01*
X68489Y149355D01*
X68609Y149401D01*
X68723Y149469D01*
X68728D01*
X68739Y149479D01*
X68749Y149489D01*
X68770Y149505D01*
X68822Y149552D01*
X68879Y149619D01*
X68931Y149702D01*
X68983Y149806D01*
X69003Y149863D01*
X69014Y149931D01*
X69024Y149998D01*
X69029Y150071D01*
Y150076D01*
Y150086D01*
Y150102D01*
X69024Y150128D01*
X69019Y150185D01*
X69003Y150263D01*
X68977Y150346D01*
X68936Y150434D01*
X68879Y150527D01*
X68848Y150569D01*
X68806Y150610D01*
X68796Y150621D01*
X68765Y150642D01*
X68718Y150678D01*
X68656Y150719D01*
X68573Y150756D01*
X68474Y150792D01*
X68365Y150813D01*
X68240Y150823D01*
X68209D01*
X68183Y150818D01*
X68152D01*
X68121Y150813D01*
X68038Y150797D01*
X67950Y150771D01*
X67851Y150730D01*
X67758Y150678D01*
X67664Y150605D01*
X67654Y150595D01*
X67628Y150564D01*
X67586Y150517D01*
X67545Y150444D01*
X67493Y150356D01*
X67446Y150242D01*
X67405Y150112D01*
X67374Y149962D01*
X66787Y150066D01*
Y150071D01*
X66792Y150092D01*
X66798Y150123D01*
X66808Y150164D01*
X66824Y150211D01*
X66839Y150268D01*
X66860Y150330D01*
X66886Y150398D01*
X66953Y150548D01*
X66990Y150621D01*
X67036Y150699D01*
X67088Y150771D01*
X67145Y150844D01*
X67208Y150917D01*
X67275Y150979D01*
X67280Y150984D01*
X67291Y150995D01*
X67317Y151010D01*
X67343Y151031D01*
X67384Y151057D01*
X67426Y151083D01*
X67478Y151114D01*
X67540Y151145D01*
X67602Y151171D01*
X67675Y151202D01*
X67753Y151228D01*
X67836Y151254D01*
X67929Y151275D01*
X68023Y151290D01*
X68121Y151301D01*
X68225Y151306D01*
X68292D01*
X68329Y151301D01*
D02*
G37*
G36*
X35652Y150045D02*
X35699Y150040D01*
X35756Y150034D01*
X35818Y150024D01*
X35886Y150014D01*
X36031Y149977D01*
X36187Y149925D01*
X36265Y149894D01*
X36343Y149858D01*
X36415Y149811D01*
X36483Y149759D01*
X36488Y149754D01*
X36498Y149744D01*
X36519Y149728D01*
X36540Y149707D01*
X36571Y149676D01*
X36602Y149640D01*
X36639Y149598D01*
X36675Y149552D01*
X36716Y149495D01*
X36753Y149437D01*
X36794Y149370D01*
X36830Y149297D01*
X36862Y149220D01*
X36893Y149136D01*
X36924Y149043D01*
X36945Y148950D01*
X36374Y148861D01*
Y148867D01*
X36369Y148877D01*
X36364Y148893D01*
X36358Y148918D01*
X36338Y148981D01*
X36306Y149059D01*
X36265Y149142D01*
X36218Y149230D01*
X36156Y149313D01*
X36083Y149386D01*
X36073Y149396D01*
X36047Y149417D01*
X36000Y149443D01*
X35943Y149479D01*
X35870Y149510D01*
X35787Y149541D01*
X35689Y149562D01*
X35585Y149567D01*
X35543D01*
X35512Y149562D01*
X35471Y149557D01*
X35429Y149552D01*
X35326Y149526D01*
X35211Y149489D01*
X35154Y149463D01*
X35092Y149432D01*
X35035Y149396D01*
X34973Y149349D01*
X34915Y149303D01*
X34863Y149246D01*
X34858Y149240D01*
X34853Y149230D01*
X34838Y149214D01*
X34822Y149183D01*
X34801Y149152D01*
X34775Y149111D01*
X34749Y149059D01*
X34729Y149002D01*
X34703Y148934D01*
X34677Y148861D01*
X34651Y148778D01*
X34630Y148685D01*
X34614Y148586D01*
X34599Y148483D01*
X34594Y148363D01*
X34589Y148239D01*
Y148233D01*
Y148207D01*
Y148171D01*
X34594Y148125D01*
X34599Y148067D01*
X34604Y148000D01*
X34609Y147927D01*
X34620Y147849D01*
X34651Y147683D01*
X34703Y147512D01*
X34729Y147434D01*
X34765Y147356D01*
X34806Y147284D01*
X34853Y147221D01*
X34858Y147216D01*
X34863Y147206D01*
X34879Y147190D01*
X34900Y147175D01*
X34931Y147149D01*
X34962Y147123D01*
X34999Y147092D01*
X35040Y147066D01*
X35144Y147003D01*
X35263Y146957D01*
X35331Y146936D01*
X35398Y146920D01*
X35476Y146910D01*
X35554Y146905D01*
X35585D01*
X35611Y146910D01*
X35642D01*
X35673Y146915D01*
X35756Y146931D01*
X35844Y146957D01*
X35943Y146993D01*
X36037Y147045D01*
X36130Y147112D01*
X36135Y147118D01*
X36140Y147123D01*
X36166Y147154D01*
X36208Y147206D01*
X36228Y147237D01*
X36255Y147273D01*
X36280Y147320D01*
X36306Y147367D01*
X36327Y147419D01*
X36353Y147481D01*
X36374Y147543D01*
X36395Y147616D01*
X36410Y147688D01*
X36426Y147772D01*
X37002Y147694D01*
Y147688D01*
X36997Y147668D01*
X36991Y147637D01*
X36981Y147595D01*
X36966Y147543D01*
X36950Y147486D01*
X36929Y147424D01*
X36903Y147351D01*
X36841Y147206D01*
X36799Y147128D01*
X36753Y147050D01*
X36706Y146972D01*
X36649Y146894D01*
X36581Y146827D01*
X36514Y146759D01*
X36509Y146754D01*
X36498Y146744D01*
X36472Y146728D01*
X36446Y146708D01*
X36405Y146682D01*
X36364Y146651D01*
X36306Y146625D01*
X36249Y146593D01*
X36182Y146557D01*
X36109Y146531D01*
X36031Y146500D01*
X35948Y146474D01*
X35855Y146453D01*
X35761Y146438D01*
X35663Y146427D01*
X35559Y146422D01*
X35528D01*
X35491Y146427D01*
X35440D01*
X35383Y146438D01*
X35310Y146448D01*
X35232Y146458D01*
X35149Y146479D01*
X35061Y146505D01*
X34967Y146536D01*
X34874Y146573D01*
X34775Y146619D01*
X34682Y146671D01*
X34589Y146733D01*
X34500Y146801D01*
X34417Y146884D01*
X34412Y146889D01*
X34396Y146905D01*
X34376Y146931D01*
X34350Y146972D01*
X34319Y147019D01*
X34282Y147076D01*
X34241Y147149D01*
X34204Y147227D01*
X34163Y147315D01*
X34121Y147413D01*
X34085Y147522D01*
X34054Y147642D01*
X34028Y147772D01*
X34007Y147912D01*
X33992Y148062D01*
X33986Y148218D01*
Y148223D01*
Y148244D01*
Y148275D01*
X33992Y148311D01*
Y148363D01*
X33997Y148420D01*
X34002Y148483D01*
X34007Y148555D01*
X34033Y148706D01*
X34064Y148872D01*
X34106Y149043D01*
X34168Y149204D01*
Y149209D01*
X34179Y149225D01*
X34189Y149246D01*
X34204Y149272D01*
X34225Y149308D01*
X34246Y149349D01*
X34308Y149443D01*
X34386Y149541D01*
X34485Y149650D01*
X34599Y149749D01*
X34734Y149837D01*
X34739D01*
X34749Y149848D01*
X34770Y149858D01*
X34801Y149868D01*
X34838Y149889D01*
X34879Y149905D01*
X34926Y149925D01*
X34978Y149946D01*
X35040Y149962D01*
X35102Y149983D01*
X35242Y150019D01*
X35398Y150040D01*
X35559Y150050D01*
X35616D01*
X35652Y150045D01*
D02*
G37*
G36*
X52053Y146443D02*
Y146438D01*
X52042Y146417D01*
X52032Y146391D01*
X52017Y146350D01*
X52001Y146303D01*
X51980Y146251D01*
X51954Y146194D01*
X51933Y146132D01*
X51876Y146002D01*
X51824Y145872D01*
X51793Y145810D01*
X51767Y145753D01*
X51747Y145701D01*
X51721Y145659D01*
Y145654D01*
X51715Y145649D01*
X51705Y145633D01*
X51695Y145613D01*
X51658Y145561D01*
X51617Y145498D01*
X51565Y145426D01*
X51503Y145358D01*
X51435Y145291D01*
X51363Y145234D01*
X51352Y145228D01*
X51326Y145213D01*
X51285Y145187D01*
X51228Y145166D01*
X51155Y145140D01*
X51072Y145114D01*
X50984Y145099D01*
X50880Y145094D01*
X50849D01*
X50812Y145099D01*
X50771Y145104D01*
X50714Y145109D01*
X50646Y145125D01*
X50579Y145140D01*
X50501Y145166D01*
X50433Y145716D01*
X50444D01*
X50465Y145706D01*
X50501Y145701D01*
X50548Y145690D01*
X50600Y145680D01*
X50657Y145670D01*
X50714Y145664D01*
X50766Y145659D01*
X50797D01*
X50833Y145664D01*
X50880Y145670D01*
X50927Y145675D01*
X50978Y145690D01*
X51030Y145706D01*
X51077Y145727D01*
X51082Y145732D01*
X51098Y145737D01*
X51119Y145753D01*
X51145Y145773D01*
X51176Y145799D01*
X51212Y145831D01*
X51274Y145908D01*
X51279Y145914D01*
X51285Y145929D01*
X51300Y145955D01*
X51316Y145997D01*
X51342Y146054D01*
X51373Y146132D01*
X51389Y146178D01*
X51409Y146230D01*
X51430Y146287D01*
X51451Y146350D01*
X51456Y146360D01*
X51466Y146386D01*
X51482Y146432D01*
X51508Y146495D01*
X50195Y149972D01*
X50818D01*
X51539Y147958D01*
Y147953D01*
X51544Y147943D01*
X51555Y147922D01*
X51565Y147891D01*
X51575Y147855D01*
X51591Y147813D01*
X51607Y147766D01*
X51627Y147714D01*
X51664Y147595D01*
X51710Y147455D01*
X51752Y147310D01*
X51793Y147154D01*
Y147159D01*
X51798Y147175D01*
X51804Y147195D01*
X51814Y147221D01*
X51819Y147258D01*
X51835Y147304D01*
X51845Y147351D01*
X51861Y147403D01*
X51897Y147522D01*
X51939Y147657D01*
X51985Y147798D01*
X52037Y147943D01*
X52785Y149972D01*
X53371D01*
X52053Y146443D01*
D02*
G37*
G36*
X60393Y146500D02*
X59869D01*
Y147009D01*
X59864Y147003D01*
X59848Y146983D01*
X59827Y146957D01*
X59796Y146915D01*
X59755Y146874D01*
X59703Y146822D01*
X59646Y146770D01*
X59578Y146718D01*
X59500Y146661D01*
X59417Y146609D01*
X59329Y146557D01*
X59231Y146516D01*
X59122Y146474D01*
X59013Y146448D01*
X58893Y146427D01*
X58763Y146422D01*
X58712D01*
X58654Y146427D01*
X58577Y146438D01*
X58488Y146448D01*
X58390Y146469D01*
X58291Y146500D01*
X58187Y146536D01*
X58182D01*
X58177Y146542D01*
X58146Y146557D01*
X58099Y146583D01*
X58037Y146619D01*
X57975Y146661D01*
X57907Y146713D01*
X57845Y146770D01*
X57793Y146832D01*
X57788Y146843D01*
X57772Y146863D01*
X57751Y146905D01*
X57726Y146957D01*
X57694Y147019D01*
X57663Y147092D01*
X57637Y147175D01*
X57611Y147268D01*
Y147278D01*
X57606Y147299D01*
X57601Y147346D01*
X57596Y147403D01*
X57591Y147481D01*
X57585Y147574D01*
X57580Y147688D01*
Y147818D01*
Y149972D01*
X58167D01*
Y148047D01*
Y148041D01*
Y148026D01*
Y148005D01*
Y147974D01*
Y147932D01*
Y147891D01*
X58172Y147798D01*
Y147694D01*
X58182Y147590D01*
X58187Y147496D01*
X58193Y147455D01*
X58198Y147424D01*
X58203Y147413D01*
X58208Y147388D01*
X58224Y147341D01*
X58250Y147289D01*
X58281Y147232D01*
X58322Y147175D01*
X58374Y147112D01*
X58437Y147061D01*
X58447Y147055D01*
X58468Y147040D01*
X58509Y147019D01*
X58561Y146998D01*
X58623Y146972D01*
X58701Y146951D01*
X58789Y146936D01*
X58883Y146931D01*
X58930D01*
X58976Y146936D01*
X59044Y146946D01*
X59122Y146962D01*
X59205Y146988D01*
X59288Y147019D01*
X59376Y147066D01*
X59381D01*
X59386Y147071D01*
X59412Y147092D01*
X59454Y147123D01*
X59506Y147164D01*
X59558Y147216D01*
X59615Y147278D01*
X59667Y147351D01*
X59708Y147434D01*
Y147439D01*
X59713Y147445D01*
X59718Y147460D01*
X59724Y147476D01*
X59729Y147502D01*
X59739Y147533D01*
X59750Y147564D01*
X59760Y147606D01*
X59776Y147704D01*
X59791Y147818D01*
X59802Y147953D01*
X59807Y148109D01*
Y149972D01*
X60393D01*
Y146500D01*
D02*
G37*
G36*
X11296D02*
X10772D01*
Y147009D01*
X10766Y147003D01*
X10751Y146983D01*
X10730Y146957D01*
X10699Y146915D01*
X10657Y146874D01*
X10605Y146822D01*
X10548Y146770D01*
X10481Y146718D01*
X10403Y146661D01*
X10320Y146609D01*
X10232Y146557D01*
X10133Y146516D01*
X10024Y146474D01*
X9915Y146448D01*
X9796Y146427D01*
X9666Y146422D01*
X9614D01*
X9557Y146427D01*
X9479Y146438D01*
X9391Y146448D01*
X9292Y146469D01*
X9194Y146500D01*
X9090Y146536D01*
X9085D01*
X9080Y146542D01*
X9048Y146557D01*
X9002Y146583D01*
X8940Y146619D01*
X8877Y146661D01*
X8810Y146713D01*
X8748Y146770D01*
X8696Y146832D01*
X8690Y146843D01*
X8675Y146863D01*
X8654Y146905D01*
X8628Y146957D01*
X8597Y147019D01*
X8566Y147092D01*
X8540Y147175D01*
X8514Y147268D01*
Y147278D01*
X8509Y147299D01*
X8504Y147346D01*
X8498Y147403D01*
X8493Y147481D01*
X8488Y147574D01*
X8483Y147688D01*
Y147818D01*
Y149972D01*
X9069D01*
Y148047D01*
Y148041D01*
Y148026D01*
Y148005D01*
Y147974D01*
Y147932D01*
Y147891D01*
X9074Y147798D01*
Y147694D01*
X9085Y147590D01*
X9090Y147496D01*
X9095Y147455D01*
X9100Y147424D01*
X9106Y147413D01*
X9111Y147388D01*
X9126Y147341D01*
X9152Y147289D01*
X9183Y147232D01*
X9225Y147175D01*
X9277Y147112D01*
X9339Y147061D01*
X9349Y147055D01*
X9370Y147040D01*
X9412Y147019D01*
X9464Y146998D01*
X9526Y146972D01*
X9604Y146951D01*
X9692Y146936D01*
X9786Y146931D01*
X9832D01*
X9879Y146936D01*
X9946Y146946D01*
X10024Y146962D01*
X10107Y146988D01*
X10190Y147019D01*
X10278Y147066D01*
X10284D01*
X10289Y147071D01*
X10315Y147092D01*
X10356Y147123D01*
X10408Y147164D01*
X10460Y147216D01*
X10517Y147278D01*
X10569Y147351D01*
X10611Y147434D01*
Y147439D01*
X10616Y147445D01*
X10621Y147460D01*
X10626Y147476D01*
X10631Y147502D01*
X10642Y147533D01*
X10652Y147564D01*
X10663Y147606D01*
X10678Y147704D01*
X10694Y147818D01*
X10704Y147953D01*
X10709Y148109D01*
Y149972D01*
X11296D01*
Y146500D01*
D02*
G37*
G36*
X48384Y150045D02*
X48430D01*
X48529Y150034D01*
X48643Y150024D01*
X48762Y150003D01*
X48882Y149977D01*
X48991Y149941D01*
X48996D01*
X49001Y149936D01*
X49017Y149931D01*
X49037Y149920D01*
X49084Y149899D01*
X49146Y149868D01*
X49214Y149832D01*
X49281Y149785D01*
X49344Y149733D01*
X49401Y149676D01*
X49406Y149671D01*
X49422Y149650D01*
X49447Y149614D01*
X49473Y149567D01*
X49505Y149510D01*
X49536Y149443D01*
X49567Y149365D01*
X49588Y149277D01*
Y149272D01*
X49593Y149246D01*
X49598Y149209D01*
X49603Y149152D01*
X49608Y149079D01*
X49613Y148986D01*
Y148929D01*
X49619Y148872D01*
Y148810D01*
Y148737D01*
Y147953D01*
Y147943D01*
Y147917D01*
Y147875D01*
Y147824D01*
Y147756D01*
Y147683D01*
X49624Y147600D01*
Y147517D01*
X49629Y147341D01*
Y147253D01*
X49634Y147169D01*
X49639Y147092D01*
X49645Y147024D01*
X49650Y146962D01*
X49655Y146915D01*
Y146905D01*
X49660Y146879D01*
X49671Y146837D01*
X49686Y146780D01*
X49707Y146718D01*
X49733Y146651D01*
X49764Y146573D01*
X49800Y146500D01*
X49188D01*
X49183Y146510D01*
X49172Y146531D01*
X49157Y146573D01*
X49141Y146625D01*
X49121Y146687D01*
X49100Y146759D01*
X49084Y146843D01*
X49074Y146936D01*
X49069Y146931D01*
X49058Y146926D01*
X49043Y146910D01*
X49017Y146889D01*
X48985Y146869D01*
X48954Y146837D01*
X48871Y146780D01*
X48773Y146713D01*
X48669Y146645D01*
X48555Y146588D01*
X48441Y146536D01*
X48435D01*
X48425Y146531D01*
X48409Y146526D01*
X48389Y146521D01*
X48363Y146510D01*
X48326Y146500D01*
X48249Y146479D01*
X48150Y146458D01*
X48041Y146438D01*
X47922Y146427D01*
X47792Y146422D01*
X47735D01*
X47698Y146427D01*
X47652Y146432D01*
X47595Y146438D01*
X47532Y146443D01*
X47470Y146458D01*
X47325Y146490D01*
X47179Y146536D01*
X47112Y146567D01*
X47039Y146609D01*
X46977Y146651D01*
X46915Y146697D01*
X46909Y146702D01*
X46899Y146713D01*
X46889Y146728D01*
X46868Y146749D01*
X46842Y146775D01*
X46816Y146811D01*
X46790Y146848D01*
X46764Y146894D01*
X46707Y146993D01*
X46655Y147118D01*
X46635Y147185D01*
X46624Y147258D01*
X46614Y147336D01*
X46608Y147413D01*
Y147419D01*
Y147424D01*
Y147455D01*
X46614Y147507D01*
X46624Y147569D01*
X46635Y147642D01*
X46655Y147720D01*
X46686Y147798D01*
X46723Y147880D01*
X46728Y147891D01*
X46744Y147917D01*
X46769Y147953D01*
X46806Y148005D01*
X46847Y148057D01*
X46899Y148114D01*
X46956Y148166D01*
X47024Y148218D01*
X47034Y148223D01*
X47060Y148239D01*
X47096Y148265D01*
X47148Y148291D01*
X47211Y148322D01*
X47283Y148353D01*
X47366Y148384D01*
X47449Y148410D01*
X47460D01*
X47480Y148420D01*
X47522Y148425D01*
X47579Y148441D01*
X47652Y148451D01*
X47745Y148467D01*
X47849Y148483D01*
X47973Y148498D01*
X47984D01*
X48005Y148503D01*
X48041Y148509D01*
X48088Y148514D01*
X48150Y148524D01*
X48217Y148535D01*
X48290Y148545D01*
X48373Y148555D01*
X48544Y148586D01*
X48716Y148623D01*
X48799Y148644D01*
X48882Y148664D01*
X48954Y148685D01*
X49022Y148706D01*
Y148711D01*
Y148726D01*
Y148747D01*
X49027Y148768D01*
Y148820D01*
Y148841D01*
Y148856D01*
Y148861D01*
Y148872D01*
Y148893D01*
Y148913D01*
X49017Y148976D01*
X49006Y149054D01*
X48985Y149136D01*
X48954Y149220D01*
X48913Y149297D01*
X48856Y149360D01*
X48845Y149370D01*
X48835Y149380D01*
X48814Y149391D01*
X48788Y149406D01*
X48762Y149422D01*
X48690Y149463D01*
X48596Y149500D01*
X48482Y149531D01*
X48347Y149552D01*
X48191Y149562D01*
X48124D01*
X48088Y149557D01*
X48051D01*
X47958Y149547D01*
X47859Y149526D01*
X47761Y149500D01*
X47662Y149463D01*
X47579Y149417D01*
X47569Y149412D01*
X47548Y149391D01*
X47512Y149349D01*
X47470Y149297D01*
X47423Y149230D01*
X47371Y149136D01*
X47330Y149033D01*
X47309Y148970D01*
X47288Y148903D01*
X46712Y148981D01*
Y148986D01*
X46718Y148996D01*
X46723Y149017D01*
X46728Y149043D01*
X46738Y149074D01*
X46749Y149111D01*
X46775Y149194D01*
X46811Y149287D01*
X46852Y149386D01*
X46904Y149484D01*
X46967Y149573D01*
Y149578D01*
X46977Y149583D01*
X47003Y149609D01*
X47045Y149650D01*
X47102Y149702D01*
X47174Y149759D01*
X47262Y149816D01*
X47366Y149873D01*
X47486Y149925D01*
X47491D01*
X47501Y149931D01*
X47522Y149936D01*
X47548Y149946D01*
X47579Y149957D01*
X47615Y149967D01*
X47662Y149977D01*
X47714Y149988D01*
X47766Y149998D01*
X47828Y150008D01*
X47963Y150029D01*
X48114Y150045D01*
X48274Y150050D01*
X48347D01*
X48384Y150045D01*
D02*
G37*
G36*
X43764Y147066D02*
X46126D01*
Y146500D01*
X43131D01*
Y151290D01*
X43764D01*
Y147066D01*
D02*
G37*
G36*
X38092Y149567D02*
X38097Y149573D01*
X38113Y149588D01*
X38133Y149614D01*
X38164Y149645D01*
X38206Y149681D01*
X38253Y149718D01*
X38310Y149765D01*
X38377Y149811D01*
X38445Y149853D01*
X38522Y149899D01*
X38611Y149936D01*
X38699Y149977D01*
X38798Y150003D01*
X38901Y150029D01*
X39010Y150045D01*
X39125Y150050D01*
X39187D01*
X39223Y150045D01*
X39259Y150040D01*
X39353Y150029D01*
X39457Y150014D01*
X39566Y149983D01*
X39680Y149946D01*
X39789Y149894D01*
X39794D01*
X39799Y149889D01*
X39815Y149879D01*
X39836Y149868D01*
X39887Y149832D01*
X39950Y149785D01*
X40012Y149728D01*
X40085Y149655D01*
X40147Y149567D01*
X40199Y149474D01*
Y149469D01*
X40204Y149463D01*
X40209Y149448D01*
X40220Y149427D01*
X40230Y149396D01*
X40240Y149365D01*
X40251Y149323D01*
X40261Y149277D01*
X40271Y149225D01*
X40282Y149168D01*
X40292Y149105D01*
X40303Y149033D01*
X40313Y148960D01*
X40318Y148877D01*
X40323Y148789D01*
Y148695D01*
Y146500D01*
X39737D01*
Y148695D01*
Y148701D01*
Y148716D01*
Y148737D01*
X39732Y148768D01*
Y148804D01*
X39727Y148846D01*
X39711Y148939D01*
X39690Y149048D01*
X39654Y149152D01*
X39607Y149256D01*
X39581Y149297D01*
X39545Y149339D01*
X39535Y149349D01*
X39509Y149370D01*
X39467Y149401D01*
X39405Y149443D01*
X39327Y149479D01*
X39239Y149510D01*
X39130Y149531D01*
X39005Y149541D01*
X38964D01*
X38912Y149536D01*
X38844Y149526D01*
X38772Y149505D01*
X38689Y149484D01*
X38600Y149448D01*
X38512Y149401D01*
X38502Y149396D01*
X38476Y149375D01*
X38434Y149344D01*
X38388Y149303D01*
X38331Y149251D01*
X38279Y149188D01*
X38227Y149116D01*
X38185Y149033D01*
X38180Y149022D01*
X38175Y149007D01*
X38170Y148991D01*
X38154Y148939D01*
X38138Y148867D01*
X38123Y148778D01*
X38107Y148669D01*
X38097Y148540D01*
X38092Y148394D01*
Y146500D01*
X37505D01*
Y151290D01*
X38092D01*
Y149567D01*
D02*
G37*
G36*
X30156Y150045D02*
X30203D01*
X30301Y150034D01*
X30416Y150024D01*
X30535Y150003D01*
X30654Y149977D01*
X30763Y149941D01*
X30769D01*
X30774Y149936D01*
X30789Y149931D01*
X30810Y149920D01*
X30857Y149899D01*
X30919Y149868D01*
X30987Y149832D01*
X31054Y149785D01*
X31116Y149733D01*
X31174Y149676D01*
X31179Y149671D01*
X31194Y149650D01*
X31220Y149614D01*
X31246Y149567D01*
X31277Y149510D01*
X31308Y149443D01*
X31339Y149365D01*
X31360Y149277D01*
Y149272D01*
X31365Y149246D01*
X31371Y149209D01*
X31376Y149152D01*
X31381Y149079D01*
X31386Y148986D01*
Y148929D01*
X31391Y148872D01*
Y148810D01*
Y148737D01*
Y147953D01*
Y147943D01*
Y147917D01*
Y147875D01*
Y147824D01*
Y147756D01*
Y147683D01*
X31397Y147600D01*
Y147517D01*
X31402Y147341D01*
Y147253D01*
X31407Y147169D01*
X31412Y147092D01*
X31417Y147024D01*
X31423Y146962D01*
X31428Y146915D01*
Y146905D01*
X31433Y146879D01*
X31443Y146837D01*
X31459Y146780D01*
X31480Y146718D01*
X31506Y146651D01*
X31537Y146573D01*
X31573Y146500D01*
X30961D01*
X30955Y146510D01*
X30945Y146531D01*
X30929Y146573D01*
X30914Y146625D01*
X30893Y146687D01*
X30872Y146759D01*
X30857Y146843D01*
X30847Y146936D01*
X30841Y146931D01*
X30831Y146926D01*
X30815Y146910D01*
X30789Y146889D01*
X30758Y146869D01*
X30727Y146837D01*
X30644Y146780D01*
X30545Y146713D01*
X30442Y146645D01*
X30327Y146588D01*
X30213Y146536D01*
X30208D01*
X30198Y146531D01*
X30182Y146526D01*
X30161Y146521D01*
X30135Y146510D01*
X30099Y146500D01*
X30021Y146479D01*
X29923Y146458D01*
X29814Y146438D01*
X29694Y146427D01*
X29565Y146422D01*
X29507D01*
X29471Y146427D01*
X29424Y146432D01*
X29367Y146438D01*
X29305Y146443D01*
X29243Y146458D01*
X29097Y146490D01*
X28952Y146536D01*
X28885Y146567D01*
X28812Y146609D01*
X28750Y146651D01*
X28687Y146697D01*
X28682Y146702D01*
X28672Y146713D01*
X28662Y146728D01*
X28641Y146749D01*
X28615Y146775D01*
X28589Y146811D01*
X28563Y146848D01*
X28537Y146894D01*
X28480Y146993D01*
X28428Y147118D01*
X28407Y147185D01*
X28397Y147258D01*
X28386Y147336D01*
X28381Y147413D01*
Y147419D01*
Y147424D01*
Y147455D01*
X28386Y147507D01*
X28397Y147569D01*
X28407Y147642D01*
X28428Y147720D01*
X28459Y147798D01*
X28495Y147880D01*
X28501Y147891D01*
X28516Y147917D01*
X28542Y147953D01*
X28578Y148005D01*
X28620Y148057D01*
X28672Y148114D01*
X28729Y148166D01*
X28796Y148218D01*
X28807Y148223D01*
X28833Y148239D01*
X28869Y148265D01*
X28921Y148291D01*
X28983Y148322D01*
X29056Y148353D01*
X29139Y148384D01*
X29222Y148410D01*
X29232D01*
X29253Y148420D01*
X29295Y148425D01*
X29352Y148441D01*
X29424Y148451D01*
X29518Y148467D01*
X29622Y148483D01*
X29746Y148498D01*
X29757D01*
X29777Y148503D01*
X29814Y148509D01*
X29860Y148514D01*
X29923Y148524D01*
X29990Y148535D01*
X30063Y148545D01*
X30146Y148555D01*
X30317Y148586D01*
X30488Y148623D01*
X30571Y148644D01*
X30654Y148664D01*
X30727Y148685D01*
X30795Y148706D01*
Y148711D01*
Y148726D01*
Y148747D01*
X30800Y148768D01*
Y148820D01*
Y148841D01*
Y148856D01*
Y148861D01*
Y148872D01*
Y148893D01*
Y148913D01*
X30789Y148976D01*
X30779Y149054D01*
X30758Y149136D01*
X30727Y149220D01*
X30686Y149297D01*
X30628Y149360D01*
X30618Y149370D01*
X30608Y149380D01*
X30587Y149391D01*
X30561Y149406D01*
X30535Y149422D01*
X30462Y149463D01*
X30369Y149500D01*
X30255Y149531D01*
X30120Y149552D01*
X29964Y149562D01*
X29897D01*
X29860Y149557D01*
X29824D01*
X29731Y149547D01*
X29632Y149526D01*
X29533Y149500D01*
X29435Y149463D01*
X29352Y149417D01*
X29341Y149412D01*
X29321Y149391D01*
X29284Y149349D01*
X29243Y149297D01*
X29196Y149230D01*
X29144Y149136D01*
X29103Y149033D01*
X29082Y148970D01*
X29061Y148903D01*
X28485Y148981D01*
Y148986D01*
X28490Y148996D01*
X28495Y149017D01*
X28501Y149043D01*
X28511Y149074D01*
X28521Y149111D01*
X28547Y149194D01*
X28584Y149287D01*
X28625Y149386D01*
X28677Y149484D01*
X28739Y149573D01*
Y149578D01*
X28750Y149583D01*
X28776Y149609D01*
X28817Y149650D01*
X28874Y149702D01*
X28947Y149759D01*
X29035Y149816D01*
X29139Y149873D01*
X29258Y149925D01*
X29263D01*
X29274Y149931D01*
X29295Y149936D01*
X29321Y149946D01*
X29352Y149957D01*
X29388Y149967D01*
X29435Y149977D01*
X29487Y149988D01*
X29539Y149998D01*
X29601Y150008D01*
X29736Y150029D01*
X29886Y150045D01*
X30047Y150050D01*
X30120D01*
X30156Y150045D01*
D02*
G37*
G36*
X62002Y149972D02*
X62599D01*
Y149515D01*
X62002D01*
Y147481D01*
Y147476D01*
Y147470D01*
Y147439D01*
Y147398D01*
X62007Y147346D01*
Y147294D01*
X62018Y147242D01*
X62023Y147195D01*
X62033Y147159D01*
Y147154D01*
X62038Y147149D01*
X62059Y147118D01*
X62090Y147081D01*
X62132Y147045D01*
X62137D01*
X62147Y147040D01*
X62163Y147035D01*
X62184Y147024D01*
X62215Y147019D01*
X62246Y147009D01*
X62287Y147003D01*
X62376D01*
X62407Y147009D01*
X62443D01*
X62490Y147014D01*
X62542Y147019D01*
X62599Y147024D01*
X62677Y146505D01*
X62666D01*
X62635Y146495D01*
X62589Y146490D01*
X62526Y146479D01*
X62459Y146469D01*
X62386Y146464D01*
X62230Y146453D01*
X62178D01*
X62121Y146458D01*
X62049Y146464D01*
X61966Y146479D01*
X61883Y146495D01*
X61805Y146521D01*
X61732Y146552D01*
X61727Y146557D01*
X61706Y146573D01*
X61675Y146593D01*
X61634Y146625D01*
X61592Y146661D01*
X61550Y146708D01*
X61514Y146759D01*
X61483Y146817D01*
X61478Y146827D01*
X61473Y146853D01*
X61467Y146874D01*
X61462Y146900D01*
X61457Y146931D01*
X61452Y146967D01*
X61441Y147009D01*
X61436Y147061D01*
X61431Y147118D01*
X61426Y147180D01*
X61421Y147253D01*
Y147330D01*
X61416Y147419D01*
Y147512D01*
Y149515D01*
X60980D01*
Y149972D01*
X61416D01*
Y150829D01*
X62002Y151181D01*
Y149972D01*
D02*
G37*
G36*
X32985D02*
X33582D01*
Y149515D01*
X32985D01*
Y147481D01*
Y147476D01*
Y147470D01*
Y147439D01*
Y147398D01*
X32990Y147346D01*
Y147294D01*
X33000Y147242D01*
X33005Y147195D01*
X33016Y147159D01*
Y147154D01*
X33021Y147149D01*
X33042Y147118D01*
X33073Y147081D01*
X33114Y147045D01*
X33120D01*
X33130Y147040D01*
X33146Y147035D01*
X33166Y147024D01*
X33198Y147019D01*
X33229Y147009D01*
X33270Y147003D01*
X33358D01*
X33390Y147009D01*
X33426D01*
X33473Y147014D01*
X33525Y147019D01*
X33582Y147024D01*
X33659Y146505D01*
X33649D01*
X33618Y146495D01*
X33571Y146490D01*
X33509Y146479D01*
X33441Y146469D01*
X33369Y146464D01*
X33213Y146453D01*
X33161D01*
X33104Y146458D01*
X33031Y146464D01*
X32948Y146479D01*
X32865Y146495D01*
X32787Y146521D01*
X32715Y146552D01*
X32710Y146557D01*
X32689Y146573D01*
X32658Y146593D01*
X32616Y146625D01*
X32575Y146661D01*
X32533Y146708D01*
X32497Y146759D01*
X32466Y146817D01*
X32461Y146827D01*
X32455Y146853D01*
X32450Y146874D01*
X32445Y146900D01*
X32440Y146931D01*
X32435Y146967D01*
X32424Y147009D01*
X32419Y147061D01*
X32414Y147118D01*
X32409Y147180D01*
X32403Y147253D01*
Y147330D01*
X32398Y147419D01*
Y147512D01*
Y149515D01*
X31962D01*
Y149972D01*
X32398D01*
Y150829D01*
X32985Y151181D01*
Y149972D01*
D02*
G37*
G36*
X55348Y150045D02*
X55400D01*
X55463Y150034D01*
X55530Y150024D01*
X55608Y150008D01*
X55696Y149993D01*
X55784Y149967D01*
X55883Y149936D01*
X55976Y149894D01*
X56075Y149853D01*
X56174Y149796D01*
X56267Y149733D01*
X56361Y149661D01*
X56449Y149578D01*
X56454Y149573D01*
X56470Y149557D01*
X56490Y149531D01*
X56521Y149489D01*
X56552Y149443D01*
X56594Y149386D01*
X56636Y149318D01*
X56677Y149240D01*
X56719Y149152D01*
X56760Y149054D01*
X56802Y148950D01*
X56833Y148836D01*
X56864Y148711D01*
X56885Y148576D01*
X56900Y148431D01*
X56906Y148280D01*
Y148275D01*
Y148249D01*
Y148218D01*
X56900Y148171D01*
Y148114D01*
X56895Y148047D01*
X56890Y147974D01*
X56880Y147896D01*
X56859Y147730D01*
X56822Y147554D01*
X56770Y147382D01*
X56739Y147304D01*
X56703Y147227D01*
Y147221D01*
X56693Y147211D01*
X56682Y147190D01*
X56667Y147164D01*
X56646Y147133D01*
X56620Y147092D01*
X56552Y147009D01*
X56470Y146910D01*
X56371Y146811D01*
X56252Y146718D01*
X56117Y146630D01*
X56111D01*
X56101Y146619D01*
X56080Y146609D01*
X56049Y146599D01*
X56013Y146583D01*
X55971Y146562D01*
X55925Y146547D01*
X55867Y146526D01*
X55810Y146505D01*
X55743Y146490D01*
X55603Y146453D01*
X55447Y146432D01*
X55281Y146422D01*
X55250D01*
X55213Y146427D01*
X55162D01*
X55099Y146438D01*
X55027Y146448D01*
X54949Y146464D01*
X54861Y146479D01*
X54767Y146505D01*
X54674Y146536D01*
X54575Y146573D01*
X54476Y146619D01*
X54378Y146671D01*
X54285Y146733D01*
X54191Y146806D01*
X54103Y146889D01*
X54098Y146894D01*
X54082Y146910D01*
X54061Y146936D01*
X54035Y146977D01*
X53999Y147024D01*
X53963Y147081D01*
X53921Y147154D01*
X53880Y147232D01*
X53838Y147325D01*
X53797Y147424D01*
X53760Y147533D01*
X53724Y147652D01*
X53698Y147782D01*
X53677Y147922D01*
X53662Y148073D01*
X53657Y148233D01*
Y148239D01*
Y148244D01*
Y148275D01*
X53662Y148327D01*
X53667Y148389D01*
X53672Y148472D01*
X53683Y148566D01*
X53703Y148664D01*
X53724Y148773D01*
X53750Y148887D01*
X53786Y149007D01*
X53833Y149126D01*
X53880Y149246D01*
X53942Y149360D01*
X54015Y149469D01*
X54098Y149567D01*
X54191Y149661D01*
X54196Y149666D01*
X54212Y149676D01*
X54238Y149697D01*
X54269Y149723D01*
X54316Y149749D01*
X54368Y149785D01*
X54425Y149822D01*
X54497Y149858D01*
X54570Y149894D01*
X54653Y149925D01*
X54741Y149962D01*
X54840Y149988D01*
X54944Y150014D01*
X55048Y150034D01*
X55162Y150045D01*
X55281Y150050D01*
X55312D01*
X55348Y150045D01*
D02*
G37*
G36*
X12801Y149583D02*
X12806Y149588D01*
X12816Y149604D01*
X12837Y149624D01*
X12868Y149655D01*
X12905Y149692D01*
X12946Y149733D01*
X12998Y149775D01*
X13060Y149816D01*
X13123Y149858D01*
X13195Y149905D01*
X13273Y149941D01*
X13356Y149977D01*
X13450Y150008D01*
X13543Y150029D01*
X13647Y150045D01*
X13751Y150050D01*
X13808D01*
X13834Y150045D01*
X13870D01*
X13948Y150034D01*
X14041Y150019D01*
X14145Y149993D01*
X14249Y149962D01*
X14358Y149920D01*
X14363D01*
X14368Y149915D01*
X14384Y149905D01*
X14405Y149894D01*
X14457Y149868D01*
X14524Y149827D01*
X14597Y149775D01*
X14674Y149713D01*
X14752Y149640D01*
X14825Y149557D01*
X14835Y149547D01*
X14856Y149515D01*
X14887Y149463D01*
X14934Y149401D01*
X14981Y149318D01*
X15027Y149220D01*
X15074Y149111D01*
X15116Y148991D01*
Y148986D01*
X15121Y148976D01*
X15126Y148960D01*
X15131Y148934D01*
X15142Y148903D01*
X15152Y148867D01*
X15162Y148825D01*
X15173Y148778D01*
X15188Y148675D01*
X15209Y148555D01*
X15219Y148425D01*
X15225Y148285D01*
Y148275D01*
Y148244D01*
X15219Y148202D01*
Y148140D01*
X15209Y148062D01*
X15199Y147979D01*
X15188Y147880D01*
X15168Y147777D01*
X15147Y147668D01*
X15116Y147559D01*
X15079Y147439D01*
X15038Y147325D01*
X14986Y147211D01*
X14924Y147102D01*
X14856Y147003D01*
X14778Y146905D01*
X14773Y146900D01*
X14758Y146884D01*
X14731Y146858D01*
X14700Y146832D01*
X14659Y146791D01*
X14607Y146754D01*
X14545Y146708D01*
X14482Y146666D01*
X14405Y146619D01*
X14327Y146573D01*
X14239Y146536D01*
X14145Y146500D01*
X14046Y146469D01*
X13943Y146443D01*
X13834Y146427D01*
X13720Y146422D01*
X13693D01*
X13662Y146427D01*
X13621Y146432D01*
X13569Y146438D01*
X13507Y146448D01*
X13439Y146464D01*
X13372Y146484D01*
X13294Y146510D01*
X13216Y146547D01*
X13138Y146588D01*
X13055Y146635D01*
X12977Y146697D01*
X12900Y146765D01*
X12827Y146843D01*
X12759Y146931D01*
Y146500D01*
X12214D01*
Y151290D01*
X12801D01*
Y149583D01*
D02*
G37*
G36*
X66063Y13663D02*
X66141Y13658D01*
X66229Y13647D01*
X66323Y13637D01*
X66426Y13622D01*
X66535Y13601D01*
X66650Y13575D01*
X66764Y13549D01*
X66883Y13512D01*
X66997Y13466D01*
X67106Y13419D01*
X67210Y13362D01*
X67309Y13295D01*
X67314Y13289D01*
X67329Y13279D01*
X67355Y13258D01*
X67392Y13227D01*
X67428Y13186D01*
X67475Y13144D01*
X67527Y13087D01*
X67579Y13025D01*
X67636Y12957D01*
X67687Y12879D01*
X67745Y12791D01*
X67796Y12703D01*
X67843Y12604D01*
X67890Y12495D01*
X67926Y12381D01*
X67957Y12262D01*
X66997Y12080D01*
Y12085D01*
X66992Y12096D01*
X66987Y12116D01*
X66976Y12137D01*
X66966Y12168D01*
X66951Y12205D01*
X66909Y12282D01*
X66857Y12371D01*
X66790Y12464D01*
X66712Y12552D01*
X66613Y12635D01*
X66608D01*
X66603Y12646D01*
X66587Y12656D01*
X66561Y12666D01*
X66535Y12682D01*
X66504Y12703D01*
X66463Y12718D01*
X66421Y12739D01*
X66323Y12776D01*
X66203Y12812D01*
X66068Y12833D01*
X65918Y12843D01*
X65855D01*
X65814Y12838D01*
X65762Y12833D01*
X65700Y12822D01*
X65627Y12807D01*
X65554Y12791D01*
X65477Y12770D01*
X65394Y12744D01*
X65311Y12713D01*
X65228Y12672D01*
X65144Y12625D01*
X65061Y12573D01*
X64984Y12511D01*
X64911Y12438D01*
X64906Y12433D01*
X64895Y12417D01*
X64875Y12397D01*
X64854Y12360D01*
X64823Y12319D01*
X64792Y12267D01*
X64760Y12210D01*
X64724Y12137D01*
X64688Y12059D01*
X64657Y11971D01*
X64625Y11873D01*
X64594Y11763D01*
X64574Y11649D01*
X64553Y11525D01*
X64542Y11390D01*
X64537Y11244D01*
Y11234D01*
Y11208D01*
X64542Y11162D01*
Y11104D01*
X64548Y11032D01*
X64558Y10954D01*
X64568Y10860D01*
X64584Y10762D01*
X64605Y10663D01*
X64631Y10554D01*
X64662Y10450D01*
X64698Y10341D01*
X64740Y10238D01*
X64792Y10139D01*
X64849Y10046D01*
X64916Y9963D01*
X64921Y9957D01*
X64932Y9947D01*
X64958Y9921D01*
X64984Y9895D01*
X65025Y9864D01*
X65067Y9828D01*
X65124Y9791D01*
X65181Y9750D01*
X65248Y9708D01*
X65326Y9672D01*
X65404Y9636D01*
X65492Y9604D01*
X65591Y9578D01*
X65689Y9558D01*
X65793Y9542D01*
X65907Y9537D01*
X65959D01*
X65985Y9542D01*
X66022D01*
X66099Y9552D01*
X66193Y9568D01*
X66291Y9589D01*
X66400Y9615D01*
X66515Y9656D01*
X66520D01*
X66530Y9662D01*
X66546Y9667D01*
X66566Y9677D01*
X66624Y9703D01*
X66696Y9739D01*
X66779Y9781D01*
X66868Y9828D01*
X66956Y9879D01*
X67044Y9942D01*
Y10554D01*
X65939D01*
Y11364D01*
X68020D01*
Y9449D01*
X68015Y9444D01*
X68004Y9438D01*
X67989Y9423D01*
X67963Y9402D01*
X67931Y9376D01*
X67895Y9345D01*
X67848Y9314D01*
X67796Y9278D01*
X67734Y9236D01*
X67672Y9194D01*
X67599Y9153D01*
X67516Y9111D01*
X67433Y9065D01*
X67340Y9023D01*
X67241Y8976D01*
X67137Y8935D01*
X67132D01*
X67111Y8925D01*
X67080Y8914D01*
X67039Y8899D01*
X66987Y8883D01*
X66925Y8862D01*
X66852Y8847D01*
X66774Y8826D01*
X66691Y8805D01*
X66598Y8784D01*
X66504Y8764D01*
X66400Y8748D01*
X66188Y8722D01*
X66079Y8717D01*
X65970Y8712D01*
X65897D01*
X65845Y8717D01*
X65778Y8722D01*
X65700Y8727D01*
X65617Y8738D01*
X65523Y8753D01*
X65425Y8769D01*
X65321Y8790D01*
X65212Y8816D01*
X65098Y8841D01*
X64984Y8878D01*
X64875Y8919D01*
X64766Y8966D01*
X64657Y9023D01*
X64651Y9028D01*
X64631Y9039D01*
X64605Y9054D01*
X64563Y9080D01*
X64522Y9117D01*
X64464Y9153D01*
X64407Y9200D01*
X64345Y9257D01*
X64278Y9314D01*
X64210Y9381D01*
X64138Y9459D01*
X64070Y9537D01*
X64003Y9625D01*
X63935Y9719D01*
X63878Y9817D01*
X63821Y9926D01*
X63816Y9931D01*
X63811Y9952D01*
X63795Y9983D01*
X63779Y10030D01*
X63759Y10082D01*
X63733Y10149D01*
X63707Y10222D01*
X63681Y10305D01*
X63655Y10398D01*
X63629Y10497D01*
X63608Y10601D01*
X63582Y10710D01*
X63567Y10829D01*
X63551Y10949D01*
X63546Y11073D01*
X63541Y11203D01*
Y11213D01*
Y11234D01*
Y11276D01*
X63546Y11327D01*
X63551Y11395D01*
X63556Y11473D01*
X63567Y11556D01*
X63582Y11649D01*
X63598Y11748D01*
X63619Y11857D01*
X63644Y11966D01*
X63670Y12080D01*
X63707Y12194D01*
X63748Y12308D01*
X63795Y12423D01*
X63852Y12532D01*
X63857Y12537D01*
X63868Y12558D01*
X63883Y12589D01*
X63909Y12630D01*
X63946Y12677D01*
X63982Y12734D01*
X64029Y12796D01*
X64086Y12864D01*
X64143Y12936D01*
X64215Y13009D01*
X64288Y13082D01*
X64371Y13160D01*
X64459Y13232D01*
X64558Y13300D01*
X64662Y13367D01*
X64771Y13430D01*
X64776Y13435D01*
X64792Y13440D01*
X64818Y13450D01*
X64854Y13466D01*
X64900Y13487D01*
X64952Y13507D01*
X65015Y13528D01*
X65087Y13549D01*
X65165Y13570D01*
X65253Y13590D01*
X65347Y13611D01*
X65451Y13632D01*
X65560Y13647D01*
X65674Y13658D01*
X65793Y13668D01*
X66006D01*
X66063Y13663D01*
D02*
G37*
G36*
X53555Y13601D02*
X53602D01*
X53659Y13590D01*
X53726Y13585D01*
X53799Y13570D01*
X53877Y13554D01*
X53965Y13528D01*
X54053Y13502D01*
X54142Y13466D01*
X54230Y13424D01*
X54323Y13372D01*
X54412Y13315D01*
X54495Y13248D01*
X54572Y13170D01*
X54578Y13165D01*
X54588Y13154D01*
X54603Y13134D01*
X54624Y13108D01*
X54650Y13077D01*
X54681Y13035D01*
X54712Y12988D01*
X54744Y12936D01*
X54806Y12822D01*
X54863Y12687D01*
X54884Y12615D01*
X54899Y12537D01*
X54910Y12459D01*
X54915Y12376D01*
Y12371D01*
Y12350D01*
X54910Y12314D01*
X54905Y12272D01*
X54894Y12220D01*
X54879Y12158D01*
X54858Y12085D01*
X54827Y12013D01*
X54790Y11935D01*
X54749Y11852D01*
X54692Y11769D01*
X54624Y11686D01*
X54546Y11603D01*
X54453Y11520D01*
X54344Y11442D01*
X54225Y11369D01*
X54230D01*
X54245Y11364D01*
X54266Y11359D01*
X54292Y11348D01*
X54329Y11338D01*
X54370Y11322D01*
X54458Y11286D01*
X54567Y11234D01*
X54676Y11162D01*
X54780Y11078D01*
X54832Y11027D01*
X54879Y10969D01*
X54884Y10964D01*
X54889Y10954D01*
X54899Y10938D01*
X54920Y10917D01*
X54936Y10886D01*
X54957Y10850D01*
X54982Y10808D01*
X55003Y10762D01*
X55050Y10653D01*
X55091Y10528D01*
X55117Y10383D01*
X55123Y10305D01*
X55128Y10227D01*
Y10222D01*
Y10201D01*
X55123Y10165D01*
Y10123D01*
X55112Y10066D01*
X55102Y10004D01*
X55091Y9937D01*
X55071Y9859D01*
X55045Y9776D01*
X55014Y9687D01*
X54977Y9599D01*
X54931Y9511D01*
X54879Y9418D01*
X54816Y9329D01*
X54749Y9241D01*
X54666Y9153D01*
X54661Y9148D01*
X54645Y9132D01*
X54619Y9111D01*
X54583Y9086D01*
X54536Y9049D01*
X54484Y9013D01*
X54422Y8971D01*
X54349Y8935D01*
X54271Y8893D01*
X54183Y8852D01*
X54085Y8816D01*
X53986Y8779D01*
X53877Y8753D01*
X53763Y8732D01*
X53638Y8717D01*
X53514Y8712D01*
X53483D01*
X53451Y8717D01*
X53405D01*
X53353Y8722D01*
X53285Y8732D01*
X53213Y8743D01*
X53135Y8759D01*
X53052Y8779D01*
X52964Y8805D01*
X52875Y8831D01*
X52787Y8867D01*
X52694Y8914D01*
X52605Y8961D01*
X52517Y9018D01*
X52434Y9086D01*
X52429Y9091D01*
X52413Y9101D01*
X52393Y9122D01*
X52367Y9153D01*
X52336Y9189D01*
X52294Y9236D01*
X52258Y9288D01*
X52211Y9350D01*
X52169Y9418D01*
X52128Y9490D01*
X52086Y9568D01*
X52045Y9656D01*
X52014Y9750D01*
X51983Y9848D01*
X51957Y9957D01*
X51941Y10066D01*
X52829Y10175D01*
Y10170D01*
Y10160D01*
X52834Y10144D01*
X52839Y10118D01*
X52849Y10056D01*
X52875Y9983D01*
X52901Y9895D01*
X52943Y9812D01*
X52995Y9724D01*
X53057Y9651D01*
X53067Y9646D01*
X53088Y9625D01*
X53130Y9594D01*
X53181Y9563D01*
X53249Y9532D01*
X53327Y9501D01*
X53415Y9480D01*
X53509Y9475D01*
X53534D01*
X53555Y9480D01*
X53607Y9485D01*
X53675Y9501D01*
X53752Y9527D01*
X53830Y9563D01*
X53913Y9615D01*
X53991Y9687D01*
X54001Y9698D01*
X54022Y9729D01*
X54053Y9776D01*
X54090Y9843D01*
X54126Y9926D01*
X54157Y10025D01*
X54178Y10139D01*
X54188Y10269D01*
Y10274D01*
Y10284D01*
Y10300D01*
X54183Y10326D01*
Y10357D01*
X54178Y10388D01*
X54168Y10466D01*
X54142Y10554D01*
X54110Y10648D01*
X54064Y10736D01*
X54001Y10819D01*
X53991Y10829D01*
X53970Y10850D01*
X53929Y10886D01*
X53877Y10923D01*
X53809Y10959D01*
X53732Y10995D01*
X53643Y11016D01*
X53545Y11027D01*
X53514D01*
X53477Y11021D01*
X53425Y11016D01*
X53363Y11011D01*
X53296Y10995D01*
X53213Y10980D01*
X53124Y10954D01*
X53223Y11701D01*
X53285D01*
X53316Y11706D01*
X53353D01*
X53436Y11717D01*
X53529Y11732D01*
X53623Y11763D01*
X53711Y11805D01*
X53794Y11857D01*
X53804Y11867D01*
X53825Y11888D01*
X53856Y11924D01*
X53898Y11976D01*
X53934Y12044D01*
X53965Y12122D01*
X53986Y12210D01*
X53996Y12314D01*
Y12319D01*
Y12324D01*
Y12355D01*
X53991Y12397D01*
X53981Y12454D01*
X53960Y12511D01*
X53934Y12578D01*
X53898Y12641D01*
X53851Y12698D01*
X53846Y12703D01*
X53825Y12718D01*
X53794Y12744D01*
X53747Y12770D01*
X53690Y12796D01*
X53628Y12822D01*
X53550Y12838D01*
X53462Y12843D01*
X53420D01*
X53379Y12833D01*
X53322Y12822D01*
X53259Y12801D01*
X53192Y12776D01*
X53124Y12734D01*
X53057Y12677D01*
X53052Y12672D01*
X53031Y12646D01*
X53005Y12609D01*
X52969Y12558D01*
X52932Y12490D01*
X52901Y12412D01*
X52875Y12314D01*
X52855Y12205D01*
X52009Y12345D01*
Y12350D01*
X52014Y12365D01*
X52019Y12386D01*
X52024Y12417D01*
X52034Y12454D01*
X52045Y12495D01*
X52076Y12594D01*
X52112Y12708D01*
X52159Y12822D01*
X52211Y12936D01*
X52273Y13040D01*
Y13045D01*
X52284Y13051D01*
X52304Y13082D01*
X52346Y13134D01*
X52403Y13191D01*
X52470Y13258D01*
X52553Y13326D01*
X52652Y13393D01*
X52766Y13455D01*
X52772D01*
X52782Y13461D01*
X52797Y13471D01*
X52823Y13481D01*
X52855Y13492D01*
X52891Y13502D01*
X52932Y13518D01*
X52979Y13533D01*
X53083Y13559D01*
X53207Y13585D01*
X53342Y13601D01*
X53488Y13606D01*
X53519D01*
X53555Y13601D01*
D02*
G37*
G36*
X75114Y10570D02*
X75711D01*
Y9765D01*
X75114D01*
Y8800D01*
X74227D01*
Y9765D01*
X72270D01*
Y10565D01*
X74341Y13606D01*
X75114D01*
Y10570D01*
D02*
G37*
G36*
X71056Y8800D02*
X70137D01*
Y12251D01*
X70132Y12246D01*
X70117Y12231D01*
X70085Y12205D01*
X70049Y12173D01*
X70002Y12137D01*
X69940Y12090D01*
X69878Y12039D01*
X69800Y11987D01*
X69717Y11930D01*
X69629Y11873D01*
X69530Y11815D01*
X69426Y11758D01*
X69317Y11701D01*
X69198Y11649D01*
X69078Y11603D01*
X68954Y11556D01*
Y12392D01*
X68959D01*
X68970Y12397D01*
X68990Y12402D01*
X69016Y12412D01*
X69052Y12428D01*
X69089Y12443D01*
X69136Y12464D01*
X69187Y12490D01*
X69302Y12547D01*
X69431Y12625D01*
X69577Y12718D01*
X69732Y12833D01*
X69738Y12838D01*
X69753Y12848D01*
X69774Y12864D01*
X69800Y12890D01*
X69836Y12921D01*
X69872Y12962D01*
X69914Y13004D01*
X69961Y13056D01*
X70059Y13170D01*
X70153Y13300D01*
X70241Y13445D01*
X70277Y13523D01*
X70309Y13606D01*
X71056D01*
Y8800D01*
D02*
G37*
G36*
X62908Y12781D02*
X60588D01*
Y11644D01*
X62591D01*
Y10835D01*
X60588D01*
Y8800D01*
X59622D01*
Y13590D01*
X62908D01*
Y12781D01*
D02*
G37*
G36*
X57396Y13601D02*
X57453Y13596D01*
X57520Y13585D01*
X57598Y13575D01*
X57681Y13559D01*
X57769Y13539D01*
X57858Y13512D01*
X57951Y13481D01*
X58044Y13445D01*
X58133Y13398D01*
X58221Y13346D01*
X58309Y13289D01*
X58387Y13222D01*
X58392Y13217D01*
X58403Y13206D01*
X58423Y13180D01*
X58449Y13154D01*
X58481Y13118D01*
X58517Y13071D01*
X58553Y13020D01*
X58595Y12957D01*
X58631Y12895D01*
X58667Y12822D01*
X58704Y12744D01*
X58735Y12661D01*
X58761Y12568D01*
X58781Y12474D01*
X58792Y12376D01*
X58797Y12272D01*
Y12267D01*
Y12257D01*
Y12241D01*
Y12215D01*
X58792Y12189D01*
Y12153D01*
X58781Y12075D01*
X58766Y11976D01*
X58745Y11873D01*
X58719Y11763D01*
X58678Y11654D01*
Y11649D01*
X58672Y11644D01*
X58667Y11623D01*
X58657Y11603D01*
X58641Y11577D01*
X58626Y11546D01*
X58590Y11468D01*
X58538Y11379D01*
X58475Y11276D01*
X58397Y11162D01*
X58309Y11042D01*
X58299Y11032D01*
X58278Y11001D01*
X58231Y10954D01*
X58174Y10886D01*
X58133Y10845D01*
X58091Y10798D01*
X58039Y10751D01*
X57987Y10694D01*
X57925Y10637D01*
X57858Y10570D01*
X57785Y10502D01*
X57707Y10430D01*
X57702Y10424D01*
X57686Y10414D01*
X57666Y10393D01*
X57640Y10367D01*
X57603Y10336D01*
X57562Y10300D01*
X57474Y10217D01*
X57380Y10129D01*
X57292Y10040D01*
X57250Y9999D01*
X57214Y9963D01*
X57183Y9926D01*
X57157Y9900D01*
X57152Y9895D01*
X57136Y9879D01*
X57116Y9854D01*
X57090Y9822D01*
X57064Y9781D01*
X57033Y9739D01*
X56970Y9651D01*
X58797D01*
Y8800D01*
X55579D01*
Y8805D01*
X55585Y8821D01*
Y8847D01*
X55590Y8883D01*
X55600Y8925D01*
X55610Y8976D01*
X55621Y9033D01*
X55636Y9096D01*
X55678Y9236D01*
X55735Y9392D01*
X55802Y9552D01*
X55891Y9713D01*
X55896Y9719D01*
X55901Y9734D01*
X55922Y9760D01*
X55943Y9791D01*
X55974Y9833D01*
X56015Y9890D01*
X56062Y9947D01*
X56119Y10020D01*
X56181Y10097D01*
X56259Y10181D01*
X56342Y10279D01*
X56436Y10378D01*
X56539Y10487D01*
X56659Y10606D01*
X56783Y10731D01*
X56924Y10860D01*
X56929Y10866D01*
X56949Y10886D01*
X56981Y10917D01*
X57022Y10954D01*
X57074Y11001D01*
X57126Y11052D01*
X57188Y11115D01*
X57250Y11177D01*
X57385Y11307D01*
X57510Y11436D01*
X57562Y11494D01*
X57614Y11551D01*
X57655Y11603D01*
X57686Y11644D01*
Y11649D01*
X57697Y11654D01*
X57702Y11670D01*
X57718Y11691D01*
X57749Y11748D01*
X57785Y11821D01*
X57816Y11904D01*
X57847Y11997D01*
X57868Y12101D01*
X57878Y12205D01*
Y12210D01*
Y12220D01*
Y12236D01*
Y12257D01*
X57868Y12308D01*
X57858Y12381D01*
X57837Y12454D01*
X57811Y12532D01*
X57769Y12609D01*
X57712Y12677D01*
X57707Y12682D01*
X57681Y12703D01*
X57645Y12729D01*
X57593Y12760D01*
X57525Y12791D01*
X57448Y12817D01*
X57359Y12838D01*
X57256Y12843D01*
X57209D01*
X57157Y12833D01*
X57090Y12822D01*
X57017Y12801D01*
X56939Y12770D01*
X56861Y12724D01*
X56794Y12666D01*
X56788Y12656D01*
X56768Y12635D01*
X56742Y12594D01*
X56705Y12532D01*
X56674Y12454D01*
X56643Y12355D01*
X56617Y12236D01*
X56607Y12168D01*
X56602Y12096D01*
X55688Y12184D01*
Y12194D01*
X55693Y12215D01*
X55699Y12257D01*
X55709Y12308D01*
X55719Y12371D01*
X55735Y12443D01*
X55756Y12521D01*
X55782Y12604D01*
X55813Y12693D01*
X55849Y12781D01*
X55891Y12874D01*
X55937Y12962D01*
X55989Y13051D01*
X56052Y13134D01*
X56119Y13206D01*
X56197Y13274D01*
X56202Y13279D01*
X56218Y13289D01*
X56244Y13305D01*
X56275Y13326D01*
X56316Y13352D01*
X56368Y13378D01*
X56425Y13409D01*
X56493Y13440D01*
X56571Y13471D01*
X56648Y13502D01*
X56737Y13528D01*
X56835Y13554D01*
X56934Y13575D01*
X57043Y13590D01*
X57157Y13601D01*
X57276Y13606D01*
X57344D01*
X57396Y13601D01*
D02*
G37*
G36*
X49569Y13585D02*
X49642D01*
X49725Y13580D01*
X49808Y13575D01*
X49995Y13559D01*
X50177Y13533D01*
X50265Y13523D01*
X50353Y13502D01*
X50431Y13481D01*
X50498Y13461D01*
X50503D01*
X50514Y13455D01*
X50529Y13445D01*
X50555Y13435D01*
X50586Y13419D01*
X50618Y13404D01*
X50701Y13357D01*
X50789Y13289D01*
X50877Y13212D01*
X50971Y13113D01*
X51054Y12999D01*
Y12993D01*
X51064Y12983D01*
X51074Y12968D01*
X51085Y12942D01*
X51105Y12911D01*
X51121Y12874D01*
X51142Y12827D01*
X51163Y12781D01*
X51199Y12672D01*
X51235Y12542D01*
X51256Y12402D01*
X51266Y12246D01*
Y12241D01*
Y12220D01*
Y12194D01*
X51261Y12158D01*
X51256Y12111D01*
X51251Y12059D01*
X51240Y11997D01*
X51225Y11935D01*
X51188Y11789D01*
X51163Y11717D01*
X51131Y11644D01*
X51095Y11566D01*
X51054Y11494D01*
X51007Y11421D01*
X50950Y11354D01*
X50945Y11348D01*
X50934Y11338D01*
X50919Y11322D01*
X50893Y11296D01*
X50856Y11270D01*
X50815Y11239D01*
X50768Y11203D01*
X50711Y11167D01*
X50649Y11125D01*
X50581Y11089D01*
X50503Y11052D01*
X50415Y11016D01*
X50322Y10985D01*
X50223Y10954D01*
X50114Y10928D01*
X50000Y10907D01*
X50005D01*
X50016Y10897D01*
X50031Y10892D01*
X50052Y10876D01*
X50109Y10840D01*
X50182Y10788D01*
X50265Y10731D01*
X50353Y10663D01*
X50441Y10585D01*
X50519Y10508D01*
X50529Y10497D01*
X50540Y10482D01*
X50555Y10466D01*
X50576Y10440D01*
X50602Y10409D01*
X50633Y10373D01*
X50664Y10331D01*
X50701Y10279D01*
X50742Y10222D01*
X50789Y10160D01*
X50836Y10087D01*
X50888Y10009D01*
X50945Y9921D01*
X51007Y9833D01*
X51069Y9729D01*
X51656Y8800D01*
X50498D01*
X49798Y9843D01*
X49792Y9848D01*
X49782Y9869D01*
X49761Y9895D01*
X49735Y9931D01*
X49709Y9978D01*
X49673Y10025D01*
X49595Y10139D01*
X49507Y10258D01*
X49424Y10373D01*
X49382Y10424D01*
X49346Y10471D01*
X49315Y10513D01*
X49284Y10544D01*
X49279Y10549D01*
X49263Y10570D01*
X49232Y10591D01*
X49196Y10622D01*
X49154Y10658D01*
X49102Y10689D01*
X49050Y10720D01*
X48993Y10741D01*
X48988Y10746D01*
X48962Y10751D01*
X48926Y10762D01*
X48874Y10772D01*
X48806Y10783D01*
X48723Y10788D01*
X48625Y10798D01*
X48313D01*
Y8800D01*
X47348D01*
Y13590D01*
X49507D01*
X49569Y13585D01*
D02*
G37*
G36*
X46549Y12781D02*
X44229D01*
Y11644D01*
X46232D01*
Y10835D01*
X44229D01*
Y8800D01*
X43263D01*
Y13590D01*
X46549D01*
Y12781D01*
D02*
G37*
G36*
X42350D02*
X39765D01*
Y11722D01*
X42168D01*
Y10912D01*
X39765D01*
Y9610D01*
X42443D01*
Y8800D01*
X38800D01*
Y13590D01*
X42350D01*
Y12781D01*
D02*
G37*
G36*
X30556Y159268D02*
X30613Y159263D01*
X30670Y159258D01*
X30738Y159253D01*
X30883Y159232D01*
X31044Y159201D01*
X31205Y159154D01*
X31360Y159097D01*
X31365D01*
X31376Y159087D01*
X31402Y159081D01*
X31428Y159066D01*
X31459Y159045D01*
X31500Y159024D01*
X31589Y158972D01*
X31692Y158900D01*
X31796Y158811D01*
X31895Y158713D01*
X31983Y158593D01*
X31988Y158588D01*
X31993Y158578D01*
X32004Y158562D01*
X32019Y158536D01*
X32035Y158505D01*
X32056Y158469D01*
X32071Y158422D01*
X32097Y158376D01*
X32139Y158267D01*
X32175Y158137D01*
X32206Y157997D01*
X32222Y157841D01*
X31615Y157794D01*
Y157799D01*
X31609Y157815D01*
Y157836D01*
X31604Y157867D01*
X31594Y157908D01*
X31583Y157950D01*
X31552Y158049D01*
X31511Y158158D01*
X31449Y158272D01*
X31376Y158381D01*
X31329Y158427D01*
X31277Y158474D01*
X31272Y158479D01*
X31267Y158484D01*
X31246Y158495D01*
X31225Y158510D01*
X31194Y158526D01*
X31158Y158547D01*
X31116Y158568D01*
X31070Y158593D01*
X31013Y158614D01*
X30950Y158635D01*
X30883Y158656D01*
X30810Y158671D01*
X30727Y158687D01*
X30639Y158697D01*
X30545Y158708D01*
X30395D01*
X30353Y158703D01*
X30307D01*
X30255Y158697D01*
X30193Y158692D01*
X30130Y158682D01*
X29990Y158656D01*
X29855Y158619D01*
X29725Y158568D01*
X29663Y158531D01*
X29611Y158495D01*
X29606D01*
X29601Y158484D01*
X29570Y158459D01*
X29528Y158412D01*
X29482Y158350D01*
X29435Y158277D01*
X29393Y158189D01*
X29362Y158095D01*
X29357Y158043D01*
X29352Y157986D01*
Y157981D01*
Y157976D01*
X29357Y157945D01*
X29362Y157898D01*
X29373Y157841D01*
X29399Y157773D01*
X29430Y157701D01*
X29471Y157633D01*
X29533Y157566D01*
X29544Y157561D01*
X29554Y157550D01*
X29575Y157535D01*
X29601Y157519D01*
X29632Y157504D01*
X29673Y157483D01*
X29720Y157457D01*
X29777Y157431D01*
X29845Y157405D01*
X29923Y157379D01*
X30011Y157348D01*
X30115Y157317D01*
X30224Y157286D01*
X30348Y157249D01*
X30488Y157218D01*
X30499D01*
X30525Y157213D01*
X30561Y157203D01*
X30613Y157187D01*
X30675Y157177D01*
X30748Y157156D01*
X30826Y157140D01*
X30909Y157114D01*
X31085Y157068D01*
X31262Y157021D01*
X31345Y156995D01*
X31417Y156969D01*
X31490Y156943D01*
X31547Y156917D01*
X31552D01*
X31568Y156907D01*
X31589Y156896D01*
X31615Y156881D01*
X31651Y156865D01*
X31692Y156839D01*
X31781Y156782D01*
X31885Y156715D01*
X31983Y156632D01*
X32082Y156533D01*
X32123Y156481D01*
X32165Y156429D01*
Y156424D01*
X32175Y156414D01*
X32186Y156398D01*
X32196Y156377D01*
X32212Y156351D01*
X32227Y156315D01*
X32269Y156232D01*
X32305Y156133D01*
X32336Y156019D01*
X32357Y155889D01*
X32367Y155749D01*
Y155744D01*
Y155734D01*
Y155713D01*
X32362Y155687D01*
Y155651D01*
X32357Y155614D01*
X32341Y155516D01*
X32315Y155407D01*
X32274Y155288D01*
X32217Y155163D01*
X32186Y155096D01*
X32144Y155033D01*
Y155028D01*
X32134Y155018D01*
X32123Y155002D01*
X32103Y154976D01*
X32056Y154919D01*
X31983Y154841D01*
X31895Y154758D01*
X31786Y154670D01*
X31661Y154587D01*
X31516Y154509D01*
X31511D01*
X31495Y154499D01*
X31475Y154493D01*
X31443Y154478D01*
X31407Y154467D01*
X31360Y154452D01*
X31308Y154431D01*
X31246Y154416D01*
X31184Y154400D01*
X31111Y154379D01*
X30955Y154353D01*
X30784Y154332D01*
X30597Y154322D01*
X30535D01*
X30488Y154327D01*
X30431D01*
X30369Y154332D01*
X30296Y154338D01*
X30213Y154348D01*
X30042Y154369D01*
X29860Y154400D01*
X29679Y154447D01*
X29502Y154509D01*
X29497D01*
X29482Y154519D01*
X29461Y154530D01*
X29430Y154545D01*
X29393Y154566D01*
X29352Y154587D01*
X29253Y154649D01*
X29144Y154727D01*
X29030Y154826D01*
X28916Y154940D01*
X28817Y155075D01*
X28812Y155080D01*
X28807Y155090D01*
X28796Y155111D01*
X28781Y155142D01*
X28760Y155178D01*
X28739Y155220D01*
X28713Y155272D01*
X28693Y155329D01*
X28667Y155386D01*
X28646Y155454D01*
X28604Y155604D01*
X28573Y155765D01*
X28563Y155853D01*
X28558Y155941D01*
X29155Y155993D01*
Y155988D01*
Y155978D01*
X29160Y155957D01*
X29165Y155931D01*
X29170Y155900D01*
X29175Y155869D01*
X29196Y155780D01*
X29222Y155687D01*
X29253Y155588D01*
X29295Y155490D01*
X29347Y155396D01*
X29352Y155386D01*
X29378Y155360D01*
X29414Y155319D01*
X29466Y155267D01*
X29533Y155204D01*
X29616Y155147D01*
X29715Y155085D01*
X29829Y155028D01*
X29834D01*
X29845Y155023D01*
X29860Y155018D01*
X29886Y155007D01*
X29917Y154997D01*
X29954Y154981D01*
X29995Y154971D01*
X30042Y154961D01*
X30151Y154935D01*
X30281Y154909D01*
X30416Y154893D01*
X30566Y154888D01*
X30628D01*
X30660Y154893D01*
X30696D01*
X30779Y154903D01*
X30878Y154914D01*
X30987Y154929D01*
X31096Y154955D01*
X31199Y154992D01*
X31205D01*
X31210Y154997D01*
X31225Y155002D01*
X31246Y155012D01*
X31293Y155038D01*
X31355Y155069D01*
X31423Y155111D01*
X31495Y155163D01*
X31558Y155220D01*
X31615Y155288D01*
X31620Y155298D01*
X31635Y155319D01*
X31661Y155360D01*
X31687Y155412D01*
X31708Y155474D01*
X31734Y155542D01*
X31749Y155620D01*
X31755Y155698D01*
Y155703D01*
Y155708D01*
Y155734D01*
X31749Y155780D01*
X31739Y155832D01*
X31724Y155895D01*
X31698Y155962D01*
X31666Y156030D01*
X31620Y156092D01*
X31615Y156097D01*
X31594Y156118D01*
X31563Y156149D01*
X31516Y156191D01*
X31459Y156232D01*
X31381Y156279D01*
X31293Y156325D01*
X31189Y156372D01*
X31179Y156377D01*
X31168Y156383D01*
X31148Y156388D01*
X31127Y156393D01*
X31096Y156403D01*
X31054Y156419D01*
X31013Y156429D01*
X30955Y156445D01*
X30898Y156466D01*
X30826Y156481D01*
X30748Y156502D01*
X30660Y156528D01*
X30566Y156549D01*
X30457Y156580D01*
X30338Y156606D01*
X30333D01*
X30312Y156611D01*
X30276Y156621D01*
X30234Y156632D01*
X30177Y156647D01*
X30115Y156663D01*
X30052Y156684D01*
X29980Y156704D01*
X29824Y156751D01*
X29673Y156803D01*
X29601Y156829D01*
X29533Y156855D01*
X29471Y156881D01*
X29419Y156907D01*
X29414D01*
X29404Y156917D01*
X29388Y156928D01*
X29362Y156938D01*
X29300Y156974D01*
X29227Y157026D01*
X29139Y157094D01*
X29056Y157166D01*
X28973Y157255D01*
X28905Y157348D01*
Y157353D01*
X28900Y157358D01*
X28890Y157374D01*
X28879Y157395D01*
X28853Y157452D01*
X28822Y157524D01*
X28791Y157613D01*
X28765Y157716D01*
X28745Y157831D01*
X28739Y157950D01*
Y157955D01*
Y157966D01*
Y157986D01*
X28745Y158012D01*
Y158043D01*
X28750Y158080D01*
X28765Y158173D01*
X28791Y158277D01*
X28822Y158386D01*
X28874Y158505D01*
X28942Y158625D01*
Y158630D01*
X28952Y158640D01*
X28962Y158656D01*
X28978Y158677D01*
X29030Y158734D01*
X29097Y158806D01*
X29180Y158884D01*
X29284Y158962D01*
X29404Y159040D01*
X29544Y159107D01*
X29549D01*
X29559Y159113D01*
X29585Y159123D01*
X29611Y159133D01*
X29648Y159144D01*
X29694Y159159D01*
X29746Y159175D01*
X29803Y159190D01*
X29866Y159206D01*
X29933Y159221D01*
X30078Y159248D01*
X30244Y159268D01*
X30421Y159273D01*
X30509D01*
X30556Y159268D01*
D02*
G37*
G36*
X45270D02*
X45321Y159263D01*
X45379Y159258D01*
X45446Y159253D01*
X45591Y159232D01*
X45752Y159201D01*
X45913Y159159D01*
X46074Y159102D01*
X46079D01*
X46095Y159097D01*
X46115Y159087D01*
X46141Y159071D01*
X46178Y159055D01*
X46219Y159035D01*
X46313Y158983D01*
X46422Y158915D01*
X46531Y158837D01*
X46635Y158744D01*
X46733Y158635D01*
X46738Y158630D01*
X46744Y158619D01*
X46754Y158604D01*
X46775Y158583D01*
X46790Y158552D01*
X46816Y158516D01*
X46842Y158474D01*
X46868Y158422D01*
X46899Y158370D01*
X46925Y158313D01*
X46956Y158246D01*
X46987Y158178D01*
X47045Y158023D01*
X47096Y157851D01*
X46520Y157696D01*
Y157701D01*
X46515Y157711D01*
X46510Y157732D01*
X46499Y157758D01*
X46489Y157784D01*
X46479Y157820D01*
X46448Y157903D01*
X46406Y157997D01*
X46359Y158090D01*
X46308Y158184D01*
X46250Y158267D01*
X46245Y158277D01*
X46219Y158303D01*
X46183Y158339D01*
X46136Y158391D01*
X46069Y158443D01*
X45991Y158500D01*
X45897Y158552D01*
X45794Y158604D01*
X45788D01*
X45778Y158609D01*
X45763Y158614D01*
X45742Y158625D01*
X45716Y158635D01*
X45680Y158645D01*
X45602Y158671D01*
X45503Y158692D01*
X45394Y158713D01*
X45270Y158729D01*
X45140Y158734D01*
X45067D01*
X45031Y158729D01*
X44984D01*
X44937Y158723D01*
X44880Y158718D01*
X44766Y158703D01*
X44636Y158677D01*
X44512Y158645D01*
X44387Y158599D01*
X44382D01*
X44372Y158593D01*
X44356Y158583D01*
X44335Y158573D01*
X44278Y158547D01*
X44205Y158505D01*
X44122Y158453D01*
X44039Y158391D01*
X43951Y158324D01*
X43873Y158246D01*
X43863Y158235D01*
X43842Y158210D01*
X43806Y158163D01*
X43764Y158106D01*
X43718Y158038D01*
X43666Y157955D01*
X43619Y157867D01*
X43578Y157773D01*
Y157768D01*
X43572Y157753D01*
X43562Y157732D01*
X43552Y157696D01*
X43536Y157654D01*
X43521Y157607D01*
X43505Y157550D01*
X43489Y157488D01*
X43469Y157421D01*
X43453Y157343D01*
X43427Y157182D01*
X43406Y157000D01*
X43396Y156808D01*
Y156803D01*
Y156782D01*
Y156746D01*
X43401Y156704D01*
Y156647D01*
X43406Y156585D01*
X43417Y156512D01*
X43422Y156435D01*
X43448Y156263D01*
X43489Y156087D01*
X43541Y155905D01*
X43614Y155734D01*
X43619Y155729D01*
X43624Y155713D01*
X43635Y155692D01*
X43655Y155661D01*
X43676Y155630D01*
X43707Y155588D01*
X43775Y155495D01*
X43868Y155391D01*
X43977Y155282D01*
X44102Y155184D01*
X44174Y155137D01*
X44252Y155096D01*
X44257D01*
X44273Y155085D01*
X44294Y155075D01*
X44325Y155064D01*
X44366Y155049D01*
X44413Y155028D01*
X44465Y155012D01*
X44522Y154992D01*
X44584Y154971D01*
X44657Y154955D01*
X44808Y154919D01*
X44974Y154898D01*
X45150Y154888D01*
X45192D01*
X45223Y154893D01*
X45259D01*
X45301Y154898D01*
X45347Y154903D01*
X45404Y154909D01*
X45524Y154924D01*
X45659Y154955D01*
X45804Y154992D01*
X45949Y155044D01*
X45955D01*
X45965Y155049D01*
X45986Y155059D01*
X46017Y155069D01*
X46048Y155085D01*
X46084Y155106D01*
X46173Y155147D01*
X46271Y155199D01*
X46370Y155256D01*
X46463Y155313D01*
X46546Y155381D01*
Y156279D01*
X45140D01*
Y156844D01*
X47169D01*
Y155064D01*
X47164Y155059D01*
X47148Y155049D01*
X47122Y155028D01*
X47086Y155002D01*
X47045Y154971D01*
X46993Y154940D01*
X46935Y154898D01*
X46873Y154857D01*
X46806Y154815D01*
X46728Y154769D01*
X46567Y154675D01*
X46391Y154587D01*
X46204Y154509D01*
X46198D01*
X46183Y154499D01*
X46157Y154493D01*
X46115Y154478D01*
X46074Y154467D01*
X46017Y154452D01*
X45960Y154431D01*
X45892Y154416D01*
X45814Y154400D01*
X45737Y154379D01*
X45565Y154353D01*
X45379Y154332D01*
X45186Y154322D01*
X45119D01*
X45067Y154327D01*
X45005Y154332D01*
X44932Y154338D01*
X44849Y154348D01*
X44761Y154358D01*
X44668Y154374D01*
X44564Y154395D01*
X44460Y154421D01*
X44346Y154452D01*
X44237Y154483D01*
X44128Y154525D01*
X44014Y154571D01*
X43905Y154623D01*
X43899Y154628D01*
X43879Y154639D01*
X43847Y154654D01*
X43811Y154680D01*
X43764Y154711D01*
X43707Y154748D01*
X43645Y154794D01*
X43578Y154846D01*
X43510Y154903D01*
X43437Y154971D01*
X43365Y155038D01*
X43292Y155116D01*
X43225Y155204D01*
X43157Y155293D01*
X43090Y155391D01*
X43033Y155495D01*
X43027Y155500D01*
X43022Y155521D01*
X43007Y155552D01*
X42986Y155594D01*
X42965Y155651D01*
X42939Y155713D01*
X42913Y155786D01*
X42887Y155869D01*
X42861Y155957D01*
X42835Y156056D01*
X42809Y156165D01*
X42789Y156274D01*
X42768Y156393D01*
X42752Y156512D01*
X42747Y156642D01*
X42742Y156772D01*
Y156782D01*
Y156803D01*
Y156839D01*
X42747Y156891D01*
X42752Y156954D01*
X42757Y157026D01*
X42768Y157109D01*
X42778Y157197D01*
X42794Y157296D01*
X42815Y157400D01*
X42867Y157618D01*
X42898Y157732D01*
X42939Y157846D01*
X42981Y157960D01*
X43033Y158074D01*
X43038Y158080D01*
X43048Y158100D01*
X43064Y158132D01*
X43084Y158173D01*
X43116Y158225D01*
X43152Y158282D01*
X43199Y158344D01*
X43245Y158417D01*
X43303Y158490D01*
X43365Y158562D01*
X43432Y158635D01*
X43510Y158713D01*
X43588Y158785D01*
X43676Y158853D01*
X43770Y158921D01*
X43868Y158978D01*
X43873Y158983D01*
X43894Y158988D01*
X43925Y159003D01*
X43967Y159024D01*
X44019Y159045D01*
X44081Y159071D01*
X44154Y159097D01*
X44232Y159128D01*
X44320Y159154D01*
X44418Y159180D01*
X44522Y159206D01*
X44636Y159227D01*
X44750Y159248D01*
X44875Y159263D01*
X45005Y159268D01*
X45135Y159273D01*
X45223D01*
X45270Y159268D01*
D02*
G37*
G36*
X15894D02*
X15946Y159263D01*
X16003Y159258D01*
X16071Y159253D01*
X16216Y159232D01*
X16377Y159201D01*
X16538Y159159D01*
X16699Y159102D01*
X16704D01*
X16719Y159097D01*
X16740Y159087D01*
X16766Y159071D01*
X16802Y159055D01*
X16844Y159035D01*
X16937Y158983D01*
X17046Y158915D01*
X17155Y158837D01*
X17259Y158744D01*
X17358Y158635D01*
X17363Y158630D01*
X17368Y158619D01*
X17378Y158604D01*
X17399Y158583D01*
X17415Y158552D01*
X17441Y158516D01*
X17467Y158474D01*
X17493Y158422D01*
X17524Y158370D01*
X17550Y158313D01*
X17581Y158246D01*
X17612Y158178D01*
X17669Y158023D01*
X17721Y157851D01*
X17145Y157696D01*
Y157701D01*
X17140Y157711D01*
X17134Y157732D01*
X17124Y157758D01*
X17114Y157784D01*
X17103Y157820D01*
X17072Y157903D01*
X17031Y157997D01*
X16984Y158090D01*
X16932Y158184D01*
X16875Y158267D01*
X16870Y158277D01*
X16844Y158303D01*
X16807Y158339D01*
X16761Y158391D01*
X16693Y158443D01*
X16615Y158500D01*
X16522Y158552D01*
X16418Y158604D01*
X16413D01*
X16403Y158609D01*
X16387Y158614D01*
X16366Y158625D01*
X16340Y158635D01*
X16304Y158645D01*
X16226Y158671D01*
X16128Y158692D01*
X16019Y158713D01*
X15894Y158729D01*
X15764Y158734D01*
X15692D01*
X15655Y158729D01*
X15609D01*
X15562Y158723D01*
X15505Y158718D01*
X15391Y158703D01*
X15261Y158677D01*
X15136Y158645D01*
X15012Y158599D01*
X15007D01*
X14996Y158593D01*
X14981Y158583D01*
X14960Y158573D01*
X14903Y158547D01*
X14830Y158505D01*
X14747Y158453D01*
X14664Y158391D01*
X14576Y158324D01*
X14498Y158246D01*
X14488Y158235D01*
X14467Y158210D01*
X14431Y158163D01*
X14389Y158106D01*
X14342Y158038D01*
X14290Y157955D01*
X14244Y157867D01*
X14202Y157773D01*
Y157768D01*
X14197Y157753D01*
X14187Y157732D01*
X14176Y157696D01*
X14161Y157654D01*
X14145Y157607D01*
X14130Y157550D01*
X14114Y157488D01*
X14093Y157421D01*
X14078Y157343D01*
X14052Y157182D01*
X14031Y157000D01*
X14020Y156808D01*
Y156803D01*
Y156782D01*
Y156746D01*
X14026Y156704D01*
Y156647D01*
X14031Y156585D01*
X14041Y156512D01*
X14046Y156435D01*
X14072Y156263D01*
X14114Y156087D01*
X14166Y155905D01*
X14239Y155734D01*
X14244Y155729D01*
X14249Y155713D01*
X14259Y155692D01*
X14280Y155661D01*
X14301Y155630D01*
X14332Y155588D01*
X14399Y155495D01*
X14493Y155391D01*
X14602Y155282D01*
X14726Y155184D01*
X14799Y155137D01*
X14877Y155096D01*
X14882D01*
X14898Y155085D01*
X14918Y155075D01*
X14950Y155064D01*
X14991Y155049D01*
X15038Y155028D01*
X15090Y155012D01*
X15147Y154992D01*
X15209Y154971D01*
X15282Y154955D01*
X15432Y154919D01*
X15598Y154898D01*
X15775Y154888D01*
X15816D01*
X15847Y154893D01*
X15884D01*
X15925Y154898D01*
X15972Y154903D01*
X16029Y154909D01*
X16148Y154924D01*
X16283Y154955D01*
X16429Y154992D01*
X16574Y155044D01*
X16579D01*
X16590Y155049D01*
X16610Y155059D01*
X16642Y155069D01*
X16673Y155085D01*
X16709Y155106D01*
X16797Y155147D01*
X16896Y155199D01*
X16994Y155256D01*
X17088Y155313D01*
X17171Y155381D01*
Y156279D01*
X15764D01*
Y156844D01*
X17794D01*
Y155064D01*
X17788Y155059D01*
X17773Y155049D01*
X17747Y155028D01*
X17711Y155002D01*
X17669Y154971D01*
X17617Y154940D01*
X17560Y154898D01*
X17498Y154857D01*
X17430Y154815D01*
X17353Y154769D01*
X17192Y154675D01*
X17015Y154587D01*
X16828Y154509D01*
X16823D01*
X16807Y154499D01*
X16782Y154493D01*
X16740Y154478D01*
X16699Y154467D01*
X16642Y154452D01*
X16584Y154431D01*
X16517Y154416D01*
X16439Y154400D01*
X16361Y154379D01*
X16190Y154353D01*
X16003Y154332D01*
X15811Y154322D01*
X15744D01*
X15692Y154327D01*
X15629Y154332D01*
X15557Y154338D01*
X15474Y154348D01*
X15385Y154358D01*
X15292Y154374D01*
X15188Y154395D01*
X15085Y154421D01*
X14970Y154452D01*
X14861Y154483D01*
X14752Y154525D01*
X14638Y154571D01*
X14529Y154623D01*
X14524Y154628D01*
X14503Y154639D01*
X14472Y154654D01*
X14436Y154680D01*
X14389Y154711D01*
X14332Y154748D01*
X14270Y154794D01*
X14202Y154846D01*
X14135Y154903D01*
X14062Y154971D01*
X13989Y155038D01*
X13917Y155116D01*
X13849Y155204D01*
X13782Y155293D01*
X13714Y155391D01*
X13657Y155495D01*
X13652Y155500D01*
X13647Y155521D01*
X13631Y155552D01*
X13611Y155594D01*
X13590Y155651D01*
X13564Y155713D01*
X13538Y155786D01*
X13512Y155869D01*
X13486Y155957D01*
X13460Y156056D01*
X13434Y156165D01*
X13413Y156274D01*
X13393Y156393D01*
X13377Y156512D01*
X13372Y156642D01*
X13367Y156772D01*
Y156782D01*
Y156803D01*
Y156839D01*
X13372Y156891D01*
X13377Y156954D01*
X13382Y157026D01*
X13393Y157109D01*
X13403Y157197D01*
X13419Y157296D01*
X13439Y157400D01*
X13491Y157618D01*
X13522Y157732D01*
X13564Y157846D01*
X13605Y157960D01*
X13657Y158074D01*
X13662Y158080D01*
X13673Y158100D01*
X13688Y158132D01*
X13709Y158173D01*
X13740Y158225D01*
X13777Y158282D01*
X13823Y158344D01*
X13870Y158417D01*
X13927Y158490D01*
X13989Y158562D01*
X14057Y158635D01*
X14135Y158713D01*
X14212Y158785D01*
X14301Y158853D01*
X14394Y158921D01*
X14493Y158978D01*
X14498Y158983D01*
X14519Y158988D01*
X14550Y159003D01*
X14591Y159024D01*
X14643Y159045D01*
X14706Y159071D01*
X14778Y159097D01*
X14856Y159128D01*
X14944Y159154D01*
X15043Y159180D01*
X15147Y159206D01*
X15261Y159227D01*
X15375Y159248D01*
X15500Y159263D01*
X15629Y159268D01*
X15759Y159273D01*
X15847D01*
X15894Y159268D01*
D02*
G37*
G36*
X51882Y154400D02*
X51248D01*
Y156658D01*
X48762D01*
Y154400D01*
X48129D01*
Y159190D01*
X48762D01*
Y157223D01*
X51248D01*
Y159190D01*
X51882D01*
Y154400D01*
D02*
G37*
G36*
X22506D02*
X21873D01*
Y156658D01*
X19387D01*
Y154400D01*
X18754D01*
Y159190D01*
X19387D01*
Y157223D01*
X21873D01*
Y159190D01*
X22506D01*
Y154400D01*
D02*
G37*
G36*
X42176Y155838D02*
X40365D01*
Y156429D01*
X42176D01*
Y155838D01*
D02*
G37*
G36*
X35953Y154400D02*
X35429D01*
Y154909D01*
X35424Y154903D01*
X35408Y154883D01*
X35388Y154857D01*
X35357Y154815D01*
X35315Y154774D01*
X35263Y154722D01*
X35206Y154670D01*
X35139Y154618D01*
X35061Y154561D01*
X34978Y154509D01*
X34890Y154457D01*
X34791Y154416D01*
X34682Y154374D01*
X34573Y154348D01*
X34453Y154327D01*
X34324Y154322D01*
X34272D01*
X34215Y154327D01*
X34137Y154338D01*
X34049Y154348D01*
X33950Y154369D01*
X33852Y154400D01*
X33748Y154436D01*
X33742D01*
X33737Y154441D01*
X33706Y154457D01*
X33659Y154483D01*
X33597Y154519D01*
X33535Y154561D01*
X33467Y154613D01*
X33405Y154670D01*
X33353Y154732D01*
X33348Y154743D01*
X33332Y154763D01*
X33312Y154805D01*
X33286Y154857D01*
X33255Y154919D01*
X33224Y154992D01*
X33198Y155075D01*
X33172Y155168D01*
Y155178D01*
X33166Y155199D01*
X33161Y155246D01*
X33156Y155303D01*
X33151Y155381D01*
X33146Y155474D01*
X33141Y155588D01*
Y155718D01*
Y157872D01*
X33727D01*
Y155947D01*
Y155941D01*
Y155926D01*
Y155905D01*
Y155874D01*
Y155832D01*
Y155791D01*
X33732Y155698D01*
Y155594D01*
X33742Y155490D01*
X33748Y155396D01*
X33753Y155355D01*
X33758Y155324D01*
X33763Y155313D01*
X33768Y155288D01*
X33784Y155241D01*
X33810Y155189D01*
X33841Y155132D01*
X33883Y155075D01*
X33935Y155012D01*
X33997Y154961D01*
X34007Y154955D01*
X34028Y154940D01*
X34069Y154919D01*
X34121Y154898D01*
X34184Y154872D01*
X34262Y154851D01*
X34350Y154836D01*
X34443Y154831D01*
X34490D01*
X34537Y154836D01*
X34604Y154846D01*
X34682Y154862D01*
X34765Y154888D01*
X34848Y154919D01*
X34936Y154966D01*
X34941D01*
X34947Y154971D01*
X34973Y154992D01*
X35014Y155023D01*
X35066Y155064D01*
X35118Y155116D01*
X35175Y155178D01*
X35227Y155251D01*
X35268Y155334D01*
Y155339D01*
X35274Y155345D01*
X35279Y155360D01*
X35284Y155376D01*
X35289Y155402D01*
X35300Y155433D01*
X35310Y155464D01*
X35320Y155506D01*
X35336Y155604D01*
X35351Y155718D01*
X35362Y155853D01*
X35367Y156009D01*
Y157872D01*
X35953D01*
Y154400D01*
D02*
G37*
G36*
X55520Y157478D02*
X53636Y155277D01*
X53267Y154872D01*
X53283D01*
X53309Y154877D01*
X53335D01*
X53371Y154883D01*
X53413D01*
X53459Y154888D01*
X53511Y154893D01*
X53625Y154898D01*
X53750Y154903D01*
X53885Y154909D01*
X55624D01*
Y154400D01*
X52551D01*
Y154877D01*
X54752Y157410D01*
X54715D01*
X54689Y157405D01*
X54617D01*
X54528Y157400D01*
X54425Y157395D01*
X54316D01*
X54202Y157389D01*
X52681D01*
Y157872D01*
X55520D01*
Y157478D01*
D02*
G37*
G36*
X26144D02*
X24260Y155277D01*
X23892Y154872D01*
X23908D01*
X23933Y154877D01*
X23959D01*
X23996Y154883D01*
X24037D01*
X24084Y154888D01*
X24136Y154893D01*
X24250Y154898D01*
X24374Y154903D01*
X24509Y154909D01*
X26248D01*
Y154400D01*
X23176D01*
Y154877D01*
X25376Y157410D01*
X25340D01*
X25314Y157405D01*
X25241D01*
X25153Y157400D01*
X25049Y157395D01*
X24940D01*
X24826Y157389D01*
X23305D01*
Y157872D01*
X26144D01*
Y157478D01*
D02*
G37*
G36*
X12038Y156087D02*
X12687D01*
Y155547D01*
X12038D01*
Y154400D01*
X11451D01*
Y155547D01*
X9365D01*
Y156087D01*
X11555Y159190D01*
X12038D01*
Y156087D01*
D02*
G37*
G36*
X8706Y154400D02*
X8036D01*
Y155069D01*
X8706D01*
Y154400D01*
D02*
G37*
G36*
X5685Y159201D02*
X5742Y159196D01*
X5810Y159185D01*
X5888Y159175D01*
X5966Y159159D01*
X6054Y159139D01*
X6142Y159113D01*
X6236Y159081D01*
X6324Y159045D01*
X6417Y158998D01*
X6505Y158946D01*
X6588Y158889D01*
X6666Y158822D01*
X6672Y158817D01*
X6682Y158806D01*
X6703Y158780D01*
X6729Y158754D01*
X6760Y158718D01*
X6796Y158671D01*
X6832Y158619D01*
X6869Y158557D01*
X6905Y158495D01*
X6941Y158422D01*
X6978Y158344D01*
X7009Y158261D01*
X7035Y158168D01*
X7056Y158074D01*
X7066Y157976D01*
X7071Y157872D01*
Y157867D01*
Y157862D01*
Y157846D01*
Y157825D01*
X7066Y157768D01*
X7056Y157696D01*
X7040Y157607D01*
X7019Y157514D01*
X6993Y157410D01*
X6952Y157306D01*
Y157301D01*
X6946Y157296D01*
X6941Y157280D01*
X6931Y157260D01*
X6900Y157203D01*
X6858Y157130D01*
X6801Y157042D01*
X6734Y156943D01*
X6656Y156839D01*
X6557Y156725D01*
X6552Y156720D01*
X6547Y156710D01*
X6526Y156694D01*
X6505Y156668D01*
X6474Y156637D01*
X6438Y156601D01*
X6396Y156554D01*
X6345Y156507D01*
X6282Y156450D01*
X6215Y156388D01*
X6142Y156315D01*
X6059Y156243D01*
X5971Y156159D01*
X5872Y156076D01*
X5763Y155983D01*
X5649Y155884D01*
X5644Y155879D01*
X5628Y155864D01*
X5597Y155843D01*
X5566Y155812D01*
X5519Y155775D01*
X5473Y155734D01*
X5364Y155640D01*
X5249Y155542D01*
X5140Y155438D01*
X5088Y155391D01*
X5042Y155350D01*
X5000Y155308D01*
X4969Y155277D01*
X4964Y155272D01*
X4943Y155251D01*
X4917Y155220D01*
X4881Y155178D01*
X4839Y155132D01*
X4798Y155080D01*
X4715Y154966D01*
X7076D01*
Y154400D01*
X3905D01*
Y154410D01*
Y154436D01*
Y154478D01*
X3910Y154530D01*
X3916Y154592D01*
X3931Y154659D01*
X3947Y154732D01*
X3973Y154805D01*
Y154810D01*
X3978Y154820D01*
X3983Y154836D01*
X3993Y154862D01*
X4009Y154888D01*
X4025Y154924D01*
X4066Y155007D01*
X4118Y155106D01*
X4185Y155215D01*
X4263Y155329D01*
X4357Y155443D01*
X4362Y155448D01*
X4367Y155459D01*
X4383Y155474D01*
X4409Y155500D01*
X4435Y155526D01*
X4471Y155563D01*
X4507Y155604D01*
X4554Y155651D01*
X4606Y155703D01*
X4663Y155755D01*
X4725Y155817D01*
X4798Y155879D01*
X4871Y155947D01*
X4954Y156014D01*
X5037Y156087D01*
X5130Y156165D01*
X5140Y156170D01*
X5166Y156196D01*
X5203Y156227D01*
X5255Y156274D01*
X5317Y156325D01*
X5390Y156388D01*
X5473Y156455D01*
X5556Y156533D01*
X5732Y156694D01*
X5903Y156865D01*
X5986Y156948D01*
X6064Y157031D01*
X6132Y157109D01*
X6189Y157182D01*
X6194Y157187D01*
X6199Y157197D01*
X6215Y157218D01*
X6230Y157244D01*
X6256Y157280D01*
X6277Y157317D01*
X6329Y157410D01*
X6381Y157519D01*
X6427Y157639D01*
X6459Y157763D01*
X6464Y157825D01*
X6469Y157888D01*
Y157893D01*
Y157903D01*
Y157924D01*
X6464Y157945D01*
Y157976D01*
X6453Y158012D01*
X6438Y158090D01*
X6407Y158184D01*
X6360Y158282D01*
X6334Y158334D01*
X6298Y158381D01*
X6261Y158427D01*
X6215Y158474D01*
X6210Y158479D01*
X6204Y158484D01*
X6189Y158495D01*
X6168Y158510D01*
X6142Y158531D01*
X6111Y158552D01*
X6038Y158599D01*
X5940Y158640D01*
X5831Y158682D01*
X5701Y158708D01*
X5628Y158718D01*
X5514D01*
X5483Y158713D01*
X5447D01*
X5405Y158703D01*
X5312Y158687D01*
X5203Y158656D01*
X5088Y158609D01*
X5031Y158578D01*
X4974Y158547D01*
X4922Y158505D01*
X4871Y158459D01*
X4865Y158453D01*
X4860Y158448D01*
X4850Y158433D01*
X4829Y158412D01*
X4813Y158386D01*
X4793Y158355D01*
X4767Y158318D01*
X4746Y158277D01*
X4720Y158230D01*
X4699Y158178D01*
X4658Y158054D01*
X4627Y157919D01*
X4621Y157841D01*
X4616Y157758D01*
X4014Y157820D01*
Y157831D01*
X4019Y157851D01*
X4025Y157882D01*
X4030Y157929D01*
X4040Y157986D01*
X4056Y158054D01*
X4071Y158126D01*
X4097Y158204D01*
X4123Y158282D01*
X4154Y158370D01*
X4196Y158453D01*
X4237Y158536D01*
X4289Y158625D01*
X4346Y158703D01*
X4409Y158780D01*
X4481Y158848D01*
X4487Y158853D01*
X4502Y158863D01*
X4523Y158879D01*
X4554Y158905D01*
X4595Y158931D01*
X4647Y158962D01*
X4704Y158993D01*
X4772Y159029D01*
X4845Y159061D01*
X4928Y159092D01*
X5016Y159123D01*
X5114Y159149D01*
X5218Y159175D01*
X5327Y159190D01*
X5447Y159201D01*
X5571Y159206D01*
X5639D01*
X5685Y159201D01*
D02*
G37*
G36*
X37459Y157483D02*
X37464Y157488D01*
X37474Y157504D01*
X37495Y157524D01*
X37526Y157555D01*
X37562Y157592D01*
X37604Y157633D01*
X37656Y157675D01*
X37718Y157716D01*
X37780Y157758D01*
X37853Y157805D01*
X37931Y157841D01*
X38014Y157877D01*
X38107Y157908D01*
X38201Y157929D01*
X38304Y157945D01*
X38408Y157950D01*
X38465D01*
X38491Y157945D01*
X38528D01*
X38605Y157934D01*
X38699Y157919D01*
X38803Y157893D01*
X38906Y157862D01*
X39015Y157820D01*
X39021D01*
X39026Y157815D01*
X39042Y157805D01*
X39062Y157794D01*
X39114Y157768D01*
X39182Y157727D01*
X39254Y157675D01*
X39332Y157613D01*
X39410Y157540D01*
X39483Y157457D01*
X39493Y157447D01*
X39514Y157415D01*
X39545Y157363D01*
X39592Y157301D01*
X39638Y157218D01*
X39685Y157120D01*
X39732Y157011D01*
X39773Y156891D01*
Y156886D01*
X39779Y156876D01*
X39784Y156860D01*
X39789Y156834D01*
X39799Y156803D01*
X39810Y156767D01*
X39820Y156725D01*
X39830Y156678D01*
X39846Y156575D01*
X39867Y156455D01*
X39877Y156325D01*
X39882Y156185D01*
Y156175D01*
Y156144D01*
X39877Y156102D01*
Y156040D01*
X39867Y155962D01*
X39856Y155879D01*
X39846Y155780D01*
X39825Y155677D01*
X39804Y155568D01*
X39773Y155459D01*
X39737Y155339D01*
X39695Y155225D01*
X39643Y155111D01*
X39581Y155002D01*
X39514Y154903D01*
X39436Y154805D01*
X39431Y154800D01*
X39415Y154784D01*
X39389Y154758D01*
X39358Y154732D01*
X39317Y154691D01*
X39265Y154654D01*
X39202Y154608D01*
X39140Y154566D01*
X39062Y154519D01*
X38984Y154473D01*
X38896Y154436D01*
X38803Y154400D01*
X38704Y154369D01*
X38600Y154343D01*
X38491Y154327D01*
X38377Y154322D01*
X38351D01*
X38320Y154327D01*
X38279Y154332D01*
X38227Y154338D01*
X38164Y154348D01*
X38097Y154364D01*
X38029Y154384D01*
X37952Y154410D01*
X37874Y154447D01*
X37796Y154488D01*
X37713Y154535D01*
X37635Y154597D01*
X37557Y154665D01*
X37484Y154743D01*
X37417Y154831D01*
Y154400D01*
X36872D01*
Y159190D01*
X37459D01*
Y157483D01*
D02*
G37*
G36*
X26866Y154317D02*
X26393D01*
X27784Y159268D01*
X28257D01*
X26866Y154317D01*
D02*
G37*
G36*
X83717Y166923D02*
X83783Y166918D01*
X83853Y166909D01*
X83938Y166899D01*
X84028Y166880D01*
X84123Y166861D01*
X84217Y166838D01*
X84316Y166809D01*
X84415Y166776D01*
X84514Y166734D01*
X84609Y166682D01*
X84698Y166630D01*
X84779Y166564D01*
X84783Y166559D01*
X84797Y166550D01*
X84816Y166526D01*
X84845Y166498D01*
X84878Y166465D01*
X84915Y166418D01*
X84953Y166370D01*
X84996Y166309D01*
X85033Y166248D01*
X85076Y166172D01*
X85114Y166097D01*
X85151Y166012D01*
X85185Y165917D01*
X85208Y165823D01*
X85227Y165719D01*
X85241Y165611D01*
X84382Y165573D01*
Y165577D01*
Y165587D01*
X84377Y165601D01*
X84373Y165625D01*
X84363Y165681D01*
X84340Y165747D01*
X84311Y165828D01*
X84273Y165903D01*
X84222Y165983D01*
X84155Y166049D01*
X84146Y166059D01*
X84118Y166078D01*
X84075Y166101D01*
X84014Y166134D01*
X83929Y166167D01*
X83835Y166191D01*
X83717Y166210D01*
X83584Y166219D01*
X83523D01*
X83495Y166215D01*
X83457D01*
X83377Y166205D01*
X83292Y166186D01*
X83202Y166163D01*
X83122Y166130D01*
X83084Y166111D01*
X83051Y166087D01*
X83046Y166083D01*
X83027Y166064D01*
X83004Y166035D01*
X82976Y165998D01*
X82942Y165950D01*
X82919Y165894D01*
X82900Y165828D01*
X82895Y165757D01*
Y165747D01*
X82900Y165724D01*
X82905Y165691D01*
X82914Y165648D01*
X82928Y165596D01*
X82957Y165544D01*
X82990Y165492D01*
X83037Y165445D01*
X83046Y165441D01*
X83070Y165422D01*
X83084Y165412D01*
X83108Y165393D01*
X83141Y165379D01*
X83174Y165356D01*
X83211Y165332D01*
X83259Y165308D01*
X83311Y165280D01*
X83372Y165252D01*
X83438Y165219D01*
X83514Y165181D01*
X83594Y165143D01*
X83684Y165105D01*
X83693Y165101D01*
X83717Y165091D01*
X83754Y165072D01*
X83806Y165053D01*
X83863Y165025D01*
X83934Y164992D01*
X84004Y164954D01*
X84085Y164917D01*
X84245Y164832D01*
X84325Y164789D01*
X84406Y164747D01*
X84477Y164699D01*
X84543Y164657D01*
X84599Y164615D01*
X84642Y164577D01*
X84646Y164572D01*
X84656Y164563D01*
X84670Y164549D01*
X84689Y164525D01*
X84712Y164492D01*
X84741Y164459D01*
X84764Y164416D01*
X84797Y164369D01*
X84826Y164317D01*
X84849Y164261D01*
X84878Y164195D01*
X84901Y164128D01*
X84920Y164058D01*
X84934Y163977D01*
X84944Y163897D01*
X84948Y163812D01*
Y163807D01*
Y163789D01*
X84944Y163756D01*
Y163718D01*
X84934Y163666D01*
X84925Y163609D01*
X84911Y163543D01*
X84892Y163472D01*
X84868Y163397D01*
X84835Y163317D01*
X84802Y163236D01*
X84755Y163151D01*
X84703Y163071D01*
X84642Y162986D01*
X84571Y162906D01*
X84491Y162826D01*
X84486Y162821D01*
X84472Y162807D01*
X84443Y162788D01*
X84406Y162764D01*
X84359Y162731D01*
X84302Y162698D01*
X84236Y162661D01*
X84160Y162623D01*
X84075Y162585D01*
X83981Y162547D01*
X83877Y162514D01*
X83764Y162481D01*
X83641Y162458D01*
X83509Y162439D01*
X83367Y162425D01*
X83221Y162420D01*
X83164D01*
X83127Y162425D01*
X83079D01*
X83023Y162429D01*
X82957Y162434D01*
X82891Y162443D01*
X82815Y162453D01*
X82735Y162467D01*
X82574Y162500D01*
X82409Y162547D01*
X82249Y162609D01*
X82244D01*
X82230Y162618D01*
X82211Y162627D01*
X82183Y162642D01*
X82149Y162661D01*
X82112Y162684D01*
X82022Y162745D01*
X81928Y162821D01*
X81829Y162911D01*
X81744Y163014D01*
X81701Y163071D01*
X81668Y163133D01*
Y163137D01*
X81659Y163147D01*
X81654Y163165D01*
X81640Y163194D01*
X81630Y163222D01*
X81616Y163260D01*
X81602Y163307D01*
X81583Y163354D01*
X81569Y163411D01*
X81555Y163468D01*
X81531Y163600D01*
X81517Y163746D01*
X81512Y163907D01*
X82367Y163954D01*
Y163949D01*
Y163935D01*
Y163916D01*
X82371Y163888D01*
X82376Y163855D01*
Y163817D01*
X82390Y163732D01*
X82404Y163637D01*
X82433Y163548D01*
X82461Y163468D01*
X82480Y163430D01*
X82503Y163401D01*
X82508Y163397D01*
X82513Y163392D01*
X82527Y163383D01*
X82541Y163364D01*
X82565Y163350D01*
X82593Y163331D01*
X82626Y163307D01*
X82669Y163288D01*
X82716Y163265D01*
X82768Y163246D01*
X82824Y163222D01*
X82891Y163208D01*
X82966Y163194D01*
X83046Y163180D01*
X83131Y163175D01*
X83226Y163170D01*
X83268D01*
X83297Y163175D01*
X83334D01*
X83377Y163180D01*
X83471Y163189D01*
X83575Y163208D01*
X83684Y163236D01*
X83778Y163274D01*
X83825Y163298D01*
X83863Y163326D01*
X83872Y163335D01*
X83896Y163354D01*
X83924Y163387D01*
X83962Y163430D01*
X84000Y163487D01*
X84028Y163553D01*
X84052Y163623D01*
X84061Y163704D01*
Y163713D01*
Y163737D01*
X84052Y163774D01*
X84042Y163817D01*
X84023Y163869D01*
X83995Y163925D01*
X83953Y163982D01*
X83901Y164034D01*
X83896Y164039D01*
X83877Y164053D01*
X83858Y164062D01*
X83839Y164076D01*
X83811Y164091D01*
X83783Y164110D01*
X83745Y164133D01*
X83698Y164157D01*
X83650Y164180D01*
X83589Y164209D01*
X83523Y164242D01*
X83452Y164275D01*
X83367Y164313D01*
X83278Y164350D01*
X83273Y164355D01*
X83254Y164360D01*
X83230Y164374D01*
X83197Y164388D01*
X83155Y164407D01*
X83108Y164430D01*
X83051Y164454D01*
X82994Y164478D01*
X82876Y164539D01*
X82754Y164600D01*
X82636Y164662D01*
X82584Y164690D01*
X82537Y164718D01*
X82532D01*
X82527Y164723D01*
X82499Y164747D01*
X82456Y164775D01*
X82404Y164822D01*
X82348Y164874D01*
X82286Y164940D01*
X82225Y165016D01*
X82173Y165101D01*
Y165105D01*
X82168Y165110D01*
X82159Y165124D01*
X82154Y165143D01*
X82131Y165190D01*
X82107Y165257D01*
X82083Y165337D01*
X82060Y165431D01*
X82046Y165535D01*
X82041Y165648D01*
Y165653D01*
Y165672D01*
X82046Y165700D01*
Y165743D01*
X82055Y165790D01*
X82060Y165842D01*
X82074Y165903D01*
X82093Y165969D01*
X82112Y166040D01*
X82140Y166115D01*
X82168Y166191D01*
X82206Y166267D01*
X82253Y166347D01*
X82305Y166422D01*
X82367Y166493D01*
X82437Y166564D01*
X82442Y166569D01*
X82456Y166578D01*
X82480Y166597D01*
X82513Y166621D01*
X82551Y166649D01*
X82603Y166677D01*
X82664Y166710D01*
X82730Y166748D01*
X82806Y166781D01*
X82895Y166814D01*
X82990Y166842D01*
X83089Y166871D01*
X83202Y166894D01*
X83325Y166913D01*
X83452Y166923D01*
X83589Y166927D01*
X83665D01*
X83717Y166923D01*
D02*
G37*
G36*
X47873D02*
X47939Y166918D01*
X48010Y166909D01*
X48095Y166899D01*
X48184Y166880D01*
X48279Y166861D01*
X48373Y166838D01*
X48472Y166809D01*
X48571Y166776D01*
X48671Y166734D01*
X48765Y166682D01*
X48855Y166630D01*
X48935Y166564D01*
X48940Y166559D01*
X48954Y166550D01*
X48973Y166526D01*
X49001Y166498D01*
X49034Y166465D01*
X49072Y166418D01*
X49110Y166370D01*
X49152Y166309D01*
X49190Y166248D01*
X49232Y166172D01*
X49270Y166097D01*
X49308Y166012D01*
X49341Y165917D01*
X49364Y165823D01*
X49383Y165719D01*
X49397Y165611D01*
X48538Y165573D01*
Y165577D01*
Y165587D01*
X48534Y165601D01*
X48529Y165625D01*
X48520Y165681D01*
X48496Y165747D01*
X48468Y165828D01*
X48430Y165903D01*
X48378Y165983D01*
X48312Y166049D01*
X48302Y166059D01*
X48274Y166078D01*
X48232Y166101D01*
X48170Y166134D01*
X48085Y166167D01*
X47991Y166191D01*
X47873Y166210D01*
X47741Y166219D01*
X47679D01*
X47651Y166215D01*
X47613D01*
X47533Y166205D01*
X47448Y166186D01*
X47358Y166163D01*
X47278Y166130D01*
X47240Y166111D01*
X47207Y166087D01*
X47203Y166083D01*
X47184Y166064D01*
X47160Y166035D01*
X47132Y165998D01*
X47099Y165950D01*
X47075Y165894D01*
X47056Y165828D01*
X47052Y165757D01*
Y165747D01*
X47056Y165724D01*
X47061Y165691D01*
X47071Y165648D01*
X47085Y165596D01*
X47113Y165544D01*
X47146Y165492D01*
X47193Y165445D01*
X47203Y165441D01*
X47226Y165422D01*
X47240Y165412D01*
X47264Y165393D01*
X47297Y165379D01*
X47330Y165356D01*
X47368Y165332D01*
X47415Y165308D01*
X47467Y165280D01*
X47528Y165252D01*
X47594Y165219D01*
X47670Y165181D01*
X47750Y165143D01*
X47840Y165105D01*
X47849Y165101D01*
X47873Y165091D01*
X47911Y165072D01*
X47963Y165053D01*
X48019Y165025D01*
X48090Y164992D01*
X48161Y164954D01*
X48241Y164917D01*
X48401Y164832D01*
X48482Y164789D01*
X48562Y164747D01*
X48633Y164699D01*
X48699Y164657D01*
X48755Y164615D01*
X48798Y164577D01*
X48803Y164572D01*
X48812Y164563D01*
X48826Y164549D01*
X48845Y164525D01*
X48869Y164492D01*
X48897Y164459D01*
X48921Y164416D01*
X48954Y164369D01*
X48982Y164317D01*
X49006Y164261D01*
X49034Y164195D01*
X49058Y164128D01*
X49077Y164058D01*
X49091Y163977D01*
X49100Y163897D01*
X49105Y163812D01*
Y163807D01*
Y163789D01*
X49100Y163756D01*
Y163718D01*
X49091Y163666D01*
X49081Y163609D01*
X49067Y163543D01*
X49048Y163472D01*
X49025Y163397D01*
X48992Y163317D01*
X48959Y163236D01*
X48911Y163151D01*
X48859Y163071D01*
X48798Y162986D01*
X48727Y162906D01*
X48647Y162826D01*
X48642Y162821D01*
X48628Y162807D01*
X48600Y162788D01*
X48562Y162764D01*
X48515Y162731D01*
X48458Y162698D01*
X48392Y162661D01*
X48317Y162623D01*
X48232Y162585D01*
X48137Y162547D01*
X48033Y162514D01*
X47920Y162481D01*
X47797Y162458D01*
X47665Y162439D01*
X47524Y162425D01*
X47377Y162420D01*
X47321D01*
X47283Y162425D01*
X47236D01*
X47179Y162429D01*
X47113Y162434D01*
X47047Y162443D01*
X46971Y162453D01*
X46891Y162467D01*
X46731Y162500D01*
X46565Y162547D01*
X46405Y162609D01*
X46400D01*
X46386Y162618D01*
X46367Y162627D01*
X46339Y162642D01*
X46306Y162661D01*
X46268Y162684D01*
X46178Y162745D01*
X46084Y162821D01*
X45985Y162911D01*
X45900Y163014D01*
X45857Y163071D01*
X45824Y163133D01*
Y163137D01*
X45815Y163147D01*
X45810Y163165D01*
X45796Y163194D01*
X45787Y163222D01*
X45772Y163260D01*
X45758Y163307D01*
X45739Y163354D01*
X45725Y163411D01*
X45711Y163468D01*
X45687Y163600D01*
X45673Y163746D01*
X45669Y163907D01*
X46523Y163954D01*
Y163949D01*
Y163935D01*
Y163916D01*
X46528Y163888D01*
X46532Y163855D01*
Y163817D01*
X46547Y163732D01*
X46561Y163637D01*
X46589Y163548D01*
X46617Y163468D01*
X46636Y163430D01*
X46660Y163401D01*
X46665Y163397D01*
X46669Y163392D01*
X46683Y163383D01*
X46698Y163364D01*
X46721Y163350D01*
X46749Y163331D01*
X46783Y163307D01*
X46825Y163288D01*
X46872Y163265D01*
X46924Y163246D01*
X46981Y163222D01*
X47047Y163208D01*
X47122Y163194D01*
X47203Y163180D01*
X47288Y163175D01*
X47382Y163170D01*
X47425D01*
X47453Y163175D01*
X47491D01*
X47533Y163180D01*
X47627Y163189D01*
X47731Y163208D01*
X47840Y163236D01*
X47934Y163274D01*
X47981Y163298D01*
X48019Y163326D01*
X48029Y163335D01*
X48052Y163354D01*
X48081Y163387D01*
X48118Y163430D01*
X48156Y163487D01*
X48184Y163553D01*
X48208Y163623D01*
X48217Y163704D01*
Y163713D01*
Y163737D01*
X48208Y163774D01*
X48199Y163817D01*
X48180Y163869D01*
X48151Y163925D01*
X48109Y163982D01*
X48057Y164034D01*
X48052Y164039D01*
X48033Y164053D01*
X48015Y164062D01*
X47996Y164076D01*
X47967Y164091D01*
X47939Y164110D01*
X47901Y164133D01*
X47854Y164157D01*
X47807Y164180D01*
X47745Y164209D01*
X47679Y164242D01*
X47609Y164275D01*
X47524Y164313D01*
X47434Y164350D01*
X47429Y164355D01*
X47410Y164360D01*
X47387Y164374D01*
X47354Y164388D01*
X47311Y164407D01*
X47264Y164430D01*
X47207Y164454D01*
X47151Y164478D01*
X47033Y164539D01*
X46910Y164600D01*
X46792Y164662D01*
X46740Y164690D01*
X46693Y164718D01*
X46688D01*
X46683Y164723D01*
X46655Y164747D01*
X46613Y164775D01*
X46561Y164822D01*
X46504Y164874D01*
X46443Y164940D01*
X46381Y165016D01*
X46329Y165101D01*
Y165105D01*
X46325Y165110D01*
X46315Y165124D01*
X46311Y165143D01*
X46287Y165190D01*
X46263Y165257D01*
X46240Y165337D01*
X46216Y165431D01*
X46202Y165535D01*
X46197Y165648D01*
Y165653D01*
Y165672D01*
X46202Y165700D01*
Y165743D01*
X46211Y165790D01*
X46216Y165842D01*
X46230Y165903D01*
X46249Y165969D01*
X46268Y166040D01*
X46296Y166115D01*
X46325Y166191D01*
X46363Y166267D01*
X46410Y166347D01*
X46462Y166422D01*
X46523Y166493D01*
X46594Y166564D01*
X46599Y166569D01*
X46613Y166578D01*
X46636Y166597D01*
X46669Y166621D01*
X46707Y166649D01*
X46759Y166677D01*
X46820Y166710D01*
X46886Y166748D01*
X46962Y166781D01*
X47052Y166814D01*
X47146Y166842D01*
X47245Y166871D01*
X47358Y166894D01*
X47481Y166913D01*
X47609Y166923D01*
X47745Y166927D01*
X47821D01*
X47873Y166923D01*
D02*
G37*
G36*
X27398D02*
X27459Y166918D01*
X27534Y166909D01*
X27615Y166899D01*
X27704Y166885D01*
X27799Y166866D01*
X27898Y166842D01*
X27997Y166814D01*
X28101Y166776D01*
X28200Y166739D01*
X28294Y166691D01*
X28389Y166635D01*
X28478Y166573D01*
X28483Y166569D01*
X28497Y166559D01*
X28521Y166536D01*
X28554Y166507D01*
X28592Y166474D01*
X28629Y166427D01*
X28677Y166375D01*
X28729Y166314D01*
X28776Y166248D01*
X28828Y166172D01*
X28880Y166087D01*
X28927Y165998D01*
X28974Y165898D01*
X29017Y165790D01*
X29054Y165677D01*
X29087Y165554D01*
X28252Y165459D01*
Y165464D01*
X28247Y165474D01*
X28238Y165492D01*
X28228Y165521D01*
X28219Y165549D01*
X28205Y165587D01*
X28167Y165667D01*
X28115Y165752D01*
X28054Y165847D01*
X27978Y165936D01*
X27893Y166012D01*
X27888D01*
X27884Y166021D01*
X27869Y166031D01*
X27851Y166040D01*
X27827Y166054D01*
X27794Y166073D01*
X27723Y166106D01*
X27634Y166139D01*
X27530Y166172D01*
X27412Y166191D01*
X27279Y166200D01*
X27237D01*
X27204Y166196D01*
X27166D01*
X27124Y166191D01*
X27072Y166182D01*
X27015Y166172D01*
X26893Y166144D01*
X26760Y166106D01*
X26619Y166049D01*
X26553Y166012D01*
X26482Y165974D01*
X26477Y165969D01*
X26468Y165964D01*
X26449Y165950D01*
X26421Y165931D01*
X26392Y165908D01*
X26354Y165879D01*
X26317Y165842D01*
X26274Y165804D01*
X26232Y165757D01*
X26184Y165705D01*
X26137Y165648D01*
X26090Y165582D01*
X26043Y165516D01*
X26000Y165441D01*
X25953Y165360D01*
X25915Y165275D01*
Y165271D01*
X25906Y165257D01*
X25897Y165228D01*
X25882Y165195D01*
X25868Y165148D01*
X25849Y165096D01*
X25835Y165035D01*
X25816Y164969D01*
X25797Y164898D01*
X25779Y164818D01*
X25760Y164733D01*
X25745Y164638D01*
X25722Y164449D01*
X25717Y164346D01*
X25712Y164242D01*
Y164237D01*
Y164218D01*
Y164190D01*
X25717Y164152D01*
X25722Y164105D01*
X25727Y164053D01*
X25731Y163996D01*
X25745Y163935D01*
X25774Y163803D01*
X25816Y163671D01*
X25845Y163604D01*
X25882Y163543D01*
X25920Y163482D01*
X25963Y163430D01*
X25967Y163425D01*
X25977Y163420D01*
X25991Y163406D01*
X26010Y163387D01*
X26033Y163368D01*
X26066Y163350D01*
X26104Y163326D01*
X26147Y163302D01*
X26199Y163274D01*
X26251Y163251D01*
X26312Y163232D01*
X26378Y163213D01*
X26449Y163194D01*
X26524Y163180D01*
X26605Y163175D01*
X26694Y163170D01*
X26746D01*
X26770Y163175D01*
X26803D01*
X26878Y163180D01*
X26963Y163189D01*
X27067Y163203D01*
X27171Y163222D01*
X27284Y163251D01*
X27289D01*
X27298Y163255D01*
X27313Y163260D01*
X27336Y163265D01*
X27365Y163274D01*
X27393Y163284D01*
X27464Y163307D01*
X27549Y163335D01*
X27638Y163368D01*
X27728Y163401D01*
X27813Y163444D01*
X27950Y164095D01*
X26831D01*
X26982Y164822D01*
X28931D01*
X28540Y162948D01*
X28535Y162944D01*
X28526Y162939D01*
X28507Y162925D01*
X28478Y162911D01*
X28445Y162892D01*
X28403Y162868D01*
X28356Y162845D01*
X28304Y162816D01*
X28247Y162788D01*
X28181Y162760D01*
X28110Y162727D01*
X28035Y162694D01*
X27955Y162665D01*
X27869Y162632D01*
X27690Y162571D01*
X27685D01*
X27667Y162566D01*
X27643Y162557D01*
X27605Y162547D01*
X27558Y162538D01*
X27506Y162524D01*
X27445Y162509D01*
X27374Y162495D01*
X27303Y162481D01*
X27223Y162467D01*
X27048Y162443D01*
X26864Y162425D01*
X26671Y162420D01*
X26638D01*
X26595Y162425D01*
X26539D01*
X26472Y162429D01*
X26392Y162439D01*
X26307Y162448D01*
X26213Y162467D01*
X26114Y162486D01*
X26015Y162509D01*
X25911Y162538D01*
X25807Y162575D01*
X25703Y162613D01*
X25609Y162665D01*
X25514Y162717D01*
X25429Y162783D01*
X25425Y162788D01*
X25406Y162807D01*
X25377Y162835D01*
X25340Y162878D01*
X25292Y162929D01*
X25245Y162991D01*
X25193Y163066D01*
X25137Y163151D01*
X25080Y163251D01*
X25028Y163359D01*
X24981Y163477D01*
X24934Y163604D01*
X24896Y163746D01*
X24868Y163897D01*
X24849Y164058D01*
X24844Y164232D01*
Y164242D01*
Y164261D01*
Y164294D01*
X24849Y164341D01*
X24853Y164397D01*
X24858Y164463D01*
X24863Y164539D01*
X24877Y164624D01*
X24886Y164714D01*
X24905Y164808D01*
X24924Y164912D01*
X24948Y165016D01*
X24976Y165124D01*
X25014Y165233D01*
X25052Y165341D01*
X25094Y165450D01*
X25099Y165459D01*
X25108Y165483D01*
X25127Y165516D01*
X25151Y165568D01*
X25179Y165625D01*
X25222Y165695D01*
X25264Y165771D01*
X25316Y165851D01*
X25373Y165936D01*
X25439Y166026D01*
X25510Y166115D01*
X25585Y166205D01*
X25665Y166295D01*
X25755Y166385D01*
X25854Y166465D01*
X25953Y166540D01*
X25958Y166545D01*
X25977Y166559D01*
X26010Y166578D01*
X26052Y166602D01*
X26109Y166630D01*
X26170Y166663D01*
X26246Y166696D01*
X26331Y166734D01*
X26421Y166772D01*
X26520Y166805D01*
X26628Y166838D01*
X26746Y166866D01*
X26869Y166890D01*
X26996Y166913D01*
X27133Y166923D01*
X27270Y166927D01*
X27341D01*
X27398Y166923D01*
D02*
G37*
G36*
X52281D02*
X52333D01*
X52395Y166918D01*
X52461Y166909D01*
X52541Y166894D01*
X52626Y166880D01*
X52711Y166861D01*
X52805Y166833D01*
X52900Y166805D01*
X52994Y166767D01*
X53093Y166724D01*
X53183Y166673D01*
X53273Y166611D01*
X53357Y166545D01*
X53362Y166540D01*
X53376Y166526D01*
X53400Y166507D01*
X53428Y166474D01*
X53461Y166437D01*
X53499Y166389D01*
X53542Y166337D01*
X53589Y166276D01*
X53631Y166205D01*
X53679Y166125D01*
X53721Y166040D01*
X53763Y165950D01*
X53801Y165851D01*
X53829Y165743D01*
X53858Y165629D01*
X53877Y165511D01*
X53018Y165431D01*
Y165436D01*
X53013Y165450D01*
X53008Y165469D01*
X53004Y165492D01*
X52994Y165525D01*
X52985Y165559D01*
X52956Y165644D01*
X52919Y165733D01*
X52867Y165823D01*
X52810Y165908D01*
X52777Y165946D01*
X52739Y165979D01*
X52730Y165988D01*
X52701Y166007D01*
X52659Y166035D01*
X52598Y166068D01*
X52517Y166097D01*
X52428Y166125D01*
X52319Y166144D01*
X52201Y166153D01*
X52163D01*
X52140Y166149D01*
X52107D01*
X52064Y166144D01*
X52022Y166134D01*
X51975Y166125D01*
X51866Y166097D01*
X51753Y166059D01*
X51630Y166002D01*
X51569Y165964D01*
X51507Y165927D01*
X51503Y165922D01*
X51493Y165917D01*
X51474Y165903D01*
X51455Y165884D01*
X51427Y165861D01*
X51394Y165828D01*
X51361Y165795D01*
X51323Y165752D01*
X51281Y165705D01*
X51243Y165653D01*
X51196Y165596D01*
X51153Y165535D01*
X51111Y165464D01*
X51068Y165389D01*
X51031Y165308D01*
X50993Y165219D01*
Y165214D01*
X50983Y165195D01*
X50974Y165172D01*
X50964Y165138D01*
X50950Y165091D01*
X50931Y165044D01*
X50917Y164983D01*
X50898Y164921D01*
X50880Y164851D01*
X50865Y164775D01*
X50832Y164615D01*
X50813Y164440D01*
X50804Y164261D01*
Y164256D01*
Y164237D01*
Y164209D01*
X50809Y164176D01*
X50813Y164128D01*
X50818Y164081D01*
X50823Y164025D01*
X50837Y163963D01*
X50865Y163836D01*
X50908Y163699D01*
X50936Y163633D01*
X50974Y163571D01*
X51012Y163510D01*
X51054Y163453D01*
X51059Y163449D01*
X51064Y163439D01*
X51078Y163425D01*
X51101Y163411D01*
X51125Y163387D01*
X51153Y163364D01*
X51186Y163340D01*
X51224Y163312D01*
X51319Y163260D01*
X51422Y163213D01*
X51484Y163199D01*
X51545Y163184D01*
X51611Y163175D01*
X51677Y163170D01*
X51710D01*
X51739Y163175D01*
X51767D01*
X51805Y163184D01*
X51890Y163199D01*
X51989Y163227D01*
X52093Y163265D01*
X52206Y163321D01*
X52258Y163354D01*
X52314Y163392D01*
X52319Y163397D01*
X52329Y163401D01*
X52343Y163416D01*
X52362Y163435D01*
X52385Y163458D01*
X52413Y163487D01*
X52442Y163520D01*
X52475Y163562D01*
X52513Y163604D01*
X52546Y163656D01*
X52583Y163708D01*
X52621Y163770D01*
X52654Y163836D01*
X52687Y163907D01*
X52720Y163982D01*
X52749Y164062D01*
X53650Y163925D01*
X53645Y163916D01*
X53636Y163892D01*
X53622Y163855D01*
X53598Y163803D01*
X53570Y163741D01*
X53537Y163671D01*
X53494Y163595D01*
X53452Y163510D01*
X53395Y163420D01*
X53339Y163326D01*
X53273Y163236D01*
X53202Y163142D01*
X53122Y163048D01*
X53037Y162963D01*
X52947Y162878D01*
X52852Y162802D01*
X52848Y162797D01*
X52829Y162788D01*
X52801Y162769D01*
X52758Y162741D01*
X52706Y162712D01*
X52649Y162679D01*
X52579Y162646D01*
X52499Y162613D01*
X52413Y162575D01*
X52319Y162542D01*
X52215Y162509D01*
X52107Y162481D01*
X51993Y162458D01*
X51871Y162439D01*
X51748Y162425D01*
X51616Y162420D01*
X51583D01*
X51540Y162425D01*
X51484Y162429D01*
X51418Y162434D01*
X51337Y162443D01*
X51252Y162458D01*
X51158Y162481D01*
X51059Y162505D01*
X50960Y162538D01*
X50856Y162575D01*
X50752Y162623D01*
X50648Y162675D01*
X50549Y162741D01*
X50455Y162812D01*
X50365Y162897D01*
X50360Y162901D01*
X50346Y162920D01*
X50323Y162948D01*
X50294Y162986D01*
X50261Y163038D01*
X50223Y163099D01*
X50181Y163170D01*
X50143Y163251D01*
X50101Y163345D01*
X50058Y163449D01*
X50020Y163562D01*
X49987Y163689D01*
X49959Y163826D01*
X49935Y163973D01*
X49921Y164128D01*
X49917Y164294D01*
Y164303D01*
Y164327D01*
Y164364D01*
X49921Y164421D01*
X49926Y164487D01*
X49931Y164563D01*
X49940Y164648D01*
X49954Y164742D01*
X49969Y164846D01*
X49987Y164954D01*
X50016Y165068D01*
X50044Y165181D01*
X50077Y165299D01*
X50115Y165417D01*
X50162Y165535D01*
X50214Y165653D01*
X50219Y165662D01*
X50228Y165681D01*
X50247Y165714D01*
X50271Y165757D01*
X50299Y165809D01*
X50337Y165865D01*
X50384Y165931D01*
X50431Y166002D01*
X50488Y166078D01*
X50549Y166153D01*
X50620Y166234D01*
X50695Y166314D01*
X50776Y166389D01*
X50861Y166465D01*
X50950Y166531D01*
X51049Y166597D01*
X51054Y166602D01*
X51073Y166611D01*
X51101Y166625D01*
X51144Y166649D01*
X51196Y166673D01*
X51252Y166701D01*
X51323Y166734D01*
X51399Y166762D01*
X51479Y166795D01*
X51569Y166823D01*
X51668Y166852D01*
X51767Y166875D01*
X51875Y166899D01*
X51984Y166913D01*
X52097Y166923D01*
X52215Y166927D01*
X52248D01*
X52281Y166923D01*
D02*
G37*
G36*
X16438Y166871D02*
X16490Y166866D01*
X16546Y166857D01*
X16608Y166847D01*
X16678Y166833D01*
X16749Y166814D01*
X16825Y166795D01*
X16900Y166767D01*
X16976Y166734D01*
X17051Y166696D01*
X17122Y166649D01*
X17188Y166602D01*
X17249Y166540D01*
X17254Y166536D01*
X17264Y166526D01*
X17278Y166507D01*
X17301Y166479D01*
X17325Y166451D01*
X17349Y166408D01*
X17377Y166366D01*
X17410Y166314D01*
X17438Y166257D01*
X17467Y166196D01*
X17490Y166130D01*
X17519Y166059D01*
X17537Y165983D01*
X17552Y165908D01*
X17561Y165823D01*
X17566Y165738D01*
Y165733D01*
Y165724D01*
Y165705D01*
X17561Y165681D01*
Y165653D01*
X17556Y165615D01*
X17542Y165535D01*
X17519Y165441D01*
X17481Y165337D01*
X17429Y165228D01*
X17401Y165176D01*
X17363Y165124D01*
Y165120D01*
X17353Y165110D01*
X17344Y165101D01*
X17325Y165082D01*
X17283Y165030D01*
X17221Y164973D01*
X17141Y164907D01*
X17051Y164841D01*
X16943Y164775D01*
X16820Y164723D01*
X16825D01*
X16834Y164718D01*
X16848Y164709D01*
X16867Y164695D01*
X16914Y164666D01*
X16976Y164619D01*
X17042Y164567D01*
X17108Y164501D01*
X17169Y164426D01*
X17226Y164341D01*
Y164336D01*
X17231Y164331D01*
X17240Y164317D01*
X17245Y164303D01*
X17268Y164256D01*
X17292Y164195D01*
X17316Y164124D01*
X17339Y164039D01*
X17353Y163954D01*
X17358Y163859D01*
Y163855D01*
Y163836D01*
Y163812D01*
X17353Y163779D01*
X17349Y163737D01*
X17339Y163685D01*
X17330Y163628D01*
X17316Y163567D01*
X17297Y163501D01*
X17273Y163430D01*
X17245Y163359D01*
X17212Y163284D01*
X17174Y163203D01*
X17127Y163128D01*
X17075Y163048D01*
X17014Y162972D01*
X17009Y162967D01*
X16990Y162948D01*
X16966Y162920D01*
X16929Y162887D01*
X16881Y162845D01*
X16825Y162797D01*
X16763Y162745D01*
X16688Y162698D01*
X16608Y162646D01*
X16513Y162594D01*
X16414Y162547D01*
X16310Y162505D01*
X16192Y162472D01*
X16074Y162443D01*
X15947Y162425D01*
X15810Y162420D01*
X15758D01*
X15720Y162425D01*
X15673Y162429D01*
X15616Y162439D01*
X15555Y162448D01*
X15489Y162458D01*
X15343Y162495D01*
X15267Y162519D01*
X15192Y162552D01*
X15116Y162585D01*
X15041Y162627D01*
X14970Y162675D01*
X14899Y162731D01*
X14894Y162736D01*
X14885Y162745D01*
X14866Y162764D01*
X14842Y162788D01*
X14814Y162821D01*
X14781Y162863D01*
X14748Y162911D01*
X14710Y162963D01*
X14672Y163024D01*
X14635Y163090D01*
X14597Y163161D01*
X14564Y163241D01*
X14531Y163331D01*
X14507Y163425D01*
X14484Y163524D01*
X14465Y163628D01*
X15281Y163727D01*
Y163723D01*
X15286Y163713D01*
Y163694D01*
X15291Y163671D01*
X15295Y163642D01*
X15305Y163609D01*
X15324Y163538D01*
X15347Y163458D01*
X15376Y163378D01*
X15413Y163302D01*
X15437Y163274D01*
X15461Y163246D01*
X15465Y163241D01*
X15484Y163227D01*
X15513Y163203D01*
X15555Y163180D01*
X15607Y163156D01*
X15664Y163133D01*
X15734Y163118D01*
X15815Y163114D01*
X15843D01*
X15862Y163118D01*
X15919Y163123D01*
X15985Y163137D01*
X16060Y163161D01*
X16145Y163194D01*
X16225Y163241D01*
X16301Y163307D01*
X16310Y163317D01*
X16329Y163345D01*
X16362Y163387D01*
X16400Y163444D01*
X16433Y163520D01*
X16466Y163604D01*
X16485Y163704D01*
X16494Y163812D01*
Y163817D01*
Y163826D01*
Y163836D01*
Y163855D01*
X16485Y163902D01*
X16475Y163963D01*
X16457Y164029D01*
X16428Y164100D01*
X16390Y164171D01*
X16339Y164232D01*
X16334Y164237D01*
X16310Y164256D01*
X16277Y164284D01*
X16230Y164313D01*
X16169Y164341D01*
X16098Y164369D01*
X16013Y164388D01*
X15919Y164393D01*
X15881D01*
X15838Y164388D01*
X15786Y164379D01*
X15933Y165091D01*
X15961D01*
X15985Y165087D01*
X16051D01*
X16074Y165091D01*
X16103D01*
X16136Y165096D01*
X16211Y165110D01*
X16296Y165129D01*
X16386Y165162D01*
X16466Y165205D01*
X16542Y165261D01*
X16551Y165271D01*
X16570Y165294D01*
X16598Y165332D01*
X16631Y165384D01*
X16664Y165455D01*
X16693Y165535D01*
X16711Y165629D01*
X16721Y165733D01*
Y165738D01*
Y165743D01*
Y165766D01*
X16716Y165809D01*
X16707Y165856D01*
X16693Y165908D01*
X16669Y165964D01*
X16641Y166021D01*
X16598Y166068D01*
X16593Y166073D01*
X16575Y166087D01*
X16551Y166111D01*
X16513Y166134D01*
X16466Y166153D01*
X16414Y166177D01*
X16353Y166191D01*
X16282Y166196D01*
X16249D01*
X16216Y166191D01*
X16173Y166177D01*
X16121Y166163D01*
X16065Y166139D01*
X16008Y166106D01*
X15951Y166059D01*
X15947Y166054D01*
X15928Y166031D01*
X15900Y165998D01*
X15867Y165950D01*
X15829Y165884D01*
X15791Y165804D01*
X15753Y165710D01*
X15720Y165596D01*
X14941Y165747D01*
Y165752D01*
X14946Y165771D01*
X14956Y165795D01*
X14970Y165828D01*
X14984Y165865D01*
X15003Y165913D01*
X15022Y165964D01*
X15050Y166021D01*
X15107Y166139D01*
X15177Y166262D01*
X15258Y166380D01*
X15305Y166437D01*
X15352Y166488D01*
X15357Y166493D01*
X15371Y166507D01*
X15395Y166526D01*
X15423Y166550D01*
X15465Y166578D01*
X15508Y166611D01*
X15564Y166644D01*
X15626Y166682D01*
X15697Y166720D01*
X15767Y166753D01*
X15852Y166786D01*
X15937Y166814D01*
X16032Y166838D01*
X16126Y166861D01*
X16230Y166871D01*
X16339Y166875D01*
X16395D01*
X16438Y166871D01*
D02*
G37*
G36*
X34690Y164015D02*
X35488Y162500D01*
X34581D01*
X34124Y163378D01*
X33345Y162500D01*
X32297D01*
X33746Y164119D01*
X32948Y165658D01*
X33854D01*
X34312Y164766D01*
X35110Y165658D01*
X36148D01*
X34690Y164015D01*
D02*
G37*
G36*
X23187D02*
X23985Y162500D01*
X23079D01*
X22621Y163378D01*
X21842Y162500D01*
X20794D01*
X22243Y164119D01*
X21446Y165658D01*
X22352D01*
X22810Y164766D01*
X23607Y165658D01*
X24646D01*
X23187Y164015D01*
D02*
G37*
G36*
X81305Y166130D02*
X78973D01*
X78756Y165138D01*
X81021D01*
X80870Y164412D01*
X78595D01*
X78336Y163227D01*
X80875D01*
X80719Y162500D01*
X77316D01*
X78223Y166857D01*
X81456D01*
X81305Y166130D01*
D02*
G37*
G36*
X75386Y166852D02*
X75490Y166847D01*
X75537D01*
X75579Y166842D01*
X75617D01*
X75645Y166838D01*
X75660D01*
X75674Y166833D01*
X75693D01*
X75744Y166828D01*
X75811Y166814D01*
X75886Y166800D01*
X75966Y166781D01*
X76051Y166757D01*
X76131Y166729D01*
X76136D01*
X76141Y166724D01*
X76169Y166715D01*
X76207Y166696D01*
X76259Y166668D01*
X76320Y166635D01*
X76386Y166592D01*
X76452Y166545D01*
X76519Y166493D01*
X76528Y166488D01*
X76547Y166465D01*
X76580Y166437D01*
X76622Y166394D01*
X76670Y166342D01*
X76717Y166281D01*
X76769Y166210D01*
X76816Y166134D01*
X76821Y166125D01*
X76835Y166097D01*
X76858Y166054D01*
X76887Y165993D01*
X76920Y165922D01*
X76953Y165842D01*
X76986Y165747D01*
X77014Y165648D01*
Y165644D01*
X77019Y165634D01*
Y165620D01*
X77024Y165601D01*
X77033Y165573D01*
X77038Y165544D01*
X77052Y165469D01*
X77061Y165384D01*
X77075Y165280D01*
X77080Y165167D01*
X77085Y165049D01*
Y165039D01*
Y165016D01*
Y164978D01*
X77080Y164931D01*
X77075Y164869D01*
X77071Y164794D01*
X77061Y164714D01*
X77052Y164629D01*
X77038Y164530D01*
X77019Y164430D01*
X76995Y164327D01*
X76972Y164223D01*
X76939Y164114D01*
X76901Y164006D01*
X76858Y163897D01*
X76811Y163793D01*
X76806Y163789D01*
X76797Y163770D01*
X76783Y163741D01*
X76764Y163704D01*
X76736Y163656D01*
X76703Y163604D01*
X76670Y163548D01*
X76627Y163482D01*
X76580Y163416D01*
X76528Y163345D01*
X76415Y163199D01*
X76283Y163057D01*
X76212Y162991D01*
X76136Y162929D01*
X76131Y162925D01*
X76122Y162920D01*
X76103Y162906D01*
X76080Y162892D01*
X76051Y162868D01*
X76013Y162845D01*
X75966Y162821D01*
X75919Y162793D01*
X75862Y162764D01*
X75801Y162731D01*
X75735Y162703D01*
X75664Y162670D01*
X75589Y162642D01*
X75508Y162613D01*
X75329Y162561D01*
X75324D01*
X75315Y162557D01*
X75301D01*
X75277Y162552D01*
X75249Y162547D01*
X75211Y162542D01*
X75169Y162538D01*
X75117Y162533D01*
X75060Y162524D01*
X74999Y162519D01*
X74928Y162514D01*
X74848Y162509D01*
X74767Y162505D01*
X74673D01*
X74574Y162500D01*
X72931D01*
X73838Y166857D01*
X75282D01*
X75386Y166852D01*
D02*
G37*
G36*
X69608Y166130D02*
X67461D01*
X67244Y165082D01*
X69349D01*
X69198Y164355D01*
X67093D01*
X66706Y162500D01*
X65809D01*
X66715Y166857D01*
X69764D01*
X69608Y166130D01*
D02*
G37*
G36*
X65752D02*
X63421D01*
X63203Y165138D01*
X65469D01*
X65318Y164412D01*
X63043D01*
X62783Y163227D01*
X65323D01*
X65167Y162500D01*
X61764D01*
X62670Y166857D01*
X65903D01*
X65752Y166130D01*
D02*
G37*
G36*
X60353Y166852D02*
X60404D01*
X60456Y166847D01*
X60513Y166842D01*
X60641Y166833D01*
X60768Y166814D01*
X60891Y166786D01*
X60952Y166772D01*
X61004Y166753D01*
X61009D01*
X61018Y166748D01*
X61032Y166743D01*
X61051Y166734D01*
X61103Y166706D01*
X61164Y166668D01*
X61235Y166616D01*
X61311Y166550D01*
X61386Y166470D01*
X61452Y166375D01*
Y166370D01*
X61462Y166361D01*
X61466Y166347D01*
X61481Y166328D01*
X61495Y166300D01*
X61509Y166267D01*
X61523Y166234D01*
X61542Y166191D01*
X61570Y166092D01*
X61599Y165983D01*
X61617Y165856D01*
X61627Y165714D01*
Y165710D01*
Y165691D01*
Y165662D01*
X61622Y165620D01*
X61617Y165573D01*
X61608Y165521D01*
X61599Y165459D01*
X61585Y165389D01*
X61566Y165318D01*
X61547Y165247D01*
X61518Y165167D01*
X61485Y165091D01*
X61448Y165016D01*
X61400Y164940D01*
X61353Y164865D01*
X61292Y164794D01*
X61287Y164789D01*
X61278Y164780D01*
X61259Y164761D01*
X61230Y164737D01*
X61193Y164709D01*
X61150Y164676D01*
X61098Y164643D01*
X61042Y164605D01*
X60971Y164567D01*
X60900Y164530D01*
X60815Y164492D01*
X60725Y164454D01*
X60626Y164421D01*
X60518Y164393D01*
X60404Y164369D01*
X60282Y164350D01*
X60291Y164346D01*
X60310Y164322D01*
X60343Y164289D01*
X60390Y164242D01*
X60438Y164180D01*
X60494Y164110D01*
X60551Y164029D01*
X60607Y163940D01*
X60612Y163935D01*
X60622Y163916D01*
X60636Y163888D01*
X60659Y163845D01*
X60688Y163793D01*
X60721Y163727D01*
X60759Y163656D01*
X60801Y163567D01*
X60848Y163472D01*
X60900Y163364D01*
X60957Y163246D01*
X61018Y163118D01*
X61079Y162977D01*
X61141Y162830D01*
X61207Y162670D01*
X61278Y162500D01*
X60315D01*
Y162505D01*
X60310Y162519D01*
X60301Y162538D01*
X60291Y162571D01*
X60277Y162609D01*
X60258Y162656D01*
X60239Y162717D01*
X60216Y162783D01*
X60183Y162859D01*
X60150Y162944D01*
X60112Y163038D01*
X60074Y163137D01*
X60027Y163251D01*
X59975Y163373D01*
X59918Y163505D01*
X59857Y163647D01*
Y163652D01*
X59847Y163666D01*
X59838Y163685D01*
X59824Y163713D01*
X59810Y163751D01*
X59791Y163789D01*
X59744Y163874D01*
X59682Y163968D01*
X59616Y164062D01*
X59545Y164147D01*
X59508Y164185D01*
X59470Y164213D01*
X59465Y164218D01*
X59446Y164227D01*
X59413Y164242D01*
X59366Y164261D01*
X59305Y164275D01*
X59229Y164289D01*
X59135Y164298D01*
X59026Y164303D01*
X58658D01*
X58285Y162500D01*
X57388D01*
X58295Y166857D01*
X60315D01*
X60353Y166852D01*
D02*
G37*
G36*
X44696Y162500D02*
X43804D01*
X44710Y166857D01*
X45607D01*
X44696Y162500D01*
D02*
G37*
G36*
X41912Y166852D02*
X42015Y166847D01*
X42063D01*
X42105Y166842D01*
X42143D01*
X42171Y166838D01*
X42185D01*
X42199Y166833D01*
X42218D01*
X42270Y166828D01*
X42336Y166814D01*
X42412Y166800D01*
X42492Y166781D01*
X42577Y166757D01*
X42657Y166729D01*
X42662D01*
X42667Y166724D01*
X42695Y166715D01*
X42733Y166696D01*
X42785Y166668D01*
X42846Y166635D01*
X42912Y166592D01*
X42978Y166545D01*
X43044Y166493D01*
X43054Y166488D01*
X43073Y166465D01*
X43106Y166437D01*
X43148Y166394D01*
X43195Y166342D01*
X43243Y166281D01*
X43295Y166210D01*
X43342Y166134D01*
X43346Y166125D01*
X43361Y166097D01*
X43384Y166054D01*
X43413Y165993D01*
X43446Y165922D01*
X43479Y165842D01*
X43512Y165747D01*
X43540Y165648D01*
Y165644D01*
X43545Y165634D01*
Y165620D01*
X43549Y165601D01*
X43559Y165573D01*
X43564Y165544D01*
X43578Y165469D01*
X43587Y165384D01*
X43601Y165280D01*
X43606Y165167D01*
X43611Y165049D01*
Y165039D01*
Y165016D01*
Y164978D01*
X43606Y164931D01*
X43601Y164869D01*
X43597Y164794D01*
X43587Y164714D01*
X43578Y164629D01*
X43564Y164530D01*
X43545Y164430D01*
X43521Y164327D01*
X43497Y164223D01*
X43464Y164114D01*
X43427Y164006D01*
X43384Y163897D01*
X43337Y163793D01*
X43332Y163789D01*
X43323Y163770D01*
X43309Y163741D01*
X43290Y163704D01*
X43261Y163656D01*
X43228Y163604D01*
X43195Y163548D01*
X43153Y163482D01*
X43106Y163416D01*
X43054Y163345D01*
X42941Y163199D01*
X42808Y163057D01*
X42737Y162991D01*
X42662Y162929D01*
X42657Y162925D01*
X42648Y162920D01*
X42629Y162906D01*
X42605Y162892D01*
X42577Y162868D01*
X42539Y162845D01*
X42492Y162821D01*
X42445Y162793D01*
X42388Y162764D01*
X42327Y162731D01*
X42261Y162703D01*
X42190Y162670D01*
X42114Y162642D01*
X42034Y162613D01*
X41855Y162561D01*
X41850D01*
X41841Y162557D01*
X41827D01*
X41803Y162552D01*
X41775Y162547D01*
X41737Y162542D01*
X41694Y162538D01*
X41642Y162533D01*
X41586Y162524D01*
X41524Y162519D01*
X41454Y162514D01*
X41373Y162509D01*
X41293Y162505D01*
X41199D01*
X41100Y162500D01*
X39457D01*
X40363Y166857D01*
X41808D01*
X41912Y166852D01*
D02*
G37*
G36*
X31225Y162500D02*
X30371D01*
X30999Y165516D01*
X30994D01*
X30985Y165507D01*
X30971Y165497D01*
X30952Y165488D01*
X30928Y165474D01*
X30895Y165455D01*
X30824Y165412D01*
X30735Y165360D01*
X30631Y165308D01*
X30513Y165257D01*
X30385Y165200D01*
X30381D01*
X30371Y165195D01*
X30352Y165186D01*
X30329Y165176D01*
X30296Y165167D01*
X30263Y165153D01*
X30178Y165124D01*
X30083Y165091D01*
X29979Y165058D01*
X29871Y165025D01*
X29767Y165002D01*
X29927Y165761D01*
X29932D01*
X29942Y165766D01*
X29956Y165776D01*
X29975Y165785D01*
X30003Y165795D01*
X30031Y165809D01*
X30107Y165847D01*
X30201Y165894D01*
X30305Y165946D01*
X30423Y166012D01*
X30551Y166083D01*
X30683Y166158D01*
X30824Y166243D01*
X30966Y166337D01*
X31107Y166437D01*
X31244Y166540D01*
X31381Y166649D01*
X31509Y166762D01*
X31627Y166880D01*
X32141D01*
X31225Y162500D01*
D02*
G37*
G36*
X19808Y166871D02*
X19860Y166866D01*
X19921Y166857D01*
X19987Y166847D01*
X20058Y166833D01*
X20133Y166819D01*
X20209Y166795D01*
X20289Y166767D01*
X20369Y166739D01*
X20450Y166696D01*
X20525Y166654D01*
X20601Y166602D01*
X20667Y166545D01*
X20672Y166540D01*
X20681Y166531D01*
X20700Y166512D01*
X20723Y166484D01*
X20747Y166455D01*
X20775Y166413D01*
X20808Y166370D01*
X20841Y166319D01*
X20875Y166257D01*
X20908Y166196D01*
X20936Y166125D01*
X20959Y166049D01*
X20983Y165974D01*
X21002Y165889D01*
X21011Y165799D01*
X21016Y165705D01*
Y165700D01*
Y165695D01*
Y165681D01*
Y165662D01*
X21011Y165611D01*
X21002Y165544D01*
X20988Y165464D01*
X20969Y165375D01*
X20945Y165285D01*
X20908Y165186D01*
Y165181D01*
X20903Y165176D01*
X20898Y165162D01*
X20889Y165143D01*
X20860Y165087D01*
X20823Y165021D01*
X20775Y164940D01*
X20714Y164846D01*
X20639Y164747D01*
X20553Y164643D01*
X20544Y164633D01*
X20520Y164605D01*
X20478Y164558D01*
X20417Y164497D01*
X20379Y164454D01*
X20336Y164412D01*
X20289Y164364D01*
X20237Y164313D01*
X20181Y164261D01*
X20119Y164199D01*
X20053Y164133D01*
X19982Y164067D01*
X19978Y164062D01*
X19963Y164053D01*
X19945Y164034D01*
X19916Y164006D01*
X19888Y163977D01*
X19850Y163944D01*
X19770Y163864D01*
X19680Y163784D01*
X19591Y163699D01*
X19515Y163623D01*
X19482Y163590D01*
X19454Y163562D01*
X19449Y163557D01*
X19430Y163538D01*
X19407Y163510D01*
X19374Y163477D01*
X19336Y163435D01*
X19298Y163387D01*
X19208Y163279D01*
X20719D01*
X20558Y162500D01*
X17910D01*
Y162505D01*
Y162514D01*
X17915Y162533D01*
X17920Y162552D01*
X17924Y162580D01*
X17929Y162613D01*
X17948Y162694D01*
X17972Y162788D01*
X18005Y162887D01*
X18043Y162996D01*
X18094Y163104D01*
Y163109D01*
X18099Y163118D01*
X18109Y163133D01*
X18123Y163156D01*
X18137Y163180D01*
X18156Y163208D01*
X18198Y163284D01*
X18250Y163364D01*
X18312Y163458D01*
X18382Y163553D01*
X18463Y163647D01*
X18467Y163652D01*
X18472Y163661D01*
X18486Y163675D01*
X18505Y163694D01*
X18533Y163723D01*
X18562Y163756D01*
X18599Y163793D01*
X18647Y163840D01*
X18699Y163892D01*
X18755Y163954D01*
X18821Y164020D01*
X18897Y164095D01*
X18977Y164171D01*
X19062Y164261D01*
X19161Y164355D01*
X19265Y164454D01*
X19270Y164459D01*
X19284Y164473D01*
X19307Y164492D01*
X19336Y164520D01*
X19369Y164553D01*
X19411Y164596D01*
X19501Y164681D01*
X19595Y164770D01*
X19685Y164865D01*
X19727Y164902D01*
X19765Y164940D01*
X19798Y164973D01*
X19822Y165002D01*
X19827Y165006D01*
X19831Y165011D01*
X19855Y165039D01*
X19893Y165082D01*
X19935Y165138D01*
X19982Y165200D01*
X20030Y165271D01*
X20072Y165337D01*
X20105Y165403D01*
X20110Y165412D01*
X20119Y165431D01*
X20129Y165464D01*
X20148Y165507D01*
X20162Y165554D01*
X20171Y165606D01*
X20181Y165658D01*
X20185Y165710D01*
Y165714D01*
Y165719D01*
Y165747D01*
X20181Y165785D01*
X20171Y165837D01*
X20152Y165894D01*
X20129Y165955D01*
X20096Y166012D01*
X20053Y166068D01*
X20049Y166073D01*
X20030Y166092D01*
X20001Y166111D01*
X19963Y166139D01*
X19916Y166163D01*
X19864Y166186D01*
X19798Y166200D01*
X19727Y166205D01*
X19694D01*
X19657Y166196D01*
X19610Y166186D01*
X19553Y166167D01*
X19491Y166139D01*
X19430Y166101D01*
X19374Y166049D01*
X19369Y166040D01*
X19350Y166021D01*
X19322Y165979D01*
X19289Y165922D01*
X19270Y165889D01*
X19251Y165847D01*
X19232Y165804D01*
X19213Y165752D01*
X19194Y165695D01*
X19180Y165634D01*
X19161Y165568D01*
X19147Y165497D01*
X18316Y165620D01*
Y165625D01*
X18321Y165648D01*
X18326Y165677D01*
X18340Y165719D01*
X18349Y165771D01*
X18368Y165828D01*
X18387Y165894D01*
X18411Y165964D01*
X18439Y166040D01*
X18472Y166115D01*
X18515Y166191D01*
X18557Y166271D01*
X18604Y166347D01*
X18656Y166418D01*
X18717Y166488D01*
X18783Y166550D01*
X18788Y166554D01*
X18802Y166564D01*
X18821Y166578D01*
X18850Y166602D01*
X18887Y166625D01*
X18930Y166654D01*
X18982Y166682D01*
X19038Y166715D01*
X19105Y166743D01*
X19175Y166772D01*
X19251Y166800D01*
X19331Y166823D01*
X19416Y166847D01*
X19510Y166861D01*
X19610Y166871D01*
X19709Y166875D01*
X19765D01*
X19808Y166871D01*
D02*
G37*
G36*
X12997Y166852D02*
X13049D01*
X13101Y166847D01*
X13157Y166842D01*
X13285Y166833D01*
X13412Y166814D01*
X13535Y166786D01*
X13596Y166772D01*
X13648Y166753D01*
X13653D01*
X13662Y166748D01*
X13677Y166743D01*
X13695Y166734D01*
X13747Y166706D01*
X13809Y166668D01*
X13879Y166616D01*
X13955Y166550D01*
X14030Y166470D01*
X14097Y166375D01*
Y166370D01*
X14106Y166361D01*
X14111Y166347D01*
X14125Y166328D01*
X14139Y166300D01*
X14153Y166267D01*
X14167Y166234D01*
X14186Y166191D01*
X14215Y166092D01*
X14243Y165983D01*
X14262Y165856D01*
X14271Y165714D01*
Y165710D01*
Y165691D01*
Y165662D01*
X14266Y165620D01*
X14262Y165573D01*
X14252Y165521D01*
X14243Y165459D01*
X14229Y165389D01*
X14210Y165318D01*
X14191Y165247D01*
X14163Y165167D01*
X14130Y165091D01*
X14092Y165016D01*
X14045Y164940D01*
X13997Y164865D01*
X13936Y164794D01*
X13931Y164789D01*
X13922Y164780D01*
X13903Y164761D01*
X13875Y164737D01*
X13837Y164709D01*
X13794Y164676D01*
X13743Y164643D01*
X13686Y164605D01*
X13615Y164567D01*
X13544Y164530D01*
X13459Y164492D01*
X13370Y164454D01*
X13271Y164421D01*
X13162Y164393D01*
X13049Y164369D01*
X12926Y164350D01*
X12935Y164346D01*
X12954Y164322D01*
X12987Y164289D01*
X13035Y164242D01*
X13082Y164180D01*
X13138Y164110D01*
X13195Y164029D01*
X13252Y163940D01*
X13256Y163935D01*
X13266Y163916D01*
X13280Y163888D01*
X13304Y163845D01*
X13332Y163793D01*
X13365Y163727D01*
X13403Y163656D01*
X13445Y163567D01*
X13492Y163472D01*
X13544Y163364D01*
X13601Y163246D01*
X13662Y163118D01*
X13724Y162977D01*
X13785Y162830D01*
X13851Y162670D01*
X13922Y162500D01*
X12959D01*
Y162505D01*
X12954Y162519D01*
X12945Y162538D01*
X12935Y162571D01*
X12921Y162609D01*
X12902Y162656D01*
X12883Y162717D01*
X12860Y162783D01*
X12827Y162859D01*
X12794Y162944D01*
X12756Y163038D01*
X12718Y163137D01*
X12671Y163251D01*
X12619Y163373D01*
X12563Y163505D01*
X12501Y163647D01*
Y163652D01*
X12492Y163666D01*
X12482Y163685D01*
X12468Y163713D01*
X12454Y163751D01*
X12435Y163789D01*
X12388Y163874D01*
X12327Y163968D01*
X12261Y164062D01*
X12190Y164147D01*
X12152Y164185D01*
X12114Y164213D01*
X12109Y164218D01*
X12091Y164227D01*
X12058Y164242D01*
X12010Y164261D01*
X11949Y164275D01*
X11873Y164289D01*
X11779Y164298D01*
X11671Y164303D01*
X11302D01*
X10929Y162500D01*
X10033D01*
X10939Y166857D01*
X12959D01*
X12997Y166852D01*
D02*
G37*
G36*
X10085Y166130D02*
X7937D01*
X7720Y165082D01*
X9825D01*
X9674Y164355D01*
X7569D01*
X7182Y162500D01*
X6285D01*
X7191Y166857D01*
X10240D01*
X10085Y166130D01*
D02*
G37*
G36*
X6228D02*
X3897D01*
X3680Y165138D01*
X5945D01*
X5794Y164412D01*
X3519D01*
X3259Y163227D01*
X5799D01*
X5643Y162500D01*
X2240D01*
X3146Y166857D01*
X6379D01*
X6228Y166130D01*
D02*
G37*
G36*
X72700Y161296D02*
X69231D01*
Y161839D01*
X72700D01*
Y161296D01*
D02*
G37*
G36*
X57148D02*
X53679D01*
Y161839D01*
X57148D01*
Y161296D01*
D02*
G37*
G36*
X39226D02*
X35757D01*
Y161839D01*
X39226D01*
Y161296D01*
D02*
G37*
%LPC*%
G36*
X49027Y148244D02*
X49022D01*
X49011Y148239D01*
X48991Y148233D01*
X48965Y148223D01*
X48934Y148207D01*
X48892Y148197D01*
X48840Y148182D01*
X48788Y148166D01*
X48721Y148150D01*
X48648Y148130D01*
X48570Y148114D01*
X48482Y148093D01*
X48389Y148073D01*
X48290Y148057D01*
X48181Y148036D01*
X48062Y148021D01*
X48046D01*
X48025Y148015D01*
X48005Y148010D01*
X47937Y148000D01*
X47859Y147984D01*
X47776Y147969D01*
X47693Y147948D01*
X47615Y147927D01*
X47548Y147901D01*
X47543Y147896D01*
X47522Y147891D01*
X47496Y147875D01*
X47465Y147855D01*
X47423Y147824D01*
X47387Y147792D01*
X47351Y147756D01*
X47314Y147709D01*
X47309Y147704D01*
X47304Y147688D01*
X47288Y147663D01*
X47278Y147626D01*
X47262Y147585D01*
X47247Y147538D01*
X47242Y147486D01*
X47236Y147429D01*
Y147419D01*
X47242Y147393D01*
X47247Y147346D01*
X47257Y147294D01*
X47278Y147232D01*
X47309Y147164D01*
X47356Y147102D01*
X47413Y147040D01*
X47423Y147035D01*
X47444Y147014D01*
X47486Y146993D01*
X47543Y146962D01*
X47615Y146936D01*
X47709Y146910D01*
X47813Y146889D01*
X47932Y146884D01*
X47989D01*
X48020Y146889D01*
X48057Y146894D01*
X48134Y146905D01*
X48233Y146920D01*
X48332Y146946D01*
X48435Y146983D01*
X48539Y147029D01*
X48544D01*
X48550Y147035D01*
X48581Y147055D01*
X48627Y147092D01*
X48690Y147138D01*
X48752Y147195D01*
X48814Y147268D01*
X48877Y147346D01*
X48928Y147439D01*
X48934Y147450D01*
X48944Y147476D01*
X48960Y147522D01*
X48975Y147585D01*
X48991Y147668D01*
X49006Y147772D01*
X49017Y147891D01*
X49022Y148026D01*
X49027Y148244D01*
D02*
G37*
G36*
X30800D02*
X30795D01*
X30784Y148239D01*
X30763Y148233D01*
X30738Y148223D01*
X30706Y148207D01*
X30665Y148197D01*
X30613Y148182D01*
X30561Y148166D01*
X30494Y148150D01*
X30421Y148130D01*
X30343Y148114D01*
X30255Y148093D01*
X30161Y148073D01*
X30063Y148057D01*
X29954Y148036D01*
X29834Y148021D01*
X29819D01*
X29798Y148015D01*
X29777Y148010D01*
X29710Y148000D01*
X29632Y147984D01*
X29549Y147969D01*
X29466Y147948D01*
X29388Y147927D01*
X29321Y147901D01*
X29315Y147896D01*
X29295Y147891D01*
X29269Y147875D01*
X29238Y147855D01*
X29196Y147824D01*
X29160Y147792D01*
X29123Y147756D01*
X29087Y147709D01*
X29082Y147704D01*
X29077Y147688D01*
X29061Y147663D01*
X29051Y147626D01*
X29035Y147585D01*
X29020Y147538D01*
X29014Y147486D01*
X29009Y147429D01*
Y147419D01*
X29014Y147393D01*
X29020Y147346D01*
X29030Y147294D01*
X29051Y147232D01*
X29082Y147164D01*
X29129Y147102D01*
X29186Y147040D01*
X29196Y147035D01*
X29217Y147014D01*
X29258Y146993D01*
X29315Y146962D01*
X29388Y146936D01*
X29482Y146910D01*
X29585Y146889D01*
X29705Y146884D01*
X29762D01*
X29793Y146889D01*
X29829Y146894D01*
X29907Y146905D01*
X30006Y146920D01*
X30104Y146946D01*
X30208Y146983D01*
X30312Y147029D01*
X30317D01*
X30322Y147035D01*
X30353Y147055D01*
X30400Y147092D01*
X30462Y147138D01*
X30525Y147195D01*
X30587Y147268D01*
X30649Y147346D01*
X30701Y147439D01*
X30706Y147450D01*
X30717Y147476D01*
X30732Y147522D01*
X30748Y147585D01*
X30763Y147668D01*
X30779Y147772D01*
X30789Y147891D01*
X30795Y148026D01*
X30800Y148244D01*
D02*
G37*
G36*
X55281Y149562D02*
X55239D01*
X55208Y149557D01*
X55172Y149552D01*
X55125Y149547D01*
X55027Y149521D01*
X54907Y149479D01*
X54850Y149453D01*
X54788Y149422D01*
X54726Y149386D01*
X54663Y149339D01*
X54606Y149287D01*
X54549Y149230D01*
X54544Y149225D01*
X54539Y149214D01*
X54523Y149194D01*
X54502Y149168D01*
X54482Y149131D01*
X54456Y149090D01*
X54430Y149038D01*
X54404Y148981D01*
X54378Y148913D01*
X54352Y148841D01*
X54326Y148758D01*
X54305Y148669D01*
X54285Y148571D01*
X54269Y148467D01*
X54264Y148353D01*
X54259Y148233D01*
Y148228D01*
Y148202D01*
Y148171D01*
X54264Y148125D01*
X54269Y148067D01*
X54274Y148005D01*
X54285Y147932D01*
X54295Y147860D01*
X54331Y147694D01*
X54383Y147528D01*
X54414Y147450D01*
X54456Y147372D01*
X54497Y147299D01*
X54549Y147232D01*
X54554Y147227D01*
X54565Y147216D01*
X54580Y147201D01*
X54601Y147180D01*
X54632Y147154D01*
X54663Y147128D01*
X54705Y147097D01*
X54752Y147071D01*
X54855Y147009D01*
X54980Y146957D01*
X55048Y146936D01*
X55125Y146920D01*
X55198Y146910D01*
X55281Y146905D01*
X55322D01*
X55354Y146910D01*
X55390Y146915D01*
X55437Y146920D01*
X55535Y146946D01*
X55650Y146988D01*
X55712Y147014D01*
X55774Y147045D01*
X55831Y147081D01*
X55893Y147128D01*
X55950Y147180D01*
X56008Y147237D01*
X56013Y147242D01*
X56018Y147253D01*
X56034Y147273D01*
X56054Y147299D01*
X56075Y147336D01*
X56101Y147377D01*
X56127Y147429D01*
X56158Y147491D01*
X56184Y147554D01*
X56210Y147631D01*
X56236Y147714D01*
X56257Y147808D01*
X56278Y147906D01*
X56293Y148015D01*
X56298Y148130D01*
X56303Y148254D01*
Y148259D01*
Y148280D01*
Y148317D01*
X56298Y148358D01*
X56293Y148415D01*
X56288Y148477D01*
X56278Y148545D01*
X56267Y148617D01*
X56231Y148773D01*
X56210Y148856D01*
X56179Y148939D01*
X56142Y149017D01*
X56106Y149095D01*
X56059Y149162D01*
X56008Y149230D01*
X56002Y149235D01*
X55992Y149246D01*
X55976Y149261D01*
X55956Y149282D01*
X55925Y149308D01*
X55893Y149334D01*
X55852Y149365D01*
X55810Y149396D01*
X55701Y149458D01*
X55577Y149510D01*
X55509Y149531D01*
X55437Y149547D01*
X55359Y149557D01*
X55281Y149562D01*
D02*
G37*
G36*
X13699Y149567D02*
X13662D01*
X13636Y149562D01*
X13600Y149557D01*
X13564Y149552D01*
X13470Y149526D01*
X13367Y149484D01*
X13315Y149458D01*
X13258Y149427D01*
X13201Y149386D01*
X13143Y149339D01*
X13086Y149287D01*
X13034Y149230D01*
X13029Y149225D01*
X13024Y149214D01*
X13008Y149194D01*
X12993Y149168D01*
X12972Y149131D01*
X12946Y149090D01*
X12920Y149038D01*
X12894Y148981D01*
X12868Y148918D01*
X12842Y148846D01*
X12822Y148763D01*
X12796Y148680D01*
X12780Y148586D01*
X12765Y148483D01*
X12759Y148374D01*
X12754Y148259D01*
Y148254D01*
Y148233D01*
Y148202D01*
X12759Y148156D01*
Y148109D01*
X12765Y148047D01*
X12770Y147984D01*
X12775Y147912D01*
X12796Y147766D01*
X12827Y147616D01*
X12842Y147543D01*
X12863Y147476D01*
X12889Y147413D01*
X12920Y147356D01*
X12925Y147351D01*
X12936Y147336D01*
X12951Y147315D01*
X12972Y147284D01*
X12998Y147253D01*
X13034Y147216D01*
X13076Y147175D01*
X13117Y147133D01*
X13169Y147087D01*
X13226Y147050D01*
X13289Y147009D01*
X13356Y146977D01*
X13429Y146946D01*
X13507Y146926D01*
X13585Y146910D01*
X13673Y146905D01*
X13709D01*
X13735Y146910D01*
X13771Y146915D01*
X13808Y146920D01*
X13901Y146946D01*
X14005Y146988D01*
X14057Y147014D01*
X14114Y147045D01*
X14171Y147081D01*
X14228Y147128D01*
X14285Y147180D01*
X14337Y147237D01*
X14342Y147242D01*
X14347Y147253D01*
X14363Y147273D01*
X14384Y147299D01*
X14405Y147336D01*
X14425Y147377D01*
X14451Y147429D01*
X14482Y147491D01*
X14508Y147554D01*
X14534Y147631D01*
X14555Y147714D01*
X14576Y147803D01*
X14597Y147901D01*
X14612Y148005D01*
X14617Y148119D01*
X14623Y148239D01*
Y148249D01*
Y148270D01*
Y148306D01*
X14617Y148348D01*
X14612Y148405D01*
X14607Y148472D01*
X14602Y148545D01*
X14591Y148617D01*
X14555Y148784D01*
X14508Y148950D01*
X14477Y149028D01*
X14441Y149105D01*
X14399Y149178D01*
X14353Y149240D01*
X14347Y149246D01*
X14342Y149256D01*
X14327Y149272D01*
X14306Y149292D01*
X14280Y149318D01*
X14249Y149344D01*
X14171Y149406D01*
X14072Y149463D01*
X13963Y149515D01*
X13901Y149536D01*
X13839Y149552D01*
X13771Y149562D01*
X13699Y149567D01*
D02*
G37*
G36*
X74227Y12200D02*
X73132Y10570D01*
X74227D01*
Y12200D01*
D02*
G37*
G36*
X49351Y12781D02*
X48313D01*
Y11561D01*
X49196D01*
X49258Y11566D01*
X49398D01*
X49549Y11577D01*
X49689Y11587D01*
X49751Y11592D01*
X49808Y11597D01*
X49860Y11608D01*
X49896Y11618D01*
X49907Y11623D01*
X49927Y11629D01*
X49959Y11644D01*
X49995Y11665D01*
X50042Y11691D01*
X50088Y11727D01*
X50130Y11769D01*
X50171Y11821D01*
X50177Y11826D01*
X50187Y11846D01*
X50202Y11878D01*
X50223Y11919D01*
X50239Y11971D01*
X50254Y12033D01*
X50265Y12106D01*
X50270Y12184D01*
Y12189D01*
Y12194D01*
Y12225D01*
X50265Y12267D01*
X50254Y12324D01*
X50239Y12386D01*
X50213Y12449D01*
X50182Y12511D01*
X50140Y12573D01*
X50135Y12578D01*
X50114Y12599D01*
X50088Y12625D01*
X50047Y12651D01*
X49995Y12687D01*
X49933Y12713D01*
X49855Y12739D01*
X49772Y12760D01*
X49766D01*
X49746Y12765D01*
X49704D01*
X49678Y12770D01*
X49600D01*
X49549Y12776D01*
X49424D01*
X49351Y12781D01*
D02*
G37*
G36*
X11451Y158246D02*
X9941Y156087D01*
X11451D01*
Y158246D01*
D02*
G37*
G36*
X38356Y157467D02*
X38320D01*
X38294Y157462D01*
X38258Y157457D01*
X38221Y157452D01*
X38128Y157426D01*
X38024Y157384D01*
X37972Y157358D01*
X37915Y157327D01*
X37858Y157286D01*
X37801Y157239D01*
X37744Y157187D01*
X37692Y157130D01*
X37687Y157125D01*
X37682Y157114D01*
X37666Y157094D01*
X37651Y157068D01*
X37630Y157031D01*
X37604Y156990D01*
X37578Y156938D01*
X37552Y156881D01*
X37526Y156818D01*
X37500Y156746D01*
X37479Y156663D01*
X37453Y156580D01*
X37438Y156486D01*
X37422Y156383D01*
X37417Y156274D01*
X37412Y156159D01*
Y156154D01*
Y156133D01*
Y156102D01*
X37417Y156056D01*
Y156009D01*
X37422Y155947D01*
X37427Y155884D01*
X37433Y155812D01*
X37453Y155666D01*
X37484Y155516D01*
X37500Y155443D01*
X37521Y155376D01*
X37547Y155313D01*
X37578Y155256D01*
X37583Y155251D01*
X37593Y155236D01*
X37609Y155215D01*
X37630Y155184D01*
X37656Y155152D01*
X37692Y155116D01*
X37734Y155075D01*
X37775Y155033D01*
X37827Y154987D01*
X37884Y154950D01*
X37946Y154909D01*
X38014Y154877D01*
X38087Y154846D01*
X38164Y154826D01*
X38242Y154810D01*
X38331Y154805D01*
X38367D01*
X38393Y154810D01*
X38429Y154815D01*
X38465Y154820D01*
X38559Y154846D01*
X38663Y154888D01*
X38715Y154914D01*
X38772Y154945D01*
X38829Y154981D01*
X38886Y155028D01*
X38943Y155080D01*
X38995Y155137D01*
X39000Y155142D01*
X39005Y155152D01*
X39021Y155173D01*
X39042Y155199D01*
X39062Y155236D01*
X39083Y155277D01*
X39109Y155329D01*
X39140Y155391D01*
X39166Y155454D01*
X39192Y155531D01*
X39213Y155614D01*
X39233Y155703D01*
X39254Y155801D01*
X39270Y155905D01*
X39275Y156019D01*
X39280Y156139D01*
Y156149D01*
Y156170D01*
Y156206D01*
X39275Y156248D01*
X39270Y156305D01*
X39265Y156372D01*
X39259Y156445D01*
X39249Y156518D01*
X39213Y156684D01*
X39166Y156850D01*
X39135Y156928D01*
X39099Y157005D01*
X39057Y157078D01*
X39010Y157140D01*
X39005Y157146D01*
X39000Y157156D01*
X38984Y157171D01*
X38964Y157192D01*
X38938Y157218D01*
X38906Y157244D01*
X38829Y157306D01*
X38730Y157363D01*
X38621Y157415D01*
X38559Y157436D01*
X38497Y157452D01*
X38429Y157462D01*
X38356Y157467D01*
D02*
G37*
G36*
X75244Y166139D02*
X74588D01*
X73975Y163203D01*
X74550D01*
X74598Y163208D01*
X74649D01*
X74701Y163213D01*
X74819Y163217D01*
X74937Y163227D01*
X75051Y163241D01*
X75103Y163251D01*
X75145Y163260D01*
X75150D01*
X75155Y163265D01*
X75183Y163274D01*
X75225Y163288D01*
X75277Y163312D01*
X75343Y163345D01*
X75409Y163383D01*
X75480Y163435D01*
X75551Y163491D01*
X75556Y163496D01*
X75565Y163501D01*
X75575Y163515D01*
X75593Y163534D01*
X75617Y163557D01*
X75645Y163590D01*
X75674Y163623D01*
X75707Y163661D01*
X75778Y163756D01*
X75853Y163864D01*
X75929Y163991D01*
X75999Y164133D01*
Y164138D01*
X76009Y164152D01*
X76018Y164176D01*
X76028Y164204D01*
X76042Y164242D01*
X76056Y164289D01*
X76075Y164341D01*
X76094Y164402D01*
X76108Y164468D01*
X76127Y164539D01*
X76141Y164619D01*
X76155Y164699D01*
X76165Y164789D01*
X76174Y164879D01*
X76183Y165077D01*
Y165082D01*
Y165096D01*
Y165120D01*
Y165153D01*
X76179Y165190D01*
X76174Y165238D01*
X76169Y165285D01*
X76165Y165337D01*
X76146Y165450D01*
X76122Y165563D01*
X76084Y165677D01*
X76061Y165724D01*
X76032Y165771D01*
Y165776D01*
X76028Y165780D01*
X76004Y165809D01*
X75971Y165851D01*
X75929Y165898D01*
X75877Y165950D01*
X75811Y166002D01*
X75740Y166049D01*
X75660Y166083D01*
X75650Y166087D01*
X75631Y166092D01*
X75589Y166101D01*
X75532Y166111D01*
X75499Y166115D01*
X75457Y166120D01*
X75409Y166125D01*
X75362Y166130D01*
X75305Y166134D01*
X75244Y166139D01*
D02*
G37*
G36*
X60098Y166130D02*
X59040D01*
X58795Y164954D01*
X59390D01*
X59446Y164959D01*
X59512D01*
X59583Y164964D01*
X59663D01*
X59824Y164973D01*
X59980Y164992D01*
X60055Y165002D01*
X60121Y165011D01*
X60183Y165025D01*
X60230Y165039D01*
X60235D01*
X60239Y165044D01*
X60268Y165053D01*
X60310Y165077D01*
X60367Y165105D01*
X60423Y165143D01*
X60485Y165190D01*
X60546Y165242D01*
X60598Y165308D01*
X60603Y165318D01*
X60622Y165341D01*
X60641Y165379D01*
X60669Y165426D01*
X60692Y165488D01*
X60716Y165554D01*
X60730Y165625D01*
X60735Y165700D01*
Y165705D01*
Y165710D01*
X60730Y165738D01*
X60725Y165780D01*
X60711Y165832D01*
X60688Y165889D01*
X60655Y165950D01*
X60607Y166007D01*
X60541Y166054D01*
X60537Y166059D01*
X60518Y166068D01*
X60485Y166078D01*
X60433Y166092D01*
X60400Y166101D01*
X60362Y166106D01*
X60324Y166111D01*
X60277Y166120D01*
X60220Y166125D01*
X60164D01*
X60098Y166130D01*
D02*
G37*
G36*
X41770Y166139D02*
X41114D01*
X40500Y163203D01*
X41076D01*
X41123Y163208D01*
X41175D01*
X41227Y163213D01*
X41345Y163217D01*
X41463Y163227D01*
X41576Y163241D01*
X41628Y163251D01*
X41671Y163260D01*
X41675D01*
X41680Y163265D01*
X41709Y163274D01*
X41751Y163288D01*
X41803Y163312D01*
X41869Y163345D01*
X41935Y163383D01*
X42006Y163435D01*
X42077Y163491D01*
X42081Y163496D01*
X42091Y163501D01*
X42100Y163515D01*
X42119Y163534D01*
X42143Y163557D01*
X42171Y163590D01*
X42199Y163623D01*
X42232Y163661D01*
X42303Y163756D01*
X42379Y163864D01*
X42454Y163991D01*
X42525Y164133D01*
Y164138D01*
X42535Y164152D01*
X42544Y164176D01*
X42553Y164204D01*
X42568Y164242D01*
X42582Y164289D01*
X42601Y164341D01*
X42619Y164402D01*
X42634Y164468D01*
X42653Y164539D01*
X42667Y164619D01*
X42681Y164699D01*
X42690Y164789D01*
X42700Y164879D01*
X42709Y165077D01*
Y165082D01*
Y165096D01*
Y165120D01*
Y165153D01*
X42704Y165190D01*
X42700Y165238D01*
X42695Y165285D01*
X42690Y165337D01*
X42671Y165450D01*
X42648Y165563D01*
X42610Y165677D01*
X42586Y165724D01*
X42558Y165771D01*
Y165776D01*
X42553Y165780D01*
X42530Y165809D01*
X42497Y165851D01*
X42454Y165898D01*
X42402Y165950D01*
X42336Y166002D01*
X42265Y166049D01*
X42185Y166083D01*
X42176Y166087D01*
X42157Y166092D01*
X42114Y166101D01*
X42058Y166111D01*
X42025Y166115D01*
X41982Y166120D01*
X41935Y166125D01*
X41888Y166130D01*
X41831Y166134D01*
X41770Y166139D01*
D02*
G37*
G36*
X12742Y166130D02*
X11685D01*
X11439Y164954D01*
X12034D01*
X12091Y164959D01*
X12157D01*
X12227Y164964D01*
X12308D01*
X12468Y164973D01*
X12624Y164992D01*
X12699Y165002D01*
X12765Y165011D01*
X12827Y165025D01*
X12874Y165039D01*
X12879D01*
X12883Y165044D01*
X12912Y165053D01*
X12954Y165077D01*
X13011Y165105D01*
X13068Y165143D01*
X13129Y165190D01*
X13190Y165242D01*
X13242Y165308D01*
X13247Y165318D01*
X13266Y165341D01*
X13285Y165379D01*
X13313Y165426D01*
X13337Y165488D01*
X13360Y165554D01*
X13374Y165625D01*
X13379Y165700D01*
Y165705D01*
Y165710D01*
X13374Y165738D01*
X13370Y165780D01*
X13355Y165832D01*
X13332Y165889D01*
X13299Y165950D01*
X13252Y166007D01*
X13186Y166054D01*
X13181Y166059D01*
X13162Y166068D01*
X13129Y166078D01*
X13077Y166092D01*
X13044Y166101D01*
X13006Y166106D01*
X12968Y166111D01*
X12921Y166120D01*
X12865Y166125D01*
X12808D01*
X12742Y166130D01*
D02*
G37*
%LPD*%
M02*
