G04*
G04 #@! TF.GenerationSoftware,Altium Limited,Altium Designer,19.1.7 (138)*
G04*
G04 Layer_Physical_Order=1*
G04 Layer_Color=255*
%FSLAX25Y25*%
%MOIN*%
G70*
G01*
G75*
%ADD11C,0.00500*%
%ADD12C,0.01000*%
%ADD14C,0.00197*%
%ADD15C,0.00100*%
%ADD16C,0.00700*%
%ADD18R,0.01400X0.01400*%
G04:AMPARAMS|DCode=19|XSize=53.15mil|YSize=37.4mil|CornerRadius=4.68mil|HoleSize=0mil|Usage=FLASHONLY|Rotation=180.000|XOffset=0mil|YOffset=0mil|HoleType=Round|Shape=RoundedRectangle|*
%AMROUNDEDRECTD19*
21,1,0.05315,0.02805,0,0,180.0*
21,1,0.04380,0.03740,0,0,180.0*
1,1,0.00935,-0.02190,0.01403*
1,1,0.00935,0.02190,0.01403*
1,1,0.00935,0.02190,-0.01403*
1,1,0.00935,-0.02190,-0.01403*
%
%ADD19ROUNDEDRECTD19*%
%ADD20C,0.03937*%
%ADD21R,0.02000X0.01400*%
%ADD22R,0.03543X0.03740*%
%ADD23R,0.01400X0.01400*%
%ADD24R,0.02362X0.02559*%
%ADD25R,0.02913X0.10984*%
%ADD26R,0.08661X0.04134*%
%ADD27R,0.04134X0.03937*%
G04:AMPARAMS|DCode=28|XSize=39.37mil|YSize=70.87mil|CornerRadius=4.92mil|HoleSize=0mil|Usage=FLASHONLY|Rotation=270.000|XOffset=0mil|YOffset=0mil|HoleType=Round|Shape=RoundedRectangle|*
%AMROUNDEDRECTD28*
21,1,0.03937,0.06102,0,0,270.0*
21,1,0.02953,0.07087,0,0,270.0*
1,1,0.00984,-0.03051,-0.01476*
1,1,0.00984,-0.03051,0.01476*
1,1,0.00984,0.03051,0.01476*
1,1,0.00984,0.03051,-0.01476*
%
%ADD28ROUNDEDRECTD28*%
%ADD29R,0.03937X0.03937*%
G04:AMPARAMS|DCode=30|XSize=37.4mil|YSize=33.47mil|CornerRadius=3.35mil|HoleSize=0mil|Usage=FLASHONLY|Rotation=90.000|XOffset=0mil|YOffset=0mil|HoleType=Round|Shape=RoundedRectangle|*
%AMROUNDEDRECTD30*
21,1,0.03740,0.02677,0,0,90.0*
21,1,0.03071,0.03347,0,0,90.0*
1,1,0.00669,0.01339,0.01535*
1,1,0.00669,0.01339,-0.01535*
1,1,0.00669,-0.01339,-0.01535*
1,1,0.00669,-0.01339,0.01535*
%
%ADD30ROUNDEDRECTD30*%
G04:AMPARAMS|DCode=31|XSize=8.66mil|YSize=29.92mil|CornerRadius=2.17mil|HoleSize=0mil|Usage=FLASHONLY|Rotation=180.000|XOffset=0mil|YOffset=0mil|HoleType=Round|Shape=RoundedRectangle|*
%AMROUNDEDRECTD31*
21,1,0.00866,0.02559,0,0,180.0*
21,1,0.00433,0.02992,0,0,180.0*
1,1,0.00433,-0.00217,0.01280*
1,1,0.00433,0.00217,0.01280*
1,1,0.00433,0.00217,-0.01280*
1,1,0.00433,-0.00217,-0.01280*
%
%ADD31ROUNDEDRECTD31*%
G04:AMPARAMS|DCode=32|XSize=8.66mil|YSize=29.92mil|CornerRadius=2.17mil|HoleSize=0mil|Usage=FLASHONLY|Rotation=270.000|XOffset=0mil|YOffset=0mil|HoleType=Round|Shape=RoundedRectangle|*
%AMROUNDEDRECTD32*
21,1,0.00866,0.02559,0,0,270.0*
21,1,0.00433,0.02992,0,0,270.0*
1,1,0.00433,-0.01280,-0.00217*
1,1,0.00433,-0.01280,0.00217*
1,1,0.00433,0.01280,0.00217*
1,1,0.00433,0.01280,-0.00217*
%
%ADD32ROUNDEDRECTD32*%
%ADD33R,0.11024X0.11024*%
%ADD34R,0.03740X0.03543*%
%ADD35R,0.01929X0.02047*%
%ADD36C,0.01402*%
%ADD37C,0.00400*%
%ADD38C,0.01968*%
%ADD39C,0.02000*%
%ADD40C,0.00800*%
%ADD41C,0.00866*%
%ADD42C,0.01700*%
%ADD43C,0.01402*%
%ADD44C,0.02650*%
%ADD45C,0.01600*%
%ADD46C,0.00492*%
%ADD47C,0.00850*%
%ADD48C,0.00402*%
%ADD49C,0.01400*%
%ADD50C,0.01500*%
%ADD51C,0.01100*%
%ADD52C,0.03543*%
%ADD53C,0.00591*%
%ADD54C,0.01181*%
%ADD55C,0.01900*%
%ADD56C,0.00866*%
%ADD57C,0.01968*%
G36*
X140452Y116138D02*
X140723Y1294D01*
X140370Y940D01*
X7704D01*
X7694Y96310D01*
X8048Y96664D01*
X42398D01*
Y100530D01*
X46227Y101256D01*
X54774Y101256D01*
X54856Y101202D01*
X54890Y101196D01*
X54954Y101153D01*
X55628Y101019D01*
X57052D01*
X57591Y100480D01*
Y88521D01*
X56156D01*
Y86244D01*
X57584D01*
X57584Y83833D01*
X52602Y83833D01*
Y83860D01*
X49926D01*
Y83860D01*
X49466D01*
Y83860D01*
X47903D01*
X47864Y83867D01*
X45145D01*
X44992Y84020D01*
X44535Y84326D01*
X43994Y84434D01*
X27486D01*
X26946Y84326D01*
X26488Y84020D01*
X24332Y81864D01*
X24026Y81406D01*
X23919Y80866D01*
Y71524D01*
X23940Y71416D01*
X23906Y71246D01*
Y69284D01*
X23935Y69137D01*
X23919Y69052D01*
Y64269D01*
X24026Y63729D01*
X24332Y63271D01*
X28539Y59064D01*
X28997Y58758D01*
X29537Y58651D01*
X30463D01*
X30817Y58297D01*
X30817Y58106D01*
X30928Y57819D01*
X31198Y57819D01*
X32984D01*
X33198Y57777D01*
X38316D01*
X39163Y57945D01*
X39705Y58307D01*
X40863D01*
Y59007D01*
X41227Y59306D01*
X41767Y59413D01*
X42225Y59719D01*
X42531Y60177D01*
X42638Y60717D01*
X42531Y61257D01*
X42225Y61715D01*
X41767Y62021D01*
X41227Y62128D01*
X40863Y62427D01*
Y63045D01*
X36624D01*
X36124Y63543D01*
X36124Y66149D01*
X36595Y66429D01*
X36624Y66427D01*
X37140Y66325D01*
X37680Y66432D01*
X38138Y66738D01*
X38444Y67196D01*
X38551Y67735D01*
X46266D01*
X47959Y66042D01*
X47752Y65542D01*
X46023D01*
Y65642D01*
X43623D01*
Y63538D01*
X43607Y63045D01*
X43607Y63045D01*
X43607D01*
Y58307D01*
X43607D01*
X43509Y57848D01*
X41061D01*
Y53108D01*
X41641D01*
Y53107D01*
X47958Y53107D01*
Y52052D01*
X47986Y51908D01*
Y49933D01*
X47929Y49644D01*
X47986Y49355D01*
Y48788D01*
X48312D01*
X48652Y48561D01*
X49101Y48472D01*
X53180D01*
X53332Y47971D01*
X53081Y47804D01*
X50268Y44991D01*
X49962Y44533D01*
X49855Y43993D01*
Y32093D01*
X49855Y31916D01*
X49407Y31604D01*
X46167D01*
Y19820D01*
X48108D01*
X48246Y19613D01*
X49274Y18585D01*
X49589Y18375D01*
X49959Y18301D01*
X79773D01*
X79784Y18285D01*
X80242Y17979D01*
X80782Y17872D01*
X81322Y17979D01*
X81780Y18285D01*
X82086Y18743D01*
X82193Y19283D01*
X82086Y19823D01*
X81780Y20281D01*
X81322Y20587D01*
X80782Y20694D01*
X80242Y20587D01*
X79784Y20281D01*
X79756Y20238D01*
X54881D01*
Y22340D01*
X87592D01*
X87594Y22339D01*
X115672D01*
Y22046D01*
X115739Y21708D01*
X115931Y21421D01*
X116218Y21229D01*
X116556Y21161D01*
X120936D01*
X121274Y21229D01*
X121561Y21421D01*
X121753Y21708D01*
X121820Y22046D01*
Y24199D01*
X125361Y24199D01*
X125630Y24088D01*
X137894Y24088D01*
X138200Y24214D01*
X138327Y24521D01*
X138327Y40805D01*
X138200Y41111D01*
X137894Y41238D01*
X125630Y41238D01*
X125324Y41111D01*
X125197Y40805D01*
X125197Y32740D01*
X114519Y32740D01*
X114213Y32613D01*
X114086Y32307D01*
X114086Y25194D01*
X87596D01*
X87594Y25194D01*
X54881D01*
Y31604D01*
X53574D01*
X52677Y32501D01*
Y43408D01*
X55077Y45808D01*
X55245Y46059D01*
X56019D01*
X56165Y45619D01*
X56244Y45224D01*
X56498Y44844D01*
X58320Y43022D01*
X58700Y42768D01*
X59149Y42678D01*
X60150D01*
X60599Y42768D01*
X60952Y42650D01*
X61152Y42155D01*
X61109Y42091D01*
X61002Y41551D01*
X61109Y41011D01*
X61415Y40553D01*
X61454Y40527D01*
X61461Y40517D01*
X61924Y40207D01*
X62470Y40099D01*
X64777D01*
X64790Y40101D01*
X72247D01*
X72265Y40105D01*
X74767D01*
X74785Y40101D01*
X82337D01*
X82877Y40209D01*
X83335Y40514D01*
X87253Y44432D01*
X87559Y44890D01*
X87666Y45430D01*
Y84372D01*
X87559Y84912D01*
X87253Y85370D01*
X86100Y86523D01*
X85642Y86829D01*
X85102Y86936D01*
X74455D01*
Y86991D01*
X71726D01*
Y86991D01*
X71266D01*
Y86991D01*
X68537D01*
Y85272D01*
X68088D01*
Y83632D01*
X66161Y83557D01*
Y83100D01*
X66019D01*
Y81888D01*
X64596D01*
X64591Y83100D01*
X64071D01*
Y81956D01*
X64126Y80355D01*
X63926D01*
X63892Y80274D01*
X63319D01*
X63221Y80255D01*
X63068Y80355D01*
X62338D01*
Y81432D01*
X61356D01*
X61356Y91793D01*
X61709Y92147D01*
X64421Y92147D01*
X68065Y95791D01*
X69580Y95806D01*
X70982Y95137D01*
X74948D01*
Y93925D01*
X74949D01*
Y89234D01*
X84611D01*
Y93925D01*
X84611D01*
Y101130D01*
X84611D01*
Y105982D01*
X74949D01*
Y101084D01*
X74948Y101083D01*
Y100078D01*
X71107D01*
X69644Y99447D01*
X67249Y99447D01*
X66418Y99193D01*
X65148Y98041D01*
X62913Y95807D01*
X61643Y95785D01*
X61286Y96136D01*
Y101763D01*
X61081Y102156D01*
X58880Y104357D01*
X58313Y104597D01*
X55174D01*
Y106140D01*
X52774D01*
Y104597D01*
X48189D01*
Y106130D01*
X45789D01*
Y105101D01*
X45289Y104684D01*
X42398Y105212D01*
Y107614D01*
X33898D01*
Y104264D01*
X42398D01*
X42505Y104229D01*
X46482Y103524D01*
Y102133D01*
X42402Y101565D01*
X42398Y101564D01*
X42393D01*
X42370Y101561D01*
Y101564D01*
X31198D01*
Y112664D01*
X11398D01*
Y101564D01*
X25898D01*
Y105764D01*
X13998D01*
Y108464D01*
X28598D01*
Y105764D01*
Y98864D01*
X8698D01*
Y112664D01*
Y115364D01*
X33898D01*
Y112664D01*
Y110314D01*
X42398D01*
Y115646D01*
X42898Y116138D01*
X140452Y116138D01*
D02*
G37*
G36*
X55092Y101566D02*
X54195Y102148D01*
Y103529D01*
X54630Y103737D01*
X55092Y103991D01*
Y101566D01*
D02*
G37*
G36*
X60161Y96338D02*
X58775D01*
X58176Y97672D01*
X60735D01*
X60161Y96338D01*
D02*
G37*
G36*
X73050Y95683D02*
X73006Y95638D01*
X71196D01*
X66697Y97606D01*
X71196Y99575D01*
X73050D01*
Y95683D01*
D02*
G37*
G36*
X62365Y92787D02*
X61818Y93099D01*
X61471Y93283D01*
X61477Y94676D01*
X62104Y95033D01*
X62365Y95183D01*
Y92787D01*
D02*
G37*
G36*
X84844Y83787D02*
Y46015D01*
X81753Y42924D01*
X74799D01*
X74781Y42927D01*
X72251D01*
X72233Y42924D01*
X65426D01*
Y45230D01*
X65422D01*
Y46329D01*
X66333D01*
X66396Y46013D01*
X66919Y45229D01*
X67703Y44706D01*
X68627Y44522D01*
X69551Y44706D01*
X70335Y45229D01*
X70858Y46013D01*
X71042Y46937D01*
X70858Y47861D01*
X70335Y48645D01*
X69551Y49168D01*
X68627Y49352D01*
X67703Y49168D01*
X66919Y48645D01*
X66852Y48544D01*
X66684D01*
X66538Y48573D01*
X65400D01*
Y49741D01*
X65422Y49853D01*
Y50634D01*
X66472D01*
Y50666D01*
X67540D01*
Y50534D01*
X72083D01*
X72303Y50125D01*
Y49829D01*
X72249Y49558D01*
Y46605D01*
X72318Y46257D01*
X72515Y45962D01*
X72810Y45765D01*
X73158Y45695D01*
X79261D01*
X79609Y45765D01*
X79904Y45962D01*
X80101Y46257D01*
X80170Y46605D01*
Y49558D01*
X80101Y49906D01*
X79904Y50201D01*
X79609Y50398D01*
X79261Y50467D01*
X73620D01*
Y54479D01*
X73620Y54479D01*
X73570Y54731D01*
X73427Y54945D01*
X73334Y55038D01*
X73541Y55538D01*
X79261D01*
X79609Y55607D01*
X79904Y55804D01*
X80101Y56099D01*
X80170Y56447D01*
Y59400D01*
X80157Y59465D01*
X80317Y59717D01*
X80530Y59934D01*
X80535Y59936D01*
X81369Y60102D01*
X82153Y60625D01*
X82676Y61409D01*
X82860Y62333D01*
X82676Y63257D01*
X82153Y64041D01*
X82126Y64059D01*
Y64660D01*
X82595Y64973D01*
X83118Y65757D01*
X83302Y66681D01*
X83118Y67605D01*
X82595Y68389D01*
X82397Y68521D01*
Y69122D01*
X82767Y69369D01*
X83290Y70153D01*
X83474Y71077D01*
X83290Y72001D01*
X82767Y72785D01*
X81983Y73308D01*
X81059Y73492D01*
X80135Y73308D01*
X79365Y72793D01*
X79123Y72839D01*
X78865Y72917D01*
Y73981D01*
X78808Y74268D01*
X78801Y74277D01*
X78801Y74984D01*
X79762Y75944D01*
X79762Y77361D01*
X78967Y78156D01*
Y79690D01*
X78902Y80016D01*
X78717Y80292D01*
X78441Y80476D01*
X78116Y80541D01*
X75438D01*
X75113Y80476D01*
X74837Y80292D01*
X74802Y80240D01*
X74087Y80240D01*
X73875Y80382D01*
X73588Y80439D01*
X70911D01*
X70624Y80382D01*
X70381Y80220D01*
X70219Y79977D01*
X70162Y79690D01*
Y77444D01*
X69998D01*
X69727Y77390D01*
X69497Y77236D01*
X67861Y75601D01*
X66603D01*
X66486Y75578D01*
X65426D01*
X65120Y75735D01*
X64963Y76041D01*
Y77150D01*
X65576D01*
X65576Y77150D01*
X65829Y77200D01*
X66042Y77343D01*
X66654Y77955D01*
X66704Y77988D01*
X71276Y82559D01*
X72306D01*
X72573Y82160D01*
X73031Y81853D01*
X73571Y81746D01*
X74111Y81853D01*
X74569Y82160D01*
X74875Y82617D01*
X74982Y83157D01*
X74891Y83614D01*
X75151Y84114D01*
X84517D01*
X84844Y83787D01*
D02*
G37*
G36*
X35383Y81111D02*
X34931Y81021D01*
X34147Y80498D01*
X33624Y79714D01*
X33544Y79312D01*
X33413Y79270D01*
X33024Y79260D01*
X32781Y79623D01*
X32323Y79929D01*
X31783Y80036D01*
X31243Y79929D01*
X30785Y79623D01*
X30479Y79165D01*
X30372Y78625D01*
X30479Y78085D01*
X30785Y77627D01*
X30446Y77303D01*
X30373Y77254D01*
X30067Y76796D01*
X29960Y76256D01*
X30067Y75716D01*
X30373Y75258D01*
X30831Y74952D01*
X30890Y74940D01*
X31136Y74408D01*
X31029Y73868D01*
X31136Y73328D01*
X31442Y72870D01*
X31900Y72564D01*
X32440Y72457D01*
X32739Y72516D01*
X32895Y72065D01*
X32437Y71759D01*
X32131Y71301D01*
X32024Y70761D01*
X32131Y70221D01*
X32437Y69763D01*
X32895Y69457D01*
X33435Y69350D01*
X33975Y69457D01*
X34433Y69763D01*
X34695Y69789D01*
X35603Y68881D01*
X35631Y68869D01*
X35836Y68276D01*
X35815Y68172D01*
X35568Y67774D01*
X35265Y67774D01*
X31286D01*
X30828Y67774D01*
X30817Y67700D01*
X30817Y67700D01*
X30817Y67279D01*
X30817Y61473D01*
X30122D01*
X26741Y64854D01*
Y69052D01*
X26712Y69199D01*
X26729Y69284D01*
Y71246D01*
X26707Y71354D01*
X26741Y71524D01*
Y80282D01*
X28070Y81611D01*
X35333D01*
X35383Y81111D01*
D02*
G37*
G36*
X60132Y80735D02*
X59826Y78398D01*
X58960D01*
X58732Y80321D01*
Y81540D01*
X60132D01*
Y80735D01*
D02*
G37*
G36*
X53157Y59832D02*
X52350D01*
X49554Y58737D01*
X46726D01*
Y62624D01*
X50079D01*
X50775Y62824D01*
X53157D01*
Y59832D01*
D02*
G37*
G36*
X137894Y40805D02*
X137894Y24521D01*
X125918Y24521D01*
X125630D01*
Y24632D01*
X114807Y24632D01*
X114519D01*
X114519Y32307D01*
X125630Y32307D01*
X125630Y40805D01*
X137894Y40805D01*
D02*
G37*
%LPC*%
G36*
X42830Y33960D02*
X42290Y33853D01*
X41832Y33547D01*
X41526Y33089D01*
X41419Y32549D01*
X41507Y32104D01*
X41241Y31604D01*
X41167D01*
Y19820D01*
X44881D01*
Y31604D01*
X44419D01*
X44153Y32104D01*
X44241Y32549D01*
X44134Y33089D01*
X43828Y33547D01*
X43370Y33853D01*
X42830Y33960D01*
D02*
G37*
G36*
X37815Y33713D02*
X37275Y33605D01*
X36817Y33299D01*
X36511Y32842D01*
X36404Y32301D01*
X36443Y32104D01*
X36167Y31604D01*
X36167D01*
Y19820D01*
X39881D01*
Y31604D01*
X39570D01*
X39187Y32104D01*
X39227Y32301D01*
X39119Y32842D01*
X38813Y33299D01*
X38355Y33605D01*
X37815Y33713D01*
D02*
G37*
G36*
X34881Y31604D02*
X31167D01*
Y19820D01*
X31763D01*
X32139Y19320D01*
X32098Y19110D01*
X32205Y18570D01*
X32511Y18112D01*
X32969Y17806D01*
X33509Y17699D01*
X34049Y17806D01*
X34507Y18112D01*
X34813Y18570D01*
X34920Y19110D01*
X34879Y19320D01*
X34881Y19820D01*
X34881Y19820D01*
X34881Y19820D01*
Y31604D01*
D02*
G37*
G36*
X120936Y19538D02*
X116556D01*
X116179Y19463D01*
X115858Y19250D01*
X115645Y18929D01*
X115570Y18552D01*
Y15747D01*
X115645Y15369D01*
X115858Y15049D01*
X116179Y14836D01*
X116556Y14760D01*
X120936D01*
X121314Y14836D01*
X121634Y15049D01*
X121847Y15369D01*
X121922Y15747D01*
Y18552D01*
X121847Y18929D01*
X121634Y19250D01*
X121314Y19463D01*
X120936Y19538D01*
D02*
G37*
G36*
X34881Y15580D02*
X31167D01*
Y12079D01*
X30667Y11669D01*
X30555Y11691D01*
X30015Y11584D01*
X29557Y11278D01*
X29251Y10820D01*
X29144Y10280D01*
X29251Y9740D01*
X29557Y9282D01*
X30015Y8976D01*
X30555Y8869D01*
X30667Y8891D01*
X31167Y8481D01*
Y3796D01*
X34881D01*
Y15580D01*
D02*
G37*
G36*
X47921Y17536D02*
X47381Y17429D01*
X46923Y17123D01*
X46617Y16665D01*
X46510Y16125D01*
X46518Y16080D01*
X46167Y15580D01*
X46167D01*
Y3796D01*
X49881D01*
Y15580D01*
X49734D01*
X49323Y16080D01*
X49332Y16125D01*
X49225Y16665D01*
X48919Y17123D01*
X48461Y17429D01*
X47921Y17536D01*
D02*
G37*
G36*
X42885Y17847D02*
X42345Y17740D01*
X41887Y17434D01*
X41581Y16976D01*
X41474Y16436D01*
X41544Y16080D01*
X41236Y15580D01*
X41167D01*
Y3796D01*
X44881D01*
Y15580D01*
X44534D01*
X44226Y16080D01*
X44296Y16436D01*
X44189Y16976D01*
X43883Y17434D01*
X43425Y17740D01*
X42885Y17847D01*
D02*
G37*
G36*
X37769Y17882D02*
X37229Y17775D01*
X36771Y17469D01*
X36465Y17011D01*
X36358Y16471D01*
X36435Y16080D01*
X36167Y15580D01*
X36167D01*
Y3796D01*
X39881D01*
Y15580D01*
X39440D01*
X39337Y15679D01*
X39103Y16080D01*
X39180Y16471D01*
X39073Y17011D01*
X38767Y17469D01*
X38309Y17775D01*
X37769Y17882D01*
D02*
G37*
G36*
X54981Y15680D02*
X51067D01*
Y3696D01*
X54981D01*
Y15680D01*
D02*
G37*
%LPD*%
D11*
X-348447Y-232713D02*
X135353D01*
X344053Y-326503D02*
Y-306503D01*
X261553D02*
Y-246503D01*
X471553Y-306503D02*
Y-246503D01*
X135353Y-306503D02*
Y-186503D01*
X561553Y-306503D02*
Y-186503D01*
X261553D02*
X561553D01*
X261553Y-246503D02*
Y-186503D01*
X135353D02*
X261553D01*
X261353Y-246503D02*
X561553D01*
X261353Y-276503D02*
X561553D01*
X111553Y-306503D02*
X561553D01*
X261353Y-216503D02*
X561853D01*
X-28447Y-306503D02*
X135353D01*
X106353Y-326503D02*
Y-306503D01*
X-130847Y-326503D02*
Y-306503D01*
X-368447Y-138903D02*
X-348447D01*
X-368447Y48297D02*
X-348447D01*
X-368447Y236297D02*
X-348447D01*
X-368447Y-326503D02*
Y423497D01*
X-348447Y-306503D02*
X561553D01*
X-348447D02*
Y403497D01*
X-368447Y-326503D02*
X581553D01*
X344053Y403497D02*
Y423497D01*
X106353Y403497D02*
Y423497D01*
X-130847Y403497D02*
Y423497D01*
X-368447D02*
X581553D01*
X-348447Y403497D02*
X561553D01*
Y-138903D02*
X581553D01*
X561553Y48297D02*
X581553D01*
X561553Y236297D02*
X581553D01*
X561553Y-306503D02*
Y403497D01*
X581553Y-326503D02*
Y423497D01*
X-348447Y-254903D02*
X135353D01*
X269552Y-222004D02*
X266553D01*
Y-224254D01*
X268053D01*
X266553D01*
Y-226503D01*
X271052Y-222004D02*
X272551D01*
X271801D01*
Y-226503D01*
X271052D01*
X272551D01*
X274800Y-222004D02*
Y-226503D01*
X277799D01*
X282298Y-222004D02*
X279299D01*
Y-226503D01*
X282298D01*
X279299Y-224254D02*
X280798D01*
X288296Y-226503D02*
Y-222004D01*
X291295Y-226503D01*
Y-222004D01*
X292794Y-226503D02*
Y-223504D01*
X294294Y-222004D01*
X295794Y-223504D01*
Y-226503D01*
Y-224254D01*
X292794D01*
X297293Y-226503D02*
Y-222004D01*
X298793Y-223504D01*
X300292Y-222004D01*
Y-226503D01*
X304791Y-222004D02*
X301792D01*
Y-226503D01*
X304791D01*
X301792Y-224254D02*
X303291D01*
X306290Y-223504D02*
X307040D01*
Y-224254D01*
X306290D01*
Y-223504D01*
Y-225753D02*
X307040D01*
Y-226503D01*
X306290D01*
Y-225753D01*
X266553Y-192004D02*
X269552D01*
X268053D01*
Y-196503D01*
X271052Y-192004D02*
X272551D01*
X271801D01*
Y-196503D01*
X271052D01*
X272551D01*
X274800Y-192004D02*
X277799D01*
X276300D01*
Y-196503D01*
X279299Y-192004D02*
Y-196503D01*
X282298D01*
X286796Y-192004D02*
X283797D01*
Y-196503D01*
X286796D01*
X283797Y-194254D02*
X285297D01*
X288296Y-193504D02*
X289046D01*
Y-194254D01*
X288296D01*
Y-193504D01*
Y-195753D02*
X289046D01*
Y-196503D01*
X288296D01*
Y-195753D01*
X266553Y-252004D02*
Y-256503D01*
X268802D01*
X269552Y-255753D01*
Y-255003D01*
X268802Y-254254D01*
X266553D01*
X268802D01*
X269552Y-253504D01*
Y-252754D01*
X268802Y-252004D01*
X266553D01*
X271801Y-256503D02*
X273301D01*
X274051Y-255753D01*
Y-254254D01*
X273301Y-253504D01*
X271801D01*
X271052Y-254254D01*
Y-255753D01*
X271801Y-256503D01*
X276300Y-253504D02*
X277799D01*
X278549Y-254254D01*
Y-256503D01*
X276300D01*
X275550Y-255753D01*
X276300Y-255003D01*
X278549D01*
X280049Y-253504D02*
Y-256503D01*
Y-255003D01*
X280798Y-254254D01*
X281548Y-253504D01*
X282298D01*
X287546Y-252004D02*
Y-256503D01*
X285297D01*
X284547Y-255753D01*
Y-254254D01*
X285297Y-253504D01*
X287546D01*
X293544Y-256503D02*
Y-252004D01*
X296543Y-256503D01*
Y-252004D01*
X300292D02*
X298793D01*
X298043Y-252754D01*
Y-255753D01*
X298793Y-256503D01*
X300292D01*
X301042Y-255753D01*
Y-252754D01*
X300292Y-252004D01*
X302541Y-256503D02*
Y-255753D01*
X303291D01*
Y-256503D01*
X302541D01*
X306290Y-253504D02*
X307040D01*
Y-254254D01*
X306290D01*
Y-253504D01*
Y-255753D02*
X307040D01*
Y-256503D01*
X306290D01*
Y-255753D01*
X476553Y-256503D02*
Y-252004D01*
X478802D01*
X479552Y-252754D01*
Y-254254D01*
X478802Y-255003D01*
X476553D01*
X478053D02*
X479552Y-256503D01*
X484051Y-252004D02*
X481052D01*
Y-256503D01*
X484051D01*
X481052Y-254254D02*
X482551D01*
X485550Y-252004D02*
Y-255003D01*
X487050Y-256503D01*
X488549Y-255003D01*
Y-252004D01*
X490049Y-253504D02*
X490798D01*
Y-254254D01*
X490049D01*
Y-253504D01*
Y-255753D02*
X490798D01*
Y-256503D01*
X490049D01*
Y-255753D01*
X476553Y-282004D02*
Y-286503D01*
X478802D01*
X479552Y-285753D01*
Y-282754D01*
X478802Y-282004D01*
X476553D01*
X481052Y-286503D02*
Y-283504D01*
X482551Y-282004D01*
X484051Y-283504D01*
Y-286503D01*
Y-284254D01*
X481052D01*
X485550Y-282004D02*
X488549D01*
X487050D01*
Y-286503D01*
X493048Y-282004D02*
X490049D01*
Y-286503D01*
X493048D01*
X490049Y-284254D02*
X491548D01*
X494547Y-283504D02*
X495297D01*
Y-284254D01*
X494547D01*
Y-283504D01*
Y-285753D02*
X495297D01*
Y-286503D01*
X494547D01*
Y-285753D01*
X266553Y-282004D02*
Y-286503D01*
X269552D01*
X271801Y-283504D02*
X273301D01*
X274051Y-284254D01*
Y-286503D01*
X271801D01*
X271052Y-285753D01*
X271801Y-285003D01*
X274051D01*
X275550Y-283504D02*
Y-285753D01*
X276300Y-286503D01*
X278549D01*
Y-287253D01*
X277799Y-288002D01*
X277050D01*
X278549Y-286503D02*
Y-283504D01*
X282298Y-286503D02*
X280798D01*
X280049Y-285753D01*
Y-284254D01*
X280798Y-283504D01*
X282298D01*
X283048Y-284254D01*
Y-285003D01*
X280049D01*
X284547Y-283504D02*
Y-286503D01*
Y-285003D01*
X285297Y-284254D01*
X286047Y-283504D01*
X286796D01*
X289046D02*
X289795D01*
Y-284254D01*
X289046D01*
Y-283504D01*
Y-285753D02*
X289795D01*
Y-286503D01*
X289046D01*
Y-285753D01*
X-338947Y-262004D02*
X-335948D01*
X-337448D01*
Y-266503D01*
X-334449Y-262004D02*
Y-266503D01*
Y-264254D01*
X-333699Y-263504D01*
X-332199D01*
X-331449Y-264254D01*
Y-266503D01*
X-327701D02*
X-329200D01*
X-329950Y-265753D01*
Y-264254D01*
X-329200Y-263504D01*
X-327701D01*
X-326951Y-264254D01*
Y-265003D01*
X-329950D01*
X-320953Y-266503D02*
X-319453D01*
X-320203D01*
Y-263504D01*
X-320953D01*
X-317204Y-266503D02*
Y-263504D01*
X-314955D01*
X-314205Y-264254D01*
Y-266503D01*
X-311956D02*
Y-262754D01*
Y-264254D01*
X-312705D01*
X-311206D01*
X-311956D01*
Y-262754D01*
X-311206Y-262004D01*
X-308207Y-266503D02*
X-306707D01*
X-305958Y-265753D01*
Y-264254D01*
X-306707Y-263504D01*
X-308207D01*
X-308957Y-264254D01*
Y-265753D01*
X-308207Y-266503D01*
X-304458Y-263504D02*
Y-266503D01*
Y-265003D01*
X-303708Y-264254D01*
X-302959Y-263504D01*
X-302209D01*
X-299960Y-266503D02*
Y-263504D01*
X-299210D01*
X-298460Y-264254D01*
Y-266503D01*
Y-264254D01*
X-297710Y-263504D01*
X-296960Y-264254D01*
Y-266503D01*
X-294711Y-263504D02*
X-293212D01*
X-292462Y-264254D01*
Y-266503D01*
X-294711D01*
X-295461Y-265753D01*
X-294711Y-265003D01*
X-292462D01*
X-290213Y-262754D02*
Y-263504D01*
X-290963D01*
X-289463D01*
X-290213D01*
Y-265753D01*
X-289463Y-266503D01*
X-287214D02*
X-285714D01*
X-286464D01*
Y-263504D01*
X-287214D01*
X-282715Y-266503D02*
X-281216D01*
X-280466Y-265753D01*
Y-264254D01*
X-281216Y-263504D01*
X-282715D01*
X-283465Y-264254D01*
Y-265753D01*
X-282715Y-266503D01*
X-278966D02*
Y-263504D01*
X-276717D01*
X-275967Y-264254D01*
Y-266503D01*
X-269969D02*
X-268470D01*
X-269219D01*
Y-263504D01*
X-269969D01*
X-266220Y-266503D02*
Y-263504D01*
X-263971D01*
X-263221Y-264254D01*
Y-266503D01*
X-256474Y-262754D02*
Y-263504D01*
X-257223D01*
X-255724D01*
X-256474D01*
Y-265753D01*
X-255724Y-266503D01*
X-253475Y-262004D02*
Y-266503D01*
Y-264254D01*
X-252725Y-263504D01*
X-251225D01*
X-250476Y-264254D01*
Y-266503D01*
X-248976D02*
X-247477D01*
X-248226D01*
Y-263504D01*
X-248976D01*
X-245227Y-266503D02*
X-242978D01*
X-242228Y-265753D01*
X-242978Y-265003D01*
X-244478D01*
X-245227Y-264254D01*
X-244478Y-263504D01*
X-242228D01*
X-233231Y-262004D02*
Y-266503D01*
X-235480D01*
X-236230Y-265753D01*
Y-264254D01*
X-235480Y-263504D01*
X-233231D01*
X-230982Y-266503D02*
X-229482D01*
X-228732Y-265753D01*
Y-264254D01*
X-229482Y-263504D01*
X-230982D01*
X-231732Y-264254D01*
Y-265753D01*
X-230982Y-266503D01*
X-224234Y-263504D02*
X-226483D01*
X-227233Y-264254D01*
Y-265753D01*
X-226483Y-266503D01*
X-224234D01*
X-222734Y-263504D02*
Y-265753D01*
X-221985Y-266503D01*
X-219735D01*
Y-263504D01*
X-218236Y-266503D02*
Y-263504D01*
X-217486D01*
X-216736Y-264254D01*
Y-266503D01*
Y-264254D01*
X-215987Y-263504D01*
X-215237Y-264254D01*
Y-266503D01*
X-211488D02*
X-212988D01*
X-213737Y-265753D01*
Y-264254D01*
X-212988Y-263504D01*
X-211488D01*
X-210738Y-264254D01*
Y-265003D01*
X-213737D01*
X-209239Y-266503D02*
Y-263504D01*
X-206990D01*
X-206240Y-264254D01*
Y-266503D01*
X-203991Y-262754D02*
Y-263504D01*
X-204740D01*
X-203241D01*
X-203991D01*
Y-265753D01*
X-203241Y-266503D01*
X-196493D02*
X-194993D01*
X-195743D01*
Y-263504D01*
X-196493D01*
X-192744Y-266503D02*
X-190495D01*
X-189745Y-265753D01*
X-190495Y-265003D01*
X-191994D01*
X-192744Y-264254D01*
X-191994Y-263504D01*
X-189745D01*
X-183747Y-266503D02*
X-181498D01*
X-180748Y-265753D01*
X-181498Y-265003D01*
X-182997D01*
X-183747Y-264254D01*
X-182997Y-263504D01*
X-180748D01*
X-179248D02*
Y-265753D01*
X-178499Y-266503D01*
X-176250D01*
Y-263504D01*
X-174750Y-262004D02*
Y-266503D01*
X-172501D01*
X-171751Y-265753D01*
Y-265003D01*
Y-264254D01*
X-172501Y-263504D01*
X-174750D01*
X-170251Y-268003D02*
X-169502D01*
X-168752Y-267253D01*
Y-263504D01*
X-163504Y-266503D02*
X-165003D01*
X-165753Y-265753D01*
Y-264254D01*
X-165003Y-263504D01*
X-163504D01*
X-162754Y-264254D01*
Y-265003D01*
X-165753D01*
X-158255Y-263504D02*
X-160504D01*
X-161254Y-264254D01*
Y-265753D01*
X-160504Y-266503D01*
X-158255D01*
X-156006Y-262754D02*
Y-263504D01*
X-156756D01*
X-155256D01*
X-156006D01*
Y-265753D01*
X-155256Y-266503D01*
X-147759Y-262754D02*
Y-263504D01*
X-148508D01*
X-147009D01*
X-147759D01*
Y-265753D01*
X-147009Y-266503D01*
X-144010D02*
X-142510D01*
X-141761Y-265753D01*
Y-264254D01*
X-142510Y-263504D01*
X-144010D01*
X-144760Y-264254D01*
Y-265753D01*
X-144010Y-266503D01*
X-132764Y-263504D02*
X-135013D01*
X-135763Y-264254D01*
Y-265753D01*
X-135013Y-266503D01*
X-132764D01*
X-131264Y-262004D02*
Y-266503D01*
Y-264254D01*
X-130514Y-263504D01*
X-129015D01*
X-128265Y-264254D01*
Y-266503D01*
X-126016Y-263504D02*
X-124516D01*
X-123766Y-264254D01*
Y-266503D01*
X-126016D01*
X-126765Y-265753D01*
X-126016Y-265003D01*
X-123766D01*
X-122267Y-266503D02*
Y-263504D01*
X-120018D01*
X-119268Y-264254D01*
Y-266503D01*
X-116269Y-268003D02*
X-115519D01*
X-114769Y-267253D01*
Y-263504D01*
X-117019D01*
X-117768Y-264254D01*
Y-265753D01*
X-117019Y-266503D01*
X-114769D01*
X-111021D02*
X-112520D01*
X-113270Y-265753D01*
Y-264254D01*
X-112520Y-263504D01*
X-111021D01*
X-110271Y-264254D01*
Y-265003D01*
X-113270D01*
X-104273Y-263504D02*
Y-265753D01*
X-103523Y-266503D01*
X-102773Y-265753D01*
X-102023Y-266503D01*
X-101274Y-265753D01*
Y-263504D01*
X-99774Y-266503D02*
X-98275D01*
X-99024D01*
Y-263504D01*
X-99774D01*
X-95276Y-262754D02*
Y-263504D01*
X-96025D01*
X-94526D01*
X-95276D01*
Y-265753D01*
X-94526Y-266503D01*
X-92277Y-262004D02*
Y-266503D01*
Y-264254D01*
X-91527Y-263504D01*
X-90027D01*
X-89277Y-264254D01*
Y-266503D01*
X-87028D02*
X-85529D01*
X-84779Y-265753D01*
Y-264254D01*
X-85529Y-263504D01*
X-87028D01*
X-87778Y-264254D01*
Y-265753D01*
X-87028Y-266503D01*
X-83279Y-263504D02*
Y-265753D01*
X-82530Y-266503D01*
X-80280D01*
Y-263504D01*
X-78031Y-262754D02*
Y-263504D01*
X-78781D01*
X-77281D01*
X-78031D01*
Y-265753D01*
X-77281Y-266503D01*
X-70534D02*
Y-263504D01*
X-68284D01*
X-67535Y-264254D01*
Y-266503D01*
X-65285D02*
X-63786D01*
X-63036Y-265753D01*
Y-264254D01*
X-63786Y-263504D01*
X-65285D01*
X-66035Y-264254D01*
Y-265753D01*
X-65285Y-266503D01*
X-60787Y-262754D02*
Y-263504D01*
X-61536D01*
X-60037D01*
X-60787D01*
Y-265753D01*
X-60037Y-266503D01*
X-57788D02*
X-56288D01*
X-57038D01*
Y-263504D01*
X-57788D01*
X-51040D02*
X-53289D01*
X-54039Y-264254D01*
Y-265753D01*
X-53289Y-266503D01*
X-51040D01*
X-47291D02*
X-48791D01*
X-49540Y-265753D01*
Y-264254D01*
X-48791Y-263504D01*
X-47291D01*
X-46541Y-264254D01*
Y-265003D01*
X-49540D01*
X-45042Y-266503D02*
Y-265753D01*
X-44292D01*
Y-266503D01*
X-45042D01*
X-36794Y-262004D02*
X-33795D01*
X-35295D01*
Y-266503D01*
X-32296Y-262004D02*
Y-266503D01*
Y-264254D01*
X-31546Y-263504D01*
X-30047D01*
X-29297Y-264254D01*
Y-266503D01*
X-25548D02*
X-27048D01*
X-27797Y-265753D01*
Y-264254D01*
X-27048Y-263504D01*
X-25548D01*
X-24798Y-264254D01*
Y-265003D01*
X-27797D01*
X-18800Y-266503D02*
X-16551D01*
X-15801Y-265753D01*
X-16551Y-265003D01*
X-18050D01*
X-18800Y-264254D01*
X-18050Y-263504D01*
X-15801D01*
X-13552Y-262754D02*
Y-263504D01*
X-14302D01*
X-12802D01*
X-13552D01*
Y-265753D01*
X-12802Y-266503D01*
X-9803Y-263504D02*
X-8304D01*
X-7554Y-264254D01*
Y-266503D01*
X-9803D01*
X-10553Y-265753D01*
X-9803Y-265003D01*
X-7554D01*
X-5305Y-262754D02*
Y-263504D01*
X-6054D01*
X-4555D01*
X-5305D01*
Y-265753D01*
X-4555Y-266503D01*
X-56D02*
X-1556D01*
X-2306Y-265753D01*
Y-264254D01*
X-1556Y-263504D01*
X-56D01*
X693Y-264254D01*
Y-265003D01*
X-2306D01*
X2193Y-266503D02*
Y-263504D01*
X2943D01*
X3692Y-264254D01*
Y-266503D01*
Y-264254D01*
X4442Y-263504D01*
X5192Y-264254D01*
Y-266503D01*
X8941D02*
X7441D01*
X6692Y-265753D01*
Y-264254D01*
X7441Y-263504D01*
X8941D01*
X9691Y-264254D01*
Y-265003D01*
X6692D01*
X11190Y-266503D02*
Y-263504D01*
X13439D01*
X14189Y-264254D01*
Y-266503D01*
X16438Y-262754D02*
Y-263504D01*
X15689D01*
X17188D01*
X16438D01*
Y-265753D01*
X17188Y-266503D01*
X19437D02*
X21687D01*
X22436Y-265753D01*
X21687Y-265003D01*
X20187D01*
X19437Y-264254D01*
X20187Y-263504D01*
X22436D01*
X24686Y-267253D02*
X25436Y-266503D01*
Y-265753D01*
X24686D01*
Y-266503D01*
X25436D01*
X24686Y-267253D01*
X23936Y-268003D01*
X35932Y-263504D02*
X33683D01*
X32933Y-264254D01*
Y-265753D01*
X33683Y-266503D01*
X35932D01*
X38181D02*
X39681D01*
X40431Y-265753D01*
Y-264254D01*
X39681Y-263504D01*
X38181D01*
X37432Y-264254D01*
Y-265753D01*
X38181Y-266503D01*
X41930D02*
Y-263504D01*
X44179D01*
X44929Y-264254D01*
Y-266503D01*
X47179D02*
Y-262754D01*
Y-264254D01*
X46429D01*
X47928D01*
X47179D01*
Y-262754D01*
X47928Y-262004D01*
X50178Y-266503D02*
X51677D01*
X50927D01*
Y-263504D01*
X50178D01*
X55426Y-268003D02*
X56176D01*
X56925Y-267253D01*
Y-263504D01*
X54676D01*
X53926Y-264254D01*
Y-265753D01*
X54676Y-266503D01*
X56925D01*
X58425Y-263504D02*
Y-265753D01*
X59175Y-266503D01*
X61424D01*
Y-263504D01*
X62923D02*
Y-266503D01*
Y-265003D01*
X63673Y-264254D01*
X64423Y-263504D01*
X65173D01*
X68172D02*
X69671D01*
X70421Y-264254D01*
Y-266503D01*
X68172D01*
X67422Y-265753D01*
X68172Y-265003D01*
X70421D01*
X72670Y-262754D02*
Y-263504D01*
X71921D01*
X73420D01*
X72670D01*
Y-265753D01*
X73420Y-266503D01*
X75669D02*
X77169D01*
X76419D01*
Y-263504D01*
X75669D01*
X80168Y-266503D02*
X81667D01*
X82417Y-265753D01*
Y-264254D01*
X81667Y-263504D01*
X80168D01*
X79418Y-264254D01*
Y-265753D01*
X80168Y-266503D01*
X83917D02*
Y-263504D01*
X86166D01*
X86916Y-264254D01*
Y-266503D01*
X88415D02*
X90664D01*
X91414Y-265753D01*
X90664Y-265003D01*
X89165D01*
X88415Y-264254D01*
X89165Y-263504D01*
X91414D01*
X93664Y-267253D02*
X94413Y-266503D01*
Y-265753D01*
X93664D01*
Y-266503D01*
X94413D01*
X93664Y-267253D01*
X92914Y-268003D01*
X-338197Y-270254D02*
Y-271004D01*
X-338947D01*
X-337448D01*
X-338197D01*
Y-273253D01*
X-337448Y-274003D01*
X-332949D02*
X-334449D01*
X-335198Y-273253D01*
Y-271754D01*
X-334449Y-271004D01*
X-332949D01*
X-332199Y-271754D01*
Y-272503D01*
X-335198D01*
X-327701Y-271004D02*
X-329950D01*
X-330700Y-271754D01*
Y-273253D01*
X-329950Y-274003D01*
X-327701D01*
X-326201Y-269504D02*
Y-274003D01*
Y-271754D01*
X-325451Y-271004D01*
X-323952D01*
X-323202Y-271754D01*
Y-274003D01*
X-321703D02*
Y-271004D01*
X-319453D01*
X-318704Y-271754D01*
Y-274003D01*
X-317204D02*
X-315704D01*
X-316454D01*
Y-271004D01*
X-317204D01*
X-310456D02*
X-312705D01*
X-313455Y-271754D01*
Y-273253D01*
X-312705Y-274003D01*
X-310456D01*
X-308207Y-271004D02*
X-306707D01*
X-305958Y-271754D01*
Y-274003D01*
X-308207D01*
X-308957Y-273253D01*
X-308207Y-272503D01*
X-305958D01*
X-304458Y-274003D02*
X-302959D01*
X-303708D01*
Y-269504D01*
X-304458D01*
X-293212D02*
Y-274003D01*
X-295461D01*
X-296211Y-273253D01*
Y-271754D01*
X-295461Y-271004D01*
X-293212D01*
X-290963D02*
X-289463D01*
X-288713Y-271754D01*
Y-274003D01*
X-290963D01*
X-291712Y-273253D01*
X-290963Y-272503D01*
X-288713D01*
X-286464Y-270254D02*
Y-271004D01*
X-287214D01*
X-285714D01*
X-286464D01*
Y-273253D01*
X-285714Y-274003D01*
X-282715Y-271004D02*
X-281216D01*
X-280466Y-271754D01*
Y-274003D01*
X-282715D01*
X-283465Y-273253D01*
X-282715Y-272503D01*
X-280466D01*
X-273718Y-271004D02*
X-272218D01*
X-271469Y-271754D01*
Y-274003D01*
X-273718D01*
X-274468Y-273253D01*
X-273718Y-272503D01*
X-271469D01*
X-269969Y-274003D02*
Y-271004D01*
X-267720D01*
X-266970Y-271754D01*
Y-274003D01*
X-262472Y-269504D02*
Y-274003D01*
X-264721D01*
X-265471Y-273253D01*
Y-271754D01*
X-264721Y-271004D01*
X-262472D01*
X-256474D02*
Y-274003D01*
Y-272503D01*
X-255724Y-271754D01*
X-254974Y-271004D01*
X-254224D01*
X-249726Y-274003D02*
X-251225D01*
X-251975Y-273253D01*
Y-271754D01*
X-251225Y-271004D01*
X-249726D01*
X-248976Y-271754D01*
Y-272503D01*
X-251975D01*
X-244478Y-271004D02*
X-246727D01*
X-247477Y-271754D01*
Y-273253D01*
X-246727Y-274003D01*
X-244478D01*
X-242228D02*
X-240729D01*
X-239979Y-273253D01*
Y-271754D01*
X-240729Y-271004D01*
X-242228D01*
X-242978Y-271754D01*
Y-273253D01*
X-242228Y-274003D01*
X-238479D02*
Y-271004D01*
X-237730D01*
X-236980Y-271754D01*
Y-274003D01*
Y-271754D01*
X-236230Y-271004D01*
X-235480Y-271754D01*
Y-274003D01*
X-233981D02*
Y-271004D01*
X-233231D01*
X-232481Y-271754D01*
Y-274003D01*
Y-271754D01*
X-231732Y-271004D01*
X-230982Y-271754D01*
Y-274003D01*
X-227233D02*
X-228732D01*
X-229482Y-273253D01*
Y-271754D01*
X-228732Y-271004D01*
X-227233D01*
X-226483Y-271754D01*
Y-272503D01*
X-229482D01*
X-224984Y-274003D02*
Y-271004D01*
X-222734D01*
X-221985Y-271754D01*
Y-274003D01*
X-217486Y-269504D02*
Y-274003D01*
X-219735D01*
X-220485Y-273253D01*
Y-271754D01*
X-219735Y-271004D01*
X-217486D01*
X-215237D02*
X-213737D01*
X-212988Y-271754D01*
Y-274003D01*
X-215237D01*
X-215987Y-273253D01*
X-215237Y-272503D01*
X-212988D01*
X-210738Y-270254D02*
Y-271004D01*
X-211488D01*
X-209989D01*
X-210738D01*
Y-273253D01*
X-209989Y-274003D01*
X-207739D02*
X-206240D01*
X-206990D01*
Y-271004D01*
X-207739D01*
X-203241Y-274003D02*
X-201741D01*
X-200992Y-273253D01*
Y-271754D01*
X-201741Y-271004D01*
X-203241D01*
X-203991Y-271754D01*
Y-273253D01*
X-203241Y-274003D01*
X-199492D02*
Y-271004D01*
X-197243D01*
X-196493Y-271754D01*
Y-274003D01*
X-194993D02*
X-192744D01*
X-191994Y-273253D01*
X-192744Y-272503D01*
X-194244D01*
X-194993Y-271754D01*
X-194244Y-271004D01*
X-191994D01*
X-185996Y-274003D02*
X-184497D01*
X-185247D01*
Y-271004D01*
X-185996D01*
X-182247Y-274003D02*
Y-271004D01*
X-179998D01*
X-179248Y-271754D01*
Y-274003D01*
X-172501Y-270254D02*
Y-271004D01*
X-173250D01*
X-171751D01*
X-172501D01*
Y-273253D01*
X-171751Y-274003D01*
X-169502Y-269504D02*
Y-274003D01*
Y-271754D01*
X-168752Y-271004D01*
X-167252D01*
X-166503Y-271754D01*
Y-274003D01*
X-165003D02*
X-163504D01*
X-164253D01*
Y-271004D01*
X-165003D01*
X-161254Y-274003D02*
X-159005D01*
X-158255Y-273253D01*
X-159005Y-272503D01*
X-160504D01*
X-161254Y-271754D01*
X-160504Y-271004D01*
X-158255D01*
X-149258Y-269504D02*
Y-274003D01*
X-151507D01*
X-152257Y-273253D01*
Y-271754D01*
X-151507Y-271004D01*
X-149258D01*
X-147009Y-274003D02*
X-145509D01*
X-144760Y-273253D01*
Y-271754D01*
X-145509Y-271004D01*
X-147009D01*
X-147759Y-271754D01*
Y-273253D01*
X-147009Y-274003D01*
X-140261Y-271004D02*
X-142510D01*
X-143260Y-271754D01*
Y-273253D01*
X-142510Y-274003D01*
X-140261D01*
X-138761Y-271004D02*
Y-273253D01*
X-138012Y-274003D01*
X-135763D01*
Y-271004D01*
X-134263Y-274003D02*
Y-271004D01*
X-133513D01*
X-132764Y-271754D01*
Y-274003D01*
Y-271754D01*
X-132014Y-271004D01*
X-131264Y-271754D01*
Y-274003D01*
X-127515D02*
X-129015D01*
X-129764Y-273253D01*
Y-271754D01*
X-129015Y-271004D01*
X-127515D01*
X-126765Y-271754D01*
Y-272503D01*
X-129764D01*
X-125266Y-274003D02*
Y-271004D01*
X-123017D01*
X-122267Y-271754D01*
Y-274003D01*
X-120018Y-270254D02*
Y-271004D01*
X-120767D01*
X-119268D01*
X-120018D01*
Y-273253D01*
X-119268Y-274003D01*
X-111770Y-271004D02*
X-110271D01*
X-109521Y-271754D01*
Y-274003D01*
X-111770D01*
X-112520Y-273253D01*
X-111770Y-272503D01*
X-109521D01*
X-108021Y-271004D02*
Y-274003D01*
Y-272503D01*
X-107272Y-271754D01*
X-106522Y-271004D01*
X-105772D01*
X-101274Y-274003D02*
X-102773D01*
X-103523Y-273253D01*
Y-271754D01*
X-102773Y-271004D01*
X-101274D01*
X-100524Y-271754D01*
Y-272503D01*
X-103523D01*
X-94526Y-269504D02*
Y-274003D01*
X-92277D01*
X-91527Y-273253D01*
Y-272503D01*
Y-271754D01*
X-92277Y-271004D01*
X-94526D01*
X-87778Y-274003D02*
X-89277D01*
X-90027Y-273253D01*
Y-271754D01*
X-89277Y-271004D01*
X-87778D01*
X-87028Y-271754D01*
Y-272503D01*
X-90027D01*
X-85529Y-274003D02*
X-84029D01*
X-84779D01*
Y-269504D01*
X-85529D01*
X-81780Y-274003D02*
X-80280D01*
X-81030D01*
Y-271004D01*
X-81780D01*
X-75782Y-274003D02*
X-77281D01*
X-78031Y-273253D01*
Y-271754D01*
X-77281Y-271004D01*
X-75782D01*
X-75032Y-271754D01*
Y-272503D01*
X-78031D01*
X-73533Y-271004D02*
X-72033Y-274003D01*
X-70534Y-271004D01*
X-66785Y-274003D02*
X-68284D01*
X-69034Y-273253D01*
Y-271754D01*
X-68284Y-271004D01*
X-66785D01*
X-66035Y-271754D01*
Y-272503D01*
X-69034D01*
X-61536Y-269504D02*
Y-274003D01*
X-63786D01*
X-64535Y-273253D01*
Y-271754D01*
X-63786Y-271004D01*
X-61536D01*
X-54789Y-270254D02*
Y-271004D01*
X-55538D01*
X-54039D01*
X-54789D01*
Y-273253D01*
X-54039Y-274003D01*
X-51040D02*
X-49540D01*
X-48791Y-273253D01*
Y-271754D01*
X-49540Y-271004D01*
X-51040D01*
X-51790Y-271754D01*
Y-273253D01*
X-51040Y-274003D01*
X-42792Y-269504D02*
Y-274003D01*
X-40543D01*
X-39794Y-273253D01*
Y-272503D01*
Y-271754D01*
X-40543Y-271004D01*
X-42792D01*
X-36045Y-274003D02*
X-37544D01*
X-38294Y-273253D01*
Y-271754D01*
X-37544Y-271004D01*
X-36045D01*
X-35295Y-271754D01*
Y-272503D01*
X-38294D01*
X-28547Y-271004D02*
X-27048D01*
X-26298Y-271754D01*
Y-274003D01*
X-28547D01*
X-29297Y-273253D01*
X-28547Y-272503D01*
X-26298D01*
X-21799Y-271004D02*
X-24048D01*
X-24798Y-271754D01*
Y-273253D01*
X-24048Y-274003D01*
X-21799D01*
X-17301Y-271004D02*
X-19550D01*
X-20300Y-271754D01*
Y-273253D01*
X-19550Y-274003D01*
X-17301D01*
X-15801Y-271004D02*
Y-273253D01*
X-15051Y-274003D01*
X-12802D01*
Y-271004D01*
X-11303D02*
Y-274003D01*
Y-272503D01*
X-10553Y-271754D01*
X-9803Y-271004D01*
X-9053D01*
X-6054D02*
X-4555D01*
X-3805Y-271754D01*
Y-274003D01*
X-6054D01*
X-6804Y-273253D01*
X-6054Y-272503D01*
X-3805D01*
X-1556Y-270254D02*
Y-271004D01*
X-2306D01*
X-806D01*
X-1556D01*
Y-273253D01*
X-806Y-274003D01*
X3692D02*
X2193D01*
X1443Y-273253D01*
Y-271754D01*
X2193Y-271004D01*
X3692D01*
X4442Y-271754D01*
Y-272503D01*
X1443D01*
X11190Y-271004D02*
X12690D01*
X13439Y-271754D01*
Y-274003D01*
X11190D01*
X10440Y-273253D01*
X11190Y-272503D01*
X13439D01*
X14939Y-274003D02*
Y-271004D01*
X17188D01*
X17938Y-271754D01*
Y-274003D01*
X22436Y-269504D02*
Y-274003D01*
X20187D01*
X19437Y-273253D01*
Y-271754D01*
X20187Y-271004D01*
X22436D01*
X28435D02*
Y-274003D01*
Y-272503D01*
X29184Y-271754D01*
X29934Y-271004D01*
X30684D01*
X35182Y-274003D02*
X33683D01*
X32933Y-273253D01*
Y-271754D01*
X33683Y-271004D01*
X35182D01*
X35932Y-271754D01*
Y-272503D01*
X32933D01*
X37432Y-274003D02*
X38931D01*
X38181D01*
Y-269504D01*
X37432D01*
X41181Y-274003D02*
X42680D01*
X41930D01*
Y-271004D01*
X41181D01*
X45679D02*
X47179D01*
X47928Y-271754D01*
Y-274003D01*
X45679D01*
X44929Y-273253D01*
X45679Y-272503D01*
X47928D01*
X49428Y-269504D02*
Y-274003D01*
X51677D01*
X52427Y-273253D01*
Y-272503D01*
Y-271754D01*
X51677Y-271004D01*
X49428D01*
X53926Y-274003D02*
X55426D01*
X54676D01*
Y-269504D01*
X53926D01*
X59924Y-274003D02*
X58425D01*
X57675Y-273253D01*
Y-271754D01*
X58425Y-271004D01*
X59924D01*
X60674Y-271754D01*
Y-272503D01*
X57675D01*
X62923Y-274753D02*
X63673Y-274003D01*
Y-273253D01*
X62923D01*
Y-274003D01*
X63673D01*
X62923Y-274753D01*
X62174Y-275502D01*
X71171Y-269504D02*
Y-274003D01*
X73420D01*
X74170Y-273253D01*
Y-272503D01*
Y-271754D01*
X73420Y-271004D01*
X71171D01*
X75669D02*
Y-273253D01*
X76419Y-274003D01*
X78668D01*
Y-271004D01*
X80918Y-270254D02*
Y-271004D01*
X80168D01*
X81667D01*
X80918D01*
Y-273253D01*
X81667Y-274003D01*
X89165Y-271004D02*
X90664D01*
X91414Y-271754D01*
Y-274003D01*
X89165D01*
X88415Y-273253D01*
X89165Y-272503D01*
X91414D01*
X92914Y-271004D02*
Y-274003D01*
Y-272503D01*
X93664Y-271754D01*
X94413Y-271004D01*
X95163D01*
X99662Y-274003D02*
X98162D01*
X97412Y-273253D01*
Y-271754D01*
X98162Y-271004D01*
X99662D01*
X100411Y-271754D01*
Y-272503D01*
X97412D01*
X-338947Y-283002D02*
Y-278504D01*
X-336698D01*
X-335948Y-279254D01*
Y-280753D01*
X-336698Y-281503D01*
X-338947D01*
X-334449Y-278504D02*
Y-281503D01*
Y-280003D01*
X-333699Y-279254D01*
X-332949Y-278504D01*
X-332199D01*
X-327701Y-281503D02*
X-329200D01*
X-329950Y-280753D01*
Y-279254D01*
X-329200Y-278504D01*
X-327701D01*
X-326951Y-279254D01*
Y-280003D01*
X-329950D01*
X-325451Y-281503D02*
X-323202D01*
X-322452Y-280753D01*
X-323202Y-280003D01*
X-324702D01*
X-325451Y-279254D01*
X-324702Y-278504D01*
X-322452D01*
X-318704Y-281503D02*
X-320203D01*
X-320953Y-280753D01*
Y-279254D01*
X-320203Y-278504D01*
X-318704D01*
X-317954Y-279254D01*
Y-280003D01*
X-320953D01*
X-316454Y-281503D02*
Y-278504D01*
X-314205D01*
X-313455Y-279254D01*
Y-281503D01*
X-311206Y-277754D02*
Y-278504D01*
X-311956D01*
X-310456D01*
X-311206D01*
Y-280753D01*
X-310456Y-281503D01*
X-305958D02*
X-307457D01*
X-308207Y-280753D01*
Y-279254D01*
X-307457Y-278504D01*
X-305958D01*
X-305208Y-279254D01*
Y-280003D01*
X-308207D01*
X-300709Y-277004D02*
Y-281503D01*
X-302959D01*
X-303708Y-280753D01*
Y-279254D01*
X-302959Y-278504D01*
X-300709D01*
X-294711D02*
Y-280753D01*
X-293962Y-281503D01*
X-293212Y-280753D01*
X-292462Y-281503D01*
X-291712Y-280753D01*
Y-278504D01*
X-290213Y-281503D02*
X-288713D01*
X-289463D01*
Y-278504D01*
X-290213D01*
X-285714Y-277754D02*
Y-278504D01*
X-286464D01*
X-284964D01*
X-285714D01*
Y-280753D01*
X-284964Y-281503D01*
X-282715Y-277004D02*
Y-281503D01*
Y-279254D01*
X-281965Y-278504D01*
X-280466D01*
X-279716Y-279254D01*
Y-281503D01*
X-277467D02*
X-275967D01*
X-275218Y-280753D01*
Y-279254D01*
X-275967Y-278504D01*
X-277467D01*
X-278217Y-279254D01*
Y-280753D01*
X-277467Y-281503D01*
X-273718Y-278504D02*
Y-280753D01*
X-272968Y-281503D01*
X-270719D01*
Y-278504D01*
X-268470Y-277754D02*
Y-278504D01*
X-269219D01*
X-267720D01*
X-268470D01*
Y-280753D01*
X-267720Y-281503D01*
X-258723D02*
X-260222D01*
X-260972Y-280753D01*
Y-279254D01*
X-260222Y-278504D01*
X-258723D01*
X-257973Y-279254D01*
Y-280003D01*
X-260972D01*
X-256474Y-278504D02*
X-253475Y-281503D01*
X-254974Y-280003D01*
X-253475Y-278504D01*
X-256474Y-281503D01*
X-251975Y-283002D02*
Y-278504D01*
X-249726D01*
X-248976Y-279254D01*
Y-280753D01*
X-249726Y-281503D01*
X-251975D01*
X-247477Y-278504D02*
Y-281503D01*
Y-280003D01*
X-246727Y-279254D01*
X-245977Y-278504D01*
X-245227D01*
X-240729Y-281503D02*
X-242228D01*
X-242978Y-280753D01*
Y-279254D01*
X-242228Y-278504D01*
X-240729D01*
X-239979Y-279254D01*
Y-280003D01*
X-242978D01*
X-238479Y-281503D02*
X-236230D01*
X-235480Y-280753D01*
X-236230Y-280003D01*
X-237730D01*
X-238479Y-279254D01*
X-237730Y-278504D01*
X-235480D01*
X-233981Y-281503D02*
X-231732D01*
X-230982Y-280753D01*
X-231732Y-280003D01*
X-233231D01*
X-233981Y-279254D01*
X-233231Y-278504D01*
X-230982D01*
X-224234Y-281503D02*
X-222734D01*
X-221985Y-280753D01*
Y-279254D01*
X-222734Y-278504D01*
X-224234D01*
X-224984Y-279254D01*
Y-280753D01*
X-224234Y-281503D01*
X-220485Y-278504D02*
Y-281503D01*
Y-280003D01*
X-219735Y-279254D01*
X-218986Y-278504D01*
X-218236D01*
X-211488Y-281503D02*
X-209989D01*
X-210738D01*
Y-278504D01*
X-211488D01*
X-207739Y-281503D02*
Y-278504D01*
X-206990D01*
X-206240Y-279254D01*
Y-281503D01*
Y-279254D01*
X-205490Y-278504D01*
X-204740Y-279254D01*
Y-281503D01*
X-203241Y-283002D02*
Y-278504D01*
X-200992D01*
X-200242Y-279254D01*
Y-280753D01*
X-200992Y-281503D01*
X-203241D01*
X-198742D02*
X-197243D01*
X-197992D01*
Y-277004D01*
X-198742D01*
X-194993Y-281503D02*
X-193494D01*
X-194244D01*
Y-278504D01*
X-194993D01*
X-188995Y-281503D02*
X-190495D01*
X-191245Y-280753D01*
Y-279254D01*
X-190495Y-278504D01*
X-188995D01*
X-188246Y-279254D01*
Y-280003D01*
X-191245D01*
X-183747Y-277004D02*
Y-281503D01*
X-185996D01*
X-186746Y-280753D01*
Y-279254D01*
X-185996Y-278504D01*
X-183747D01*
X-177749D02*
Y-280753D01*
X-176999Y-281503D01*
X-176250Y-280753D01*
X-175500Y-281503D01*
X-174750Y-280753D01*
Y-278504D01*
X-172501D02*
X-171001D01*
X-170251Y-279254D01*
Y-281503D01*
X-172501D01*
X-173250Y-280753D01*
X-172501Y-280003D01*
X-170251D01*
X-168752Y-278504D02*
Y-281503D01*
Y-280003D01*
X-168002Y-279254D01*
X-167252Y-278504D01*
X-166503D01*
X-164253D02*
Y-281503D01*
Y-280003D01*
X-163504Y-279254D01*
X-162754Y-278504D01*
X-162004D01*
X-159005D02*
X-157506D01*
X-156756Y-279254D01*
Y-281503D01*
X-159005D01*
X-159755Y-280753D01*
X-159005Y-280003D01*
X-156756D01*
X-155256Y-281503D02*
Y-278504D01*
X-153007D01*
X-152257Y-279254D01*
Y-281503D01*
X-150008Y-277754D02*
Y-278504D01*
X-150758D01*
X-149258D01*
X-150008D01*
Y-280753D01*
X-149258Y-281503D01*
X-147009Y-278504D02*
Y-280753D01*
X-146259Y-281503D01*
X-144010D01*
Y-282253D01*
X-144760Y-283002D01*
X-145509D01*
X-144010Y-281503D02*
Y-278504D01*
X-142510Y-281503D02*
Y-280753D01*
X-141761D01*
Y-281503D01*
X-142510D01*
X-134263Y-277004D02*
X-131264D01*
X-132764D01*
Y-281503D01*
X-129764Y-277004D02*
Y-281503D01*
Y-279254D01*
X-129015Y-278504D01*
X-127515D01*
X-126765Y-279254D01*
Y-281503D01*
X-123017D02*
X-124516D01*
X-125266Y-280753D01*
Y-279254D01*
X-124516Y-278504D01*
X-123017D01*
X-122267Y-279254D01*
Y-280003D01*
X-125266D01*
X-116269Y-281503D02*
X-114769D01*
X-115519D01*
Y-278504D01*
X-116269D01*
X-112520Y-281503D02*
Y-278504D01*
X-110271D01*
X-109521Y-279254D01*
Y-281503D01*
X-107272D02*
Y-277754D01*
Y-279254D01*
X-108021D01*
X-106522D01*
X-107272D01*
Y-277754D01*
X-106522Y-277004D01*
X-103523Y-281503D02*
X-102023D01*
X-101274Y-280753D01*
Y-279254D01*
X-102023Y-278504D01*
X-103523D01*
X-104273Y-279254D01*
Y-280753D01*
X-103523Y-281503D01*
X-99774Y-278504D02*
Y-281503D01*
Y-280003D01*
X-99024Y-279254D01*
X-98275Y-278504D01*
X-97525D01*
X-95276Y-281503D02*
Y-278504D01*
X-94526D01*
X-93776Y-279254D01*
Y-281503D01*
Y-279254D01*
X-93026Y-278504D01*
X-92277Y-279254D01*
Y-281503D01*
X-90027Y-278504D02*
X-88528D01*
X-87778Y-279254D01*
Y-281503D01*
X-90027D01*
X-90777Y-280753D01*
X-90027Y-280003D01*
X-87778D01*
X-85529Y-277754D02*
Y-278504D01*
X-86278D01*
X-84779D01*
X-85529D01*
Y-280753D01*
X-84779Y-281503D01*
X-82530D02*
X-81030D01*
X-81780D01*
Y-278504D01*
X-82530D01*
X-78031Y-281503D02*
X-76532D01*
X-75782Y-280753D01*
Y-279254D01*
X-76532Y-278504D01*
X-78031D01*
X-78781Y-279254D01*
Y-280753D01*
X-78031Y-281503D01*
X-74282D02*
Y-278504D01*
X-72033D01*
X-71283Y-279254D01*
Y-281503D01*
X-65285D02*
X-63786D01*
X-64535D01*
Y-278504D01*
X-65285D01*
X-61536Y-281503D02*
Y-278504D01*
X-59287D01*
X-58537Y-279254D01*
Y-281503D01*
X-51790Y-277754D02*
Y-278504D01*
X-52539D01*
X-51040D01*
X-51790D01*
Y-280753D01*
X-51040Y-281503D01*
X-48791Y-277004D02*
Y-281503D01*
Y-279254D01*
X-48041Y-278504D01*
X-46541D01*
X-45792Y-279254D01*
Y-281503D01*
X-44292D02*
X-42792D01*
X-43542D01*
Y-278504D01*
X-44292D01*
X-40543Y-281503D02*
X-38294D01*
X-37544Y-280753D01*
X-38294Y-280003D01*
X-39794D01*
X-40543Y-279254D01*
X-39794Y-278504D01*
X-37544D01*
X-28547Y-277004D02*
Y-281503D01*
X-30796D01*
X-31546Y-280753D01*
Y-279254D01*
X-30796Y-278504D01*
X-28547D01*
X-26298Y-281503D02*
X-24798D01*
X-24048Y-280753D01*
Y-279254D01*
X-24798Y-278504D01*
X-26298D01*
X-27048Y-279254D01*
Y-280753D01*
X-26298Y-281503D01*
X-19550Y-278504D02*
X-21799D01*
X-22549Y-279254D01*
Y-280753D01*
X-21799Y-281503D01*
X-19550D01*
X-18050Y-278504D02*
Y-280753D01*
X-17301Y-281503D01*
X-15051D01*
Y-278504D01*
X-13552Y-281503D02*
Y-278504D01*
X-12802D01*
X-12052Y-279254D01*
Y-281503D01*
Y-279254D01*
X-11303Y-278504D01*
X-10553Y-279254D01*
Y-281503D01*
X-6804D02*
X-8304D01*
X-9053Y-280753D01*
Y-279254D01*
X-8304Y-278504D01*
X-6804D01*
X-6054Y-279254D01*
Y-280003D01*
X-9053D01*
X-4555Y-281503D02*
Y-278504D01*
X-2306D01*
X-1556Y-279254D01*
Y-281503D01*
X693Y-277754D02*
Y-278504D01*
X-56D01*
X1443D01*
X693D01*
Y-280753D01*
X1443Y-281503D01*
X8191D02*
X9691D01*
X8941D01*
Y-278504D01*
X8191D01*
X11940Y-281503D02*
X14189D01*
X14939Y-280753D01*
X14189Y-280003D01*
X12690D01*
X11940Y-279254D01*
X12690Y-278504D01*
X14939D01*
X21687Y-277754D02*
Y-278504D01*
X20937D01*
X22436D01*
X21687D01*
Y-280753D01*
X22436Y-281503D01*
X24686Y-277004D02*
Y-281503D01*
Y-279254D01*
X25436Y-278504D01*
X26935D01*
X27685Y-279254D01*
Y-281503D01*
X31434D02*
X29934D01*
X29184Y-280753D01*
Y-279254D01*
X29934Y-278504D01*
X31434D01*
X32183Y-279254D01*
Y-280003D01*
X29184D01*
X38181Y-283002D02*
Y-278504D01*
X40431D01*
X41180Y-279254D01*
Y-280753D01*
X40431Y-281503D01*
X38181D01*
X42680Y-278504D02*
Y-281503D01*
Y-280003D01*
X43430Y-279254D01*
X44179Y-278504D01*
X44929D01*
X47928Y-281503D02*
X49428D01*
X50178Y-280753D01*
Y-279254D01*
X49428Y-278504D01*
X47928D01*
X47179Y-279254D01*
Y-280753D01*
X47928Y-281503D01*
X51677Y-283002D02*
Y-278504D01*
X53926D01*
X54676Y-279254D01*
Y-280753D01*
X53926Y-281503D01*
X51677D01*
X56176Y-278504D02*
Y-281503D01*
Y-280003D01*
X56925Y-279254D01*
X57675Y-278504D01*
X58425D01*
X60674Y-281503D02*
X62174D01*
X61424D01*
Y-278504D01*
X60674D01*
X66672Y-281503D02*
X65173D01*
X64423Y-280753D01*
Y-279254D01*
X65173Y-278504D01*
X66672D01*
X67422Y-279254D01*
Y-280003D01*
X64423D01*
X69671Y-277754D02*
Y-278504D01*
X68922D01*
X70421D01*
X69671D01*
Y-280753D01*
X70421Y-281503D01*
X73420Y-278504D02*
X74920D01*
X75669Y-279254D01*
Y-281503D01*
X73420D01*
X72670Y-280753D01*
X73420Y-280003D01*
X75669D01*
X77169Y-278504D02*
Y-281503D01*
Y-280003D01*
X77919Y-279254D01*
X78668Y-278504D01*
X79418D01*
X81667D02*
Y-280753D01*
X82417Y-281503D01*
X84666D01*
Y-282253D01*
X83917Y-283002D01*
X83167D01*
X84666Y-281503D02*
Y-278504D01*
X91414D02*
X92914D01*
X93664Y-279254D01*
Y-281503D01*
X91414D01*
X90664Y-280753D01*
X91414Y-280003D01*
X93664D01*
X95163Y-281503D02*
Y-278504D01*
X97412D01*
X98162Y-279254D01*
Y-281503D01*
X102661Y-277004D02*
Y-281503D01*
X100411D01*
X99662Y-280753D01*
Y-279254D01*
X100411Y-278504D01*
X102661D01*
X-335948Y-286004D02*
X-338197D01*
X-338947Y-286754D01*
Y-288253D01*
X-338197Y-289003D01*
X-335948D01*
X-333699D02*
X-332199D01*
X-331449Y-288253D01*
Y-286754D01*
X-332199Y-286004D01*
X-333699D01*
X-334449Y-286754D01*
Y-288253D01*
X-333699Y-289003D01*
X-329950D02*
Y-286004D01*
X-327701D01*
X-326951Y-286754D01*
Y-289003D01*
X-324702D02*
Y-285254D01*
Y-286754D01*
X-325451D01*
X-323952D01*
X-324702D01*
Y-285254D01*
X-323952Y-284504D01*
X-321703Y-289003D02*
X-320203D01*
X-320953D01*
Y-286004D01*
X-321703D01*
X-314955Y-284504D02*
Y-289003D01*
X-317204D01*
X-317954Y-288253D01*
Y-286754D01*
X-317204Y-286004D01*
X-314955D01*
X-311206Y-289003D02*
X-312705D01*
X-313455Y-288253D01*
Y-286754D01*
X-312705Y-286004D01*
X-311206D01*
X-310456Y-286754D01*
Y-287504D01*
X-313455D01*
X-308957Y-289003D02*
Y-286004D01*
X-306707D01*
X-305958Y-286754D01*
Y-289003D01*
X-303708Y-285254D02*
Y-286004D01*
X-304458D01*
X-302959D01*
X-303708D01*
Y-288253D01*
X-302959Y-289003D01*
X-300709D02*
X-299210D01*
X-299960D01*
Y-286004D01*
X-300709D01*
X-296211D02*
X-294711D01*
X-293962Y-286754D01*
Y-289003D01*
X-296211D01*
X-296960Y-288253D01*
X-296211Y-287504D01*
X-293962D01*
X-292462Y-289003D02*
X-290963D01*
X-291712D01*
Y-284504D01*
X-292462D01*
X-284215Y-290503D02*
Y-286004D01*
X-281965D01*
X-281216Y-286754D01*
Y-288253D01*
X-281965Y-289003D01*
X-284215D01*
X-279716Y-286004D02*
Y-289003D01*
Y-287504D01*
X-278966Y-286754D01*
X-278217Y-286004D01*
X-277467D01*
X-274468Y-289003D02*
X-272968D01*
X-272218Y-288253D01*
Y-286754D01*
X-272968Y-286004D01*
X-274468D01*
X-275218Y-286754D01*
Y-288253D01*
X-274468Y-289003D01*
X-270719Y-290503D02*
Y-286004D01*
X-268470D01*
X-267720Y-286754D01*
Y-288253D01*
X-268470Y-289003D01*
X-270719D01*
X-263971D02*
X-265471D01*
X-266220Y-288253D01*
Y-286754D01*
X-265471Y-286004D01*
X-263971D01*
X-263221Y-286754D01*
Y-287504D01*
X-266220D01*
X-261722Y-286004D02*
Y-289003D01*
Y-287504D01*
X-260972Y-286754D01*
X-260222Y-286004D01*
X-259473D01*
X-256474Y-285254D02*
Y-286004D01*
X-257223D01*
X-255724D01*
X-256474D01*
Y-288253D01*
X-255724Y-289003D01*
X-253475Y-286004D02*
Y-288253D01*
X-252725Y-289003D01*
X-250476D01*
Y-289753D01*
X-251225Y-290503D01*
X-251975D01*
X-250476Y-289003D02*
Y-286004D01*
X-243728Y-289003D02*
X-242228D01*
X-241478Y-288253D01*
Y-286754D01*
X-242228Y-286004D01*
X-243728D01*
X-244478Y-286754D01*
Y-288253D01*
X-243728Y-289003D01*
X-239229D02*
Y-285254D01*
Y-286754D01*
X-239979D01*
X-238479D01*
X-239229D01*
Y-285254D01*
X-238479Y-284504D01*
X-228732Y-285254D02*
X-229482Y-284504D01*
X-230982D01*
X-231732Y-285254D01*
Y-286004D01*
X-230982Y-286754D01*
X-229482D01*
X-228732Y-287504D01*
Y-288253D01*
X-229482Y-289003D01*
X-230982D01*
X-231732Y-288253D01*
X-227233Y-289003D02*
X-225733D01*
X-226483D01*
Y-286004D01*
X-227233D01*
X-223484Y-289003D02*
X-221985D01*
X-222734D01*
Y-284504D01*
X-223484D01*
X-219735Y-289003D02*
X-218236D01*
X-218986D01*
Y-286004D01*
X-219735D01*
X-212988D02*
X-215237D01*
X-215987Y-286754D01*
Y-288253D01*
X-215237Y-289003D01*
X-212988D01*
X-210738D02*
X-209239D01*
X-208489Y-288253D01*
Y-286754D01*
X-209239Y-286004D01*
X-210738D01*
X-211488Y-286754D01*
Y-288253D01*
X-210738Y-289003D01*
X-206990D02*
Y-286004D01*
X-204740D01*
X-203991Y-286754D01*
Y-289003D01*
X-197993Y-284504D02*
Y-289003D01*
X-194993D01*
X-192744Y-286004D02*
X-191245D01*
X-190495Y-286754D01*
Y-289003D01*
X-192744D01*
X-193494Y-288253D01*
X-192744Y-287504D01*
X-190495D01*
X-188995Y-284504D02*
Y-289003D01*
X-186746D01*
X-185996Y-288253D01*
Y-287504D01*
Y-286754D01*
X-186746Y-286004D01*
X-188995D01*
X-184497Y-289003D02*
X-182247D01*
X-181498Y-288253D01*
X-182247Y-287504D01*
X-183747D01*
X-184497Y-286754D01*
X-183747Y-286004D01*
X-181498D01*
X-174750D02*
X-173250D01*
X-172501Y-286754D01*
Y-289003D01*
X-174750D01*
X-175500Y-288253D01*
X-174750Y-287504D01*
X-172501D01*
X-171001Y-289003D02*
Y-286004D01*
X-168752D01*
X-168002Y-286754D01*
Y-289003D01*
X-163504Y-284504D02*
Y-289003D01*
X-165753D01*
X-166503Y-288253D01*
Y-286754D01*
X-165753Y-286004D01*
X-163504D01*
X-157506Y-289003D02*
X-156006D01*
X-156756D01*
Y-286004D01*
X-157506D01*
X-153757Y-289003D02*
X-151507D01*
X-150758Y-288253D01*
X-151507Y-287504D01*
X-153007D01*
X-153757Y-286754D01*
X-153007Y-286004D01*
X-150758D01*
X-144760Y-290503D02*
Y-286004D01*
X-142510D01*
X-141761Y-286754D01*
Y-288253D01*
X-142510Y-289003D01*
X-144760D01*
X-140261Y-286004D02*
Y-289003D01*
Y-287504D01*
X-139511Y-286754D01*
X-138761Y-286004D01*
X-138012D01*
X-135763Y-289003D02*
X-134263D01*
X-135013D01*
Y-286004D01*
X-135763D01*
X-132014D02*
X-130514Y-289003D01*
X-129015Y-286004D01*
X-127515Y-289003D02*
X-126016D01*
X-126765D01*
Y-286004D01*
X-127515D01*
X-123766Y-289003D02*
X-122267D01*
X-123017D01*
Y-284504D01*
X-123766D01*
X-120018Y-289003D02*
X-118518D01*
X-119268D01*
Y-286004D01*
X-120018D01*
X-114769Y-290503D02*
X-114020D01*
X-113270Y-289753D01*
Y-286004D01*
X-115519D01*
X-116269Y-286754D01*
Y-288253D01*
X-115519Y-289003D01*
X-113270D01*
X-109521D02*
X-111021D01*
X-111770Y-288253D01*
Y-286754D01*
X-111021Y-286004D01*
X-109521D01*
X-108771Y-286754D01*
Y-287504D01*
X-111770D01*
X-104273Y-284504D02*
Y-289003D01*
X-106522D01*
X-107272Y-288253D01*
Y-286754D01*
X-106522Y-286004D01*
X-104273D01*
X-102773Y-289003D02*
Y-288253D01*
X-102023D01*
Y-289003D01*
X-102773D01*
X-94526D02*
Y-284504D01*
X-91527Y-289003D01*
Y-284504D01*
X-89277Y-289003D02*
X-87778D01*
X-87028Y-288253D01*
Y-286754D01*
X-87778Y-286004D01*
X-89277D01*
X-90027Y-286754D01*
Y-288253D01*
X-89277Y-289003D01*
X-81030Y-290503D02*
Y-286004D01*
X-78781D01*
X-78031Y-286754D01*
Y-288253D01*
X-78781Y-289003D01*
X-81030D01*
X-75782Y-286004D02*
X-74282D01*
X-73533Y-286754D01*
Y-289003D01*
X-75782D01*
X-76532Y-288253D01*
X-75782Y-287504D01*
X-73533D01*
X-72033Y-286004D02*
Y-289003D01*
Y-287504D01*
X-71283Y-286754D01*
X-70534Y-286004D01*
X-69784D01*
X-66785Y-285254D02*
Y-286004D01*
X-67535D01*
X-66035D01*
X-66785D01*
Y-288253D01*
X-66035Y-289003D01*
X-58537D02*
X-57038D01*
X-56288Y-288253D01*
Y-286754D01*
X-57038Y-286004D01*
X-58537D01*
X-59287Y-286754D01*
Y-288253D01*
X-58537Y-289003D01*
X-54039D02*
Y-285254D01*
Y-286754D01*
X-54789D01*
X-53289D01*
X-54039D01*
Y-285254D01*
X-53289Y-284504D01*
X-45792Y-285254D02*
Y-286004D01*
X-46541D01*
X-45042D01*
X-45792D01*
Y-288253D01*
X-45042Y-289003D01*
X-42792Y-284504D02*
Y-289003D01*
Y-286754D01*
X-42043Y-286004D01*
X-40543D01*
X-39794Y-286754D01*
Y-289003D01*
X-36045D02*
X-37544D01*
X-38294Y-288253D01*
Y-286754D01*
X-37544Y-286004D01*
X-36045D01*
X-35295Y-286754D01*
Y-287504D01*
X-38294D01*
X-26298Y-284504D02*
Y-289003D01*
X-28547D01*
X-29297Y-288253D01*
Y-286754D01*
X-28547Y-286004D01*
X-26298D01*
X-24798D02*
Y-289003D01*
Y-287504D01*
X-24048Y-286754D01*
X-23299Y-286004D01*
X-22549D01*
X-19550D02*
X-18050D01*
X-17301Y-286754D01*
Y-289003D01*
X-19550D01*
X-20300Y-288253D01*
X-19550Y-287504D01*
X-17301D01*
X-15801Y-286004D02*
Y-288253D01*
X-15051Y-289003D01*
X-14302Y-288253D01*
X-13552Y-289003D01*
X-12802Y-288253D01*
Y-286004D01*
X-11303Y-289003D02*
X-9803D01*
X-10553D01*
Y-286004D01*
X-11303D01*
X-7554Y-289003D02*
Y-286004D01*
X-5305D01*
X-4555Y-286754D01*
Y-289003D01*
X-1556Y-290503D02*
X-806D01*
X-56Y-289753D01*
Y-286004D01*
X-2306D01*
X-3055Y-286754D01*
Y-288253D01*
X-2306Y-289003D01*
X-56D01*
X6692D02*
X8191D01*
X8941Y-288253D01*
Y-286754D01*
X8191Y-286004D01*
X6692D01*
X5942Y-286754D01*
Y-288253D01*
X6692Y-289003D01*
X10440Y-286004D02*
Y-289003D01*
Y-287504D01*
X11190Y-286754D01*
X11940Y-286004D01*
X12690D01*
X19437Y-289003D02*
X20937D01*
X20187D01*
Y-286004D01*
X19437D01*
X23186Y-289003D02*
Y-286004D01*
X25436D01*
X26185Y-286754D01*
Y-289003D01*
X28435D02*
Y-285254D01*
Y-286754D01*
X27685D01*
X29184D01*
X28435D01*
Y-285254D01*
X29184Y-284504D01*
X32183Y-289003D02*
X33683D01*
X34433Y-288253D01*
Y-286754D01*
X33683Y-286004D01*
X32183D01*
X31434Y-286754D01*
Y-288253D01*
X32183Y-289003D01*
X35932Y-286004D02*
Y-289003D01*
Y-287504D01*
X36682Y-286754D01*
X37432Y-286004D01*
X38181D01*
X40431Y-289003D02*
Y-286004D01*
X41180D01*
X41930Y-286754D01*
Y-289003D01*
Y-286754D01*
X42680Y-286004D01*
X43430Y-286754D01*
Y-289003D01*
X45679Y-286004D02*
X47179D01*
X47928Y-286754D01*
Y-289003D01*
X45679D01*
X44929Y-288253D01*
X45679Y-287504D01*
X47928D01*
X50178Y-285254D02*
Y-286004D01*
X49428D01*
X50927D01*
X50178D01*
Y-288253D01*
X50927Y-289003D01*
X53177D02*
X54676D01*
X53926D01*
Y-286004D01*
X53177D01*
X57675Y-289003D02*
X59175D01*
X59924Y-288253D01*
Y-286754D01*
X59175Y-286004D01*
X57675D01*
X56925Y-286754D01*
Y-288253D01*
X57675Y-289003D01*
X61424D02*
Y-286004D01*
X63673D01*
X64423Y-286754D01*
Y-289003D01*
X70421D02*
Y-286004D01*
X71171D01*
X71921Y-286754D01*
Y-289003D01*
Y-286754D01*
X72670Y-286004D01*
X73420Y-286754D01*
Y-289003D01*
X75669Y-286004D02*
X77169D01*
X77919Y-286754D01*
Y-289003D01*
X75669D01*
X74920Y-288253D01*
X75669Y-287504D01*
X77919D01*
X79418Y-286004D02*
Y-288253D01*
X80168Y-289003D01*
X82417D01*
Y-289753D01*
X81667Y-290503D01*
X80918D01*
X82417Y-289003D02*
Y-286004D01*
X-338947Y-292004D02*
Y-296503D01*
X-336698D01*
X-335948Y-295753D01*
Y-295004D01*
Y-294254D01*
X-336698Y-293504D01*
X-338947D01*
X-332199Y-296503D02*
X-333699D01*
X-334449Y-295753D01*
Y-294254D01*
X-333699Y-293504D01*
X-332199D01*
X-331449Y-294254D01*
Y-295004D01*
X-334449D01*
X-322452Y-292004D02*
Y-296503D01*
X-324702D01*
X-325451Y-295753D01*
Y-294254D01*
X-324702Y-293504D01*
X-322452D01*
X-320953D02*
Y-295753D01*
X-320203Y-296503D01*
X-317954D01*
Y-293504D01*
X-316454Y-298003D02*
Y-293504D01*
X-314205D01*
X-313455Y-294254D01*
Y-295753D01*
X-314205Y-296503D01*
X-316454D01*
X-311956D02*
X-310456D01*
X-311206D01*
Y-292004D01*
X-311956D01*
X-308207Y-296503D02*
X-306707D01*
X-307457D01*
Y-293504D01*
X-308207D01*
X-301459D02*
X-303708D01*
X-304458Y-294254D01*
Y-295753D01*
X-303708Y-296503D01*
X-301459D01*
X-299210Y-293504D02*
X-297710D01*
X-296960Y-294254D01*
Y-296503D01*
X-299210D01*
X-299960Y-295753D01*
X-299210Y-295004D01*
X-296960D01*
X-294711Y-292754D02*
Y-293504D01*
X-295461D01*
X-293962D01*
X-294711D01*
Y-295753D01*
X-293962Y-296503D01*
X-289463D02*
X-290963D01*
X-291712Y-295753D01*
Y-294254D01*
X-290963Y-293504D01*
X-289463D01*
X-288713Y-294254D01*
Y-295004D01*
X-291712D01*
X-284215Y-292004D02*
Y-296503D01*
X-286464D01*
X-287214Y-295753D01*
Y-294254D01*
X-286464Y-293504D01*
X-284215D01*
X-277467Y-296503D02*
X-275967D01*
X-275218Y-295753D01*
Y-294254D01*
X-275967Y-293504D01*
X-277467D01*
X-278217Y-294254D01*
Y-295753D01*
X-277467Y-296503D01*
X-273718Y-293504D02*
Y-296503D01*
Y-295004D01*
X-272968Y-294254D01*
X-272218Y-293504D01*
X-271469D01*
X-263971Y-296503D02*
X-262472D01*
X-261722Y-295753D01*
Y-294254D01*
X-262472Y-293504D01*
X-263971D01*
X-264721Y-294254D01*
Y-295753D01*
X-263971Y-296503D01*
X-259473Y-292754D02*
Y-293504D01*
X-260222D01*
X-258723D01*
X-259473D01*
Y-295753D01*
X-258723Y-296503D01*
X-256474Y-292004D02*
Y-296503D01*
Y-294254D01*
X-255724Y-293504D01*
X-254224D01*
X-253475Y-294254D01*
Y-296503D01*
X-249726D02*
X-251225D01*
X-251975Y-295753D01*
Y-294254D01*
X-251225Y-293504D01*
X-249726D01*
X-248976Y-294254D01*
Y-295004D01*
X-251975D01*
X-247477Y-293504D02*
Y-296503D01*
Y-295004D01*
X-246727Y-294254D01*
X-245977Y-293504D01*
X-245227D01*
X-242978D02*
Y-295753D01*
X-242228Y-296503D01*
X-241478Y-295753D01*
X-240729Y-296503D01*
X-239979Y-295753D01*
Y-293504D01*
X-238479Y-296503D02*
X-236980D01*
X-237730D01*
Y-293504D01*
X-238479D01*
X-234731Y-296503D02*
X-232481D01*
X-231732Y-295753D01*
X-232481Y-295004D01*
X-233981D01*
X-234731Y-294254D01*
X-233981Y-293504D01*
X-231732D01*
X-227983Y-296503D02*
X-229482D01*
X-230232Y-295753D01*
Y-294254D01*
X-229482Y-293504D01*
X-227983D01*
X-227233Y-294254D01*
Y-295004D01*
X-230232D01*
X-221235Y-293504D02*
Y-295753D01*
X-220485Y-296503D01*
X-218236D01*
Y-293504D01*
X-216736Y-296503D02*
X-214487D01*
X-213737Y-295753D01*
X-214487Y-295004D01*
X-215987D01*
X-216736Y-294254D01*
X-215987Y-293504D01*
X-213737D01*
X-209989Y-296503D02*
X-211488D01*
X-212238Y-295753D01*
Y-294254D01*
X-211488Y-293504D01*
X-209989D01*
X-209239Y-294254D01*
Y-295004D01*
X-212238D01*
X-204740Y-292004D02*
Y-296503D01*
X-206990D01*
X-207739Y-295753D01*
Y-294254D01*
X-206990Y-293504D01*
X-204740D01*
X-198742D02*
Y-295753D01*
X-197992Y-296503D01*
X-197243Y-295753D01*
X-196493Y-296503D01*
X-195743Y-295753D01*
Y-293504D01*
X-194244Y-296503D02*
X-192744D01*
X-193494D01*
Y-293504D01*
X-194244D01*
X-189745Y-292754D02*
Y-293504D01*
X-190495D01*
X-188995D01*
X-189745D01*
Y-295753D01*
X-188995Y-296503D01*
X-186746Y-292004D02*
Y-296503D01*
Y-294254D01*
X-185996Y-293504D01*
X-184497D01*
X-183747Y-294254D01*
Y-296503D01*
X-181498D02*
X-179998D01*
X-179248Y-295753D01*
Y-294254D01*
X-179998Y-293504D01*
X-181498D01*
X-182247Y-294254D01*
Y-295753D01*
X-181498Y-296503D01*
X-177749Y-293504D02*
Y-295753D01*
X-176999Y-296503D01*
X-174750D01*
Y-293504D01*
X-172501Y-292754D02*
Y-293504D01*
X-173250D01*
X-171751D01*
X-172501D01*
Y-295753D01*
X-171751Y-296503D01*
X-164253Y-292754D02*
Y-293504D01*
X-165003D01*
X-163504D01*
X-164253D01*
Y-295753D01*
X-163504Y-296503D01*
X-161254Y-292004D02*
Y-296503D01*
Y-294254D01*
X-160504Y-293504D01*
X-159005D01*
X-158255Y-294254D01*
Y-296503D01*
X-154507D02*
X-156006D01*
X-156756Y-295753D01*
Y-294254D01*
X-156006Y-293504D01*
X-154507D01*
X-153757Y-294254D01*
Y-295004D01*
X-156756D01*
X-145509Y-296503D02*
X-147009D01*
X-147759Y-295753D01*
Y-294254D01*
X-147009Y-293504D01*
X-145509D01*
X-144760Y-294254D01*
Y-295004D01*
X-147759D01*
X-143260Y-293504D02*
X-140261Y-296503D01*
X-141761Y-295004D01*
X-140261Y-293504D01*
X-143260Y-296503D01*
X-138761Y-298003D02*
Y-293504D01*
X-136512D01*
X-135763Y-294254D01*
Y-295753D01*
X-136512Y-296503D01*
X-138761D01*
X-134263Y-293504D02*
Y-296503D01*
Y-295004D01*
X-133513Y-294254D01*
X-132764Y-293504D01*
X-132014D01*
X-127515Y-296503D02*
X-129015D01*
X-129764Y-295753D01*
Y-294254D01*
X-129015Y-293504D01*
X-127515D01*
X-126765Y-294254D01*
Y-295004D01*
X-129764D01*
X-125266Y-296503D02*
X-123017D01*
X-122267Y-295753D01*
X-123017Y-295004D01*
X-124516D01*
X-125266Y-294254D01*
X-124516Y-293504D01*
X-122267D01*
X-120767Y-296503D02*
X-118518D01*
X-117768Y-295753D01*
X-118518Y-295004D01*
X-120018D01*
X-120767Y-294254D01*
X-120018Y-293504D01*
X-117768D01*
X-111770Y-298003D02*
Y-293504D01*
X-109521D01*
X-108771Y-294254D01*
Y-295753D01*
X-109521Y-296503D01*
X-111770D01*
X-105022D02*
X-106522D01*
X-107272Y-295753D01*
Y-294254D01*
X-106522Y-293504D01*
X-105022D01*
X-104273Y-294254D01*
Y-295004D01*
X-107272D01*
X-102773Y-293504D02*
Y-296503D01*
Y-295004D01*
X-102023Y-294254D01*
X-101274Y-293504D01*
X-100524D01*
X-98275Y-296503D02*
Y-293504D01*
X-97525D01*
X-96775Y-294254D01*
Y-296503D01*
Y-294254D01*
X-96025Y-293504D01*
X-95276Y-294254D01*
Y-296503D01*
X-93776D02*
X-92277D01*
X-93026D01*
Y-293504D01*
X-93776D01*
X-90027Y-296503D02*
X-87778D01*
X-87028Y-295753D01*
X-87778Y-295004D01*
X-89277D01*
X-90027Y-294254D01*
X-89277Y-293504D01*
X-87028D01*
X-85529Y-296503D02*
X-83279D01*
X-82530Y-295753D01*
X-83279Y-295004D01*
X-84779D01*
X-85529Y-294254D01*
X-84779Y-293504D01*
X-82530D01*
X-81030Y-296503D02*
X-79531D01*
X-80280D01*
Y-293504D01*
X-81030D01*
X-76532Y-296503D02*
X-75032D01*
X-74282Y-295753D01*
Y-294254D01*
X-75032Y-293504D01*
X-76532D01*
X-77281Y-294254D01*
Y-295753D01*
X-76532Y-296503D01*
X-72783D02*
Y-293504D01*
X-70534D01*
X-69784Y-294254D01*
Y-296503D01*
X-63036D02*
X-61536D01*
X-60787Y-295753D01*
Y-294254D01*
X-61536Y-293504D01*
X-63036D01*
X-63786Y-294254D01*
Y-295753D01*
X-63036Y-296503D01*
X-58537D02*
Y-292754D01*
Y-294254D01*
X-59287D01*
X-57788D01*
X-58537D01*
Y-292754D01*
X-57788Y-292004D01*
X-48041Y-292754D02*
X-48791Y-292004D01*
X-50290D01*
X-51040Y-292754D01*
Y-293504D01*
X-50290Y-294254D01*
X-48791D01*
X-48041Y-295004D01*
Y-295753D01*
X-48791Y-296503D01*
X-50290D01*
X-51040Y-295753D01*
X-46541Y-296503D02*
X-45042D01*
X-45792D01*
Y-293504D01*
X-46541D01*
X-42792Y-296503D02*
X-41293D01*
X-42043D01*
Y-292004D01*
X-42792D01*
X-39044Y-296503D02*
X-37544D01*
X-38294D01*
Y-293504D01*
X-39044D01*
X-32296D02*
X-34545D01*
X-35295Y-294254D01*
Y-295753D01*
X-34545Y-296503D01*
X-32296D01*
X-30047D02*
X-28547D01*
X-27797Y-295753D01*
Y-294254D01*
X-28547Y-293504D01*
X-30047D01*
X-30796Y-294254D01*
Y-295753D01*
X-30047Y-296503D01*
X-26298D02*
Y-293504D01*
X-24048D01*
X-23299Y-294254D01*
Y-296503D01*
X-17301Y-292004D02*
Y-296503D01*
X-14302D01*
X-12052Y-293504D02*
X-10553D01*
X-9803Y-294254D01*
Y-296503D01*
X-12052D01*
X-12802Y-295753D01*
X-12052Y-295004D01*
X-9803D01*
X-8304Y-292004D02*
Y-296503D01*
X-6054D01*
X-5305Y-295753D01*
Y-295004D01*
Y-294254D01*
X-6054Y-293504D01*
X-8304D01*
X-3805Y-296503D02*
X-1556D01*
X-806Y-295753D01*
X-1556Y-295004D01*
X-3055D01*
X-3805Y-294254D01*
X-3055Y-293504D01*
X-806D01*
X693Y-296503D02*
Y-295753D01*
X1443D01*
Y-296503D01*
X693D01*
D12*
X44633Y64579D02*
X44785Y64427D01*
X42746Y64579D02*
X44633D01*
X62789Y43990D02*
X64187D01*
X46989Y104930D02*
Y106341D01*
X54138Y104928D02*
X54174Y104964D01*
X44809Y66582D02*
X44823Y66568D01*
Y64442D02*
Y66568D01*
X44785Y64427D02*
X44798Y64440D01*
X302997Y-289499D02*
X306996D01*
X304996D01*
Y-295497D01*
X309995D02*
X311994D01*
X312994Y-294497D01*
Y-292498D01*
X311994Y-291498D01*
X309995D01*
X308995Y-292498D01*
Y-294497D01*
X309995Y-295497D01*
X314993Y-297496D02*
Y-291498D01*
X317992D01*
X318992Y-292498D01*
Y-294497D01*
X317992Y-295497D01*
X314993D01*
X326989Y-289499D02*
Y-295497D01*
X330988D01*
X333987Y-291498D02*
X335986D01*
X336986Y-292498D01*
Y-295497D01*
X333987D01*
X332987Y-294497D01*
X333987Y-293498D01*
X336986D01*
X338985Y-291498D02*
Y-294497D01*
X339985Y-295497D01*
X342984D01*
Y-296497D01*
X341984Y-297496D01*
X340985D01*
X342984Y-295497D02*
Y-291498D01*
X347983Y-295497D02*
X345983D01*
X344983Y-294497D01*
Y-292498D01*
X345983Y-291498D01*
X347983D01*
X348982Y-292498D01*
Y-293498D01*
X344983D01*
X350981Y-291498D02*
Y-295497D01*
Y-293498D01*
X351981Y-292498D01*
X352981Y-291498D01*
X353980D01*
D14*
X7225Y33207D02*
Y47990D01*
X141351Y315D02*
Y116829D01*
X7240Y315D02*
X141351Y315D01*
X7225Y33207D02*
X7240Y33192D01*
Y315D02*
Y33192D01*
X13034Y116853D02*
X141343D01*
X13034Y116850D02*
Y116853D01*
X7222Y116850D02*
X13034D01*
X7222Y104220D02*
Y116850D01*
X7232Y82337D02*
Y99300D01*
X7225Y82330D02*
X7232Y82337D01*
X7221Y104219D02*
X7222Y104220D01*
X7221Y99312D02*
Y104219D01*
Y99312D02*
X7232Y99300D01*
X7225Y47990D02*
Y82330D01*
D15*
X250873Y-190863D02*
X251573D01*
X250473Y-190963D02*
X251973D01*
X199073Y-191063D02*
X199373D01*
X250273D02*
X252173D01*
X197873Y-191163D02*
X199173D01*
X249973D02*
X252473D01*
X197273Y-191263D02*
X198673D01*
X249773D02*
X252573D01*
X196773Y-191363D02*
X198173D01*
X249673D02*
X252673D01*
X195673Y-191463D02*
X197273D01*
X249573D02*
X252873D01*
X195073Y-191563D02*
X196773D01*
X249473D02*
X250873D01*
X251573D02*
X252973D01*
X194573Y-191663D02*
X196373D01*
X249273D02*
X250473D01*
X251873D02*
X253073D01*
X193573Y-191763D02*
X195473D01*
X249273D02*
X250273D01*
X252173D02*
X253173D01*
X193073Y-191863D02*
X194973D01*
X249173D02*
X250073D01*
X252273D02*
X253273D01*
X192573Y-191963D02*
X194573D01*
X249073D02*
X249973D01*
X252473D02*
X253273D01*
X191573Y-192063D02*
X193773D01*
X248973D02*
X249873D01*
X249973D02*
X251873D01*
X252573D02*
X253373D01*
X191173Y-192163D02*
X193273D01*
X248973D02*
X249773D01*
X249973D02*
X252073D01*
X252673D02*
X253473D01*
X190673Y-192263D02*
X192773D01*
X248873D02*
X249673D01*
X249973D02*
X252173D01*
X252673D02*
X253473D01*
X189773Y-192363D02*
X192073D01*
X238673D02*
X238773D01*
X248873D02*
X249573D01*
X249973D02*
X252273D01*
X252773D02*
X253573D01*
X189373Y-192463D02*
X191673D01*
X238673D02*
X239073D01*
X248773D02*
X249573D01*
X249973D02*
X252273D01*
X252873D02*
X253573D01*
X188873Y-192563D02*
X191173D01*
X238773D02*
X239373D01*
X248773D02*
X249473D01*
X249973D02*
X252273D01*
X252873D02*
X253673D01*
X188173Y-192663D02*
X190473D01*
X239173D02*
X239973D01*
X248673D02*
X249473D01*
X249973D02*
X250673D01*
X251673D02*
X252373D01*
X252973D02*
X253673D01*
X187673Y-192763D02*
X190073D01*
X239373D02*
X240273D01*
X248673D02*
X249373D01*
X249973D02*
X250673D01*
X251673D02*
X252373D01*
X252973D02*
X253773D01*
X187273Y-192863D02*
X189573D01*
X239573D02*
X240473D01*
X248673D02*
X249373D01*
X249973D02*
X250673D01*
X251673D02*
X252373D01*
X253073D02*
X253773D01*
X186473Y-192963D02*
X188873D01*
X239873D02*
X240973D01*
X248673D02*
X249273D01*
X249973D02*
X250673D01*
X251673D02*
X252373D01*
X253073D02*
X253773D01*
X186073Y-193063D02*
X188473D01*
X239973D02*
X241273D01*
X248673D02*
X249273D01*
X249973D02*
X250673D01*
X251673D02*
X252373D01*
X253073D02*
X253773D01*
X185673Y-193163D02*
X188173D01*
X240173D02*
X241473D01*
X248673D02*
X249273D01*
X249973D02*
X250673D01*
X251473D02*
X252273D01*
X253173D02*
X253773D01*
X184973Y-193263D02*
X187473D01*
X240473D02*
X241873D01*
X248573D02*
X249273D01*
X249973D02*
X252273D01*
X253173D02*
X253773D01*
X184573Y-193363D02*
X187073D01*
X240573D02*
X242173D01*
X248573D02*
X249273D01*
X249973D02*
X252273D01*
X253173D02*
X253773D01*
X184273Y-193463D02*
X186673D01*
X240773D02*
X242373D01*
X248573D02*
X249273D01*
X249973D02*
X252173D01*
X253173D02*
X253773D01*
X183573Y-193563D02*
X186073D01*
X240973D02*
X242773D01*
X248573D02*
X249273D01*
X249973D02*
X251973D01*
X253173D02*
X253773D01*
X183173Y-193663D02*
X185673D01*
X241073D02*
X242973D01*
X248573D02*
X249273D01*
X249973D02*
X251873D01*
X253173D02*
X253773D01*
X182773Y-193763D02*
X185373D01*
X209373D02*
X211973D01*
X241273D02*
X243273D01*
X248573D02*
X249273D01*
X249973D02*
X251973D01*
X253173D02*
X253773D01*
X182173Y-193863D02*
X184773D01*
X206573D02*
X206673D01*
X206773D02*
X214573D01*
X241473D02*
X243573D01*
X248673D02*
X249273D01*
X249973D02*
X250673D01*
X251173D02*
X251973D01*
X253173D02*
X253773D01*
X181873Y-193963D02*
X184473D01*
X205773D02*
X215573D01*
X241573D02*
X243773D01*
X248673D02*
X249273D01*
X249973D02*
X250673D01*
X251273D02*
X252073D01*
X253073D02*
X253773D01*
X181473Y-194063D02*
X184073D01*
X204973D02*
X216173D01*
X241673D02*
X243973D01*
X248673D02*
X249273D01*
X249973D02*
X250673D01*
X251373D02*
X252173D01*
X253073D02*
X253773D01*
X180873Y-194163D02*
X183473D01*
X203873D02*
X217273D01*
X241873D02*
X244373D01*
X248673D02*
X249373D01*
X249973D02*
X250673D01*
X251373D02*
X252273D01*
X252973D02*
X253773D01*
X180473Y-194263D02*
X183173D01*
X203273D02*
X217873D01*
X241973D02*
X244573D01*
X248673D02*
X249373D01*
X249973D02*
X250673D01*
X251473D02*
X252273D01*
X252973D02*
X253673D01*
X180173Y-194363D02*
X182873D01*
X202773D02*
X218273D01*
X242073D02*
X244773D01*
X248773D02*
X249473D01*
X249973D02*
X250673D01*
X251573D02*
X252273D01*
X252873D02*
X253673D01*
X179573Y-194463D02*
X182273D01*
X201873D02*
X219073D01*
X242273D02*
X245073D01*
X248773D02*
X249573D01*
X249973D02*
X250673D01*
X251673D02*
X252373D01*
X252873D02*
X253573D01*
X179273Y-194563D02*
X181973D01*
X201473D02*
X219573D01*
X242373D02*
X245273D01*
X248773D02*
X249573D01*
X249973D02*
X250673D01*
X251673D02*
X252473D01*
X252873D02*
X253573D01*
X178973Y-194663D02*
X181673D01*
X200973D02*
X219873D01*
X242473D02*
X245373D01*
X248873D02*
X249673D01*
X249973D02*
X250673D01*
X251673D02*
X252573D01*
X252773D02*
X253473D01*
X178373Y-194763D02*
X181173D01*
X200273D02*
X220573D01*
X242573D02*
X245673D01*
X248973D02*
X249773D01*
X249973D02*
X250673D01*
X251773D02*
X252573D01*
X252673D02*
X253473D01*
X178073Y-194863D02*
X180873D01*
X199873D02*
X220873D01*
X242673D02*
X245873D01*
X248973D02*
X249873D01*
X249973D02*
X250673D01*
X251873D02*
X253473D01*
X177773Y-194963D02*
X180573D01*
X199573D02*
X221273D01*
X242773D02*
X246073D01*
X249073D02*
X249873D01*
X250073D02*
X250673D01*
X251973D02*
X252373D01*
X252473D02*
X253373D01*
X177173Y-195063D02*
X180073D01*
X198973D02*
X221773D01*
X242873D02*
X246273D01*
X249173D02*
X250073D01*
X252273D02*
X253273D01*
X176873Y-195163D02*
X179873D01*
X198573D02*
X222073D01*
X242973D02*
X246473D01*
X249173D02*
X250273D01*
X252173D02*
X253173D01*
X176573Y-195263D02*
X179573D01*
X198273D02*
X222373D01*
X243073D02*
X246673D01*
X249273D02*
X250373D01*
X251973D02*
X253073D01*
X176073Y-195363D02*
X179073D01*
X197673D02*
X222873D01*
X243173D02*
X246873D01*
X249373D02*
X250773D01*
X251573D02*
X252973D01*
X175673Y-195463D02*
X178773D01*
X197373D02*
X223073D01*
X243173D02*
X247073D01*
X249473D02*
X252873D01*
X175473Y-195563D02*
X178573D01*
X197073D02*
X223373D01*
X243273D02*
X247173D01*
X249573D02*
X252773D01*
X174873Y-195663D02*
X178073D01*
X196573D02*
X223773D01*
X243373D02*
X247473D01*
X249773D02*
X252573D01*
X174573Y-195763D02*
X177873D01*
X196273D02*
X223973D01*
X243473D02*
X247573D01*
X249973D02*
X252473D01*
X174373Y-195863D02*
X177573D01*
X196073D02*
X224073D01*
X243473D02*
X247773D01*
X250073D02*
X252273D01*
X173873Y-195963D02*
X177173D01*
X195573D02*
X224473D01*
X243573D02*
X247973D01*
X250473D02*
X251973D01*
X173573Y-196063D02*
X176873D01*
X195273D02*
X224573D01*
X243573D02*
X248073D01*
X250873D02*
X251573D01*
X173273Y-196163D02*
X176673D01*
X195073D02*
X224773D01*
X243673D02*
X248273D01*
X172773Y-196263D02*
X176273D01*
X194673D02*
X224973D01*
X243673D02*
X248373D01*
X172473Y-196363D02*
X175973D01*
X194373D02*
X225173D01*
X243773D02*
X248573D01*
X172273Y-196463D02*
X175773D01*
X194173D02*
X225273D01*
X243873D02*
X248673D01*
X171773Y-196563D02*
X175373D01*
X193773D02*
X225473D01*
X243873D02*
X248873D01*
X171473Y-196663D02*
X175173D01*
X193573D02*
X225573D01*
X243873D02*
X248973D01*
X171273Y-196763D02*
X174973D01*
X193273D02*
X225673D01*
X243973D02*
X249173D01*
X170773Y-196863D02*
X174573D01*
X192973D02*
X225873D01*
X243973D02*
X249273D01*
X170573Y-196963D02*
X174373D01*
X192673D02*
X225973D01*
X243973D02*
X249473D01*
X170273Y-197063D02*
X174073D01*
X192473D02*
X226073D01*
X244073D02*
X249573D01*
X169873Y-197163D02*
X173773D01*
X192173D02*
X226173D01*
X244073D02*
X249673D01*
X169573Y-197263D02*
X173573D01*
X191973D02*
X226273D01*
X244073D02*
X249873D01*
X169373Y-197363D02*
X173273D01*
X191773D02*
X226373D01*
X244173D02*
X249873D01*
X168973Y-197463D02*
X172973D01*
X191373D02*
X226473D01*
X244173D02*
X250073D01*
X168673Y-197563D02*
X172773D01*
X191173D02*
X226473D01*
X244173D02*
X250173D01*
X168473Y-197663D02*
X172573D01*
X190973D02*
X226573D01*
X244173D02*
X250273D01*
X168073Y-197763D02*
X172273D01*
X190673D02*
X226673D01*
X244173D02*
X250473D01*
X167773Y-197863D02*
X171973D01*
X190473D02*
X226773D01*
X244173D02*
X250573D01*
X167573Y-197963D02*
X171773D01*
X190373D02*
X226773D01*
X244173D02*
X250673D01*
X167173Y-198063D02*
X171473D01*
X190073D02*
X226873D01*
X244173D02*
X250773D01*
X166873Y-198163D02*
X171273D01*
X189873D02*
X226973D01*
X244173D02*
X250873D01*
X166673Y-198263D02*
X171073D01*
X189673D02*
X226973D01*
X244173D02*
X250973D01*
X166273Y-198363D02*
X170773D01*
X189373D02*
X227073D01*
X244173D02*
X251073D01*
X166073Y-198463D02*
X170573D01*
X189173D02*
X227173D01*
X244173D02*
X251173D01*
X165873Y-198563D02*
X170373D01*
X189073D02*
X227173D01*
X244073D02*
X251273D01*
X165473Y-198663D02*
X170073D01*
X188773D02*
X227273D01*
X244073D02*
X251373D01*
X165273Y-198763D02*
X169873D01*
X188573D02*
X227273D01*
X244073D02*
X251473D01*
X164973Y-198863D02*
X169773D01*
X188473D02*
X227273D01*
X243973D02*
X251573D01*
X164673Y-198963D02*
X169473D01*
X188173D02*
X227373D01*
X243973D02*
X251673D01*
X164373Y-199063D02*
X169273D01*
X188073D02*
X227373D01*
X243873D02*
X251673D01*
X164173Y-199163D02*
X169073D01*
X187873D02*
X227373D01*
X243873D02*
X251773D01*
X163873Y-199263D02*
X168773D01*
X187673D02*
X227373D01*
X243873D02*
X251873D01*
X163573Y-199363D02*
X168673D01*
X187473D02*
X227373D01*
X243773D02*
X251973D01*
X163373Y-199463D02*
X168473D01*
X187373D02*
X227373D01*
X243773D02*
X251973D01*
X163073Y-199563D02*
X168173D01*
X187073D02*
X227373D01*
X243673D02*
X252073D01*
X162873Y-199663D02*
X167973D01*
X186873D02*
X227373D01*
X243673D02*
X252173D01*
X162673Y-199763D02*
X167873D01*
X186773D02*
X227373D01*
X243573D02*
X252273D01*
X162273Y-199863D02*
X167573D01*
X186573D02*
X227373D01*
X243573D02*
X252273D01*
X162073Y-199963D02*
X167373D01*
X186473D02*
X227273D01*
X243473D02*
X252373D01*
X161873Y-200063D02*
X167273D01*
X186273D02*
X227273D01*
X243373D02*
X252473D01*
X161573Y-200163D02*
X166973D01*
X186073D02*
X227273D01*
X243273D02*
X252473D01*
X161273Y-200263D02*
X166873D01*
X185973D02*
X227173D01*
X243273D02*
X252573D01*
X161173Y-200363D02*
X166673D01*
X185873D02*
X227173D01*
X243173D02*
X252573D01*
X160773Y-200463D02*
X166373D01*
X185673D02*
X227073D01*
X243073D02*
X252673D01*
X160573Y-200563D02*
X166273D01*
X185473D02*
X227073D01*
X242973D02*
X252673D01*
X160373Y-200663D02*
X166073D01*
X185373D02*
X226973D01*
X242973D02*
X252773D01*
X160073Y-200763D02*
X165873D01*
X185173D02*
X226873D01*
X242773D02*
X252873D01*
X159873Y-200863D02*
X165673D01*
X185073D02*
X226873D01*
X242673D02*
X252873D01*
X159673Y-200963D02*
X165573D01*
X184973D02*
X226773D01*
X242673D02*
X252873D01*
X159373Y-201063D02*
X165273D01*
X184773D02*
X226673D01*
X242473D02*
X252973D01*
X159173Y-201163D02*
X165173D01*
X184573D02*
X226573D01*
X242373D02*
X252973D01*
X158973Y-201263D02*
X164973D01*
X184473D02*
X226473D01*
X242273D02*
X253073D01*
X158673Y-201363D02*
X164773D01*
X184373D02*
X226373D01*
X242173D02*
X253073D01*
X158473Y-201463D02*
X164573D01*
X184173D02*
X226273D01*
X242073D02*
X253173D01*
X158273Y-201563D02*
X164473D01*
X184073D02*
X226173D01*
X241873D02*
X253173D01*
X157973Y-201663D02*
X164273D01*
X183973D02*
X225973D01*
X241773D02*
X253173D01*
X157773Y-201763D02*
X164073D01*
X183773D02*
X225873D01*
X241573D02*
X253173D01*
X157673Y-201863D02*
X163973D01*
X183673D02*
X225773D01*
X241473D02*
X253273D01*
X157373Y-201963D02*
X163773D01*
X183573D02*
X225573D01*
X241273D02*
X253273D01*
X157173Y-202063D02*
X163573D01*
X183473D02*
X225373D01*
X241073D02*
X253273D01*
X156973Y-202163D02*
X163473D01*
X183373D02*
X225273D01*
X240973D02*
X253373D01*
X156673Y-202263D02*
X163273D01*
X183173D02*
X225073D01*
X240673D02*
X253373D01*
X156473Y-202363D02*
X163173D01*
X183073D02*
X224873D01*
X240473D02*
X253373D01*
X156373Y-202463D02*
X163073D01*
X182973D02*
X224773D01*
X240373D02*
X253473D01*
X156073Y-202563D02*
X162873D01*
X182873D02*
X224573D01*
X240073D02*
X253473D01*
X155873Y-202663D02*
X162773D01*
X182773D02*
X224373D01*
X239873D02*
X253473D01*
X155673Y-202763D02*
X162573D01*
X182673D02*
X224273D01*
X239673D02*
X253473D01*
X155473Y-202863D02*
X162473D01*
X182573D02*
X223973D01*
X239373D02*
X253473D01*
X155273Y-202963D02*
X162373D01*
X182473D02*
X223873D01*
X239073D02*
X253473D01*
X155073Y-203063D02*
X162273D01*
X182373D02*
X223673D01*
X238873D02*
X253473D01*
X154873Y-203163D02*
X162073D01*
X182273D02*
X223673D01*
X238473D02*
X253473D01*
X154673Y-203263D02*
X161973D01*
X182273D02*
X224273D01*
X238273D02*
X253473D01*
X154473Y-203363D02*
X161873D01*
X182173D02*
X224773D01*
X237973D02*
X253473D01*
X154273Y-203463D02*
X161673D01*
X182073D02*
X225673D01*
X237573D02*
X253473D01*
X154073Y-203563D02*
X161573D01*
X181973D02*
X226273D01*
X237273D02*
X253473D01*
X153873Y-203663D02*
X161473D01*
X181873D02*
X226773D01*
X236973D02*
X253573D01*
X153673Y-203763D02*
X161373D01*
X181873D02*
X227673D01*
X236573D02*
X253573D01*
X153473Y-203863D02*
X161273D01*
X181773D02*
X228273D01*
X236273D02*
X253573D01*
X153273Y-203963D02*
X161173D01*
X181673D02*
X228773D01*
X235973D02*
X253573D01*
X153073Y-204063D02*
X160973D01*
X181673D02*
X229673D01*
X235573D02*
X253573D01*
X152873Y-204163D02*
X160973D01*
X181573D02*
X230173D01*
X235273D02*
X253473D01*
X152773Y-204263D02*
X160873D01*
X181473D02*
X230673D01*
X235073D02*
X253473D01*
X152473Y-204363D02*
X160673D01*
X181473D02*
X231573D01*
X234573D02*
X253473D01*
X152273Y-204463D02*
X160573D01*
X181373D02*
X232173D01*
X234373D02*
X253473D01*
X152173Y-204563D02*
X160573D01*
X181373D02*
X232673D01*
X234173D02*
X253473D01*
X151973Y-204663D02*
X160473D01*
X181273D02*
X233573D01*
X233773D02*
X253473D01*
X151773Y-204763D02*
X160373D01*
X181273D02*
X253473D01*
X151673Y-204863D02*
X160273D01*
X181173D02*
X253473D01*
X151373Y-204963D02*
X160173D01*
X181173D02*
X253473D01*
X151273Y-205063D02*
X160073D01*
X181073D02*
X253473D01*
X151073Y-205163D02*
X159973D01*
X181073D02*
X253473D01*
X150873Y-205263D02*
X159873D01*
X181073D02*
X253473D01*
X150673Y-205363D02*
X159773D01*
X180973D02*
X253373D01*
X150573Y-205463D02*
X159673D01*
X180973D02*
X253373D01*
X150373Y-205563D02*
X159673D01*
X180973D02*
X253373D01*
X150173Y-205663D02*
X159573D01*
X180873D02*
X253373D01*
X150073Y-205763D02*
X159473D01*
X180873D02*
X253273D01*
X149873Y-205863D02*
X159373D01*
X180873D02*
X253273D01*
X149673Y-205963D02*
X159373D01*
X180773D02*
X253173D01*
X149573Y-206063D02*
X159273D01*
X180773D02*
X253173D01*
X149373Y-206163D02*
X159173D01*
X180773D02*
X204673D01*
X214173D02*
X253173D01*
X149173Y-206263D02*
X159173D01*
X180773D02*
X203073D01*
X215673D02*
X253173D01*
X149073Y-206363D02*
X159073D01*
X180773D02*
X201873D01*
X216773D02*
X253173D01*
X148873Y-206463D02*
X158973D01*
X180773D02*
X199973D01*
X218573D02*
X253073D01*
X148673Y-206563D02*
X158973D01*
X180773D02*
X199073D01*
X219373D02*
X253073D01*
X148573Y-206663D02*
X158873D01*
X180773D02*
X198173D01*
X220073D02*
X252973D01*
X148373Y-206763D02*
X158873D01*
X180773D02*
X196773D01*
X221273D02*
X252973D01*
X148273Y-206863D02*
X158773D01*
X180773D02*
X196073D01*
X221873D02*
X252873D01*
X148173Y-206963D02*
X158773D01*
X180773D02*
X195373D01*
X222473D02*
X252873D01*
X147973Y-207063D02*
X158673D01*
X180773D02*
X194173D01*
X223473D02*
X252873D01*
X147773Y-207163D02*
X158673D01*
X180773D02*
X193573D01*
X223973D02*
X252873D01*
X147673Y-207263D02*
X158573D01*
X180773D02*
X192973D01*
X224573D02*
X252773D01*
X147473Y-207363D02*
X158573D01*
X180873D02*
X191873D01*
X225273D02*
X252773D01*
X147373Y-207463D02*
X158473D01*
X180873D02*
X191373D01*
X225773D02*
X252673D01*
X147273Y-207563D02*
X158473D01*
X180873D02*
X190773D01*
X226273D02*
X252573D01*
X147073Y-207663D02*
X158473D01*
X180973D02*
X189873D01*
X226973D02*
X252573D01*
X146873Y-207763D02*
X158473D01*
X180973D02*
X189373D01*
X227373D02*
X252573D01*
X146773Y-207863D02*
X158373D01*
X181073D02*
X188873D01*
X227773D02*
X252473D01*
X146673Y-207963D02*
X158373D01*
X181073D02*
X187973D01*
X228273D02*
X252473D01*
X146473Y-208063D02*
X158373D01*
X181073D02*
X187473D01*
X228573D02*
X252373D01*
X146373Y-208163D02*
X158373D01*
X181173D02*
X187073D01*
X228873D02*
X252273D01*
X146173Y-208263D02*
X158273D01*
X181273D02*
X186173D01*
X229273D02*
X252273D01*
X146073Y-208363D02*
X158273D01*
X181273D02*
X185673D01*
X229573D02*
X252173D01*
X145973Y-208463D02*
X158273D01*
X181373D02*
X185373D01*
X229873D02*
X252173D01*
X145873Y-208563D02*
X158273D01*
X181373D02*
X185573D01*
X230273D02*
X252073D01*
X145673Y-208663D02*
X158273D01*
X181473D02*
X185773D01*
X230473D02*
X251973D01*
X145573Y-208763D02*
X158273D01*
X181573D02*
X185873D01*
X230673D02*
X251973D01*
X145373Y-208863D02*
X158273D01*
X181673D02*
X186073D01*
X231073D02*
X251873D01*
X145273Y-208963D02*
X158273D01*
X181673D02*
X186273D01*
X231273D02*
X251873D01*
X145173Y-209063D02*
X158273D01*
X181773D02*
X186473D01*
X231473D02*
X251773D01*
X145073Y-209163D02*
X158273D01*
X181873D02*
X186773D01*
X231773D02*
X251673D01*
X144873Y-209263D02*
X158273D01*
X181973D02*
X186973D01*
X231973D02*
X251673D01*
X144773Y-209363D02*
X158373D01*
X182073D02*
X187073D01*
X232173D02*
X251573D01*
X144673Y-209463D02*
X158373D01*
X182173D02*
X187373D01*
X232473D02*
X251473D01*
X144573Y-209563D02*
X158373D01*
X182273D02*
X187673D01*
X232673D02*
X251373D01*
X144473Y-209663D02*
X158373D01*
X182373D02*
X187873D01*
X232773D02*
X251373D01*
X144373Y-209763D02*
X158473D01*
X182473D02*
X188273D01*
X233073D02*
X251273D01*
X144173Y-209863D02*
X158473D01*
X182573D02*
X188673D01*
X233173D02*
X251173D01*
X144073Y-209963D02*
X158473D01*
X182773D02*
X188973D01*
X233373D02*
X251173D01*
X143973Y-210063D02*
X158473D01*
X182873D02*
X189473D01*
X233573D02*
X251073D01*
X143873Y-210163D02*
X158573D01*
X183073D02*
X189973D01*
X233673D02*
X250973D01*
X143773Y-210263D02*
X158573D01*
X183173D02*
X190473D01*
X233773D02*
X250873D01*
X143673Y-210363D02*
X158673D01*
X183373D02*
X191373D01*
X233973D02*
X250773D01*
X143473Y-210463D02*
X158673D01*
X183573D02*
X192173D01*
X234173D02*
X250773D01*
X143473Y-210563D02*
X158773D01*
X183673D02*
X192973D01*
X234273D02*
X250673D01*
X143273Y-210663D02*
X158773D01*
X183973D02*
X194973D01*
X234473D02*
X250573D01*
X143173Y-210763D02*
X158873D01*
X184173D02*
X197973D01*
X234573D02*
X250473D01*
X143073Y-210863D02*
X158873D01*
X184373D02*
X200273D01*
X234673D02*
X250373D01*
X142973Y-210963D02*
X158973D01*
X184573D02*
X202373D01*
X234773D02*
X250373D01*
X142873Y-211063D02*
X159073D01*
X184773D02*
X203373D01*
X234873D02*
X250173D01*
X142773Y-211163D02*
X159073D01*
X184973D02*
X203973D01*
X234973D02*
X250173D01*
X142673Y-211263D02*
X159173D01*
X185273D02*
X204973D01*
X235073D02*
X250073D01*
X142573Y-211363D02*
X159273D01*
X185573D02*
X205573D01*
X235173D02*
X249973D01*
X142473Y-211463D02*
X159373D01*
X185773D02*
X205973D01*
X235273D02*
X249873D01*
X142373Y-211563D02*
X159473D01*
X186073D02*
X206673D01*
X235373D02*
X249773D01*
X142273Y-211663D02*
X159473D01*
X186373D02*
X207073D01*
X235473D02*
X249673D01*
X142173Y-211763D02*
X159573D01*
X186573D02*
X207473D01*
X235573D02*
X249573D01*
X142073Y-211863D02*
X159673D01*
X187073D02*
X207973D01*
X235673D02*
X249473D01*
X141973Y-211963D02*
X159773D01*
X187373D02*
X208273D01*
X235673D02*
X249373D01*
X141973Y-212063D02*
X159973D01*
X187573D02*
X208573D01*
X235773D02*
X249273D01*
X141873Y-212163D02*
X160073D01*
X188073D02*
X208973D01*
X235873D02*
X249173D01*
X141773Y-212263D02*
X160173D01*
X188473D02*
X209273D01*
X235873D02*
X249073D01*
X141673Y-212363D02*
X160273D01*
X188873D02*
X209473D01*
X235973D02*
X248973D01*
X141573Y-212463D02*
X160373D01*
X189573D02*
X209873D01*
X236073D02*
X248873D01*
X141473Y-212563D02*
X160573D01*
X190173D02*
X210073D01*
X236073D02*
X248773D01*
X141373Y-212663D02*
X160673D01*
X190673D02*
X210273D01*
X236173D02*
X248673D01*
X141373Y-212763D02*
X160873D01*
X192273D02*
X210573D01*
X236173D02*
X248573D01*
X141273Y-212863D02*
X160973D01*
X193873D02*
X210773D01*
X236273D02*
X248473D01*
X141173Y-212963D02*
X161073D01*
X197673D02*
X210973D01*
X236273D02*
X248373D01*
X141073Y-213063D02*
X161273D01*
X200473D02*
X211173D01*
X236373D02*
X248273D01*
X141073Y-213163D02*
X161473D01*
X201773D02*
X211473D01*
X236373D02*
X248073D01*
X140973Y-213263D02*
X161573D01*
X202773D02*
X211573D01*
X236373D02*
X247973D01*
X140873Y-213363D02*
X161773D01*
X204173D02*
X211773D01*
X236373D02*
X247873D01*
X140773Y-213463D02*
X161973D01*
X204873D02*
X211973D01*
X236473D02*
X247773D01*
X140773Y-213563D02*
X162073D01*
X205473D02*
X212073D01*
X236473D02*
X247673D01*
X140673Y-213663D02*
X162373D01*
X206273D02*
X212273D01*
X236473D02*
X247473D01*
X140573Y-213763D02*
X162573D01*
X206673D02*
X212473D01*
X236473D02*
X247373D01*
X140473Y-213863D02*
X162673D01*
X206973D02*
X212573D01*
X236473D02*
X247273D01*
X140473Y-213963D02*
X162973D01*
X207473D02*
X212773D01*
X236573D02*
X247173D01*
X140373Y-214063D02*
X163173D01*
X207673D02*
X212873D01*
X236573D02*
X247073D01*
X140273Y-214163D02*
X163373D01*
X207973D02*
X212973D01*
X236573D02*
X246973D01*
X140273Y-214263D02*
X163673D01*
X208273D02*
X213173D01*
X236573D02*
X246773D01*
X140173Y-214363D02*
X163973D01*
X208473D02*
X213273D01*
X236573D02*
X246673D01*
X140173Y-214463D02*
X164173D01*
X208673D02*
X213373D01*
X236573D02*
X246573D01*
X140073Y-214563D02*
X164573D01*
X208973D02*
X213473D01*
X236573D02*
X246373D01*
X139973Y-214663D02*
X164873D01*
X209173D02*
X213473D01*
X236573D02*
X246273D01*
X139973Y-214763D02*
X165073D01*
X209373D02*
X213573D01*
X236473D02*
X246173D01*
X139873Y-214863D02*
X165473D01*
X208773D02*
X213673D01*
X236473D02*
X245973D01*
X139873Y-214963D02*
X165773D01*
X208273D02*
X213773D01*
X236473D02*
X245873D01*
X139773Y-215063D02*
X166073D01*
X207773D02*
X213873D01*
X236473D02*
X245773D01*
X139673Y-215163D02*
X166573D01*
X207073D02*
X213973D01*
X236473D02*
X245573D01*
X139673Y-215263D02*
X166973D01*
X206573D02*
X213973D01*
X236373D02*
X245473D01*
X139573Y-215363D02*
X167273D01*
X206073D02*
X214073D01*
X236373D02*
X245373D01*
X139573Y-215463D02*
X167773D01*
X205273D02*
X214073D01*
X236373D02*
X245173D01*
X139573Y-215563D02*
X168173D01*
X204573D02*
X214173D01*
X236373D02*
X245073D01*
X139473Y-215663D02*
X168473D01*
X204073D02*
X214173D01*
X236373D02*
X244873D01*
X139373Y-215763D02*
X169073D01*
X203173D02*
X214273D01*
X236273D02*
X244773D01*
X139373Y-215863D02*
X169473D01*
X202473D02*
X214373D01*
X236273D02*
X244573D01*
X139273Y-215963D02*
X169873D01*
X201873D02*
X214373D01*
X236173D02*
X244473D01*
X139273Y-216063D02*
X170573D01*
X200873D02*
X214373D01*
X236173D02*
X244273D01*
X139273Y-216163D02*
X171073D01*
X199973D02*
X214373D01*
X236073D02*
X244173D01*
X139173Y-216263D02*
X171473D01*
X199273D02*
X214473D01*
X236073D02*
X243973D01*
X139173Y-216363D02*
X172273D01*
X198173D02*
X214473D01*
X236073D02*
X243873D01*
X139073Y-216463D02*
X172873D01*
X196973D02*
X214473D01*
X235973D02*
X243673D01*
X139073Y-216563D02*
X173473D01*
X196173D02*
X214473D01*
X235973D02*
X243573D01*
X138973Y-216663D02*
X174773D01*
X194673D02*
X214473D01*
X235873D02*
X243373D01*
X138973Y-216763D02*
X176173D01*
X193173D02*
X214473D01*
X235773D02*
X243173D01*
X138973Y-216863D02*
X177373D01*
X191873D02*
X214573D01*
X235773D02*
X243073D01*
X138973Y-216963D02*
X179673D01*
X179973D02*
X180073D01*
X188873D02*
X188973D01*
X189373D02*
X214473D01*
X235773D02*
X242873D01*
X138973Y-217063D02*
X214473D01*
X235673D02*
X242673D01*
X138873Y-217163D02*
X214473D01*
X235573D02*
X242573D01*
X138873Y-217263D02*
X214473D01*
X235473D02*
X242373D01*
X138773Y-217363D02*
X214473D01*
X235473D02*
X242173D01*
X138773Y-217463D02*
X214473D01*
X235373D02*
X242073D01*
X138773Y-217563D02*
X214473D01*
X235273D02*
X241773D01*
X138773Y-217663D02*
X214373D01*
X235173D02*
X241673D01*
X138673Y-217763D02*
X214373D01*
X235173D02*
X241573D01*
X138673Y-217863D02*
X214373D01*
X235073D02*
X241373D01*
X138673Y-217963D02*
X214373D01*
X234973D02*
X241173D01*
X138673Y-218063D02*
X214373D01*
X234873D02*
X240973D01*
X138673Y-218163D02*
X214373D01*
X234773D02*
X240773D01*
X138673Y-218263D02*
X214273D01*
X234673D02*
X240673D01*
X138673Y-218363D02*
X214273D01*
X234573D02*
X240473D01*
X138673Y-218463D02*
X160873D01*
X161373D02*
X214173D01*
X234573D02*
X240273D01*
X138573Y-218563D02*
X160673D01*
X161873D02*
X214173D01*
X234373D02*
X240073D01*
X138573Y-218663D02*
X160473D01*
X162173D02*
X214073D01*
X234273D02*
X239973D01*
X138573Y-218763D02*
X160273D01*
X162673D02*
X214073D01*
X234273D02*
X239673D01*
X138573Y-218863D02*
X159973D01*
X163173D02*
X214073D01*
X234073D02*
X239573D01*
X138573Y-218963D02*
X159873D01*
X163473D02*
X213973D01*
X233973D02*
X239373D01*
X138573Y-219063D02*
X159573D01*
X163973D02*
X213873D01*
X233873D02*
X239173D01*
X138573Y-219163D02*
X159373D01*
X164473D02*
X213873D01*
X233773D02*
X238973D01*
X138573Y-219263D02*
X159273D01*
X164773D02*
X213773D01*
X233673D02*
X238873D01*
X138573Y-219363D02*
X159073D01*
X165273D02*
X213773D01*
X233573D02*
X238673D01*
X138573Y-219463D02*
X158873D01*
X165673D02*
X213673D01*
X233473D02*
X238373D01*
X138573Y-219563D02*
X158673D01*
X166073D02*
X213573D01*
X233373D02*
X238273D01*
X138573Y-219663D02*
X158473D01*
X166473D02*
X213473D01*
X233173D02*
X238073D01*
X138573Y-219763D02*
X158273D01*
X166973D02*
X213473D01*
X233073D02*
X237873D01*
X138573Y-219863D02*
X158173D01*
X167373D02*
X213373D01*
X232973D02*
X237673D01*
X138573Y-219963D02*
X157973D01*
X167773D02*
X213273D01*
X232773D02*
X237473D01*
X138573Y-220063D02*
X157773D01*
X168273D02*
X213173D01*
X232673D02*
X237273D01*
X138673Y-220163D02*
X157673D01*
X168673D02*
X213073D01*
X232573D02*
X237073D01*
X138673Y-220263D02*
X157473D01*
X169073D02*
X212973D01*
X232473D02*
X236873D01*
X138673Y-220363D02*
X157273D01*
X169573D02*
X212873D01*
X232273D02*
X236673D01*
X138673Y-220463D02*
X157173D01*
X169973D02*
X212773D01*
X232173D02*
X236473D01*
X138673Y-220563D02*
X156973D01*
X170473D02*
X212673D01*
X232073D02*
X236273D01*
X138673Y-220663D02*
X156773D01*
X170273D02*
X212573D01*
X231873D02*
X236073D01*
X138673Y-220763D02*
X156673D01*
X170173D02*
X212473D01*
X231773D02*
X235873D01*
X138673Y-220863D02*
X156473D01*
X169973D02*
X212373D01*
X231573D02*
X235673D01*
X138773Y-220963D02*
X156273D01*
X169873D02*
X212273D01*
X231473D02*
X235373D01*
X138773Y-221063D02*
X156173D01*
X169773D02*
X212073D01*
X231273D02*
X235273D01*
X138773Y-221163D02*
X155973D01*
X169673D02*
X211973D01*
X231173D02*
X234973D01*
X138873Y-221263D02*
X155873D01*
X169473D02*
X211873D01*
X230973D02*
X234773D01*
X138873Y-221363D02*
X155673D01*
X169373D02*
X211673D01*
X230873D02*
X234573D01*
X138973Y-221463D02*
X155573D01*
X169273D02*
X211573D01*
X230673D02*
X234273D01*
X138973Y-221563D02*
X155373D01*
X169073D02*
X211473D01*
X230473D02*
X234073D01*
X138973Y-221663D02*
X155273D01*
X168973D02*
X211373D01*
X230373D02*
X233873D01*
X138973Y-221763D02*
X155173D01*
X168773D02*
X211173D01*
X230173D02*
X233673D01*
X139073Y-221863D02*
X154973D01*
X168673D02*
X210973D01*
X229973D02*
X233373D01*
X139073Y-221963D02*
X154873D01*
X168573D02*
X210873D01*
X229873D02*
X233173D01*
X139173Y-222063D02*
X154673D01*
X168473D02*
X210773D01*
X229673D02*
X232973D01*
X139173Y-222163D02*
X154573D01*
X168373D02*
X210573D01*
X229473D02*
X232673D01*
X139273Y-222263D02*
X154473D01*
X168273D02*
X210473D01*
X229373D02*
X232473D01*
X139273Y-222363D02*
X154273D01*
X168173D02*
X210273D01*
X229173D02*
X232173D01*
X139373Y-222463D02*
X154173D01*
X168073D02*
X210173D01*
X228973D02*
X231973D01*
X139373Y-222563D02*
X153973D01*
X168073D02*
X210073D01*
X228773D02*
X231773D01*
X139473Y-222663D02*
X153873D01*
X167973D02*
X209873D01*
X228573D02*
X231473D01*
X139573Y-222763D02*
X153773D01*
X167973D02*
X209673D01*
X228373D02*
X231173D01*
X139573Y-222863D02*
X153673D01*
X167873D02*
X209573D01*
X228273D02*
X230973D01*
X139573Y-222963D02*
X153473D01*
X167873D02*
X209373D01*
X228073D02*
X230773D01*
X139673Y-223063D02*
X153373D01*
X167873D02*
X209173D01*
X227773D02*
X230473D01*
X139773Y-223163D02*
X153273D01*
X167873D02*
X209073D01*
X227673D02*
X230273D01*
X139873Y-223263D02*
X153073D01*
X167873D02*
X208873D01*
X227473D02*
X229973D01*
X139873Y-223363D02*
X152973D01*
X167873D02*
X208673D01*
X227173D02*
X229673D01*
X139973Y-223463D02*
X152873D01*
X167873D02*
X208473D01*
X227073D02*
X229473D01*
X140073Y-223563D02*
X152773D01*
X167873D02*
X208273D01*
X226773D02*
X229173D01*
X140073Y-223663D02*
X152573D01*
X167873D02*
X208073D01*
X226573D02*
X228873D01*
X140173Y-223763D02*
X152473D01*
X167873D02*
X207873D01*
X226373D02*
X228673D01*
X140273Y-223863D02*
X152373D01*
X167873D02*
X207673D01*
X226173D02*
X228373D01*
X140373Y-223963D02*
X152273D01*
X167973D02*
X207473D01*
X225973D02*
X227973D01*
X140373Y-224063D02*
X152173D01*
X167973D02*
X207273D01*
X225773D02*
X227773D01*
X140473Y-224163D02*
X152073D01*
X168073D02*
X207073D01*
X225573D02*
X227573D01*
X140573Y-224263D02*
X151973D01*
X168073D02*
X206773D01*
X225273D02*
X227173D01*
X140673Y-224363D02*
X151873D01*
X168173D02*
X206573D01*
X225073D02*
X226973D01*
X140773Y-224463D02*
X151873D01*
X168273D02*
X206373D01*
X224873D02*
X226673D01*
X140873Y-224563D02*
X151773D01*
X168373D02*
X206073D01*
X224573D02*
X226273D01*
X140873Y-224663D02*
X151673D01*
X168373D02*
X205873D01*
X224373D02*
X226073D01*
X141073Y-224763D02*
X151673D01*
X168473D02*
X205673D01*
X224173D02*
X225773D01*
X141073Y-224863D02*
X151573D01*
X168573D02*
X205373D01*
X223873D02*
X225373D01*
X141173Y-224963D02*
X151573D01*
X168673D02*
X205173D01*
X223673D02*
X225173D01*
X141373Y-225063D02*
X151473D01*
X168773D02*
X204873D01*
X223473D02*
X224873D01*
X141373Y-225163D02*
X151373D01*
X168973D02*
X204573D01*
X223173D02*
X224473D01*
X141473Y-225263D02*
X151373D01*
X168973D02*
X204273D01*
X222873D02*
X224273D01*
X141673Y-225363D02*
X151373D01*
X169173D02*
X204073D01*
X222673D02*
X223973D01*
X141773Y-225463D02*
X151273D01*
X169273D02*
X203673D01*
X222373D02*
X223573D01*
X141873Y-225563D02*
X151273D01*
X169373D02*
X203473D01*
X222173D02*
X223273D01*
X141973Y-225663D02*
X151273D01*
X169573D02*
X203173D01*
X221873D02*
X223073D01*
X142073Y-225763D02*
X151273D01*
X169673D02*
X202773D01*
X221573D02*
X222673D01*
X142173Y-225863D02*
X151273D01*
X169873D02*
X202473D01*
X221373D02*
X222373D01*
X142273Y-225963D02*
X151173D01*
X169973D02*
X202173D01*
X221173D02*
X222073D01*
X142473Y-226063D02*
X151173D01*
X170273D02*
X201773D01*
X220773D02*
X221673D01*
X142573Y-226163D02*
X151173D01*
X170373D02*
X201473D01*
X220573D02*
X221473D01*
X142673Y-226263D02*
X151173D01*
X170573D02*
X201173D01*
X220373D02*
X221173D01*
X142873Y-226363D02*
X151173D01*
X170773D02*
X200773D01*
X219973D02*
X220773D01*
X142973Y-226463D02*
X151173D01*
X170973D02*
X200473D01*
X219773D02*
X220473D01*
X143173Y-226563D02*
X151173D01*
X171173D02*
X200073D01*
X219473D02*
X220173D01*
X143273Y-226663D02*
X151173D01*
X171373D02*
X199573D01*
X219173D02*
X219773D01*
X143373Y-226763D02*
X151173D01*
X171573D02*
X199273D01*
X218973D02*
X219573D01*
X143573Y-226863D02*
X151273D01*
X171873D02*
X198873D01*
X218573D02*
X219273D01*
X143773Y-226963D02*
X151273D01*
X172173D02*
X198373D01*
X218273D02*
X218873D01*
X143873Y-227063D02*
X151273D01*
X172373D02*
X197973D01*
X218073D02*
X218673D01*
X144073Y-227163D02*
X151273D01*
X172673D02*
X197573D01*
X217773D02*
X218373D01*
X144173Y-227263D02*
X151373D01*
X173073D02*
X196973D01*
X217673D02*
X217973D01*
X144373Y-227363D02*
X151373D01*
X173373D02*
X196573D01*
X144473Y-227463D02*
X151473D01*
X173673D02*
X196173D01*
X144673Y-227563D02*
X151473D01*
X174173D02*
X195473D01*
X144873Y-227663D02*
X151573D01*
X174473D02*
X194973D01*
X144973Y-227763D02*
X151573D01*
X174773D02*
X194473D01*
X145273Y-227863D02*
X151673D01*
X175373D02*
X193673D01*
X145373Y-227963D02*
X151773D01*
X175773D02*
X193173D01*
X145573Y-228063D02*
X151873D01*
X176273D02*
X192573D01*
X145773Y-228163D02*
X151973D01*
X176973D02*
X191573D01*
X145973Y-228263D02*
X152073D01*
X177573D02*
X190973D01*
X146173Y-228363D02*
X152173D01*
X178173D02*
X190073D01*
X146473Y-228463D02*
X152273D01*
X179373D02*
X188673D01*
X146573Y-228563D02*
X152373D01*
X180273D02*
X187673D01*
X146873Y-228663D02*
X152473D01*
X182073D02*
X185773D01*
X147073Y-228763D02*
X152673D01*
X147273Y-228863D02*
X152773D01*
X147573Y-228963D02*
X152873D01*
X147873Y-229063D02*
X153073D01*
X148073Y-229163D02*
X153173D01*
X148273Y-229263D02*
X153273D01*
X148573Y-229363D02*
X153473D01*
X148773Y-229463D02*
X153673D01*
X149073Y-229563D02*
X153773D01*
X149473Y-229663D02*
X153973D01*
X149673Y-229763D02*
X154173D01*
X149973Y-229863D02*
X154373D01*
X150373Y-229963D02*
X154573D01*
X150573Y-230063D02*
X154773D01*
X150873Y-230163D02*
X154973D01*
X151273Y-230263D02*
X155273D01*
X151573Y-230363D02*
X155473D01*
X151873Y-230463D02*
X155673D01*
X152373Y-230563D02*
X155973D01*
X152673Y-230663D02*
X156173D01*
X153073Y-230763D02*
X156373D01*
X153573Y-230863D02*
X156773D01*
X153873Y-230963D02*
X156973D01*
X154273Y-231063D02*
X157273D01*
X154873Y-231163D02*
X157673D01*
X155173Y-231263D02*
X157873D01*
X155673Y-231363D02*
X158173D01*
X156273Y-231463D02*
X158573D01*
X156673Y-231563D02*
X158873D01*
X157173Y-231663D02*
X159173D01*
X157873Y-231763D02*
X159573D01*
X158373Y-231863D02*
X159873D01*
X158873Y-231963D02*
X160173D01*
X159773Y-232063D02*
X160473D01*
X160273Y-232163D02*
X160473D01*
X140173Y-234763D02*
X144473D01*
X150373D02*
X152373D01*
X156773D02*
X158773D01*
X165873D02*
X167873D01*
X173973D02*
X178073D01*
X184873D02*
X188973D01*
X194173D02*
X196073D01*
X199673D02*
X201573D01*
X215173D02*
X217073D01*
X227473D02*
X229373D01*
X236073D02*
X241773D01*
X247773D02*
X251973D01*
X139873Y-234863D02*
X144873D01*
X150373D02*
X152373D01*
X156773D02*
X158773D01*
X165873D02*
X167873D01*
X173673D02*
X178373D01*
X184573D02*
X189273D01*
X194173D02*
X196173D01*
X199673D02*
X201573D01*
X215073D02*
X217073D01*
X227473D02*
X229473D01*
X236073D02*
X242173D01*
X247473D02*
X252373D01*
X139673Y-234963D02*
X145073D01*
X150373D02*
X152373D01*
X156773D02*
X158773D01*
X165873D02*
X167873D01*
X173473D02*
X178573D01*
X184373D02*
X189473D01*
X194173D02*
X196173D01*
X199673D02*
X201573D01*
X215073D02*
X217073D01*
X227373D02*
X229473D01*
X236073D02*
X242373D01*
X247273D02*
X252673D01*
X139473Y-235063D02*
X145273D01*
X150373D02*
X152373D01*
X156773D02*
X158773D01*
X165873D02*
X167873D01*
X173173D02*
X178773D01*
X184173D02*
X189673D01*
X194173D02*
X196273D01*
X199673D02*
X201573D01*
X215073D02*
X217073D01*
X227373D02*
X229473D01*
X236073D02*
X242573D01*
X247073D02*
X252873D01*
X139373Y-235163D02*
X145473D01*
X150373D02*
X152373D01*
X156773D02*
X158773D01*
X165873D02*
X167873D01*
X173073D02*
X178873D01*
X184073D02*
X189773D01*
X194173D02*
X196273D01*
X199673D02*
X201573D01*
X215073D02*
X217073D01*
X227373D02*
X229473D01*
X236073D02*
X242673D01*
X246973D02*
X252973D01*
X139273Y-235263D02*
X145573D01*
X150373D02*
X152373D01*
X156773D02*
X158773D01*
X165873D02*
X167873D01*
X172973D02*
X178973D01*
X183973D02*
X189973D01*
X194173D02*
X196373D01*
X199673D02*
X201573D01*
X215073D02*
X217073D01*
X227373D02*
X229573D01*
X236073D02*
X242773D01*
X246873D02*
X253073D01*
X139173Y-235363D02*
X145573D01*
X150373D02*
X152373D01*
X156773D02*
X158773D01*
X165873D02*
X167873D01*
X172873D02*
X179073D01*
X183773D02*
X190073D01*
X194173D02*
X196373D01*
X199673D02*
X201573D01*
X215073D02*
X217073D01*
X227273D02*
X229573D01*
X236073D02*
X242973D01*
X246673D02*
X253173D01*
X139073Y-235463D02*
X145673D01*
X150373D02*
X152373D01*
X156773D02*
X158773D01*
X165873D02*
X167873D01*
X172773D02*
X179173D01*
X183773D02*
X190173D01*
X194173D02*
X196373D01*
X199673D02*
X201573D01*
X215073D02*
X217073D01*
X227273D02*
X229573D01*
X236073D02*
X242973D01*
X246573D02*
X253273D01*
X138973Y-235563D02*
X145773D01*
X150373D02*
X152373D01*
X156773D02*
X158773D01*
X165873D02*
X167873D01*
X172673D02*
X179273D01*
X183673D02*
X190273D01*
X194173D02*
X196473D01*
X199673D02*
X201573D01*
X215073D02*
X217073D01*
X227273D02*
X229673D01*
X236073D02*
X243073D01*
X246573D02*
X253273D01*
X138873Y-235663D02*
X145873D01*
X150373D02*
X152373D01*
X156773D02*
X158773D01*
X165873D02*
X167873D01*
X172573D02*
X179373D01*
X183573D02*
X190273D01*
X194173D02*
X196473D01*
X199673D02*
X201573D01*
X215073D02*
X217073D01*
X227273D02*
X229673D01*
X236073D02*
X243173D01*
X246473D02*
X253373D01*
X138773Y-235763D02*
X145873D01*
X150373D02*
X152373D01*
X156773D02*
X158773D01*
X165873D02*
X167873D01*
X172573D02*
X179473D01*
X183473D02*
X190373D01*
X194173D02*
X196573D01*
X199673D02*
X201573D01*
X215073D02*
X217073D01*
X227173D02*
X229673D01*
X236073D02*
X243273D01*
X246373D02*
X253373D01*
X138773Y-235863D02*
X145873D01*
X150373D02*
X152373D01*
X156773D02*
X158773D01*
X165873D02*
X167873D01*
X172473D02*
X179473D01*
X183473D02*
X190373D01*
X194173D02*
X196573D01*
X199673D02*
X201573D01*
X215073D02*
X217073D01*
X227173D02*
X229773D01*
X236073D02*
X243273D01*
X246273D02*
X253473D01*
X138673Y-235963D02*
X145873D01*
X150373D02*
X152373D01*
X156773D02*
X158773D01*
X165873D02*
X167873D01*
X172373D02*
X179573D01*
X183373D02*
X190473D01*
X194173D02*
X196673D01*
X199673D02*
X201573D01*
X215073D02*
X217073D01*
X227073D02*
X229773D01*
X236073D02*
X243373D01*
X246273D02*
X253473D01*
X138673Y-236063D02*
X145873D01*
X150373D02*
X152373D01*
X156773D02*
X158773D01*
X165873D02*
X167873D01*
X172373D02*
X179573D01*
X183373D02*
X190573D01*
X194173D02*
X196673D01*
X199673D02*
X201573D01*
X215073D02*
X217073D01*
X227073D02*
X229773D01*
X236073D02*
X243373D01*
X246273D02*
X253473D01*
X138673Y-236163D02*
X145973D01*
X150373D02*
X152373D01*
X156773D02*
X158773D01*
X165873D02*
X167873D01*
X172373D02*
X179573D01*
X183273D02*
X190573D01*
X194173D02*
X196673D01*
X199673D02*
X201573D01*
X215073D02*
X217073D01*
X227073D02*
X229773D01*
X236073D02*
X243473D01*
X246173D02*
X253473D01*
X138673Y-236263D02*
X145973D01*
X150373D02*
X152373D01*
X156773D02*
X158773D01*
X165873D02*
X167873D01*
X172373D02*
X179673D01*
X183273D02*
X190573D01*
X194173D02*
X196773D01*
X199673D02*
X201573D01*
X215073D02*
X217073D01*
X227073D02*
X229773D01*
X236073D02*
X243473D01*
X246173D02*
X253473D01*
X138573Y-236363D02*
X145973D01*
X150373D02*
X152373D01*
X156773D02*
X158773D01*
X165873D02*
X167873D01*
X172373D02*
X179673D01*
X183273D02*
X190673D01*
X194173D02*
X196773D01*
X199673D02*
X201573D01*
X215073D02*
X217073D01*
X227073D02*
X229873D01*
X236073D02*
X243473D01*
X246173D02*
X253473D01*
X138573Y-236463D02*
X145973D01*
X150373D02*
X152373D01*
X156773D02*
X158773D01*
X165873D02*
X167873D01*
X172273D02*
X179673D01*
X183173D02*
X190673D01*
X194173D02*
X196873D01*
X199673D02*
X201573D01*
X215073D02*
X217073D01*
X226973D02*
X229873D01*
X236073D02*
X243573D01*
X246173D02*
X253473D01*
X138573Y-236563D02*
X145973D01*
X150373D02*
X152373D01*
X156773D02*
X158773D01*
X165873D02*
X167873D01*
X172273D02*
X179673D01*
X183173D02*
X190673D01*
X194173D02*
X196873D01*
X199673D02*
X201573D01*
X215073D02*
X217073D01*
X226973D02*
X229973D01*
X236073D02*
X243573D01*
X246073D02*
X253573D01*
X138573Y-236663D02*
X145973D01*
X150373D02*
X152373D01*
X156773D02*
X158773D01*
X165873D02*
X167873D01*
X172273D02*
X179673D01*
X183173D02*
X190673D01*
X194173D02*
X196973D01*
X199673D02*
X201573D01*
X215073D02*
X217073D01*
X226973D02*
X229973D01*
X236073D02*
X243573D01*
X246073D02*
X253573D01*
X138573Y-236763D02*
X140473D01*
X144073D02*
X145973D01*
X150373D02*
X152373D01*
X156773D02*
X158773D01*
X165873D02*
X167873D01*
X172273D02*
X174273D01*
X177773D02*
X179673D01*
X183173D02*
X185173D01*
X188673D02*
X190673D01*
X194173D02*
X196973D01*
X199673D02*
X201573D01*
X215073D02*
X217073D01*
X226873D02*
X229973D01*
X236073D02*
X238073D01*
X241573D02*
X243573D01*
X246073D02*
X248073D01*
X251573D02*
X253573D01*
X138573Y-236863D02*
X140473D01*
X144073D02*
X145973D01*
X150373D02*
X152373D01*
X156773D02*
X158773D01*
X165873D02*
X167873D01*
X172273D02*
X174273D01*
X177773D02*
X179673D01*
X183173D02*
X185173D01*
X188673D02*
X190673D01*
X194173D02*
X196973D01*
X199673D02*
X201573D01*
X215073D02*
X217073D01*
X226873D02*
X229973D01*
X236073D02*
X238073D01*
X241573D02*
X243573D01*
X246073D02*
X248073D01*
X251573D02*
X253573D01*
X138573Y-236963D02*
X140473D01*
X144073D02*
X145973D01*
X150373D02*
X152373D01*
X156773D02*
X158773D01*
X165873D02*
X167873D01*
X172273D02*
X174273D01*
X177773D02*
X179673D01*
X183173D02*
X185173D01*
X188673D02*
X190673D01*
X194173D02*
X197073D01*
X199673D02*
X201573D01*
X215073D02*
X217073D01*
X226873D02*
X230073D01*
X236073D02*
X238073D01*
X241573D02*
X243573D01*
X246073D02*
X248073D01*
X251573D02*
X253573D01*
X138573Y-237063D02*
X140473D01*
X144073D02*
X145973D01*
X150373D02*
X152373D01*
X156773D02*
X158773D01*
X165873D02*
X167873D01*
X172273D02*
X174273D01*
X177773D02*
X179673D01*
X183173D02*
X185173D01*
X188673D02*
X190673D01*
X194173D02*
X197073D01*
X199673D02*
X201573D01*
X215073D02*
X217073D01*
X226773D02*
X230073D01*
X236073D02*
X238073D01*
X241573D02*
X243573D01*
X246073D02*
X248073D01*
X251573D02*
X253573D01*
X138573Y-237163D02*
X140473D01*
X144073D02*
X145973D01*
X150373D02*
X152373D01*
X156773D02*
X158773D01*
X165873D02*
X167873D01*
X172273D02*
X174273D01*
X177773D02*
X179673D01*
X183173D02*
X185173D01*
X188673D02*
X190673D01*
X194173D02*
X197173D01*
X199673D02*
X201573D01*
X215073D02*
X217073D01*
X226773D02*
X230073D01*
X236073D02*
X238073D01*
X241573D02*
X243573D01*
X246073D02*
X248073D01*
X251573D02*
X253573D01*
X138573Y-237263D02*
X140473D01*
X144073D02*
X145973D01*
X150373D02*
X152373D01*
X156773D02*
X158773D01*
X165873D02*
X167873D01*
X172273D02*
X174273D01*
X177773D02*
X179673D01*
X183173D02*
X185173D01*
X188673D02*
X190673D01*
X194173D02*
X197273D01*
X199673D02*
X201573D01*
X215073D02*
X217073D01*
X226773D02*
X230073D01*
X236073D02*
X238073D01*
X241573D02*
X243573D01*
X246073D02*
X248073D01*
X251573D02*
X253573D01*
X138573Y-237363D02*
X140473D01*
X144073D02*
X145973D01*
X150373D02*
X152373D01*
X156773D02*
X158773D01*
X165873D02*
X167873D01*
X172273D02*
X174273D01*
X177773D02*
X179673D01*
X183173D02*
X185173D01*
X188673D02*
X190673D01*
X194173D02*
X197273D01*
X199673D02*
X201573D01*
X215073D02*
X217073D01*
X226773D02*
X230173D01*
X236073D02*
X238073D01*
X241573D02*
X243573D01*
X246073D02*
X248073D01*
X251573D02*
X253573D01*
X138573Y-237463D02*
X140473D01*
X144073D02*
X145973D01*
X150373D02*
X152373D01*
X156773D02*
X158773D01*
X165873D02*
X167873D01*
X172273D02*
X174273D01*
X177773D02*
X179673D01*
X183173D02*
X185173D01*
X188673D02*
X190673D01*
X194173D02*
X197273D01*
X199673D02*
X201573D01*
X215073D02*
X217073D01*
X226673D02*
X230173D01*
X236073D02*
X238073D01*
X241573D02*
X243573D01*
X246073D02*
X248073D01*
X251573D02*
X253573D01*
X138573Y-237563D02*
X140473D01*
X144073D02*
X145973D01*
X150373D02*
X152373D01*
X156773D02*
X158773D01*
X165873D02*
X167873D01*
X172273D02*
X174273D01*
X177773D02*
X179673D01*
X183173D02*
X185173D01*
X188673D02*
X190673D01*
X194173D02*
X197273D01*
X199673D02*
X201573D01*
X215073D02*
X217073D01*
X226673D02*
X230173D01*
X236073D02*
X238073D01*
X241573D02*
X243573D01*
X246073D02*
X248073D01*
X251573D02*
X253573D01*
X138573Y-237663D02*
X140473D01*
X144073D02*
X145973D01*
X150373D02*
X152373D01*
X156773D02*
X158773D01*
X165873D02*
X167873D01*
X172273D02*
X174273D01*
X177773D02*
X179673D01*
X183173D02*
X185173D01*
X188673D02*
X190673D01*
X194173D02*
X197373D01*
X199673D02*
X201573D01*
X215073D02*
X217073D01*
X226673D02*
X230273D01*
X236073D02*
X238073D01*
X241573D02*
X243573D01*
X246073D02*
X248073D01*
X251573D02*
X253573D01*
X138573Y-237763D02*
X140473D01*
X144073D02*
X145973D01*
X150373D02*
X152373D01*
X156773D02*
X158773D01*
X165873D02*
X167873D01*
X172273D02*
X174273D01*
X177773D02*
X179673D01*
X183173D02*
X185173D01*
X188673D02*
X190673D01*
X194173D02*
X197473D01*
X199673D02*
X201573D01*
X215073D02*
X217073D01*
X226573D02*
X230273D01*
X236073D02*
X238073D01*
X241573D02*
X243573D01*
X246073D02*
X248073D01*
X251573D02*
X253573D01*
X138573Y-237863D02*
X140473D01*
X144073D02*
X145973D01*
X150373D02*
X152373D01*
X156773D02*
X158773D01*
X165873D02*
X167873D01*
X172273D02*
X174273D01*
X177773D02*
X179673D01*
X183173D02*
X185173D01*
X188673D02*
X190673D01*
X194173D02*
X197473D01*
X199673D02*
X201573D01*
X215073D02*
X217073D01*
X226573D02*
X230273D01*
X236073D02*
X238073D01*
X241573D02*
X243573D01*
X246073D02*
X248073D01*
X251573D02*
X253573D01*
X138573Y-237963D02*
X140473D01*
X144073D02*
X145973D01*
X150373D02*
X152373D01*
X156773D02*
X158773D01*
X165873D02*
X167873D01*
X172273D02*
X174273D01*
X177773D02*
X179673D01*
X183173D02*
X185173D01*
X188673D02*
X190673D01*
X194173D02*
X197573D01*
X199673D02*
X201573D01*
X215073D02*
X217073D01*
X226573D02*
X230273D01*
X236073D02*
X238073D01*
X241573D02*
X243573D01*
X246073D02*
X248073D01*
X251573D02*
X253573D01*
X138573Y-238063D02*
X140473D01*
X144073D02*
X145973D01*
X150373D02*
X152373D01*
X156773D02*
X158773D01*
X165873D02*
X167873D01*
X172273D02*
X174273D01*
X177773D02*
X179673D01*
X183173D02*
X185173D01*
X188673D02*
X190673D01*
X194173D02*
X197573D01*
X199673D02*
X201573D01*
X215073D02*
X217073D01*
X226473D02*
X230373D01*
X236073D02*
X238073D01*
X241573D02*
X243573D01*
X246073D02*
X248073D01*
X251573D02*
X253573D01*
X138573Y-238163D02*
X140473D01*
X144073D02*
X145973D01*
X150373D02*
X152373D01*
X156773D02*
X158773D01*
X165873D02*
X167873D01*
X172273D02*
X174273D01*
X177773D02*
X179673D01*
X183173D02*
X185173D01*
X188673D02*
X190673D01*
X194173D02*
X197573D01*
X199673D02*
X201573D01*
X215073D02*
X217073D01*
X226473D02*
X228373D01*
X228473D02*
X230373D01*
X236073D02*
X238073D01*
X241573D02*
X243573D01*
X246073D02*
X248073D01*
X251573D02*
X253573D01*
X138573Y-238263D02*
X140473D01*
X150373D02*
X152373D01*
X156773D02*
X158773D01*
X165873D02*
X167873D01*
X172273D02*
X174273D01*
X183173D02*
X185173D01*
X188673D02*
X190673D01*
X194173D02*
X197673D01*
X199673D02*
X201573D01*
X215073D02*
X217073D01*
X226473D02*
X228373D01*
X228473D02*
X230373D01*
X236073D02*
X238073D01*
X241573D02*
X243573D01*
X246073D02*
X248073D01*
X138573Y-238363D02*
X140473D01*
X150373D02*
X152373D01*
X156773D02*
X158773D01*
X165873D02*
X167873D01*
X172273D02*
X174273D01*
X183173D02*
X185173D01*
X188673D02*
X190673D01*
X194173D02*
X197673D01*
X199673D02*
X201573D01*
X215073D02*
X217073D01*
X226473D02*
X228373D01*
X228573D02*
X230373D01*
X236073D02*
X238073D01*
X241573D02*
X243573D01*
X246073D02*
X248073D01*
X138573Y-238463D02*
X140573D01*
X150373D02*
X152373D01*
X156773D02*
X158773D01*
X165873D02*
X167873D01*
X172273D02*
X174273D01*
X183173D02*
X185173D01*
X188673D02*
X190673D01*
X194173D02*
X197773D01*
X199673D02*
X201573D01*
X215073D02*
X217073D01*
X226473D02*
X228373D01*
X228573D02*
X230473D01*
X236073D02*
X238073D01*
X241573D02*
X243573D01*
X246073D02*
X248073D01*
X138573Y-238563D02*
X140573D01*
X150373D02*
X152373D01*
X156773D02*
X158773D01*
X165873D02*
X167873D01*
X172273D02*
X174273D01*
X183173D02*
X185173D01*
X188673D02*
X190673D01*
X194173D02*
X197773D01*
X199673D02*
X201573D01*
X215073D02*
X217073D01*
X226373D02*
X228273D01*
X228573D02*
X230473D01*
X236073D02*
X238073D01*
X241573D02*
X243573D01*
X246073D02*
X248073D01*
X138573Y-238663D02*
X140673D01*
X150373D02*
X152373D01*
X156773D02*
X158773D01*
X165873D02*
X167873D01*
X172273D02*
X174273D01*
X183173D02*
X185173D01*
X188673D02*
X190673D01*
X194173D02*
X197873D01*
X199673D02*
X201573D01*
X215073D02*
X217073D01*
X226373D02*
X228273D01*
X228573D02*
X230473D01*
X236073D02*
X238073D01*
X241573D02*
X243573D01*
X246073D02*
X248173D01*
X138573Y-238763D02*
X140673D01*
X150373D02*
X152373D01*
X156773D02*
X158773D01*
X165873D02*
X167873D01*
X172273D02*
X174273D01*
X183173D02*
X185173D01*
X188673D02*
X190673D01*
X194173D02*
X197873D01*
X199673D02*
X201573D01*
X215073D02*
X217073D01*
X226373D02*
X228273D01*
X228573D02*
X230573D01*
X236073D02*
X238073D01*
X241573D02*
X243573D01*
X246073D02*
X248273D01*
X138573Y-238863D02*
X140773D01*
X150373D02*
X152373D01*
X156773D02*
X158773D01*
X165873D02*
X167873D01*
X172273D02*
X174273D01*
X183173D02*
X185173D01*
X188673D02*
X190673D01*
X194173D02*
X197873D01*
X199673D02*
X201573D01*
X215073D02*
X217073D01*
X226273D02*
X228273D01*
X228673D02*
X230573D01*
X236073D02*
X238073D01*
X241573D02*
X243573D01*
X246073D02*
X248373D01*
X138573Y-238963D02*
X140973D01*
X150373D02*
X152373D01*
X156773D02*
X158773D01*
X165873D02*
X167873D01*
X172273D02*
X174273D01*
X183173D02*
X185173D01*
X188673D02*
X190673D01*
X194173D02*
X197973D01*
X199673D02*
X201573D01*
X215073D02*
X217073D01*
X226273D02*
X228173D01*
X228673D02*
X230573D01*
X236073D02*
X238073D01*
X241573D02*
X243573D01*
X246073D02*
X248573D01*
X138573Y-239063D02*
X141173D01*
X150373D02*
X152373D01*
X156773D02*
X158773D01*
X165873D02*
X167873D01*
X172273D02*
X174273D01*
X183173D02*
X185173D01*
X188673D02*
X190673D01*
X194173D02*
X197973D01*
X199673D02*
X201573D01*
X215073D02*
X217073D01*
X226273D02*
X228173D01*
X228673D02*
X230673D01*
X236073D02*
X238073D01*
X241573D02*
X243573D01*
X246173D02*
X248773D01*
X138573Y-239163D02*
X141373D01*
X150373D02*
X152373D01*
X156773D02*
X158773D01*
X165873D02*
X167873D01*
X172273D02*
X174273D01*
X183173D02*
X185173D01*
X188673D02*
X190673D01*
X194173D02*
X198073D01*
X199673D02*
X201573D01*
X215073D02*
X217073D01*
X226173D02*
X228173D01*
X228773D02*
X230673D01*
X236073D02*
X238073D01*
X241573D02*
X243573D01*
X246173D02*
X248873D01*
X138673Y-239263D02*
X141573D01*
X150373D02*
X152373D01*
X156773D02*
X158773D01*
X165873D02*
X167873D01*
X172273D02*
X174273D01*
X183173D02*
X185173D01*
X188673D02*
X190673D01*
X194173D02*
X198073D01*
X199673D02*
X201573D01*
X215073D02*
X217073D01*
X226173D02*
X228173D01*
X228773D02*
X230673D01*
X236073D02*
X238073D01*
X241573D02*
X243573D01*
X246173D02*
X249173D01*
X138673Y-239363D02*
X141773D01*
X150373D02*
X152373D01*
X156773D02*
X158773D01*
X165873D02*
X167873D01*
X172273D02*
X174273D01*
X183173D02*
X185173D01*
X188673D02*
X190673D01*
X194173D02*
X198173D01*
X199673D02*
X201573D01*
X215073D02*
X217073D01*
X226173D02*
X228073D01*
X228773D02*
X230673D01*
X236073D02*
X238073D01*
X241573D02*
X243573D01*
X246173D02*
X249373D01*
X138673Y-239463D02*
X141973D01*
X150373D02*
X152373D01*
X156773D02*
X158773D01*
X165873D02*
X167873D01*
X172273D02*
X174273D01*
X183173D02*
X185173D01*
X188673D02*
X190673D01*
X194173D02*
X198173D01*
X199673D02*
X201573D01*
X215073D02*
X217073D01*
X226173D02*
X228073D01*
X228773D02*
X230773D01*
X236073D02*
X238073D01*
X241573D02*
X243573D01*
X246273D02*
X249473D01*
X138673Y-239563D02*
X142173D01*
X150373D02*
X152373D01*
X156773D02*
X158773D01*
X165873D02*
X167873D01*
X172273D02*
X174273D01*
X183173D02*
X185173D01*
X188673D02*
X190673D01*
X194173D02*
X198173D01*
X199673D02*
X201573D01*
X215073D02*
X217073D01*
X226073D02*
X227973D01*
X228873D02*
X230773D01*
X236073D02*
X238073D01*
X241573D02*
X243573D01*
X246273D02*
X249773D01*
X138773Y-239663D02*
X142373D01*
X150373D02*
X152373D01*
X156773D02*
X158773D01*
X165873D02*
X167873D01*
X172273D02*
X174273D01*
X183173D02*
X185173D01*
X188673D02*
X190673D01*
X194173D02*
X198273D01*
X199673D02*
X201573D01*
X215073D02*
X217073D01*
X226073D02*
X227973D01*
X228873D02*
X230773D01*
X236073D02*
X238073D01*
X241573D02*
X243573D01*
X246273D02*
X249973D01*
X138773Y-239763D02*
X142573D01*
X150373D02*
X152373D01*
X156773D02*
X158773D01*
X165873D02*
X167873D01*
X172273D02*
X174273D01*
X183173D02*
X185173D01*
X188673D02*
X190673D01*
X194173D02*
X196073D01*
X196173D02*
X198273D01*
X199673D02*
X201573D01*
X215073D02*
X217073D01*
X226073D02*
X227973D01*
X228873D02*
X230873D01*
X236073D02*
X238073D01*
X241573D02*
X243573D01*
X246373D02*
X250073D01*
X138873Y-239863D02*
X142773D01*
X150373D02*
X152373D01*
X156773D02*
X158773D01*
X165873D02*
X167873D01*
X172273D02*
X174273D01*
X183173D02*
X185173D01*
X188673D02*
X190673D01*
X194173D02*
X196073D01*
X196173D02*
X198373D01*
X199673D02*
X201573D01*
X215073D02*
X217073D01*
X225973D02*
X227973D01*
X228873D02*
X230873D01*
X236073D02*
X238073D01*
X241573D02*
X243573D01*
X246473D02*
X250373D01*
X138973Y-239963D02*
X142973D01*
X150373D02*
X152373D01*
X156773D02*
X158773D01*
X165873D02*
X167873D01*
X172273D02*
X174273D01*
X183173D02*
X185173D01*
X188673D02*
X190673D01*
X194173D02*
X196073D01*
X196273D02*
X198473D01*
X199673D02*
X201573D01*
X215073D02*
X217073D01*
X225973D02*
X227973D01*
X228873D02*
X230873D01*
X236073D02*
X238073D01*
X241573D02*
X243473D01*
X246573D02*
X250573D01*
X139073Y-240063D02*
X143173D01*
X150373D02*
X152373D01*
X156773D02*
X158773D01*
X165873D02*
X167873D01*
X172273D02*
X174273D01*
X183173D02*
X185173D01*
X188673D02*
X190673D01*
X194173D02*
X196073D01*
X196273D02*
X198473D01*
X199673D02*
X201573D01*
X215073D02*
X217073D01*
X225973D02*
X227873D01*
X228973D02*
X230873D01*
X236073D02*
X238073D01*
X241573D02*
X243273D01*
X246573D02*
X250673D01*
X139173Y-240163D02*
X143373D01*
X150373D02*
X152373D01*
X156773D02*
X158773D01*
X165873D02*
X167873D01*
X172273D02*
X174273D01*
X183173D02*
X185173D01*
X188673D02*
X190673D01*
X194173D02*
X196073D01*
X196373D02*
X198473D01*
X199673D02*
X201573D01*
X215073D02*
X217073D01*
X225873D02*
X227873D01*
X228973D02*
X230973D01*
X236073D02*
X238073D01*
X241573D02*
X243173D01*
X246673D02*
X250973D01*
X139273Y-240263D02*
X143573D01*
X150373D02*
X152373D01*
X156773D02*
X158773D01*
X165873D02*
X167873D01*
X172273D02*
X174273D01*
X183173D02*
X185173D01*
X188673D02*
X190673D01*
X194173D02*
X196073D01*
X196373D02*
X198473D01*
X199673D02*
X201573D01*
X215073D02*
X217073D01*
X225873D02*
X227873D01*
X228973D02*
X230973D01*
X236073D02*
X243173D01*
X246873D02*
X251173D01*
X139373Y-240363D02*
X143773D01*
X150373D02*
X152373D01*
X156773D02*
X158773D01*
X165873D02*
X167873D01*
X172273D02*
X174273D01*
X183173D02*
X185173D01*
X188673D02*
X190673D01*
X194173D02*
X196073D01*
X196373D02*
X198573D01*
X199673D02*
X201573D01*
X215073D02*
X217073D01*
X225873D02*
X227773D01*
X229073D02*
X230973D01*
X236073D02*
X242973D01*
X246973D02*
X251273D01*
X139573Y-240463D02*
X143973D01*
X150373D02*
X152373D01*
X156773D02*
X158773D01*
X165873D02*
X167873D01*
X172273D02*
X174273D01*
X183173D02*
X185173D01*
X188673D02*
X190673D01*
X194173D02*
X196073D01*
X196473D02*
X198673D01*
X199673D02*
X201573D01*
X215073D02*
X217073D01*
X225873D02*
X227773D01*
X229073D02*
X230973D01*
X236073D02*
X242873D01*
X247073D02*
X251573D01*
X139673Y-240563D02*
X144173D01*
X150373D02*
X152373D01*
X156773D02*
X158773D01*
X165873D02*
X167873D01*
X172273D02*
X174273D01*
X183173D02*
X185173D01*
X188673D02*
X190673D01*
X194173D02*
X196073D01*
X196473D02*
X198673D01*
X199673D02*
X201573D01*
X215073D02*
X217073D01*
X225773D02*
X227773D01*
X229073D02*
X231073D01*
X236073D02*
X242873D01*
X247173D02*
X251673D01*
X139773Y-240663D02*
X144373D01*
X150373D02*
X152373D01*
X156773D02*
X158773D01*
X165873D02*
X167873D01*
X172273D02*
X174273D01*
X183173D02*
X185173D01*
X188673D02*
X190673D01*
X194173D02*
X196073D01*
X196573D02*
X198773D01*
X199673D02*
X201573D01*
X215073D02*
X217073D01*
X225773D02*
X227673D01*
X229173D02*
X231073D01*
X236073D02*
X242673D01*
X247373D02*
X251873D01*
X139973Y-240763D02*
X144573D01*
X150373D02*
X152373D01*
X156773D02*
X158773D01*
X165873D02*
X167873D01*
X172273D02*
X174273D01*
X183173D02*
X185173D01*
X188673D02*
X190673D01*
X194173D02*
X196073D01*
X196573D02*
X198773D01*
X199673D02*
X201573D01*
X215073D02*
X217073D01*
X225773D02*
X227673D01*
X229173D02*
X231073D01*
X236073D02*
X242573D01*
X247573D02*
X252173D01*
X140173Y-240863D02*
X144773D01*
X150373D02*
X152373D01*
X156773D02*
X158773D01*
X165873D02*
X167873D01*
X172273D02*
X174273D01*
X183173D02*
X185173D01*
X188673D02*
X190673D01*
X194173D02*
X196073D01*
X196673D02*
X198773D01*
X199673D02*
X201573D01*
X215073D02*
X217073D01*
X225773D02*
X227673D01*
X229173D02*
X231173D01*
X236073D02*
X242573D01*
X247673D02*
X252373D01*
X140273Y-240963D02*
X144973D01*
X150373D02*
X152373D01*
X156773D02*
X158773D01*
X165873D02*
X167873D01*
X172273D02*
X174273D01*
X183173D02*
X185173D01*
X188673D02*
X190673D01*
X194173D02*
X196073D01*
X196673D02*
X198873D01*
X199673D02*
X201573D01*
X215073D02*
X217073D01*
X225673D02*
X227673D01*
X229173D02*
X231173D01*
X236073D02*
X242373D01*
X247873D02*
X252473D01*
X140573Y-241063D02*
X145173D01*
X150373D02*
X152373D01*
X156773D02*
X158773D01*
X165873D02*
X167873D01*
X172273D02*
X174273D01*
X183173D02*
X185173D01*
X188673D02*
X190673D01*
X194173D02*
X196073D01*
X196673D02*
X198873D01*
X199673D02*
X201573D01*
X215073D02*
X217073D01*
X225673D02*
X227573D01*
X229173D02*
X231173D01*
X236073D02*
X242273D01*
X248073D02*
X252673D01*
X140773Y-241163D02*
X145273D01*
X150373D02*
X152373D01*
X156773D02*
X158773D01*
X165873D02*
X167873D01*
X172273D02*
X174273D01*
X183173D02*
X185173D01*
X188673D02*
X190673D01*
X194173D02*
X196073D01*
X196773D02*
X198973D01*
X199673D02*
X201573D01*
X215073D02*
X217073D01*
X225573D02*
X227573D01*
X229273D02*
X231273D01*
X236073D02*
X242273D01*
X248273D02*
X252773D01*
X140873Y-241263D02*
X145373D01*
X150373D02*
X152373D01*
X156773D02*
X158773D01*
X165873D02*
X167873D01*
X172273D02*
X174273D01*
X183173D02*
X185173D01*
X188673D02*
X190673D01*
X194173D02*
X196073D01*
X196773D02*
X198973D01*
X199673D02*
X201573D01*
X215073D02*
X217073D01*
X225573D02*
X227573D01*
X229273D02*
X231273D01*
X236073D02*
X242173D01*
X248473D02*
X252873D01*
X141173Y-241363D02*
X145473D01*
X150373D02*
X152373D01*
X156773D02*
X158773D01*
X165873D02*
X167873D01*
X172273D02*
X174273D01*
X183173D02*
X185173D01*
X188673D02*
X190673D01*
X194173D02*
X196073D01*
X196873D02*
X199073D01*
X199673D02*
X201573D01*
X215073D02*
X217073D01*
X225573D02*
X227573D01*
X229273D02*
X231273D01*
X236073D02*
X242373D01*
X248673D02*
X253073D01*
X141373Y-241463D02*
X145573D01*
X150373D02*
X152373D01*
X156773D02*
X158773D01*
X165873D02*
X167873D01*
X172273D02*
X174273D01*
X183173D02*
X185173D01*
X188673D02*
X190673D01*
X194173D02*
X196073D01*
X196873D02*
X199073D01*
X199673D02*
X201573D01*
X215073D02*
X217073D01*
X225573D02*
X227473D01*
X229373D02*
X231273D01*
X236073D02*
X242373D01*
X248873D02*
X253173D01*
X141473Y-241563D02*
X145573D01*
X150373D02*
X152373D01*
X156773D02*
X158773D01*
X165873D02*
X167873D01*
X172273D02*
X174273D01*
X183173D02*
X185173D01*
X188673D02*
X190673D01*
X194173D02*
X196073D01*
X196973D02*
X199073D01*
X199673D02*
X201573D01*
X215073D02*
X217073D01*
X225573D02*
X227473D01*
X229373D02*
X231273D01*
X236073D02*
X242473D01*
X249073D02*
X253173D01*
X141773Y-241663D02*
X145673D01*
X150373D02*
X152373D01*
X156773D02*
X158773D01*
X165873D02*
X167873D01*
X172273D02*
X174273D01*
X183173D02*
X185173D01*
X188673D02*
X190673D01*
X194173D02*
X196073D01*
X196973D02*
X199173D01*
X199673D02*
X201573D01*
X215073D02*
X217073D01*
X225473D02*
X227473D01*
X229373D02*
X231373D01*
X236073D02*
X242673D01*
X249273D02*
X253273D01*
X141973Y-241763D02*
X145773D01*
X150373D02*
X152373D01*
X156773D02*
X158773D01*
X165873D02*
X167873D01*
X172273D02*
X174273D01*
X183173D02*
X185173D01*
X188673D02*
X190673D01*
X194173D02*
X196073D01*
X196973D02*
X199173D01*
X199673D02*
X201573D01*
X215073D02*
X217073D01*
X225473D02*
X227373D01*
X229473D02*
X231373D01*
X236073D02*
X242673D01*
X249473D02*
X253373D01*
X142073Y-241863D02*
X145873D01*
X150373D02*
X152373D01*
X156773D02*
X158773D01*
X165873D02*
X167873D01*
X172273D02*
X174273D01*
X183173D02*
X185173D01*
X188673D02*
X190673D01*
X194173D02*
X196073D01*
X197073D02*
X199273D01*
X199673D02*
X201573D01*
X215073D02*
X217073D01*
X225473D02*
X227373D01*
X229473D02*
X231473D01*
X236073D02*
X242773D01*
X249673D02*
X253373D01*
X142373Y-241963D02*
X145873D01*
X150373D02*
X152373D01*
X156773D02*
X158773D01*
X165873D02*
X167873D01*
X172273D02*
X174273D01*
X183173D02*
X185173D01*
X188673D02*
X190673D01*
X194173D02*
X196073D01*
X197073D02*
X199273D01*
X199673D02*
X201573D01*
X215073D02*
X217073D01*
X225373D02*
X227373D01*
X229473D02*
X231473D01*
X236073D02*
X242973D01*
X249973D02*
X253473D01*
X142573Y-242063D02*
X145873D01*
X150373D02*
X152373D01*
X156773D02*
X158773D01*
X165873D02*
X167873D01*
X172273D02*
X174273D01*
X183173D02*
X185173D01*
X188673D02*
X190673D01*
X194173D02*
X196073D01*
X197173D02*
X199373D01*
X199673D02*
X201573D01*
X215073D02*
X217073D01*
X225373D02*
X227373D01*
X229473D02*
X231473D01*
X236073D02*
X242973D01*
X250073D02*
X253473D01*
X142673Y-242163D02*
X145873D01*
X150373D02*
X152373D01*
X156773D02*
X158773D01*
X165873D02*
X167873D01*
X172273D02*
X174273D01*
X183173D02*
X185173D01*
X188673D02*
X190673D01*
X194173D02*
X196073D01*
X197273D02*
X199373D01*
X199673D02*
X201573D01*
X215073D02*
X217073D01*
X225373D02*
X227373D01*
X229473D02*
X231473D01*
X236073D02*
X243073D01*
X250273D02*
X253473D01*
X142973Y-242263D02*
X145873D01*
X150373D02*
X152373D01*
X156773D02*
X158773D01*
X165873D02*
X167873D01*
X172273D02*
X174273D01*
X183173D02*
X185173D01*
X188673D02*
X190673D01*
X194173D02*
X196073D01*
X197273D02*
X199373D01*
X199673D02*
X201573D01*
X215073D02*
X217073D01*
X225273D02*
X227273D01*
X229573D02*
X231573D01*
X236073D02*
X238073D01*
X241573D02*
X243273D01*
X250573D02*
X253473D01*
X143173Y-242363D02*
X145973D01*
X150373D02*
X152373D01*
X156773D02*
X158773D01*
X165873D02*
X167873D01*
X172273D02*
X174273D01*
X183173D02*
X185173D01*
X188673D02*
X190673D01*
X194173D02*
X196073D01*
X197273D02*
X199473D01*
X199673D02*
X201573D01*
X215073D02*
X217073D01*
X225273D02*
X227273D01*
X229573D02*
X231573D01*
X236073D02*
X238073D01*
X241573D02*
X243273D01*
X250673D02*
X253473D01*
X143273Y-242463D02*
X145973D01*
X150373D02*
X152373D01*
X156773D02*
X158773D01*
X165873D02*
X167873D01*
X172273D02*
X174273D01*
X183173D02*
X185173D01*
X188673D02*
X190673D01*
X194173D02*
X196073D01*
X197273D02*
X199473D01*
X199673D02*
X201573D01*
X215073D02*
X217073D01*
X225273D02*
X227273D01*
X229573D02*
X231573D01*
X236073D02*
X238073D01*
X241573D02*
X243373D01*
X250873D02*
X253473D01*
X143573Y-242563D02*
X145973D01*
X150373D02*
X152373D01*
X156773D02*
X158773D01*
X165873D02*
X167873D01*
X172273D02*
X174273D01*
X183173D02*
X185173D01*
X188673D02*
X190673D01*
X194173D02*
X196073D01*
X197373D02*
X199573D01*
X199673D02*
X201573D01*
X215073D02*
X217073D01*
X225273D02*
X227173D01*
X229673D02*
X231573D01*
X236073D02*
X238073D01*
X241573D02*
X243573D01*
X251073D02*
X253473D01*
X143673Y-242663D02*
X145973D01*
X150373D02*
X152373D01*
X156773D02*
X158773D01*
X165873D02*
X167873D01*
X172273D02*
X174273D01*
X183173D02*
X185173D01*
X188673D02*
X190673D01*
X194173D02*
X196073D01*
X197373D02*
X199573D01*
X199673D02*
X201573D01*
X215073D02*
X217073D01*
X225173D02*
X227173D01*
X229673D02*
X231673D01*
X236073D02*
X238073D01*
X241573D02*
X243573D01*
X251173D02*
X253573D01*
X143773Y-242763D02*
X145973D01*
X150373D02*
X152373D01*
X156773D02*
X158773D01*
X165873D02*
X167873D01*
X172273D02*
X174273D01*
X183173D02*
X185173D01*
X188673D02*
X190673D01*
X194173D02*
X196073D01*
X197473D02*
X201573D01*
X215073D02*
X217073D01*
X225173D02*
X227173D01*
X229673D02*
X231673D01*
X236073D02*
X238073D01*
X241573D02*
X243573D01*
X251373D02*
X253573D01*
X143873Y-242863D02*
X145973D01*
X150373D02*
X152373D01*
X156773D02*
X158773D01*
X165873D02*
X167873D01*
X172273D02*
X174273D01*
X183173D02*
X185173D01*
X188673D02*
X190673D01*
X194173D02*
X196073D01*
X197573D02*
X201573D01*
X215073D02*
X217073D01*
X225173D02*
X227073D01*
X229773D02*
X231673D01*
X236073D02*
X238073D01*
X241573D02*
X243573D01*
X251473D02*
X253573D01*
X143973Y-242963D02*
X145973D01*
X150373D02*
X152373D01*
X156773D02*
X158773D01*
X165873D02*
X167873D01*
X172273D02*
X174273D01*
X183173D02*
X185173D01*
X188673D02*
X190673D01*
X194173D02*
X196073D01*
X197573D02*
X201573D01*
X215073D02*
X217073D01*
X225073D02*
X231773D01*
X236073D02*
X238073D01*
X241573D02*
X243573D01*
X251473D02*
X253573D01*
X143973Y-243063D02*
X145973D01*
X150373D02*
X152373D01*
X156773D02*
X158773D01*
X165873D02*
X167873D01*
X172273D02*
X174273D01*
X183173D02*
X185173D01*
X188673D02*
X190673D01*
X194173D02*
X196073D01*
X197573D02*
X201573D01*
X215073D02*
X217073D01*
X225073D02*
X231773D01*
X236073D02*
X238073D01*
X241573D02*
X243573D01*
X251473D02*
X253573D01*
X143973Y-243163D02*
X145973D01*
X150373D02*
X152373D01*
X156773D02*
X158773D01*
X165873D02*
X167873D01*
X172273D02*
X174273D01*
X183173D02*
X185173D01*
X188673D02*
X190673D01*
X194173D02*
X196073D01*
X197673D02*
X201573D01*
X215073D02*
X217073D01*
X225073D02*
X231773D01*
X236073D02*
X238073D01*
X241573D02*
X243573D01*
X251573D02*
X253573D01*
X143973Y-243263D02*
X145973D01*
X150373D02*
X152373D01*
X156773D02*
X158773D01*
X165873D02*
X167873D01*
X172273D02*
X174273D01*
X183173D02*
X185173D01*
X188673D02*
X190673D01*
X194173D02*
X196073D01*
X197673D02*
X201573D01*
X215073D02*
X217073D01*
X224973D02*
X231873D01*
X236073D02*
X238073D01*
X241573D02*
X243573D01*
X251573D02*
X253573D01*
X143973Y-243363D02*
X145973D01*
X150373D02*
X152373D01*
X156773D02*
X158773D01*
X165873D02*
X167873D01*
X172273D02*
X174273D01*
X183173D02*
X185173D01*
X188673D02*
X190673D01*
X194173D02*
X196073D01*
X197773D02*
X201573D01*
X215073D02*
X217073D01*
X224973D02*
X231873D01*
X236073D02*
X238073D01*
X241573D02*
X243573D01*
X251573D02*
X253573D01*
X144073Y-243463D02*
X145973D01*
X150373D02*
X152373D01*
X156773D02*
X158773D01*
X165873D02*
X167873D01*
X172273D02*
X174273D01*
X183173D02*
X185173D01*
X188673D02*
X190673D01*
X194173D02*
X196073D01*
X197773D02*
X201573D01*
X215073D02*
X217073D01*
X224973D02*
X231873D01*
X236073D02*
X238073D01*
X241573D02*
X243573D01*
X251573D02*
X253573D01*
X144073Y-243563D02*
X145973D01*
X150373D02*
X152373D01*
X156773D02*
X158773D01*
X165873D02*
X167873D01*
X172273D02*
X174273D01*
X183173D02*
X185173D01*
X188673D02*
X190673D01*
X194173D02*
X196073D01*
X197873D02*
X201573D01*
X215073D02*
X217073D01*
X224973D02*
X231873D01*
X236073D02*
X238073D01*
X241573D02*
X243573D01*
X251573D02*
X253573D01*
X144073Y-243663D02*
X145973D01*
X150373D02*
X152373D01*
X156773D02*
X158773D01*
X165873D02*
X167873D01*
X172273D02*
X174273D01*
X183173D02*
X185173D01*
X188673D02*
X190673D01*
X194173D02*
X196073D01*
X197873D02*
X201573D01*
X215073D02*
X217073D01*
X224973D02*
X231873D01*
X236073D02*
X238073D01*
X241573D02*
X243573D01*
X251573D02*
X253573D01*
X144073Y-243763D02*
X145973D01*
X150373D02*
X152373D01*
X156773D02*
X158773D01*
X165873D02*
X167873D01*
X172273D02*
X174273D01*
X183173D02*
X185173D01*
X188673D02*
X190673D01*
X194173D02*
X196073D01*
X197873D02*
X201573D01*
X215073D02*
X217073D01*
X224873D02*
X231973D01*
X236073D02*
X238073D01*
X241573D02*
X243573D01*
X251573D02*
X253573D01*
X144073Y-243863D02*
X145973D01*
X150373D02*
X152373D01*
X156773D02*
X158773D01*
X165873D02*
X167873D01*
X172273D02*
X174273D01*
X183173D02*
X185173D01*
X188673D02*
X190673D01*
X194173D02*
X196073D01*
X197973D02*
X201573D01*
X215073D02*
X217073D01*
X224873D02*
X231973D01*
X236073D02*
X238073D01*
X241573D02*
X243573D01*
X251573D02*
X253573D01*
X138573Y-243963D02*
X140473D01*
X144073D02*
X145973D01*
X150373D02*
X152373D01*
X156773D02*
X158773D01*
X165873D02*
X167873D01*
X172273D02*
X174273D01*
X177773D02*
X179773D01*
X183173D02*
X185173D01*
X188673D02*
X190673D01*
X194173D02*
X196073D01*
X197973D02*
X201573D01*
X215073D02*
X217073D01*
X224873D02*
X231973D01*
X236073D02*
X238073D01*
X241573D02*
X243573D01*
X246073D02*
X248073D01*
X251573D02*
X253573D01*
X138573Y-244063D02*
X140473D01*
X144073D02*
X145973D01*
X150373D02*
X152373D01*
X156773D02*
X158773D01*
X165873D02*
X167873D01*
X172273D02*
X174273D01*
X177773D02*
X179773D01*
X183173D02*
X185173D01*
X188673D02*
X190673D01*
X194173D02*
X196073D01*
X198073D02*
X201573D01*
X215073D02*
X217073D01*
X224773D02*
X232073D01*
X236073D02*
X238073D01*
X241573D02*
X243573D01*
X246073D02*
X248073D01*
X251573D02*
X253573D01*
X138573Y-244163D02*
X140473D01*
X144073D02*
X145973D01*
X150373D02*
X152373D01*
X156773D02*
X158773D01*
X165873D02*
X167873D01*
X172273D02*
X174273D01*
X177773D02*
X179773D01*
X183173D02*
X185173D01*
X188673D02*
X190673D01*
X194173D02*
X196073D01*
X198073D02*
X201573D01*
X215073D02*
X217073D01*
X224773D02*
X232073D01*
X236073D02*
X238073D01*
X241573D02*
X243573D01*
X246073D02*
X248073D01*
X251573D02*
X253573D01*
X138573Y-244263D02*
X140473D01*
X144073D02*
X145973D01*
X150373D02*
X152373D01*
X156773D02*
X158773D01*
X165873D02*
X167873D01*
X172273D02*
X174273D01*
X177773D02*
X179773D01*
X183173D02*
X185173D01*
X188673D02*
X190673D01*
X194173D02*
X196073D01*
X198173D02*
X201573D01*
X215073D02*
X217073D01*
X224773D02*
X232073D01*
X236073D02*
X238073D01*
X241573D02*
X243573D01*
X246073D02*
X248073D01*
X251573D02*
X253573D01*
X138573Y-244363D02*
X140473D01*
X144073D02*
X145973D01*
X150373D02*
X152373D01*
X156773D02*
X158773D01*
X165873D02*
X167873D01*
X172273D02*
X174273D01*
X177773D02*
X179773D01*
X183173D02*
X185173D01*
X188673D02*
X190673D01*
X194173D02*
X196073D01*
X198173D02*
X201573D01*
X215073D02*
X217073D01*
X224673D02*
X232173D01*
X236073D02*
X238073D01*
X241573D02*
X243573D01*
X246073D02*
X248073D01*
X251573D02*
X253573D01*
X138573Y-244463D02*
X140473D01*
X144073D02*
X145973D01*
X150373D02*
X152373D01*
X156773D02*
X158773D01*
X165873D02*
X167873D01*
X172273D02*
X174273D01*
X177773D02*
X179773D01*
X183173D02*
X185173D01*
X188673D02*
X190673D01*
X194173D02*
X196073D01*
X198173D02*
X201573D01*
X215073D02*
X217073D01*
X224673D02*
X232173D01*
X236073D02*
X238073D01*
X241573D02*
X243573D01*
X246073D02*
X248073D01*
X251573D02*
X253573D01*
X138573Y-244563D02*
X140473D01*
X144073D02*
X145973D01*
X150373D02*
X152373D01*
X156773D02*
X158773D01*
X165873D02*
X167873D01*
X172273D02*
X174273D01*
X177773D02*
X179773D01*
X183173D02*
X185173D01*
X188673D02*
X190673D01*
X194173D02*
X196073D01*
X198273D02*
X201573D01*
X215073D02*
X217073D01*
X224673D02*
X232173D01*
X236073D02*
X238073D01*
X241573D02*
X243573D01*
X246073D02*
X248073D01*
X251573D02*
X253573D01*
X138573Y-244663D02*
X140473D01*
X144073D02*
X145973D01*
X150373D02*
X152373D01*
X156773D02*
X158773D01*
X165873D02*
X167873D01*
X172273D02*
X174273D01*
X177773D02*
X179773D01*
X183173D02*
X185173D01*
X188673D02*
X190673D01*
X194173D02*
X196073D01*
X198273D02*
X201573D01*
X215073D02*
X217073D01*
X224573D02*
X232173D01*
X236073D02*
X238073D01*
X241573D02*
X243573D01*
X246073D02*
X248073D01*
X251573D02*
X253573D01*
X138573Y-244763D02*
X140473D01*
X144073D02*
X145973D01*
X150373D02*
X152373D01*
X156773D02*
X158773D01*
X165873D02*
X167873D01*
X172273D02*
X174273D01*
X177773D02*
X179773D01*
X183173D02*
X185173D01*
X188673D02*
X190673D01*
X194173D02*
X196073D01*
X198373D02*
X201573D01*
X215073D02*
X217073D01*
X224573D02*
X232273D01*
X236073D02*
X238073D01*
X241573D02*
X243573D01*
X246073D02*
X248073D01*
X251573D02*
X253573D01*
X138573Y-244863D02*
X140473D01*
X144073D02*
X145973D01*
X150373D02*
X152373D01*
X156773D02*
X158773D01*
X165873D02*
X167873D01*
X172273D02*
X174273D01*
X177773D02*
X179773D01*
X183173D02*
X185173D01*
X188673D02*
X190673D01*
X194173D02*
X196073D01*
X198473D02*
X201573D01*
X215073D02*
X217073D01*
X224573D02*
X232273D01*
X236073D02*
X238073D01*
X241573D02*
X243573D01*
X246073D02*
X248073D01*
X251573D02*
X253573D01*
X138573Y-244963D02*
X140473D01*
X144073D02*
X145973D01*
X150373D02*
X152373D01*
X156773D02*
X158773D01*
X165873D02*
X167873D01*
X172273D02*
X174273D01*
X177773D02*
X179773D01*
X183173D02*
X185173D01*
X188673D02*
X190673D01*
X194173D02*
X196073D01*
X198473D02*
X201573D01*
X215073D02*
X217073D01*
X224573D02*
X226573D01*
X230273D02*
X232273D01*
X236073D02*
X238073D01*
X241573D02*
X243573D01*
X246073D02*
X248073D01*
X251573D02*
X253573D01*
X138573Y-245063D02*
X140473D01*
X144073D02*
X145973D01*
X150373D02*
X152373D01*
X156773D02*
X158773D01*
X165873D02*
X167873D01*
X172273D02*
X174273D01*
X177773D02*
X179773D01*
X183173D02*
X185173D01*
X188673D02*
X190673D01*
X194173D02*
X196073D01*
X198473D02*
X201573D01*
X215073D02*
X217073D01*
X224473D02*
X226473D01*
X230273D02*
X232373D01*
X236073D02*
X238073D01*
X241573D02*
X243573D01*
X246073D02*
X248073D01*
X251573D02*
X253573D01*
X138573Y-245163D02*
X140473D01*
X144073D02*
X145973D01*
X150373D02*
X152373D01*
X156773D02*
X158773D01*
X165873D02*
X167873D01*
X172273D02*
X174273D01*
X177773D02*
X179773D01*
X183173D02*
X185173D01*
X188673D02*
X190673D01*
X194173D02*
X196073D01*
X198473D02*
X201573D01*
X215073D02*
X217073D01*
X224473D02*
X226473D01*
X230373D02*
X232373D01*
X236073D02*
X238073D01*
X241573D02*
X243573D01*
X246073D02*
X248073D01*
X251573D02*
X253573D01*
X138573Y-245263D02*
X140473D01*
X144073D02*
X145973D01*
X150373D02*
X152373D01*
X156773D02*
X158773D01*
X165873D02*
X167873D01*
X172273D02*
X174273D01*
X177773D02*
X179773D01*
X183173D02*
X185173D01*
X188673D02*
X190673D01*
X194173D02*
X196073D01*
X198573D02*
X201573D01*
X215073D02*
X217073D01*
X224473D02*
X226473D01*
X230373D02*
X232373D01*
X236073D02*
X238073D01*
X241573D02*
X243573D01*
X246073D02*
X248073D01*
X251573D02*
X253573D01*
X138573Y-245363D02*
X140473D01*
X144073D02*
X145973D01*
X150373D02*
X152373D01*
X156773D02*
X158773D01*
X165873D02*
X167873D01*
X172273D02*
X174273D01*
X177773D02*
X179773D01*
X183173D02*
X185173D01*
X188673D02*
X190673D01*
X194173D02*
X196073D01*
X198573D02*
X201573D01*
X215073D02*
X217073D01*
X224373D02*
X226473D01*
X230373D02*
X232473D01*
X236073D02*
X238073D01*
X241573D02*
X243573D01*
X246073D02*
X248073D01*
X251573D02*
X253573D01*
X138573Y-245463D02*
X140473D01*
X144073D02*
X145973D01*
X150373D02*
X152373D01*
X156773D02*
X158773D01*
X165873D02*
X167873D01*
X172273D02*
X174273D01*
X177773D02*
X179773D01*
X183173D02*
X185173D01*
X188673D02*
X190673D01*
X194173D02*
X196073D01*
X198673D02*
X201573D01*
X215073D02*
X217073D01*
X224373D02*
X226373D01*
X230373D02*
X232473D01*
X236073D02*
X238073D01*
X241573D02*
X243573D01*
X246073D02*
X248073D01*
X251573D02*
X253573D01*
X138573Y-245563D02*
X140473D01*
X144073D02*
X145973D01*
X150373D02*
X152373D01*
X156773D02*
X158773D01*
X165873D02*
X167873D01*
X172273D02*
X174273D01*
X177773D02*
X179773D01*
X183173D02*
X185173D01*
X188673D02*
X190673D01*
X194173D02*
X196073D01*
X198773D02*
X201573D01*
X215073D02*
X217073D01*
X224373D02*
X226373D01*
X230373D02*
X232473D01*
X236073D02*
X238073D01*
X241573D02*
X243573D01*
X246073D02*
X248073D01*
X251573D02*
X253573D01*
X138573Y-245663D02*
X140473D01*
X144073D02*
X145973D01*
X150373D02*
X152373D01*
X156773D02*
X158773D01*
X165873D02*
X167873D01*
X172273D02*
X174273D01*
X177773D02*
X179773D01*
X183173D02*
X185173D01*
X188673D02*
X190673D01*
X194173D02*
X196073D01*
X198773D02*
X201573D01*
X215073D02*
X217073D01*
X224373D02*
X226373D01*
X230473D02*
X232473D01*
X236073D02*
X238073D01*
X241573D02*
X243573D01*
X246073D02*
X248073D01*
X251573D02*
X253573D01*
X138573Y-245763D02*
X145973D01*
X150373D02*
X152373D01*
X156773D02*
X163273D01*
X165873D02*
X167873D01*
X172273D02*
X179773D01*
X183173D02*
X190673D01*
X194173D02*
X196073D01*
X198773D02*
X201573D01*
X215073D02*
X221673D01*
X224273D02*
X226373D01*
X230473D02*
X232473D01*
X236073D02*
X243573D01*
X246073D02*
X253573D01*
X138573Y-245863D02*
X145973D01*
X150373D02*
X152373D01*
X156773D02*
X163273D01*
X165873D02*
X167873D01*
X172273D02*
X179673D01*
X183173D02*
X190673D01*
X194173D02*
X196073D01*
X198873D02*
X201573D01*
X215073D02*
X221673D01*
X224273D02*
X226273D01*
X230473D02*
X232573D01*
X236073D02*
X243573D01*
X246073D02*
X253573D01*
X138573Y-245963D02*
X145973D01*
X150373D02*
X152373D01*
X156773D02*
X163273D01*
X165873D02*
X167873D01*
X172273D02*
X179673D01*
X183173D02*
X190673D01*
X194173D02*
X196073D01*
X198873D02*
X201573D01*
X215073D02*
X221673D01*
X224273D02*
X226273D01*
X230573D02*
X232573D01*
X236073D02*
X243573D01*
X246173D02*
X253473D01*
X138573Y-246063D02*
X145973D01*
X150373D02*
X152373D01*
X156773D02*
X163273D01*
X165873D02*
X167873D01*
X172373D02*
X179673D01*
X183273D02*
X190673D01*
X194173D02*
X196073D01*
X198973D02*
X201573D01*
X215073D02*
X221673D01*
X224273D02*
X226173D01*
X230573D02*
X232573D01*
X236073D02*
X243473D01*
X246173D02*
X253473D01*
X138673Y-246163D02*
X145873D01*
X150373D02*
X152373D01*
X156773D02*
X163273D01*
X165873D02*
X167873D01*
X172373D02*
X179673D01*
X183273D02*
X190573D01*
X194173D02*
X196073D01*
X198973D02*
X201573D01*
X215073D02*
X221673D01*
X224173D02*
X226173D01*
X230573D02*
X232673D01*
X236073D02*
X243473D01*
X246173D02*
X253473D01*
X138673Y-246263D02*
X145873D01*
X150373D02*
X152373D01*
X156773D02*
X163273D01*
X165873D02*
X167873D01*
X172373D02*
X179573D01*
X183273D02*
X190573D01*
X194173D02*
X196073D01*
X199073D02*
X201573D01*
X215073D02*
X221673D01*
X224173D02*
X226173D01*
X230673D02*
X232673D01*
X236073D02*
X243473D01*
X246173D02*
X253473D01*
X138673Y-246363D02*
X145873D01*
X150373D02*
X152373D01*
X156773D02*
X163273D01*
X165873D02*
X167873D01*
X172373D02*
X179573D01*
X183373D02*
X190573D01*
X194173D02*
X196073D01*
X199073D02*
X201573D01*
X215073D02*
X221673D01*
X224173D02*
X226173D01*
X230673D02*
X232673D01*
X236073D02*
X243373D01*
X246273D02*
X253473D01*
X138673Y-246463D02*
X145873D01*
X150373D02*
X152373D01*
X156773D02*
X163273D01*
X165873D02*
X167873D01*
X172473D02*
X179573D01*
X183373D02*
X190473D01*
X194173D02*
X196073D01*
X199073D02*
X201573D01*
X215073D02*
X221673D01*
X224073D02*
X226073D01*
X230673D02*
X232773D01*
X236073D02*
X243373D01*
X246273D02*
X253373D01*
X138773Y-246563D02*
X145773D01*
X150373D02*
X152373D01*
X156773D02*
X163273D01*
X165873D02*
X167873D01*
X172473D02*
X179473D01*
X183473D02*
X190473D01*
X194173D02*
X196073D01*
X199173D02*
X201573D01*
X215073D02*
X221673D01*
X224073D02*
X226073D01*
X230673D02*
X232773D01*
X236073D02*
X243273D01*
X246273D02*
X253373D01*
X138773Y-246663D02*
X145773D01*
X150373D02*
X152373D01*
X156773D02*
X163273D01*
X165873D02*
X167873D01*
X172573D02*
X179473D01*
X183473D02*
X190373D01*
X194173D02*
X196073D01*
X199173D02*
X201573D01*
X215073D02*
X221673D01*
X224073D02*
X226073D01*
X230673D02*
X232773D01*
X236073D02*
X243273D01*
X246373D02*
X253273D01*
X138873Y-246763D02*
X145673D01*
X150373D02*
X152373D01*
X156773D02*
X163273D01*
X165873D02*
X167873D01*
X172673D02*
X179373D01*
X183573D02*
X190273D01*
X194173D02*
X196073D01*
X199273D02*
X201573D01*
X215073D02*
X221673D01*
X223973D02*
X226073D01*
X230773D02*
X232773D01*
X236073D02*
X243173D01*
X246473D02*
X253173D01*
X138973Y-246863D02*
X145573D01*
X150373D02*
X152373D01*
X156773D02*
X163273D01*
X165873D02*
X167873D01*
X172673D02*
X179273D01*
X183573D02*
X190273D01*
X194173D02*
X196073D01*
X199273D02*
X201573D01*
X215073D02*
X221673D01*
X223973D02*
X225973D01*
X230773D02*
X232773D01*
X236073D02*
X243073D01*
X246573D02*
X253173D01*
X139073Y-246963D02*
X145473D01*
X150373D02*
X152373D01*
X156773D02*
X163273D01*
X165873D02*
X167873D01*
X172773D02*
X179273D01*
X183673D02*
X190173D01*
X194173D02*
X196073D01*
X199373D02*
X201573D01*
X215073D02*
X221673D01*
X223973D02*
X225973D01*
X230773D02*
X232873D01*
X236073D02*
X242973D01*
X246573D02*
X253073D01*
X139173Y-247063D02*
X145373D01*
X150373D02*
X152373D01*
X156773D02*
X163273D01*
X165873D02*
X167873D01*
X172873D02*
X179173D01*
X183773D02*
X190073D01*
X194173D02*
X196073D01*
X199373D02*
X201573D01*
X215073D02*
X221673D01*
X223973D02*
X225973D01*
X230873D02*
X232873D01*
X236073D02*
X242873D01*
X246673D02*
X252973D01*
X139273Y-247163D02*
X145273D01*
X150373D02*
X152373D01*
X156773D02*
X163273D01*
X165873D02*
X167873D01*
X172973D02*
X179073D01*
X183873D02*
X189973D01*
X194173D02*
X196073D01*
X199373D02*
X201573D01*
X215073D02*
X221673D01*
X223873D02*
X225873D01*
X230873D02*
X232973D01*
X236073D02*
X242873D01*
X246773D02*
X252873D01*
X139373Y-247263D02*
X145173D01*
X150373D02*
X152373D01*
X156773D02*
X163273D01*
X165873D02*
X167873D01*
X173073D02*
X178873D01*
X183973D02*
X189873D01*
X194173D02*
X196073D01*
X199473D02*
X201573D01*
X215073D02*
X221673D01*
X223873D02*
X225873D01*
X230873D02*
X232973D01*
X236073D02*
X242673D01*
X246873D02*
X252773D01*
X139573Y-247363D02*
X144973D01*
X150373D02*
X152373D01*
X156773D02*
X163273D01*
X165873D02*
X167873D01*
X173273D02*
X178773D01*
X184173D02*
X189673D01*
X194173D02*
X196073D01*
X199473D02*
X201573D01*
X215073D02*
X221673D01*
X223873D02*
X225873D01*
X230873D02*
X232973D01*
X236073D02*
X242573D01*
X247073D02*
X252573D01*
X139673Y-247463D02*
X144873D01*
X150373D02*
X152373D01*
X156773D02*
X163273D01*
X165873D02*
X167873D01*
X173373D02*
X178573D01*
X184373D02*
X189573D01*
X194173D02*
X196073D01*
X199573D02*
X201573D01*
X215073D02*
X221673D01*
X223773D02*
X225873D01*
X230973D02*
X232973D01*
X236073D02*
X242373D01*
X247273D02*
X252473D01*
X139873Y-247563D02*
X144673D01*
X150373D02*
X152373D01*
X156773D02*
X163273D01*
X165873D02*
X167873D01*
X173573D02*
X178373D01*
X184473D02*
X189373D01*
X194173D02*
X196073D01*
X199673D02*
X201573D01*
X215073D02*
X221673D01*
X223773D02*
X225773D01*
X230973D02*
X233073D01*
X236073D02*
X242273D01*
X247373D02*
X252273D01*
D16*
X61542Y80253D02*
X61709Y80420D01*
X61521Y80232D02*
X61542Y80253D01*
X61467D02*
X61542D01*
X62474D01*
X61709Y80420D02*
Y82426D01*
X62474Y80268D02*
X62898Y80691D01*
X-230371Y-241750D02*
X-228038D01*
X-229205D01*
Y-248748D01*
X-230371D01*
X-228038D01*
X-223373D02*
X-221041D01*
X-219874Y-247582D01*
Y-245249D01*
X-221041Y-244083D01*
X-223373D01*
X-224540Y-245249D01*
Y-247582D01*
X-223373Y-248748D01*
X-217542Y-241750D02*
X-212877D01*
X-215209D01*
Y-248748D01*
X-203546Y-241750D02*
Y-248748D01*
X-201214Y-246415D01*
X-198881Y-248748D01*
Y-241750D01*
X-196549Y-248748D02*
X-194216D01*
X-195382D01*
Y-244083D01*
X-196549D01*
X-190717D02*
Y-248748D01*
Y-246415D01*
X-189551Y-245249D01*
X-188385Y-244083D01*
X-187218D01*
X-180220Y-248748D02*
X-182553D01*
X-183719Y-247582D01*
Y-245249D01*
X-182553Y-244083D01*
X-180220D01*
X-179054Y-245249D01*
Y-246415D01*
X-183719D01*
X-176722Y-248748D02*
X-174389D01*
X-175555D01*
Y-241750D01*
X-176722D01*
X-167391Y-248748D02*
X-169724D01*
X-170890Y-247582D01*
Y-245249D01*
X-169724Y-244083D01*
X-167391D01*
X-166225Y-245249D01*
Y-246415D01*
X-170890D01*
X-163892Y-248748D02*
X-160394D01*
X-159227Y-247582D01*
X-160394Y-246415D01*
X-162726D01*
X-163892Y-245249D01*
X-162726Y-244083D01*
X-159227D01*
X-156895Y-248748D02*
X-153396D01*
X-152230Y-247582D01*
X-153396Y-246415D01*
X-155728D01*
X-156895Y-245249D01*
X-155728Y-244083D01*
X-152230D01*
X-142899Y-241750D02*
Y-248748D01*
Y-245249D01*
X-138234D01*
Y-241750D01*
Y-248748D01*
X-134735Y-244083D02*
X-132403D01*
X-131236Y-245249D01*
Y-248748D01*
X-134735D01*
X-135901Y-247582D01*
X-134735Y-246415D01*
X-131236D01*
X-128904Y-244083D02*
Y-248748D01*
Y-246415D01*
X-127737Y-245249D01*
X-126571Y-244083D01*
X-125405D01*
X-117241Y-241750D02*
Y-248748D01*
X-120740D01*
X-121906Y-247582D01*
Y-245249D01*
X-120740Y-244083D01*
X-117241D01*
X-114908D02*
Y-247582D01*
X-113742Y-248748D01*
X-112576Y-247582D01*
X-111409Y-248748D01*
X-110243Y-247582D01*
Y-244083D01*
X-106744D02*
X-104412D01*
X-103245Y-245249D01*
Y-248748D01*
X-106744D01*
X-107911Y-247582D01*
X-106744Y-246415D01*
X-103245D01*
X-100913Y-244083D02*
Y-248748D01*
Y-246415D01*
X-99747Y-245249D01*
X-98580Y-244083D01*
X-97414D01*
X-90416Y-248748D02*
X-92749D01*
X-93915Y-247582D01*
Y-245249D01*
X-92749Y-244083D01*
X-90416D01*
X-89250Y-245249D01*
Y-246415D01*
X-93915D01*
X-79920Y-248748D02*
Y-244083D01*
X-77587Y-241750D01*
X-75254Y-244083D01*
Y-248748D01*
Y-245249D01*
X-79920D01*
X-72922Y-251081D02*
Y-244083D01*
X-69423D01*
X-68257Y-245249D01*
Y-247582D01*
X-69423Y-248748D01*
X-72922D01*
X-65924Y-251081D02*
Y-244083D01*
X-62425D01*
X-61259Y-245249D01*
Y-247582D01*
X-62425Y-248748D01*
X-65924D01*
X-58926D02*
X-56594D01*
X-57760D01*
Y-241750D01*
X-58926D01*
X-53095Y-248748D02*
X-50762D01*
X-51929D01*
Y-244083D01*
X-53095D01*
X-42598D02*
X-46097D01*
X-47264Y-245249D01*
Y-247582D01*
X-46097Y-248748D01*
X-42598D01*
X-39099Y-244083D02*
X-36767D01*
X-35601Y-245249D01*
Y-248748D01*
X-39099D01*
X-40266Y-247582D01*
X-39099Y-246415D01*
X-35601D01*
X-32102Y-242917D02*
Y-244083D01*
X-33268D01*
X-30935D01*
X-32102D01*
Y-247582D01*
X-30935Y-248748D01*
X-27437D02*
X-25104D01*
X-26270D01*
Y-244083D01*
X-27437D01*
X-20439Y-248748D02*
X-18106D01*
X-16940Y-247582D01*
Y-245249D01*
X-18106Y-244083D01*
X-20439D01*
X-21605Y-245249D01*
Y-247582D01*
X-20439Y-248748D01*
X-14607D02*
Y-244083D01*
X-11108D01*
X-9942Y-245249D01*
Y-248748D01*
X-7610D02*
X-4111D01*
X-2944Y-247582D01*
X-4111Y-246415D01*
X-6443D01*
X-7610Y-245249D01*
X-6443Y-244083D01*
X-2944D01*
X271218Y-231505D02*
X266553D01*
Y-238503D01*
X271218D01*
X266553Y-235004D02*
X268886D01*
X278216Y-231505D02*
X273551D01*
Y-235004D01*
X275883D01*
X273551D01*
Y-238503D01*
X280549D02*
Y-231505D01*
X284047D01*
X285214Y-232671D01*
Y-235004D01*
X284047Y-236170D01*
X280549D01*
X282881D02*
X285214Y-238503D01*
X287546Y-232671D02*
X288713Y-231505D01*
X291045D01*
X292211Y-232671D01*
Y-233838D01*
X291045Y-235004D01*
X289879D01*
X291045D01*
X292211Y-236170D01*
Y-237337D01*
X291045Y-238503D01*
X288713D01*
X287546Y-237337D01*
X299209Y-238503D02*
X294544D01*
X299209Y-233838D01*
Y-232671D01*
X298043Y-231505D01*
X295710D01*
X294544Y-232671D01*
X301542Y-233838D02*
X306207Y-238503D01*
X303874Y-236170D01*
X306207Y-233838D01*
X301542Y-238503D01*
X313205Y-232671D02*
X312038Y-231505D01*
X309706D01*
X308539Y-232671D01*
Y-237337D01*
X309706Y-238503D01*
X312038D01*
X313205Y-237337D01*
Y-235004D01*
X310872D01*
X320202Y-238503D02*
X315537D01*
X320202Y-233838D01*
Y-232671D01*
X319036Y-231505D01*
X316704D01*
X315537Y-232671D01*
X327200Y-238503D02*
X322535D01*
X327200Y-233838D01*
Y-232671D01*
X326034Y-231505D01*
X323701D01*
X322535Y-232671D01*
X329533Y-239669D02*
X334198D01*
X336530Y-231505D02*
Y-238503D01*
X341196D01*
X348193Y-232671D02*
X347027Y-231505D01*
X344694D01*
X343528Y-232671D01*
Y-237337D01*
X344694Y-238503D01*
X347027D01*
X348193Y-237337D01*
X350526Y-239669D02*
X355191D01*
X357524Y-238503D02*
Y-231505D01*
X361022D01*
X362189Y-232671D01*
Y-235004D01*
X361022Y-236170D01*
X357524D01*
X359856D02*
X362189Y-238503D01*
X369186Y-231505D02*
X364521D01*
Y-238503D01*
X369186D01*
X364521Y-235004D02*
X366854D01*
X376184Y-231505D02*
X371519D01*
Y-235004D01*
X373852D01*
X371519D01*
Y-238503D01*
X378517Y-239669D02*
X383182D01*
X385515Y-231505D02*
Y-238503D01*
X389014D01*
X390180Y-237337D01*
Y-232671D01*
X389014Y-231505D01*
X385515D01*
X397178D02*
X392512D01*
Y-238503D01*
X397178D01*
X392512Y-235004D02*
X394845D01*
X404175Y-232671D02*
X403009Y-231505D01*
X400676D01*
X399510Y-232671D01*
Y-233838D01*
X400676Y-235004D01*
X403009D01*
X404175Y-236170D01*
Y-237337D01*
X403009Y-238503D01*
X400676D01*
X399510Y-237337D01*
X406508Y-239669D02*
X411173D01*
X413506Y-238503D02*
Y-233838D01*
X415838Y-231505D01*
X418171Y-233838D01*
Y-238503D01*
Y-235004D01*
X413506D01*
X420503Y-232671D02*
X421670Y-231505D01*
X424002D01*
X425168Y-232671D01*
Y-237337D01*
X424002Y-238503D01*
X421670D01*
X420503Y-237337D01*
Y-232671D01*
X427501Y-238503D02*
X429834D01*
X428667D01*
Y-231505D01*
X427501Y-232671D01*
X433332Y-238503D02*
Y-237337D01*
X434499D01*
Y-238503D01*
X433332D01*
X439164D02*
Y-231505D01*
X442663D01*
X443829Y-232671D01*
Y-235004D01*
X442663Y-236170D01*
X439164D01*
X450827Y-233838D02*
X447328D01*
X446162Y-235004D01*
Y-237337D01*
X447328Y-238503D01*
X450827D01*
X453159Y-231505D02*
Y-238503D01*
X456658D01*
X457825Y-237337D01*
Y-236170D01*
Y-235004D01*
X456658Y-233838D01*
X453159D01*
X460157Y-231505D02*
Y-238503D01*
X463656D01*
X464822Y-237337D01*
Y-232671D01*
X463656Y-231505D01*
X460157D01*
X468321Y-238503D02*
X470654D01*
X471820Y-237337D01*
Y-235004D01*
X470654Y-233838D01*
X468321D01*
X467155Y-235004D01*
Y-237337D01*
X468321Y-238503D01*
X478818Y-233838D02*
X475319D01*
X474153Y-235004D01*
Y-237337D01*
X475319Y-238503D01*
X478818D01*
X481218Y-291505D02*
X478886Y-292671D01*
X476553Y-295004D01*
Y-297337D01*
X477719Y-298503D01*
X480052D01*
X481218Y-297337D01*
Y-296170D01*
X480052Y-295004D01*
X476553D01*
X483551Y-298503D02*
X488216Y-293838D01*
X490549Y-298503D02*
X492881D01*
X491715D01*
Y-291505D01*
X490549Y-292671D01*
X496380Y-298503D02*
X498712D01*
X497546D01*
Y-291505D01*
X496380Y-292671D01*
X502211Y-298503D02*
X506877Y-293838D01*
X513874Y-298503D02*
X509209D01*
X513874Y-293838D01*
Y-292671D01*
X512708Y-291505D01*
X510375D01*
X509209Y-292671D01*
X516207D02*
X517373Y-291505D01*
X519706D01*
X520872Y-292671D01*
Y-297337D01*
X519706Y-298503D01*
X517373D01*
X516207Y-297337D01*
Y-292671D01*
X527870Y-298503D02*
X523205D01*
X527870Y-293838D01*
Y-292671D01*
X526704Y-291505D01*
X524371D01*
X523205Y-292671D01*
X530202Y-298503D02*
X532535D01*
X531369D01*
Y-291505D01*
X530202Y-292671D01*
X144552Y-268503D02*
Y-261505D01*
X141053Y-265004D01*
X145718D01*
X149217Y-262671D02*
Y-263838D01*
X148051D01*
X150383D01*
X149217D01*
Y-267337D01*
X150383Y-268503D01*
X153882Y-261505D02*
Y-268503D01*
Y-265004D01*
X155049Y-263838D01*
X157381D01*
X158547Y-265004D01*
Y-268503D01*
X172543Y-261505D02*
X167878D01*
Y-265004D01*
X170210D01*
X167878D01*
Y-268503D01*
X174875D02*
X177208D01*
X176042D01*
Y-261505D01*
X174875D01*
X181873Y-268503D02*
X184206D01*
X185372Y-267337D01*
Y-265004D01*
X184206Y-263838D01*
X181873D01*
X180707Y-265004D01*
Y-267337D01*
X181873Y-268503D01*
X188871D02*
X191203D01*
X192370Y-267337D01*
Y-265004D01*
X191203Y-263838D01*
X188871D01*
X187705Y-265004D01*
Y-267337D01*
X188871Y-268503D01*
X194702Y-263838D02*
Y-268503D01*
Y-266170D01*
X195869Y-265004D01*
X197035Y-263838D01*
X198201D01*
X141053Y-271505D02*
Y-278503D01*
X144552D01*
X145718Y-277337D01*
Y-276170D01*
X144552Y-275004D01*
X141053D01*
X144552D01*
X145718Y-273838D01*
Y-272672D01*
X144552Y-271505D01*
X141053D01*
X149217Y-278503D02*
X151550D01*
X152716Y-277337D01*
Y-275004D01*
X151550Y-273838D01*
X149217D01*
X148051Y-275004D01*
Y-277337D01*
X149217Y-278503D01*
X155049D02*
X158547D01*
X159714Y-277337D01*
X158547Y-276170D01*
X156215D01*
X155049Y-275004D01*
X156215Y-273838D01*
X159714D01*
X163213Y-272672D02*
Y-273838D01*
X162046D01*
X164379D01*
X163213D01*
Y-277337D01*
X164379Y-278503D01*
X169044D02*
X171377D01*
X172543Y-277337D01*
Y-275004D01*
X171377Y-273838D01*
X169044D01*
X167878Y-275004D01*
Y-277337D01*
X169044Y-278503D01*
X174875D02*
Y-273838D01*
X178374D01*
X179541Y-275004D01*
Y-278503D01*
X183039Y-279669D02*
X184206Y-278503D01*
Y-277337D01*
X183039D01*
Y-278503D01*
X184206D01*
X183039Y-279669D01*
X181873Y-280836D01*
X195869Y-278503D02*
Y-271505D01*
X198201Y-273838D01*
X200534Y-271505D01*
Y-278503D01*
X202866D02*
Y-273838D01*
X205199Y-271505D01*
X207531Y-273838D01*
Y-278503D01*
Y-275004D01*
X202866D01*
X216862Y-272672D02*
X218028Y-271505D01*
X220361D01*
X221527Y-272672D01*
Y-277337D01*
X220361Y-278503D01*
X218028D01*
X216862Y-277337D01*
Y-272672D01*
X228525Y-278503D02*
X223860D01*
X228525Y-273838D01*
Y-272672D01*
X227359Y-271505D01*
X225026D01*
X223860Y-272672D01*
X235523Y-278503D02*
X230857D01*
X235523Y-273838D01*
Y-272672D01*
X234356Y-271505D01*
X232024D01*
X230857Y-272672D01*
X237855Y-278503D02*
X240188D01*
X239021D01*
Y-271505D01*
X237855Y-272672D01*
X243687D02*
X244853Y-271505D01*
X247185D01*
X248352Y-272672D01*
Y-277337D01*
X247185Y-278503D01*
X244853D01*
X243687Y-277337D01*
Y-272672D01*
X463121Y-313004D02*
X459788Y-317670D01*
X464787D01*
X463121Y-313004D02*
Y-320003D01*
X222920Y-313004D02*
X226585D01*
X224586Y-315671D01*
X225586D01*
X226252Y-316004D01*
X226585Y-316337D01*
X226919Y-317337D01*
Y-318003D01*
X226585Y-319003D01*
X225919Y-319670D01*
X224919Y-320003D01*
X223919D01*
X222920Y-319670D01*
X222586Y-319337D01*
X222253Y-318670D01*
X-15079Y-314671D02*
Y-314338D01*
X-14746Y-313671D01*
X-14412Y-313338D01*
X-13746Y-313004D01*
X-12413D01*
X-11746Y-313338D01*
X-11413Y-313671D01*
X-11080Y-314338D01*
Y-315004D01*
X-11413Y-315671D01*
X-12079Y-316670D01*
X-15412Y-320003D01*
X-10746D01*
X-251213Y-314338D02*
X-250547Y-314004D01*
X-249547Y-313004D01*
Y-320003D01*
X463121Y416995D02*
X459788Y412330D01*
X464787D01*
X463121Y416995D02*
Y409997D01*
X222920Y416995D02*
X226585D01*
X224586Y414329D01*
X225586D01*
X226252Y413996D01*
X226585Y413663D01*
X226919Y412663D01*
Y411997D01*
X226585Y410997D01*
X225919Y410330D01*
X224919Y409997D01*
X223919D01*
X222920Y410330D01*
X222586Y410664D01*
X222253Y411330D01*
X-15079Y415329D02*
Y415662D01*
X-14746Y416329D01*
X-14412Y416662D01*
X-13746Y416995D01*
X-12413D01*
X-11746Y416662D01*
X-11413Y416329D01*
X-11080Y415662D01*
Y414996D01*
X-11413Y414329D01*
X-12079Y413330D01*
X-15412Y409997D01*
X-10746D01*
X-251213Y415662D02*
X-250547Y415996D01*
X-249547Y416995D01*
Y409997D01*
X568553Y-234404D02*
Y-241403D01*
Y-234404D02*
X570886D01*
X571886Y-234738D01*
X572552Y-235404D01*
X572885Y-236071D01*
X573219Y-237071D01*
Y-238737D01*
X572885Y-239737D01*
X572552Y-240403D01*
X571886Y-241070D01*
X570886Y-241403D01*
X568553D01*
X573552Y-48871D02*
X573219Y-48204D01*
X572552Y-47538D01*
X571886Y-47205D01*
X570553D01*
X569886Y-47538D01*
X569219Y-48204D01*
X568886Y-48871D01*
X568553Y-49871D01*
Y-51537D01*
X568886Y-52537D01*
X569219Y-53203D01*
X569886Y-53870D01*
X570553Y-54203D01*
X571886D01*
X572552Y-53870D01*
X573219Y-53203D01*
X573552Y-52537D01*
X568553Y140395D02*
Y133397D01*
Y140395D02*
X571552D01*
X572552Y140062D01*
X572885Y139729D01*
X573219Y139062D01*
Y138396D01*
X572885Y137729D01*
X572552Y137396D01*
X571552Y137063D01*
X568553D02*
X571552D01*
X572552Y136730D01*
X572885Y136396D01*
X573219Y135730D01*
Y134730D01*
X572885Y134063D01*
X572552Y133730D01*
X571552Y133397D01*
X568553D01*
X573885Y320997D02*
X571219Y327995D01*
X568553Y320997D01*
X569553Y323330D02*
X572885D01*
X-360947Y-234404D02*
Y-241403D01*
Y-234404D02*
X-358614D01*
X-357614Y-234738D01*
X-356948Y-235404D01*
X-356615Y-236071D01*
X-356281Y-237071D01*
Y-238737D01*
X-356615Y-239737D01*
X-356948Y-240403D01*
X-357614Y-241070D01*
X-358614Y-241403D01*
X-360947D01*
X-355948Y-48871D02*
X-356281Y-48204D01*
X-356948Y-47538D01*
X-357614Y-47205D01*
X-358947D01*
X-359614Y-47538D01*
X-360280Y-48204D01*
X-360614Y-48871D01*
X-360947Y-49871D01*
Y-51537D01*
X-360614Y-52537D01*
X-360280Y-53203D01*
X-359614Y-53870D01*
X-358947Y-54203D01*
X-357614D01*
X-356948Y-53870D01*
X-356281Y-53203D01*
X-355948Y-52537D01*
X141053Y-252672D02*
X142219Y-251505D01*
X144552D01*
X145718Y-252672D01*
Y-253838D01*
X144552Y-255004D01*
X143386D01*
X144552D01*
X145718Y-256170D01*
Y-257337D01*
X144552Y-258503D01*
X142219D01*
X141053Y-257337D01*
X151550Y-258503D02*
Y-251505D01*
X148051Y-255004D01*
X152716D01*
X155049Y-252672D02*
X156215Y-251505D01*
X158547D01*
X159714Y-252672D01*
Y-253838D01*
X158547Y-255004D01*
X157381D01*
X158547D01*
X159714Y-256170D01*
Y-257337D01*
X158547Y-258503D01*
X156215D01*
X155049Y-257337D01*
X173709Y-252672D02*
X172543Y-251505D01*
X170210D01*
X169044Y-252672D01*
Y-257337D01*
X170210Y-258503D01*
X172543D01*
X173709Y-257337D01*
X177208Y-258503D02*
X179541D01*
X180707Y-257337D01*
Y-255004D01*
X179541Y-253838D01*
X177208D01*
X176042Y-255004D01*
Y-257337D01*
X177208Y-258503D01*
X183039D02*
Y-253838D01*
X186538D01*
X187705Y-255004D01*
Y-258503D01*
X192370Y-260836D02*
X193536D01*
X194702Y-259669D01*
Y-253838D01*
X191203D01*
X190037Y-255004D01*
Y-257337D01*
X191203Y-258503D01*
X194702D01*
X197035Y-253838D02*
Y-258503D01*
Y-256170D01*
X198201Y-255004D01*
X199367Y-253838D01*
X200534D01*
X207531Y-258503D02*
X205199D01*
X204033Y-257337D01*
Y-255004D01*
X205199Y-253838D01*
X207531D01*
X208698Y-255004D01*
Y-256170D01*
X204033D01*
X211030Y-258503D02*
X214529D01*
X215696Y-257337D01*
X214529Y-256170D01*
X212197D01*
X211030Y-255004D01*
X212197Y-253838D01*
X215696D01*
X218028Y-258503D02*
X221527D01*
X222693Y-257337D01*
X221527Y-256170D01*
X219194D01*
X218028Y-255004D01*
X219194Y-253838D01*
X222693D01*
X236689Y-252672D02*
X235523Y-251505D01*
X233190D01*
X232024Y-252672D01*
Y-253838D01*
X233190Y-255004D01*
X235523D01*
X236689Y-256170D01*
Y-257337D01*
X235523Y-258503D01*
X233190D01*
X232024Y-257337D01*
X240188Y-252672D02*
Y-253838D01*
X239021D01*
X241354D01*
X240188D01*
Y-257337D01*
X241354Y-258503D01*
X141053Y-283838D02*
Y-287337D01*
X142219Y-288503D01*
X143386Y-287337D01*
X144552Y-288503D01*
X145718Y-287337D01*
Y-283838D01*
X148051D02*
Y-287337D01*
X149217Y-288503D01*
X150383Y-287337D01*
X151550Y-288503D01*
X152716Y-287337D01*
Y-283838D01*
X155049D02*
Y-287337D01*
X156215Y-288503D01*
X157381Y-287337D01*
X158547Y-288503D01*
X159714Y-287337D01*
Y-283838D01*
X162046Y-288503D02*
Y-287337D01*
X163213D01*
Y-288503D01*
X162046D01*
X167878D02*
X171377D01*
X172543Y-287337D01*
X171377Y-286170D01*
X169044D01*
X167878Y-285004D01*
X169044Y-283838D01*
X172543D01*
X174875Y-288503D02*
X177208D01*
X176042D01*
Y-283838D01*
X174875D01*
X180707Y-288503D02*
X183039D01*
X181873D01*
Y-281505D01*
X180707D01*
X187705Y-283838D02*
X190037D01*
X191203Y-285004D01*
Y-288503D01*
X187705D01*
X186538Y-287337D01*
X187705Y-286170D01*
X191203D01*
X193536Y-281505D02*
Y-288503D01*
X197035D01*
X198201Y-287337D01*
Y-286170D01*
Y-285004D01*
X197035Y-283838D01*
X193536D01*
X200534Y-288503D02*
X204033D01*
X205199Y-287337D01*
X204033Y-286170D01*
X201700D01*
X200534Y-285004D01*
X201700Y-283838D01*
X205199D01*
X207531Y-288503D02*
Y-287337D01*
X208698D01*
Y-288503D01*
X207531D01*
X218028Y-283838D02*
X214529D01*
X213363Y-285004D01*
Y-287337D01*
X214529Y-288503D01*
X218028D01*
X221527D02*
X223860D01*
X225026Y-287337D01*
Y-285004D01*
X223860Y-283838D01*
X221527D01*
X220361Y-285004D01*
Y-287337D01*
X221527Y-288503D01*
X227359D02*
Y-283838D01*
X228525D01*
X229691Y-285004D01*
Y-288503D01*
Y-285004D01*
X230857Y-283838D01*
X232024Y-285004D01*
Y-288503D01*
X145718Y-291505D02*
X143386Y-292671D01*
X141053Y-295004D01*
Y-297337D01*
X142219Y-298503D01*
X144552D01*
X145718Y-297337D01*
Y-296170D01*
X144552Y-295004D01*
X141053D01*
X148051Y-298503D02*
X150383D01*
X149217D01*
Y-291505D01*
X148051Y-292671D01*
X153882Y-291505D02*
X158547D01*
Y-292671D01*
X153882Y-297337D01*
Y-298503D01*
X160880Y-295004D02*
X165545D01*
X167878Y-297337D02*
X169044Y-298503D01*
X171377D01*
X172543Y-297337D01*
Y-292671D01*
X171377Y-291505D01*
X169044D01*
X167878Y-292671D01*
Y-293838D01*
X169044Y-295004D01*
X172543D01*
X179541Y-291505D02*
X174875D01*
Y-295004D01*
X177208Y-293838D01*
X178374D01*
X179541Y-295004D01*
Y-297337D01*
X178374Y-298503D01*
X176042D01*
X174875Y-297337D01*
X181873Y-298503D02*
X184206D01*
X183039D01*
Y-291505D01*
X181873Y-292671D01*
X187705Y-295004D02*
X192370D01*
X194702Y-292671D02*
X195869Y-291505D01*
X198201D01*
X199367Y-292671D01*
Y-297337D01*
X198201Y-298503D01*
X195869D01*
X194702Y-297337D01*
Y-292671D01*
X206365Y-298503D02*
X201700D01*
X206365Y-293838D01*
Y-292671D01*
X205199Y-291505D01*
X202866D01*
X201700Y-292671D01*
X208698D02*
X209864Y-291505D01*
X212197D01*
X213363Y-292671D01*
Y-297337D01*
X212197Y-298503D01*
X209864D01*
X208698Y-297337D01*
Y-292671D01*
X215696D02*
X216862Y-291505D01*
X219194D01*
X220361Y-292671D01*
Y-297337D01*
X219194Y-298503D01*
X216862D01*
X215696Y-297337D01*
Y-292671D01*
X271218Y-261505D02*
X266553D01*
Y-268503D01*
X271218D01*
X266553Y-265004D02*
X268886D01*
X278216Y-261505D02*
X273551D01*
Y-265004D01*
X275883D01*
X273551D01*
Y-268503D01*
X280549D02*
Y-261505D01*
X284047D01*
X285214Y-262671D01*
Y-265004D01*
X284047Y-266170D01*
X280549D01*
X282881D02*
X285214Y-268503D01*
X287546Y-262671D02*
X288713Y-261505D01*
X291045D01*
X292211Y-262671D01*
Y-263838D01*
X291045Y-265004D01*
X289879D01*
X291045D01*
X292211Y-266170D01*
Y-267337D01*
X291045Y-268503D01*
X288713D01*
X287546Y-267337D01*
X299209Y-268503D02*
X294544D01*
X299209Y-263838D01*
Y-262671D01*
X298043Y-261505D01*
X295710D01*
X294544Y-262671D01*
X301542Y-263838D02*
X306207Y-268503D01*
X303874Y-266170D01*
X306207Y-263838D01*
X301542Y-268503D01*
X313205Y-262671D02*
X312038Y-261505D01*
X309706D01*
X308539Y-262671D01*
Y-267337D01*
X309706Y-268503D01*
X312038D01*
X313205Y-267337D01*
Y-265004D01*
X310872D01*
X320202Y-268503D02*
X315537D01*
X320202Y-263838D01*
Y-262671D01*
X319036Y-261505D01*
X316704D01*
X315537Y-262671D01*
X327200Y-268503D02*
X322535D01*
X327200Y-263838D01*
Y-262671D01*
X326034Y-261505D01*
X323701D01*
X322535Y-262671D01*
X329533Y-269669D02*
X334198D01*
X336530Y-261505D02*
Y-268503D01*
X341196D01*
X348193Y-262671D02*
X347027Y-261505D01*
X344694D01*
X343528Y-262671D01*
Y-267337D01*
X344694Y-268503D01*
X347027D01*
X348193Y-267337D01*
X350526Y-268503D02*
Y-261505D01*
X354025D01*
X355191Y-262671D01*
Y-265004D01*
X354025Y-266170D01*
X350526D01*
X352858D02*
X355191Y-268503D01*
X357524Y-261505D02*
Y-268503D01*
X361022D01*
X362189Y-267337D01*
Y-262671D01*
X361022Y-261505D01*
X357524D01*
X476553Y-268503D02*
Y-263838D01*
X478886Y-261505D01*
X481218Y-263838D01*
Y-268503D01*
Y-265004D01*
X476553D01*
X483551Y-262671D02*
X484717Y-261505D01*
X487050D01*
X488216Y-262671D01*
Y-267337D01*
X487050Y-268503D01*
X484717D01*
X483551Y-267337D01*
Y-262671D01*
X495214Y-268503D02*
X490549D01*
X495214Y-263838D01*
Y-262671D01*
X494047Y-261505D01*
X491715D01*
X490549Y-262671D01*
X271218Y-201505D02*
X266553D01*
Y-208503D01*
X271218D01*
X266553Y-205004D02*
X268886D01*
X278216Y-201505D02*
X273551D01*
Y-205004D01*
X275883D01*
X273551D01*
Y-208503D01*
X280549D02*
Y-201505D01*
X284047D01*
X285214Y-202672D01*
Y-205004D01*
X284047Y-206170D01*
X280549D01*
X282881D02*
X285214Y-208503D01*
X287546Y-202672D02*
X288713Y-201505D01*
X291045D01*
X292211Y-202672D01*
Y-203838D01*
X291045Y-205004D01*
X289879D01*
X291045D01*
X292211Y-206170D01*
Y-207337D01*
X291045Y-208503D01*
X288713D01*
X287546Y-207337D01*
X299209Y-208503D02*
X294544D01*
X299209Y-203838D01*
Y-202672D01*
X298043Y-201505D01*
X295710D01*
X294544Y-202672D01*
X301542Y-203838D02*
X306207Y-208503D01*
X303874Y-206170D01*
X306207Y-203838D01*
X301542Y-208503D01*
X313205Y-202672D02*
X312038Y-201505D01*
X309706D01*
X308539Y-202672D01*
Y-207337D01*
X309706Y-208503D01*
X312038D01*
X313205Y-207337D01*
Y-205004D01*
X310872D01*
X320202Y-208503D02*
X315537D01*
X320202Y-203838D01*
Y-202672D01*
X319036Y-201505D01*
X316704D01*
X315537Y-202672D01*
X327200Y-208503D02*
X322535D01*
X327200Y-203838D01*
Y-202672D01*
X326034Y-201505D01*
X323701D01*
X322535Y-202672D01*
X336530Y-201505D02*
Y-208503D01*
X341196D01*
X344694D02*
X347027D01*
X348193Y-207337D01*
Y-205004D01*
X347027Y-203838D01*
X344694D01*
X343528Y-205004D01*
Y-207337D01*
X344694Y-208503D01*
X350526Y-203838D02*
Y-207337D01*
X351692Y-208503D01*
X352858Y-207337D01*
X354025Y-208503D01*
X355191Y-207337D01*
Y-203838D01*
X369186Y-202672D02*
X368020Y-201505D01*
X365688D01*
X364521Y-202672D01*
Y-207337D01*
X365688Y-208503D01*
X368020D01*
X369186Y-207337D01*
X372685Y-208503D02*
X375018D01*
X376184Y-207337D01*
Y-205004D01*
X375018Y-203838D01*
X372685D01*
X371519Y-205004D01*
Y-207337D01*
X372685Y-208503D01*
X378517D02*
X382016D01*
X383182Y-207337D01*
X382016Y-206170D01*
X379683D01*
X378517Y-205004D01*
X379683Y-203838D01*
X383182D01*
X386681Y-202672D02*
Y-203838D01*
X385515D01*
X387847D01*
X386681D01*
Y-207337D01*
X387847Y-208503D01*
X398344D02*
Y-201505D01*
X401843D01*
X403009Y-202672D01*
Y-205004D01*
X401843Y-206170D01*
X398344D01*
X400676D02*
X403009Y-208503D01*
X408840D02*
X406508D01*
X405341Y-207337D01*
Y-205004D01*
X406508Y-203838D01*
X408840D01*
X410007Y-205004D01*
Y-206170D01*
X405341D01*
X413506Y-208503D02*
Y-202672D01*
Y-205004D01*
X412339D01*
X414672D01*
X413506D01*
Y-202672D01*
X414672Y-201505D01*
X421670Y-208503D02*
X419337D01*
X418171Y-207337D01*
Y-205004D01*
X419337Y-203838D01*
X421670D01*
X422836Y-205004D01*
Y-206170D01*
X418171D01*
X425168Y-203838D02*
Y-208503D01*
Y-206170D01*
X426335Y-205004D01*
X427501Y-203838D01*
X428667D01*
X435665Y-208503D02*
X433332D01*
X432166Y-207337D01*
Y-205004D01*
X433332Y-203838D01*
X435665D01*
X436831Y-205004D01*
Y-206170D01*
X432166D01*
X439164Y-208503D02*
Y-203838D01*
X442663D01*
X443829Y-205004D01*
Y-208503D01*
X450827Y-203838D02*
X447328D01*
X446162Y-205004D01*
Y-207337D01*
X447328Y-208503D01*
X450827D01*
X456658D02*
X454326D01*
X453159Y-207337D01*
Y-205004D01*
X454326Y-203838D01*
X456658D01*
X457825Y-205004D01*
Y-206170D01*
X453159D01*
X467155Y-201505D02*
Y-208503D01*
X470654D01*
X471820Y-207337D01*
Y-202672D01*
X470654Y-201505D01*
X467155D01*
X477652Y-208503D02*
X475319D01*
X474153Y-207337D01*
Y-205004D01*
X475319Y-203838D01*
X477652D01*
X478818Y-205004D01*
Y-206170D01*
X474153D01*
X481150Y-208503D02*
X484649D01*
X485815Y-207337D01*
X484649Y-206170D01*
X482317D01*
X481150Y-205004D01*
X482317Y-203838D01*
X485815D01*
X488148Y-208503D02*
X490481D01*
X489314D01*
Y-203838D01*
X488148D01*
X496312Y-210836D02*
X497478D01*
X498645Y-209669D01*
Y-203838D01*
X495146D01*
X493980Y-205004D01*
Y-207337D01*
X495146Y-208503D01*
X498645D01*
X500977D02*
Y-203838D01*
X504476D01*
X505643Y-205004D01*
Y-208503D01*
D18*
X59456Y87321D02*
D03*
X57356D02*
D03*
X59421Y80232D02*
D03*
X61521D02*
D03*
X46923Y64442D02*
D03*
X44823D02*
D03*
X62368Y43887D02*
D03*
X60268D02*
D03*
X66032Y56705D02*
D03*
X63932D02*
D03*
X51529Y102840D02*
D03*
X49429D02*
D03*
X57327Y51806D02*
D03*
X55227D02*
D03*
X61562Y93980D02*
D03*
X59462D02*
D03*
D19*
X118746Y17149D02*
D03*
Y23449D02*
D03*
D20*
X81059Y71077D02*
D03*
X80887Y66681D02*
D03*
X35855Y78790D02*
D03*
X68627Y46937D02*
D03*
X80445Y62333D02*
D03*
X43335Y75247D02*
D03*
X37036Y71999D02*
D03*
X47214Y77380D02*
D03*
X40186Y78396D02*
D03*
X76033Y63573D02*
D03*
D21*
X43398Y102914D02*
D03*
D22*
X48845Y55478D02*
D03*
X43333D02*
D03*
X64300Y52904D02*
D03*
X69812D02*
D03*
D23*
X54919Y49259D02*
D03*
Y47159D02*
D03*
X57281Y56136D02*
D03*
Y58236D02*
D03*
X52681Y55568D02*
D03*
Y57668D02*
D03*
X56151Y82334D02*
D03*
Y84434D02*
D03*
X46989Y102830D02*
D03*
Y104930D02*
D03*
X59461Y96081D02*
D03*
Y93981D02*
D03*
X53974Y104940D02*
D03*
Y102840D02*
D03*
X59431Y85065D02*
D03*
Y82965D02*
D03*
X53921Y84447D02*
D03*
Y82347D02*
D03*
X59464Y91704D02*
D03*
Y89604D02*
D03*
X65271Y81900D02*
D03*
Y79800D02*
D03*
X59871Y56119D02*
D03*
Y58219D02*
D03*
X64326Y44130D02*
D03*
Y42030D02*
D03*
X57336Y51798D02*
D03*
Y49698D02*
D03*
X49086Y51988D02*
D03*
Y49888D02*
D03*
X64300Y47491D02*
D03*
Y49591D02*
D03*
X67361Y81972D02*
D03*
Y84072D02*
D03*
D24*
X60293Y47889D02*
D03*
Y51433D02*
D03*
D25*
X53024Y9688D02*
D03*
X48024D02*
D03*
X43024D02*
D03*
X53024Y25712D02*
D03*
X48024D02*
D03*
X43024D02*
D03*
X38024Y9688D02*
D03*
X33024D02*
D03*
Y25712D02*
D03*
X38024D02*
D03*
D26*
X79780Y103415D02*
D03*
Y91801D02*
D03*
D27*
X73776Y97608D02*
D03*
D28*
X76209Y48081D02*
D03*
Y57924D02*
D03*
D29*
X38495Y60676D02*
D03*
X45975D02*
D03*
D30*
X72249Y72446D02*
D03*
Y78155D02*
D03*
X76777Y72446D02*
D03*
Y78155D02*
D03*
D31*
X54669Y61347D02*
D03*
X53094D02*
D03*
X57819D02*
D03*
X56244D02*
D03*
Y77095D02*
D03*
X53094D02*
D03*
X54669D02*
D03*
X60968Y61347D02*
D03*
X59394D02*
D03*
X64118D02*
D03*
X62543D02*
D03*
X59394Y77095D02*
D03*
X57819D02*
D03*
X62543D02*
D03*
X60968D02*
D03*
X64118D02*
D03*
D32*
X50732Y65284D02*
D03*
Y63709D02*
D03*
Y70008D02*
D03*
Y71583D02*
D03*
Y66859D02*
D03*
Y68434D02*
D03*
Y73158D02*
D03*
Y74733D02*
D03*
X66480Y63709D02*
D03*
Y65284D02*
D03*
Y66859D02*
D03*
Y71583D02*
D03*
Y73158D02*
D03*
Y68434D02*
D03*
Y70008D02*
D03*
Y74733D02*
D03*
D33*
X58606Y69221D02*
D03*
D34*
X33198Y65503D02*
D03*
Y59991D02*
D03*
D35*
X69902Y85567D02*
D03*
X73091D02*
D03*
X51290Y82436D02*
D03*
X48101D02*
D03*
D36*
X62427Y87619D02*
X62831D01*
X63123Y87327D01*
X66119Y56674D02*
X67786D01*
X59431Y82965D02*
X59433Y82963D01*
Y80273D02*
Y82963D01*
X59459Y96083D02*
X59461Y96081D01*
X59459Y91709D02*
X59464Y91704D01*
X59459Y93979D02*
X59461Y93981D01*
X59459Y91709D02*
Y93979D01*
X51529Y102840D02*
X51540Y102829D01*
X53939D01*
X47000Y102819D02*
X49433D01*
X46989Y102830D02*
X47000Y102819D01*
X63900Y53304D02*
Y56768D01*
Y53200D02*
Y53304D01*
D37*
X49728Y79976D02*
X50491Y79213D01*
X45073Y79976D02*
X49728D01*
X43493Y78396D02*
X45073Y79976D01*
X37716Y80965D02*
X43812D01*
X43964Y80812D02*
X50073D01*
X50872Y80013D01*
X43812Y80965D02*
X43964Y80812D01*
X40186Y78396D02*
X43493D01*
X37345Y67736D02*
X37993Y68384D01*
X37140Y67736D02*
X37345D01*
X37993Y68384D02*
X46535D01*
X36062Y69340D02*
X46711D01*
X34641Y70761D02*
X36062Y69340D01*
X46711D02*
X49170Y66881D01*
X67774Y69797D02*
X70219Y67352D01*
X80796D01*
X81250Y66898D01*
X67745Y71408D02*
X70852Y68301D01*
X78338D01*
X80165Y70128D01*
X68729Y65699D02*
X73005D01*
X74580Y64125D01*
X67496Y66933D02*
X68729Y65699D01*
X74580Y64125D02*
X76001D01*
X80076Y70614D02*
Y71077D01*
X71923Y63952D02*
X72142D01*
X67932Y64823D02*
X71052D01*
X71923Y63952D01*
X66465Y65306D02*
X67449D01*
X66465Y63731D02*
X68479D01*
X50494Y72957D02*
X50717Y73180D01*
X35855Y78790D02*
Y79104D01*
X37716Y80965D01*
X54770Y80013D02*
X56229Y78554D01*
Y77117D02*
Y78554D01*
X50872Y80013D02*
X54770D01*
X31371Y76256D02*
X33021D01*
X33435Y70761D02*
X34641D01*
X32830Y73868D02*
X33543Y74581D01*
X33021Y76256D02*
X33896Y75381D01*
X34227Y76181D02*
X38759D01*
X38428Y75381D02*
X41982Y71827D01*
X38097Y74581D02*
X41651Y71027D01*
X31783Y78625D02*
X34227Y76181D01*
X33896Y75381D02*
X38428D01*
X38759Y76181D02*
X42313Y72627D01*
X33543Y74581D02*
X38097D01*
X32440Y73868D02*
X32830D01*
X43024Y25712D02*
Y30502D01*
Y25672D02*
Y25712D01*
X42752Y26072D02*
X42868Y26188D01*
X47940Y13573D02*
X47964Y13597D01*
X46977Y70227D02*
X48749Y68455D01*
X49613Y65306D02*
X50717D01*
X47308Y71027D02*
X48305Y70030D01*
X41651Y71027D02*
X47308D01*
X42313Y72627D02*
X48787D01*
X45155Y73427D02*
X47412D01*
X43335Y75247D02*
X45155Y73427D01*
X41982Y71827D02*
X50495D01*
X46535Y68384D02*
X49613Y65306D01*
X38808Y70227D02*
X46977D01*
X37036Y71999D02*
X38808Y70227D01*
X67449Y65306D02*
X67932Y64823D01*
X66517Y66933D02*
X67496D01*
X68479Y63731D02*
X69956Y62255D01*
X66465Y66881D02*
X66517Y66933D01*
X69956Y62255D02*
X70304D01*
X47371Y77018D02*
X47469Y77117D01*
X53079D01*
X47412Y73427D02*
X48739Y74755D01*
X50717D01*
X48787Y72627D02*
X49116Y72957D01*
X50494D01*
X50495Y71827D02*
X50717Y71605D01*
X48305Y70030D02*
X50717D01*
X50491Y79213D02*
X53641D01*
X54654Y78199D01*
Y77117D02*
Y78199D01*
X48749Y68455D02*
X50717D01*
X49170Y66881D02*
X50717D01*
D38*
X80401Y103298D02*
Y105759D01*
X74044Y103298D02*
X80401D01*
X79556Y91631D02*
X85068D01*
X76652Y78446D02*
X78375Y76723D01*
X72174Y71211D02*
Y72786D01*
X69812Y50345D02*
Y52904D01*
X33198Y65503D02*
Y68059D01*
X33500Y68361D01*
X25330Y71524D02*
Y80866D01*
X27486Y83022D01*
X43994D01*
X44561Y82456D01*
X47864D01*
X73638Y85525D02*
X85102D01*
X86255Y45430D02*
Y84372D01*
X85102Y85525D02*
X86255Y84372D01*
X82337Y41513D02*
X86255Y45430D01*
X51266Y43993D02*
X54079Y46806D01*
X64763Y41513D02*
X72247D01*
X74785D02*
X82337D01*
X74781Y41516D02*
X74785Y41513D01*
X72251Y41516D02*
X74781D01*
X72247Y41513D02*
X72251Y41516D01*
X51266Y31916D02*
Y43993D01*
Y31916D02*
X53186Y29996D01*
X29537Y60062D02*
X32822D01*
X25330Y64269D02*
X29537Y60062D01*
X25330Y64269D02*
Y69052D01*
X53186Y29477D02*
Y29996D01*
X63900Y53304D02*
X64300Y52904D01*
X63891Y53313D02*
X63900Y53304D01*
X25317Y69284D02*
Y71246D01*
X72174Y71211D02*
X73158Y70227D01*
X80401Y103298D02*
X85363D01*
X79457Y88928D02*
Y91532D01*
X69812Y52904D02*
X69812Y52904D01*
X79457Y91532D02*
X79556Y91631D01*
X73749D02*
X79556D01*
D39*
X118746Y17149D02*
X123662D01*
X118746Y17068D02*
X118798D01*
X113882D02*
X118746D01*
Y17149D01*
Y13374D02*
Y17068D01*
X53126Y9547D02*
Y16255D01*
X53024Y9547D02*
X53126Y9547D01*
X51104Y9548D02*
X53024Y9547D01*
X62470Y41526D02*
X64777D01*
X53024Y24224D02*
Y25712D01*
Y24224D02*
X53481Y23767D01*
X87594D01*
X87594Y23767D02*
X118758D01*
X53126Y9547D02*
X56022Y9548D01*
X53076Y9547D02*
X53126Y9547D01*
X53076Y9547D02*
X53101Y3960D01*
D40*
X63109Y82256D02*
X65503D01*
X47344Y104998D02*
X49315D01*
X64971Y82200D02*
X65271Y81900D01*
X57186Y87893D02*
Y89107D01*
X57152Y87117D02*
X57356Y87321D01*
X57152Y85923D02*
Y87117D01*
X53940Y105008D02*
X53974Y104973D01*
X52803Y105008D02*
X53940D01*
X52206Y105605D02*
X52803Y105008D01*
X51890Y105605D02*
X52206D01*
X53974Y104973D02*
Y106910D01*
X54174Y104988D02*
X54187Y105001D01*
X55094D01*
X55667Y105574D02*
X55966D01*
X55094Y105001D02*
X55667Y105574D01*
X54174Y104964D02*
Y104988D01*
X57807Y77696D02*
Y80806D01*
X56139Y82263D02*
Y82473D01*
Y82263D02*
X56304Y82099D01*
X56514D02*
X57807Y80806D01*
X56304Y82099D02*
X56514D01*
X55662Y87321D02*
X57356D01*
X46763Y105156D02*
X46989Y104930D01*
X45184Y105156D02*
X46763D01*
D41*
X56229Y66881D02*
X60970Y71622D01*
X62543Y77117D02*
Y78649D01*
X64482Y79533D02*
X65004D01*
X64374Y79425D02*
X64482Y79533D01*
X62543Y78649D02*
X63319Y79425D01*
X65004Y79533D02*
X65271Y79800D01*
X63319Y79425D02*
X64374D01*
X60970Y71622D02*
Y76030D01*
X60968Y76032D02*
X60970Y76030D01*
X60968Y76032D02*
Y77095D01*
X67628Y82239D02*
X68122D01*
X69635Y83751D01*
Y85136D02*
X69783Y85284D01*
X69635Y83751D02*
Y85136D01*
X57804Y58804D02*
Y61369D01*
X65747Y79771D02*
X66804Y80828D01*
Y81415D02*
X67361Y81972D01*
X66804Y80828D02*
Y81415D01*
X52519Y57746D02*
X53618Y58845D01*
Y58854D01*
X54654Y59890D01*
Y61369D01*
X60953Y59715D02*
X63900Y56768D01*
X47303Y64288D02*
X47860Y63731D01*
X50717D01*
X60953Y59715D02*
Y61369D01*
X57321Y58321D02*
X57804Y58804D01*
X60953Y61369D02*
X60953Y61369D01*
X56229D02*
Y66881D01*
D42*
X29858Y65439D02*
X33695D01*
X33198Y65503D02*
X37035D01*
D43*
X52664Y53596D02*
Y55488D01*
X54275Y82318D02*
X56004D01*
X51290Y82436D02*
X51362Y82364D01*
X54201D02*
X54215Y82378D01*
X51362Y82364D02*
X54201D01*
X54215Y82378D02*
X54275Y82318D01*
X59464Y89604D02*
X59474Y89594D01*
X64300Y47491D02*
X64340Y47451D01*
X66567Y47422D02*
X68142D01*
X64340Y47451D02*
X66538D01*
X66567Y47422D01*
X68142D02*
X68627Y46937D01*
X64300Y44781D02*
Y47491D01*
X37670Y59445D02*
X37835Y59610D01*
X55223Y58006D02*
X55425Y58208D01*
X57281Y54800D02*
Y56136D01*
Y54800D02*
X57563Y54518D01*
Y54365D02*
Y54518D01*
X64763Y41513D02*
X64777Y41526D01*
X55571Y58237D02*
X57016D01*
X55435Y58101D02*
X55571Y58237D01*
X55223Y53562D02*
Y58006D01*
Y53562D02*
X55237Y53548D01*
Y52326D02*
Y53548D01*
X60564Y52037D02*
X60565D01*
X57310D02*
X60564D01*
X60565D02*
X60578Y52050D01*
X60155Y51456D02*
X60218Y51393D01*
X59871Y54479D02*
Y56119D01*
X64300Y49853D02*
Y52904D01*
D44*
X57874Y102778D02*
X59451Y101201D01*
Y97994D02*
Y101201D01*
X55628Y102778D02*
X57874D01*
X67320Y97625D02*
X69719D01*
X63675Y93980D02*
X67320Y97625D01*
X62931Y93980D02*
X63675D01*
D45*
X42627Y56139D02*
Y58724D01*
X39454Y60717D02*
X41227D01*
X39384Y60787D02*
X39454Y60717D01*
X37856Y59259D02*
X39384Y60787D01*
X37670Y59445D02*
X37856Y59259D01*
X43225Y52534D02*
Y55119D01*
X43294Y55188D01*
X40593D02*
X43294D01*
X40354Y55142D02*
X40639D01*
X40593Y55188D02*
X40639Y55142D01*
D46*
X43109Y59131D02*
X43333Y58907D01*
X37035Y65503D02*
X37083Y65551D01*
X64305Y77808D02*
X65576D01*
X66222Y78454D01*
X66239D01*
X71003Y83218D02*
X73510D01*
X66239Y78454D02*
X71003Y83218D01*
X64118Y77095D02*
Y77622D01*
X64305Y77808D01*
X61235Y80132D02*
X61426Y80323D01*
X63107Y81242D02*
X63186D01*
X63016Y81333D02*
X63107Y81242D01*
X62474Y80253D02*
Y80268D01*
X61459Y80261D02*
X61467Y80253D01*
X59410Y87315D02*
X59475Y87250D01*
X59459Y87327D02*
X59461Y87330D01*
X72961Y49558D02*
Y54479D01*
X71937Y55503D02*
X72961Y54479D01*
X64187Y43990D02*
X64326Y44130D01*
X62711Y43912D02*
X62789Y43990D01*
X73510Y83218D02*
X73571Y83157D01*
X54465Y46705D02*
X54919Y47159D01*
X53997Y46705D02*
X54465D01*
X53797Y46505D02*
X53997Y46705D01*
X123662Y17149D02*
X123746Y17065D01*
X118601Y13229D02*
X118746Y13374D01*
X87384Y23977D02*
X87594Y23767D01*
X64011Y58705D02*
X70553D01*
X71937Y57321D01*
Y55503D02*
Y57321D01*
X62528Y60188D02*
X64011Y58705D01*
X62528Y60188D02*
Y61369D01*
X64792Y59597D02*
X73257D01*
X64103Y60286D02*
X64792Y59597D01*
X64103Y60286D02*
Y61369D01*
D47*
X60971Y77883D02*
Y78847D01*
X61235Y79111D02*
Y80132D01*
X60971Y78847D02*
X61235Y79111D01*
D48*
X69503Y66500D02*
X76813D01*
X80305Y63008D01*
X67770Y68233D02*
X69503Y66500D01*
X66465Y68455D02*
X66688Y68233D01*
X67770D01*
D49*
X59437Y87305D02*
X59459Y87327D01*
X59431Y85065D02*
X59437Y85071D01*
Y87305D01*
X59461Y87330D02*
Y89495D01*
X33556Y19129D02*
Y25140D01*
X49079Y52052D02*
Y55401D01*
X69719Y97625D02*
X70014Y97920D01*
D50*
X49101Y49644D02*
X57227D01*
X57327Y45673D02*
Y49519D01*
Y45673D02*
X59149Y43851D01*
X60150D01*
X53605Y29963D02*
X53639Y29997D01*
D51*
X30555Y10280D02*
X32502D01*
X42954Y9758D02*
X43024Y9688D01*
X42954Y9758D02*
Y16366D01*
X42885Y16436D02*
X42954Y16366D01*
X37896Y9816D02*
Y16343D01*
Y9816D02*
X38024Y9688D01*
X37769Y16471D02*
X37896Y16343D01*
X37920Y27398D02*
X37937Y27381D01*
X37920Y27398D02*
Y32197D01*
X37815Y32301D02*
X37920Y32197D01*
X80769Y19270D02*
X80782Y19283D01*
X49959Y19270D02*
X80769D01*
X48931Y20298D02*
X49959Y19270D01*
X48024Y25712D02*
X48931Y24805D01*
Y20298D02*
Y24805D01*
X47921Y13712D02*
Y16125D01*
Y13712D02*
X48000Y13633D01*
X42830Y26226D02*
X42868Y26188D01*
X42830Y26226D02*
Y32549D01*
X47964Y13597D02*
X48000Y13633D01*
D52*
X33198Y59991D02*
X38316D01*
D53*
X68375Y73318D02*
X70030Y74973D01*
X70446D01*
X70484Y75011D01*
X76655Y72786D02*
X76701D01*
X75423Y74018D02*
X76655Y72786D01*
X74476Y75011D02*
X75423Y74064D01*
Y74018D02*
Y74064D01*
X70484Y75011D02*
X74476D01*
X69998Y76735D02*
X72087D01*
X68054Y74922D02*
X68185D01*
X68155Y74892D02*
X68185Y74922D01*
X69998Y76735D01*
X66603Y73318D02*
X68375D01*
X66603Y74892D02*
X68155D01*
X66465Y74755D02*
X66603Y74892D01*
X66465Y73180D02*
X66603Y73318D01*
D54*
X48499Y55777D02*
X50468Y57746D01*
X52519D01*
X47741Y55777D02*
X48499D01*
D55*
X60396Y46125D02*
Y47596D01*
X60274Y47718D02*
X60396Y47596D01*
D56*
X60564Y52037D02*
X61678Y53151D01*
X60123Y58613D02*
X61688Y57048D01*
Y53726D02*
Y57048D01*
X61678Y53151D02*
Y53716D01*
X61688Y53726D01*
X59902Y58613D02*
X60123D01*
X59394Y59121D02*
X59902Y58613D01*
X59394Y59121D02*
Y61347D01*
D57*
X9198Y87788D02*
D03*
Y83851D02*
D03*
Y91726D02*
D03*
Y95664D02*
D03*
X21012D02*
D03*
X28887D02*
D03*
X24949D02*
D03*
X17074D02*
D03*
X13136D02*
D03*
X32825D02*
D03*
X40701D02*
D03*
X36763D02*
D03*
X43398Y98360D02*
D03*
Y107964D02*
D03*
Y109964D02*
D03*
X47336Y114864D02*
D03*
X43398D02*
D03*
X55212D02*
D03*
X51274D02*
D03*
X59149D02*
D03*
X63087D02*
D03*
X62427Y87619D02*
D03*
X27803Y39219D02*
D03*
X80647Y16259D02*
D03*
X28948Y92475D02*
D03*
X48340Y36173D02*
D03*
X48619Y44279D02*
D03*
X65216Y104332D02*
D03*
X66518Y100500D02*
D03*
X60676Y104270D02*
D03*
X62506Y100743D02*
D03*
X62329Y97127D02*
D03*
X44958Y105741D02*
D03*
X49112Y105597D02*
D03*
X51890Y105605D02*
D03*
X55966Y105574D02*
D03*
X20910Y39127D02*
D03*
X136934Y111767D02*
D03*
Y102767D02*
D03*
Y93767D02*
D03*
Y84767D02*
D03*
Y75767D02*
D03*
Y66767D02*
D03*
Y57767D02*
D03*
Y48767D02*
D03*
Y21767D02*
D03*
Y12767D02*
D03*
X132434Y111767D02*
D03*
X134684Y107267D02*
D03*
X132434Y102767D02*
D03*
X134684Y98267D02*
D03*
X132434Y93767D02*
D03*
X134684Y89267D02*
D03*
X132434Y84767D02*
D03*
X134684Y80267D02*
D03*
X132434Y75767D02*
D03*
X134684Y71267D02*
D03*
X132434Y66767D02*
D03*
X134684Y62267D02*
D03*
X132434Y57767D02*
D03*
X134684Y53267D02*
D03*
X132434Y48767D02*
D03*
X134684Y44267D02*
D03*
X132434Y21767D02*
D03*
X134684Y17267D02*
D03*
X132434Y12767D02*
D03*
X134684Y8267D02*
D03*
X127934Y111767D02*
D03*
X130184Y107267D02*
D03*
X127934Y102767D02*
D03*
X130184Y98267D02*
D03*
X127934Y93767D02*
D03*
X130184Y89267D02*
D03*
X127934Y84767D02*
D03*
X130184Y80267D02*
D03*
X127934Y75767D02*
D03*
X130184Y71267D02*
D03*
X127934Y66767D02*
D03*
X130184Y62267D02*
D03*
X127934Y57767D02*
D03*
X130184Y53267D02*
D03*
X127934Y48767D02*
D03*
X130184Y44267D02*
D03*
X127934Y21767D02*
D03*
X130184Y17267D02*
D03*
X127934Y12767D02*
D03*
X130184Y8267D02*
D03*
X123434Y111767D02*
D03*
X125684Y107267D02*
D03*
X123434Y102767D02*
D03*
X125684Y98267D02*
D03*
X123434Y93767D02*
D03*
X125684Y89267D02*
D03*
X123434Y84767D02*
D03*
X125684Y80267D02*
D03*
X123434Y75767D02*
D03*
X125684Y71267D02*
D03*
X123434Y66767D02*
D03*
X125684Y62267D02*
D03*
X123434Y57767D02*
D03*
X125684Y53267D02*
D03*
X123434Y48767D02*
D03*
X125684Y44267D02*
D03*
X123434Y39767D02*
D03*
Y21767D02*
D03*
Y12767D02*
D03*
X125684Y8267D02*
D03*
X118934Y111767D02*
D03*
X121184Y107267D02*
D03*
X118934Y102767D02*
D03*
X121184Y98267D02*
D03*
X118934Y93767D02*
D03*
X121184Y89267D02*
D03*
X118934Y84767D02*
D03*
X121184Y80267D02*
D03*
X118934Y75767D02*
D03*
X121184Y71267D02*
D03*
X118934Y66767D02*
D03*
X121184Y62267D02*
D03*
X118934Y57767D02*
D03*
X121184Y53267D02*
D03*
X118934Y48767D02*
D03*
X121184Y44267D02*
D03*
X118934Y39767D02*
D03*
X121184Y35267D02*
D03*
Y8267D02*
D03*
X114434Y111767D02*
D03*
X116684Y107267D02*
D03*
X114434Y102767D02*
D03*
X116684Y98267D02*
D03*
X114434Y93767D02*
D03*
X116684Y89267D02*
D03*
X114434Y84767D02*
D03*
X116684Y80267D02*
D03*
X114434Y75767D02*
D03*
X116684Y71267D02*
D03*
X114434Y66767D02*
D03*
X116684Y62267D02*
D03*
X114434Y57767D02*
D03*
X116684Y53267D02*
D03*
X114434Y48767D02*
D03*
X116684Y44267D02*
D03*
X114434Y39767D02*
D03*
X116684Y35267D02*
D03*
X114434Y12767D02*
D03*
X116684Y8267D02*
D03*
X109934Y111767D02*
D03*
X112184Y107267D02*
D03*
X109934Y102767D02*
D03*
X112184Y98267D02*
D03*
X109934Y93767D02*
D03*
X112184Y89267D02*
D03*
X109934Y84767D02*
D03*
X112184Y80267D02*
D03*
X109934Y75767D02*
D03*
X112184Y71267D02*
D03*
X109934Y66767D02*
D03*
X112184Y62267D02*
D03*
X109934Y57767D02*
D03*
X112184Y53267D02*
D03*
X109934Y48767D02*
D03*
X112184Y44267D02*
D03*
X109934Y39767D02*
D03*
X112184Y35267D02*
D03*
X109934Y30767D02*
D03*
Y12767D02*
D03*
X112184Y8267D02*
D03*
X105434Y111767D02*
D03*
X107684Y107267D02*
D03*
X105434Y102767D02*
D03*
X107684Y98267D02*
D03*
X105434Y93767D02*
D03*
X107684Y89267D02*
D03*
X105434Y84767D02*
D03*
X107684Y80267D02*
D03*
X105434Y75767D02*
D03*
X107684Y71267D02*
D03*
X105434Y66767D02*
D03*
X107684Y62267D02*
D03*
X105434Y57767D02*
D03*
X107684Y53267D02*
D03*
X105434Y48767D02*
D03*
X107684Y44267D02*
D03*
X105434Y39767D02*
D03*
X107684Y35267D02*
D03*
X105434Y30767D02*
D03*
X107684Y17267D02*
D03*
X105434Y12767D02*
D03*
X107684Y8267D02*
D03*
X100934Y111767D02*
D03*
X103184Y107267D02*
D03*
X100934Y102767D02*
D03*
X103184Y98267D02*
D03*
X100934Y93767D02*
D03*
X103184Y89267D02*
D03*
X100934Y84767D02*
D03*
X103184Y80267D02*
D03*
X100934Y75767D02*
D03*
X103184Y71267D02*
D03*
X100934Y66767D02*
D03*
X103184Y62267D02*
D03*
X100934Y57767D02*
D03*
X103184Y53267D02*
D03*
X100934Y48767D02*
D03*
X103184Y44267D02*
D03*
X100934Y39767D02*
D03*
X103184Y35267D02*
D03*
X100934Y30767D02*
D03*
X103184Y17267D02*
D03*
X100934Y12767D02*
D03*
X103184Y8267D02*
D03*
X96434Y111767D02*
D03*
X98684Y107267D02*
D03*
X96434Y102767D02*
D03*
X98684Y98267D02*
D03*
X96434Y93767D02*
D03*
X98684Y89267D02*
D03*
X96434Y84767D02*
D03*
X98684Y80267D02*
D03*
X96434Y75767D02*
D03*
X98684Y71267D02*
D03*
X96434Y66767D02*
D03*
X98684Y62267D02*
D03*
X96434Y57767D02*
D03*
X98684Y53267D02*
D03*
X96434Y48767D02*
D03*
X98684Y44267D02*
D03*
X96434Y39767D02*
D03*
X98684Y35267D02*
D03*
X96434Y30767D02*
D03*
X98684Y17267D02*
D03*
X96434Y12767D02*
D03*
X98684Y8267D02*
D03*
X91934Y111767D02*
D03*
X94184Y107267D02*
D03*
X91934Y102767D02*
D03*
X94184Y98267D02*
D03*
X91934Y93767D02*
D03*
X94184Y89267D02*
D03*
Y80267D02*
D03*
X91934Y75767D02*
D03*
X94184Y71267D02*
D03*
X91934Y66767D02*
D03*
X94184Y62267D02*
D03*
X91934Y57767D02*
D03*
X94184Y53267D02*
D03*
X91934Y48767D02*
D03*
X94184Y44267D02*
D03*
X91934Y39767D02*
D03*
X94184Y35267D02*
D03*
X91934Y30767D02*
D03*
X94184Y17267D02*
D03*
X91934Y12767D02*
D03*
X94184Y8267D02*
D03*
X87434Y111767D02*
D03*
Y39767D02*
D03*
Y12767D02*
D03*
X82934Y111767D02*
D03*
X85184Y17267D02*
D03*
X82934Y12767D02*
D03*
X85184Y8267D02*
D03*
X78434Y111767D02*
D03*
Y30767D02*
D03*
Y12767D02*
D03*
X80684Y8267D02*
D03*
X73934Y111767D02*
D03*
Y102767D02*
D03*
X76184Y17267D02*
D03*
Y8267D02*
D03*
X69434Y111767D02*
D03*
X71684Y107267D02*
D03*
X69434Y102767D02*
D03*
Y30767D02*
D03*
X71684Y8267D02*
D03*
X64934Y111767D02*
D03*
X67184Y107267D02*
D03*
X64934Y30767D02*
D03*
X67184Y17267D02*
D03*
Y8267D02*
D03*
X60434Y111767D02*
D03*
X62684Y107267D02*
D03*
X60434Y30767D02*
D03*
X62684Y17267D02*
D03*
Y8267D02*
D03*
X55934Y111767D02*
D03*
Y39767D02*
D03*
X58184Y17267D02*
D03*
Y8267D02*
D03*
X51434Y111767D02*
D03*
Y93767D02*
D03*
X53684Y89267D02*
D03*
Y17267D02*
D03*
X46934Y111767D02*
D03*
Y93767D02*
D03*
X49184Y89267D02*
D03*
X46934Y48767D02*
D03*
Y39767D02*
D03*
X44684Y89267D02*
D03*
X42434Y48767D02*
D03*
X44684Y44267D02*
D03*
X42434Y39767D02*
D03*
X37934Y93767D02*
D03*
X40184Y89267D02*
D03*
Y44267D02*
D03*
X35684Y89267D02*
D03*
X31184D02*
D03*
X28934Y30767D02*
D03*
Y21767D02*
D03*
X31184Y17267D02*
D03*
X28934Y12767D02*
D03*
X26684Y89267D02*
D03*
X24434Y57767D02*
D03*
Y48767D02*
D03*
X26684Y35267D02*
D03*
Y26267D02*
D03*
X24434Y21767D02*
D03*
X26684Y17267D02*
D03*
X24434Y12767D02*
D03*
X26684Y8267D02*
D03*
X22184Y89267D02*
D03*
X19934Y84767D02*
D03*
Y57767D02*
D03*
X22184Y53267D02*
D03*
X19934Y48767D02*
D03*
X22184Y44267D02*
D03*
X19934Y21767D02*
D03*
X22184Y17267D02*
D03*
X19934Y12767D02*
D03*
X22184Y8267D02*
D03*
X17684Y89267D02*
D03*
X15434Y84767D02*
D03*
X17684Y80267D02*
D03*
X15434Y75767D02*
D03*
Y66767D02*
D03*
Y57767D02*
D03*
X17684Y53267D02*
D03*
X15434Y48767D02*
D03*
X17684Y44267D02*
D03*
X15434Y21767D02*
D03*
X17684Y17267D02*
D03*
X15434Y12767D02*
D03*
X17684Y8267D02*
D03*
X13184Y89267D02*
D03*
Y80267D02*
D03*
Y71267D02*
D03*
Y62267D02*
D03*
Y53267D02*
D03*
Y44267D02*
D03*
Y17267D02*
D03*
Y8267D02*
D03*
X62406Y91181D02*
D03*
X71605Y14046D02*
D03*
X77645Y21318D02*
D03*
X56601Y21380D02*
D03*
X60795Y21329D02*
D03*
X65259D02*
D03*
X69745D02*
D03*
X77917Y26522D02*
D03*
X70154D02*
D03*
X65668D02*
D03*
X61204D02*
D03*
X57010Y26573D02*
D03*
X49234Y97150D02*
D03*
X46478Y100172D02*
D03*
X114591Y17117D02*
D03*
X113269Y20820D02*
D03*
X57677Y108359D02*
D03*
X20876Y25115D02*
D03*
X18731Y29260D02*
D03*
X13700Y24972D02*
D03*
X12984Y29489D02*
D03*
X18760Y33778D02*
D03*
X13528Y34779D02*
D03*
X13156Y39639D02*
D03*
X135806Y26914D02*
D03*
X131632Y29821D02*
D03*
X134353Y33687D02*
D03*
X129024Y34134D02*
D03*
X133198Y38681D02*
D03*
X128055Y38830D02*
D03*
X127570Y27734D02*
D03*
X37140Y67736D02*
D03*
X41227Y60717D02*
D03*
X46972Y106720D02*
D03*
X33500Y68361D02*
D03*
X66810Y76572D02*
D03*
X63186Y81242D02*
D03*
X72142Y63952D02*
D03*
X49065Y85054D02*
D03*
X52336Y86068D02*
D03*
X55420Y86571D02*
D03*
X66430Y88877D02*
D03*
X62388Y84844D02*
D03*
X69013Y50469D02*
D03*
X8873Y43604D02*
D03*
X34037Y45870D02*
D03*
X34009Y50189D02*
D03*
X33980Y54252D02*
D03*
X79703Y38064D02*
D03*
X75703Y37667D02*
D03*
X55457Y43253D02*
D03*
X65320Y37954D02*
D03*
X59921Y38704D02*
D03*
X69780Y37964D02*
D03*
X70659Y44111D02*
D03*
X8674Y29670D02*
D03*
X8661Y34435D02*
D03*
X76034Y44193D02*
D03*
X66588Y44046D02*
D03*
X27786Y77602D02*
D03*
X37888Y64089D02*
D03*
X39864Y66580D02*
D03*
X44894Y66756D02*
D03*
X42746Y64579D02*
D03*
X85179Y26485D02*
D03*
X107415Y26475D02*
D03*
X111879D02*
D03*
X104383Y21040D02*
D03*
X108846D02*
D03*
X86300Y20999D02*
D03*
X90764D02*
D03*
X99714D02*
D03*
X95250D02*
D03*
X89373Y26434D02*
D03*
X93837D02*
D03*
X102787D02*
D03*
X98323D02*
D03*
X45634Y85715D02*
D03*
X56256Y99770D02*
D03*
X84992Y107689D02*
D03*
X80720Y107299D02*
D03*
X75518Y107540D02*
D03*
X67179Y114707D02*
D03*
X71206Y114681D02*
D03*
X17815Y2426D02*
D03*
X13271D02*
D03*
X114306Y2446D02*
D03*
X119750Y2504D02*
D03*
X124214D02*
D03*
X128700D02*
D03*
X133942Y2518D02*
D03*
X91170Y5171D02*
D03*
X14435Y92232D02*
D03*
X130187Y114810D02*
D03*
X125688Y114944D02*
D03*
X134761Y114879D02*
D03*
X139381Y114803D02*
D03*
X121252Y114783D02*
D03*
X116632Y114859D02*
D03*
X107559Y114924D02*
D03*
X112058Y114790D02*
D03*
X57235Y12059D02*
D03*
X75103Y34000D02*
D03*
Y54282D02*
D03*
X76562Y51685D02*
D03*
X78060Y54414D02*
D03*
X79308Y34375D02*
D03*
X33509Y19110D02*
D03*
X62504Y12123D02*
D03*
X67186D02*
D03*
X70487Y62256D02*
D03*
X42885Y16436D02*
D03*
X37769Y16471D02*
D03*
X27700Y65352D02*
D03*
X27740Y73508D02*
D03*
X27763Y69666D02*
D03*
X27671Y44051D02*
D03*
X31371Y76256D02*
D03*
X27475Y49025D02*
D03*
X27335Y58525D02*
D03*
X27323Y53920D02*
D03*
X37815Y32301D02*
D03*
X32740Y33932D02*
D03*
X33435Y70761D02*
D03*
X32440Y73868D02*
D03*
X22961Y74951D02*
D03*
X31783Y78625D02*
D03*
X73571Y83157D02*
D03*
X83630Y83157D02*
D03*
X69142Y78779D02*
D03*
X118653Y14133D02*
D03*
X123109Y17270D02*
D03*
X8702Y24824D02*
D03*
X8729Y38655D02*
D03*
X53993Y106989D02*
D03*
X51493Y100116D02*
D03*
X83796Y51110D02*
D03*
X83772Y75203D02*
D03*
X83751Y47203D02*
D03*
X83863Y58515D02*
D03*
X83751Y54609D02*
D03*
X79913Y79157D02*
D03*
X80782Y19283D02*
D03*
X67420Y85449D02*
D03*
X9101Y16113D02*
D03*
Y11613D02*
D03*
Y2629D02*
D03*
Y7113D02*
D03*
X139479Y6981D02*
D03*
Y2497D02*
D03*
X108341Y2372D02*
D03*
X139443Y16658D02*
D03*
Y12158D02*
D03*
Y21158D02*
D03*
Y25658D02*
D03*
Y61658D02*
D03*
Y70658D02*
D03*
Y79658D02*
D03*
Y75158D02*
D03*
Y66158D02*
D03*
Y57158D02*
D03*
X57563Y54365D02*
D03*
X52539Y53628D02*
D03*
X62413Y41551D02*
D03*
X55435Y58101D02*
D03*
X43225Y52534D02*
D03*
X40354Y55142D02*
D03*
X60396Y46125D02*
D03*
X58932Y32969D02*
D03*
X59871Y54479D02*
D03*
X65395Y83662D02*
D03*
X41695Y92464D02*
D03*
X33031Y92223D02*
D03*
X24449Y91963D02*
D03*
X19132Y91721D02*
D03*
X56524Y94487D02*
D03*
X56441Y89578D02*
D03*
X19138Y5174D02*
D03*
X102898Y114924D02*
D03*
X98302Y114778D02*
D03*
X93641D02*
D03*
X84674Y114742D02*
D03*
X89335D02*
D03*
X22483Y80788D02*
D03*
X18854Y63320D02*
D03*
X18922Y67720D02*
D03*
X18785Y72645D02*
D03*
X70210Y34000D02*
D03*
X103099Y2358D02*
D03*
X98613D02*
D03*
X94149D02*
D03*
X116911Y29941D02*
D03*
X119632Y30066D02*
D03*
X121086Y27511D02*
D03*
X118448Y27409D02*
D03*
X115560Y27407D02*
D03*
X30555Y10280D02*
D03*
X22832Y63215D02*
D03*
X67652Y56705D02*
D03*
X88705Y2300D02*
D03*
X51816D02*
D03*
X47921Y16125D02*
D03*
X139443Y43658D02*
D03*
X139509Y39134D02*
D03*
X139443Y34658D02*
D03*
Y30158D02*
D03*
Y52658D02*
D03*
Y48158D02*
D03*
Y89185D02*
D03*
Y84685D02*
D03*
Y102685D02*
D03*
Y107185D02*
D03*
Y98185D02*
D03*
Y93685D02*
D03*
X42830Y32549D02*
D03*
X22921Y71041D02*
D03*
X22961Y67076D02*
D03*
X29607Y80589D02*
D03*
X30144Y85483D02*
D03*
X26041Y85019D02*
D03*
X37043Y2300D02*
D03*
X46746D02*
D03*
X32132D02*
D03*
X9101Y20613D02*
D03*
X88705Y98044D02*
D03*
X89302Y107095D02*
D03*
X89639Y84486D02*
D03*
X88705Y89044D02*
D03*
X85458Y88728D02*
D03*
X88705Y48017D02*
D03*
Y61517D02*
D03*
Y57017D02*
D03*
Y75017D02*
D03*
X88991Y79640D02*
D03*
X88705Y70517D02*
D03*
Y66017D02*
D03*
Y52517D02*
D03*
X88822Y7886D02*
D03*
X88705Y16517D02*
D03*
X86154Y30162D02*
D03*
X88705Y34517D02*
D03*
X88253Y43718D02*
D03*
X9101Y79113D02*
D03*
Y74613D02*
D03*
Y70113D02*
D03*
Y65613D02*
D03*
Y61113D02*
D03*
Y56613D02*
D03*
Y52113D02*
D03*
Y47613D02*
D03*
X41794Y2300D02*
D03*
X22845D02*
D03*
X27389D02*
D03*
X65719D02*
D03*
X70183D02*
D03*
X61233D02*
D03*
X56769D02*
D03*
X75141D02*
D03*
X79605D02*
D03*
X84091D02*
D03*
X80136Y114716D02*
D03*
X75152Y114743D02*
D03*
X73158Y70227D02*
D03*
X69342Y90583D02*
D03*
X78375Y76723D02*
D03*
X80101Y74467D02*
D03*
X54669Y65284D02*
D03*
Y73158D02*
D03*
Y69221D02*
D03*
X58606Y65284D02*
D03*
X62543D02*
D03*
X58606Y69221D02*
D03*
Y73158D02*
D03*
X62543Y69221D02*
D03*
Y73158D02*
D03*
X79457Y88928D02*
D03*
X66230Y92215D02*
D03*
X72961Y88928D02*
D03*
X85757Y103298D02*
D03*
X84322Y35274D02*
D03*
X73650Y91684D02*
D03*
X68467Y94751D02*
D03*
X86150Y99559D02*
D03*
Y95621D02*
D03*
X85560Y91684D02*
D03*
X84083Y39814D02*
D03*
X46589Y32598D02*
D03*
X62335Y34000D02*
D03*
X66272D02*
D03*
X34082Y85483D02*
D03*
X38020D02*
D03*
X41957D02*
D03*
X18867Y77160D02*
D03*
M02*
