M48
;Layer_Color=9474304
;FILE_FORMAT=2:5
INCH,LZ
;TYPE=PLATED
T1F00S00C0.00984
%
T01
X0009101Y0002629
X0013271Y0002426
X0013184Y0008267
X0009101Y0007113
Y0011613
Y0016113
Y0020613
X0008702Y0024824
X0008674Y002967
X0012984Y0029489
X00137Y0024972
X0015434Y0021767
X0013184Y0017267
X0015434Y0012767
X0013528Y0034779
X0008661Y0034435
X0008729Y0038655
X0008873Y0043604
X0009101Y0047613
Y0052113
Y0056613
Y0061113
Y0065613
Y0070113
Y0074613
Y0079113
X0009198Y0083851
Y0087788
Y0091726
Y0095664
X0013136
X0014435Y0092232
X0013184Y0089267
X0015434Y0084767
X0013184Y0080267
X0015434Y0075767
X0013184Y0071267
X0015434Y0066767
X0013184Y0062267
X0015434Y0057767
X0013184Y0053267
X0015434Y0048767
X0013184Y0044267
X0013156Y0039639
X002091Y0039127
X0022184Y0044267
X0017684
X0019934Y0048767
X0024434
X0027475Y0049025
X0027323Y005392
X0027335Y0058525
X0024434Y0057767
X0019934
X0018854Y006332
X0022832Y0063215
X0022961Y0067076
X0022921Y0071041
X0022961Y0074951
X002774Y0073508
X0027763Y0069666
X00277Y0065352
X00335Y0068361
X0033435Y0070761
X003244Y0073868
X0031371Y0076256
X0031783Y0078625
X0029607Y0080589
X0027786Y0077602
X0022483Y0080788
X0017684Y0080267
X0018867Y007716
X0018785Y0072645
X0018922Y006772
X0017684Y0053267
X0022184
X003398Y0054252
X0034009Y0050189
X0034037Y004587
X0040184Y0044267
X0044684
X0048619Y0044279
X0046934Y0048767
X0042434
X0043225Y0052534
X0040354Y0055142
X0041227Y0060717
X0042746Y0064579
X0044894Y0066756
X0039864Y006658
X003714Y0067736
X0037888Y0064089
X0054669Y0065284
X0058606
Y0069221
X0054669
Y0073158
X0058606
X0062543
Y0069221
Y0065284
X0072142Y0063952
X0070487Y0062256
X0067652Y0056705
X0069013Y0050469
X0070659Y0044111
X0066588Y0044046
X0062413Y0041551
X0059921Y0038704
X0055934Y0039767
X0055457Y0043253
X0060396Y0046125
X0059871Y0054479
X0057563Y0054365
X0052539Y0053628
X0055435Y0058101
X0075103Y0054282
X007806Y0054414
X0076562Y0051685
X0083796Y005111
X0083751Y0054609
X0083863Y0058515
X0088705Y0057017
X0091934Y0057767
X0096434
X0100934
X0105434
X0109934
X0114434
X0118934
X0123434
X0127934
X0132434
X0136934
X0139443Y0057158
Y0061658
Y0066158
X0136934Y0066767
X0132434
X0127934
X0123434
X0118934
X0114434
X0109934
X0105434
X0100934
X0096434
X0091934
X0088705Y0066017
Y0061517
X0094184Y0062267
X0098684
X0103184
X0107684
X0112184
X0116684
X0121184
X0125684
X0130184
X0134684
Y0071267
X0130184
X0125684
X0121184
X0116684
X0112184
X0107684
X0103184
X0098684
X0094184
X0088705Y0070517
Y0075017
X0091934Y0075767
X0096434
X0100934
X0105434
X0109934
X0114434
X0118934
X0123434
X0127934
X0132434
X0136934
X0139443Y0075158
Y0070658
Y0079658
Y0084685
X0136934Y0084767
X0132434
X0127934
X0123434
X0118934
X0114434
X0109934
X0105434
X0100934
X0096434
X0098684Y0089267
X0103184
X0107684
X0112184
X0116684
X0121184
X0125684
X0130184
X0134684
X0139443Y0089185
Y0093685
X0136934Y0093767
X0132434
X0127934
X0123434
X0118934
X0114434
X0109934
X0105434
X0100934
X0096434
X0091934
X0094184Y0098267
X0098684
X0103184
X0107684
X0112184
X0116684
X0121184
X0125684
X0130184
X0134684
X0139443Y0098185
Y0102685
X0136934Y0102767
X0132434
X0127934
X0123434
X0118934
X0114434
X0109934
X0105434
X0100934
X0096434
X0091934
X0085757Y0103298
X008615Y0099559
Y0095621
X008556Y0091684
X0085458Y0088728
X0088705Y0089044
X0089639Y0084486
X0088991Y007964
X0094184Y0080267
X0098684
X0103184
X0107684
X0112184
X0116684
X0121184
X0125684
X0130184
X0134684
Y0107267
X0130184
X0125684
X0121184
X0116684
X0112184
X0107684
X0103184
X0098684
X0094184
X0089302Y0107095
X0084992Y0107689
X008072Y0107299
X0075518Y010754
X0071684Y0107267
X0067184
X0062684
X0060676Y010427
X0065216Y0104332
X0066518Y01005
X0062506Y0100743
X0062329Y0097127
X0062406Y0091181
X0062427Y0087619
X0062388Y0084844
X0065395Y0083662
X006742Y0085449
X006643Y0088877
X006623Y0092215
X0069342Y0090583
X0068467Y0094751
X007365Y0091684
X0072961Y0088928
X0073571Y0083157
X0069142Y0078779
X006681Y0076572
X0063186Y0081242
X005542Y0086571
X0052336Y0086068
X0049065Y0085054
X0045634Y0085715
X0041957Y0085483
X003802
X0034082
X0030144
X0026041Y0085019
X0026684Y0089267
X0031184
X0035684
X0040184
X0044684
X0049184
X0053684
X0056441Y0089578
X0056524Y0094487
X0056256Y009977
X0051493Y0100116
X0046478Y0100172
X0043398Y009836
X0040701Y0095664
X0036763
X0037934Y0093767
X0041695Y0092464
X0046934Y0093767
X0051434
X0049234Y009715
X0049112Y0105597
X005189Y0105605
X0053993Y0106989
X0055966Y0105574
X0057677Y0108359
X0055934Y0111767
X0055212Y0114864
X0051274
X0051434Y0111767
X0046934
X0047336Y0114864
X0043398
Y0109964
Y0107964
X0044958Y0105741
X0046972Y010672
X0060434Y0111767
X0059149Y0114864
X0063087
X0067179Y0114707
X0071206Y0114681
X0075152Y0114743
X0073934Y0111767
X0078434
X0082934
X0087434
X0091934
X0096434
X0100934
X0105434
X0109934
X0114434
X0118934
X0123434
X0127934
X0132434
X0136934
X0134761Y0114879
X0130187Y011481
X0125688Y0114944
X0121252Y0114783
X0116632Y0114859
X0112058Y011479
X0107559Y0114924
X0102898
X0098302Y0114778
X0093641
X0089335Y0114742
X0084674
X0080136Y0114716
X0069434Y0111767
X0064934
X0069434Y0102767
X0073934
X0079457Y0088928
X008363Y0083157
X0079913Y0079157
X0078375Y0076723
X0080101Y0074467
X0083772Y0075203
X0073158Y0070227
X0076034Y0044193
X0075703Y0037667
X0075103Y0034
X0079308Y0034375
X0079703Y0038064
X0084083Y0039814
X0087434Y0039767
X0091934
X0096434
X0100934
X0105434
X0109934
X0114434
X0118934
X0123434
X0128055Y003883
X0133198Y0038681
X0134353Y0033687
X0129024Y0034134
X0131632Y0029821
X012757Y0027734
X0127934Y0021767
X0132434
X0136934
X0139443Y0021158
Y0016658
Y0012158
X0136934Y0012767
X0132434
X0127934
X0123434
X0123109Y001727
X0123434Y0021767
X0121086Y0027511
X0118448Y0027409
X011556Y0027407
X0116911Y0029941
X0119632Y0030066
X0121184Y0035267
X0116684
X0112184
X0107684
X0103184
X0098684
X0094184
X0088705Y0034517
X0084322Y0035274
X0086154Y0030162
X0085179Y0026485
X0089373Y0026434
X0093837
X0098323
X0102787
X0107415Y0026475
X0111879
X0109934Y0030767
X0105434
X0100934
X0096434
X0091934
X0090764Y0020999
X00863
X0085184Y0017267
X0088705Y0016517
X0087434Y0012767
X0091934
X0096434
X0100934
X0105434
X0109934
X0114434
X0114591Y0017117
X0113269Y002082
X0108846Y002104
X0104383
X0099714Y0020999
X009525
X0094184Y0017267
X0098684
X0103184
X0107684
Y0008267
X0112184
X0116684
X0121184
X0125684
X0130184
X0134684
X0139479Y0006981
Y0002497
X0133942Y0002518
X01287Y0002504
X0124214
X011975
X0114306Y0002446
X0108341Y0002372
X0103099Y0002358
X0098613
X0094149
X0088705Y00023
X0084091
X0079605
X0075141
X0070183
X0065719
X0061233
X0056769
X0051816
X0046746
X0041794
X0037043
X0032132
X0027389
X0022845
X0017815Y0002426
X0019138Y0005174
X0017684Y0008267
X0022184
X0026684
X0030555Y001028
X0028934Y0012767
X0024434
X0019934
X0022184Y0017267
X0026684
X0031184
X0033509Y001911
X0037769Y0016471
X0042885Y0016436
X0047921Y0016125
X0053684Y0017267
X0058184
X0062684
X0067184
X0067186Y0012123
X0067184Y0008267
X0071684
X0076184
X0080684
X0085184
X0088822Y0007886
X009117Y0005171
X0094184Y0008267
X0098684
X0103184
X0118653Y0014133
X0130184Y0017267
X0134684
X0135806Y0026914
X0139443Y0025658
Y0030158
Y0034658
X0139509Y0039134
X0139443Y0043658
Y0048158
X0136934Y0048767
X0132434
X0127934
X0123434
X0118934
X0114434
X0109934
X0105434
X0100934
X0096434
X0091934
X0088705Y0048017
Y0052517
X0094184Y0053267
X0098684
X0103184
X0107684
X0112184
X0116684
X0121184
X0125684
X0130184
X0134684
X0139443Y0052658
X0134684Y0044267
X0130184
X0125684
X0121184
X0116684
X0112184
X0107684
X0103184
X0098684
X0094184
X0088253Y0043718
X0083751Y0047203
X0078434Y0030767
X0077917Y0026522
X0077645Y0021318
X0080782Y0019283
X0080647Y0016259
X0076184Y0017267
X0078434Y0012767
X0082934
X0071605Y0014046
X0069745Y0021329
X0065259
X0060795
X0056601Y002138
X005701Y0026573
X0061204Y0026522
X0065668
X0070154
X0069434Y0030767
X007021Y0034
X0066272
X0062335
X0058932Y0032969
X0060434Y0030767
X0064934
X006532Y0037954
X006978Y0037964
X004834Y0036173
X0046934Y0039767
X0042434
X004283Y0032549
X0046589Y0032598
X0037815Y0032301
X003274Y0033932
X0028934Y0030767
X0026684Y0035267
X0027803Y0039219
X0027671Y0044051
X0026684Y0026267
X0028934Y0021767
X0024434
X0019934
X0020876Y0025115
X0018731Y002926
X001876Y0033778
X0017684Y0017267
X0057235Y0012059
X0058184Y0008267
X0062684
X0062504Y0012123
X0094184Y0089267
X0088705Y0098044
X0032825Y0095664
X0033031Y0092223
X0028948Y0092475
X0028887Y0095664
X0024949
X0021012
X0017074
X0019132Y0091721
X0017684Y0089267
X0022184
X0024449Y0091963
X0019934Y0084767
X0139443Y0107185
X0139381Y0114803
M30
